<?xml version="1.0" encoding="UTF-8" standalone="no"?>
<!DOCTYPE svg PUBLIC "-//W3C//DTD SVG 1.1//EN"
 "http://www.w3.org/Graphics/SVG/1.1/DTD/svg11.dtd">
<!-- Generated by graphviz version 2.40.1 (20161225.0304)
 -->
<!-- Title: src/cache.hpp Pages: 1 -->
<svg width="381pt" height="192pt"
 viewBox="0.00 0.00 380.76 192.00" xmlns="http://www.w3.org/2000/svg" xmlns:xlink="http://www.w3.org/1999/xlink">
<g id="graph0" class="graph" transform="scale(1 1) rotate(0) translate(4 188)">
<title>src/cache.hpp</title>
<polygon fill="#ffffff" stroke="transparent" points="-4,4 -4,-188 376.7613,-188 376.7613,4 -4,4"/>
<!-- Node0 -->
<g id="node1" class="node">
<title>Node0</title>
<polygon fill="#bfbfbf" stroke="#000000" points="79.4907,-165.5 79.4907,-183.5 157.7466,-183.5 157.7466,-165.5 79.4907,-165.5"/>
<text text-anchor="middle" x="118.6187" y="-171.5" font-family="Helvetica,sans-Serif" font-size="10.00" fill="#000000">src/cache.hpp</text>
</g>
<!-- Node1 -->
<g id="node2" class="node">
<title>Node1</title>
<polygon fill="#ffffff" stroke="#bfbfbf" points="81.3921,-55.5 81.3921,-73.5 121.8452,-73.5 121.8452,-55.5 81.3921,-55.5"/>
<text text-anchor="middle" x="101.6187" y="-61.5" font-family="Helvetica,sans-Serif" font-size="10.00" fill="#000000">string</text>
</g>
<!-- Node0&#45;&gt;Node1 -->
<g id="edge1" class="edge">
<title>Node0&#45;&gt;Node1</title>
<path fill="none" stroke="#191970" d="M79.36,-170.0414C53.4152,-164.8284 21.2342,-153.5216 4.6187,-129 -14.9988,-100.0479 36.1492,-80.7786 71.4092,-71.3215"/>
<polygon fill="#191970" stroke="#191970" points="72.4729,-74.6625 81.3032,-68.8079 70.7492,-67.8781 72.4729,-74.6625"/>
</g>
<!-- Node2 -->
<g id="node3" class="node">
<title>Node2</title>
<polygon fill="#ffffff" stroke="#bfbfbf" points="14.003,-110.5 14.003,-128.5 57.2344,-128.5 57.2344,-110.5 14.003,-110.5"/>
<text text-anchor="middle" x="35.6187" y="-116.5" font-family="Helvetica,sans-Serif" font-size="10.00" fill="#000000">vector</text>
</g>
<!-- Node0&#45;&gt;Node2 -->
<g id="edge2" class="edge">
<title>Node0&#45;&gt;Node2</title>
<path fill="none" stroke="#191970" d="M104.9129,-165.4179C92.1775,-156.9788 72.9792,-144.257 58.0175,-134.3426"/>
<polygon fill="#191970" stroke="#191970" points="59.6141,-131.2019 49.3448,-128.5956 55.7474,-137.037 59.6141,-131.2019"/>
</g>
<!-- Node3 -->
<g id="node4" class="node">
<title>Node3</title>
<polygon fill="#ffffff" stroke="#bfbfbf" points="75.3159,-110.5 75.3159,-128.5 161.9214,-128.5 161.9214,-110.5 75.3159,-110.5"/>
<text text-anchor="middle" x="118.6187" y="-116.5" font-family="Helvetica,sans-Serif" font-size="10.00" fill="#000000">unordered_map</text>
</g>
<!-- Node0&#45;&gt;Node3 -->
<g id="edge3" class="edge">
<title>Node0&#45;&gt;Node3</title>
<path fill="none" stroke="#191970" d="M118.6187,-165.4179C118.6187,-158.2164 118.6187,-147.8962 118.6187,-138.8632"/>
<polygon fill="#191970" stroke="#191970" points="122.1188,-138.7794 118.6187,-128.7795 115.1188,-138.7795 122.1188,-138.7794"/>
</g>
<!-- Node4 -->
<g id="node5" class="node">
<title>Node4</title>
<polygon fill="#ffffff" stroke="#bfbfbf" points="180.3306,-110.5 180.3306,-128.5 226.9068,-128.5 226.9068,-110.5 180.3306,-110.5"/>
<text text-anchor="middle" x="203.6187" y="-116.5" font-family="Helvetica,sans-Serif" font-size="10.00" fill="#000000">chrono</text>
</g>
<!-- Node0&#45;&gt;Node4 -->
<g id="edge4" class="edge">
<title>Node0&#45;&gt;Node4</title>
<path fill="none" stroke="#191970" d="M132.6547,-165.4179C145.82,-156.8992 165.7294,-144.0166 181.1126,-134.0627"/>
<polygon fill="#191970" stroke="#191970" points="183.0675,-136.9667 189.5618,-128.5956 179.2647,-131.0897 183.0675,-136.9667"/>
</g>
<!-- Node5 -->
<g id="node6" class="node">
<title>Node5</title>
<g id="a_node6"><a xlink:href="netflow_8hpp.xhtml" target="_top" xlink:title="Netflow structure header file. ">
<polygon fill="#ffffff" stroke="#000000" points="245.3184,-110.5 245.3184,-128.5 311.919,-128.5 311.919,-110.5 245.3184,-110.5"/>
<text text-anchor="middle" x="278.6187" y="-116.5" font-family="Helvetica,sans-Serif" font-size="10.00" fill="#000000">netflow.hpp</text>
</a>
</g>
</g>
<!-- Node0&#45;&gt;Node5 -->
<g id="edge5" class="edge">
<title>Node0&#45;&gt;Node5</title>
<path fill="none" stroke="#191970" d="M145.0394,-165.4179C171.7537,-156.2348 213.2202,-141.9807 242.8633,-131.7909"/>
<polygon fill="#191970" stroke="#191970" points="244.1055,-135.065 252.4246,-128.5042 241.8299,-128.4452 244.1055,-135.065"/>
</g>
<!-- Node5&#45;&gt;Node1 -->
<g id="edge6" class="edge">
<title>Node5&#45;&gt;Node1</title>
<path fill="none" stroke="#191970" d="M249.3907,-110.4179C216.9629,-100.3414 164.8857,-84.1593 132.0005,-73.9407"/>
<polygon fill="#191970" stroke="#191970" points="132.6352,-70.4729 122.047,-70.8478 130.558,-77.1576 132.6352,-70.4729"/>
</g>
<!-- Node6 -->
<g id="node7" class="node">
<title>Node6</title>
<polygon fill="#ffffff" stroke="#bfbfbf" points="210.8921,-55.5 210.8921,-73.5 256.3452,-73.5 256.3452,-55.5 210.8921,-55.5"/>
<text text-anchor="middle" x="233.6187" y="-61.5" font-family="Helvetica,sans-Serif" font-size="10.00" fill="#000000">cstring</text>
</g>
<!-- Node5&#45;&gt;Node6 -->
<g id="edge7" class="edge">
<title>Node5&#45;&gt;Node6</title>
<path fill="none" stroke="#191970" d="M271.1878,-110.4179C264.8425,-102.6624 255.5378,-91.29 247.7761,-81.8035"/>
<polygon fill="#191970" stroke="#191970" points="250.2522,-79.3027 241.211,-73.7795 244.8345,-83.7354 250.2522,-79.3027"/>
</g>
<!-- Node7 -->
<g id="node8" class="node">
<title>Node7</title>
<g id="a_node8"><a xlink:href="tcpip__headers_8hpp.xhtml" target="_top" xlink:title="Protocol headers. ">
<polygon fill="#ffffff" stroke="#000000" points="274.4761,-55.5 274.4761,-73.5 372.7613,-73.5 372.7613,-55.5 274.4761,-55.5"/>
<text text-anchor="middle" x="323.6187" y="-61.5" font-family="Helvetica,sans-Serif" font-size="10.00" fill="#000000">tcpip_headers.hpp</text>
</a>
</g>
</g>
<!-- Node5&#45;&gt;Node7 -->
<g id="edge8" class="edge">
<title>Node5&#45;&gt;Node7</title>
<path fill="none" stroke="#191970" d="M286.0495,-110.4179C292.3949,-102.6624 301.6996,-91.29 309.4613,-81.8035"/>
<polygon fill="#191970" stroke="#191970" points="312.4028,-83.7354 316.0264,-73.7795 306.9851,-79.3027 312.4028,-83.7354"/>
</g>
<!-- Node8 -->
<g id="node9" class="node">
<title>Node8</title>
<polygon fill="#ffffff" stroke="#bfbfbf" points="299.4981,-.5 299.4981,-18.5 347.7393,-18.5 347.7393,-.5 299.4981,-.5"/>
<text text-anchor="middle" x="323.6187" y="-6.5" font-family="Helvetica,sans-Serif" font-size="10.00" fill="#000000">stdint.h</text>
</g>
<!-- Node7&#45;&gt;Node8 -->
<g id="edge9" class="edge">
<title>Node7&#45;&gt;Node8</title>
<path fill="none" stroke="#191970" d="M323.6187,-55.4179C323.6187,-48.2164 323.6187,-37.8962 323.6187,-28.8632"/>
<polygon fill="#191970" stroke="#191970" points="327.1188,-28.7794 323.6187,-18.7795 320.1188,-28.7795 327.1188,-28.7794"/>
</g>
</g>
</svg>
