<?xml version="1.0" encoding="UTF-8" standalone="no"?>
<!DOCTYPE svg PUBLIC "-//W3C//DTD SVG 1.1//EN"
 "http://www.w3.org/Graphics/SVG/1.1/DTD/svg11.dtd">
<!-- Generated by graphviz version 2.40.1 (20161225.0304)
 -->
<!-- Title: src/cache.cpp Pages: 1 -->
<svg width="838pt" height="247pt"
 viewBox="0.00 0.00 837.72 247.00" xmlns="http://www.w3.org/2000/svg" xmlns:xlink="http://www.w3.org/1999/xlink">
<g id="graph0" class="graph" transform="scale(1 1) rotate(0) translate(4 243)">
<title>src/cache.cpp</title>
<polygon fill="#ffffff" stroke="transparent" points="-4,4 -4,-243 833.7231,-243 833.7231,4 -4,4"/>
<!-- Node0 -->
<g id="node1" class="node">
<title>Node0</title>
<polygon fill="#bfbfbf" stroke="#000000" points="152.6444,-220.5 152.6444,-238.5 230.3388,-238.5 230.3388,-220.5 152.6444,-220.5"/>
<text text-anchor="middle" x="191.4916" y="-226.5" font-family="Helvetica,sans-Serif" font-size="10.00" fill="#000000">src/cache.cpp</text>
</g>
<!-- Node1 -->
<g id="node2" class="node">
<title>Node1</title>
<polygon fill="#ffffff" stroke="#bfbfbf" points="13.3193,-110.5 13.3193,-128.5 67.664,-128.5 67.664,-110.5 13.3193,-110.5"/>
<text text-anchor="middle" x="40.4916" y="-116.5" font-family="Helvetica,sans-Serif" font-size="10.00" fill="#000000">iostream</text>
</g>
<!-- Node0&#45;&gt;Node1 -->
<g id="edge1" class="edge">
<title>Node0&#45;&gt;Node1</title>
<path fill="none" stroke="#191970" d="M152.6007,-225.6211C103.3083,-219.8087 22.5563,-206.9871 4.4916,-184 -7.4759,-168.7714 7.2076,-149.0617 21.2611,-135.4587"/>
<polygon fill="#191970" stroke="#191970" points="23.7723,-137.9064 28.8306,-128.597 19.0709,-132.7201 23.7723,-137.9064"/>
</g>
<!-- Node2 -->
<g id="node3" class="node">
<title>Node2</title>
<polygon fill="#ffffff" stroke="#bfbfbf" points="13.7651,-165.5 13.7651,-183.5 59.2182,-183.5 59.2182,-165.5 13.7651,-165.5"/>
<text text-anchor="middle" x="36.4916" y="-171.5" font-family="Helvetica,sans-Serif" font-size="10.00" fill="#000000">atomic</text>
</g>
<!-- Node0&#45;&gt;Node2 -->
<g id="edge2" class="edge">
<title>Node0&#45;&gt;Node2</title>
<path fill="none" stroke="#191970" d="M165.8965,-220.4179C139.4373,-211.0291 98.0395,-196.3396 69.2173,-186.1123"/>
<polygon fill="#191970" stroke="#191970" points="70.1868,-182.7426 59.592,-182.6969 67.8458,-189.3396 70.1868,-182.7426"/>
</g>
<!-- Node3 -->
<g id="node4" class="node">
<title>Node3</title>
<polygon fill="#ffffff" stroke="#bfbfbf" points="76.7651,-165.5 76.7651,-183.5 112.2182,-183.5 112.2182,-165.5 76.7651,-165.5"/>
<text text-anchor="middle" x="94.4916" y="-171.5" font-family="Helvetica,sans-Serif" font-size="10.00" fill="#000000">map</text>
</g>
<!-- Node0&#45;&gt;Node3 -->
<g id="edge3" class="edge">
<title>Node0&#45;&gt;Node3</title>
<path fill="none" stroke="#191970" d="M175.474,-220.4179C160.3097,-211.8195 137.3046,-198.7754 119.6841,-188.7844"/>
<polygon fill="#191970" stroke="#191970" points="120.9583,-185.4834 110.533,-183.5956 117.5056,-191.5727 120.9583,-185.4834"/>
</g>
<!-- Node4 -->
<g id="node5" class="node">
<title>Node4</title>
<g id="a_node5"><a xlink:href="tcpip__headers_8hpp.xhtml" target="_top" xlink:title="Protocol headers. ">
<polygon fill="#ffffff" stroke="#000000" points="158.349,-55.5 158.349,-73.5 256.6342,-73.5 256.6342,-55.5 158.349,-55.5"/>
<text text-anchor="middle" x="207.4916" y="-61.5" font-family="Helvetica,sans-Serif" font-size="10.00" fill="#000000">tcpip_headers.hpp</text>
</a>
</g>
</g>
<!-- Node0&#45;&gt;Node4 -->
<g id="edge4" class="edge">
<title>Node0&#45;&gt;Node4</title>
<path fill="none" stroke="#191970" d="M194.3084,-220.1919C196.9344,-211.0673 200.706,-196.7157 202.4916,-184 207.4297,-148.8342 208.0016,-107.3235 207.837,-83.6382"/>
<polygon fill="#191970" stroke="#191970" points="211.3357,-83.505 207.713,-73.5488 204.3363,-83.5911 211.3357,-83.505"/>
</g>
<!-- Node6 -->
<g id="node7" class="node">
<title>Node6</title>
<g id="a_node7"><a xlink:href="netflow_8hpp.xhtml" target="_top" xlink:title="Netflow structure header file. ">
<polygon fill="#ffffff" stroke="#000000" points="249.1913,-110.5 249.1913,-128.5 315.7919,-128.5 315.7919,-110.5 249.1913,-110.5"/>
<text text-anchor="middle" x="282.4916" y="-116.5" font-family="Helvetica,sans-Serif" font-size="10.00" fill="#000000">netflow.hpp</text>
</a>
</g>
</g>
<!-- Node0&#45;&gt;Node6 -->
<g id="edge6" class="edge">
<title>Node0&#45;&gt;Node6</title>
<path fill="none" stroke="#191970" d="M200.9863,-220.4437C210.1759,-211.5059 224.3175,-197.2885 235.4916,-184 248.2642,-168.8106 261.4574,-150.4266 270.6021,-137.178"/>
<polygon fill="#191970" stroke="#191970" points="273.7383,-138.7912 276.4814,-128.5576 267.9553,-134.847 273.7383,-138.7912"/>
</g>
<!-- Node9 -->
<g id="node10" class="node">
<title>Node9</title>
<g id="a_node10"><a xlink:href="debug_8hpp.xhtml" target="_top" xlink:title="Debugging functions. ">
<polygon fill="#ffffff" stroke="#000000" points="129.8564,-165.5 129.8564,-183.5 193.1269,-183.5 193.1269,-165.5 129.8564,-165.5"/>
<text text-anchor="middle" x="161.4916" y="-171.5" font-family="Helvetica,sans-Serif" font-size="10.00" fill="#000000">debug.hpp</text>
</a>
</g>
</g>
<!-- Node0&#45;&gt;Node9 -->
<g id="edge10" class="edge">
<title>Node0&#45;&gt;Node9</title>
<path fill="none" stroke="#191970" d="M186.5377,-220.4179C182.437,-212.8998 176.4823,-201.9829 171.4079,-192.6799"/>
<polygon fill="#191970" stroke="#191970" points="174.4143,-190.8824 166.5531,-183.7795 168.2691,-194.2344 174.4143,-190.8824"/>
</g>
<!-- Node11 -->
<g id="node12" class="node">
<title>Node11</title>
<g id="a_node12"><a xlink:href="cache_8hpp.xhtml" target="_top" xlink:title="Cache implementation header file. ">
<polygon fill="#ffffff" stroke="#000000" points="337.4179,-165.5 337.4179,-183.5 399.5653,-183.5 399.5653,-165.5 337.4179,-165.5"/>
<text text-anchor="middle" x="368.4916" y="-171.5" font-family="Helvetica,sans-Serif" font-size="10.00" fill="#000000">cache.hpp</text>
</a>
</g>
</g>
<!-- Node0&#45;&gt;Node11 -->
<g id="edge13" class="edge">
<title>Node0&#45;&gt;Node11</title>
<path fill="none" stroke="#191970" d="M220.7196,-220.4179C250.5292,-211.155 296.9435,-196.7325 329.7898,-186.526"/>
<polygon fill="#191970" stroke="#191970" points="331.0034,-189.814 339.5144,-183.5042 328.9262,-183.1293 331.0034,-189.814"/>
</g>
<!-- Node15 -->
<g id="node16" class="node">
<title>Node15</title>
<g id="a_node16"><a xlink:href="utils_8hpp.xhtml" target="_top" xlink:title="Small useful functions header file. ">
<polygon fill="#ffffff" stroke="#000000" points="642.8686,-165.5 642.8686,-183.5 696.1147,-183.5 696.1147,-165.5 642.8686,-165.5"/>
<text text-anchor="middle" x="669.4916" y="-171.5" font-family="Helvetica,sans-Serif" font-size="10.00" fill="#000000">utils.hpp</text>
</a>
</g>
</g>
<!-- Node0&#45;&gt;Node15 -->
<g id="edge19" class="edge">
<title>Node0&#45;&gt;Node15</title>
<path fill="none" stroke="#191970" d="M230.6084,-224.9991C321.2402,-214.5708 544.5847,-188.8721 632.7977,-178.7221"/>
<polygon fill="#191970" stroke="#191970" points="633.3331,-182.1837 642.8675,-177.5634 632.5329,-175.2296 633.3331,-182.1837"/>
</g>
<!-- Node5 -->
<g id="node6" class="node">
<title>Node5</title>
<polygon fill="#ffffff" stroke="#bfbfbf" points="183.371,-.5 183.371,-18.5 231.6122,-18.5 231.6122,-.5 183.371,-.5"/>
<text text-anchor="middle" x="207.4916" y="-6.5" font-family="Helvetica,sans-Serif" font-size="10.00" fill="#000000">stdint.h</text>
</g>
<!-- Node4&#45;&gt;Node5 -->
<g id="edge5" class="edge">
<title>Node4&#45;&gt;Node5</title>
<path fill="none" stroke="#191970" d="M207.4916,-55.4179C207.4916,-48.2164 207.4916,-37.8962 207.4916,-28.8632"/>
<polygon fill="#191970" stroke="#191970" points="210.9917,-28.7794 207.4916,-18.7795 203.9917,-28.7795 210.9917,-28.7794"/>
</g>
<!-- Node6&#45;&gt;Node4 -->
<g id="edge9" class="edge">
<title>Node6&#45;&gt;Node4</title>
<path fill="none" stroke="#191970" d="M270.1069,-110.4179C258.7076,-102.0584 241.5779,-89.4966 228.1151,-79.6239"/>
<polygon fill="#191970" stroke="#191970" points="230.0286,-76.6869 219.8947,-73.5956 225.889,-82.3317 230.0286,-76.6869"/>
</g>
<!-- Node7 -->
<g id="node8" class="node">
<title>Node7</title>
<polygon fill="#ffffff" stroke="#bfbfbf" points="338.2651,-55.5 338.2651,-73.5 378.7182,-73.5 378.7182,-55.5 338.2651,-55.5"/>
<text text-anchor="middle" x="358.4916" y="-61.5" font-family="Helvetica,sans-Serif" font-size="10.00" fill="#000000">string</text>
</g>
<!-- Node6&#45;&gt;Node7 -->
<g id="edge7" class="edge">
<title>Node6&#45;&gt;Node7</title>
<path fill="none" stroke="#191970" d="M295.0415,-110.4179C306.5928,-102.0584 323.9508,-89.4966 337.5931,-79.6239"/>
<polygon fill="#191970" stroke="#191970" points="339.8739,-82.2938 345.9231,-73.5956 335.77,-76.6229 339.8739,-82.2938"/>
</g>
<!-- Node8 -->
<g id="node9" class="node">
<title>Node8</title>
<polygon fill="#ffffff" stroke="#bfbfbf" points="274.7651,-55.5 274.7651,-73.5 320.2182,-73.5 320.2182,-55.5 274.7651,-55.5"/>
<text text-anchor="middle" x="297.4916" y="-61.5" font-family="Helvetica,sans-Serif" font-size="10.00" fill="#000000">cstring</text>
</g>
<!-- Node6&#45;&gt;Node8 -->
<g id="edge8" class="edge">
<title>Node6&#45;&gt;Node8</title>
<path fill="none" stroke="#191970" d="M284.9686,-110.4179C286.9542,-103.1372 289.8092,-92.669 292.2918,-83.5659"/>
<polygon fill="#191970" stroke="#191970" points="295.7063,-84.348 294.9609,-73.7795 288.9529,-82.5062 295.7063,-84.348"/>
</g>
<!-- Node9&#45;&gt;Node1 -->
<g id="edge11" class="edge">
<title>Node9&#45;&gt;Node1</title>
<path fill="none" stroke="#191970" d="M141.5109,-165.4179C121.9816,-156.5409 92.0272,-142.9253 69.8021,-132.823"/>
<polygon fill="#191970" stroke="#191970" points="71.054,-129.5474 60.502,-128.5956 68.1573,-135.92 71.054,-129.5474"/>
</g>
<!-- Node10 -->
<g id="node11" class="node">
<title>Node10</title>
<polygon fill="#ffffff" stroke="#bfbfbf" points="139.8759,-110.5 139.8759,-128.5 183.1073,-128.5 183.1073,-110.5 139.8759,-110.5"/>
<text text-anchor="middle" x="161.4916" y="-116.5" font-family="Helvetica,sans-Serif" font-size="10.00" fill="#000000">mutex</text>
</g>
<!-- Node9&#45;&gt;Node10 -->
<g id="edge12" class="edge">
<title>Node9&#45;&gt;Node10</title>
<path fill="none" stroke="#191970" d="M161.4916,-165.4179C161.4916,-158.2164 161.4916,-147.8962 161.4916,-138.8632"/>
<polygon fill="#191970" stroke="#191970" points="164.9917,-138.7794 161.4916,-128.7795 157.9917,-138.7795 164.9917,-138.7794"/>
</g>
<!-- Node11&#45;&gt;Node6 -->
<g id="edge18" class="edge">
<title>Node11&#45;&gt;Node6</title>
<path fill="none" stroke="#191970" d="M354.2905,-165.4179C340.9703,-156.8992 320.8266,-144.0166 305.2624,-134.0627"/>
<polygon fill="#191970" stroke="#191970" points="307.0241,-131.0348 296.7139,-128.5956 303.2526,-136.932 307.0241,-131.0348"/>
</g>
<!-- Node11&#45;&gt;Node7 -->
<g id="edge14" class="edge">
<title>Node11&#45;&gt;Node7</title>
<path fill="none" stroke="#191970" d="M367.1115,-165.4567C365.7568,-156.2902 363.7202,-141.689 362.4916,-129 361.0346,-113.9522 360.0032,-96.8752 359.353,-84.0744"/>
<polygon fill="#191970" stroke="#191970" points="362.831,-83.5248 358.8618,-73.7016 355.8388,-83.856 362.831,-83.5248"/>
</g>
<!-- Node12 -->
<g id="node13" class="node">
<title>Node12</title>
<polygon fill="#ffffff" stroke="#bfbfbf" points="371.8759,-110.5 371.8759,-128.5 415.1073,-128.5 415.1073,-110.5 371.8759,-110.5"/>
<text text-anchor="middle" x="393.4916" y="-116.5" font-family="Helvetica,sans-Serif" font-size="10.00" fill="#000000">vector</text>
</g>
<!-- Node11&#45;&gt;Node12 -->
<g id="edge15" class="edge">
<title>Node11&#45;&gt;Node12</title>
<path fill="none" stroke="#191970" d="M372.6199,-165.4179C376.0012,-157.9789 380.8951,-147.2123 385.0943,-137.9742"/>
<polygon fill="#191970" stroke="#191970" points="388.3219,-139.3315 389.2737,-128.7795 381.9493,-136.4348 388.3219,-139.3315"/>
</g>
<!-- Node13 -->
<g id="node14" class="node">
<title>Node13</title>
<polygon fill="#ffffff" stroke="#bfbfbf" points="433.1889,-110.5 433.1889,-128.5 519.7943,-128.5 519.7943,-110.5 433.1889,-110.5"/>
<text text-anchor="middle" x="476.4916" y="-116.5" font-family="Helvetica,sans-Serif" font-size="10.00" fill="#000000">unordered_map</text>
</g>
<!-- Node11&#45;&gt;Node13 -->
<g id="edge16" class="edge">
<title>Node11&#45;&gt;Node13</title>
<path fill="none" stroke="#191970" d="M386.3256,-165.4179C403.5223,-156.6603 429.7753,-143.2907 449.5259,-133.2326"/>
<polygon fill="#191970" stroke="#191970" points="451.3084,-136.2526 458.6311,-128.5956 448.1318,-130.0148 451.3084,-136.2526"/>
</g>
<!-- Node14 -->
<g id="node15" class="node">
<title>Node14</title>
<polygon fill="#ffffff" stroke="#bfbfbf" points="538.2035,-110.5 538.2035,-128.5 584.7797,-128.5 584.7797,-110.5 538.2035,-110.5"/>
<text text-anchor="middle" x="561.4916" y="-116.5" font-family="Helvetica,sans-Serif" font-size="10.00" fill="#000000">chrono</text>
</g>
<!-- Node11&#45;&gt;Node14 -->
<g id="edge17" class="edge">
<title>Node11&#45;&gt;Node14</title>
<path fill="none" stroke="#191970" d="M399.7719,-165.637C430.0778,-157.043 477.5938,-143.5499 528.2325,-129.0674"/>
<polygon fill="#191970" stroke="#191970" points="529.4071,-132.3719 538.0585,-126.256 527.4815,-125.6419 529.4071,-132.3719"/>
</g>
<!-- Node15&#45;&gt;Node7 -->
<g id="edge21" class="edge">
<title>Node15&#45;&gt;Node7</title>
<path fill="none" stroke="#191970" d="M661.6504,-165.3334C648.9011,-151.0711 622.1987,-123.7784 593.4916,-110 557.6662,-92.8051 444.2122,-75.9076 389.1123,-68.4599"/>
<polygon fill="#191970" stroke="#191970" points="389.2857,-64.9521 378.9107,-67.099 388.36,-71.8906 389.2857,-64.9521"/>
</g>
<!-- Node16 -->
<g id="node17" class="node">
<title>Node16</title>
<polygon fill="#ffffff" stroke="#bfbfbf" points="640.0878,-110.5 640.0878,-128.5 698.8954,-128.5 698.8954,-110.5 640.0878,-110.5"/>
<text text-anchor="middle" x="669.4916" y="-116.5" font-family="Helvetica,sans-Serif" font-size="10.00" fill="#000000">exception</text>
</g>
<!-- Node15&#45;&gt;Node16 -->
<g id="edge20" class="edge">
<title>Node15&#45;&gt;Node16</title>
<path fill="none" stroke="#191970" d="M669.4916,-165.4179C669.4916,-158.2164 669.4916,-147.8962 669.4916,-138.8632"/>
<polygon fill="#191970" stroke="#191970" points="672.9917,-138.7794 669.4916,-128.7795 665.9917,-138.7795 672.9917,-138.7794"/>
</g>
<!-- Node17 -->
<g id="node18" class="node">
<title>Node17</title>
<polygon fill="#ffffff" stroke="#bfbfbf" points="717.3193,-110.5 717.3193,-128.5 761.664,-128.5 761.664,-110.5 717.3193,-110.5"/>
<text text-anchor="middle" x="739.4916" y="-116.5" font-family="Helvetica,sans-Serif" font-size="10.00" fill="#000000">cerrno</text>
</g>
<!-- Node15&#45;&gt;Node17 -->
<g id="edge22" class="edge">
<title>Node15&#45;&gt;Node17</title>
<path fill="none" stroke="#191970" d="M681.0507,-165.4179C691.5256,-157.1876 707.1848,-144.8839 719.658,-135.0836"/>
<polygon fill="#191970" stroke="#191970" points="721.9806,-137.7098 727.6814,-128.7795 717.6558,-132.2056 721.9806,-137.7098"/>
</g>
<!-- Node18 -->
<g id="node19" class="node">
<title>Node18</title>
<g id="a_node19"><a xlink:href="utils_8tpp.xhtml" target="_top" xlink:title="Small useful templated functions. ">
<polygon fill="#ffffff" stroke="#000000" points="779.2602,-110.5 779.2602,-128.5 829.7231,-128.5 829.7231,-110.5 779.2602,-110.5"/>
<text text-anchor="middle" x="804.4916" y="-116.5" font-family="Helvetica,sans-Serif" font-size="10.00" fill="#000000">utils.tpp</text>
</a>
</g>
</g>
<!-- Node15&#45;&gt;Node18 -->
<g id="edge23" class="edge">
<title>Node15&#45;&gt;Node18</title>
<path fill="none" stroke="#191970" d="M691.7841,-165.4179C713.8662,-156.4215 747.8946,-142.5581 772.7859,-132.4172"/>
<polygon fill="#191970" stroke="#191970" points="774.2256,-135.61 782.166,-128.5956 771.5845,-129.1273 774.2256,-135.61"/>
</g>
</g>
</svg>
