<?xml version="1.0" encoding="UTF-8" standalone="no"?>
<!DOCTYPE svg PUBLIC "-//W3C//DTD SVG 1.1//EN"
 "http://www.w3.org/Graphics/SVG/1.1/DTD/svg11.dtd">
<!-- Generated by graphviz version 2.40.1 (20161225.0304)
 -->
<!-- Title: src/cache.hpp Pages: 1 -->
<svg width="821pt" height="247pt"
 viewBox="0.00 0.00 820.70 247.00" xmlns="http://www.w3.org/2000/svg" xmlns:xlink="http://www.w3.org/1999/xlink">
<g id="graph0" class="graph" transform="scale(1 1) rotate(0) translate(4 243)">
<title>src/cache.hpp</title>
<polygon fill="#ffffff" stroke="transparent" points="-4,4 -4,-243 816.6968,-243 816.6968,4 -4,4"/>
<!-- Node9 -->
<g id="node1" class="node">
<title>Node9</title>
<polygon fill="#bfbfbf" stroke="#000000" points="338.7192,-220.5 338.7192,-238.5 416.9751,-238.5 416.9751,-220.5 338.7192,-220.5"/>
<text text-anchor="middle" x="377.8472" y="-226.5" font-family="Helvetica,sans-Serif" font-size="10.00" fill="#000000">src/cache.hpp</text>
</g>
<!-- Node10 -->
<g id="node2" class="node">
<title>Node10</title>
<g id="a_node2"><a xlink:href="cache_8cpp.xhtml" target="_top" xlink:title="Cache implementation sources. ">
<polygon fill="#ffffff" stroke="#000000" points="0,-165.5 0,-183.5 77.6943,-183.5 77.6943,-165.5 0,-165.5"/>
<text text-anchor="middle" x="38.8472" y="-171.5" font-family="Helvetica,sans-Serif" font-size="10.00" fill="#000000">src/cache.cpp</text>
</a>
</g>
</g>
<!-- Node9&#45;&gt;Node10 -->
<g id="edge1" class="edge">
<title>Node9&#45;&gt;Node10</title>
<path fill="none" stroke="#191970" d="M328.3004,-221.9191C271.233,-213.1175 174.6835,-198.0119 91.8472,-184 87.3308,-183.236 82.6016,-182.4165 77.9066,-181.5906"/>
<polygon fill="#191970" stroke="#191970" points="328.0682,-225.4245 338.4845,-223.4875 329.1338,-218.5061 328.0682,-225.4245"/>
</g>
<!-- Node11 -->
<g id="node3" class="node">
<title>Node11</title>
<g id="a_node3"><a xlink:href="pcapng__blocks_8hpp.xhtml" target="_top" xlink:title="Pcap&#45;ng block structures. ">
<polygon fill="#ffffff" stroke="#000000" points="362.7046,-165.5 362.7046,-183.5 480.9897,-183.5 480.9897,-165.5 362.7046,-165.5"/>
<text text-anchor="middle" x="421.8472" y="-171.5" font-family="Helvetica,sans-Serif" font-size="10.00" fill="#000000">src/pcapng_blocks.hpp</text>
</a>
</g>
</g>
<!-- Node9&#45;&gt;Node11 -->
<g id="edge2" class="edge">
<title>Node9&#45;&gt;Node11</title>
<path fill="none" stroke="#191970" d="M391.498,-212.4365C399.0613,-202.9823 408.1707,-191.5956 414.4236,-183.7795"/>
<polygon fill="#191970" stroke="#191970" points="388.6268,-210.4227 385.1129,-220.4179 394.0929,-214.7956 388.6268,-210.4227"/>
</g>
<!-- Node13 -->
<g id="node5" class="node">
<title>Node13</title>
<g id="a_node5"><a xlink:href="capturing_8cpp.xhtml" target="_top" xlink:title="Network traffic capture sources. ">
<polygon fill="#ffffff" stroke="#000000" points="201.7734,-.5 201.7734,-18.5 293.9209,-18.5 293.9209,-.5 201.7734,-.5"/>
<text text-anchor="middle" x="247.8472" y="-6.5" font-family="Helvetica,sans-Serif" font-size="10.00" fill="#000000">src/capturing.cpp</text>
</a>
</g>
</g>
<!-- Node9&#45;&gt;Node13 -->
<g id="edge13" class="edge">
<title>Node9&#45;&gt;Node13</title>
<path fill="none" stroke="#191970" d="M330.1722,-217.9514C263.0539,-200.5484 146.4479,-165.7108 124.8472,-129 95.6314,-79.3473 180.8544,-36.4824 224.2086,-18.5118"/>
<polygon fill="#191970" stroke="#191970" points="329.5423,-221.4029 340.0979,-220.4916 331.2779,-214.6215 329.5423,-221.4029"/>
</g>
<!-- Node14 -->
<g id="node6" class="node">
<title>Node14</title>
<g id="a_node6"><a xlink:href="capturing_8hpp.xhtml" target="_top" xlink:title="Network traffic capture header file. ">
<polygon fill="#ffffff" stroke="#000000" points="295.4927,-55.5 295.4927,-73.5 388.2017,-73.5 388.2017,-55.5 295.4927,-55.5"/>
<text text-anchor="middle" x="341.8472" y="-61.5" font-family="Helvetica,sans-Serif" font-size="10.00" fill="#000000">src/capturing.hpp</text>
</a>
</g>
</g>
<!-- Node9&#45;&gt;Node14 -->
<g id="edge14" class="edge">
<title>Node9&#45;&gt;Node14</title>
<path fill="none" stroke="#191970" d="M366.3644,-211.6245C361.6992,-203.5053 356.7368,-193.5877 353.8472,-184 341.8735,-144.2719 341.264,-94.0991 341.5862,-73.7261"/>
<polygon fill="#191970" stroke="#191970" points="363.3864,-213.4637 371.5623,-220.2021 369.373,-209.8359 363.3864,-213.4637"/>
</g>
<!-- Node17 -->
<g id="node9" class="node">
<title>Node17</title>
<g id="a_node9"><a xlink:href="tool_8hpp.xhtml" target="_top" xlink:title="Determining applications header file. ">
<polygon fill="#ffffff" stroke="#000000" points="233,-165.5 233,-183.5 300.6943,-183.5 300.6943,-165.5 233,-165.5"/>
<text text-anchor="middle" x="266.8472" y="-171.5" font-family="Helvetica,sans-Serif" font-size="10.00" fill="#000000">src/tool.hpp</text>
</a>
</g>
</g>
<!-- Node9&#45;&gt;Node17 -->
<g id="edge10" class="edge">
<title>Node9&#45;&gt;Node17</title>
<path fill="none" stroke="#191970" d="M350.4399,-215.9198C330.1168,-205.8498 302.9681,-192.3977 285.2038,-183.5956"/>
<polygon fill="#191970" stroke="#191970" points="349.0035,-219.1141 359.5178,-220.4179 352.1114,-212.8419 349.0035,-219.1141"/>
</g>
<!-- Node19 -->
<g id="node11" class="node">
<title>Node19</title>
<g id="a_node11"><a xlink:href="tool__apple_8cpp.xhtml" target="_top" xlink:title="Determining the applications and their sockets on macOS. ">
<polygon fill="#ffffff" stroke="#000000" points="499.2661,-165.5 499.2661,-183.5 596.4282,-183.5 596.4282,-165.5 499.2661,-165.5"/>
<text text-anchor="middle" x="547.8472" y="-171.5" font-family="Helvetica,sans-Serif" font-size="10.00" fill="#000000">src/tool_apple.cpp</text>
</a>
</g>
</g>
<!-- Node9&#45;&gt;Node19 -->
<g id="edge15" class="edge">
<title>Node9&#45;&gt;Node19</title>
<path fill="none" stroke="#191970" d="M415.6941,-217.2554C447.2887,-207.0336 491.598,-192.6983 520.016,-183.5042"/>
<polygon fill="#191970" stroke="#191970" points="414.3563,-214.0095 405.9192,-220.4179 416.5111,-220.6697 414.3563,-214.0095"/>
</g>
<!-- Node20 -->
<g id="node12" class="node">
<title>Node20</title>
<g id="a_node12"><a xlink:href="tool__linux_8cpp.xhtml" target="_top" xlink:title="Determining applications and their sockets in Linux. ">
<polygon fill="#ffffff" stroke="#000000" points="614.2168,-165.5 614.2168,-183.5 707.4775,-183.5 707.4775,-165.5 614.2168,-165.5"/>
<text text-anchor="middle" x="660.8472" y="-171.5" font-family="Helvetica,sans-Serif" font-size="10.00" fill="#000000">src/tool_linux.cpp</text>
</a>
</g>
</g>
<!-- Node9&#45;&gt;Node20 -->
<g id="edge16" class="edge">
<title>Node9&#45;&gt;Node20</title>
<path fill="none" stroke="#191970" d="M427.3165,-219.8858C480.0089,-209.6452 562.772,-193.5605 614.3136,-183.5436"/>
<polygon fill="#191970" stroke="#191970" points="426.3457,-216.5089 417.1971,-221.8525 427.6812,-223.3804 426.3457,-216.5089"/>
</g>
<!-- Node21 -->
<g id="node13" class="node">
<title>Node21</title>
<g id="a_node13"><a xlink:href="tool__win_8cpp.xhtml" target="_top" xlink:title="Determining the applications and their sockets on Windows. ">
<polygon fill="#ffffff" stroke="#000000" points="724.9976,-165.5 724.9976,-183.5 812.6968,-183.5 812.6968,-165.5 724.9976,-165.5"/>
<text text-anchor="middle" x="768.8472" y="-171.5" font-family="Helvetica,sans-Serif" font-size="10.00" fill="#000000">src/tool_win.cpp</text>
</a>
</g>
</g>
<!-- Node9&#45;&gt;Node21 -->
<g id="edge17" class="edge">
<title>Node9&#45;&gt;Node21</title>
<path fill="none" stroke="#191970" d="M427.2106,-223.617C493.3004,-215.571 614.1312,-200.2666 716.8472,-184 719.4758,-183.5837 722.1762,-183.1398 724.8983,-182.68"/>
<polygon fill="#191970" stroke="#191970" points="426.5907,-220.1665 417.0848,-224.8451 427.4335,-227.1156 426.5907,-220.1665"/>
</g>
<!-- Node12 -->
<g id="node4" class="node">
<title>Node12</title>
<g id="a_node4"><a xlink:href="ring_buffer_8hpp.xhtml" target="_top" xlink:title="Ring Buffer header file. ">
<polygon fill="#ffffff" stroke="#000000" points="219.7456,-110.5 219.7456,-128.5 313.9487,-128.5 313.9487,-110.5 219.7456,-110.5"/>
<text text-anchor="middle" x="266.8472" y="-116.5" font-family="Helvetica,sans-Serif" font-size="10.00" fill="#000000">src/ringBuffer.hpp</text>
</a>
</g>
</g>
<!-- Node11&#45;&gt;Node12 -->
<g id="edge3" class="edge">
<title>Node11&#45;&gt;Node12</title>
<path fill="none" stroke="#191970" d="M386.5888,-161.989C357.8344,-151.7858 317.9088,-137.6186 292.2227,-128.5042"/>
<polygon fill="#191970" stroke="#191970" points="385.6573,-165.3722 396.2521,-165.4179 387.9982,-158.7752 385.6573,-165.3722"/>
</g>
<!-- Node11&#45;&gt;Node14 -->
<g id="edge8" class="edge">
<title>Node11&#45;&gt;Node14</title>
<path fill="none" stroke="#191970" d="M409.2012,-157.1118C391.9884,-133.4442 361.8046,-91.9414 348.4844,-73.6261"/>
<polygon fill="#191970" stroke="#191970" points="406.5881,-159.4695 415.3004,-165.4982 412.2493,-155.3522 406.5881,-159.4695"/>
</g>
<!-- Node16 -->
<g id="node8" class="node">
<title>Node16</title>
<g id="a_node8"><a xlink:href="file_handler_8cpp.xhtml" target="_top" xlink:title="File handler source file. ">
<polygon fill="#ffffff" stroke="#000000" points="407.7144,-110.5 407.7144,-128.5 505.98,-128.5 505.98,-110.5 407.7144,-110.5"/>
<text text-anchor="middle" x="456.8472" y="-116.5" font-family="Helvetica,sans-Serif" font-size="10.00" fill="#000000">src/fileHandler.cpp</text>
</a>
</g>
</g>
<!-- Node11&#45;&gt;Node16 -->
<g id="edge9" class="edge">
<title>Node11&#45;&gt;Node16</title>
<path fill="none" stroke="#191970" d="M433.0756,-156.8553C439.0169,-147.519 446.0696,-136.4361 450.9421,-128.7795"/>
<polygon fill="#191970" stroke="#191970" points="430.0427,-155.1022 427.6267,-165.4179 435.9483,-158.8603 430.0427,-155.1022"/>
</g>
<!-- Node12&#45;&gt;Node13 -->
<g id="edge4" class="edge">
<title>Node12&#45;&gt;Node13</title>
<path fill="none" stroke="#191970" d="M263.568,-100.5152C259.4405,-76.6191 252.5171,-36.5362 249.4235,-18.6261"/>
<polygon fill="#191970" stroke="#191970" points="260.1412,-101.2399 265.2923,-110.4982 267.0391,-100.0484 260.1412,-101.2399"/>
</g>
<!-- Node12&#45;&gt;Node14 -->
<g id="edge5" class="edge">
<title>Node12&#45;&gt;Node14</title>
<path fill="none" stroke="#191970" d="M287.449,-104.392C300.9078,-94.5222 318.0386,-81.9596 329.444,-73.5956"/>
<polygon fill="#191970" stroke="#191970" points="285.2262,-101.6818 279.2319,-110.4179 289.3657,-107.3266 285.2262,-101.6818"/>
</g>
<!-- Node14&#45;&gt;Node13 -->
<g id="edge6" class="edge">
<title>Node14&#45;&gt;Node13</title>
<path fill="none" stroke="#191970" d="M317.4606,-50.2313C300.3906,-40.2435 278.0957,-27.1986 263.3924,-18.5956"/>
<polygon fill="#191970" stroke="#191970" points="315.9263,-53.3886 326.325,-55.4179 319.4614,-47.3468 315.9263,-53.3886"/>
</g>
<!-- Node15 -->
<g id="node7" class="node">
<title>Node15</title>
<g id="a_node7"><a xlink:href="main_8cpp.xhtml" target="_top" xlink:title="Main source file. ">
<polygon fill="#ffffff" stroke="#000000" points="311.5049,-.5 311.5049,-18.5 384.1895,-18.5 384.1895,-.5 311.5049,-.5"/>
<text text-anchor="middle" x="347.8472" y="-6.5" font-family="Helvetica,sans-Serif" font-size="10.00" fill="#000000">src/main.cpp</text>
</a>
</g>
</g>
<!-- Node14&#45;&gt;Node15 -->
<g id="edge7" class="edge">
<title>Node14&#45;&gt;Node15</title>
<path fill="none" stroke="#191970" d="M343.9327,-45.383C344.9155,-36.3738 346.0431,-26.0373 346.8349,-18.7795"/>
<polygon fill="#191970" stroke="#191970" points="340.4432,-45.0972 342.8379,-55.4179 347.4019,-45.8564 340.4432,-45.0972"/>
</g>
<!-- Node17&#45;&gt;Node12 -->
<g id="edge11" class="edge">
<title>Node17&#45;&gt;Node12</title>
<path fill="none" stroke="#191970" d="M266.8472,-155.383C266.8472,-146.3738 266.8472,-136.0373 266.8472,-128.7795"/>
<polygon fill="#191970" stroke="#191970" points="263.3473,-155.4178 266.8472,-165.4179 270.3473,-155.4179 263.3473,-155.4178"/>
</g>
<!-- Node18 -->
<g id="node10" class="node">
<title>Node18</title>
<g id="a_node10"><a xlink:href="tool_8cpp.xhtml" target="_top" xlink:title="Network Traffic Capturing With Application Tags. ">
<polygon fill="#ffffff" stroke="#000000" points="134.2808,-110.5 134.2808,-128.5 201.4136,-128.5 201.4136,-110.5 134.2808,-110.5"/>
<text text-anchor="middle" x="167.8472" y="-116.5" font-family="Helvetica,sans-Serif" font-size="10.00" fill="#000000">src/tool.cpp</text>
</a>
</g>
</g>
<!-- Node17&#45;&gt;Node18 -->
<g id="edge12" class="edge">
<title>Node17&#45;&gt;Node18</title>
<path fill="none" stroke="#191970" d="M241.6614,-160.5079C223.621,-150.4854 199.848,-137.2783 184.2193,-128.5956"/>
<polygon fill="#191970" stroke="#191970" points="240.058,-163.6209 250.4993,-165.4179 243.4575,-157.5018 240.058,-163.6209"/>
</g>
</g>
</svg>
