<?xml version="1.0" encoding="UTF-8" standalone="no"?>
<!DOCTYPE svg PUBLIC "-//W3C//DTD SVG 1.1//EN"
 "http://www.w3.org/Graphics/SVG/1.1/DTD/svg11.dtd">
<!-- Generated by graphviz version 2.40.1 (20161225.0304)
 -->
<!-- Title: src/cache.hpp Pages: 1 -->
<!--zoomable 247 -->
<svg id="main" version="1.1" xmlns="http://www.w3.org/2000/svg" xmlns:xlink="http://www.w3.org/1999/xlink" xml:space="preserve" onload="init(evt)">
<style type="text/css"><![CDATA[
.edge:hover path { stroke: red; }
.edge:hover polygon { stroke: red; fill: red; }
]]></style>
<script type="text/javascript"><![CDATA[
var edges = document.getElementsByTagName('g');
if (edges && edges.length) {
  for (var i=0;i<edges.length;i++) {
    if (edges[i].id.substr(0,4)=='edge') {
      edges[i].setAttribute('class','edge');
    }
  }
}
]]></script>
        <defs>
                <circle id="rim" cx="0" cy="0" r="7"/>
                <circle id="rim2" cx="0" cy="0" r="3.5"/>
                <g id="zoomPlus">
                        <use xlink:href="#rim" fill="#404040">
                                <set attributeName="fill" to="#808080" begin="zoomplus.mouseover" end="zoomplus.mouseout"/>
                        </use>
                        <path d="M-4,0h8M0,-4v8" fill="none" stroke="white" stroke-width="1.5" pointer-events="none"/>
                </g>
                <g id="zoomMin">
                        <use xlink:href="#rim" fill="#404040">
                                <set attributeName="fill" to="#808080" begin="zoomminus.mouseover" end="zoomminus.mouseout"/>
                        </use>
                        <path d="M-4,0h8" fill="none" stroke="white" stroke-width="1.5" pointer-events="none"/>
                </g>
                <g id="dirArrow">
                        <path fill="none" stroke="white" stroke-width="1.5" d="M0,-3.0v7 M-2.5,-0.5L0,-3.0L2.5,-0.5"/>
                </g>
               <g id="resetDef">
                       <use xlink:href="#rim2" fill="#404040">
                               <set attributeName="fill" to="#808080" begin="reset.mouseover" end="reset.mouseout"/>
                       </use>
               </g>
        </defs>

<script type="text/javascript">
var viewWidth = 883;
var viewHeight = 247;
var sectionId = 'dynsection-1';
</script>
<script xlink:href="svgpan.js"/>
<svg id="graph" class="graph">
<g id="viewport">
<title>src/cache.hpp</title>
<polygon fill="#ffffff" stroke="transparent" points="-4,4 -4,-243 878.9233,-243 878.9233,4 -4,4"/>
<!-- Node9 -->
<g id="node1" class="node">
<title>Node9</title>
<polygon fill="#bfbfbf" stroke="#000000" points="356.7192,-220.5 356.7192,-238.5 434.9751,-238.5 434.9751,-220.5 356.7192,-220.5"/>
<text text-anchor="middle" x="395.8472" y="-226.5" font-family="Helvetica,sans-Serif" font-size="10.00" fill="#000000">src/cache.hpp</text>
</g>
<!-- Node10 -->
<g id="node2" class="node">
<title>Node10</title>
<g id="a_node2"><a xlink:href="cache_8cpp.xhtml" target="_top" xlink:title="Cache implementation sources. ">
<polygon fill="#ffffff" stroke="#000000" points="0,-165.5 0,-183.5 77.6943,-183.5 77.6943,-165.5 0,-165.5"/>
<text text-anchor="middle" x="38.8472" y="-171.5" font-family="Helvetica,sans-Serif" font-size="10.00" fill="#000000">src/cache.cpp</text>
</a>
</g>
</g>
<!-- Node9&#45;&gt;Node10 -->
<g id="edge1" class="edge">
<title>Node9&#45;&gt;Node10</title>
<path fill="none" stroke="#191970" d="M346.4487,-222.5524C286.2432,-213.9819 181.449,-198.7326 91.8472,-184 87.3273,-183.2568 82.596,-182.4501 77.8998,-181.6314"/>
<polygon fill="#191970" stroke="#191970" points="346.0454,-226.0301 356.4383,-223.9713 347.0299,-219.0997 346.0454,-226.0301"/>
</g>
<!-- Node11 -->
<g id="node3" class="node">
<title>Node11</title>
<g id="a_node3"><a xlink:href="pcapng__blocks_8hpp.xhtml" target="_top" xlink:title="Pcap&#45;ng block structures. ">
<polygon fill="#ffffff" stroke="#000000" points="380.7046,-165.5 380.7046,-183.5 498.9897,-183.5 498.9897,-165.5 380.7046,-165.5"/>
<text text-anchor="middle" x="439.8472" y="-171.5" font-family="Helvetica,sans-Serif" font-size="10.00" fill="#000000">src/pcapng_blocks.hpp</text>
</a>
</g>
</g>
<!-- Node9&#45;&gt;Node11 -->
<g id="edge2" class="edge">
<title>Node9&#45;&gt;Node11</title>
<path fill="none" stroke="#191970" d="M409.498,-212.4365C417.0613,-202.9823 426.1707,-191.5956 432.4236,-183.7795"/>
<polygon fill="#191970" stroke="#191970" points="406.6268,-210.4227 403.1129,-220.4179 412.0929,-214.7956 406.6268,-210.4227"/>
</g>
<!-- Node13 -->
<g id="node5" class="node">
<title>Node13</title>
<g id="a_node5"><a xlink:href="capturing_8cpp.xhtml" target="_top" xlink:title="Network traffic capture sources. ">
<polygon fill="#ffffff" stroke="#000000" points="215.7734,-.5 215.7734,-18.5 307.9209,-18.5 307.9209,-.5 215.7734,-.5"/>
<text text-anchor="middle" x="261.8472" y="-6.5" font-family="Helvetica,sans-Serif" font-size="10.00" fill="#000000">src/capturing.cpp</text>
</a>
</g>
</g>
<!-- Node9&#45;&gt;Node13 -->
<g id="edge13" class="edge">
<title>Node9&#45;&gt;Node13</title>
<path fill="none" stroke="#191970" d="M346.4442,-218.8263C274.9306,-202.1936 148.5063,-167.9303 124.8472,-129 93.4578,-77.3498 185.6915,-36.104 234.1613,-18.5988"/>
<polygon fill="#191970" stroke="#191970" points="346.0488,-222.3265 356.5782,-221.1509 347.6138,-215.5037 346.0488,-222.3265"/>
</g>
<!-- Node14 -->
<g id="node6" class="node">
<title>Node14</title>
<g id="a_node6"><a xlink:href="capturing_8hpp.xhtml" target="_top" xlink:title="Network traffic capture header file. ">
<polygon fill="#ffffff" stroke="#000000" points="309.4927,-55.5 309.4927,-73.5 402.2017,-73.5 402.2017,-55.5 309.4927,-55.5"/>
<text text-anchor="middle" x="355.8472" y="-61.5" font-family="Helvetica,sans-Serif" font-size="10.00" fill="#000000">src/capturing.hpp</text>
</a>
</g>
</g>
<!-- Node9&#45;&gt;Node14 -->
<g id="edge14" class="edge">
<title>Node9&#45;&gt;Node14</title>
<path fill="none" stroke="#191970" d="M384.514,-211.578C379.8767,-203.4502 374.8947,-193.5387 371.8472,-184 359.1703,-144.3219 356.5338,-94.1214 355.9882,-73.7335"/>
<polygon fill="#191970" stroke="#191970" points="381.5205,-213.3919 389.6628,-220.1709 387.5251,-209.7939 381.5205,-213.3919"/>
</g>
<!-- Node17 -->
<g id="node9" class="node">
<title>Node17</title>
<g id="a_node9"><a xlink:href="namon_8hpp.xhtml" target="_top" xlink:title="Determining applications header file. ">
<polygon fill="#ffffff" stroke="#000000" points="239.7734,-165.5 239.7734,-183.5 321.9209,-183.5 321.9209,-165.5 239.7734,-165.5"/>
<text text-anchor="middle" x="280.8472" y="-171.5" font-family="Helvetica,sans-Serif" font-size="10.00" fill="#000000">src/namon.hpp</text>
</a>
</g>
</g>
<!-- Node9&#45;&gt;Node17 -->
<g id="edge10" class="edge">
<title>Node9&#45;&gt;Node17</title>
<path fill="none" stroke="#191970" d="M367.7377,-216.0563C346.6515,-205.9716 318.353,-192.4376 299.8653,-183.5956"/>
<polygon fill="#191970" stroke="#191970" points="366.3258,-219.2607 376.8573,-220.4179 369.346,-212.9458 366.3258,-219.2607"/>
</g>
<!-- Node19 -->
<g id="node11" class="node">
<title>Node19</title>
<g id="a_node11"><a xlink:href="namon__apple_8cpp.xhtml" target="_top" xlink:title="Determining the applications and their sockets on macOS. ">
<polygon fill="#ffffff" stroke="#000000" points="517.0396,-165.5 517.0396,-183.5 628.6548,-183.5 628.6548,-165.5 517.0396,-165.5"/>
<text text-anchor="middle" x="572.8472" y="-171.5" font-family="Helvetica,sans-Serif" font-size="10.00" fill="#000000">src/namon_apple.cpp</text>
</a>
</g>
</g>
<!-- Node9&#45;&gt;Node19 -->
<g id="edge15" class="edge">
<title>Node9&#45;&gt;Node19</title>
<path fill="none" stroke="#191970" d="M434.8261,-217.3879C467.7483,-207.1578 514.1538,-192.7381 543.87,-183.5042"/>
<polygon fill="#191970" stroke="#191970" points="433.5861,-214.1081 425.0751,-220.4179 435.6633,-220.7928 433.5861,-214.1081"/>
</g>
<!-- Node20 -->
<g id="node12" class="node">
<title>Node20</title>
<g id="a_node12"><a xlink:href="namon__linux_8cpp.xhtml" target="_top" xlink:title="Determining applications and their sockets in Linux. ">
<polygon fill="#ffffff" stroke="#000000" points="646.9902,-165.5 646.9902,-183.5 754.7041,-183.5 754.7041,-165.5 646.9902,-165.5"/>
<text text-anchor="middle" x="700.8472" y="-171.5" font-family="Helvetica,sans-Serif" font-size="10.00" fill="#000000">src/namon_linux.cpp</text>
</a>
</g>
</g>
<!-- Node9&#45;&gt;Node20 -->
<g id="edge16" class="edge">
<title>Node9&#45;&gt;Node20</title>
<path fill="none" stroke="#191970" d="M445.231,-220.5947C501.8179,-210.3905 594.0393,-193.7604 650.8728,-183.5118"/>
<polygon fill="#191970" stroke="#191970" points="444.3163,-217.2031 435.0962,-222.4223 445.5586,-224.092 444.3163,-217.2031"/>
</g>
<!-- Node21 -->
<g id="node13" class="node">
<title>Node21</title>
<g id="a_node13"><a xlink:href="namon__win_8cpp.xhtml" target="_top" xlink:title="Determining the applications and their sockets on Windows. ">
<polygon fill="#ffffff" stroke="#000000" points="772.771,-165.5 772.771,-183.5 874.9233,-183.5 874.9233,-165.5 772.771,-165.5"/>
<text text-anchor="middle" x="823.8472" y="-171.5" font-family="Helvetica,sans-Serif" font-size="10.00" fill="#000000">src/namon_win.cpp</text>
</a>
</g>
</g>
<!-- Node9&#45;&gt;Node21 -->
<g id="edge17" class="edge">
<title>Node9&#45;&gt;Node21</title>
<path fill="none" stroke="#191970" d="M445.0712,-223.9529C515.7229,-215.8687 649.9273,-200.0565 763.8472,-184 766.6668,-183.6026 769.5591,-183.1833 772.4774,-182.7512"/>
<polygon fill="#191970" stroke="#191970" points="444.657,-220.4774 435.1183,-225.0887 445.4507,-227.4323 444.657,-220.4774"/>
</g>
<!-- Node12 -->
<g id="node4" class="node">
<title>Node12</title>
<g id="a_node4"><a xlink:href="ring_buffer_8hpp.xhtml" target="_top" xlink:title="Ring Buffer header file. ">
<polygon fill="#ffffff" stroke="#000000" points="233.7456,-110.5 233.7456,-128.5 327.9487,-128.5 327.9487,-110.5 233.7456,-110.5"/>
<text text-anchor="middle" x="280.8472" y="-116.5" font-family="Helvetica,sans-Serif" font-size="10.00" fill="#000000">src/ringBuffer.hpp</text>
</a>
</g>
</g>
<!-- Node11&#45;&gt;Node12 -->
<g id="edge3" class="edge">
<title>Node11&#45;&gt;Node12</title>
<path fill="none" stroke="#191970" d="M404.0647,-162.1224C374.5404,-151.9096 333.3416,-137.6584 306.8775,-128.5042"/>
<polygon fill="#191970" stroke="#191970" points="402.9968,-165.4564 413.5916,-165.4179 405.2852,-158.841 402.9968,-165.4564"/>
</g>
<!-- Node11&#45;&gt;Node14 -->
<g id="edge8" class="edge">
<title>Node11&#45;&gt;Node14</title>
<path fill="none" stroke="#191970" d="M426.808,-157.425C408.7763,-133.8119 376.8643,-92.0225 362.8162,-73.6261"/>
<polygon fill="#191970" stroke="#191970" points="424.1222,-159.6748 432.9731,-165.4982 429.6856,-155.4263 424.1222,-159.6748"/>
</g>
<!-- Node16 -->
<g id="node8" class="node">
<title>Node16</title>
<g id="a_node8"><a xlink:href="file_handler_8cpp.xhtml" target="_top" xlink:title="File handler source file. ">
<polygon fill="#ffffff" stroke="#000000" points="421.7144,-110.5 421.7144,-128.5 519.98,-128.5 519.98,-110.5 421.7144,-110.5"/>
<text text-anchor="middle" x="470.8472" y="-116.5" font-family="Helvetica,sans-Serif" font-size="10.00" fill="#000000">src/fileHandler.cpp</text>
</a>
</g>
</g>
<!-- Node11&#45;&gt;Node16 -->
<g id="edge9" class="edge">
<title>Node11&#45;&gt;Node16</title>
<path fill="none" stroke="#191970" d="M449.9571,-156.563C455.1846,-147.2885 461.3463,-136.3564 465.6169,-128.7795"/>
<polygon fill="#191970" stroke="#191970" points="446.8273,-154.9878 444.9662,-165.4179 452.9254,-158.4249 446.8273,-154.9878"/>
</g>
<!-- Node12&#45;&gt;Node13 -->
<g id="edge4" class="edge">
<title>Node12&#45;&gt;Node13</title>
<path fill="none" stroke="#191970" d="M277.568,-100.5152C273.4405,-76.6191 266.5171,-36.5362 263.4235,-18.6261"/>
<polygon fill="#191970" stroke="#191970" points="274.1412,-101.2399 279.2923,-110.4982 281.0391,-100.0484 274.1412,-101.2399"/>
</g>
<!-- Node12&#45;&gt;Node14 -->
<g id="edge5" class="edge">
<title>Node12&#45;&gt;Node14</title>
<path fill="none" stroke="#191970" d="M301.449,-104.392C314.9078,-94.5222 332.0386,-81.9596 343.444,-73.5956"/>
<polygon fill="#191970" stroke="#191970" points="299.2262,-101.6818 293.2319,-110.4179 303.3657,-107.3266 299.2262,-101.6818"/>
</g>
<!-- Node14&#45;&gt;Node13 -->
<g id="edge6" class="edge">
<title>Node14&#45;&gt;Node13</title>
<path fill="none" stroke="#191970" d="M331.4606,-50.2313C314.3906,-40.2435 292.0957,-27.1986 277.3924,-18.5956"/>
<polygon fill="#191970" stroke="#191970" points="329.9263,-53.3886 340.325,-55.4179 333.4614,-47.3468 329.9263,-53.3886"/>
</g>
<!-- Node15 -->
<g id="node7" class="node">
<title>Node15</title>
<g id="a_node7"><a xlink:href="main_8cpp.xhtml" target="_top" xlink:title="Main source file. ">
<polygon fill="#ffffff" stroke="#000000" points="325.5049,-.5 325.5049,-18.5 398.1895,-18.5 398.1895,-.5 325.5049,-.5"/>
<text text-anchor="middle" x="361.8472" y="-6.5" font-family="Helvetica,sans-Serif" font-size="10.00" fill="#000000">src/main.cpp</text>
</a>
</g>
</g>
<!-- Node14&#45;&gt;Node15 -->
<g id="edge7" class="edge">
<title>Node14&#45;&gt;Node15</title>
<path fill="none" stroke="#191970" d="M357.9327,-45.383C358.9155,-36.3738 360.0431,-26.0373 360.8349,-18.7795"/>
<polygon fill="#191970" stroke="#191970" points="354.4432,-45.0972 356.8379,-55.4179 361.4019,-45.8564 354.4432,-45.0972"/>
</g>
<!-- Node17&#45;&gt;Node12 -->
<g id="edge11" class="edge">
<title>Node17&#45;&gt;Node12</title>
<path fill="none" stroke="#191970" d="M280.8472,-155.383C280.8472,-146.3738 280.8472,-136.0373 280.8472,-128.7795"/>
<polygon fill="#191970" stroke="#191970" points="277.3473,-155.4178 280.8472,-165.4179 284.3473,-155.4179 277.3473,-155.4178"/>
</g>
<!-- Node18 -->
<g id="node10" class="node">
<title>Node18</title>
<g id="a_node10"><a xlink:href="namon_8cpp.xhtml" target="_top" xlink:title="Network Traffic Capturing With Application Tags. ">
<polygon fill="#ffffff" stroke="#000000" points="134.0542,-110.5 134.0542,-128.5 215.6401,-128.5 215.6401,-110.5 134.0542,-110.5"/>
<text text-anchor="middle" x="174.8472" y="-116.5" font-family="Helvetica,sans-Serif" font-size="10.00" fill="#000000">src/namon.cpp</text>
</a>
</g>
</g>
<!-- Node17&#45;&gt;Node18 -->
<g id="edge12" class="edge">
<title>Node17&#45;&gt;Node18</title>
<path fill="none" stroke="#191970" d="M254.4106,-160.7829C235.0323,-150.7282 209.2642,-137.3579 192.3769,-128.5956"/>
<polygon fill="#191970" stroke="#191970" points="252.8552,-163.9189 263.3434,-165.4179 256.0791,-157.7055 252.8552,-163.9189"/>
</g>
</g>
</svg>
        <g id="navigator" transform="translate(0 0)" fill="#404254">
                <rect fill="#f2f5e9" fill-opacity="0.5" stroke="#606060" stroke-width=".5" x="0" y="0" width="60" height="60"/>
                <use id="zoomplus" xlink:href="#zoomPlus" x="17" y="9" onmousedown="handleZoom(evt,'in')"/>
                <use id="zoomminus" xlink:href="#zoomMin" x="42" y="9" onmousedown="handleZoom(evt,'out')"/>
                <use id="reset" xlink:href="#resetDef" x="30" y="36" onmousedown="handleReset()"/>
                <g id="arrowUp" xlink:href="#dirArrow" transform="translate(30 24)" onmousedown="handlePan(0,-1)">
                  <use xlink:href="#rim" fill="#404040">
                        <set attributeName="fill" to="#808080" begin="arrowUp.mouseover" end="arrowUp.mouseout"/>
                  </use>
                  <path fill="none" stroke="white" stroke-width="1.5" d="M0,-3.0v7 M-2.5,-0.5L0,-3.0L2.5,-0.5"/>
                </g>
                <g id="arrowRight" xlink:href="#dirArrow" transform="rotate(90) translate(36 -43)" onmousedown="handlePan(1,0)">
                  <use xlink:href="#rim" fill="#404040">
                        <set attributeName="fill" to="#808080" begin="arrowRight.mouseover" end="arrowRight.mouseout"/>
                  </use>
                  <path fill="none" stroke="white" stroke-width="1.5" d="M0,-3.0v7 M-2.5,-0.5L0,-3.0L2.5,-0.5"/>
                </g>
                <g id="arrowDown" xlink:href="#dirArrow" transform="rotate(180) translate(-30 -48)" onmousedown="handlePan(0,1)">
                  <use xlink:href="#rim" fill="#404040">
                        <set attributeName="fill" to="#808080" begin="arrowDown.mouseover" end="arrowDown.mouseout"/>
                  </use>
                  <path fill="none" stroke="white" stroke-width="1.5" d="M0,-3.0v7 M-2.5,-0.5L0,-3.0L2.5,-0.5"/>
                </g>
                <g id="arrowLeft" xlink:href="#dirArrow" transform="rotate(270) translate(-36 17)" onmousedown="handlePan(-1,0)">
                  <use xlink:href="#rim" fill="#404040">
                        <set attributeName="fill" to="#808080" begin="arrowLeft.mouseover" end="arrowLeft.mouseout"/>
                  </use>
                  <path fill="none" stroke="white" stroke-width="1.5" d="M0,-3.0v7 M-2.5,-0.5L0,-3.0L2.5,-0.5"/>
                </g>
        </g>
        <svg viewBox="0 0 15 15" width="100%" height="30px" preserveAspectRatio="xMaxYMin meet">
         <g id="arrow_out" transform="scale(0.3 0.3)">
          <a xlink:href="cache_8hpp__dep__incl_org.svg" target="_base">
           <rect id="button" ry="5" rx="5" y="6" x="6" height="38" width="38"
                fill="#f2f5e9" fill-opacity="0.5" stroke="#606060" stroke-width="1.0"/>
           <path id="arrow"
             d="M 11.500037,31.436501 C 11.940474,20.09759 22.043105,11.32322 32.158766,21.979434 L 37.068811,17.246167 C 37.068811,17.246167 37.088388,32 37.088388,32 L 22.160133,31.978069 C 22.160133,31.978069 26.997745,27.140456 26.997745,27.140456 C 18.528582,18.264221 13.291696,25.230495 11.500037,31.436501 z"
             style="fill:#404040;"/>
          </a>
         </g>
        </svg>
</svg>
