<?xml version="1.0" encoding="UTF-8" standalone="no"?>
<!DOCTYPE svg PUBLIC "-//W3C//DTD SVG 1.1//EN"
 "http://www.w3.org/Graphics/SVG/1.1/DTD/svg11.dtd">
<!-- Generated by graphviz version 2.40.1 (20161225.0304)
 -->
<!-- Title: src/capturing.hpp Pages: 1 -->
<!--zoomable 357 -->
<svg id="main" version="1.1" xmlns="http://www.w3.org/2000/svg" xmlns:xlink="http://www.w3.org/1999/xlink" xml:space="preserve" onload="init(evt)">
<style type="text/css"><![CDATA[
.edge:hover path { stroke: red; }
.edge:hover polygon { stroke: red; fill: red; }
]]></style>
<script type="text/javascript"><![CDATA[
var edges = document.getElementsByTagName('g');
if (edges && edges.length) {
  for (var i=0;i<edges.length;i++) {
    if (edges[i].id.substr(0,4)=='edge') {
      edges[i].setAttribute('class','edge');
    }
  }
}
]]></script>
        <defs>
                <circle id="rim" cx="0" cy="0" r="7"/>
                <circle id="rim2" cx="0" cy="0" r="3.5"/>
                <g id="zoomPlus">
                        <use xlink:href="#rim" fill="#404040">
                                <set attributeName="fill" to="#808080" begin="zoomplus.mouseover" end="zoomplus.mouseout"/>
                        </use>
                        <path d="M-4,0h8M0,-4v8" fill="none" stroke="white" stroke-width="1.5" pointer-events="none"/>
                </g>
                <g id="zoomMin">
                        <use xlink:href="#rim" fill="#404040">
                                <set attributeName="fill" to="#808080" begin="zoomminus.mouseover" end="zoomminus.mouseout"/>
                        </use>
                        <path d="M-4,0h8" fill="none" stroke="white" stroke-width="1.5" pointer-events="none"/>
                </g>
                <g id="dirArrow">
                        <path fill="none" stroke="white" stroke-width="1.5" d="M0,-3.0v7 M-2.5,-0.5L0,-3.0L2.5,-0.5"/>
                </g>
               <g id="resetDef">
                       <use xlink:href="#rim2" fill="#404040">
                               <set attributeName="fill" to="#808080" begin="reset.mouseover" end="reset.mouseout"/>
                       </use>
               </g>
        </defs>

<script type="text/javascript">
var viewWidth = 1084;
var viewHeight = 357;
var sectionId = 'dynsection-0';
</script>
<script xlink:href="svgpan.js"/>
<svg id="graph" class="graph">
<g id="viewport">
<title>src/capturing.hpp</title>
<polygon fill="#ffffff" stroke="transparent" points="-4,4 -4,-353 1080.1821,-353 1080.1821,4 -4,4"/>
<!-- Node0 -->
<g id="node1" class="node">
<title>Node0</title>
<polygon fill="#bfbfbf" stroke="#000000" points="464.8179,-330.5 464.8179,-348.5 557.5269,-348.5 557.5269,-330.5 464.8179,-330.5"/>
<text text-anchor="middle" x="511.1724" y="-336.5" font-family="Helvetica,sans-Serif" font-size="10.00" fill="#000000">src/capturing.hpp</text>
</g>
<!-- Node1 -->
<g id="node2" class="node">
<title>Node1</title>
<polygon fill="#ffffff" stroke="#bfbfbf" points="0,-110.5 0,-128.5 54.3447,-128.5 54.3447,-110.5 0,-110.5"/>
<text text-anchor="middle" x="27.1724" y="-116.5" font-family="Helvetica,sans-Serif" font-size="10.00" fill="#000000">iostream</text>
</g>
<!-- Node0&#45;&gt;Node1 -->
<g id="edge1" class="edge">
<title>Node0&#45;&gt;Node1</title>
<path fill="none" stroke="#191970" d="M464.7484,-332.8886C417.8596,-325.6135 343.6304,-312.4534 281.1724,-294 158.877,-257.8674 86.1697,-290.5932 16.1724,-184 7.2285,-170.3802 11.7605,-151.7737 17.4751,-138.0445"/>
<polygon fill="#191970" stroke="#191970" points="20.7988,-139.2001 21.872,-128.6597 14.46,-136.2302 20.7988,-139.2001"/>
</g>
<!-- Node2 -->
<g id="node3" class="node">
<title>Node2</title>
<polygon fill="#ffffff" stroke="#bfbfbf" points="1010.1626,-275.5 1010.1626,-293.5 1076.1821,-293.5 1076.1821,-275.5 1010.1626,-275.5"/>
<text text-anchor="middle" x="1043.1724" y="-281.5" font-family="Helvetica,sans-Serif" font-size="10.00" fill="#000000">sys/types.h</text>
</g>
<!-- Node0&#45;&gt;Node2 -->
<g id="edge2" class="edge">
<title>Node0&#45;&gt;Node2</title>
<path fill="none" stroke="#191970" d="M557.8492,-336.7711C644.5445,-331.3371 836.1625,-317.6091 996.1724,-294 997.4463,-293.812 998.7379,-293.6121 1000.0403,-293.4023"/>
<polygon fill="#191970" stroke="#191970" points="1000.8788,-296.8089 1010.1255,-291.6369 999.6717,-289.9137 1000.8788,-296.8089"/>
</g>
<!-- Node3 -->
<g id="node4" class="node">
<title>Node3</title>
<polygon fill="#ffffff" stroke="#bfbfbf" points="199.4458,-220.5 199.4458,-238.5 244.8989,-238.5 244.8989,-220.5 199.4458,-220.5"/>
<text text-anchor="middle" x="222.1724" y="-226.5" font-family="Helvetica,sans-Serif" font-size="10.00" fill="#000000">atomic</text>
</g>
<!-- Node0&#45;&gt;Node3 -->
<g id="edge3" class="edge">
<title>Node0&#45;&gt;Node3</title>
<path fill="none" stroke="#191970" d="M487.5223,-330.4982C435.9109,-310.8538 313.1172,-264.1157 254.4533,-241.7869"/>
<polygon fill="#191970" stroke="#191970" points="255.533,-238.4529 244.9421,-238.1667 253.0429,-244.9951 255.533,-238.4529"/>
</g>
<!-- Node4 -->
<g id="node5" class="node">
<title>Node4</title>
<g id="a_node5"><a xlink:href="tcpip__headers_8hpp.xhtml" target="_top" xlink:title="Protocol headers. ">
<polygon fill="#ffffff" stroke="#000000" points="562.0298,-55.5 562.0298,-73.5 660.3149,-73.5 660.3149,-55.5 562.0298,-55.5"/>
<text text-anchor="middle" x="611.1724" y="-61.5" font-family="Helvetica,sans-Serif" font-size="10.00" fill="#000000">tcpip_headers.hpp</text>
</a>
</g>
</g>
<!-- Node0&#45;&gt;Node4 -->
<g id="edge4" class="edge">
<title>Node0&#45;&gt;Node4</title>
<path fill="none" stroke="#191970" d="M557.6227,-338.4629C676.4488,-334.5576 982.1724,-316.0954 982.1724,-229.5 982.1724,-229.5 982.1724,-229.5 982.1724,-174.5 982.1724,-142.1951 772.7343,-96.3371 668.5797,-75.529"/>
<polygon fill="#191970" stroke="#191970" points="669.0268,-72.0495 658.5366,-73.535 667.6635,-78.9155 669.0268,-72.0495"/>
</g>
<!-- Node6 -->
<g id="node7" class="node">
<title>Node6</title>
<g id="a_node7"><a xlink:href="netflow_8hpp.xhtml" target="_top" xlink:title="Netflow structure header file. ">
<polygon fill="#ffffff" stroke="#000000" points="577.8721,-110.5 577.8721,-128.5 644.4727,-128.5 644.4727,-110.5 577.8721,-110.5"/>
<text text-anchor="middle" x="611.1724" y="-116.5" font-family="Helvetica,sans-Serif" font-size="10.00" fill="#000000">netflow.hpp</text>
</a>
</g>
</g>
<!-- Node0&#45;&gt;Node6 -->
<g id="edge6" class="edge">
<title>Node0&#45;&gt;Node6</title>
<path fill="none" stroke="#191970" d="M557.7665,-334.7131C630.2167,-326.8908 766.3209,-310.5729 812.1724,-294 856.6159,-277.936 879.9549,-280.1611 903.1724,-239 907.3211,-231.6449 908.0765,-226.8744 903.1724,-220 873.7323,-178.7324 728.4516,-143.5934 654.5362,-128.0471"/>
<polygon fill="#191970" stroke="#191970" points="655.1021,-124.59 644.5995,-125.9848 653.6796,-131.444 655.1021,-124.59"/>
</g>
<!-- Node9 -->
<g id="node10" class="node">
<title>Node9</title>
<g id="a_node10"><a xlink:href="ring_buffer_8hpp.xhtml" target="_top" xlink:title="Ring Buffer header file. ">
<polygon fill="#ffffff" stroke="#000000" points="472.125,-275.5 472.125,-293.5 550.2197,-293.5 550.2197,-275.5 472.125,-275.5"/>
<text text-anchor="middle" x="511.1724" y="-281.5" font-family="Helvetica,sans-Serif" font-size="10.00" fill="#000000">ringBuffer.hpp</text>
</a>
</g>
</g>
<!-- Node0&#45;&gt;Node9 -->
<g id="edge10" class="edge">
<title>Node0&#45;&gt;Node9</title>
<path fill="none" stroke="#191970" d="M511.1724,-330.4179C511.1724,-323.2164 511.1724,-312.8962 511.1724,-303.8632"/>
<polygon fill="#191970" stroke="#191970" points="514.6725,-303.7794 511.1724,-293.7795 507.6725,-303.7795 514.6725,-303.7794"/>
</g>
<!-- Node15 -->
<g id="node16" class="node">
<title>Node15</title>
<g id="a_node16"><a xlink:href="pcapng__blocks_8hpp.xhtml" target="_top" xlink:title="Pcap&#45;ng block structures. ">
<polygon fill="#ffffff" stroke="#000000" points="263.084,-220.5 263.084,-238.5 365.2607,-238.5 365.2607,-220.5 263.084,-220.5"/>
<text text-anchor="middle" x="314.1724" y="-226.5" font-family="Helvetica,sans-Serif" font-size="10.00" fill="#000000">pcapng_blocks.hpp</text>
</a>
</g>
</g>
<!-- Node0&#45;&gt;Node15 -->
<g id="edge37" class="edge">
<title>Node0&#45;&gt;Node15</title>
<path fill="none" stroke="#191970" d="M495.051,-330.4982C460.7795,-311.3619 380.4634,-266.5153 339.3661,-243.5675"/>
<polygon fill="#191970" stroke="#191970" points="340.9539,-240.4455 330.5165,-238.6261 337.5412,-246.5573 340.9539,-240.4455"/>
</g>
<!-- Node19 -->
<g id="node20" class="node">
<title>Node19</title>
<g id="a_node20"><a xlink:href="cache_8hpp.xhtml" target="_top" xlink:title="Cache implementation header file. ">
<polygon fill="#ffffff" stroke="#000000" points="480.0986,-165.5 480.0986,-183.5 542.2461,-183.5 542.2461,-165.5 480.0986,-165.5"/>
<text text-anchor="middle" x="511.1724" y="-171.5" font-family="Helvetica,sans-Serif" font-size="10.00" fill="#000000">cache.hpp</text>
</a>
</g>
</g>
<!-- Node0&#45;&gt;Node19 -->
<g id="edge38" class="edge">
<title>Node0&#45;&gt;Node19</title>
<path fill="none" stroke="#191970" d="M557.5523,-333.1241C667.8864,-317.0147 933.4554,-272.2214 887.1724,-220 865.2565,-195.2722 645.9552,-181.3251 552.7416,-176.4738"/>
<polygon fill="#191970" stroke="#191970" points="552.7101,-172.9677 542.5447,-175.9533 552.3532,-179.9586 552.7101,-172.9677"/>
</g>
<!-- Node22 -->
<g id="node23" class="node">
<title>Node22</title>
<g id="a_node23"><a xlink:href="debug_8hpp.xhtml" target="_top" xlink:title="Debugging functions. ">
<polygon fill="#ffffff" stroke="#000000" points="25.5371,-165.5 25.5371,-183.5 88.8076,-183.5 88.8076,-165.5 25.5371,-165.5"/>
<text text-anchor="middle" x="57.1724" y="-171.5" font-family="Helvetica,sans-Serif" font-size="10.00" fill="#000000">debug.hpp</text>
</a>
</g>
</g>
<!-- Node0&#45;&gt;Node22 -->
<g id="edge39" class="edge">
<title>Node0&#45;&gt;Node22</title>
<path fill="none" stroke="#191970" d="M475.3316,-330.4886C441.561,-321.8063 389.6479,-307.9654 345.1724,-294 275.4324,-272.1015 257.6053,-267.2136 190.1724,-239 152.4312,-223.2093 110.1177,-202.0721 83.5629,-188.3711"/>
<polygon fill="#191970" stroke="#191970" points="85.0184,-185.1832 74.5302,-183.6835 81.7939,-191.3964 85.0184,-185.1832"/>
</g>
<!-- Node5 -->
<g id="node6" class="node">
<title>Node5</title>
<polygon fill="#ffffff" stroke="#bfbfbf" points="587.0518,-.5 587.0518,-18.5 635.293,-18.5 635.293,-.5 587.0518,-.5"/>
<text text-anchor="middle" x="611.1724" y="-6.5" font-family="Helvetica,sans-Serif" font-size="10.00" fill="#000000">stdint.h</text>
</g>
<!-- Node4&#45;&gt;Node5 -->
<g id="edge5" class="edge">
<title>Node4&#45;&gt;Node5</title>
<path fill="none" stroke="#191970" d="M611.1724,-55.4179C611.1724,-48.2164 611.1724,-37.8962 611.1724,-28.8632"/>
<polygon fill="#191970" stroke="#191970" points="614.6725,-28.7794 611.1724,-18.7795 607.6725,-28.7795 614.6725,-28.7794"/>
</g>
<!-- Node6&#45;&gt;Node4 -->
<g id="edge9" class="edge">
<title>Node6&#45;&gt;Node4</title>
<path fill="none" stroke="#191970" d="M611.1724,-110.4179C611.1724,-103.2164 611.1724,-92.8962 611.1724,-83.8632"/>
<polygon fill="#191970" stroke="#191970" points="614.6725,-83.7794 611.1724,-73.7795 607.6725,-83.7795 614.6725,-83.7794"/>
</g>
<!-- Node7 -->
<g id="node8" class="node">
<title>Node7</title>
<polygon fill="#ffffff" stroke="#bfbfbf" points="503.9458,-55.5 503.9458,-73.5 544.3989,-73.5 544.3989,-55.5 503.9458,-55.5"/>
<text text-anchor="middle" x="524.1724" y="-61.5" font-family="Helvetica,sans-Serif" font-size="10.00" fill="#000000">string</text>
</g>
<!-- Node6&#45;&gt;Node7 -->
<g id="edge7" class="edge">
<title>Node6&#45;&gt;Node7</title>
<path fill="none" stroke="#191970" d="M596.8061,-110.4179C583.331,-101.8992 562.9531,-89.0166 547.2079,-79.0627"/>
<polygon fill="#191970" stroke="#191970" points="548.8829,-75.9808 538.56,-73.5956 545.1423,-81.8977 548.8829,-75.9808"/>
</g>
<!-- Node8 -->
<g id="node9" class="node">
<title>Node8</title>
<polygon fill="#ffffff" stroke="#bfbfbf" points="678.4458,-55.5 678.4458,-73.5 723.8989,-73.5 723.8989,-55.5 678.4458,-55.5"/>
<text text-anchor="middle" x="701.1724" y="-61.5" font-family="Helvetica,sans-Serif" font-size="10.00" fill="#000000">cstring</text>
</g>
<!-- Node6&#45;&gt;Node8 -->
<g id="edge8" class="edge">
<title>Node6&#45;&gt;Node8</title>
<path fill="none" stroke="#191970" d="M626.034,-110.4179C639.9738,-101.8992 661.0544,-89.0166 677.3424,-79.0627"/>
<polygon fill="#191970" stroke="#191970" points="679.5809,-81.7967 686.2886,-73.5956 675.9307,-75.8237 679.5809,-81.7967"/>
</g>
<!-- Node9&#45;&gt;Node3 -->
<g id="edge12" class="edge">
<title>Node9&#45;&gt;Node3</title>
<path fill="none" stroke="#191970" d="M471.7029,-278.9344C422.9399,-271.7462 337.3027,-258.1068 254.9275,-238.9636"/>
<polygon fill="#191970" stroke="#191970" points="255.6967,-235.5491 245.1607,-236.6639 254.0923,-242.3627 255.6967,-235.5491"/>
</g>
<!-- Node10 -->
<g id="node11" class="node">
<title>Node10</title>
<polygon fill="#ffffff" stroke="#bfbfbf" points="309.5566,-110.5 309.5566,-128.5 352.7881,-128.5 352.7881,-110.5 309.5566,-110.5"/>
<text text-anchor="middle" x="331.1724" y="-116.5" font-family="Helvetica,sans-Serif" font-size="10.00" fill="#000000">vector</text>
</g>
<!-- Node9&#45;&gt;Node10 -->
<g id="edge11" class="edge">
<title>Node9&#45;&gt;Node10</title>
<path fill="none" stroke="#191970" d="M501.4491,-275.3183C492.4417,-266.5157 478.994,-252.5934 469.1724,-239 447.1521,-208.5232 455.6393,-190.6767 428.1724,-165 418.0807,-155.5661 387.0447,-141.762 362.7661,-131.835"/>
<polygon fill="#191970" stroke="#191970" points="363.7717,-128.4667 353.1883,-127.9742 361.1545,-134.9591 363.7717,-128.4667"/>
</g>
<!-- Node11 -->
<g id="node12" class="node">
<title>Node11</title>
<polygon fill="#ffffff" stroke="#bfbfbf" points="242.5566,-110.5 242.5566,-128.5 285.7881,-128.5 285.7881,-110.5 242.5566,-110.5"/>
<text text-anchor="middle" x="264.1724" y="-116.5" font-family="Helvetica,sans-Serif" font-size="10.00" fill="#000000">mutex</text>
</g>
<!-- Node9&#45;&gt;Node11 -->
<g id="edge13" class="edge">
<title>Node9&#45;&gt;Node11</title>
<path fill="none" stroke="#191970" d="M498.2666,-275.4913C486.2474,-266.811 468.1356,-252.9713 454.1724,-239 424.4381,-209.2485 429.5039,-189.3028 395.1724,-165 378.9222,-153.4968 328.9911,-137.8658 295.6812,-128.2419"/>
<polygon fill="#191970" stroke="#191970" points="296.5097,-124.8386 285.933,-125.4593 294.5882,-131.5698 296.5097,-124.8386"/>
</g>
<!-- Node12 -->
<g id="node13" class="node">
<title>Node12</title>
<polygon fill="#ffffff" stroke="#bfbfbf" points="561.9951,-220.5 561.9951,-238.5 606.3496,-238.5 606.3496,-220.5 561.9951,-220.5"/>
<text text-anchor="middle" x="584.1724" y="-226.5" font-family="Helvetica,sans-Serif" font-size="10.00" fill="#000000">thread</text>
</g>
<!-- Node9&#45;&gt;Node12 -->
<g id="edge14" class="edge">
<title>Node9&#45;&gt;Node12</title>
<path fill="none" stroke="#191970" d="M523.2268,-275.4179C534.2557,-267.1084 550.7955,-254.6469 563.863,-244.8015"/>
<polygon fill="#191970" stroke="#191970" points="565.9753,-247.5924 571.856,-238.7795 561.763,-242.0016 565.9753,-247.5924"/>
</g>
<!-- Node13 -->
<g id="node14" class="node">
<title>Node13</title>
<polygon fill="#ffffff" stroke="#bfbfbf" points="623.8672,-220.5 623.8672,-238.5 720.4775,-238.5 720.4775,-220.5 623.8672,-220.5"/>
<text text-anchor="middle" x="672.1724" y="-226.5" font-family="Helvetica,sans-Serif" font-size="10.00" fill="#000000">condition_variable</text>
</g>
<!-- Node9&#45;&gt;Node13 -->
<g id="edge15" class="edge">
<title>Node9&#45;&gt;Node13</title>
<path fill="none" stroke="#191970" d="M537.7582,-275.4179C564.6395,-266.2348 606.3651,-251.9807 636.1936,-241.7909"/>
<polygon fill="#191970" stroke="#191970" points="637.483,-245.0491 645.8146,-238.5042 635.22,-238.4249 637.483,-245.0491"/>
</g>
<!-- Node14 -->
<g id="node15" class="node">
<title>Node14</title>
<polygon fill="#ffffff" stroke="#bfbfbf" points="738.1602,-220.5 738.1602,-238.5 784.1846,-238.5 784.1846,-220.5 738.1602,-220.5"/>
<text text-anchor="middle" x="761.1724" y="-226.5" font-family="Helvetica,sans-Serif" font-size="10.00" fill="#000000">pcap.h</text>
</g>
<!-- Node9&#45;&gt;Node14 -->
<g id="edge16" class="edge">
<title>Node9&#45;&gt;Node14</title>
<path fill="none" stroke="#191970" d="M550.3816,-277.331C592.1415,-269.4717 660.3565,-255.9946 727.8636,-239.1817"/>
<polygon fill="#191970" stroke="#191970" points="728.972,-242.512 737.8153,-236.6772 727.2635,-235.7237 728.972,-242.512"/>
</g>
<!-- Node9&#45;&gt;Node15 -->
<g id="edge17" class="edge">
<title>Node9&#45;&gt;Node15</title>
<path fill="none" stroke="#191970" d="M478.6418,-275.4179C445.1778,-266.0751 392.913,-251.4834 356.3052,-241.263"/>
<polygon fill="#191970" stroke="#191970" points="356.9967,-237.8222 346.4238,-238.5042 355.1143,-244.5644 356.9967,-237.8222"/>
</g>
<!-- Node23 -->
<g id="node24" class="node">
<title>Node23</title>
<g id="a_node24"><a xlink:href="namon_8hpp.xhtml" target="_top" xlink:title="Determining applications header file. ">
<polygon fill="#ffffff" stroke="#000000" points="478.1528,-220.5 478.1528,-238.5 544.1919,-238.5 544.1919,-220.5 478.1528,-220.5"/>
<text text-anchor="middle" x="511.1724" y="-226.5" font-family="Helvetica,sans-Serif" font-size="10.00" fill="#000000">namon.hpp</text>
</a>
</g>
</g>
<!-- Node9&#45;&gt;Node23 -->
<g id="edge33" class="edge">
<title>Node9&#45;&gt;Node23</title>
<path fill="none" stroke="#191970" d="M511.1724,-275.4179C511.1724,-268.2164 511.1724,-257.8962 511.1724,-248.8632"/>
<polygon fill="#191970" stroke="#191970" points="514.6725,-248.7794 511.1724,-238.7795 507.6725,-248.7795 514.6725,-248.7794"/>
</g>
<!-- Node24 -->
<g id="node25" class="node">
<title>Node24</title>
<g id="a_node25"><a xlink:href="ring_buffer_8tpp.xhtml" target="_top" xlink:title="Ring Buffer template functions. ">
<polygon fill="#ffffff" stroke="#000000" points="802.5166,-220.5 802.5166,-238.5 877.8281,-238.5 877.8281,-220.5 802.5166,-220.5"/>
<text text-anchor="middle" x="840.1724" y="-226.5" font-family="Helvetica,sans-Serif" font-size="10.00" fill="#000000">ringBuffer.tpp</text>
</a>
</g>
</g>
<!-- Node9&#45;&gt;Node24 -->
<g id="edge36" class="edge">
<title>Node9&#45;&gt;Node24</title>
<path fill="none" stroke="#191970" d="M550.4893,-278.6576C603.1433,-270.7232 699.7131,-255.7869 792.3762,-239.0857"/>
<polygon fill="#191970" stroke="#191970" points="793.2719,-242.4805 802.4875,-237.2533 792.0236,-235.5927 793.2719,-242.4805"/>
</g>
<!-- Node15&#45;&gt;Node4 -->
<g id="edge23" class="edge">
<title>Node15&#45;&gt;Node4</title>
<path fill="none" stroke="#191970" d="M299.4447,-220.2121C267.9962,-199.288 199.7674,-147.3738 233.1724,-110 278.9511,-58.7824 466.4018,-81.7422 551.7129,-73.9033"/>
<polygon fill="#191970" stroke="#191970" points="552.2955,-77.3598 561.8369,-72.7541 551.5059,-70.4044 552.2955,-77.3598"/>
</g>
<!-- Node15&#45;&gt;Node7 -->
<g id="edge20" class="edge">
<title>Node15&#45;&gt;Node7</title>
<path fill="none" stroke="#191970" d="M277.4559,-220.4773C245.9038,-211.8929 203.9819,-198.2105 194.1724,-184 175.4884,-156.9337 172.5629,-134.7934 194.1724,-110 213.7248,-87.5667 415.1453,-71.7947 493.3581,-66.4735"/>
<polygon fill="#191970" stroke="#191970" points="493.8007,-69.9518 503.5449,-65.7924 493.3336,-62.9674 493.8007,-69.9518"/>
</g>
<!-- Node15&#45;&gt;Node10 -->
<g id="edge21" class="edge">
<title>Node15&#45;&gt;Node10</title>
<path fill="none" stroke="#191970" d="M298.4926,-220.3485C280.2144,-208.4223 253.8601,-186.5386 265.1724,-165 272.6912,-150.6842 286.9802,-139.9906 300.3452,-132.5803"/>
<polygon fill="#191970" stroke="#191970" points="302.0473,-135.641 309.3557,-127.9704 298.859,-129.4092 302.0473,-135.641"/>
</g>
<!-- Node16 -->
<g id="node17" class="node">
<title>Node16</title>
<polygon fill="#ffffff" stroke="#bfbfbf" points="273.7217,-165.5 273.7217,-183.5 318.623,-183.5 318.623,-165.5 273.7217,-165.5"/>
<text text-anchor="middle" x="296.1724" y="-171.5" font-family="Helvetica,sans-Serif" font-size="10.00" fill="#000000">cstdint</text>
</g>
<!-- Node15&#45;&gt;Node16 -->
<g id="edge18" class="edge">
<title>Node15&#45;&gt;Node16</title>
<path fill="none" stroke="#191970" d="M311.2,-220.4179C308.8173,-213.1372 305.3913,-202.669 302.4121,-193.5659"/>
<polygon fill="#191970" stroke="#191970" points="305.6461,-192.1948 299.2093,-183.7795 298.9933,-194.3721 305.6461,-192.1948"/>
</g>
<!-- Node17 -->
<g id="node18" class="node">
<title>Node17</title>
<polygon fill="#ffffff" stroke="#bfbfbf" points="336.5024,-165.5 336.5024,-183.5 385.8423,-183.5 385.8423,-165.5 336.5024,-165.5"/>
<text text-anchor="middle" x="361.1724" y="-171.5" font-family="Helvetica,sans-Serif" font-size="10.00" fill="#000000">fstream</text>
</g>
<!-- Node15&#45;&gt;Node17 -->
<g id="edge19" class="edge">
<title>Node15&#45;&gt;Node17</title>
<path fill="none" stroke="#191970" d="M321.9335,-220.4179C328.6285,-212.5833 338.4777,-201.0575 346.6334,-191.5137"/>
<polygon fill="#191970" stroke="#191970" points="349.4069,-193.6556 353.2426,-183.7795 344.0853,-189.108 349.4069,-193.6556"/>
</g>
<!-- Node18 -->
<g id="node19" class="node">
<title>Node18</title>
<polygon fill="#ffffff" stroke="#bfbfbf" points="106.4458,-165.5 106.4458,-183.5 141.8989,-183.5 141.8989,-165.5 106.4458,-165.5"/>
<text text-anchor="middle" x="124.1724" y="-171.5" font-family="Helvetica,sans-Serif" font-size="10.00" fill="#000000">map</text>
</g>
<!-- Node15&#45;&gt;Node18 -->
<g id="edge22" class="edge">
<title>Node15&#45;&gt;Node18</title>
<path fill="none" stroke="#191970" d="M282.3741,-220.4257C250.4515,-211.2964 199.8721,-196.7786 156.1724,-184 154.747,-183.5832 153.2864,-183.1547 151.8119,-182.7209"/>
<polygon fill="#191970" stroke="#191970" points="152.6867,-179.3299 142.1048,-179.8518 150.7026,-186.0428 152.6867,-179.3299"/>
</g>
<!-- Node15&#45;&gt;Node19 -->
<g id="edge24" class="edge">
<title>Node15&#45;&gt;Node19</title>
<path fill="none" stroke="#191970" d="M346.7029,-220.4179C380.4666,-210.9915 433.3694,-196.2216 470.0192,-185.9895"/>
<polygon fill="#191970" stroke="#191970" points="471.2054,-189.2922 479.8959,-183.232 469.3231,-182.55 471.2054,-189.2922"/>
</g>
<!-- Node15&#45;&gt;Node22 -->
<g id="edge30" class="edge">
<title>Node15&#45;&gt;Node22</title>
<path fill="none" stroke="#191970" d="M269.2125,-220.4349C227.4202,-211.9272 163.1807,-198.6447 98.9244,-184.355"/>
<polygon fill="#191970" stroke="#191970" points="99.5539,-180.9095 89.0316,-182.1469 98.0289,-187.7414 99.5539,-180.9095"/>
</g>
<!-- Node19&#45;&gt;Node6 -->
<g id="edge29" class="edge">
<title>Node19&#45;&gt;Node6</title>
<path fill="none" stroke="#191970" d="M527.6853,-165.4179C543.4634,-156.7399 567.4752,-143.5334 585.7038,-133.5077"/>
<polygon fill="#191970" stroke="#191970" points="587.5594,-136.4816 594.6349,-128.5956 584.186,-130.3481 587.5594,-136.4816"/>
</g>
<!-- Node19&#45;&gt;Node7 -->
<g id="edge25" class="edge">
<title>Node19&#45;&gt;Node7</title>
<path fill="none" stroke="#191970" d="M516.4888,-165.4673C521.408,-156.547 528.3694,-142.3422 531.1724,-129 534.3246,-113.9949 532.1453,-96.7103 529.4132,-83.813"/>
<polygon fill="#191970" stroke="#191970" points="532.7391,-82.6753 526.9899,-73.776 525.9346,-84.3181 532.7391,-82.6753"/>
</g>
<!-- Node19&#45;&gt;Node10 -->
<g id="edge26" class="edge">
<title>Node19&#45;&gt;Node10</title>
<path fill="none" stroke="#191970" d="M481.4861,-165.4442C453.3508,-156.8594 409.6502,-143.5199 362.6162,-129.1337"/>
<polygon fill="#191970" stroke="#191970" points="363.4382,-125.7251 352.8517,-126.1467 361.3904,-132.4189 363.4382,-125.7251"/>
</g>
<!-- Node20 -->
<g id="node21" class="node">
<title>Node20</title>
<polygon fill="#ffffff" stroke="#bfbfbf" points="370.8696,-110.5 370.8696,-128.5 457.4751,-128.5 457.4751,-110.5 370.8696,-110.5"/>
<text text-anchor="middle" x="414.1724" y="-116.5" font-family="Helvetica,sans-Serif" font-size="10.00" fill="#000000">unordered_map</text>
</g>
<!-- Node19&#45;&gt;Node20 -->
<g id="edge27" class="edge">
<title>Node19&#45;&gt;Node20</title>
<path fill="none" stroke="#191970" d="M495.1548,-165.4179C479.9905,-156.8195 456.9853,-143.7754 439.3649,-133.7844"/>
<polygon fill="#191970" stroke="#191970" points="440.639,-130.4834 430.2137,-128.5956 437.1863,-136.5727 440.639,-130.4834"/>
</g>
<!-- Node21 -->
<g id="node22" class="node">
<title>Node21</title>
<polygon fill="#ffffff" stroke="#bfbfbf" points="475.8843,-110.5 475.8843,-128.5 522.4604,-128.5 522.4604,-110.5 475.8843,-110.5"/>
<text text-anchor="middle" x="499.1724" y="-116.5" font-family="Helvetica,sans-Serif" font-size="10.00" fill="#000000">chrono</text>
</g>
<!-- Node19&#45;&gt;Node21 -->
<g id="edge28" class="edge">
<title>Node19&#45;&gt;Node21</title>
<path fill="none" stroke="#191970" d="M509.1908,-165.4179C507.6023,-158.1372 505.3183,-147.669 503.3322,-138.5659"/>
<polygon fill="#191970" stroke="#191970" points="506.7483,-137.8035 501.197,-128.7795 499.9092,-139.2957 506.7483,-137.8035"/>
</g>
<!-- Node22&#45;&gt;Node1 -->
<g id="edge31" class="edge">
<title>Node22&#45;&gt;Node1</title>
<path fill="none" stroke="#191970" d="M52.2185,-165.4179C48.1177,-157.8998 42.163,-146.9829 37.0886,-137.6799"/>
<polygon fill="#191970" stroke="#191970" points="40.0951,-135.8824 32.2339,-128.7795 33.9498,-139.2344 40.0951,-135.8824"/>
</g>
<!-- Node22&#45;&gt;Node11 -->
<g id="edge32" class="edge">
<title>Node22&#45;&gt;Node11</title>
<path fill="none" stroke="#191970" d="M89.0625,-166.0268C128.102,-155.654 193.8028,-138.1972 232.6665,-127.8711"/>
<polygon fill="#191970" stroke="#191970" points="233.6382,-131.2344 242.4041,-125.2838 231.8407,-124.4692 233.6382,-131.2344"/>
</g>
<!-- Node23&#45;&gt;Node6 -->
<g id="edge34" class="edge">
<title>Node23&#45;&gt;Node6</title>
<path fill="none" stroke="#191970" d="M519.3558,-220.4982C536.1299,-202.0467 574.6338,-159.6924 596.0693,-136.1134"/>
<polygon fill="#191970" stroke="#191970" points="598.7389,-138.3799 602.8759,-128.6261 593.5593,-133.6712 598.7389,-138.3799"/>
</g>
<!-- Node23&#45;&gt;Node19 -->
<g id="edge35" class="edge">
<title>Node23&#45;&gt;Node19</title>
<path fill="none" stroke="#191970" d="M511.1724,-220.4179C511.1724,-213.2164 511.1724,-202.8962 511.1724,-193.8632"/>
<polygon fill="#191970" stroke="#191970" points="514.6725,-193.7794 511.1724,-183.7795 507.6725,-193.7795 514.6725,-193.7794"/>
</g>
</g>
</svg>
        <g id="navigator" transform="translate(0 0)" fill="#404254">
                <rect fill="#f2f5e9" fill-opacity="0.5" stroke="#606060" stroke-width=".5" x="0" y="0" width="60" height="60"/>
                <use id="zoomplus" xlink:href="#zoomPlus" x="17" y="9" onmousedown="handleZoom(evt,'in')"/>
                <use id="zoomminus" xlink:href="#zoomMin" x="42" y="9" onmousedown="handleZoom(evt,'out')"/>
                <use id="reset" xlink:href="#resetDef" x="30" y="36" onmousedown="handleReset()"/>
                <g id="arrowUp" xlink:href="#dirArrow" transform="translate(30 24)" onmousedown="handlePan(0,-1)">
                  <use xlink:href="#rim" fill="#404040">
                        <set attributeName="fill" to="#808080" begin="arrowUp.mouseover" end="arrowUp.mouseout"/>
                  </use>
                  <path fill="none" stroke="white" stroke-width="1.5" d="M0,-3.0v7 M-2.5,-0.5L0,-3.0L2.5,-0.5"/>
                </g>
                <g id="arrowRight" xlink:href="#dirArrow" transform="rotate(90) translate(36 -43)" onmousedown="handlePan(1,0)">
                  <use xlink:href="#rim" fill="#404040">
                        <set attributeName="fill" to="#808080" begin="arrowRight.mouseover" end="arrowRight.mouseout"/>
                  </use>
                  <path fill="none" stroke="white" stroke-width="1.5" d="M0,-3.0v7 M-2.5,-0.5L0,-3.0L2.5,-0.5"/>
                </g>
                <g id="arrowDown" xlink:href="#dirArrow" transform="rotate(180) translate(-30 -48)" onmousedown="handlePan(0,1)">
                  <use xlink:href="#rim" fill="#404040">
                        <set attributeName="fill" to="#808080" begin="arrowDown.mouseover" end="arrowDown.mouseout"/>
                  </use>
                  <path fill="none" stroke="white" stroke-width="1.5" d="M0,-3.0v7 M-2.5,-0.5L0,-3.0L2.5,-0.5"/>
                </g>
                <g id="arrowLeft" xlink:href="#dirArrow" transform="rotate(270) translate(-36 17)" onmousedown="handlePan(-1,0)">
                  <use xlink:href="#rim" fill="#404040">
                        <set attributeName="fill" to="#808080" begin="arrowLeft.mouseover" end="arrowLeft.mouseout"/>
                  </use>
                  <path fill="none" stroke="white" stroke-width="1.5" d="M0,-3.0v7 M-2.5,-0.5L0,-3.0L2.5,-0.5"/>
                </g>
        </g>
        <svg viewBox="0 0 15 15" width="100%" height="30px" preserveAspectRatio="xMaxYMin meet">
         <g id="arrow_out" transform="scale(0.3 0.3)">
          <a xlink:href="capturing_8hpp__incl_org.svg" target="_base">
           <rect id="button" ry="5" rx="5" y="6" x="6" height="38" width="38"
                fill="#f2f5e9" fill-opacity="0.5" stroke="#606060" stroke-width="1.0"/>
           <path id="arrow"
             d="M 11.500037,31.436501 C 11.940474,20.09759 22.043105,11.32322 32.158766,21.979434 L 37.068811,17.246167 C 37.068811,17.246167 37.088388,32 37.088388,32 L 22.160133,31.978069 C 22.160133,31.978069 26.997745,27.140456 26.997745,27.140456 C 18.528582,18.264221 13.291696,25.230495 11.500037,31.436501 z"
             style="fill:#404040;"/>
          </a>
         </g>
        </svg>
</svg>
