<?xml version="1.0" encoding="UTF-8" standalone="no"?>
<!DOCTYPE svg PUBLIC "-//W3C//DTD SVG 1.1//EN"
 "http://www.w3.org/Graphics/SVG/1.1/DTD/svg11.dtd">
<!-- Generated by graphviz version 2.40.1 (20161225.0304)
 -->
<!-- Title: packetHandler Pages: 1 -->
<svg width="386pt" height="82pt"
 viewBox="0.00 0.00 385.94 82.00" xmlns="http://www.w3.org/2000/svg" xmlns:xlink="http://www.w3.org/1999/xlink">
<g id="graph0" class="graph" transform="scale(1 1) rotate(0) translate(4 78)">
<title>packetHandler</title>
<polygon fill="#ffffff" stroke="transparent" points="-4,4 -4,-78 381.9395,-78 381.9395,4 -4,4"/>
<!-- Node4 -->
<g id="node1" class="node">
<title>Node4</title>
<polygon fill="#bfbfbf" stroke="#000000" points="0,-27.5 0,-45.5 80.4824,-45.5 80.4824,-27.5 0,-27.5"/>
<text text-anchor="middle" x="40.2412" y="-33.5" font-family="Helvetica,sans-Serif" font-size="10.00" fill="#000000">packetHandler</text>
</g>
<!-- Node5 -->
<g id="node2" class="node">
<title>Node5</title>
<g id="a_node2"><a xlink:href="class_t_o_o_l_1_1_ring_buffer.xhtml#afe1bfc1344659d31ec56627448aebfea" target="_top" xlink:title="Saves new structure into the buffer. ">
<polygon fill="#ffffff" stroke="#000000" points="116.4824,-55.5 116.4824,-73.5 239.4014,-73.5 239.4014,-55.5 116.4824,-55.5"/>
<text text-anchor="middle" x="177.9419" y="-61.5" font-family="Helvetica,sans-Serif" font-size="10.00" fill="#000000">TOOL::RingBuffer::push</text>
</a>
</g>
</g>
<!-- Node4&#45;&gt;Node5 -->
<g id="edge1" class="edge">
<title>Node4&#45;&gt;Node5</title>
<path fill="none" stroke="#191970" d="M80.8112,-44.7495C94.0895,-47.4495 109.0663,-50.4949 123.2122,-53.3713"/>
<polygon fill="#191970" stroke="#191970" points="122.8326,-56.8657 133.3295,-55.4285 124.2275,-50.006 122.8326,-56.8657"/>
</g>
<!-- Node6 -->
<g id="node3" class="node">
<title>Node6</title>
<g id="a_node3"><a xlink:href="debug_8hpp.xhtml#a9340c95e0607709d793dc427c8b630e8" target="_top" xlink:title="Function that prints log messages. ">
<polygon fill="#ffffff" stroke="#000000" points="146.9658,-.5 146.9658,-18.5 208.918,-18.5 208.918,-.5 146.9658,-.5"/>
<text text-anchor="middle" x="177.9419" y="-6.5" font-family="Helvetica,sans-Serif" font-size="10.00" fill="#000000">TOOL::log</text>
</a>
</g>
</g>
<!-- Node4&#45;&gt;Node6 -->
<g id="edge2" class="edge">
<title>Node4&#45;&gt;Node6</title>
<path fill="none" stroke="#191970" d="M80.8112,-28.5451C98.4515,-25.0863 119.0897,-21.0396 136.7946,-17.568"/>
<polygon fill="#191970" stroke="#191970" points="137.6956,-20.9581 146.8353,-15.5993 136.3486,-14.0889 137.6956,-20.9581"/>
</g>
<!-- Node6&#45;&gt;Node6 -->
<g id="edge3" class="edge">
<title>Node6&#45;&gt;Node6</title>
<path fill="none" stroke="#191970" d="M157.6776,-18.5134C146.484,-27.322 153.2388,-37 177.9419,-37 194.5393,-37 203.0345,-32.6312 203.4276,-27.0926"/>
<polygon fill="#191970" stroke="#191970" points="206.395,-25.2361 198.2062,-18.5134 200.4154,-28.8754 206.395,-25.2361"/>
</g>
<!-- Node7 -->
<g id="node4" class="node">
<title>Node7</title>
<g id="a_node4"><a xlink:href="debug_8cpp.xhtml#ad6ba0645e5c2cdd3f7533aa4f15dbe71" target="_top" xlink:title="Sets #TOOL::generalLogLevel;. ">
<polygon fill="#ffffff" stroke="#000000" points="275.4014,-.5 275.4014,-18.5 377.9395,-18.5 377.9395,-.5 275.4014,-.5"/>
<text text-anchor="middle" x="326.6704" y="-6.5" font-family="Helvetica,sans-Serif" font-size="10.00" fill="#000000">TOOL::setLogLevel</text>
</a>
</g>
</g>
<!-- Node6&#45;&gt;Node7 -->
<g id="edge4" class="edge">
<title>Node6&#45;&gt;Node7</title>
<path fill="none" stroke="#191970" d="M209.1203,-9.5C225.366,-9.5 245.8197,-9.5 265.0922,-9.5"/>
<polygon fill="#191970" stroke="#191970" points="265.3377,-13.0001 275.3376,-9.5 265.3376,-6.0001 265.3377,-13.0001"/>
</g>
<!-- Node7&#45;&gt;Node7 -->
<g id="edge5" class="edge">
<title>Node7&#45;&gt;Node7</title>
<path fill="none" stroke="#191970" d="M304.6181,-18.5134C292.4368,-27.322 299.7876,-37 326.6704,-37 344.7323,-37 353.9771,-32.6312 354.4048,-27.0926"/>
<polygon fill="#191970" stroke="#191970" points="357.1627,-24.918 348.7227,-18.5134 351.3266,-28.7833 357.1627,-24.918"/>
</g>
</g>
</svg>
