<?xml version="1.0" encoding="UTF-8" standalone="no"?>
<!DOCTYPE svg PUBLIC "-//W3C//DTD SVG 1.1//EN"
 "http://www.w3.org/Graphics/SVG/1.1/DTD/svg11.dtd">
<!-- Generated by graphviz version 2.40.1 (20161225.0304)
 -->
<!-- Title: parseIp Pages: 1 -->
<svg width="294pt" height="45pt"
 viewBox="0.00 0.00 293.84 45.00" xmlns="http://www.w3.org/2000/svg" xmlns:xlink="http://www.w3.org/1999/xlink">
<g id="graph0" class="graph" transform="scale(1 1) rotate(0) translate(4 41)">
<title>parseIp</title>
<polygon fill="#ffffff" stroke="transparent" points="-4,4 -4,-41 289.8447,-41 289.8447,4 -4,4"/>
<!-- Node9 -->
<g id="node1" class="node">
<title>Node9</title>
<polygon fill="#bfbfbf" stroke="#000000" points="0,-.5 0,-18.5 49.3545,-18.5 49.3545,-.5 0,-.5"/>
<text text-anchor="middle" x="24.6772" y="-6.5" font-family="Helvetica,sans-Serif" font-size="10.00" fill="#000000">parseIp</text>
</g>
<!-- Node10 -->
<g id="node2" class="node">
<title>Node10</title>
<g id="a_node2"><a xlink:href="debug_8hpp.xhtml#a9340c95e0607709d793dc427c8b630e8" target="_top" xlink:title="Function that prints log messages. ">
<polygon fill="#ffffff" stroke="#000000" points="85.3545,-.5 85.3545,-18.5 147.3066,-18.5 147.3066,-.5 85.3545,-.5"/>
<text text-anchor="middle" x="116.3306" y="-6.5" font-family="Helvetica,sans-Serif" font-size="10.00" fill="#000000">TOOL::log</text>
</a>
</g>
</g>
<!-- Node9&#45;&gt;Node10 -->
<g id="edge1" class="edge">
<title>Node9&#45;&gt;Node10</title>
<path fill="none" stroke="#191970" d="M49.7219,-9.5C57.4842,-9.5 66.2557,-9.5 74.8239,-9.5"/>
<polygon fill="#191970" stroke="#191970" points="75.0931,-13.0001 85.0931,-9.5 75.093,-6.0001 75.0931,-13.0001"/>
</g>
<!-- Node10&#45;&gt;Node10 -->
<g id="edge2" class="edge">
<title>Node10&#45;&gt;Node10</title>
<path fill="none" stroke="#191970" d="M102.9204,-18.5134C95.5128,-27.322 99.9829,-37 116.3306,-37 126.5479,-37 132.1255,-33.2195 133.0634,-28.2336"/>
<polygon fill="#191970" stroke="#191970" points="136.2872,-26.8438 129.7408,-18.5134 129.6635,-29.108 136.2872,-26.8438"/>
</g>
<!-- Node11 -->
<g id="node3" class="node">
<title>Node11</title>
<g id="a_node3"><a xlink:href="debug_8cpp.xhtml#ad6ba0645e5c2cdd3f7533aa4f15dbe71" target="_top" xlink:title="Sets #TOOL::generalLogLevel;. ">
<polygon fill="#ffffff" stroke="#000000" points="183.3066,-.5 183.3066,-18.5 285.8447,-18.5 285.8447,-.5 183.3066,-.5"/>
<text text-anchor="middle" x="234.5757" y="-6.5" font-family="Helvetica,sans-Serif" font-size="10.00" fill="#000000">TOOL::setLogLevel</text>
</a>
</g>
</g>
<!-- Node10&#45;&gt;Node11 -->
<g id="edge3" class="edge">
<title>Node10&#45;&gt;Node11</title>
<path fill="none" stroke="#191970" d="M147.3981,-9.5C155.3526,-9.5 164.1891,-9.5 173.0971,-9.5"/>
<polygon fill="#191970" stroke="#191970" points="173.1416,-13.0001 183.1416,-9.5 173.1416,-6.0001 173.1416,-13.0001"/>
</g>
<!-- Node11&#45;&gt;Node11 -->
<g id="edge4" class="edge">
<title>Node11&#45;&gt;Node11</title>
<path fill="none" stroke="#191970" d="M216.9934,-18.5134C207.2813,-27.322 213.1421,-37 234.5757,-37 248.6415,-37 256.0006,-32.832 256.6531,-27.477"/>
<polygon fill="#191970" stroke="#191970" points="259.7694,-25.8834 252.1579,-18.5134 253.5121,-29.0214 259.7694,-25.8834"/>
</g>
</g>
</svg>
