<?xml version="1.0" encoding="UTF-8" standalone="no"?>
<!DOCTYPE svg PUBLIC "-//W3C//DTD SVG 1.1//EN"
 "http://www.w3.org/Graphics/SVG/1.1/DTD/svg11.dtd">
<!-- Generated by graphviz version 2.40.1 (20161225.0304)
 -->
<!-- Title: parsePorts Pages: 1 -->
<svg width="372pt" height="82pt"
 viewBox="0.00 0.00 372.20 82.00" xmlns="http://www.w3.org/2000/svg" xmlns:xlink="http://www.w3.org/1999/xlink">
<g id="graph0" class="graph" transform="scale(1 1) rotate(0) translate(4 78)">
<title>parsePorts</title>
<polygon fill="#ffffff" stroke="transparent" points="-4,4 -4,-78 368.2041,-78 368.2041,4 -4,4"/>
<!-- Node13 -->
<g id="node1" class="node">
<title>Node13</title>
<polygon fill="#bfbfbf" stroke="#000000" points="0,-27.5 0,-45.5 64.3545,-45.5 64.3545,-27.5 0,-27.5"/>
<text text-anchor="middle" x="32.1772" y="-33.5" font-family="Helvetica,sans-Serif" font-size="10.00" fill="#000000">parsePorts</text>
</g>
<!-- Node14 -->
<g id="node2" class="node">
<title>Node14</title>
<g id="a_node2"><a xlink:href="class_t_o_o_l_1_1_netflow.xhtml#a90e60833b8662f06ca181452aafaa27e" target="_top" xlink:title="Get method for TOOL::Netflow::proto. ">
<polygon fill="#ffffff" stroke="#000000" points="100.3545,-55.5 100.3545,-73.5 225.666,-73.5 225.666,-55.5 100.3545,-55.5"/>
<text text-anchor="middle" x="163.0103" y="-61.5" font-family="Helvetica,sans-Serif" font-size="10.00" fill="#000000">TOOL::Netflow::getProto</text>
</a>
</g>
</g>
<!-- Node13&#45;&gt;Node14 -->
<g id="edge1" class="edge">
<title>Node13&#45;&gt;Node14</title>
<path fill="none" stroke="#191970" d="M64.518,-43.4214C78.4225,-46.3971 95.0325,-49.9519 110.6151,-53.2867"/>
<polygon fill="#191970" stroke="#191970" points="110.157,-56.7679 120.6681,-55.4382 111.622,-49.9229 110.157,-56.7679"/>
</g>
<!-- Node15 -->
<g id="node3" class="node">
<title>Node15</title>
<g id="a_node3"><a xlink:href="debug_8hpp.xhtml#a9340c95e0607709d793dc427c8b630e8" target="_top" xlink:title="Function that prints log messages. ">
<polygon fill="#ffffff" stroke="#000000" points="132.0342,-.5 132.0342,-18.5 193.9863,-18.5 193.9863,-.5 132.0342,-.5"/>
<text text-anchor="middle" x="163.0103" y="-6.5" font-family="Helvetica,sans-Serif" font-size="10.00" fill="#000000">TOOL::log</text>
</a>
</g>
</g>
<!-- Node13&#45;&gt;Node15 -->
<g id="edge2" class="edge">
<title>Node13&#45;&gt;Node15</title>
<path fill="none" stroke="#191970" d="M64.518,-29.8258C81.8844,-26.2419 103.4713,-21.7871 122.0058,-17.9621"/>
<polygon fill="#191970" stroke="#191970" points="122.8562,-21.3604 131.9425,-15.9115 121.4414,-14.5049 122.8562,-21.3604"/>
</g>
<!-- Node15&#45;&gt;Node15 -->
<g id="edge3" class="edge">
<title>Node15&#45;&gt;Node15</title>
<path fill="none" stroke="#191970" d="M143.64,-18.5134C132.9402,-27.322 139.397,-37 163.0103,-37 178.5065,-37 186.614,-32.832 187.3328,-27.477"/>
<polygon fill="#191970" stroke="#191970" points="190.28,-25.5738 182.3805,-18.5134 184.1529,-28.959 190.28,-25.5738"/>
</g>
<!-- Node16 -->
<g id="node4" class="node">
<title>Node16</title>
<g id="a_node4"><a xlink:href="debug_8cpp.xhtml#ad6ba0645e5c2cdd3f7533aa4f15dbe71" target="_top" xlink:title="Sets #TOOL::generalLogLevel;. ">
<polygon fill="#ffffff" stroke="#000000" points="261.666,-.5 261.666,-18.5 364.2041,-18.5 364.2041,-.5 261.666,-.5"/>
<text text-anchor="middle" x="312.9351" y="-6.5" font-family="Helvetica,sans-Serif" font-size="10.00" fill="#000000">TOOL::setLogLevel</text>
</a>
</g>
</g>
<!-- Node15&#45;&gt;Node16 -->
<g id="edge4" class="edge">
<title>Node15&#45;&gt;Node16</title>
<path fill="none" stroke="#191970" d="M194.0748,-9.5C210.6544,-9.5 231.6575,-9.5 251.3805,-9.5"/>
<polygon fill="#191970" stroke="#191970" points="251.5476,-13.0001 261.5476,-9.5 251.5475,-6.0001 251.5476,-13.0001"/>
</g>
<!-- Node16&#45;&gt;Node16 -->
<g id="edge5" class="edge">
<title>Node16&#45;&gt;Node16</title>
<path fill="none" stroke="#191970" d="M290.8828,-18.5134C278.7015,-27.322 286.0522,-37 312.9351,-37 330.9969,-37 340.2418,-32.6312 340.6695,-27.0926"/>
<polygon fill="#191970" stroke="#191970" points="343.4273,-24.918 334.9874,-18.5134 337.5913,-28.7833 343.4273,-24.918"/>
</g>
</g>
</svg>
