<?xml version="1.0" encoding="UTF-8" standalone="no"?>
<!DOCTYPE svg PUBLIC "-//W3C//DTD SVG 1.1//EN"
 "http://www.w3.org/Graphics/SVG/1.1/DTD/svg11.dtd">
<!-- Generated by graphviz version 2.40.1 (20161225.0304)
 -->
<!-- Title: parseIp Pages: 1 -->
<svg width="314pt" height="45pt"
 viewBox="0.00 0.00 314.19 45.00" xmlns="http://www.w3.org/2000/svg" xmlns:xlink="http://www.w3.org/1999/xlink">
<g id="graph0" class="graph" transform="scale(1 1) rotate(0) translate(4 41)">
<title>parseIp</title>
<polygon fill="#ffffff" stroke="transparent" points="-4,4 -4,-41 310.1865,-41 310.1865,4 -4,4"/>
<!-- Node9 -->
<g id="node1" class="node">
<title>Node9</title>
<polygon fill="#bfbfbf" stroke="#000000" points="0,-.5 0,-18.5 49.3545,-18.5 49.3545,-.5 0,-.5"/>
<text text-anchor="middle" x="24.6772" y="-6.5" font-family="Helvetica,sans-Serif" font-size="10.00" fill="#000000">parseIp</text>
</g>
<!-- Node10 -->
<g id="node2" class="node">
<title>Node10</title>
<g id="a_node2"><a xlink:href="debug_8hpp.xhtml#a9f1c1527f51faaaca3be83b5a8928ca5" target="_top" xlink:title="Function that prints log messages. ">
<polygon fill="#ffffff" stroke="#000000" points="85.3545,-.5 85.3545,-18.5 157.4775,-18.5 157.4775,-.5 85.3545,-.5"/>
<text text-anchor="middle" x="121.416" y="-6.5" font-family="Helvetica,sans-Serif" font-size="10.00" fill="#000000">NAMON::log</text>
</a>
</g>
</g>
<!-- Node9&#45;&gt;Node10 -->
<g id="edge1" class="edge">
<title>Node9&#45;&gt;Node10</title>
<path fill="none" stroke="#191970" d="M49.5899,-9.5C57.3959,-9.5 66.2774,-9.5 75.0697,-9.5"/>
<polygon fill="#191970" stroke="#191970" points="75.2802,-13.0001 85.2802,-9.5 75.2801,-6.0001 75.2802,-13.0001"/>
</g>
<!-- Node10&#45;&gt;Node10 -->
<g id="edge2" class="edge">
<title>Node10&#45;&gt;Node10</title>
<path fill="none" stroke="#191970" d="M107.1118,-18.5134C99.2104,-27.322 103.9785,-37 121.416,-37 132.5869,-37 138.5583,-33.0281 139.3301,-27.8575"/>
<polygon fill="#191970" stroke="#191970" points="142.5888,-26.5802 135.7202,-18.5134 136.0592,-29.1029 142.5888,-26.5802"/>
</g>
<!-- Node11 -->
<g id="node3" class="node">
<title>Node11</title>
<g id="a_node3"><a xlink:href="debug_8cpp.xhtml#a1a395cd89e6df6f9fd16ed25601ac351" target="_top" xlink:title="Sets #NAMON::generalLogLevel;. ">
<polygon fill="#ffffff" stroke="#000000" points="193.4775,-.5 193.4775,-18.5 306.1865,-18.5 306.1865,-.5 193.4775,-.5"/>
<text text-anchor="middle" x="249.832" y="-6.5" font-family="Helvetica,sans-Serif" font-size="10.00" fill="#000000">NAMON::setLogLevel</text>
</a>
</g>
</g>
<!-- Node10&#45;&gt;Node11 -->
<g id="edge3" class="edge">
<title>Node10&#45;&gt;Node11</title>
<path fill="none" stroke="#191970" d="M157.5288,-9.5C165.6137,-9.5 174.4389,-9.5 183.3229,-9.5"/>
<polygon fill="#191970" stroke="#191970" points="183.342,-13.0001 193.3419,-9.5 183.3419,-6.0001 183.342,-13.0001"/>
</g>
<!-- Node11&#45;&gt;Node11 -->
<g id="edge4" class="edge">
<title>Node11&#45;&gt;Node11</title>
<path fill="none" stroke="#191970" d="M230.7598,-18.5134C220.2246,-27.322 226.582,-37 249.832,-37 265.0898,-37 273.0726,-32.832 273.7804,-27.477"/>
<polygon fill="#191970" stroke="#191970" points="276.7575,-25.6253 268.9043,-18.5134 270.6084,-28.9703 276.7575,-25.6253"/>
</g>
</g>
</svg>
