<?xml version="1.0" encoding="UTF-8" standalone="no"?>
<!DOCTYPE svg PUBLIC "-//W3C//DTD SVG 1.1//EN"
 "http://www.w3.org/Graphics/SVG/1.1/DTD/svg11.dtd">
<!-- Generated by graphviz version 2.40.1 (20161225.0304)
 -->
<!-- Title: src/capturing.cpp Pages: 1 -->
<!--zoomable 412 -->
<svg id="main" version="1.1" xmlns="http://www.w3.org/2000/svg" xmlns:xlink="http://www.w3.org/1999/xlink" xml:space="preserve" onload="init(evt)">
<style type="text/css"><![CDATA[
.edge:hover path { stroke: red; }
.edge:hover polygon { stroke: red; fill: red; }
]]></style>
<script type="text/javascript"><![CDATA[
var edges = document.getElementsByTagName('g');
if (edges && edges.length) {
  for (var i=0;i<edges.length;i++) {
    if (edges[i].id.substr(0,4)=='edge') {
      edges[i].setAttribute('class','edge');
    }
  }
}
]]></script>
        <defs>
                <circle id="rim" cx="0" cy="0" r="7"/>
                <circle id="rim2" cx="0" cy="0" r="3.5"/>
                <g id="zoomPlus">
                        <use xlink:href="#rim" fill="#404040">
                                <set attributeName="fill" to="#808080" begin="zoomplus.mouseover" end="zoomplus.mouseout"/>
                        </use>
                        <path d="M-4,0h8M0,-4v8" fill="none" stroke="white" stroke-width="1.5" pointer-events="none"/>
                </g>
                <g id="zoomMin">
                        <use xlink:href="#rim" fill="#404040">
                                <set attributeName="fill" to="#808080" begin="zoomminus.mouseover" end="zoomminus.mouseout"/>
                        </use>
                        <path d="M-4,0h8" fill="none" stroke="white" stroke-width="1.5" pointer-events="none"/>
                </g>
                <g id="dirArrow">
                        <path fill="none" stroke="white" stroke-width="1.5" d="M0,-3.0v7 M-2.5,-0.5L0,-3.0L2.5,-0.5"/>
                </g>
               <g id="resetDef">
                       <use xlink:href="#rim2" fill="#404040">
                               <set attributeName="fill" to="#808080" begin="reset.mouseover" end="reset.mouseout"/>
                       </use>
               </g>
        </defs>

<script type="text/javascript">
var viewWidth = 1312;
var viewHeight = 412;
var sectionId = 'dynsection-0';
</script>
<script xlink:href="svgpan.js"/>
<svg id="graph" class="graph">
<g id="viewport">
<title>src/capturing.cpp</title>
<polygon fill="#ffffff" stroke="transparent" points="-4,4 -4,-408 1308.0335,-408 1308.0335,4 -4,4"/>
<!-- Node0 -->
<g id="node1" class="node">
<title>Node0</title>
<polygon fill="#bfbfbf" stroke="#000000" points="704.7046,-385.5 704.7046,-403.5 796.8521,-403.5 796.8521,-385.5 704.7046,-385.5"/>
<text text-anchor="middle" x="750.7783" y="-391.5" font-family="Helvetica,sans-Serif" font-size="10.00" fill="#000000">src/capturing.cpp</text>
</g>
<!-- Node1 -->
<g id="node2" class="node">
<title>Node1</title>
<polygon fill="#ffffff" stroke="#bfbfbf" points="482.0518,-165.5 482.0518,-183.5 517.5049,-183.5 517.5049,-165.5 482.0518,-165.5"/>
<text text-anchor="middle" x="499.7783" y="-171.5" font-family="Helvetica,sans-Serif" font-size="10.00" fill="#000000">map</text>
</g>
<!-- Node0&#45;&gt;Node1 -->
<g id="edge1" class="edge">
<title>Node0&#45;&gt;Node1</title>
<path fill="none" stroke="#191970" d="M708.8113,-385.4916C611.368,-363.6115 374.8004,-304.6177 331.7783,-239 327.1482,-231.9381 326.6467,-226.7063 331.7783,-220 348.7067,-197.877 428.3941,-184.0194 471.6597,-177.9968"/>
<polygon fill="#191970" stroke="#191970" points="472.3687,-181.4331 481.8143,-176.6342 471.4376,-174.4953 472.3687,-181.4331"/>
</g>
<!-- Node2 -->
<g id="node3" class="node">
<title>Node2</title>
<polygon fill="#ffffff" stroke="#bfbfbf" points="808.7661,-220.5 808.7661,-238.5 854.7905,-238.5 854.7905,-220.5 808.7661,-220.5"/>
<text text-anchor="middle" x="831.7783" y="-226.5" font-family="Helvetica,sans-Serif" font-size="10.00" fill="#000000">pcap.h</text>
</g>
<!-- Node0&#45;&gt;Node2 -->
<g id="edge2" class="edge">
<title>Node0&#45;&gt;Node2</title>
<path fill="none" stroke="#191970" d="M757.7622,-385.4373C764.455,-376.4948 774.5753,-362.274 781.7783,-349 800.2886,-314.8887 816.5639,-272.4639 825.2062,-248.4346"/>
<polygon fill="#191970" stroke="#191970" points="828.5845,-249.3793 828.6204,-238.7845 821.9853,-247.0444 828.5845,-249.3793"/>
</g>
<!-- Node3 -->
<g id="node4" class="node">
<title>Node3</title>
<polygon fill="#ffffff" stroke="#bfbfbf" points="872.6011,-220.5 872.6011,-238.5 916.9556,-238.5 916.9556,-220.5 872.6011,-220.5"/>
<text text-anchor="middle" x="894.7783" y="-226.5" font-family="Helvetica,sans-Serif" font-size="10.00" fill="#000000">thread</text>
</g>
<!-- Node0&#45;&gt;Node3 -->
<g id="edge3" class="edge">
<title>Node0&#45;&gt;Node3</title>
<path fill="none" stroke="#191970" d="M761.996,-385.2311C772.4664,-376.3669 788.3046,-362.4029 800.7783,-349 832.5293,-314.8837 865.1973,-270.9832 882.414,-247.0233"/>
<polygon fill="#191970" stroke="#191970" points="885.4601,-248.7798 888.4151,-238.6054 879.7603,-244.7163 885.4601,-248.7798"/>
</g>
<!-- Node4 -->
<g id="node5" class="node">
<title>Node4</title>
<polygon fill="#ffffff" stroke="#bfbfbf" points="745.0518,-220.5 745.0518,-238.5 790.5049,-238.5 790.5049,-220.5 745.0518,-220.5"/>
<text text-anchor="middle" x="767.7783" y="-226.5" font-family="Helvetica,sans-Serif" font-size="10.00" fill="#000000">atomic</text>
</g>
<!-- Node0&#45;&gt;Node4 -->
<g id="edge4" class="edge">
<title>Node0&#45;&gt;Node4</title>
<path fill="none" stroke="#191970" d="M754.2072,-385.3054C761.2613,-365.4 776.5187,-316.7422 773.7783,-275 773.2042,-266.2544 772.0157,-256.6238 770.8467,-248.4835"/>
<polygon fill="#191970" stroke="#191970" points="774.2961,-247.8858 769.3244,-238.5298 767.3766,-248.9441 774.2961,-247.8858"/>
</g>
<!-- Node5 -->
<g id="node6" class="node">
<title>Node5</title>
<g id="a_node6"><a xlink:href="tcpip__headers_8hpp.xhtml" target="_top" xlink:title="Protocol headers. ">
<polygon fill="#ffffff" stroke="#000000" points="205.6358,-55.5 205.6358,-73.5 303.9209,-73.5 303.9209,-55.5 205.6358,-55.5"/>
<text text-anchor="middle" x="254.7783" y="-61.5" font-family="Helvetica,sans-Serif" font-size="10.00" fill="#000000">tcpip_headers.hpp</text>
</a>
</g>
</g>
<!-- Node0&#45;&gt;Node5 -->
<g id="edge5" class="edge">
<title>Node0&#45;&gt;Node5</title>
<path fill="none" stroke="#191970" d="M704.4282,-393.583C578.6303,-390.7062 232.9356,-380.1176 123.7783,-349 64.4163,-332.0776 .7783,-346.227 .7783,-284.5 .7783,-284.5 .7783,-284.5 .7783,-174.5 .7783,-144.6154 -2.335,-130.1019 19.7783,-110 44.9951,-87.0769 134.3584,-74.8503 195.3242,-69.0232"/>
<polygon fill="#191970" stroke="#191970" points="195.9658,-72.479 205.602,-68.0753 195.3228,-65.5086 195.9658,-72.479"/>
</g>
<!-- Node7 -->
<g id="node8" class="node">
<title>Node7</title>
<g id="a_node8"><a xlink:href="file_handler_8hpp.xhtml" target="_top" xlink:title="File handler header file. ">
<polygon fill="#ffffff" stroke="#000000" points="1014.419,-330.5 1014.419,-348.5 1097.1377,-348.5 1097.1377,-330.5 1014.419,-330.5"/>
<text text-anchor="middle" x="1055.7783" y="-336.5" font-family="Helvetica,sans-Serif" font-size="10.00" fill="#000000">fileHandler.hpp</text>
</a>
</g>
</g>
<!-- Node0&#45;&gt;Node7 -->
<g id="edge7" class="edge">
<title>Node0&#45;&gt;Node7</title>
<path fill="none" stroke="#191970" d="M797.1013,-386.1467C852.9098,-376.0828 946.3808,-359.2274 1004.3687,-348.7706"/>
<polygon fill="#191970" stroke="#191970" points="1005.194,-352.1783 1014.4141,-346.9591 1003.9517,-345.2894 1005.194,-352.1783"/>
</g>
<!-- Node9 -->
<g id="node10" class="node">
<title>Node9</title>
<g id="a_node10"><a xlink:href="ring_buffer_8hpp.xhtml" target="_top" xlink:title="Ring Buffer header file. ">
<polygon fill="#ffffff" stroke="#000000" points="526.731,-275.5 526.731,-293.5 604.8257,-293.5 604.8257,-275.5 526.731,-275.5"/>
<text text-anchor="middle" x="565.7783" y="-281.5" font-family="Helvetica,sans-Serif" font-size="10.00" fill="#000000">ringBuffer.hpp</text>
</a>
</g>
</g>
<!-- Node0&#45;&gt;Node9 -->
<g id="edge9" class="edge">
<title>Node0&#45;&gt;Node9</title>
<path fill="none" stroke="#191970" d="M704.6992,-388.8122C673.7929,-383.0512 633.6203,-371.5947 604.7783,-349 589.6919,-337.1814 579.103,-317.7758 572.8032,-303.3319"/>
<polygon fill="#191970" stroke="#191970" points="575.9692,-301.8254 568.9709,-293.8709 569.4813,-304.4534 575.9692,-301.8254"/>
</g>
<!-- Node16 -->
<g id="node17" class="node">
<title>Node16</title>
<g id="a_node17"><a xlink:href="cache_8hpp.xhtml" target="_top" xlink:title="Cache implementation header file. ">
<polygon fill="#ffffff" stroke="#000000" points="182.7046,-165.5 182.7046,-183.5 244.8521,-183.5 244.8521,-165.5 182.7046,-165.5"/>
<text text-anchor="middle" x="213.7783" y="-171.5" font-family="Helvetica,sans-Serif" font-size="10.00" fill="#000000">cache.hpp</text>
</a>
</g>
</g>
<!-- Node0&#45;&gt;Node16 -->
<g id="edge39" class="edge">
<title>Node0&#45;&gt;Node16</title>
<path fill="none" stroke="#191970" d="M704.6382,-389.1889C592.0684,-375.6864 306.3812,-337.9827 221.7783,-294 190.5433,-277.7618 178.5401,-271.4025 164.7783,-239 156.7264,-220.0415 173.9283,-201.663 190.1221,-189.4068"/>
<polygon fill="#191970" stroke="#191970" points="192.2132,-192.2149 198.3595,-183.5851 188.173,-186.4985 192.2132,-192.2149"/>
</g>
<!-- Node19 -->
<g id="node20" class="node">
<title>Node19</title>
<g id="a_node20"><a xlink:href="netflow_8hpp.xhtml" target="_top" xlink:title="Netflow structure header file. ">
<polygon fill="#ffffff" stroke="#000000" points="28.478,-110.5 28.478,-128.5 95.0786,-128.5 95.0786,-110.5 28.478,-110.5"/>
<text text-anchor="middle" x="61.7783" y="-116.5" font-family="Helvetica,sans-Serif" font-size="10.00" fill="#000000">netflow.hpp</text>
</a>
</g>
</g>
<!-- Node0&#45;&gt;Node19 -->
<g id="edge40" class="edge">
<title>Node0&#45;&gt;Node19</title>
<path fill="none" stroke="#191970" d="M704.6106,-392.2583C546.8352,-383.9911 38.7783,-352.1201 38.7783,-284.5 38.7783,-284.5 38.7783,-284.5 38.7783,-229.5 38.7783,-196.9538 48.5445,-160.1156 55.3491,-138.3987"/>
<polygon fill="#191970" stroke="#191970" points="58.7129,-139.3723 58.483,-128.78 52.0573,-137.2038 58.7129,-139.3723"/>
</g>
<!-- Node21 -->
<g id="node22" class="node">
<title>Node21</title>
<g id="a_node22"><a xlink:href="debug_8hpp.xhtml" target="_top" xlink:title="Debugging functions. ">
<polygon fill="#ffffff" stroke="#000000" points="913.1431,-165.5 913.1431,-183.5 976.4136,-183.5 976.4136,-165.5 913.1431,-165.5"/>
<text text-anchor="middle" x="944.7783" y="-171.5" font-family="Helvetica,sans-Serif" font-size="10.00" fill="#000000">debug.hpp</text>
</a>
</g>
</g>
<!-- Node0&#45;&gt;Node21 -->
<g id="edge41" class="edge">
<title>Node0&#45;&gt;Node21</title>
<path fill="none" stroke="#191970" d="M772.5126,-385.4982C815.7196,-366.2114 911.2167,-316.2753 945.7783,-239 952.1368,-224.7832 951.2922,-206.9792 949.1939,-193.6804"/>
<polygon fill="#191970" stroke="#191970" points="952.6073,-192.8971 947.267,-183.7466 945.7353,-194.2301 952.6073,-192.8971"/>
</g>
<!-- Node25 -->
<g id="node26" class="node">
<title>Node25</title>
<g id="a_node26"><a xlink:href="utils_8hpp.xhtml" target="_top" xlink:title="Small useful functions header file. ">
<polygon fill="#ffffff" stroke="#000000" points="1147.1553,-330.5 1147.1553,-348.5 1200.4014,-348.5 1200.4014,-330.5 1147.1553,-330.5"/>
<text text-anchor="middle" x="1173.7783" y="-336.5" font-family="Helvetica,sans-Serif" font-size="10.00" fill="#000000">utils.hpp</text>
</a>
</g>
</g>
<!-- Node0&#45;&gt;Node25 -->
<g id="edge42" class="edge">
<title>Node0&#45;&gt;Node25</title>
<path fill="none" stroke="#191970" d="M797.0366,-388.741C864.8139,-380.2643 995.0772,-363.8265 1105.7783,-349 1115.8624,-347.6494 1126.7811,-346.1434 1136.8569,-344.7357"/>
<polygon fill="#191970" stroke="#191970" points="1137.565,-348.1708 1146.9816,-343.315 1136.5923,-341.2387 1137.565,-348.1708"/>
</g>
<!-- Node29 -->
<g id="node30" class="node">
<title>Node29</title>
<g id="a_node30"><a xlink:href="capturing_8hpp.xhtml" target="_top" xlink:title="Network traffic capture header file. ">
<polygon fill="#ffffff" stroke="#000000" points="613.478,-330.5 613.478,-348.5 690.0786,-348.5 690.0786,-330.5 613.478,-330.5"/>
<text text-anchor="middle" x="651.7783" y="-336.5" font-family="Helvetica,sans-Serif" font-size="10.00" fill="#000000">capturing.hpp</text>
</a>
</g>
</g>
<!-- Node0&#45;&gt;Node29 -->
<g id="edge47" class="edge">
<title>Node0&#45;&gt;Node29</title>
<path fill="none" stroke="#191970" d="M734.4305,-385.4179C718.8102,-376.7399 695.0385,-363.5334 676.9922,-353.5077"/>
<polygon fill="#191970" stroke="#191970" points="678.5918,-350.3925 668.1505,-348.5956 675.1923,-356.5117 678.5918,-350.3925"/>
</g>
<!-- Node6 -->
<g id="node7" class="node">
<title>Node6</title>
<polygon fill="#ffffff" stroke="#bfbfbf" points="230.6577,-.5 230.6577,-18.5 278.8989,-18.5 278.8989,-.5 230.6577,-.5"/>
<text text-anchor="middle" x="254.7783" y="-6.5" font-family="Helvetica,sans-Serif" font-size="10.00" fill="#000000">stdint.h</text>
</g>
<!-- Node5&#45;&gt;Node6 -->
<g id="edge6" class="edge">
<title>Node5&#45;&gt;Node6</title>
<path fill="none" stroke="#191970" d="M254.7783,-55.4179C254.7783,-48.2164 254.7783,-37.8962 254.7783,-28.8632"/>
<polygon fill="#191970" stroke="#191970" points="258.2784,-28.7794 254.7783,-18.7795 251.2784,-28.7795 258.2784,-28.7794"/>
</g>
<!-- Node8 -->
<g id="node9" class="node">
<title>Node8</title>
<polygon fill="#ffffff" stroke="#bfbfbf" points="1049.1084,-165.5 1049.1084,-183.5 1098.4483,-183.5 1098.4483,-165.5 1049.1084,-165.5"/>
<text text-anchor="middle" x="1073.7783" y="-171.5" font-family="Helvetica,sans-Serif" font-size="10.00" fill="#000000">fstream</text>
</g>
<!-- Node7&#45;&gt;Node8 -->
<g id="edge8" class="edge">
<title>Node7&#45;&gt;Node8</title>
<path fill="none" stroke="#191970" d="M1056.7977,-330.1561C1059.6565,-303.9504 1067.7941,-229.3557 1071.6726,-193.8021"/>
<polygon fill="#191970" stroke="#191970" points="1075.165,-194.062 1072.7702,-183.7414 1068.2063,-193.3028 1075.165,-194.062"/>
</g>
<!-- Node9&#45;&gt;Node2 -->
<g id="edge15" class="edge">
<title>Node9&#45;&gt;Node2</title>
<path fill="none" stroke="#191970" d="M604.9488,-278.0747C649.6213,-270.4847 725.0143,-256.8807 798.5412,-239.1304"/>
<polygon fill="#191970" stroke="#191970" points="799.5468,-242.4878 808.4306,-236.7147 797.8857,-235.6877 799.5468,-242.4878"/>
</g>
<!-- Node9&#45;&gt;Node3 -->
<g id="edge13" class="edge">
<title>Node9&#45;&gt;Node3</title>
<path fill="none" stroke="#191970" d="M605.1713,-280.3402C660.6273,-274.0804 764.9675,-260.8265 862.5088,-239.0194"/>
<polygon fill="#191970" stroke="#191970" points="863.5561,-242.3708 872.5322,-236.7423 862.0053,-235.5447 863.5561,-242.3708"/>
</g>
<!-- Node9&#45;&gt;Node4 -->
<g id="edge11" class="edge">
<title>Node9&#45;&gt;Node4</title>
<path fill="none" stroke="#191970" d="M599.1345,-275.4179C636.828,-265.1548 697.7846,-248.5577 735.1679,-238.3791"/>
<polygon fill="#191970" stroke="#191970" points="736.3187,-241.6932 745.0479,-235.689 734.4797,-234.9391 736.3187,-241.6932"/>
</g>
<!-- Node10 -->
<g id="node11" class="node">
<title>Node10</title>
<polygon fill="#ffffff" stroke="#bfbfbf" points="432.1626,-110.5 432.1626,-128.5 475.3941,-128.5 475.3941,-110.5 432.1626,-110.5"/>
<text text-anchor="middle" x="453.7783" y="-116.5" font-family="Helvetica,sans-Serif" font-size="10.00" fill="#000000">vector</text>
</g>
<!-- Node9&#45;&gt;Node10 -->
<g id="edge10" class="edge">
<title>Node9&#45;&gt;Node10</title>
<path fill="none" stroke="#191970" d="M564.0983,-275.1013C561.2417,-261.4992 554.2784,-236.1876 539.7783,-220 517.2238,-194.8205 494.0895,-210.2403 472.7783,-184 462.3256,-171.1297 457.623,-152.6865 455.5075,-138.8159"/>
<polygon fill="#191970" stroke="#191970" points="458.9797,-138.374 454.3052,-128.8661 452.0302,-139.2138 458.9797,-138.374"/>
</g>
<!-- Node11 -->
<g id="node12" class="node">
<title>Node11</title>
<polygon fill="#ffffff" stroke="#bfbfbf" points="888.1626,-110.5 888.1626,-128.5 931.3941,-128.5 931.3941,-110.5 888.1626,-110.5"/>
<text text-anchor="middle" x="909.7783" y="-116.5" font-family="Helvetica,sans-Serif" font-size="10.00" fill="#000000">mutex</text>
</g>
<!-- Node9&#45;&gt;Node11 -->
<g id="edge12" class="edge">
<title>Node9&#45;&gt;Node11</title>
<path fill="none" stroke="#191970" d="M597.0642,-275.4741C624.2053,-267.2319 664.2858,-254.062 697.7783,-239 735.3479,-222.1045 838.6883,-161.6125 885.8033,-133.7436"/>
<polygon fill="#191970" stroke="#191970" points="887.6204,-136.7352 894.4405,-128.6273 884.0528,-130.7125 887.6204,-136.7352"/>
</g>
<!-- Node12 -->
<g id="node13" class="node">
<title>Node12</title>
<polygon fill="#ffffff" stroke="#bfbfbf" points="340.4732,-220.5 340.4732,-238.5 437.0835,-238.5 437.0835,-220.5 340.4732,-220.5"/>
<text text-anchor="middle" x="388.7783" y="-226.5" font-family="Helvetica,sans-Serif" font-size="10.00" fill="#000000">condition_variable</text>
</g>
<!-- Node9&#45;&gt;Node12 -->
<g id="edge14" class="edge">
<title>Node9&#45;&gt;Node12</title>
<path fill="none" stroke="#191970" d="M536.5504,-275.4179C506.7407,-266.155 460.3264,-251.7325 427.4802,-241.526"/>
<polygon fill="#191970" stroke="#191970" points="428.3437,-238.1293 417.7555,-238.5042 426.2665,-244.814 428.3437,-238.1293"/>
</g>
<!-- Node13 -->
<g id="node14" class="node">
<title>Node13</title>
<g id="a_node14"><a xlink:href="pcapng__blocks_8hpp.xhtml" target="_top" xlink:title="Pcap&#45;ng block structures. ">
<polygon fill="#ffffff" stroke="#000000" points="586.69,-220.5 586.69,-238.5 688.8667,-238.5 688.8667,-220.5 586.69,-220.5"/>
<text text-anchor="middle" x="637.7783" y="-226.5" font-family="Helvetica,sans-Serif" font-size="10.00" fill="#000000">pcapng_blocks.hpp</text>
</a>
</g>
</g>
<!-- Node9&#45;&gt;Node13 -->
<g id="edge16" class="edge">
<title>Node9&#45;&gt;Node13</title>
<path fill="none" stroke="#191970" d="M577.6677,-275.4179C588.4419,-267.1876 604.5485,-254.8839 617.378,-245.0836"/>
<polygon fill="#191970" stroke="#191970" points="619.8086,-247.6313 625.6307,-238.7795 615.5593,-242.0685 619.8086,-247.6313"/>
</g>
<!-- Node23 -->
<g id="node24" class="node">
<title>Node23</title>
<g id="a_node24"><a xlink:href="namon_8hpp.xhtml" target="_top" xlink:title="Determining applications header file. ">
<polygon fill="#ffffff" stroke="#000000" points="180.7588,-220.5 180.7588,-238.5 246.7979,-238.5 246.7979,-220.5 180.7588,-220.5"/>
<text text-anchor="middle" x="213.7783" y="-226.5" font-family="Helvetica,sans-Serif" font-size="10.00" fill="#000000">namon.hpp</text>
</a>
</g>
</g>
<!-- Node9&#45;&gt;Node23 -->
<g id="edge35" class="edge">
<title>Node9&#45;&gt;Node23</title>
<path fill="none" stroke="#191970" d="M526.4241,-278.3509C459.9594,-267.9658 325.9832,-247.032 256.998,-236.2531"/>
<polygon fill="#191970" stroke="#191970" points="257.3262,-232.762 246.9057,-234.6762 256.2455,-239.678 257.3262,-232.762"/>
</g>
<!-- Node24 -->
<g id="node25" class="node">
<title>Node24</title>
<g id="a_node25"><a xlink:href="ring_buffer_8tpp.xhtml" target="_top" xlink:title="Ring Buffer template functions. ">
<polygon fill="#ffffff" stroke="#000000" points="455.1226,-220.5 455.1226,-238.5 530.4341,-238.5 530.4341,-220.5 455.1226,-220.5"/>
<text text-anchor="middle" x="492.7783" y="-226.5" font-family="Helvetica,sans-Serif" font-size="10.00" fill="#000000">ringBuffer.tpp</text>
</a>
</g>
</g>
<!-- Node9&#45;&gt;Node24 -->
<g id="edge38" class="edge">
<title>Node9&#45;&gt;Node24</title>
<path fill="none" stroke="#191970" d="M553.7239,-275.4179C542.695,-267.1084 526.1551,-254.6469 513.0877,-244.8015"/>
<polygon fill="#191970" stroke="#191970" points="515.1877,-242.0016 505.0947,-238.7795 510.9754,-247.5924 515.1877,-242.0016"/>
</g>
<!-- Node13&#45;&gt;Node1 -->
<g id="edge21" class="edge">
<title>Node13&#45;&gt;Node1</title>
<path fill="none" stroke="#191970" d="M614.9904,-220.4179C590.9308,-210.8289 552.9977,-195.7106 527.2885,-185.4642"/>
<polygon fill="#191970" stroke="#191970" points="528.3427,-182.1167 517.7575,-181.6656 525.7511,-188.6193 528.3427,-182.1167"/>
</g>
<!-- Node13&#45;&gt;Node5 -->
<g id="edge22" class="edge">
<title>Node13&#45;&gt;Node5</title>
<path fill="none" stroke="#191970" d="M629.5125,-220.4711C608.0933,-197.7046 548.0344,-137.7964 484.7783,-110 454.8091,-96.8307 371.706,-82.2486 314.0666,-73.2275"/>
<polygon fill="#191970" stroke="#191970" points="314.3948,-69.7367 303.9768,-71.6643 313.323,-76.6542 314.3948,-69.7367"/>
</g>
<!-- Node13&#45;&gt;Node8 -->
<g id="edge18" class="edge">
<title>Node13&#45;&gt;Node8</title>
<path fill="none" stroke="#191970" d="M689.0752,-223.0291C778.7267,-211.7198 961.6791,-188.641 1038.5351,-178.9458"/>
<polygon fill="#191970" stroke="#191970" points="1039.1717,-182.3933 1048.655,-177.6692 1038.2955,-175.4484 1039.1717,-182.3933"/>
</g>
<!-- Node13&#45;&gt;Node10 -->
<g id="edge20" class="edge">
<title>Node13&#45;&gt;Node10</title>
<path fill="none" stroke="#191970" d="M622.7208,-220.4982C590.913,-201.4827 516.6406,-157.0807 478.0412,-134.005"/>
<polygon fill="#191970" stroke="#191970" points="479.423,-130.7533 469.0439,-128.6261 475.8311,-136.7615 479.423,-130.7533"/>
</g>
<!-- Node14 -->
<g id="node15" class="node">
<title>Node14</title>
<polygon fill="#ffffff" stroke="#bfbfbf" points="611.3276,-165.5 611.3276,-183.5 656.229,-183.5 656.229,-165.5 611.3276,-165.5"/>
<text text-anchor="middle" x="633.7783" y="-171.5" font-family="Helvetica,sans-Serif" font-size="10.00" fill="#000000">cstdint</text>
</g>
<!-- Node13&#45;&gt;Node14 -->
<g id="edge17" class="edge">
<title>Node13&#45;&gt;Node14</title>
<path fill="none" stroke="#191970" d="M637.1178,-220.4179C636.5941,-213.2164 635.8435,-202.8962 635.1866,-193.8632"/>
<polygon fill="#191970" stroke="#191970" points="638.6694,-193.4992 634.4532,-183.7795 631.6879,-194.007 638.6694,-193.4992"/>
</g>
<!-- Node15 -->
<g id="node16" class="node">
<title>Node15</title>
<polygon fill="#ffffff" stroke="#bfbfbf" points="348.5518,-55.5 348.5518,-73.5 389.0049,-73.5 389.0049,-55.5 348.5518,-55.5"/>
<text text-anchor="middle" x="368.7783" y="-61.5" font-family="Helvetica,sans-Serif" font-size="10.00" fill="#000000">string</text>
</g>
<!-- Node13&#45;&gt;Node15 -->
<g id="edge19" class="edge">
<title>Node13&#45;&gt;Node15</title>
<path fill="none" stroke="#191970" d="M646.7164,-220.1989C657.7251,-207.558 673.912,-184.3147 664.7783,-165 648.3086,-130.1719 632.6061,-126.4705 597.7783,-110 531.4578,-78.6362 444.4504,-68.8777 399.1567,-65.8517"/>
<polygon fill="#191970" stroke="#191970" points="399.292,-62.3536 389.0997,-65.2461 398.8712,-69.341 399.292,-62.3536"/>
</g>
<!-- Node13&#45;&gt;Node16 -->
<g id="edge23" class="edge">
<title>Node13&#45;&gt;Node16</title>
<path fill="none" stroke="#191970" d="M586.634,-222.8657C501.5795,-211.8327 332.7254,-189.9294 254.8622,-179.8293"/>
<polygon fill="#191970" stroke="#191970" points="255.3078,-176.3578 244.9406,-178.5423 254.4073,-183.2997 255.3078,-176.3578"/>
</g>
<!-- Node13&#45;&gt;Node21 -->
<g id="edge32" class="edge">
<title>Node13&#45;&gt;Node21</title>
<path fill="none" stroke="#191970" d="M688.1294,-220.4795C748.0218,-209.7495 846.908,-192.0338 902.8361,-182.0141"/>
<polygon fill="#191970" stroke="#191970" points="903.5341,-185.4448 912.7601,-180.2362 902.2996,-178.5545 903.5341,-185.4448"/>
</g>
<!-- Node16&#45;&gt;Node10 -->
<g id="edge25" class="edge">
<title>Node16&#45;&gt;Node10</title>
<path fill="none" stroke="#191970" d="M245.1541,-167.3097C291.0087,-156.8014 375.8716,-137.3536 421.9701,-126.7894"/>
<polygon fill="#191970" stroke="#191970" points="423.0347,-130.1362 432.0002,-124.4908 421.471,-123.3131 423.0347,-130.1362"/>
</g>
<!-- Node16&#45;&gt;Node15 -->
<g id="edge24" class="edge">
<title>Node16&#45;&gt;Node15</title>
<path fill="none" stroke="#191970" d="M226.4626,-165.4982C253.0302,-146.6439 314.7658,-102.8315 347.5064,-79.5962"/>
<polygon fill="#191970" stroke="#191970" points="349.7893,-82.2679 355.9188,-73.6261 345.738,-76.5594 349.7893,-82.2679"/>
</g>
<!-- Node17 -->
<g id="node18" class="node">
<title>Node17</title>
<polygon fill="#ffffff" stroke="#bfbfbf" points="113.4756,-110.5 113.4756,-128.5 200.0811,-128.5 200.0811,-110.5 113.4756,-110.5"/>
<text text-anchor="middle" x="156.7783" y="-116.5" font-family="Helvetica,sans-Serif" font-size="10.00" fill="#000000">unordered_map</text>
</g>
<!-- Node16&#45;&gt;Node17 -->
<g id="edge26" class="edge">
<title>Node16&#45;&gt;Node17</title>
<path fill="none" stroke="#191970" d="M204.3659,-165.4179C196.0824,-157.425 183.8174,-145.5903 173.8138,-135.9377"/>
<polygon fill="#191970" stroke="#191970" points="176.0217,-133.2045 166.3952,-128.7795 171.1611,-138.2419 176.0217,-133.2045"/>
</g>
<!-- Node18 -->
<g id="node19" class="node">
<title>Node18</title>
<polygon fill="#ffffff" stroke="#bfbfbf" points="218.4902,-110.5 218.4902,-128.5 265.0664,-128.5 265.0664,-110.5 218.4902,-110.5"/>
<text text-anchor="middle" x="241.7783" y="-116.5" font-family="Helvetica,sans-Serif" font-size="10.00" fill="#000000">chrono</text>
</g>
<!-- Node16&#45;&gt;Node18 -->
<g id="edge27" class="edge">
<title>Node16&#45;&gt;Node18</title>
<path fill="none" stroke="#191970" d="M218.402,-165.4179C222.189,-157.9789 227.6702,-147.2123 232.3733,-137.9742"/>
<polygon fill="#191970" stroke="#191970" points="235.6364,-139.279 237.0542,-128.7795 229.3983,-136.1032 235.6364,-139.279"/>
</g>
<!-- Node16&#45;&gt;Node19 -->
<g id="edge28" class="edge">
<title>Node16&#45;&gt;Node19</title>
<path fill="none" stroke="#191970" d="M188.6786,-165.4179C163.4104,-156.2748 124.2492,-142.1046 96.1138,-131.924"/>
<polygon fill="#191970" stroke="#191970" points="97.2569,-128.6156 86.6627,-128.5042 94.8751,-135.198 97.2569,-128.6156"/>
</g>
<!-- Node19&#45;&gt;Node5 -->
<g id="edge31" class="edge">
<title>Node19&#45;&gt;Node5</title>
<path fill="none" stroke="#191970" d="M93.6484,-110.4179C126.4329,-101.0751 177.6365,-86.4834 213.5009,-76.263"/>
<polygon fill="#191970" stroke="#191970" points="214.5239,-79.6109 223.1817,-73.5042 212.6054,-72.8789 214.5239,-79.6109"/>
</g>
<!-- Node19&#45;&gt;Node15 -->
<g id="edge29" class="edge">
<title>Node19&#45;&gt;Node15</title>
<path fill="none" stroke="#191970" d="M95.0807,-111.9813C98.3533,-111.2909 101.6276,-110.6192 104.7783,-110 127.4198,-105.5503 273.6061,-80.6567 338.1863,-69.6895"/>
<polygon fill="#191970" stroke="#191970" points="338.9046,-73.1177 348.1777,-67.9933 337.7329,-66.2165 338.9046,-73.1177"/>
</g>
<!-- Node20 -->
<g id="node21" class="node">
<title>Node20</title>
<polygon fill="#ffffff" stroke="#bfbfbf" points="39.0518,-55.5 39.0518,-73.5 84.5049,-73.5 84.5049,-55.5 39.0518,-55.5"/>
<text text-anchor="middle" x="61.7783" y="-61.5" font-family="Helvetica,sans-Serif" font-size="10.00" fill="#000000">cstring</text>
</g>
<!-- Node19&#45;&gt;Node20 -->
<g id="edge30" class="edge">
<title>Node19&#45;&gt;Node20</title>
<path fill="none" stroke="#191970" d="M61.7783,-110.4179C61.7783,-103.2164 61.7783,-92.8962 61.7783,-83.8632"/>
<polygon fill="#191970" stroke="#191970" points="65.2784,-83.7794 61.7783,-73.7795 58.2784,-83.7795 65.2784,-83.7794"/>
</g>
<!-- Node21&#45;&gt;Node11 -->
<g id="edge34" class="edge">
<title>Node21&#45;&gt;Node11</title>
<path fill="none" stroke="#191970" d="M938.9988,-165.4179C934.1642,-157.8207 927.1209,-146.7527 921.1607,-137.3866"/>
<polygon fill="#191970" stroke="#191970" points="924.0051,-135.337 915.6834,-128.7795 918.0994,-139.0952 924.0051,-135.337"/>
</g>
<!-- Node22 -->
<g id="node23" class="node">
<title>Node22</title>
<polygon fill="#ffffff" stroke="#bfbfbf" points="953.606,-110.5 953.606,-128.5 1007.9507,-128.5 1007.9507,-110.5 953.606,-110.5"/>
<text text-anchor="middle" x="980.7783" y="-116.5" font-family="Helvetica,sans-Serif" font-size="10.00" fill="#000000">iostream</text>
</g>
<!-- Node21&#45;&gt;Node22 -->
<g id="edge33" class="edge">
<title>Node21&#45;&gt;Node22</title>
<path fill="none" stroke="#191970" d="M950.723,-165.4179C955.6957,-157.8207 962.9402,-146.7527 969.0707,-137.3866"/>
<polygon fill="#191970" stroke="#191970" points="972.1563,-139.0633 974.7045,-128.7795 966.2994,-135.2297 972.1563,-139.0633"/>
</g>
<!-- Node23&#45;&gt;Node16 -->
<g id="edge37" class="edge">
<title>Node23&#45;&gt;Node16</title>
<path fill="none" stroke="#191970" d="M213.7783,-220.4179C213.7783,-213.2164 213.7783,-202.8962 213.7783,-193.8632"/>
<polygon fill="#191970" stroke="#191970" points="217.2784,-193.7794 213.7783,-183.7795 210.2784,-193.7795 217.2784,-193.7794"/>
</g>
<!-- Node23&#45;&gt;Node19 -->
<g id="edge36" class="edge">
<title>Node23&#45;&gt;Node19</title>
<path fill="none" stroke="#191970" d="M201.3395,-220.4982C175.2862,-201.6439 114.7455,-157.8315 82.6385,-134.5962"/>
<polygon fill="#191970" stroke="#191970" points="84.5421,-131.6535 74.389,-128.6261 80.4382,-137.3243 84.5421,-131.6535"/>
</g>
<!-- Node25&#45;&gt;Node15 -->
<g id="edge44" class="edge">
<title>Node25&#45;&gt;Node15</title>
<path fill="none" stroke="#191970" d="M1200.4319,-335.3421C1225.6177,-330.0365 1262.7329,-318.4305 1284.7783,-294 1304.7991,-271.8132 1303.7783,-259.3846 1303.7783,-229.5 1303.7783,-229.5 1303.7783,-229.5 1303.7783,-174.5 1303.7783,-81.2315 560.462,-66.8346 399.3445,-64.8095"/>
<polygon fill="#191970" stroke="#191970" points="399.2176,-61.3079 389.1767,-64.6887 399.1344,-68.3074 399.2176,-61.3079"/>
</g>
<!-- Node26 -->
<g id="node27" class="node">
<title>Node26</title>
<polygon fill="#ffffff" stroke="#bfbfbf" points="1217.3745,-275.5 1217.3745,-293.5 1276.1821,-293.5 1276.1821,-275.5 1217.3745,-275.5"/>
<text text-anchor="middle" x="1246.7783" y="-281.5" font-family="Helvetica,sans-Serif" font-size="10.00" fill="#000000">exception</text>
</g>
<!-- Node25&#45;&gt;Node26 -->
<g id="edge43" class="edge">
<title>Node25&#45;&gt;Node26</title>
<path fill="none" stroke="#191970" d="M1185.8328,-330.4179C1196.8617,-322.1084 1213.4015,-309.6469 1226.469,-299.8015"/>
<polygon fill="#191970" stroke="#191970" points="1228.5812,-302.5924 1234.462,-293.7795 1224.369,-297.0016 1228.5812,-302.5924"/>
</g>
<!-- Node27 -->
<g id="node28" class="node">
<title>Node27</title>
<polygon fill="#ffffff" stroke="#bfbfbf" points="1086.606,-275.5 1086.606,-293.5 1130.9507,-293.5 1130.9507,-275.5 1086.606,-275.5"/>
<text text-anchor="middle" x="1108.7783" y="-281.5" font-family="Helvetica,sans-Serif" font-size="10.00" fill="#000000">cerrno</text>
</g>
<!-- Node25&#45;&gt;Node27 -->
<g id="edge45" class="edge">
<title>Node25&#45;&gt;Node27</title>
<path fill="none" stroke="#191970" d="M1163.0449,-330.4179C1153.4117,-322.2667 1139.0567,-310.1201 1127.5302,-300.3669"/>
<polygon fill="#191970" stroke="#191970" points="1129.6397,-297.5671 1119.745,-293.7795 1125.118,-302.9108 1129.6397,-297.5671"/>
</g>
<!-- Node28 -->
<g id="node29" class="node">
<title>Node28</title>
<g id="a_node29"><a xlink:href="utils_8tpp.xhtml" target="_top" xlink:title="Small useful templated functions. ">
<polygon fill="#ffffff" stroke="#000000" points="1148.5469,-275.5 1148.5469,-293.5 1199.0098,-293.5 1199.0098,-275.5 1148.5469,-275.5"/>
<text text-anchor="middle" x="1173.7783" y="-281.5" font-family="Helvetica,sans-Serif" font-size="10.00" fill="#000000">utils.tpp</text>
</a>
</g>
</g>
<!-- Node25&#45;&gt;Node28 -->
<g id="edge46" class="edge">
<title>Node25&#45;&gt;Node28</title>
<path fill="none" stroke="#191970" d="M1173.7783,-330.4179C1173.7783,-323.2164 1173.7783,-312.8962 1173.7783,-303.8632"/>
<polygon fill="#191970" stroke="#191970" points="1177.2784,-303.7794 1173.7783,-293.7795 1170.2784,-303.7795 1177.2784,-303.7794"/>
</g>
<!-- Node29&#45;&gt;Node4 -->
<g id="edge50" class="edge">
<title>Node29&#45;&gt;Node4</title>
<path fill="none" stroke="#191970" d="M655.4539,-330.1856C661.1485,-316.6885 673.2004,-291.5064 689.7783,-275 703.2103,-261.626 721.3533,-250.7357 736.7611,-242.9662"/>
<polygon fill="#191970" stroke="#191970" points="738.4508,-246.037 745.9347,-238.5376 735.4075,-239.7332 738.4508,-246.037"/>
</g>
<!-- Node29&#45;&gt;Node5 -->
<g id="edge51" class="edge">
<title>Node29&#45;&gt;Node5</title>
<path fill="none" stroke="#191970" d="M613.3096,-337.4433C547.7034,-331.9743 413.3725,-311.9864 331.7783,-239 328.6366,-236.1897 281.7554,-127.3981 262.721,-83.04"/>
<polygon fill="#191970" stroke="#191970" points="265.8745,-81.5132 258.7169,-73.7018 259.441,-84.2719 265.8745,-81.5132"/>
</g>
<!-- Node29&#45;&gt;Node9 -->
<g id="edge53" class="edge">
<title>Node29&#45;&gt;Node9</title>
<path fill="none" stroke="#191970" d="M637.5772,-330.4179C624.257,-321.8992 604.1133,-309.0166 588.5491,-299.0627"/>
<polygon fill="#191970" stroke="#191970" points="590.3108,-296.0348 580.0006,-293.5956 586.5394,-301.932 590.3108,-296.0348"/>
</g>
<!-- Node29&#45;&gt;Node13 -->
<g id="edge54" class="edge">
<title>Node29&#45;&gt;Node13</title>
<path fill="none" stroke="#191970" d="M650.6327,-330.4982C648.3663,-312.6913 643.2666,-272.6225 640.2158,-248.6515"/>
<polygon fill="#191970" stroke="#191970" points="643.6745,-248.1042 638.9398,-238.6261 636.7305,-248.988 643.6745,-248.1042"/>
</g>
<!-- Node29&#45;&gt;Node16 -->
<g id="edge55" class="edge">
<title>Node29&#45;&gt;Node16</title>
<path fill="none" stroke="#191970" d="M613.3193,-337.8212C508.7527,-332.3343 223.6143,-310.9185 171.7783,-239 160.0016,-222.6607 176.6522,-203.2024 192.3379,-189.962"/>
<polygon fill="#191970" stroke="#191970" points="194.6336,-192.6086 200.2969,-183.6544 190.2858,-187.1225 194.6336,-192.6086"/>
</g>
<!-- Node29&#45;&gt;Node19 -->
<g id="edge52" class="edge">
<title>Node29&#45;&gt;Node19</title>
<path fill="none" stroke="#191970" d="M613.3371,-338.6086C521.3204,-335.9721 290.9152,-326.2517 221.7783,-294 148.263,-259.7058 93.0027,-174.5733 71.5449,-137.3733"/>
<polygon fill="#191970" stroke="#191970" points="74.571,-135.614 66.6132,-128.6193 68.4722,-139.0498 74.571,-135.614"/>
</g>
<!-- Node29&#45;&gt;Node21 -->
<g id="edge56" class="edge">
<title>Node29&#45;&gt;Node21</title>
<path fill="none" stroke="#191970" d="M690.4466,-336.1504C749.6076,-328.945 862.3811,-306.6636 925.7783,-239 937.2406,-226.7663 941.822,-207.9606 943.6353,-193.8061"/>
<polygon fill="#191970" stroke="#191970" points="947.1373,-193.9464 944.5748,-183.6661 940.1671,-193.3006 947.1373,-193.9464"/>
</g>
<!-- Node29&#45;&gt;Node22 -->
<g id="edge48" class="edge">
<title>Node29&#45;&gt;Node22</title>
<path fill="none" stroke="#191970" d="M690.3096,-337.3444C736.7451,-333.5106 816.2014,-322.9429 877.7783,-294 939.7841,-264.8555 964.5909,-249.1553 985.7783,-184 990.6084,-169.1468 988.7155,-151.3978 985.9785,-138.282"/>
<polygon fill="#191970" stroke="#191970" points="989.3691,-137.4124 983.6098,-128.5197 982.5665,-139.063 989.3691,-137.4124"/>
</g>
<!-- Node30 -->
<g id="node31" class="node">
<title>Node30</title>
<polygon fill="#ffffff" stroke="#bfbfbf" points="698.7686,-275.5 698.7686,-293.5 764.7881,-293.5 764.7881,-275.5 698.7686,-275.5"/>
<text text-anchor="middle" x="731.7783" y="-281.5" font-family="Helvetica,sans-Serif" font-size="10.00" fill="#000000">sys/types.h</text>
</g>
<!-- Node29&#45;&gt;Node30 -->
<g id="edge49" class="edge">
<title>Node29&#45;&gt;Node30</title>
<path fill="none" stroke="#191970" d="M664.9887,-330.4179C677.2638,-321.9788 695.7682,-309.257 710.1891,-299.3426"/>
<polygon fill="#191970" stroke="#191970" points="712.2908,-302.1451 718.5483,-293.5956 708.325,-296.3768 712.2908,-302.1451"/>
</g>
</g>
</svg>
        <g id="navigator" transform="translate(0 0)" fill="#404254">
                <rect fill="#f2f5e9" fill-opacity="0.5" stroke="#606060" stroke-width=".5" x="0" y="0" width="60" height="60"/>
                <use id="zoomplus" xlink:href="#zoomPlus" x="17" y="9" onmousedown="handleZoom(evt,'in')"/>
                <use id="zoomminus" xlink:href="#zoomMin" x="42" y="9" onmousedown="handleZoom(evt,'out')"/>
                <use id="reset" xlink:href="#resetDef" x="30" y="36" onmousedown="handleReset()"/>
                <g id="arrowUp" xlink:href="#dirArrow" transform="translate(30 24)" onmousedown="handlePan(0,-1)">
                  <use xlink:href="#rim" fill="#404040">
                        <set attributeName="fill" to="#808080" begin="arrowUp.mouseover" end="arrowUp.mouseout"/>
                  </use>
                  <path fill="none" stroke="white" stroke-width="1.5" d="M0,-3.0v7 M-2.5,-0.5L0,-3.0L2.5,-0.5"/>
                </g>
                <g id="arrowRight" xlink:href="#dirArrow" transform="rotate(90) translate(36 -43)" onmousedown="handlePan(1,0)">
                  <use xlink:href="#rim" fill="#404040">
                        <set attributeName="fill" to="#808080" begin="arrowRight.mouseover" end="arrowRight.mouseout"/>
                  </use>
                  <path fill="none" stroke="white" stroke-width="1.5" d="M0,-3.0v7 M-2.5,-0.5L0,-3.0L2.5,-0.5"/>
                </g>
                <g id="arrowDown" xlink:href="#dirArrow" transform="rotate(180) translate(-30 -48)" onmousedown="handlePan(0,1)">
                  <use xlink:href="#rim" fill="#404040">
                        <set attributeName="fill" to="#808080" begin="arrowDown.mouseover" end="arrowDown.mouseout"/>
                  </use>
                  <path fill="none" stroke="white" stroke-width="1.5" d="M0,-3.0v7 M-2.5,-0.5L0,-3.0L2.5,-0.5"/>
                </g>
                <g id="arrowLeft" xlink:href="#dirArrow" transform="rotate(270) translate(-36 17)" onmousedown="handlePan(-1,0)">
                  <use xlink:href="#rim" fill="#404040">
                        <set attributeName="fill" to="#808080" begin="arrowLeft.mouseover" end="arrowLeft.mouseout"/>
                  </use>
                  <path fill="none" stroke="white" stroke-width="1.5" d="M0,-3.0v7 M-2.5,-0.5L0,-3.0L2.5,-0.5"/>
                </g>
        </g>
        <svg viewBox="0 0 15 15" width="100%" height="30px" preserveAspectRatio="xMaxYMin meet">
         <g id="arrow_out" transform="scale(0.3 0.3)">
          <a xlink:href="capturing_8cpp__incl_org.svg" target="_base">
           <rect id="button" ry="5" rx="5" y="6" x="6" height="38" width="38"
                fill="#f2f5e9" fill-opacity="0.5" stroke="#606060" stroke-width="1.0"/>
           <path id="arrow"
             d="M 11.500037,31.436501 C 11.940474,20.09759 22.043105,11.32322 32.158766,21.979434 L 37.068811,17.246167 C 37.068811,17.246167 37.088388,32 37.088388,32 L 22.160133,31.978069 C 22.160133,31.978069 26.997745,27.140456 26.997745,27.140456 C 18.528582,18.264221 13.291696,25.230495 11.500037,31.436501 z"
             style="fill:#404040;"/>
          </a>
         </g>
        </svg>
</svg>
