<?xml version="1.0" encoding="UTF-8" standalone="no"?>
<!DOCTYPE svg PUBLIC "-//W3C//DTD SVG 1.1//EN"
 "http://www.w3.org/Graphics/SVG/1.1/DTD/svg11.dtd">
<!-- Generated by graphviz version 2.40.1 (20161225.0304)
 -->
<!-- Title: startCapture Pages: 1 -->
<!--zoomable 121 -->
<svg id="main" version="1.1" xmlns="http://www.w3.org/2000/svg" xmlns:xlink="http://www.w3.org/1999/xlink" xml:space="preserve" onload="init(evt)">
<style type="text/css"><![CDATA[
.edge:hover path { stroke: red; }
.edge:hover polygon { stroke: red; fill: red; }
]]></style>
<script type="text/javascript"><![CDATA[
var edges = document.getElementsByTagName('g');
if (edges && edges.length) {
  for (var i=0;i<edges.length;i++) {
    if (edges[i].id.substr(0,4)=='edge') {
      edges[i].setAttribute('class','edge');
    }
  }
}
]]></script>
        <defs>
                <circle id="rim" cx="0" cy="0" r="7"/>
                <circle id="rim2" cx="0" cy="0" r="3.5"/>
                <g id="zoomPlus">
                        <use xlink:href="#rim" fill="#404040">
                                <set attributeName="fill" to="#808080" begin="zoomplus.mouseover" end="zoomplus.mouseout"/>
                        </use>
                        <path d="M-4,0h8M0,-4v8" fill="none" stroke="white" stroke-width="1.5" pointer-events="none"/>
                </g>
                <g id="zoomMin">
                        <use xlink:href="#rim" fill="#404040">
                                <set attributeName="fill" to="#808080" begin="zoomminus.mouseover" end="zoomminus.mouseout"/>
                        </use>
                        <path d="M-4,0h8" fill="none" stroke="white" stroke-width="1.5" pointer-events="none"/>
                </g>
                <g id="dirArrow">
                        <path fill="none" stroke="white" stroke-width="1.5" d="M0,-3.0v7 M-2.5,-0.5L0,-3.0L2.5,-0.5"/>
                </g>
               <g id="resetDef">
                       <use xlink:href="#rim2" fill="#404040">
                               <set attributeName="fill" to="#808080" begin="reset.mouseover" end="reset.mouseout"/>
                       </use>
               </g>
        </defs>

<script type="text/javascript">
var viewWidth = 597;
var viewHeight = 121;
var sectionId = 'dynsection-7';
</script>
<script xlink:href="svgpan.js"/>
<svg id="graph" class="graph">
<g id="viewport">
<title>startCapture</title>
<polygon fill="#ffffff" stroke="transparent" points="-4,4 -4,-117 593.0049,-117 593.0049,4 -4,4"/>
<!-- Node23 -->
<g id="node1" class="node">
<title>Node23</title>
<polygon fill="#bfbfbf" stroke="#000000" points="0,-56.5 0,-74.5 71.0244,-74.5 71.0244,-56.5 0,-56.5"/>
<text text-anchor="middle" x="35.5122" y="-62.5" font-family="Helvetica,sans-Serif" font-size="10.00" fill="#000000">startCapture</text>
</g>
<!-- Node24 -->
<g id="node2" class="node">
<title>Node24</title>
<g id="a_node2"><a xlink:href="capturing_8cpp.xhtml#a8ee3282bc313e547dbbb8d4f4010db61" target="_top" xlink:title="Signal handler function. ">
<polygon fill="#ffffff" stroke="#000000" points="258.5068,-94.5 258.5068,-112.5 335.6543,-112.5 335.6543,-94.5 258.5068,-94.5"/>
<text text-anchor="middle" x="297.0806" y="-100.5" font-family="Helvetica,sans-Serif" font-size="10.00" fill="#000000">signalHandler</text>
</a>
</g>
</g>
<!-- Node23&#45;&gt;Node24 -->
<g id="edge1" class="edge">
<title>Node23&#45;&gt;Node24</title>
<path fill="none" stroke="#191970" d="M71.0747,-72.9549C82.5229,-75.2225 95.2834,-77.6116 107.0244,-79.5 154.7468,-87.1754 209.5393,-93.8712 247.9932,-98.2258"/>
<polygon fill="#191970" stroke="#191970" points="248.0587,-101.755 258.3864,-99.3908 248.8386,-94.7986 248.0587,-101.755"/>
</g>
<!-- Node25 -->
<g id="node3" class="node">
<title>Node25</title>
<g id="a_node3"><a xlink:href="debug_8hpp.xhtml#a9340c95e0607709d793dc427c8b630e8" target="_top" xlink:title="Function that prints log messages. ">
<polygon fill="#ffffff" stroke="#000000" points="388.5146,-56.5 388.5146,-74.5 450.4668,-74.5 450.4668,-56.5 388.5146,-56.5"/>
<text text-anchor="middle" x="419.4907" y="-62.5" font-family="Helvetica,sans-Serif" font-size="10.00" fill="#000000">TOOL::log</text>
</a>
</g>
</g>
<!-- Node23&#45;&gt;Node25 -->
<g id="edge11" class="edge">
<title>Node23&#45;&gt;Node25</title>
<path fill="none" stroke="#191970" d="M71.2912,-65.5C142.6834,-65.5 302.4525,-65.5 378.1722,-65.5"/>
<polygon fill="#191970" stroke="#191970" points="378.2808,-69.0001 388.2808,-65.5 378.2808,-62.0001 378.2808,-69.0001"/>
</g>
<!-- Node27 -->
<g id="node5" class="node">
<title>Node27</title>
<g id="a_node5"><a xlink:href="tool__apple_8cpp.xhtml#abffa8d5a00da5ef52e025864e1b86829" target="_top" xlink:title="Sets mac address of g_dev interface into g_devMac. ">
<polygon fill="#ffffff" stroke="#000000" points="107.0244,-.5 107.0244,-18.5 205.6465,-18.5 205.6465,-.5 107.0244,-.5"/>
<text text-anchor="middle" x="156.3354" y="-6.5" font-family="Helvetica,sans-Serif" font-size="10.00" fill="#000000">TOOL::setDevMac</text>
</a>
</g>
</g>
<!-- Node23&#45;&gt;Node27 -->
<g id="edge6" class="edge">
<title>Node23&#45;&gt;Node27</title>
<path fill="none" stroke="#191970" d="M55.1935,-56.378C74.765,-47.3068 105.0124,-33.2876 127.334,-22.9418"/>
<polygon fill="#191970" stroke="#191970" points="129.0616,-25.9988 136.6626,-18.6181 126.1179,-19.6478 129.0616,-25.9988"/>
</g>
<!-- Node24&#45;&gt;Node25 -->
<g id="edge2" class="edge">
<title>Node24&#45;&gt;Node25</title>
<path fill="none" stroke="#191970" d="M326.0901,-94.4945C342.2837,-89.4675 362.6807,-83.1356 380.2796,-77.6724"/>
<polygon fill="#191970" stroke="#191970" points="381.7525,-80.88 390.2652,-74.5725 379.6771,-74.1947 381.7525,-80.88"/>
</g>
<!-- Node25&#45;&gt;Node25 -->
<g id="edge3" class="edge">
<title>Node25&#45;&gt;Node25</title>
<path fill="none" stroke="#191970" d="M401.9085,-74.5134C392.1964,-83.322 398.0571,-93 419.4907,-93 433.5565,-93 440.9156,-88.832 441.5681,-83.477"/>
<polygon fill="#191970" stroke="#191970" points="444.6844,-81.8834 437.073,-74.5134 438.4272,-85.0214 444.6844,-81.8834"/>
</g>
<!-- Node26 -->
<g id="node4" class="node">
<title>Node26</title>
<g id="a_node4"><a xlink:href="debug_8cpp.xhtml#ad6ba0645e5c2cdd3f7533aa4f15dbe71" target="_top" xlink:title="Sets #TOOL::generalLogLevel;. ">
<polygon fill="#ffffff" stroke="#000000" points="486.4668,-56.5 486.4668,-74.5 589.0049,-74.5 589.0049,-56.5 486.4668,-56.5"/>
<text text-anchor="middle" x="537.7358" y="-62.5" font-family="Helvetica,sans-Serif" font-size="10.00" fill="#000000">TOOL::setLogLevel</text>
</a>
</g>
</g>
<!-- Node25&#45;&gt;Node26 -->
<g id="edge4" class="edge">
<title>Node25&#45;&gt;Node26</title>
<path fill="none" stroke="#191970" d="M450.5582,-65.5C458.5127,-65.5 467.3493,-65.5 476.2572,-65.5"/>
<polygon fill="#191970" stroke="#191970" points="476.3018,-69.0001 486.3017,-65.5 476.3017,-62.0001 476.3018,-69.0001"/>
</g>
<!-- Node26&#45;&gt;Node26 -->
<g id="edge5" class="edge">
<title>Node26&#45;&gt;Node26</title>
<path fill="none" stroke="#191970" d="M520.1536,-74.5134C510.4415,-83.322 516.3022,-93 537.7358,-93 551.8016,-93 559.1608,-88.832 559.8132,-83.477"/>
<polygon fill="#191970" stroke="#191970" points="562.9296,-81.8834 555.3181,-74.5134 556.6723,-85.0214 562.9296,-81.8834"/>
</g>
<!-- Node27&#45;&gt;Node27 -->
<g id="edge7" class="edge">
<title>Node27&#45;&gt;Node27</title>
<path fill="none" stroke="#191970" d="M138.4552,-18.5134C128.5785,-27.322 134.5386,-37 156.3354,-37 170.6396,-37 178.1235,-32.832 178.787,-27.477"/>
<polygon fill="#191970" stroke="#191970" points="181.8769,-25.8317 174.2157,-18.5134 175.641,-29.012 181.8769,-25.8317"/>
</g>
<!-- Node28 -->
<g id="node6" class="node">
<title>Node28</title>
<g id="a_node6"><a xlink:href="tool_8cpp.xhtml#aa97bd89bdff783d43ffca0a0335286f1" target="_top" xlink:title="Identifies application, which has opened socket which belongs to some IP, proto and port...">
<polygon fill="#ffffff" stroke="#000000" points="241.6465,-.5 241.6465,-18.5 352.5146,-18.5 352.5146,-.5 241.6465,-.5"/>
<text text-anchor="middle" x="297.0806" y="-6.5" font-family="Helvetica,sans-Serif" font-size="10.00" fill="#000000">TOOL::determineApp</text>
</a>
</g>
</g>
<!-- Node27&#45;&gt;Node28 -->
<g id="edge8" class="edge">
<title>Node27&#45;&gt;Node28</title>
<path fill="none" stroke="#191970" d="M205.9569,-9.5C214.0592,-9.5 222.5645,-9.5 230.9878,-9.5"/>
<polygon fill="#191970" stroke="#191970" points="231.1891,-13.0001 241.189,-9.5 231.189,-6.0001 231.1891,-13.0001"/>
</g>
<!-- Node28&#45;&gt;Node25 -->
<g id="edge10" class="edge">
<title>Node28&#45;&gt;Node25</title>
<path fill="none" stroke="#191970" d="M317.0203,-18.622C336.9379,-27.7339 367.7686,-41.8383 390.4121,-52.1972"/>
<polygon fill="#191970" stroke="#191970" points="389.0099,-55.4045 399.5595,-56.3819 391.922,-49.039 389.0099,-55.4045"/>
</g>
<!-- Node28&#45;&gt;Node28 -->
<g id="edge9" class="edge">
<title>Node28&#45;&gt;Node28</title>
<path fill="none" stroke="#191970" d="M278.9023,-18.5134C268.861,-27.322 274.9204,-37 297.0806,-37 311.6232,-37 319.2318,-32.832 319.9063,-27.477"/>
<polygon fill="#191970" stroke="#191970" points="322.969,-25.78 315.2588,-18.5134 316.7547,-29.0022 322.969,-25.78"/>
</g>
</g>
</svg>
        <g id="navigator" transform="translate(0 0)" fill="#404254">
                <rect fill="#f2f5e9" fill-opacity="0.5" stroke="#606060" stroke-width=".5" x="0" y="0" width="60" height="60"/>
                <use id="zoomplus" xlink:href="#zoomPlus" x="17" y="9" onmousedown="handleZoom(evt,'in')"/>
                <use id="zoomminus" xlink:href="#zoomMin" x="42" y="9" onmousedown="handleZoom(evt,'out')"/>
                <use id="reset" xlink:href="#resetDef" x="30" y="36" onmousedown="handleReset()"/>
                <g id="arrowUp" xlink:href="#dirArrow" transform="translate(30 24)" onmousedown="handlePan(0,-1)">
                  <use xlink:href="#rim" fill="#404040">
                        <set attributeName="fill" to="#808080" begin="arrowUp.mouseover" end="arrowUp.mouseout"/>
                  </use>
                  <path fill="none" stroke="white" stroke-width="1.5" d="M0,-3.0v7 M-2.5,-0.5L0,-3.0L2.5,-0.5"/>
                </g>
                <g id="arrowRight" xlink:href="#dirArrow" transform="rotate(90) translate(36 -43)" onmousedown="handlePan(1,0)">
                  <use xlink:href="#rim" fill="#404040">
                        <set attributeName="fill" to="#808080" begin="arrowRight.mouseover" end="arrowRight.mouseout"/>
                  </use>
                  <path fill="none" stroke="white" stroke-width="1.5" d="M0,-3.0v7 M-2.5,-0.5L0,-3.0L2.5,-0.5"/>
                </g>
                <g id="arrowDown" xlink:href="#dirArrow" transform="rotate(180) translate(-30 -48)" onmousedown="handlePan(0,1)">
                  <use xlink:href="#rim" fill="#404040">
                        <set attributeName="fill" to="#808080" begin="arrowDown.mouseover" end="arrowDown.mouseout"/>
                  </use>
                  <path fill="none" stroke="white" stroke-width="1.5" d="M0,-3.0v7 M-2.5,-0.5L0,-3.0L2.5,-0.5"/>
                </g>
                <g id="arrowLeft" xlink:href="#dirArrow" transform="rotate(270) translate(-36 17)" onmousedown="handlePan(-1,0)">
                  <use xlink:href="#rim" fill="#404040">
                        <set attributeName="fill" to="#808080" begin="arrowLeft.mouseover" end="arrowLeft.mouseout"/>
                  </use>
                  <path fill="none" stroke="white" stroke-width="1.5" d="M0,-3.0v7 M-2.5,-0.5L0,-3.0L2.5,-0.5"/>
                </g>
        </g>
        <svg viewBox="0 0 15 15" width="100%" height="30px" preserveAspectRatio="xMaxYMin meet">
         <g id="arrow_out" transform="scale(0.3 0.3)">
          <a xlink:href="capturing_8cpp_a796d8f82917739002736e8d61c6fb635_cgraph_org.svg" target="_base">
           <rect id="button" ry="5" rx="5" y="6" x="6" height="38" width="38"
                fill="#f2f5e9" fill-opacity="0.5" stroke="#606060" stroke-width="1.0"/>
           <path id="arrow"
             d="M 11.500037,31.436501 C 11.940474,20.09759 22.043105,11.32322 32.158766,21.979434 L 37.068811,17.246167 C 37.068811,17.246167 37.088388,32 37.088388,32 L 22.160133,31.978069 C 22.160133,31.978069 26.997745,27.140456 26.997745,27.140456 C 18.528582,18.264221 13.291696,25.230495 11.500037,31.436501 z"
             style="fill:#404040;"/>
          </a>
         </g>
        </svg>
</svg>
