<?xml version="1.0" encoding="UTF-8" standalone="no"?>
<!DOCTYPE svg PUBLIC "-//W3C//DTD SVG 1.1//EN"
 "http://www.w3.org/Graphics/SVG/1.1/DTD/svg11.dtd">
<!-- Generated by graphviz version 2.40.1 (20161225.0304)
 -->
<!-- Title: signalHandler Pages: 1 -->
<svg width="322pt" height="45pt"
 viewBox="0.00 0.00 321.64 45.00" xmlns="http://www.w3.org/2000/svg" xmlns:xlink="http://www.w3.org/1999/xlink">
<g id="graph0" class="graph" transform="scale(1 1) rotate(0) translate(4 41)">
<title>signalHandler</title>
<polygon fill="#ffffff" stroke="transparent" points="-4,4 -4,-41 317.6377,-41 317.6377,4 -4,4"/>
<!-- Node18 -->
<g id="node1" class="node">
<title>Node18</title>
<polygon fill="#bfbfbf" stroke="#000000" points="0,-.5 0,-18.5 77.1475,-18.5 77.1475,-.5 0,-.5"/>
<text text-anchor="middle" x="38.5737" y="-6.5" font-family="Helvetica,sans-Serif" font-size="10.00" fill="#000000">signalHandler</text>
</g>
<!-- Node19 -->
<g id="node2" class="node">
<title>Node19</title>
<g id="a_node2"><a xlink:href="debug_8hpp.xhtml#a9340c95e0607709d793dc427c8b630e8" target="_top" xlink:title="Function that prints log messages. ">
<polygon fill="#ffffff" stroke="#000000" points="113.1475,-.5 113.1475,-18.5 175.0996,-18.5 175.0996,-.5 113.1475,-.5"/>
<text text-anchor="middle" x="144.1235" y="-6.5" font-family="Helvetica,sans-Serif" font-size="10.00" fill="#000000">TOOL::log</text>
</a>
</g>
</g>
<!-- Node18&#45;&gt;Node19 -->
<g id="edge1" class="edge">
<title>Node18&#45;&gt;Node19</title>
<path fill="none" stroke="#191970" d="M77.2772,-9.5C85.6429,-9.5 94.5175,-9.5 102.9732,-9.5"/>
<polygon fill="#191970" stroke="#191970" points="103.0171,-13.0001 113.0171,-9.5 103.0171,-6.0001 103.0171,-13.0001"/>
</g>
<!-- Node19&#45;&gt;Node19 -->
<g id="edge2" class="edge">
<title>Node19&#45;&gt;Node19</title>
<path fill="none" stroke="#191970" d="M128.6273,-18.5134C120.0675,-27.322 125.2329,-37 144.1235,-37 156.2253,-37 162.6943,-33.0281 163.5304,-27.8575"/>
<polygon fill="#191970" stroke="#191970" points="166.7092,-26.3868 159.6198,-18.5134 160.2519,-29.0894 166.7092,-26.3868"/>
</g>
<!-- Node20 -->
<g id="node3" class="node">
<title>Node20</title>
<g id="a_node3"><a xlink:href="debug_8cpp.xhtml#ad6ba0645e5c2cdd3f7533aa4f15dbe71" target="_top" xlink:title="Sets #TOOL::generalLogLevel;. ">
<polygon fill="#ffffff" stroke="#000000" points="211.0996,-.5 211.0996,-18.5 313.6377,-18.5 313.6377,-.5 211.0996,-.5"/>
<text text-anchor="middle" x="262.3687" y="-6.5" font-family="Helvetica,sans-Serif" font-size="10.00" fill="#000000">TOOL::setLogLevel</text>
</a>
</g>
</g>
<!-- Node19&#45;&gt;Node20 -->
<g id="edge3" class="edge">
<title>Node19&#45;&gt;Node20</title>
<path fill="none" stroke="#191970" d="M175.191,-9.5C183.1455,-9.5 191.9821,-9.5 200.89,-9.5"/>
<polygon fill="#191970" stroke="#191970" points="200.9346,-13.0001 210.9346,-9.5 200.9345,-6.0001 200.9346,-13.0001"/>
</g>
<!-- Node20&#45;&gt;Node20 -->
<g id="edge4" class="edge">
<title>Node20&#45;&gt;Node20</title>
<path fill="none" stroke="#191970" d="M244.7864,-18.5134C235.0743,-27.322 240.9351,-37 262.3687,-37 276.4344,-37 283.7936,-32.832 284.446,-27.477"/>
<polygon fill="#191970" stroke="#191970" points="287.5624,-25.8834 279.9509,-18.5134 281.3051,-29.0214 287.5624,-25.8834"/>
</g>
</g>
</svg>
