<?xml version="1.0" encoding="UTF-8" standalone="no"?>
<!DOCTYPE svg PUBLIC "-//W3C//DTD SVG 1.1//EN"
 "http://www.w3.org/Graphics/SVG/1.1/DTD/svg11.dtd">
<!-- Generated by graphviz version 2.40.1 (20161225.0304)
 -->
<!-- Title: getPacketDirection Pages: 1 -->
<svg width="344pt" height="45pt"
 viewBox="0.00 0.00 344.42 45.00" xmlns="http://www.w3.org/2000/svg" xmlns:xlink="http://www.w3.org/1999/xlink">
<g id="graph0" class="graph" transform="scale(1 1) rotate(0) translate(4 41)">
<title>getPacketDirection</title>
<polygon fill="#ffffff" stroke="transparent" points="-4,4 -4,-41 340.4209,-41 340.4209,4 -4,4"/>
<!-- Node0 -->
<g id="node1" class="node">
<title>Node0</title>
<polygon fill="#bfbfbf" stroke="#000000" points="0,-.5 0,-18.5 99.9307,-18.5 99.9307,-.5 0,-.5"/>
<text text-anchor="middle" x="49.9653" y="-6.5" font-family="Helvetica,sans-Serif" font-size="10.00" fill="#000000">getPacketDirection</text>
</g>
<!-- Node1 -->
<g id="node2" class="node">
<title>Node1</title>
<g id="a_node2"><a xlink:href="debug_8hpp.xhtml#a9340c95e0607709d793dc427c8b630e8" target="_top" xlink:title="Function that prints log messages. ">
<polygon fill="#ffffff" stroke="#000000" points="135.9307,-.5 135.9307,-18.5 197.8828,-18.5 197.8828,-.5 135.9307,-.5"/>
<text text-anchor="middle" x="166.9067" y="-6.5" font-family="Helvetica,sans-Serif" font-size="10.00" fill="#000000">TOOL::log</text>
</a>
</g>
</g>
<!-- Node0&#45;&gt;Node1 -->
<g id="edge1" class="edge">
<title>Node0&#45;&gt;Node1</title>
<path fill="none" stroke="#191970" d="M100.2377,-9.5C108.6818,-9.5 117.3587,-9.5 125.545,-9.5"/>
<polygon fill="#191970" stroke="#191970" points="125.5974,-13.0001 135.5974,-9.5 125.5974,-6.0001 125.5974,-13.0001"/>
</g>
<!-- Node1&#45;&gt;Node1 -->
<g id="edge2" class="edge">
<title>Node1&#45;&gt;Node1</title>
<path fill="none" stroke="#191970" d="M149.6225,-18.5134C140.075,-27.322 145.8364,-37 166.9067,-37 180.4049,-37 187.6203,-33.0281 188.5529,-27.8575"/>
<polygon fill="#191970" stroke="#191970" points="191.5925,-26.0943 184.191,-18.5134 185.2495,-29.0553 191.5925,-26.0943"/>
</g>
<!-- Node2 -->
<g id="node3" class="node">
<title>Node2</title>
<g id="a_node3"><a xlink:href="debug_8cpp.xhtml#ad6ba0645e5c2cdd3f7533aa4f15dbe71" target="_top" xlink:title="Sets #TOOL::generalLogLevel;. ">
<polygon fill="#ffffff" stroke="#000000" points="233.8828,-.5 233.8828,-18.5 336.4209,-18.5 336.4209,-.5 233.8828,-.5"/>
<text text-anchor="middle" x="285.1519" y="-6.5" font-family="Helvetica,sans-Serif" font-size="10.00" fill="#000000">TOOL::setLogLevel</text>
</a>
</g>
</g>
<!-- Node1&#45;&gt;Node2 -->
<g id="edge3" class="edge">
<title>Node1&#45;&gt;Node2</title>
<path fill="none" stroke="#191970" d="M197.9743,-9.5C205.9287,-9.5 214.7653,-9.5 223.6732,-9.5"/>
<polygon fill="#191970" stroke="#191970" points="223.7178,-13.0001 233.7178,-9.5 223.7177,-6.0001 223.7178,-13.0001"/>
</g>
<!-- Node2&#45;&gt;Node2 -->
<g id="edge4" class="edge">
<title>Node2&#45;&gt;Node2</title>
<path fill="none" stroke="#191970" d="M267.5696,-18.5134C257.8575,-27.322 263.7183,-37 285.1519,-37 299.2177,-37 306.5768,-32.832 307.2292,-27.477"/>
<polygon fill="#191970" stroke="#191970" points="310.3456,-25.8834 302.7341,-18.5134 304.0883,-29.0214 310.3456,-25.8834"/>
</g>
</g>
</svg>
