<?xml version="1.0" encoding="UTF-8" standalone="no"?>
<!DOCTYPE svg PUBLIC "-//W3C//DTD SVG 1.1//EN"
 "http://www.w3.org/Graphics/SVG/1.1/DTD/svg11.dtd">
<!-- Generated by graphviz version 2.40.1 (20161225.0304)
 -->
<!-- Title: signalHandler Pages: 1 -->
<svg width="342pt" height="45pt"
 viewBox="0.00 0.00 341.98 45.00" xmlns="http://www.w3.org/2000/svg" xmlns:xlink="http://www.w3.org/1999/xlink">
<g id="graph0" class="graph" transform="scale(1 1) rotate(0) translate(4 41)">
<title>signalHandler</title>
<polygon fill="#ffffff" stroke="transparent" points="-4,4 -4,-41 337.9795,-41 337.9795,4 -4,4"/>
<!-- Node18 -->
<g id="node1" class="node">
<title>Node18</title>
<polygon fill="#bfbfbf" stroke="#000000" points="0,-.5 0,-18.5 77.1475,-18.5 77.1475,-.5 0,-.5"/>
<text text-anchor="middle" x="38.5737" y="-6.5" font-family="Helvetica,sans-Serif" font-size="10.00" fill="#000000">signalHandler</text>
</g>
<!-- Node19 -->
<g id="node2" class="node">
<title>Node19</title>
<g id="a_node2"><a xlink:href="debug_8hpp.xhtml#a9f1c1527f51faaaca3be83b5a8928ca5" target="_top" xlink:title="Function that prints log messages. ">
<polygon fill="#ffffff" stroke="#000000" points="113.1475,-.5 113.1475,-18.5 185.2705,-18.5 185.2705,-.5 113.1475,-.5"/>
<text text-anchor="middle" x="149.209" y="-6.5" font-family="Helvetica,sans-Serif" font-size="10.00" fill="#000000">NAMON::log</text>
</a>
</g>
</g>
<!-- Node18&#45;&gt;Node19 -->
<g id="edge1" class="edge">
<title>Node18&#45;&gt;Node19</title>
<path fill="none" stroke="#191970" d="M77.2686,-9.5C85.5084,-9.5 94.2907,-9.5 102.7857,-9.5"/>
<polygon fill="#191970" stroke="#191970" points="102.9494,-13.0001 112.9494,-9.5 102.9493,-6.0001 102.9494,-13.0001"/>
</g>
<!-- Node19&#45;&gt;Node19 -->
<g id="edge2" class="edge">
<title>Node19&#45;&gt;Node19</title>
<path fill="none" stroke="#191970" d="M132.8188,-18.5134C123.7651,-27.322 129.2285,-37 149.209,-37 162.009,-37 168.8512,-33.0281 169.7355,-27.8575"/>
<polygon fill="#191970" stroke="#191970" points="172.8475,-26.2408 165.5992,-18.5134 166.4466,-29.0743 172.8475,-26.2408"/>
</g>
<!-- Node20 -->
<g id="node3" class="node">
<title>Node20</title>
<g id="a_node3"><a xlink:href="debug_8cpp.xhtml#a1a395cd89e6df6f9fd16ed25601ac351" target="_top" xlink:title="Sets #NAMON::generalLogLevel;. ">
<polygon fill="#ffffff" stroke="#000000" points="221.2705,-.5 221.2705,-18.5 333.9795,-18.5 333.9795,-.5 221.2705,-.5"/>
<text text-anchor="middle" x="277.625" y="-6.5" font-family="Helvetica,sans-Serif" font-size="10.00" fill="#000000">NAMON::setLogLevel</text>
</a>
</g>
</g>
<!-- Node19&#45;&gt;Node20 -->
<g id="edge3" class="edge">
<title>Node19&#45;&gt;Node20</title>
<path fill="none" stroke="#191970" d="M185.3217,-9.5C193.4067,-9.5 202.2319,-9.5 211.1159,-9.5"/>
<polygon fill="#191970" stroke="#191970" points="211.1349,-13.0001 221.1349,-9.5 211.1349,-6.0001 211.1349,-13.0001"/>
</g>
<!-- Node20&#45;&gt;Node20 -->
<g id="edge4" class="edge">
<title>Node20&#45;&gt;Node20</title>
<path fill="none" stroke="#191970" d="M258.5527,-18.5134C248.0176,-27.322 254.375,-37 277.625,-37 292.8828,-37 300.8656,-32.832 301.5734,-27.477"/>
<polygon fill="#191970" stroke="#191970" points="304.5504,-25.6253 296.6973,-18.5134 298.4014,-28.9703 304.5504,-25.6253"/>
</g>
</g>
</svg>
