<?xml version="1.0" encoding="UTF-8" standalone="no"?>
<!DOCTYPE svg PUBLIC "-//W3C//DTD SVG 1.1//EN"
 "http://www.w3.org/Graphics/SVG/1.1/DTD/svg11.dtd">
<!-- Generated by graphviz version 2.40.1 (20161225.0304)
 -->
<!-- Title: startCapture Pages: 1 -->
<svg width="530pt" height="121pt"
 viewBox="0.00 0.00 529.57 121.00" xmlns="http://www.w3.org/2000/svg" xmlns:xlink="http://www.w3.org/1999/xlink">
<g id="graph0" class="graph" transform="scale(1 1) rotate(0) translate(4 117)">
<title>startCapture</title>
<polygon fill="#ffffff" stroke="transparent" points="-4,4 -4,-117 525.5654,-117 525.5654,4 -4,4"/>
<!-- Node23 -->
<g id="node1" class="node">
<title>Node23</title>
<polygon fill="#bfbfbf" stroke="#000000" points="0,-56.5 0,-74.5 71.0244,-74.5 71.0244,-56.5 0,-56.5"/>
<text text-anchor="middle" x="35.5122" y="-62.5" font-family="Helvetica,sans-Serif" font-size="10.00" fill="#000000">startCapture</text>
</g>
<!-- Node24 -->
<g id="node2" class="node">
<title>Node24</title>
<g id="a_node2"><a xlink:href="capturing_8cpp.xhtml#a8ee3282bc313e547dbbb8d4f4010db61" target="_top" xlink:title="Signal handler function. ">
<polygon fill="#ffffff" stroke="#000000" points="122.8472,-94.5 122.8472,-112.5 199.9946,-112.5 199.9946,-94.5 122.8472,-94.5"/>
<text text-anchor="middle" x="161.4209" y="-100.5" font-family="Helvetica,sans-Serif" font-size="10.00" fill="#000000">signalHandler</text>
</a>
</g>
</g>
<!-- Node23&#45;&gt;Node24 -->
<g id="edge1" class="edge">
<title>Node23&#45;&gt;Node24</title>
<path fill="none" stroke="#191970" d="M65.3508,-74.5055C82.1629,-79.5795 103.3798,-85.9828 121.5959,-91.4806"/>
<polygon fill="#191970" stroke="#191970" points="120.7754,-94.8888 131.3601,-94.4275 122.7979,-88.1874 120.7754,-94.8888"/>
</g>
<!-- Node25 -->
<g id="node3" class="node">
<title>Node25</title>
<g id="a_node3"><a xlink:href="debug_8hpp.xhtml#a9f1c1527f51faaaca3be83b5a8928ca5" target="_top" xlink:title="Function that prints log messages. ">
<polygon fill="#ffffff" stroke="#000000" points="276.2754,-75.5 276.2754,-93.5 348.3984,-93.5 348.3984,-75.5 276.2754,-75.5"/>
<text text-anchor="middle" x="312.3369" y="-81.5" font-family="Helvetica,sans-Serif" font-size="10.00" fill="#000000">NAMON::log</text>
</a>
</g>
</g>
<!-- Node23&#45;&gt;Node25 -->
<g id="edge10" class="edge">
<title>Node23&#45;&gt;Node25</title>
<path fill="none" stroke="#191970" d="M71.1355,-67.945C120.7967,-71.3535 210.9018,-77.538 265.8132,-81.3068"/>
<polygon fill="#191970" stroke="#191970" points="265.7551,-84.811 275.9713,-82.004 266.2345,-77.8274 265.7551,-84.811"/>
</g>
<!-- Node27 -->
<g id="node5" class="node">
<title>Node27</title>
<g id="a_node5"><a xlink:href="namon__apple_8cpp.xhtml#a3f33b2f8e1e02244d4291332e760796e" target="_top" xlink:title="Sets mac address of g_dev interface into g_devMac. ">
<polygon fill="#ffffff" stroke="#000000" points="107.0244,-.5 107.0244,-18.5 215.8174,-18.5 215.8174,-.5 107.0244,-.5"/>
<text text-anchor="middle" x="161.4209" y="-6.5" font-family="Helvetica,sans-Serif" font-size="10.00" fill="#000000">NAMON::setDevMac</text>
</a>
</g>
</g>
<!-- Node23&#45;&gt;Node27 -->
<g id="edge6" class="edge">
<title>Node23&#45;&gt;Node27</title>
<path fill="none" stroke="#191970" d="M56.0218,-56.378C76.5087,-47.2661 108.2206,-33.1617 131.5112,-22.8028"/>
<polygon fill="#191970" stroke="#191970" points="133.2054,-25.88 140.92,-18.6181 130.3606,-19.484 133.2054,-25.88"/>
</g>
<!-- Node24&#45;&gt;Node25 -->
<g id="edge2" class="edge">
<title>Node24&#45;&gt;Node25</title>
<path fill="none" stroke="#191970" d="M200.2855,-98.607C220.3998,-96.0747 245.0913,-92.9661 266.172,-90.3121"/>
<polygon fill="#191970" stroke="#191970" points="266.7103,-93.772 276.1948,-89.0502 265.8359,-86.8268 266.7103,-93.772"/>
</g>
<!-- Node25&#45;&gt;Node25 -->
<g id="edge3" class="edge">
<title>Node25&#45;&gt;Node25</title>
<path fill="none" stroke="#191970" d="M289.9866,-93.5134C277.6407,-102.322 285.0908,-112 312.3369,-112 331.0686,-112 340.4436,-107.4256 340.4619,-101.7043"/>
<polygon fill="#191970" stroke="#191970" points="343.3099,-99.6697 334.6872,-93.5134 337.5888,-103.7032 343.3099,-99.6697"/>
</g>
<!-- Node26 -->
<g id="node4" class="node">
<title>Node26</title>
<g id="a_node4"><a xlink:href="debug_8cpp.xhtml#a1a395cd89e6df6f9fd16ed25601ac351" target="_top" xlink:title="Sets #NAMON::generalLogLevel;. ">
<polygon fill="#ffffff" stroke="#000000" points="408.8564,-75.5 408.8564,-93.5 521.5654,-93.5 521.5654,-75.5 408.8564,-75.5"/>
<text text-anchor="middle" x="465.2109" y="-81.5" font-family="Helvetica,sans-Serif" font-size="10.00" fill="#000000">NAMON::setLogLevel</text>
</a>
</g>
</g>
<!-- Node25&#45;&gt;Node26 -->
<g id="edge4" class="edge">
<title>Node25&#45;&gt;Node26</title>
<path fill="none" stroke="#191970" d="M348.5659,-84.5C363.5491,-84.5 381.4138,-84.5 398.6041,-84.5"/>
<polygon fill="#191970" stroke="#191970" points="398.6206,-88.0001 408.6206,-84.5 398.6206,-81.0001 398.6206,-88.0001"/>
</g>
<!-- Node26&#45;&gt;Node26 -->
<g id="edge5" class="edge">
<title>Node26&#45;&gt;Node26</title>
<path fill="none" stroke="#191970" d="M442.5626,-93.5134C430.0521,-102.322 437.6016,-112 465.2109,-112 484.1924,-112 493.6924,-107.4256 493.7109,-101.7043"/>
<polygon fill="#191970" stroke="#191970" points="496.5203,-99.6157 487.8593,-93.5134 490.8245,-103.6849 496.5203,-99.6157"/>
</g>
<!-- Node27&#45;&gt;Node27 -->
<g id="edge7" class="edge">
<title>Node27&#45;&gt;Node27</title>
<path fill="none" stroke="#191970" d="M142.9446,-18.5134C132.7387,-27.322 138.8975,-37 161.4209,-37 176.2019,-37 183.9352,-32.832 184.6209,-27.477"/>
<polygon fill="#191970" stroke="#191970" points="187.6557,-25.7284 179.8972,-18.5134 181.463,-28.9919 187.6557,-25.7284"/>
</g>
<!-- Node28 -->
<g id="node6" class="node">
<title>Node28</title>
<g id="a_node6"><a xlink:href="namon_8cpp.xhtml#ae908895e58096afddac49d147777aee9" target="_top" xlink:title="Identifies application, which has opened socket which belongs to some IP, proto and port...">
<polygon fill="#ffffff" stroke="#000000" points="251.8174,-.5 251.8174,-18.5 372.8564,-18.5 372.8564,-.5 251.8174,-.5"/>
<text text-anchor="middle" x="312.3369" y="-6.5" font-family="Helvetica,sans-Serif" font-size="10.00" fill="#000000">NAMON::determineApp</text>
</a>
</g>
</g>
<!-- Node27&#45;&gt;Node28 -->
<g id="edge8" class="edge">
<title>Node27&#45;&gt;Node28</title>
<path fill="none" stroke="#191970" d="M215.905,-9.5C224.2794,-9.5 233.0282,-9.5 241.692,-9.5"/>
<polygon fill="#191970" stroke="#191970" points="241.7961,-13.0001 251.796,-9.5 241.796,-6.0001 241.7961,-13.0001"/>
</g>
<!-- Node28&#45;&gt;Node28 -->
<g id="edge9" class="edge">
<title>Node28&#45;&gt;Node28</title>
<path fill="none" stroke="#191970" d="M289.9866,-18.5134C277.6407,-27.322 285.0908,-37 312.3369,-37 331.0686,-37 340.4436,-32.4256 340.4619,-26.7043"/>
<polygon fill="#191970" stroke="#191970" points="343.3099,-24.6697 334.6872,-18.5134 337.5888,-28.7032 343.3099,-24.6697"/>
</g>
</g>
</svg>
