<?xml version="1.0" encoding="UTF-8" standalone="no"?>
<!DOCTYPE svg PUBLIC "-//W3C//DTD SVG 1.1//EN"
 "http://www.w3.org/Graphics/SVG/1.1/DTD/svg11.dtd">
<!-- Generated by graphviz version 2.40.1 (20161225.0304)
 -->
<!-- Title: src/capturing.hpp Pages: 1 -->
<!--zoomable 357 -->
<svg id="main" version="1.1" xmlns="http://www.w3.org/2000/svg" xmlns:xlink="http://www.w3.org/1999/xlink" xml:space="preserve" onload="init(evt)">
<style type="text/css"><![CDATA[
.edge:hover path { stroke: red; }
.edge:hover polygon { stroke: red; fill: red; }
]]></style>
<script type="text/javascript"><![CDATA[
var edges = document.getElementsByTagName('g');
if (edges && edges.length) {
  for (var i=0;i<edges.length;i++) {
    if (edges[i].id.substr(0,4)=='edge') {
      edges[i].setAttribute('class','edge');
    }
  }
}
]]></script>
        <defs>
                <circle id="rim" cx="0" cy="0" r="7"/>
                <circle id="rim2" cx="0" cy="0" r="3.5"/>
                <g id="zoomPlus">
                        <use xlink:href="#rim" fill="#404040">
                                <set attributeName="fill" to="#808080" begin="zoomplus.mouseover" end="zoomplus.mouseout"/>
                        </use>
                        <path d="M-4,0h8M0,-4v8" fill="none" stroke="white" stroke-width="1.5" pointer-events="none"/>
                </g>
                <g id="zoomMin">
                        <use xlink:href="#rim" fill="#404040">
                                <set attributeName="fill" to="#808080" begin="zoomminus.mouseover" end="zoomminus.mouseout"/>
                        </use>
                        <path d="M-4,0h8" fill="none" stroke="white" stroke-width="1.5" pointer-events="none"/>
                </g>
                <g id="dirArrow">
                        <path fill="none" stroke="white" stroke-width="1.5" d="M0,-3.0v7 M-2.5,-0.5L0,-3.0L2.5,-0.5"/>
                </g>
               <g id="resetDef">
                       <use xlink:href="#rim2" fill="#404040">
                               <set attributeName="fill" to="#808080" begin="reset.mouseover" end="reset.mouseout"/>
                       </use>
               </g>
        </defs>

<script type="text/javascript">
var viewWidth = 1072;
var viewHeight = 357;
var sectionId = 'dynsection-0';
</script>
<script xlink:href="svgpan.js"/>
<svg id="graph" class="graph">
<g id="viewport">
<title>src/capturing.hpp</title>
<polygon fill="#ffffff" stroke="transparent" points="-4,4 -4,-353 1068.1821,-353 1068.1821,4 -4,4"/>
<!-- Node0 -->
<g id="node1" class="node">
<title>Node0</title>
<polygon fill="#bfbfbf" stroke="#000000" points="459.8179,-330.5 459.8179,-348.5 552.5269,-348.5 552.5269,-330.5 459.8179,-330.5"/>
<text text-anchor="middle" x="506.1724" y="-336.5" font-family="Helvetica,sans-Serif" font-size="10.00" fill="#000000">src/capturing.hpp</text>
</g>
<!-- Node1 -->
<g id="node2" class="node">
<title>Node1</title>
<polygon fill="#ffffff" stroke="#bfbfbf" points="0,-110.5 0,-128.5 54.3447,-128.5 54.3447,-110.5 0,-110.5"/>
<text text-anchor="middle" x="27.1724" y="-116.5" font-family="Helvetica,sans-Serif" font-size="10.00" fill="#000000">iostream</text>
</g>
<!-- Node0&#45;&gt;Node1 -->
<g id="edge1" class="edge">
<title>Node0&#45;&gt;Node1</title>
<path fill="none" stroke="#191970" d="M459.653,-332.7978C413.5083,-325.5303 341.0776,-312.4456 280.1724,-294 158.5181,-257.1561 86.3925,-289.9546 16.1724,-184 7.1711,-170.4181 11.71,-151.807 17.4418,-138.0665"/>
<polygon fill="#191970" stroke="#191970" points="20.7706,-139.2117 21.8529,-128.6723 14.4344,-136.2364 20.7706,-139.2117"/>
</g>
<!-- Node2 -->
<g id="node3" class="node">
<title>Node2</title>
<polygon fill="#ffffff" stroke="#bfbfbf" points="998.1626,-275.5 998.1626,-293.5 1064.1821,-293.5 1064.1821,-275.5 998.1626,-275.5"/>
<text text-anchor="middle" x="1031.1724" y="-281.5" font-family="Helvetica,sans-Serif" font-size="10.00" fill="#000000">sys/types.h</text>
</g>
<!-- Node0&#45;&gt;Node2 -->
<g id="edge2" class="edge">
<title>Node0&#45;&gt;Node2</title>
<path fill="none" stroke="#191970" d="M552.8469,-336.6836C638.6046,-331.1481 826.8798,-317.3176 984.1724,-294 985.4462,-293.8112 986.7377,-293.6105 988.04,-293.4"/>
<polygon fill="#191970" stroke="#191970" points="988.8797,-296.8063 998.1246,-291.6312 987.6703,-289.9115 988.8797,-296.8063"/>
</g>
<!-- Node3 -->
<g id="node4" class="node">
<title>Node3</title>
<polygon fill="#ffffff" stroke="#bfbfbf" points="200.4458,-220.5 200.4458,-238.5 245.8989,-238.5 245.8989,-220.5 200.4458,-220.5"/>
<text text-anchor="middle" x="223.1724" y="-226.5" font-family="Helvetica,sans-Serif" font-size="10.00" fill="#000000">atomic</text>
</g>
<!-- Node0&#45;&gt;Node3 -->
<g id="edge3" class="edge">
<title>Node0&#45;&gt;Node3</title>
<path fill="none" stroke="#191970" d="M483.0133,-330.4982C432.723,-310.9508 313.4149,-264.5766 255.6387,-242.1194"/>
<polygon fill="#191970" stroke="#191970" points="256.8432,-238.8326 246.2545,-238.4719 254.3072,-245.357 256.8432,-238.8326"/>
</g>
<!-- Node4 -->
<g id="node5" class="node">
<title>Node4</title>
<g id="a_node5"><a xlink:href="tcpip__headers_8hpp.xhtml" target="_top" xlink:title="Protocol headers. ">
<polygon fill="#ffffff" stroke="#000000" points="562.0298,-55.5 562.0298,-73.5 660.3149,-73.5 660.3149,-55.5 562.0298,-55.5"/>
<text text-anchor="middle" x="611.1724" y="-61.5" font-family="Helvetica,sans-Serif" font-size="10.00" fill="#000000">tcpip_headers.hpp</text>
</a>
</g>
</g>
<!-- Node0&#45;&gt;Node4 -->
<g id="edge4" class="edge">
<title>Node0&#45;&gt;Node4</title>
<path fill="none" stroke="#191970" d="M552.7869,-338.2936C670.451,-333.9899 970.1724,-314.6685 970.1724,-229.5 970.1724,-229.5 970.1724,-229.5 970.1724,-174.5 970.1724,-143.1071 766.8984,-96.6746 666.2688,-75.6118"/>
<polygon fill="#191970" stroke="#191970" points="666.7797,-72.1433 656.2765,-73.5331 665.354,-78.9965 666.7797,-72.1433"/>
</g>
<!-- Node6 -->
<g id="node7" class="node">
<title>Node6</title>
<g id="a_node7"><a xlink:href="netflow_8hpp.xhtml" target="_top" xlink:title="Netflow structure header file. ">
<polygon fill="#ffffff" stroke="#000000" points="577.8721,-110.5 577.8721,-128.5 644.4727,-128.5 644.4727,-110.5 577.8721,-110.5"/>
<text text-anchor="middle" x="611.1724" y="-116.5" font-family="Helvetica,sans-Serif" font-size="10.00" fill="#000000">netflow.hpp</text>
</a>
</g>
</g>
<!-- Node0&#45;&gt;Node6 -->
<g id="edge6" class="edge">
<title>Node0&#45;&gt;Node6</title>
<path fill="none" stroke="#191970" d="M552.7172,-334.5827C623.9515,-326.6765 756.4613,-310.3609 801.1724,-294 845.1954,-277.8909 868.2417,-279.8866 891.1724,-239 942.5787,-147.3396 745.2132,-125.9745 654.5093,-121.0034"/>
<polygon fill="#191970" stroke="#191970" points="654.6818,-117.5077 644.5179,-120.4986 654.3285,-124.4988 654.6818,-117.5077"/>
</g>
<!-- Node9 -->
<g id="node10" class="node">
<title>Node9</title>
<g id="a_node10"><a xlink:href="ring_buffer_8hpp.xhtml" target="_top" xlink:title="Ring Buffer header file. ">
<polygon fill="#ffffff" stroke="#000000" points="467.125,-275.5 467.125,-293.5 545.2197,-293.5 545.2197,-275.5 467.125,-275.5"/>
<text text-anchor="middle" x="506.1724" y="-281.5" font-family="Helvetica,sans-Serif" font-size="10.00" fill="#000000">ringBuffer.hpp</text>
</a>
</g>
</g>
<!-- Node0&#45;&gt;Node9 -->
<g id="edge10" class="edge">
<title>Node0&#45;&gt;Node9</title>
<path fill="none" stroke="#191970" d="M506.1724,-330.4179C506.1724,-323.2164 506.1724,-312.8962 506.1724,-303.8632"/>
<polygon fill="#191970" stroke="#191970" points="509.6725,-303.7794 506.1724,-293.7795 502.6725,-303.7795 509.6725,-303.7794"/>
</g>
<!-- Node15 -->
<g id="node16" class="node">
<title>Node15</title>
<g id="a_node16"><a xlink:href="pcapng__blocks_8hpp.xhtml" target="_top" xlink:title="Pcap&#45;ng block structures. ">
<polygon fill="#ffffff" stroke="#000000" points="264.084,-220.5 264.084,-238.5 366.2607,-238.5 366.2607,-220.5 264.084,-220.5"/>
<text text-anchor="middle" x="315.1724" y="-226.5" font-family="Helvetica,sans-Serif" font-size="10.00" fill="#000000">pcapng_blocks.hpp</text>
</a>
</g>
</g>
<!-- Node0&#45;&gt;Node15 -->
<g id="edge37" class="edge">
<title>Node0&#45;&gt;Node15</title>
<path fill="none" stroke="#191970" d="M490.542,-330.4982C457.3843,-311.4021 379.772,-266.704 339.8509,-243.7128"/>
<polygon fill="#191970" stroke="#191970" points="341.4311,-240.5839 331.0187,-238.6261 337.9376,-246.6498 341.4311,-240.5839"/>
</g>
<!-- Node19 -->
<g id="node20" class="node">
<title>Node19</title>
<g id="a_node20"><a xlink:href="cache_8hpp.xhtml" target="_top" xlink:title="Cache implementation header file. ">
<polygon fill="#ffffff" stroke="#000000" points="480.0986,-165.5 480.0986,-183.5 542.2461,-183.5 542.2461,-165.5 480.0986,-165.5"/>
<text text-anchor="middle" x="511.1724" y="-171.5" font-family="Helvetica,sans-Serif" font-size="10.00" fill="#000000">cache.hpp</text>
</a>
</g>
</g>
<!-- Node0&#45;&gt;Node19 -->
<g id="edge38" class="edge">
<title>Node0&#45;&gt;Node19</title>
<path fill="none" stroke="#191970" d="M552.888,-332.8435C661.8747,-316.3577 920.4054,-271.2391 875.1724,-220 854.0903,-196.1186 643.6202,-181.7738 552.6741,-176.6462"/>
<polygon fill="#191970" stroke="#191970" points="552.6308,-173.1386 542.4526,-176.0805 552.2439,-180.1279 552.6308,-173.1386"/>
</g>
<!-- Node22 -->
<g id="node23" class="node">
<title>Node22</title>
<g id="a_node23"><a xlink:href="debug_8hpp.xhtml" target="_top" xlink:title="Debugging functions. ">
<polygon fill="#ffffff" stroke="#000000" points="25.5371,-165.5 25.5371,-183.5 88.8076,-183.5 88.8076,-165.5 25.5371,-165.5"/>
<text text-anchor="middle" x="57.1724" y="-171.5" font-family="Helvetica,sans-Serif" font-size="10.00" fill="#000000">debug.hpp</text>
</a>
</g>
</g>
<!-- Node0&#45;&gt;Node22 -->
<g id="edge39" class="edge">
<title>Node0&#45;&gt;Node22</title>
<path fill="none" stroke="#191970" d="M470.9707,-330.4902C437.8043,-321.809 386.8253,-307.9688 343.1724,-294 274.7481,-272.1046 257.402,-266.8375 191.1724,-239 153.2274,-223.051 110.5761,-201.9527 83.7954,-188.3035"/>
<polygon fill="#191970" stroke="#191970" points="85.1808,-185.0807 74.6851,-183.6353 81.9886,-191.3105 85.1808,-185.0807"/>
</g>
<!-- Node5 -->
<g id="node6" class="node">
<title>Node5</title>
<polygon fill="#ffffff" stroke="#bfbfbf" points="587.0518,-.5 587.0518,-18.5 635.293,-18.5 635.293,-.5 587.0518,-.5"/>
<text text-anchor="middle" x="611.1724" y="-6.5" font-family="Helvetica,sans-Serif" font-size="10.00" fill="#000000">stdint.h</text>
</g>
<!-- Node4&#45;&gt;Node5 -->
<g id="edge5" class="edge">
<title>Node4&#45;&gt;Node5</title>
<path fill="none" stroke="#191970" d="M611.1724,-55.4179C611.1724,-48.2164 611.1724,-37.8962 611.1724,-28.8632"/>
<polygon fill="#191970" stroke="#191970" points="614.6725,-28.7794 611.1724,-18.7795 607.6725,-28.7795 614.6725,-28.7794"/>
</g>
<!-- Node6&#45;&gt;Node4 -->
<g id="edge9" class="edge">
<title>Node6&#45;&gt;Node4</title>
<path fill="none" stroke="#191970" d="M611.1724,-110.4179C611.1724,-103.2164 611.1724,-92.8962 611.1724,-83.8632"/>
<polygon fill="#191970" stroke="#191970" points="614.6725,-83.7794 611.1724,-73.7795 607.6725,-83.7795 614.6725,-83.7794"/>
</g>
<!-- Node7 -->
<g id="node8" class="node">
<title>Node7</title>
<polygon fill="#ffffff" stroke="#bfbfbf" points="503.9458,-55.5 503.9458,-73.5 544.3989,-73.5 544.3989,-55.5 503.9458,-55.5"/>
<text text-anchor="middle" x="524.1724" y="-61.5" font-family="Helvetica,sans-Serif" font-size="10.00" fill="#000000">string</text>
</g>
<!-- Node6&#45;&gt;Node7 -->
<g id="edge7" class="edge">
<title>Node6&#45;&gt;Node7</title>
<path fill="none" stroke="#191970" d="M596.8061,-110.4179C583.331,-101.8992 562.9531,-89.0166 547.2079,-79.0627"/>
<polygon fill="#191970" stroke="#191970" points="548.8829,-75.9808 538.56,-73.5956 545.1423,-81.8977 548.8829,-75.9808"/>
</g>
<!-- Node8 -->
<g id="node9" class="node">
<title>Node8</title>
<polygon fill="#ffffff" stroke="#bfbfbf" points="678.4458,-55.5 678.4458,-73.5 723.8989,-73.5 723.8989,-55.5 678.4458,-55.5"/>
<text text-anchor="middle" x="701.1724" y="-61.5" font-family="Helvetica,sans-Serif" font-size="10.00" fill="#000000">cstring</text>
</g>
<!-- Node6&#45;&gt;Node8 -->
<g id="edge8" class="edge">
<title>Node6&#45;&gt;Node8</title>
<path fill="none" stroke="#191970" d="M626.034,-110.4179C639.9738,-101.8992 661.0544,-89.0166 677.3424,-79.0627"/>
<polygon fill="#191970" stroke="#191970" points="679.5809,-81.7967 686.2886,-73.5956 675.9307,-75.8237 679.5809,-81.7967"/>
</g>
<!-- Node9&#45;&gt;Node3 -->
<g id="edge12" class="edge">
<title>Node9&#45;&gt;Node3</title>
<path fill="none" stroke="#191970" d="M466.7679,-278.7223C419.0444,-271.4248 336.0739,-257.779 255.9215,-238.9715"/>
<polygon fill="#191970" stroke="#191970" points="256.7017,-235.5595 246.1634,-236.6524 255.0831,-242.3699 256.7017,-235.5595"/>
</g>
<!-- Node10 -->
<g id="node11" class="node">
<title>Node10</title>
<polygon fill="#ffffff" stroke="#bfbfbf" points="309.5566,-110.5 309.5566,-128.5 352.7881,-128.5 352.7881,-110.5 309.5566,-110.5"/>
<text text-anchor="middle" x="331.1724" y="-116.5" font-family="Helvetica,sans-Serif" font-size="10.00" fill="#000000">vector</text>
</g>
<!-- Node9&#45;&gt;Node10 -->
<g id="edge11" class="edge">
<title>Node9&#45;&gt;Node10</title>
<path fill="none" stroke="#191970" d="M498.5695,-275.3499C491.2224,-266.3425 479.9467,-252.0751 471.1724,-239 449.9763,-207.4145 456.2239,-190.6909 428.1724,-165 417.9848,-155.6698 386.9642,-141.8491 362.7154,-131.8898"/>
<polygon fill="#191970" stroke="#191970" points="363.733,-128.5257 353.1505,-128.015 361.1047,-135.0136 363.733,-128.5257"/>
</g>
<!-- Node11 -->
<g id="node12" class="node">
<title>Node11</title>
<polygon fill="#ffffff" stroke="#bfbfbf" points="242.5566,-110.5 242.5566,-128.5 285.7881,-128.5 285.7881,-110.5 242.5566,-110.5"/>
<text text-anchor="middle" x="264.1724" y="-116.5" font-family="Helvetica,sans-Serif" font-size="10.00" fill="#000000">mutex</text>
</g>
<!-- Node9&#45;&gt;Node11 -->
<g id="edge13" class="edge">
<title>Node9&#45;&gt;Node11</title>
<path fill="none" stroke="#191970" d="M495.0244,-275.1654C484.6034,-266.2548 468.7985,-252.2594 456.1724,-239 426.7796,-208.1332 430.1605,-189.3418 395.1724,-165 378.829,-153.6296 328.925,-137.9598 295.6462,-128.2919"/>
<polygon fill="#191970" stroke="#191970" points="296.4852,-124.8914 285.9076,-125.4955 294.5532,-131.6195 296.4852,-124.8914"/>
</g>
<!-- Node12 -->
<g id="node13" class="node">
<title>Node12</title>
<polygon fill="#ffffff" stroke="#bfbfbf" points="549.9951,-220.5 549.9951,-238.5 594.3496,-238.5 594.3496,-220.5 549.9951,-220.5"/>
<text text-anchor="middle" x="572.1724" y="-226.5" font-family="Helvetica,sans-Serif" font-size="10.00" fill="#000000">thread</text>
</g>
<!-- Node9&#45;&gt;Node12 -->
<g id="edge14" class="edge">
<title>Node9&#45;&gt;Node12</title>
<path fill="none" stroke="#191970" d="M517.0709,-275.4179C526.8523,-267.2667 541.4282,-255.1201 553.132,-245.3669"/>
<polygon fill="#191970" stroke="#191970" points="555.5954,-247.8701 561.037,-238.7795 551.1141,-242.4926 555.5954,-247.8701"/>
</g>
<!-- Node13 -->
<g id="node14" class="node">
<title>Node13</title>
<polygon fill="#ffffff" stroke="#bfbfbf" points="611.8672,-220.5 611.8672,-238.5 708.4775,-238.5 708.4775,-220.5 611.8672,-220.5"/>
<text text-anchor="middle" x="660.1724" y="-226.5" font-family="Helvetica,sans-Serif" font-size="10.00" fill="#000000">condition_variable</text>
</g>
<!-- Node9&#45;&gt;Node13 -->
<g id="edge15" class="edge">
<title>Node9&#45;&gt;Node13</title>
<path fill="none" stroke="#191970" d="M531.6023,-275.4179C557.2031,-266.2748 596.8795,-252.1046 625.3851,-241.924"/>
<polygon fill="#191970" stroke="#191970" points="626.7204,-245.1637 634.9606,-238.5042 624.3659,-238.5715 626.7204,-245.1637"/>
</g>
<!-- Node14 -->
<g id="node15" class="node">
<title>Node14</title>
<polygon fill="#ffffff" stroke="#bfbfbf" points="726.1602,-220.5 726.1602,-238.5 772.1846,-238.5 772.1846,-220.5 726.1602,-220.5"/>
<text text-anchor="middle" x="749.1724" y="-226.5" font-family="Helvetica,sans-Serif" font-size="10.00" fill="#000000">pcap.h</text>
</g>
<!-- Node9&#45;&gt;Node14 -->
<g id="edge16" class="edge">
<title>Node9&#45;&gt;Node14</title>
<path fill="none" stroke="#191970" d="M545.2695,-276.997C585.7081,-269.0314 650.877,-255.6246 716.1145,-239.1254"/>
<polygon fill="#191970" stroke="#191970" points="717.3356,-242.426 726.1586,-236.5603 715.6035,-235.6436 717.3356,-242.426"/>
</g>
<!-- Node9&#45;&gt;Node15 -->
<g id="edge17" class="edge">
<title>Node9&#45;&gt;Node15</title>
<path fill="none" stroke="#191970" d="M474.6326,-275.4179C442.3264,-266.115 391.9475,-251.608 356.4779,-241.3943"/>
<polygon fill="#191970" stroke="#191970" points="357.0196,-237.9081 346.4415,-238.5042 355.0825,-244.6348 357.0196,-237.9081"/>
</g>
<!-- Node23 -->
<g id="node24" class="node">
<title>Node23</title>
<g id="a_node24"><a xlink:href="tool_8hpp.xhtml" target="_top" xlink:title="Determining applications header file. ">
<polygon fill="#ffffff" stroke="#000000" points="480.3794,-220.5 480.3794,-238.5 531.9653,-238.5 531.9653,-220.5 480.3794,-220.5"/>
<text text-anchor="middle" x="506.1724" y="-226.5" font-family="Helvetica,sans-Serif" font-size="10.00" fill="#000000">tool.hpp</text>
</a>
</g>
</g>
<!-- Node9&#45;&gt;Node23 -->
<g id="edge33" class="edge">
<title>Node9&#45;&gt;Node23</title>
<path fill="none" stroke="#191970" d="M506.1724,-275.4179C506.1724,-268.2164 506.1724,-257.8962 506.1724,-248.8632"/>
<polygon fill="#191970" stroke="#191970" points="509.6725,-248.7794 506.1724,-238.7795 502.6725,-248.7795 509.6725,-248.7794"/>
</g>
<!-- Node24 -->
<g id="node25" class="node">
<title>Node24</title>
<g id="a_node25"><a xlink:href="ring_buffer_8tpp.xhtml" target="_top" xlink:title="Ring Buffer template functions. ">
<polygon fill="#ffffff" stroke="#000000" points="790.5166,-220.5 790.5166,-238.5 865.8281,-238.5 865.8281,-220.5 790.5166,-220.5"/>
<text text-anchor="middle" x="828.1724" y="-226.5" font-family="Helvetica,sans-Serif" font-size="10.00" fill="#000000">ringBuffer.tpp</text>
</a>
</g>
</g>
<!-- Node9&#45;&gt;Node24 -->
<g id="edge36" class="edge">
<title>Node9&#45;&gt;Node24</title>
<path fill="none" stroke="#191970" d="M545.4127,-278.456C596.9065,-270.4261 690.3403,-255.5182 780.3761,-239.0933"/>
<polygon fill="#191970" stroke="#191970" points="781.2801,-242.486 790.485,-237.24 780.0178,-235.6007 781.2801,-242.486"/>
</g>
<!-- Node15&#45;&gt;Node4 -->
<g id="edge23" class="edge">
<title>Node15&#45;&gt;Node4</title>
<path fill="none" stroke="#191970" d="M300.3034,-220.2331C268.5495,-199.3518 199.637,-147.5196 233.1724,-110 278.9511,-58.7824 466.4018,-81.7422 551.7129,-73.9033"/>
<polygon fill="#191970" stroke="#191970" points="552.2955,-77.3598 561.8369,-72.7541 551.5059,-70.4044 552.2955,-77.3598"/>
</g>
<!-- Node15&#45;&gt;Node7 -->
<g id="edge20" class="edge">
<title>Node15&#45;&gt;Node7</title>
<path fill="none" stroke="#191970" d="M277.8461,-220.4364C246.0699,-211.8758 204.0411,-198.2544 194.1724,-184 175.4513,-156.9593 172.5629,-134.7934 194.1724,-110 213.7248,-87.5667 415.1453,-71.7947 493.3581,-66.4735"/>
<polygon fill="#191970" stroke="#191970" points="493.8007,-69.9518 503.5449,-65.7924 493.3336,-62.9674 493.8007,-69.9518"/>
</g>
<!-- Node15&#45;&gt;Node10 -->
<g id="edge21" class="edge">
<title>Node15&#45;&gt;Node10</title>
<path fill="none" stroke="#191970" d="M299.2186,-220.3995C280.6159,-208.5273 253.775,-186.7005 265.1724,-165 272.6912,-150.6842 286.9802,-139.9906 300.3452,-132.5803"/>
<polygon fill="#191970" stroke="#191970" points="302.0473,-135.641 309.3557,-127.9704 298.859,-129.4092 302.0473,-135.641"/>
</g>
<!-- Node16 -->
<g id="node17" class="node">
<title>Node16</title>
<polygon fill="#ffffff" stroke="#bfbfbf" points="273.7217,-165.5 273.7217,-183.5 318.623,-183.5 318.623,-165.5 273.7217,-165.5"/>
<text text-anchor="middle" x="296.1724" y="-171.5" font-family="Helvetica,sans-Serif" font-size="10.00" fill="#000000">cstdint</text>
</g>
<!-- Node15&#45;&gt;Node16 -->
<g id="edge18" class="edge">
<title>Node15&#45;&gt;Node16</title>
<path fill="none" stroke="#191970" d="M312.0349,-220.4179C309.4924,-213.0581 305.8247,-202.441 302.6564,-193.2695"/>
<polygon fill="#191970" stroke="#191970" points="305.9514,-192.0885 299.378,-183.7795 299.3351,-194.3742 305.9514,-192.0885"/>
</g>
<!-- Node17 -->
<g id="node18" class="node">
<title>Node17</title>
<polygon fill="#ffffff" stroke="#bfbfbf" points="336.5024,-165.5 336.5024,-183.5 385.8423,-183.5 385.8423,-165.5 336.5024,-165.5"/>
<text text-anchor="middle" x="361.1724" y="-171.5" font-family="Helvetica,sans-Serif" font-size="10.00" fill="#000000">fstream</text>
</g>
<!-- Node15&#45;&gt;Node17 -->
<g id="edge19" class="edge">
<title>Node15&#45;&gt;Node17</title>
<path fill="none" stroke="#191970" d="M322.7683,-220.4179C329.3209,-212.5833 338.9606,-201.0575 346.9427,-191.5137"/>
<polygon fill="#191970" stroke="#191970" points="349.6806,-193.6957 353.4114,-183.7795 344.311,-189.2048 349.6806,-193.6957"/>
</g>
<!-- Node18 -->
<g id="node19" class="node">
<title>Node18</title>
<polygon fill="#ffffff" stroke="#bfbfbf" points="106.4458,-165.5 106.4458,-183.5 141.8989,-183.5 141.8989,-165.5 106.4458,-165.5"/>
<text text-anchor="middle" x="124.1724" y="-171.5" font-family="Helvetica,sans-Serif" font-size="10.00" fill="#000000">map</text>
</g>
<!-- Node15&#45;&gt;Node18 -->
<g id="edge22" class="edge">
<title>Node15&#45;&gt;Node18</title>
<path fill="none" stroke="#191970" d="M283.1684,-220.4419C251.0403,-211.325 200.1383,-196.8166 156.1724,-184 154.7467,-183.5844 153.2858,-183.1568 151.811,-182.7238"/>
<polygon fill="#191970" stroke="#191970" points="152.6851,-179.3326 142.1032,-179.8571 150.7026,-186.046 152.6851,-179.3326"/>
</g>
<!-- Node15&#45;&gt;Node19 -->
<g id="edge24" class="edge">
<title>Node15&#45;&gt;Node19</title>
<path fill="none" stroke="#191970" d="M347.5378,-220.4179C381.1301,-210.9915 433.7643,-196.2216 470.2281,-185.9895"/>
<polygon fill="#191970" stroke="#191970" points="471.3722,-189.3037 480.0547,-183.232 469.4809,-182.564 471.3722,-189.3037"/>
</g>
<!-- Node15&#45;&gt;Node22 -->
<g id="edge30" class="edge">
<title>Node15&#45;&gt;Node22</title>
<path fill="none" stroke="#191970" d="M270.003,-220.4485C228.0164,-211.9505 163.4796,-198.6751 98.9635,-184.3616"/>
<polygon fill="#191970" stroke="#191970" points="99.5527,-180.9071 89.031,-182.1496 98.031,-187.7397 99.5527,-180.9071"/>
</g>
<!-- Node19&#45;&gt;Node6 -->
<g id="edge29" class="edge">
<title>Node19&#45;&gt;Node6</title>
<path fill="none" stroke="#191970" d="M527.6853,-165.4179C543.4634,-156.7399 567.4752,-143.5334 585.7038,-133.5077"/>
<polygon fill="#191970" stroke="#191970" points="587.5594,-136.4816 594.6349,-128.5956 584.186,-130.3481 587.5594,-136.4816"/>
</g>
<!-- Node19&#45;&gt;Node7 -->
<g id="edge25" class="edge">
<title>Node19&#45;&gt;Node7</title>
<path fill="none" stroke="#191970" d="M516.4888,-165.4673C521.408,-156.547 528.3694,-142.3422 531.1724,-129 534.3246,-113.9949 532.1453,-96.7103 529.4132,-83.813"/>
<polygon fill="#191970" stroke="#191970" points="532.7391,-82.6753 526.9899,-73.776 525.9346,-84.3181 532.7391,-82.6753"/>
</g>
<!-- Node19&#45;&gt;Node10 -->
<g id="edge26" class="edge">
<title>Node19&#45;&gt;Node10</title>
<path fill="none" stroke="#191970" d="M481.4861,-165.4442C453.3508,-156.8594 409.6502,-143.5199 362.6162,-129.1337"/>
<polygon fill="#191970" stroke="#191970" points="363.4382,-125.7251 352.8517,-126.1467 361.3904,-132.4189 363.4382,-125.7251"/>
</g>
<!-- Node20 -->
<g id="node21" class="node">
<title>Node20</title>
<polygon fill="#ffffff" stroke="#bfbfbf" points="370.8696,-110.5 370.8696,-128.5 457.4751,-128.5 457.4751,-110.5 370.8696,-110.5"/>
<text text-anchor="middle" x="414.1724" y="-116.5" font-family="Helvetica,sans-Serif" font-size="10.00" fill="#000000">unordered_map</text>
</g>
<!-- Node19&#45;&gt;Node20 -->
<g id="edge27" class="edge">
<title>Node19&#45;&gt;Node20</title>
<path fill="none" stroke="#191970" d="M495.1548,-165.4179C479.9905,-156.8195 456.9853,-143.7754 439.3649,-133.7844"/>
<polygon fill="#191970" stroke="#191970" points="440.639,-130.4834 430.2137,-128.5956 437.1863,-136.5727 440.639,-130.4834"/>
</g>
<!-- Node21 -->
<g id="node22" class="node">
<title>Node21</title>
<polygon fill="#ffffff" stroke="#bfbfbf" points="475.8843,-110.5 475.8843,-128.5 522.4604,-128.5 522.4604,-110.5 475.8843,-110.5"/>
<text text-anchor="middle" x="499.1724" y="-116.5" font-family="Helvetica,sans-Serif" font-size="10.00" fill="#000000">chrono</text>
</g>
<!-- Node19&#45;&gt;Node21 -->
<g id="edge28" class="edge">
<title>Node19&#45;&gt;Node21</title>
<path fill="none" stroke="#191970" d="M509.1908,-165.4179C507.6023,-158.1372 505.3183,-147.669 503.3322,-138.5659"/>
<polygon fill="#191970" stroke="#191970" points="506.7483,-137.8035 501.197,-128.7795 499.9092,-139.2957 506.7483,-137.8035"/>
</g>
<!-- Node22&#45;&gt;Node1 -->
<g id="edge31" class="edge">
<title>Node22&#45;&gt;Node1</title>
<path fill="none" stroke="#191970" d="M52.2185,-165.4179C48.1177,-157.8998 42.163,-146.9829 37.0886,-137.6799"/>
<polygon fill="#191970" stroke="#191970" points="40.0951,-135.8824 32.2339,-128.7795 33.9498,-139.2344 40.0951,-135.8824"/>
</g>
<!-- Node22&#45;&gt;Node11 -->
<g id="edge32" class="edge">
<title>Node22&#45;&gt;Node11</title>
<path fill="none" stroke="#191970" d="M89.0625,-166.0268C128.102,-155.654 193.8028,-138.1972 232.6665,-127.8711"/>
<polygon fill="#191970" stroke="#191970" points="233.6382,-131.2344 242.4041,-125.2838 231.8407,-124.4692 233.6382,-131.2344"/>
</g>
<!-- Node23&#45;&gt;Node6 -->
<g id="edge34" class="edge">
<title>Node23&#45;&gt;Node6</title>
<path fill="none" stroke="#191970" d="M515.5649,-220.1711C524.7276,-211.0311 539.021,-196.6683 551.1724,-184 566.457,-168.065 583.5851,-149.5889 595.6159,-136.5062"/>
<polygon fill="#191970" stroke="#191970" points="598.5334,-138.5033 602.7152,-128.7687 593.3755,-133.7709 598.5334,-138.5033"/>
</g>
<!-- Node23&#45;&gt;Node19 -->
<g id="edge35" class="edge">
<title>Node23&#45;&gt;Node19</title>
<path fill="none" stroke="#191970" d="M506.998,-220.4179C507.6527,-213.2164 508.5909,-202.8962 509.4121,-193.8632"/>
<polygon fill="#191970" stroke="#191970" points="512.909,-194.0553 510.3288,-183.7795 505.9377,-193.4215 512.909,-194.0553"/>
</g>
</g>
</svg>
        <g id="navigator" transform="translate(0 0)" fill="#404254">
                <rect fill="#f2f5e9" fill-opacity="0.5" stroke="#606060" stroke-width=".5" x="0" y="0" width="60" height="60"/>
                <use id="zoomplus" xlink:href="#zoomPlus" x="17" y="9" onmousedown="handleZoom(evt,'in')"/>
                <use id="zoomminus" xlink:href="#zoomMin" x="42" y="9" onmousedown="handleZoom(evt,'out')"/>
                <use id="reset" xlink:href="#resetDef" x="30" y="36" onmousedown="handleReset()"/>
                <g id="arrowUp" xlink:href="#dirArrow" transform="translate(30 24)" onmousedown="handlePan(0,-1)">
                  <use xlink:href="#rim" fill="#404040">
                        <set attributeName="fill" to="#808080" begin="arrowUp.mouseover" end="arrowUp.mouseout"/>
                  </use>
                  <path fill="none" stroke="white" stroke-width="1.5" d="M0,-3.0v7 M-2.5,-0.5L0,-3.0L2.5,-0.5"/>
                </g>
                <g id="arrowRight" xlink:href="#dirArrow" transform="rotate(90) translate(36 -43)" onmousedown="handlePan(1,0)">
                  <use xlink:href="#rim" fill="#404040">
                        <set attributeName="fill" to="#808080" begin="arrowRight.mouseover" end="arrowRight.mouseout"/>
                  </use>
                  <path fill="none" stroke="white" stroke-width="1.5" d="M0,-3.0v7 M-2.5,-0.5L0,-3.0L2.5,-0.5"/>
                </g>
                <g id="arrowDown" xlink:href="#dirArrow" transform="rotate(180) translate(-30 -48)" onmousedown="handlePan(0,1)">
                  <use xlink:href="#rim" fill="#404040">
                        <set attributeName="fill" to="#808080" begin="arrowDown.mouseover" end="arrowDown.mouseout"/>
                  </use>
                  <path fill="none" stroke="white" stroke-width="1.5" d="M0,-3.0v7 M-2.5,-0.5L0,-3.0L2.5,-0.5"/>
                </g>
                <g id="arrowLeft" xlink:href="#dirArrow" transform="rotate(270) translate(-36 17)" onmousedown="handlePan(-1,0)">
                  <use xlink:href="#rim" fill="#404040">
                        <set attributeName="fill" to="#808080" begin="arrowLeft.mouseover" end="arrowLeft.mouseout"/>
                  </use>
                  <path fill="none" stroke="white" stroke-width="1.5" d="M0,-3.0v7 M-2.5,-0.5L0,-3.0L2.5,-0.5"/>
                </g>
        </g>
        <svg viewBox="0 0 15 15" width="100%" height="30px" preserveAspectRatio="xMaxYMin meet">
         <g id="arrow_out" transform="scale(0.3 0.3)">
          <a xlink:href="capturing_8hpp__incl_org.svg" target="_base">
           <rect id="button" ry="5" rx="5" y="6" x="6" height="38" width="38"
                fill="#f2f5e9" fill-opacity="0.5" stroke="#606060" stroke-width="1.0"/>
           <path id="arrow"
             d="M 11.500037,31.436501 C 11.940474,20.09759 22.043105,11.32322 32.158766,21.979434 L 37.068811,17.246167 C 37.068811,17.246167 37.088388,32 37.088388,32 L 22.160133,31.978069 C 22.160133,31.978069 26.997745,27.140456 26.997745,27.140456 C 18.528582,18.264221 13.291696,25.230495 11.500037,31.436501 z"
             style="fill:#404040;"/>
          </a>
         </g>
        </svg>
</svg>
