<?xml version="1.0" encoding="UTF-8" standalone="no"?>
<!DOCTYPE svg PUBLIC "-//W3C//DTD SVG 1.1//EN"
 "http://www.w3.org/Graphics/SVG/1.1/DTD/svg11.dtd">
<!-- Generated by graphviz version 2.40.1 (20161225.0304)
 -->
<!-- Title: src/capturing.cpp Pages: 1 -->
<svg width="1298pt" height="412pt"
 viewBox="0.00 0.00 1297.81 412.00" xmlns="http://www.w3.org/2000/svg" xmlns:xlink="http://www.w3.org/1999/xlink">
<g id="graph0" class="graph" transform="scale(1 1) rotate(0) translate(4 408)">
<title>src/capturing.cpp</title>
<polygon fill="#ffffff" stroke="transparent" points="-4,4 -4,-408 1293.8085,-408 1293.8085,4 -4,4"/>
<!-- Node0 -->
<g id="node1" class="node">
<title>Node0</title>
<polygon fill="#bfbfbf" stroke="#000000" points="690.4796,-385.5 690.4796,-403.5 782.6271,-403.5 782.6271,-385.5 690.4796,-385.5"/>
<text text-anchor="middle" x="736.5533" y="-391.5" font-family="Helvetica,sans-Serif" font-size="10.00" fill="#000000">src/capturing.cpp</text>
</g>
<!-- Node1 -->
<g id="node2" class="node">
<title>Node1</title>
<polygon fill="#ffffff" stroke="#bfbfbf" points="466.8268,-165.5 466.8268,-183.5 502.2799,-183.5 502.2799,-165.5 466.8268,-165.5"/>
<text text-anchor="middle" x="484.5533" y="-171.5" font-family="Helvetica,sans-Serif" font-size="10.00" fill="#000000">map</text>
</g>
<!-- Node0&#45;&gt;Node1 -->
<g id="edge1" class="edge">
<title>Node0&#45;&gt;Node1</title>
<path fill="none" stroke="#191970" d="M694.5863,-385.4916C597.143,-363.6115 360.5754,-304.6177 317.5533,-239 312.9232,-231.9381 312.4268,-226.7102 317.5533,-220 334.3712,-197.987 413.5886,-184.0809 456.5998,-178.0226"/>
<polygon fill="#191970" stroke="#191970" points="457.2569,-181.4656 466.6947,-176.6513 456.3146,-174.5293 457.2569,-181.4656"/>
</g>
<!-- Node2 -->
<g id="node3" class="node">
<title>Node2</title>
<polygon fill="#ffffff" stroke="#bfbfbf" points="794.5411,-220.5 794.5411,-238.5 840.5655,-238.5 840.5655,-220.5 794.5411,-220.5"/>
<text text-anchor="middle" x="817.5533" y="-226.5" font-family="Helvetica,sans-Serif" font-size="10.00" fill="#000000">pcap.h</text>
</g>
<!-- Node0&#45;&gt;Node2 -->
<g id="edge2" class="edge">
<title>Node0&#45;&gt;Node2</title>
<path fill="none" stroke="#191970" d="M743.5372,-385.4373C750.23,-376.4948 760.3503,-362.274 767.5533,-349 786.0636,-314.8887 802.3389,-272.4639 810.9812,-248.4346"/>
<polygon fill="#191970" stroke="#191970" points="814.3595,-249.3793 814.3954,-238.7845 807.7603,-247.0444 814.3595,-249.3793"/>
</g>
<!-- Node3 -->
<g id="node4" class="node">
<title>Node3</title>
<polygon fill="#ffffff" stroke="#bfbfbf" points="858.3761,-220.5 858.3761,-238.5 902.7306,-238.5 902.7306,-220.5 858.3761,-220.5"/>
<text text-anchor="middle" x="880.5533" y="-226.5" font-family="Helvetica,sans-Serif" font-size="10.00" fill="#000000">thread</text>
</g>
<!-- Node0&#45;&gt;Node3 -->
<g id="edge3" class="edge">
<title>Node0&#45;&gt;Node3</title>
<path fill="none" stroke="#191970" d="M747.7711,-385.2311C758.2414,-376.3669 774.0797,-362.4029 786.5533,-349 818.3043,-314.8837 850.9723,-270.9832 868.189,-247.0233"/>
<polygon fill="#191970" stroke="#191970" points="871.2351,-248.7798 874.1901,-238.6054 865.5353,-244.7163 871.2351,-248.7798"/>
</g>
<!-- Node4 -->
<g id="node5" class="node">
<title>Node4</title>
<polygon fill="#ffffff" stroke="#bfbfbf" points="730.8268,-220.5 730.8268,-238.5 776.2799,-238.5 776.2799,-220.5 730.8268,-220.5"/>
<text text-anchor="middle" x="753.5533" y="-226.5" font-family="Helvetica,sans-Serif" font-size="10.00" fill="#000000">atomic</text>
</g>
<!-- Node0&#45;&gt;Node4 -->
<g id="edge4" class="edge">
<title>Node0&#45;&gt;Node4</title>
<path fill="none" stroke="#191970" d="M739.9822,-385.3054C747.0363,-365.4 762.2937,-316.7422 759.5533,-275 758.9792,-266.2544 757.7907,-256.6238 756.6217,-248.4835"/>
<polygon fill="#191970" stroke="#191970" points="760.0711,-247.8858 755.0995,-238.5298 753.1516,-248.9441 760.0711,-247.8858"/>
</g>
<!-- Node5 -->
<g id="node6" class="node">
<title>Node5</title>
<g id="a_node6"><a xlink:href="tcpip__headers_8hpp.xhtml" target="_top" xlink:title="Protocol headers. ">
<polygon fill="#ffffff" stroke="#000000" points="129.4108,-55.5 129.4108,-73.5 227.6959,-73.5 227.6959,-55.5 129.4108,-55.5"/>
<text text-anchor="middle" x="178.5533" y="-61.5" font-family="Helvetica,sans-Serif" font-size="10.00" fill="#000000">tcpip_headers.hpp</text>
</a>
</g>
</g>
<!-- Node0&#45;&gt;Node5 -->
<g id="edge5" class="edge">
<title>Node0&#45;&gt;Node5</title>
<path fill="none" stroke="#191970" d="M690.0676,-393.17C568.0633,-389.3298 240.9355,-376.6861 136.5533,-349 71.8915,-331.8492 .5533,-351.3977 .5533,-284.5 .5533,-284.5 .5533,-284.5 .5533,-174.5 .5533,-144.6154 -1.66,-131.0495 19.5533,-110 33.8192,-95.8444 80.0287,-83.5645 118.98,-75.3419"/>
<polygon fill="#191970" stroke="#191970" points="120.1303,-78.6787 129.2204,-73.2363 118.7204,-71.8221 120.1303,-78.6787"/>
</g>
<!-- Node7 -->
<g id="node8" class="node">
<title>Node7</title>
<g id="a_node8"><a xlink:href="file_handler_8hpp.xhtml" target="_top" xlink:title="File handler header file. ">
<polygon fill="#ffffff" stroke="#000000" points="1000.194,-330.5 1000.194,-348.5 1082.9127,-348.5 1082.9127,-330.5 1000.194,-330.5"/>
<text text-anchor="middle" x="1041.5533" y="-336.5" font-family="Helvetica,sans-Serif" font-size="10.00" fill="#000000">fileHandler.hpp</text>
</a>
</g>
</g>
<!-- Node0&#45;&gt;Node7 -->
<g id="edge7" class="edge">
<title>Node0&#45;&gt;Node7</title>
<path fill="none" stroke="#191970" d="M782.8763,-386.1467C838.6848,-376.0828 932.1558,-359.2274 990.1437,-348.7706"/>
<polygon fill="#191970" stroke="#191970" points="990.969,-352.1783 1000.1892,-346.9591 989.7267,-345.2894 990.969,-352.1783"/>
</g>
<!-- Node9 -->
<g id="node10" class="node">
<title>Node9</title>
<g id="a_node10"><a xlink:href="ring_buffer_8hpp.xhtml" target="_top" xlink:title="Ring Buffer header file. ">
<polygon fill="#ffffff" stroke="#000000" points="512.506,-275.5 512.506,-293.5 590.6007,-293.5 590.6007,-275.5 512.506,-275.5"/>
<text text-anchor="middle" x="551.5533" y="-281.5" font-family="Helvetica,sans-Serif" font-size="10.00" fill="#000000">ringBuffer.hpp</text>
</a>
</g>
</g>
<!-- Node0&#45;&gt;Node9 -->
<g id="edge9" class="edge">
<title>Node0&#45;&gt;Node9</title>
<path fill="none" stroke="#191970" d="M690.4742,-388.8122C659.5679,-383.0512 619.3953,-371.5947 590.5533,-349 575.4669,-337.1814 564.878,-317.7758 558.5782,-303.3319"/>
<polygon fill="#191970" stroke="#191970" points="561.7442,-301.8254 554.7459,-293.8709 555.2563,-304.4534 561.7442,-301.8254"/>
</g>
<!-- Node16 -->
<g id="node17" class="node">
<title>Node16</title>
<g id="a_node17"><a xlink:href="cache_8hpp.xhtml" target="_top" xlink:title="Cache implementation header file. ">
<polygon fill="#ffffff" stroke="#000000" points="175.4796,-165.5 175.4796,-183.5 237.6271,-183.5 237.6271,-165.5 175.4796,-165.5"/>
<text text-anchor="middle" x="206.5533" y="-171.5" font-family="Helvetica,sans-Serif" font-size="10.00" fill="#000000">cache.hpp</text>
</a>
</g>
</g>
<!-- Node0&#45;&gt;Node16 -->
<g id="edge39" class="edge">
<title>Node0&#45;&gt;Node16</title>
<path fill="none" stroke="#191970" d="M690.4422,-388.6925C580.769,-374.3631 307.423,-335.4642 225.5533,-294 192.9878,-277.5067 179.3895,-272.3531 164.5533,-239 156.6539,-221.2412 171.2896,-202.8405 185.4027,-190.2603"/>
<polygon fill="#191970" stroke="#191970" points="188.0071,-192.648 193.4777,-183.5747 183.543,-187.2561 188.0071,-192.648"/>
</g>
<!-- Node19 -->
<g id="node20" class="node">
<title>Node19</title>
<g id="a_node20"><a xlink:href="netflow_8hpp.xhtml" target="_top" xlink:title="Netflow structure header file. ">
<polygon fill="#ffffff" stroke="#000000" points="28.253,-110.5 28.253,-128.5 94.8536,-128.5 94.8536,-110.5 28.253,-110.5"/>
<text text-anchor="middle" x="61.5533" y="-116.5" font-family="Helvetica,sans-Serif" font-size="10.00" fill="#000000">netflow.hpp</text>
</a>
</g>
</g>
<!-- Node0&#45;&gt;Node19 -->
<g id="edge40" class="edge">
<title>Node0&#45;&gt;Node19</title>
<path fill="none" stroke="#191970" d="M690.2151,-392.1045C534.3198,-383.4362 38.5533,-350.6684 38.5533,-284.5 38.5533,-284.5 38.5533,-284.5 38.5533,-229.5 38.5533,-196.9538 48.3195,-160.1156 55.1241,-138.3987"/>
<polygon fill="#191970" stroke="#191970" points="58.4879,-139.3723 58.258,-128.78 51.8323,-137.2038 58.4879,-139.3723"/>
</g>
<!-- Node21 -->
<g id="node22" class="node">
<title>Node21</title>
<g id="a_node22"><a xlink:href="debug_8hpp.xhtml" target="_top" xlink:title="Debugging functions. ">
<polygon fill="#ffffff" stroke="#000000" points="898.9181,-165.5 898.9181,-183.5 962.1886,-183.5 962.1886,-165.5 898.9181,-165.5"/>
<text text-anchor="middle" x="930.5533" y="-171.5" font-family="Helvetica,sans-Serif" font-size="10.00" fill="#000000">debug.hpp</text>
</a>
</g>
</g>
<!-- Node0&#45;&gt;Node21 -->
<g id="edge41" class="edge">
<title>Node0&#45;&gt;Node21</title>
<path fill="none" stroke="#191970" d="M758.2876,-385.4982C801.4946,-366.2114 896.9917,-316.2753 931.5533,-239 937.9119,-224.7832 937.0672,-206.9792 934.9689,-193.6804"/>
<polygon fill="#191970" stroke="#191970" points="938.3823,-192.8971 933.042,-183.7466 931.5104,-194.2301 938.3823,-192.8971"/>
</g>
<!-- Node25 -->
<g id="node26" class="node">
<title>Node25</title>
<g id="a_node26"><a xlink:href="utils_8hpp.xhtml" target="_top" xlink:title="Small useful functions header file. ">
<polygon fill="#ffffff" stroke="#000000" points="1132.9303,-330.5 1132.9303,-348.5 1186.1764,-348.5 1186.1764,-330.5 1132.9303,-330.5"/>
<text text-anchor="middle" x="1159.5533" y="-336.5" font-family="Helvetica,sans-Serif" font-size="10.00" fill="#000000">utils.hpp</text>
</a>
</g>
</g>
<!-- Node0&#45;&gt;Node25 -->
<g id="edge42" class="edge">
<title>Node0&#45;&gt;Node25</title>
<path fill="none" stroke="#191970" d="M782.8116,-388.741C850.5889,-380.2643 980.8522,-363.8265 1091.5533,-349 1101.6374,-347.6494 1112.5561,-346.1434 1122.6319,-344.7357"/>
<polygon fill="#191970" stroke="#191970" points="1123.34,-348.1708 1132.7566,-343.315 1122.3673,-341.2387 1123.34,-348.1708"/>
</g>
<!-- Node29 -->
<g id="node30" class="node">
<title>Node29</title>
<g id="a_node30"><a xlink:href="capturing_8hpp.xhtml" target="_top" xlink:title="Network traffic capture header file. ">
<polygon fill="#ffffff" stroke="#000000" points="599.253,-330.5 599.253,-348.5 675.8536,-348.5 675.8536,-330.5 599.253,-330.5"/>
<text text-anchor="middle" x="637.5533" y="-336.5" font-family="Helvetica,sans-Serif" font-size="10.00" fill="#000000">capturing.hpp</text>
</a>
</g>
</g>
<!-- Node0&#45;&gt;Node29 -->
<g id="edge47" class="edge">
<title>Node0&#45;&gt;Node29</title>
<path fill="none" stroke="#191970" d="M720.2055,-385.4179C704.5852,-376.7399 680.8135,-363.5334 662.7672,-353.5077"/>
<polygon fill="#191970" stroke="#191970" points="664.3668,-350.3925 653.9255,-348.5956 660.9673,-356.5117 664.3668,-350.3925"/>
</g>
<!-- Node6 -->
<g id="node7" class="node">
<title>Node6</title>
<polygon fill="#ffffff" stroke="#bfbfbf" points="154.4327,-.5 154.4327,-18.5 202.6739,-18.5 202.6739,-.5 154.4327,-.5"/>
<text text-anchor="middle" x="178.5533" y="-6.5" font-family="Helvetica,sans-Serif" font-size="10.00" fill="#000000">stdint.h</text>
</g>
<!-- Node5&#45;&gt;Node6 -->
<g id="edge6" class="edge">
<title>Node5&#45;&gt;Node6</title>
<path fill="none" stroke="#191970" d="M178.5533,-55.4179C178.5533,-48.2164 178.5533,-37.8962 178.5533,-28.8632"/>
<polygon fill="#191970" stroke="#191970" points="182.0534,-28.7794 178.5533,-18.7795 175.0534,-28.7795 182.0534,-28.7794"/>
</g>
<!-- Node8 -->
<g id="node9" class="node">
<title>Node8</title>
<polygon fill="#ffffff" stroke="#bfbfbf" points="1034.8834,-165.5 1034.8834,-183.5 1084.2233,-183.5 1084.2233,-165.5 1034.8834,-165.5"/>
<text text-anchor="middle" x="1059.5533" y="-171.5" font-family="Helvetica,sans-Serif" font-size="10.00" fill="#000000">fstream</text>
</g>
<!-- Node7&#45;&gt;Node8 -->
<g id="edge8" class="edge">
<title>Node7&#45;&gt;Node8</title>
<path fill="none" stroke="#191970" d="M1042.5727,-330.1561C1045.4315,-303.9504 1053.5691,-229.3557 1057.4477,-193.8021"/>
<polygon fill="#191970" stroke="#191970" points="1060.94,-194.062 1058.5452,-183.7414 1053.9813,-193.3028 1060.94,-194.062"/>
</g>
<!-- Node9&#45;&gt;Node2 -->
<g id="edge15" class="edge">
<title>Node9&#45;&gt;Node2</title>
<path fill="none" stroke="#191970" d="M590.7238,-278.0747C635.3963,-270.4847 710.7893,-256.8807 784.3162,-239.1304"/>
<polygon fill="#191970" stroke="#191970" points="785.3219,-242.4878 794.2056,-236.7147 783.6607,-235.6877 785.3219,-242.4878"/>
</g>
<!-- Node9&#45;&gt;Node3 -->
<g id="edge13" class="edge">
<title>Node9&#45;&gt;Node3</title>
<path fill="none" stroke="#191970" d="M590.9463,-280.3402C646.4023,-274.0804 750.7425,-260.8265 848.2838,-239.0194"/>
<polygon fill="#191970" stroke="#191970" points="849.3311,-242.3708 858.3072,-236.7423 847.7803,-235.5447 849.3311,-242.3708"/>
</g>
<!-- Node9&#45;&gt;Node4 -->
<g id="edge11" class="edge">
<title>Node9&#45;&gt;Node4</title>
<path fill="none" stroke="#191970" d="M584.9095,-275.4179C622.603,-265.1548 683.5596,-248.5577 720.9429,-238.3791"/>
<polygon fill="#191970" stroke="#191970" points="722.0937,-241.6932 730.8229,-235.689 720.2547,-234.9391 722.0937,-241.6932"/>
</g>
<!-- Node10 -->
<g id="node11" class="node">
<title>Node10</title>
<polygon fill="#ffffff" stroke="#bfbfbf" points="416.9376,-110.5 416.9376,-128.5 460.1691,-128.5 460.1691,-110.5 416.9376,-110.5"/>
<text text-anchor="middle" x="438.5533" y="-116.5" font-family="Helvetica,sans-Serif" font-size="10.00" fill="#000000">vector</text>
</g>
<!-- Node9&#45;&gt;Node10 -->
<g id="edge10" class="edge">
<title>Node9&#45;&gt;Node10</title>
<path fill="none" stroke="#191970" d="M549.8864,-275.0895C547.0463,-261.4727 540.1031,-236.1429 525.5533,-220 502.6589,-194.5987 479.1933,-210.4782 457.5533,-184 447.0611,-171.1619 442.3628,-152.7152 440.259,-138.8351"/>
<polygon fill="#191970" stroke="#191970" points="443.7308,-138.39 439.0669,-128.8769 436.7804,-139.2221 443.7308,-138.39"/>
</g>
<!-- Node11 -->
<g id="node12" class="node">
<title>Node11</title>
<polygon fill="#ffffff" stroke="#bfbfbf" points="805.9376,-110.5 805.9376,-128.5 849.1691,-128.5 849.1691,-110.5 805.9376,-110.5"/>
<text text-anchor="middle" x="827.5533" y="-116.5" font-family="Helvetica,sans-Serif" font-size="10.00" fill="#000000">mutex</text>
</g>
<!-- Node9&#45;&gt;Node11 -->
<g id="edge12" class="edge">
<title>Node9&#45;&gt;Node11</title>
<path fill="none" stroke="#191970" d="M589.209,-275.4262C616.4826,-267.9411 653.6575,-255.8134 683.5533,-239 735.4219,-209.8291 786.789,-161.2215 811.8165,-135.9273"/>
<polygon fill="#191970" stroke="#191970" points="814.501,-138.1879 818.984,-128.5883 809.493,-133.297 814.501,-138.1879"/>
</g>
<!-- Node12 -->
<g id="node13" class="node">
<title>Node12</title>
<polygon fill="#ffffff" stroke="#bfbfbf" points="326.2482,-220.5 326.2482,-238.5 422.8585,-238.5 422.8585,-220.5 326.2482,-220.5"/>
<text text-anchor="middle" x="374.5533" y="-226.5" font-family="Helvetica,sans-Serif" font-size="10.00" fill="#000000">condition_variable</text>
</g>
<!-- Node9&#45;&gt;Node12 -->
<g id="edge14" class="edge">
<title>Node9&#45;&gt;Node12</title>
<path fill="none" stroke="#191970" d="M522.3254,-275.4179C492.5157,-266.155 446.1014,-251.7325 413.2552,-241.526"/>
<polygon fill="#191970" stroke="#191970" points="414.1187,-238.1293 403.5305,-238.5042 412.0415,-244.814 414.1187,-238.1293"/>
</g>
<!-- Node13 -->
<g id="node14" class="node">
<title>Node13</title>
<g id="a_node14"><a xlink:href="pcapng__blocks_8hpp.xhtml" target="_top" xlink:title="Pcap&#45;ng block structures. ">
<polygon fill="#ffffff" stroke="#000000" points="572.465,-220.5 572.465,-238.5 674.6417,-238.5 674.6417,-220.5 572.465,-220.5"/>
<text text-anchor="middle" x="623.5533" y="-226.5" font-family="Helvetica,sans-Serif" font-size="10.00" fill="#000000">pcapng_blocks.hpp</text>
</a>
</g>
</g>
<!-- Node9&#45;&gt;Node13 -->
<g id="edge16" class="edge">
<title>Node9&#45;&gt;Node13</title>
<path fill="none" stroke="#191970" d="M563.4427,-275.4179C574.2169,-267.1876 590.3235,-254.8839 603.1531,-245.0836"/>
<polygon fill="#191970" stroke="#191970" points="605.5836,-247.6313 611.4057,-238.7795 601.3343,-242.0685 605.5836,-247.6313"/>
</g>
<!-- Node23 -->
<g id="node24" class="node">
<title>Node23</title>
<g id="a_node24"><a xlink:href="tool_8hpp.xhtml" target="_top" xlink:title="Determining applications header file. ">
<polygon fill="#ffffff" stroke="#000000" points="180.7604,-220.5 180.7604,-238.5 232.3463,-238.5 232.3463,-220.5 180.7604,-220.5"/>
<text text-anchor="middle" x="206.5533" y="-226.5" font-family="Helvetica,sans-Serif" font-size="10.00" fill="#000000">tool.hpp</text>
</a>
</g>
</g>
<!-- Node9&#45;&gt;Node23 -->
<g id="edge35" class="edge">
<title>Node9&#45;&gt;Node23</title>
<path fill="none" stroke="#191970" d="M512.3133,-278.2443C444.8929,-267.4962 308.0314,-245.6777 242.7601,-235.2721"/>
<polygon fill="#191970" stroke="#191970" points="242.9753,-231.7623 232.549,-233.6442 241.8733,-238.675 242.9753,-231.7623"/>
</g>
<!-- Node24 -->
<g id="node25" class="node">
<title>Node24</title>
<g id="a_node25"><a xlink:href="ring_buffer_8tpp.xhtml" target="_top" xlink:title="Ring Buffer template functions. ">
<polygon fill="#ffffff" stroke="#000000" points="440.8976,-220.5 440.8976,-238.5 516.2091,-238.5 516.2091,-220.5 440.8976,-220.5"/>
<text text-anchor="middle" x="478.5533" y="-226.5" font-family="Helvetica,sans-Serif" font-size="10.00" fill="#000000">ringBuffer.tpp</text>
</a>
</g>
</g>
<!-- Node9&#45;&gt;Node24 -->
<g id="edge38" class="edge">
<title>Node9&#45;&gt;Node24</title>
<path fill="none" stroke="#191970" d="M539.4989,-275.4179C528.47,-267.1084 511.9302,-254.6469 498.8627,-244.8015"/>
<polygon fill="#191970" stroke="#191970" points="500.9627,-242.0016 490.8697,-238.7795 496.7504,-247.5924 500.9627,-242.0016"/>
</g>
<!-- Node13&#45;&gt;Node1 -->
<g id="edge21" class="edge">
<title>Node13&#45;&gt;Node1</title>
<path fill="none" stroke="#191970" d="M600.6003,-220.4179C576.3663,-210.8289 538.1584,-195.7106 512.2628,-185.4642"/>
<polygon fill="#191970" stroke="#191970" points="513.2491,-182.0904 502.6628,-181.6656 510.6735,-188.5994 513.2491,-182.0904"/>
</g>
<!-- Node13&#45;&gt;Node5 -->
<g id="edge22" class="edge">
<title>Node13&#45;&gt;Node5</title>
<path fill="none" stroke="#191970" d="M615.29,-220.3078C593.8637,-197.1582 533.6983,-136.4251 469.5533,-110 428.7708,-93.1992 310.8032,-78.3794 238.1994,-70.5003"/>
<polygon fill="#191970" stroke="#191970" points="238.1472,-66.9748 227.8311,-69.3888 237.401,-73.9349 238.1472,-66.9748"/>
</g>
<!-- Node13&#45;&gt;Node8 -->
<g id="edge18" class="edge">
<title>Node13&#45;&gt;Node8</title>
<path fill="none" stroke="#191970" d="M674.8502,-223.0291C764.5017,-211.7198 947.4541,-188.641 1024.3101,-178.9458"/>
<polygon fill="#191970" stroke="#191970" points="1024.9467,-182.3933 1034.43,-177.6692 1024.0705,-175.4484 1024.9467,-182.3933"/>
</g>
<!-- Node13&#45;&gt;Node10 -->
<g id="edge20" class="edge">
<title>Node13&#45;&gt;Node10</title>
<path fill="none" stroke="#191970" d="M608.414,-220.4982C576.4334,-201.4827 501.7573,-157.0807 462.948,-134.005"/>
<polygon fill="#191970" stroke="#191970" points="464.286,-130.7286 453.9019,-128.6261 460.7084,-136.7453 464.286,-130.7286"/>
</g>
<!-- Node14 -->
<g id="node15" class="node">
<title>Node14</title>
<polygon fill="#ffffff" stroke="#bfbfbf" points="596.1027,-165.5 596.1027,-183.5 641.004,-183.5 641.004,-165.5 596.1027,-165.5"/>
<text text-anchor="middle" x="618.5533" y="-171.5" font-family="Helvetica,sans-Serif" font-size="10.00" fill="#000000">cstdint</text>
</g>
<!-- Node13&#45;&gt;Node14 -->
<g id="edge17" class="edge">
<title>Node13&#45;&gt;Node14</title>
<path fill="none" stroke="#191970" d="M622.7277,-220.4179C622.073,-213.2164 621.1348,-202.8962 620.3136,-193.8632"/>
<polygon fill="#191970" stroke="#191970" points="623.788,-193.4215 619.3969,-183.7795 616.8167,-194.0553 623.788,-193.4215"/>
</g>
<!-- Node15 -->
<g id="node16" class="node">
<title>Node15</title>
<polygon fill="#ffffff" stroke="#bfbfbf" points="458.3268,-55.5 458.3268,-73.5 498.7799,-73.5 498.7799,-55.5 458.3268,-55.5"/>
<text text-anchor="middle" x="478.5533" y="-61.5" font-family="Helvetica,sans-Serif" font-size="10.00" fill="#000000">string</text>
</g>
<!-- Node13&#45;&gt;Node15 -->
<g id="edge19" class="edge">
<title>Node13&#45;&gt;Node15</title>
<path fill="none" stroke="#191970" d="M632.2449,-220.1681C642.9418,-207.4924 658.6373,-184.2097 649.5533,-165 623.2938,-109.4696 550.6024,-82.5303 508.9374,-71.2995"/>
<polygon fill="#191970" stroke="#191970" points="509.6156,-67.8603 499.0603,-68.7748 507.882,-74.6423 509.6156,-67.8603"/>
</g>
<!-- Node13&#45;&gt;Node16 -->
<g id="edge23" class="edge">
<title>Node13&#45;&gt;Node16</title>
<path fill="none" stroke="#191970" d="M572.421,-222.7559C488.9204,-211.7427 324.9139,-190.1111 248.0966,-179.9793"/>
<polygon fill="#191970" stroke="#191970" points="248.2253,-176.4661 237.8534,-178.6283 247.3099,-183.406 248.2253,-176.4661"/>
</g>
<!-- Node13&#45;&gt;Node21 -->
<g id="edge32" class="edge">
<title>Node13&#45;&gt;Node21</title>
<path fill="none" stroke="#191970" d="M673.9044,-220.4795C733.7969,-209.7495 832.683,-192.0338 888.6111,-182.0141"/>
<polygon fill="#191970" stroke="#191970" points="889.3091,-185.4448 898.5351,-180.2362 888.0746,-178.5545 889.3091,-185.4448"/>
</g>
<!-- Node16&#45;&gt;Node10 -->
<g id="edge25" class="edge">
<title>Node16&#45;&gt;Node10</title>
<path fill="none" stroke="#191970" d="M237.8419,-167.0825C282.0405,-156.6043 362.3161,-137.5735 406.7779,-127.033"/>
<polygon fill="#191970" stroke="#191970" points="407.8207,-130.3828 416.7436,-124.6704 406.2059,-123.5716 407.8207,-130.3828"/>
</g>
<!-- Node16&#45;&gt;Node15 -->
<g id="edge24" class="edge">
<title>Node16&#45;&gt;Node15</title>
<path fill="none" stroke="#191970" d="M228.8122,-165.4982C277.5453,-145.79 393.7089,-98.8121 448.7068,-76.5703"/>
<polygon fill="#191970" stroke="#191970" points="450.2759,-79.7112 458.2343,-72.7173 447.6514,-73.2218 450.2759,-79.7112"/>
</g>
<!-- Node17 -->
<g id="node18" class="node">
<title>Node17</title>
<polygon fill="#ffffff" stroke="#bfbfbf" points="113.2506,-110.5 113.2506,-128.5 199.8561,-128.5 199.8561,-110.5 113.2506,-110.5"/>
<text text-anchor="middle" x="156.5533" y="-116.5" font-family="Helvetica,sans-Serif" font-size="10.00" fill="#000000">unordered_map</text>
</g>
<!-- Node16&#45;&gt;Node17 -->
<g id="edge26" class="edge">
<title>Node16&#45;&gt;Node17</title>
<path fill="none" stroke="#191970" d="M198.2969,-165.4179C191.1025,-157.5041 180.4845,-145.8243 171.758,-136.2251"/>
<polygon fill="#191970" stroke="#191970" points="174.3058,-133.8245 164.9892,-128.7795 169.1262,-138.5332 174.3058,-133.8245"/>
</g>
<!-- Node18 -->
<g id="node19" class="node">
<title>Node18</title>
<polygon fill="#ffffff" stroke="#bfbfbf" points="218.2653,-110.5 218.2653,-128.5 264.8414,-128.5 264.8414,-110.5 218.2653,-110.5"/>
<text text-anchor="middle" x="241.5533" y="-116.5" font-family="Helvetica,sans-Serif" font-size="10.00" fill="#000000">chrono</text>
</g>
<!-- Node16&#45;&gt;Node18 -->
<g id="edge27" class="edge">
<title>Node16&#45;&gt;Node18</title>
<path fill="none" stroke="#191970" d="M212.3329,-165.4179C217.1675,-157.8207 224.2107,-146.7527 230.1709,-137.3866"/>
<polygon fill="#191970" stroke="#191970" points="233.2323,-139.0952 235.6482,-128.7795 227.3266,-135.337 233.2323,-139.0952"/>
</g>
<!-- Node16&#45;&gt;Node19 -->
<g id="edge28" class="edge">
<title>Node16&#45;&gt;Node19</title>
<path fill="none" stroke="#191970" d="M182.6095,-165.4179C158.6819,-156.3419 121.6949,-142.3123 94.9002,-132.1488"/>
<polygon fill="#191970" stroke="#191970" points="96.124,-128.8697 85.5327,-128.5956 93.6414,-135.4147 96.124,-128.8697"/>
</g>
<!-- Node19&#45;&gt;Node5 -->
<g id="edge31" class="edge">
<title>Node19&#45;&gt;Node5</title>
<path fill="none" stroke="#191970" d="M80.8735,-110.4179C99.6726,-101.5807 128.4619,-88.0473 149.9222,-77.9591"/>
<polygon fill="#191970" stroke="#191970" points="151.6435,-81.0174 159.2045,-73.5956 148.6655,-74.6824 151.6435,-81.0174"/>
</g>
<!-- Node19&#45;&gt;Node15 -->
<g id="edge29" class="edge">
<title>Node19&#45;&gt;Node15</title>
<path fill="none" stroke="#191970" d="M95.294,-111.7235C98.4167,-111.1012 101.5389,-110.5151 104.5533,-110 231.3267,-88.3363 383.9917,-73.1093 447.9884,-67.2113"/>
<polygon fill="#191970" stroke="#191970" points="448.5419,-70.6755 458.1828,-66.282 447.9063,-63.7044 448.5419,-70.6755"/>
</g>
<!-- Node20 -->
<g id="node21" class="node">
<title>Node20</title>
<polygon fill="#ffffff" stroke="#bfbfbf" points="38.8268,-55.5 38.8268,-73.5 84.2799,-73.5 84.2799,-55.5 38.8268,-55.5"/>
<text text-anchor="middle" x="61.5533" y="-61.5" font-family="Helvetica,sans-Serif" font-size="10.00" fill="#000000">cstring</text>
</g>
<!-- Node19&#45;&gt;Node20 -->
<g id="edge30" class="edge">
<title>Node19&#45;&gt;Node20</title>
<path fill="none" stroke="#191970" d="M61.5533,-110.4179C61.5533,-103.2164 61.5533,-92.8962 61.5533,-83.8632"/>
<polygon fill="#191970" stroke="#191970" points="65.0534,-83.7794 61.5533,-73.7795 58.0534,-83.7795 65.0534,-83.7794"/>
</g>
<!-- Node21&#45;&gt;Node11 -->
<g id="edge34" class="edge">
<title>Node21&#45;&gt;Node11</title>
<path fill="none" stroke="#191970" d="M913.545,-165.4179C897.219,-156.7001 872.3343,-143.4122 853.5279,-133.3699"/>
<polygon fill="#191970" stroke="#191970" points="855.0568,-130.2186 844.587,-128.5956 851.7595,-136.3934 855.0568,-130.2186"/>
</g>
<!-- Node22 -->
<g id="node23" class="node">
<title>Node22</title>
<polygon fill="#ffffff" stroke="#bfbfbf" points="941.381,-110.5 941.381,-128.5 995.7257,-128.5 995.7257,-110.5 941.381,-110.5"/>
<text text-anchor="middle" x="968.5533" y="-116.5" font-family="Helvetica,sans-Serif" font-size="10.00" fill="#000000">iostream</text>
</g>
<!-- Node21&#45;&gt;Node22 -->
<g id="edge33" class="edge">
<title>Node21&#45;&gt;Node22</title>
<path fill="none" stroke="#191970" d="M936.8283,-165.4179C942.1319,-157.7415 949.8838,-146.5217 956.3972,-137.0945"/>
<polygon fill="#191970" stroke="#191970" points="959.3373,-138.9963 962.1421,-128.7795 953.5782,-135.0173 959.3373,-138.9963"/>
</g>
<!-- Node23&#45;&gt;Node16 -->
<g id="edge37" class="edge">
<title>Node23&#45;&gt;Node16</title>
<path fill="none" stroke="#191970" d="M206.5533,-220.4179C206.5533,-213.2164 206.5533,-202.8962 206.5533,-193.8632"/>
<polygon fill="#191970" stroke="#191970" points="210.0534,-193.7794 206.5533,-183.7795 203.0534,-193.7795 210.0534,-193.7794"/>
</g>
<!-- Node23&#45;&gt;Node19 -->
<g id="edge36" class="edge">
<title>Node23&#45;&gt;Node19</title>
<path fill="none" stroke="#191970" d="M194.6874,-220.4982C169.9401,-201.7244 112.5742,-158.2055 81.847,-134.8952"/>
<polygon fill="#191970" stroke="#191970" points="83.6656,-131.8816 73.5833,-128.6261 79.4348,-137.4585 83.6656,-131.8816"/>
</g>
<!-- Node25&#45;&gt;Node15 -->
<g id="edge44" class="edge">
<title>Node25&#45;&gt;Node15</title>
<path fill="none" stroke="#191970" d="M1186.2069,-335.3421C1211.3927,-330.0365 1248.508,-318.4305 1270.5533,-294 1290.5741,-271.8132 1289.5533,-259.3846 1289.5533,-229.5 1289.5533,-229.5 1289.5533,-229.5 1289.5533,-174.5 1289.5533,-94.1877 656.9791,-69.9353 509.1744,-65.3648"/>
<polygon fill="#191970" stroke="#191970" points="509.1073,-61.8613 499.0063,-65.0581 508.8961,-68.8581 509.1073,-61.8613"/>
</g>
<!-- Node26 -->
<g id="node27" class="node">
<title>Node26</title>
<polygon fill="#ffffff" stroke="#bfbfbf" points="1203.1495,-275.5 1203.1495,-293.5 1261.9571,-293.5 1261.9571,-275.5 1203.1495,-275.5"/>
<text text-anchor="middle" x="1232.5533" y="-281.5" font-family="Helvetica,sans-Serif" font-size="10.00" fill="#000000">exception</text>
</g>
<!-- Node25&#45;&gt;Node26 -->
<g id="edge43" class="edge">
<title>Node25&#45;&gt;Node26</title>
<path fill="none" stroke="#191970" d="M1171.6078,-330.4179C1182.6367,-322.1084 1199.1765,-309.6469 1212.244,-299.8015"/>
<polygon fill="#191970" stroke="#191970" points="1214.3562,-302.5924 1220.237,-293.7795 1210.144,-297.0016 1214.3562,-302.5924"/>
</g>
<!-- Node27 -->
<g id="node28" class="node">
<title>Node27</title>
<polygon fill="#ffffff" stroke="#bfbfbf" points="1072.381,-275.5 1072.381,-293.5 1116.7257,-293.5 1116.7257,-275.5 1072.381,-275.5"/>
<text text-anchor="middle" x="1094.5533" y="-281.5" font-family="Helvetica,sans-Serif" font-size="10.00" fill="#000000">cerrno</text>
</g>
<!-- Node25&#45;&gt;Node27 -->
<g id="edge45" class="edge">
<title>Node25&#45;&gt;Node27</title>
<path fill="none" stroke="#191970" d="M1148.8199,-330.4179C1139.1867,-322.2667 1124.8317,-310.1201 1113.3052,-300.3669"/>
<polygon fill="#191970" stroke="#191970" points="1115.4147,-297.5671 1105.52,-293.7795 1110.893,-302.9108 1115.4147,-297.5671"/>
</g>
<!-- Node28 -->
<g id="node29" class="node">
<title>Node28</title>
<g id="a_node29"><a xlink:href="utils_8tpp.xhtml" target="_top" xlink:title="Small useful templated functions. ">
<polygon fill="#ffffff" stroke="#000000" points="1134.3219,-275.5 1134.3219,-293.5 1184.7848,-293.5 1184.7848,-275.5 1134.3219,-275.5"/>
<text text-anchor="middle" x="1159.5533" y="-281.5" font-family="Helvetica,sans-Serif" font-size="10.00" fill="#000000">utils.tpp</text>
</a>
</g>
</g>
<!-- Node25&#45;&gt;Node28 -->
<g id="edge46" class="edge">
<title>Node25&#45;&gt;Node28</title>
<path fill="none" stroke="#191970" d="M1159.5533,-330.4179C1159.5533,-323.2164 1159.5533,-312.8962 1159.5533,-303.8632"/>
<polygon fill="#191970" stroke="#191970" points="1163.0534,-303.7794 1159.5533,-293.7795 1156.0534,-303.7795 1163.0534,-303.7794"/>
</g>
<!-- Node29&#45;&gt;Node4 -->
<g id="edge50" class="edge">
<title>Node29&#45;&gt;Node4</title>
<path fill="none" stroke="#191970" d="M641.2289,-330.1856C646.9235,-316.6885 658.9754,-291.5064 675.5533,-275 688.9853,-261.626 707.1283,-250.7357 722.5361,-242.9662"/>
<polygon fill="#191970" stroke="#191970" points="724.2258,-246.037 731.7097,-238.5376 721.1825,-239.7332 724.2258,-246.037"/>
</g>
<!-- Node29&#45;&gt;Node5 -->
<g id="edge51" class="edge">
<title>Node29&#45;&gt;Node5</title>
<path fill="none" stroke="#191970" d="M599.2095,-331.975C523.4303,-316.4015 358.2905,-278.755 317.5533,-239 274.1997,-196.6917 313.7883,-155.2844 273.5533,-110 260.1279,-94.8896 240.5858,-84.3454 222.7118,-77.2412"/>
<polygon fill="#191970" stroke="#191970" points="223.5959,-73.8362 213.0028,-73.6411 221.1622,-80.3995 223.5959,-73.8362"/>
</g>
<!-- Node29&#45;&gt;Node9 -->
<g id="edge53" class="edge">
<title>Node29&#45;&gt;Node9</title>
<path fill="none" stroke="#191970" d="M623.3522,-330.4179C610.032,-321.8992 589.8883,-309.0166 574.3241,-299.0627"/>
<polygon fill="#191970" stroke="#191970" points="576.0858,-296.0348 565.7756,-293.5956 572.3144,-301.932 576.0858,-296.0348"/>
</g>
<!-- Node29&#45;&gt;Node13 -->
<g id="edge54" class="edge">
<title>Node29&#45;&gt;Node13</title>
<path fill="none" stroke="#191970" d="M636.4077,-330.4982C634.1413,-312.6913 629.0417,-272.6225 625.9908,-248.6515"/>
<polygon fill="#191970" stroke="#191970" points="629.4495,-248.1042 624.7148,-238.6261 622.5055,-248.988 629.4495,-248.1042"/>
</g>
<!-- Node29&#45;&gt;Node16 -->
<g id="edge55" class="edge">
<title>Node29&#45;&gt;Node16</title>
<path fill="none" stroke="#191970" d="M599.0155,-337.6196C496.3673,-331.6807 220.796,-309.3435 171.5533,-239 160.6818,-223.4699 174.2724,-204.2026 187.5614,-190.7892"/>
<polygon fill="#191970" stroke="#191970" points="190.2762,-193.0408 195.1637,-183.6406 185.481,-187.9412 190.2762,-193.0408"/>
</g>
<!-- Node29&#45;&gt;Node19 -->
<g id="edge52" class="edge">
<title>Node29&#45;&gt;Node19</title>
<path fill="none" stroke="#191970" d="M599.1431,-338.2531C510.0473,-334.8842 291.8636,-323.7601 225.5533,-294 150.6935,-260.4029 93.7844,-174.8926 71.6417,-137.483"/>
<polygon fill="#191970" stroke="#191970" points="74.586,-135.5829 66.5505,-128.6778 68.5261,-139.0868 74.586,-135.5829"/>
</g>
<!-- Node29&#45;&gt;Node21 -->
<g id="edge56" class="edge">
<title>Node29&#45;&gt;Node21</title>
<path fill="none" stroke="#191970" d="M676.2216,-336.1504C735.3827,-328.945 848.1561,-306.6636 911.5533,-239 923.0157,-226.7663 927.597,-207.9606 929.4104,-193.8061"/>
<polygon fill="#191970" stroke="#191970" points="932.9123,-193.9464 930.3498,-183.6661 925.9421,-193.3006 932.9123,-193.9464"/>
</g>
<!-- Node29&#45;&gt;Node22 -->
<g id="edge48" class="edge">
<title>Node29&#45;&gt;Node22</title>
<path fill="none" stroke="#191970" d="M676.0846,-337.3444C722.5201,-333.5106 801.9764,-322.9429 863.5533,-294 925.5591,-264.8555 950.3659,-249.1553 971.5533,-184 976.3259,-169.3234 975.0977,-151.7785 972.9426,-138.6949"/>
<polygon fill="#191970" stroke="#191970" points="976.3067,-137.6635 970.9377,-128.5298 969.439,-139.0181 976.3067,-137.6635"/>
</g>
<!-- Node30 -->
<g id="node31" class="node">
<title>Node30</title>
<polygon fill="#ffffff" stroke="#bfbfbf" points="684.5436,-275.5 684.5436,-293.5 750.5631,-293.5 750.5631,-275.5 684.5436,-275.5"/>
<text text-anchor="middle" x="717.5533" y="-281.5" font-family="Helvetica,sans-Serif" font-size="10.00" fill="#000000">sys/types.h</text>
</g>
<!-- Node29&#45;&gt;Node30 -->
<g id="edge49" class="edge">
<title>Node29&#45;&gt;Node30</title>
<path fill="none" stroke="#191970" d="M650.7637,-330.4179C663.0388,-321.9788 681.5432,-309.257 695.9642,-299.3426"/>
<polygon fill="#191970" stroke="#191970" points="698.0658,-302.1451 704.3233,-293.5956 694.1,-296.3768 698.0658,-302.1451"/>
</g>
</g>
</svg>
