<?xml version="1.0" encoding="UTF-8" standalone="no"?>
<!DOCTYPE svg PUBLIC "-//W3C//DTD SVG 1.1//EN"
 "http://www.w3.org/Graphics/SVG/1.1/DTD/svg11.dtd">
<!-- Generated by graphviz version 2.40.1 (20161225.0304)
 -->
<!-- Title: src/capturing.hpp Pages: 1 -->
<svg width="190pt" height="82pt"
 viewBox="0.00 0.00 190.42 82.00" xmlns="http://www.w3.org/2000/svg" xmlns:xlink="http://www.w3.org/1999/xlink">
<g id="graph0" class="graph" transform="scale(1 1) rotate(0) translate(4 78)">
<title>src/capturing.hpp</title>
<polygon fill="#ffffff" stroke="transparent" points="-4,4 -4,-78 186.416,-78 186.416,4 -4,4"/>
<!-- Node25 -->
<g id="node1" class="node">
<title>Node25</title>
<polygon fill="#bfbfbf" stroke="#000000" points="49.7192,-55.5 49.7192,-73.5 142.4282,-73.5 142.4282,-55.5 49.7192,-55.5"/>
<text text-anchor="middle" x="96.0737" y="-61.5" font-family="Helvetica,sans-Serif" font-size="10.00" fill="#000000">src/capturing.hpp</text>
</g>
<!-- Node26 -->
<g id="node2" class="node">
<title>Node26</title>
<g id="a_node2"><a xlink:href="capturing_8cpp.xhtml" target="_top" xlink:title="Network traffic capture sources. ">
<polygon fill="#ffffff" stroke="#000000" points="0,-.5 0,-18.5 92.1475,-18.5 92.1475,-.5 0,-.5"/>
<text text-anchor="middle" x="46.0737" y="-6.5" font-family="Helvetica,sans-Serif" font-size="10.00" fill="#000000">src/capturing.cpp</text>
</a>
</g>
</g>
<!-- Node25&#45;&gt;Node26 -->
<g id="edge1" class="edge">
<title>Node25&#45;&gt;Node26</title>
<path fill="none" stroke="#191970" d="M81.0854,-48.0129C72.3906,-38.4485 61.7602,-26.7552 54.5096,-18.7795"/>
<polygon fill="#191970" stroke="#191970" points="78.5007,-50.3728 87.8172,-55.4179 83.6803,-45.6641 78.5007,-50.3728"/>
</g>
<!-- Node27 -->
<g id="node3" class="node">
<title>Node27</title>
<g id="a_node3"><a xlink:href="main_8cpp.xhtml" target="_top" xlink:title="Main source file. ">
<polygon fill="#ffffff" stroke="#000000" points="109.7314,-.5 109.7314,-18.5 182.416,-18.5 182.416,-.5 109.7314,-.5"/>
<text text-anchor="middle" x="146.0737" y="-6.5" font-family="Helvetica,sans-Serif" font-size="10.00" fill="#000000">src/main.cpp</text>
</a>
</g>
</g>
<!-- Node25&#45;&gt;Node27 -->
<g id="edge2" class="edge">
<title>Node25&#45;&gt;Node27</title>
<path fill="none" stroke="#191970" d="M111.062,-48.0129C119.7569,-38.4485 130.3872,-26.7552 137.6379,-18.7795"/>
<polygon fill="#191970" stroke="#191970" points="108.4672,-45.6641 104.3302,-55.4179 113.6468,-50.3728 108.4672,-45.6641"/>
</g>
</g>
</svg>
