<?xml version="1.0" encoding="UTF-8" standalone="no"?>
<!DOCTYPE svg PUBLIC "-//W3C//DTD SVG 1.1//EN"
 "http://www.w3.org/Graphics/SVG/1.1/DTD/svg11.dtd">
<!-- Generated by graphviz version 2.40.1 (20161225.0304)
 -->
<!-- Title: startCapture Pages: 1 -->
<svg width="597pt" height="121pt"
 viewBox="0.00 0.00 597.00 121.00" xmlns="http://www.w3.org/2000/svg" xmlns:xlink="http://www.w3.org/1999/xlink">
<g id="graph0" class="graph" transform="scale(1 1) rotate(0) translate(4 117)">
<title>startCapture</title>
<polygon fill="#ffffff" stroke="transparent" points="-4,4 -4,-117 593.0049,-117 593.0049,4 -4,4"/>
<!-- Node23 -->
<g id="node1" class="node">
<title>Node23</title>
<polygon fill="#bfbfbf" stroke="#000000" points="0,-56.5 0,-74.5 71.0244,-74.5 71.0244,-56.5 0,-56.5"/>
<text text-anchor="middle" x="35.5122" y="-62.5" font-family="Helvetica,sans-Serif" font-size="10.00" fill="#000000">startCapture</text>
</g>
<!-- Node24 -->
<g id="node2" class="node">
<title>Node24</title>
<g id="a_node2"><a xlink:href="capturing_8cpp.xhtml#a8ee3282bc313e547dbbb8d4f4010db61" target="_top" xlink:title="Signal handler function. ">
<polygon fill="#ffffff" stroke="#000000" points="258.5068,-94.5 258.5068,-112.5 335.6543,-112.5 335.6543,-94.5 258.5068,-94.5"/>
<text text-anchor="middle" x="297.0806" y="-100.5" font-family="Helvetica,sans-Serif" font-size="10.00" fill="#000000">signalHandler</text>
</a>
</g>
</g>
<!-- Node23&#45;&gt;Node24 -->
<g id="edge1" class="edge">
<title>Node23&#45;&gt;Node24</title>
<path fill="none" stroke="#191970" d="M71.0747,-72.9549C82.5229,-75.2225 95.2834,-77.6116 107.0244,-79.5 154.7468,-87.1754 209.5393,-93.8712 247.9932,-98.2258"/>
<polygon fill="#191970" stroke="#191970" points="248.0587,-101.755 258.3864,-99.3908 248.8386,-94.7986 248.0587,-101.755"/>
</g>
<!-- Node25 -->
<g id="node3" class="node">
<title>Node25</title>
<g id="a_node3"><a xlink:href="debug_8hpp.xhtml#a9340c95e0607709d793dc427c8b630e8" target="_top" xlink:title="Function that prints log messages. ">
<polygon fill="#ffffff" stroke="#000000" points="388.5146,-56.5 388.5146,-74.5 450.4668,-74.5 450.4668,-56.5 388.5146,-56.5"/>
<text text-anchor="middle" x="419.4907" y="-62.5" font-family="Helvetica,sans-Serif" font-size="10.00" fill="#000000">TOOL::log</text>
</a>
</g>
</g>
<!-- Node23&#45;&gt;Node25 -->
<g id="edge11" class="edge">
<title>Node23&#45;&gt;Node25</title>
<path fill="none" stroke="#191970" d="M71.2912,-65.5C142.6834,-65.5 302.4525,-65.5 378.1722,-65.5"/>
<polygon fill="#191970" stroke="#191970" points="378.2808,-69.0001 388.2808,-65.5 378.2808,-62.0001 378.2808,-69.0001"/>
</g>
<!-- Node27 -->
<g id="node5" class="node">
<title>Node27</title>
<g id="a_node5"><a xlink:href="tool__apple_8cpp.xhtml#abffa8d5a00da5ef52e025864e1b86829" target="_top" xlink:title="Sets mac address of g_dev interface into g_devMac. ">
<polygon fill="#ffffff" stroke="#000000" points="107.0244,-.5 107.0244,-18.5 205.6465,-18.5 205.6465,-.5 107.0244,-.5"/>
<text text-anchor="middle" x="156.3354" y="-6.5" font-family="Helvetica,sans-Serif" font-size="10.00" fill="#000000">TOOL::setDevMac</text>
</a>
</g>
</g>
<!-- Node23&#45;&gt;Node27 -->
<g id="edge6" class="edge">
<title>Node23&#45;&gt;Node27</title>
<path fill="none" stroke="#191970" d="M55.1935,-56.378C74.765,-47.3068 105.0124,-33.2876 127.334,-22.9418"/>
<polygon fill="#191970" stroke="#191970" points="129.0616,-25.9988 136.6626,-18.6181 126.1179,-19.6478 129.0616,-25.9988"/>
</g>
<!-- Node24&#45;&gt;Node25 -->
<g id="edge2" class="edge">
<title>Node24&#45;&gt;Node25</title>
<path fill="none" stroke="#191970" d="M326.0901,-94.4945C342.2837,-89.4675 362.6807,-83.1356 380.2796,-77.6724"/>
<polygon fill="#191970" stroke="#191970" points="381.7525,-80.88 390.2652,-74.5725 379.6771,-74.1947 381.7525,-80.88"/>
</g>
<!-- Node25&#45;&gt;Node25 -->
<g id="edge3" class="edge">
<title>Node25&#45;&gt;Node25</title>
<path fill="none" stroke="#191970" d="M401.9085,-74.5134C392.1964,-83.322 398.0571,-93 419.4907,-93 433.5565,-93 440.9156,-88.832 441.5681,-83.477"/>
<polygon fill="#191970" stroke="#191970" points="444.6844,-81.8834 437.073,-74.5134 438.4272,-85.0214 444.6844,-81.8834"/>
</g>
<!-- Node26 -->
<g id="node4" class="node">
<title>Node26</title>
<g id="a_node4"><a xlink:href="debug_8cpp.xhtml#ad6ba0645e5c2cdd3f7533aa4f15dbe71" target="_top" xlink:title="Sets #TOOL::generalLogLevel;. ">
<polygon fill="#ffffff" stroke="#000000" points="486.4668,-56.5 486.4668,-74.5 589.0049,-74.5 589.0049,-56.5 486.4668,-56.5"/>
<text text-anchor="middle" x="537.7358" y="-62.5" font-family="Helvetica,sans-Serif" font-size="10.00" fill="#000000">TOOL::setLogLevel</text>
</a>
</g>
</g>
<!-- Node25&#45;&gt;Node26 -->
<g id="edge4" class="edge">
<title>Node25&#45;&gt;Node26</title>
<path fill="none" stroke="#191970" d="M450.5582,-65.5C458.5127,-65.5 467.3493,-65.5 476.2572,-65.5"/>
<polygon fill="#191970" stroke="#191970" points="476.3018,-69.0001 486.3017,-65.5 476.3017,-62.0001 476.3018,-69.0001"/>
</g>
<!-- Node26&#45;&gt;Node26 -->
<g id="edge5" class="edge">
<title>Node26&#45;&gt;Node26</title>
<path fill="none" stroke="#191970" d="M520.1536,-74.5134C510.4415,-83.322 516.3022,-93 537.7358,-93 551.8016,-93 559.1608,-88.832 559.8132,-83.477"/>
<polygon fill="#191970" stroke="#191970" points="562.9296,-81.8834 555.3181,-74.5134 556.6723,-85.0214 562.9296,-81.8834"/>
</g>
<!-- Node27&#45;&gt;Node27 -->
<g id="edge7" class="edge">
<title>Node27&#45;&gt;Node27</title>
<path fill="none" stroke="#191970" d="M138.4552,-18.5134C128.5785,-27.322 134.5386,-37 156.3354,-37 170.6396,-37 178.1235,-32.832 178.787,-27.477"/>
<polygon fill="#191970" stroke="#191970" points="181.8769,-25.8317 174.2157,-18.5134 175.641,-29.012 181.8769,-25.8317"/>
</g>
<!-- Node28 -->
<g id="node6" class="node">
<title>Node28</title>
<g id="a_node6"><a xlink:href="tool_8cpp.xhtml#aa97bd89bdff783d43ffca0a0335286f1" target="_top" xlink:title="Identifies application, which has opened socket which belongs to some IP, proto and port...">
<polygon fill="#ffffff" stroke="#000000" points="241.6465,-.5 241.6465,-18.5 352.5146,-18.5 352.5146,-.5 241.6465,-.5"/>
<text text-anchor="middle" x="297.0806" y="-6.5" font-family="Helvetica,sans-Serif" font-size="10.00" fill="#000000">TOOL::determineApp</text>
</a>
</g>
</g>
<!-- Node27&#45;&gt;Node28 -->
<g id="edge8" class="edge">
<title>Node27&#45;&gt;Node28</title>
<path fill="none" stroke="#191970" d="M205.9569,-9.5C214.0592,-9.5 222.5645,-9.5 230.9878,-9.5"/>
<polygon fill="#191970" stroke="#191970" points="231.1891,-13.0001 241.189,-9.5 231.189,-6.0001 231.1891,-13.0001"/>
</g>
<!-- Node28&#45;&gt;Node25 -->
<g id="edge10" class="edge">
<title>Node28&#45;&gt;Node25</title>
<path fill="none" stroke="#191970" d="M317.0203,-18.622C336.9379,-27.7339 367.7686,-41.8383 390.4121,-52.1972"/>
<polygon fill="#191970" stroke="#191970" points="389.0099,-55.4045 399.5595,-56.3819 391.922,-49.039 389.0099,-55.4045"/>
</g>
<!-- Node28&#45;&gt;Node28 -->
<g id="edge9" class="edge">
<title>Node28&#45;&gt;Node28</title>
<path fill="none" stroke="#191970" d="M278.9023,-18.5134C268.861,-27.322 274.9204,-37 297.0806,-37 311.6232,-37 319.2318,-32.832 319.9063,-27.477"/>
<polygon fill="#191970" stroke="#191970" points="322.969,-25.78 315.2588,-18.5134 316.7547,-29.0022 322.969,-25.78"/>
</g>
</g>
</svg>
