<?xml version="1.0" encoding="UTF-8" standalone="no"?>
<!DOCTYPE svg PUBLIC "-//W3C//DTD SVG 1.1//EN"
 "http://www.w3.org/Graphics/SVG/1.1/DTD/svg11.dtd">
<!-- Generated by graphviz version 2.40.1 (20161225.0304)
 -->
<!-- Title: parsePorts Pages: 1 -->
<svg width="393pt" height="82pt"
 viewBox="0.00 0.00 392.55 82.00" xmlns="http://www.w3.org/2000/svg" xmlns:xlink="http://www.w3.org/1999/xlink">
<g id="graph0" class="graph" transform="scale(1 1) rotate(0) translate(4 78)">
<title>parsePorts</title>
<polygon fill="#ffffff" stroke="transparent" points="-4,4 -4,-78 388.5459,-78 388.5459,4 -4,4"/>
<!-- Node13 -->
<g id="node1" class="node">
<title>Node13</title>
<polygon fill="#bfbfbf" stroke="#000000" points="0,-27.5 0,-45.5 64.3545,-45.5 64.3545,-27.5 0,-27.5"/>
<text text-anchor="middle" x="32.1772" y="-33.5" font-family="Helvetica,sans-Serif" font-size="10.00" fill="#000000">parsePorts</text>
</g>
<!-- Node14 -->
<g id="node2" class="node">
<title>Node14</title>
<g id="a_node2"><a xlink:href="class_n_a_m_o_n_1_1_netflow.xhtml#acd9ecb6f7bac62db7294f5dd76094b38" target="_top" xlink:title="Get method for NAMON::Netflow::proto. ">
<polygon fill="#ffffff" stroke="#000000" points="100.3545,-55.5 100.3545,-73.5 235.8369,-73.5 235.8369,-55.5 100.3545,-55.5"/>
<text text-anchor="middle" x="168.0957" y="-61.5" font-family="Helvetica,sans-Serif" font-size="10.00" fill="#000000">NAMON::Netflow::getProto</text>
</a>
</g>
</g>
<!-- Node13&#45;&gt;Node14 -->
<g id="edge1" class="edge">
<title>Node13&#45;&gt;Node14</title>
<path fill="none" stroke="#191970" d="M64.388,-43.1356C79.35,-46.2179 97.5437,-49.9659 114.4898,-53.4569"/>
<polygon fill="#191970" stroke="#191970" points="113.7888,-56.8859 124.2894,-55.4756 115.2013,-50.0299 113.7888,-56.8859"/>
</g>
<!-- Node15 -->
<g id="node3" class="node">
<title>Node15</title>
<g id="a_node3"><a xlink:href="debug_8hpp.xhtml#a9f1c1527f51faaaca3be83b5a8928ca5" target="_top" xlink:title="Function that prints log messages. ">
<polygon fill="#ffffff" stroke="#000000" points="132.0342,-.5 132.0342,-18.5 204.1572,-18.5 204.1572,-.5 132.0342,-.5"/>
<text text-anchor="middle" x="168.0957" y="-6.5" font-family="Helvetica,sans-Serif" font-size="10.00" fill="#000000">NAMON::log</text>
</a>
</g>
</g>
<!-- Node13&#45;&gt;Node15 -->
<g id="edge2" class="edge">
<title>Node13&#45;&gt;Node15</title>
<path fill="none" stroke="#191970" d="M64.388,-30.1014C81.556,-26.691 102.979,-22.4353 121.8898,-18.6787"/>
<polygon fill="#191970" stroke="#191970" points="122.6768,-22.0909 131.8032,-16.7095 121.3129,-15.225 122.6768,-22.0909"/>
</g>
<!-- Node15&#45;&gt;Node15 -->
<g id="edge3" class="edge">
<title>Node15&#45;&gt;Node15</title>
<path fill="none" stroke="#191970" d="M148.1294,-18.5134C137.1004,-27.322 143.7559,-37 168.0957,-37 184.449,-37 192.8193,-32.6312 193.2066,-27.0926"/>
<polygon fill="#191970" stroke="#191970" points="196.2066,-25.2896 188.062,-18.5134 190.2032,-28.8896 196.2066,-25.2896"/>
</g>
<!-- Node16 -->
<g id="node4" class="node">
<title>Node16</title>
<g id="a_node4"><a xlink:href="debug_8cpp.xhtml#a1a395cd89e6df6f9fd16ed25601ac351" target="_top" xlink:title="Sets #NAMON::generalLogLevel;. ">
<polygon fill="#ffffff" stroke="#000000" points="271.8369,-.5 271.8369,-18.5 384.5459,-18.5 384.5459,-.5 271.8369,-.5"/>
<text text-anchor="middle" x="328.1914" y="-6.5" font-family="Helvetica,sans-Serif" font-size="10.00" fill="#000000">NAMON::setLogLevel</text>
</a>
</g>
</g>
<!-- Node15&#45;&gt;Node16 -->
<g id="edge4" class="edge">
<title>Node15&#45;&gt;Node16</title>
<path fill="none" stroke="#191970" d="M204.4239,-9.5C221.3146,-9.5 241.9517,-9.5 261.4959,-9.5"/>
<polygon fill="#191970" stroke="#191970" points="261.5911,-13.0001 271.591,-9.5 261.591,-6.0001 261.5911,-13.0001"/>
</g>
<!-- Node16&#45;&gt;Node16 -->
<g id="edge5" class="edge">
<title>Node16&#45;&gt;Node16</title>
<path fill="none" stroke="#191970" d="M304.3511,-18.5134C291.1821,-27.322 299.1289,-37 328.1914,-37 348.1719,-37 358.1719,-32.4256 358.1914,-26.7043"/>
<polygon fill="#191970" stroke="#191970" points="360.8394,-24.4021 352.0317,-18.5134 355.2448,-28.6093 360.8394,-24.4021"/>
</g>
</g>
</svg>
