<?xml version="1.0" encoding="UTF-8" standalone="no"?>
<!DOCTYPE svg PUBLIC "-//W3C//DTD SVG 1.1//EN"
 "http://www.w3.org/Graphics/SVG/1.1/DTD/svg11.dtd">
<!-- Generated by graphviz version 2.40.1 (20161225.0304)
 -->
<!-- Title: packetHandler Pages: 1 -->
<svg width="406pt" height="82pt"
 viewBox="0.00 0.00 406.28 82.00" xmlns="http://www.w3.org/2000/svg" xmlns:xlink="http://www.w3.org/1999/xlink">
<g id="graph0" class="graph" transform="scale(1 1) rotate(0) translate(4 78)">
<title>packetHandler</title>
<polygon fill="#ffffff" stroke="transparent" points="-4,4 -4,-78 402.2813,-78 402.2813,4 -4,4"/>
<!-- Node4 -->
<g id="node1" class="node">
<title>Node4</title>
<polygon fill="#bfbfbf" stroke="#000000" points="0,-27.5 0,-45.5 80.4824,-45.5 80.4824,-27.5 0,-27.5"/>
<text text-anchor="middle" x="40.2412" y="-33.5" font-family="Helvetica,sans-Serif" font-size="10.00" fill="#000000">packetHandler</text>
</g>
<!-- Node5 -->
<g id="node2" class="node">
<title>Node5</title>
<g id="a_node2"><a xlink:href="class_n_a_m_o_n_1_1_ring_buffer.xhtml#a073b24109874e113e6edf54f9c5c0e0a" target="_top" xlink:title="Saves new structure into the buffer. ">
<polygon fill="#ffffff" stroke="#000000" points="116.4824,-55.5 116.4824,-73.5 249.5723,-73.5 249.5723,-55.5 116.4824,-55.5"/>
<text text-anchor="middle" x="183.0273" y="-61.5" font-family="Helvetica,sans-Serif" font-size="10.00" fill="#000000">NAMON::RingBuffer::push</text>
</a>
</g>
</g>
<!-- Node4&#45;&gt;Node5 -->
<g id="edge1" class="edge">
<title>Node4&#45;&gt;Node5</title>
<path fill="none" stroke="#191970" d="M80.7761,-44.4488C95.1821,-47.2738 111.6638,-50.5058 127.1268,-53.5381"/>
<polygon fill="#191970" stroke="#191970" points="126.6224,-57.0057 137.1091,-55.4955 127.9695,-50.1366 126.6224,-57.0057"/>
</g>
<!-- Node6 -->
<g id="node3" class="node">
<title>Node6</title>
<g id="a_node3"><a xlink:href="debug_8hpp.xhtml#a9f1c1527f51faaaca3be83b5a8928ca5" target="_top" xlink:title="Function that prints log messages. ">
<polygon fill="#ffffff" stroke="#000000" points="146.9658,-.5 146.9658,-18.5 219.0889,-18.5 219.0889,-.5 146.9658,-.5"/>
<text text-anchor="middle" x="183.0273" y="-6.5" font-family="Helvetica,sans-Serif" font-size="10.00" fill="#000000">NAMON::log</text>
</a>
</g>
</g>
<!-- Node4&#45;&gt;Node6 -->
<g id="edge2" class="edge">
<title>Node4&#45;&gt;Node6</title>
<path fill="none" stroke="#191970" d="M80.7761,-28.8351C98.2256,-25.5355 118.7206,-21.66 136.7618,-18.2485"/>
<polygon fill="#191970" stroke="#191970" points="137.6016,-21.6518 146.7771,-16.3547 136.3009,-14.7737 137.6016,-21.6518"/>
</g>
<!-- Node6&#45;&gt;Node6 -->
<g id="edge3" class="edge">
<title>Node6&#45;&gt;Node6</title>
<path fill="none" stroke="#191970" d="M161.869,-18.5134C150.1816,-27.322 157.2344,-37 183.0273,-37 200.357,-37 209.227,-32.6312 209.6374,-27.0926"/>
<polygon fill="#191970" stroke="#191970" points="212.5031,-25.0763 204.1856,-18.5134 206.5951,-28.8307 212.5031,-25.0763"/>
</g>
<!-- Node7 -->
<g id="node4" class="node">
<title>Node7</title>
<g id="a_node4"><a xlink:href="debug_8cpp.xhtml#a1a395cd89e6df6f9fd16ed25601ac351" target="_top" xlink:title="Sets #NAMON::generalLogLevel;. ">
<polygon fill="#ffffff" stroke="#000000" points="285.5723,-.5 285.5723,-18.5 398.2813,-18.5 398.2813,-.5 285.5723,-.5"/>
<text text-anchor="middle" x="341.9268" y="-6.5" font-family="Helvetica,sans-Serif" font-size="10.00" fill="#000000">NAMON::setLogLevel</text>
</a>
</g>
</g>
<!-- Node6&#45;&gt;Node7 -->
<g id="edge4" class="edge">
<title>Node6&#45;&gt;Node7</title>
<path fill="none" stroke="#191970" d="M219.4821,-9.5C236.0252,-9.5 256.1273,-9.5 275.2212,-9.5"/>
<polygon fill="#191970" stroke="#191970" points="275.3918,-13.0001 285.3918,-9.5 275.3917,-6.0001 275.3918,-13.0001"/>
</g>
<!-- Node7&#45;&gt;Node7 -->
<g id="edge5" class="edge">
<title>Node7&#45;&gt;Node7</title>
<path fill="none" stroke="#191970" d="M318.3844,-18.5134C305.3801,-27.322 313.2275,-37 341.9268,-37 361.6575,-37 371.5325,-32.4256 371.5517,-26.7043"/>
<polygon fill="#191970" stroke="#191970" points="374.241,-24.4551 365.4691,-18.5134 368.6212,-28.6285 374.241,-24.4551"/>
</g>
</g>
</svg>
