<?xml version="1.0" encoding="UTF-8" standalone="no"?>
<!DOCTYPE svg PUBLIC "-//W3C//DTD SVG 1.1//EN"
 "http://www.w3.org/Graphics/SVG/1.1/DTD/svg11.dtd">
<!-- Generated by graphviz version 2.40.1 (20161225.0304)
 -->
<!-- Title: getPacketDirection Pages: 1 -->
<svg width="365pt" height="45pt"
 viewBox="0.00 0.00 364.76 45.00" xmlns="http://www.w3.org/2000/svg" xmlns:xlink="http://www.w3.org/1999/xlink">
<g id="graph0" class="graph" transform="scale(1 1) rotate(0) translate(4 41)">
<title>getPacketDirection</title>
<polygon fill="#ffffff" stroke="transparent" points="-4,4 -4,-41 360.7627,-41 360.7627,4 -4,4"/>
<!-- Node0 -->
<g id="node1" class="node">
<title>Node0</title>
<polygon fill="#bfbfbf" stroke="#000000" points="0,-.5 0,-18.5 99.9307,-18.5 99.9307,-.5 0,-.5"/>
<text text-anchor="middle" x="49.9653" y="-6.5" font-family="Helvetica,sans-Serif" font-size="10.00" fill="#000000">getPacketDirection</text>
</g>
<!-- Node1 -->
<g id="node2" class="node">
<title>Node1</title>
<g id="a_node2"><a xlink:href="debug_8hpp.xhtml#a9f1c1527f51faaaca3be83b5a8928ca5" target="_top" xlink:title="Function that prints log messages. ">
<polygon fill="#ffffff" stroke="#000000" points="135.9307,-.5 135.9307,-18.5 208.0537,-18.5 208.0537,-.5 135.9307,-.5"/>
<text text-anchor="middle" x="171.9922" y="-6.5" font-family="Helvetica,sans-Serif" font-size="10.00" fill="#000000">NAMON::log</text>
</a>
</g>
</g>
<!-- Node0&#45;&gt;Node1 -->
<g id="edge1" class="edge">
<title>Node0&#45;&gt;Node1</title>
<path fill="none" stroke="#191970" d="M99.9504,-9.5C108.4668,-9.5 117.2797,-9.5 125.6953,-9.5"/>
<polygon fill="#191970" stroke="#191970" points="125.717,-13.0001 135.7169,-9.5 125.7169,-6.0001 125.717,-13.0001"/>
</g>
<!-- Node1&#45;&gt;Node1 -->
<g id="edge2" class="edge">
<title>Node1&#45;&gt;Node1</title>
<path fill="none" stroke="#191970" d="M153.8139,-18.5134C143.7726,-27.322 149.832,-37 171.9922,-37 186.5348,-37 194.1434,-32.832 194.818,-27.477"/>
<polygon fill="#191970" stroke="#191970" points="197.8806,-25.78 190.1704,-18.5134 191.6663,-29.0022 197.8806,-25.78"/>
</g>
<!-- Node2 -->
<g id="node3" class="node">
<title>Node2</title>
<g id="a_node3"><a xlink:href="debug_8cpp.xhtml#a1a395cd89e6df6f9fd16ed25601ac351" target="_top" xlink:title="Sets #NAMON::generalLogLevel;. ">
<polygon fill="#ffffff" stroke="#000000" points="244.0537,-.5 244.0537,-18.5 356.7627,-18.5 356.7627,-.5 244.0537,-.5"/>
<text text-anchor="middle" x="300.4082" y="-6.5" font-family="Helvetica,sans-Serif" font-size="10.00" fill="#000000">NAMON::setLogLevel</text>
</a>
</g>
</g>
<!-- Node1&#45;&gt;Node2 -->
<g id="edge3" class="edge">
<title>Node1&#45;&gt;Node2</title>
<path fill="none" stroke="#191970" d="M208.1049,-9.5C216.1899,-9.5 225.0151,-9.5 233.8991,-9.5"/>
<polygon fill="#191970" stroke="#191970" points="233.9181,-13.0001 243.9181,-9.5 233.9181,-6.0001 233.9181,-13.0001"/>
</g>
<!-- Node2&#45;&gt;Node2 -->
<g id="edge4" class="edge">
<title>Node2&#45;&gt;Node2</title>
<path fill="none" stroke="#191970" d="M281.3359,-18.5134C270.8008,-27.322 277.1582,-37 300.4082,-37 315.666,-37 323.6488,-32.832 324.3566,-27.477"/>
<polygon fill="#191970" stroke="#191970" points="327.3336,-25.6253 319.4805,-18.5134 321.1846,-28.9703 327.3336,-25.6253"/>
</g>
</g>
</svg>
