<?xml version="1.0" encoding="UTF-8" standalone="no"?>
<!DOCTYPE svg PUBLIC "-//W3C//DTD SVG 1.1//EN"
 "http://www.w3.org/Graphics/SVG/1.1/DTD/svg11.dtd">
<!-- Generated by graphviz version 2.40.1 (20161225.0304)
 -->
<!-- Title: TOOL::EnhancedPacketBlock::write Pages: 1 -->
<svg width="333pt" height="50pt"
 viewBox="0.00 0.00 333.02 50.00" xmlns="http://www.w3.org/2000/svg" xmlns:xlink="http://www.w3.org/1999/xlink">
<g id="graph0" class="graph" transform="scale(1 1) rotate(0) translate(4 46)">
<title>TOOL::EnhancedPacketBlock::write</title>
<polygon fill="#ffffff" stroke="transparent" points="-4,4 -4,-46 329.0166,-46 329.0166,4 -4,4"/>
<!-- Node10 -->
<g id="node1" class="node">
<title>Node10</title>
<polygon fill="#bfbfbf" stroke="#000000" points="0,-.5 0,-28.5 148.6709,-28.5 148.6709,-.5 0,-.5"/>
<text text-anchor="start" x="8" y="-16.5" font-family="Helvetica,sans-Serif" font-size="10.00" fill="#000000">TOOL::EnhancedPacketBlock</text>
<text text-anchor="middle" x="74.3354" y="-6.5" font-family="Helvetica,sans-Serif" font-size="10.00" fill="#000000">::write</text>
</g>
<!-- Node11 -->
<g id="node2" class="node">
<title>Node11</title>
<g id="a_node2"><a xlink:href="pcapng__blocks_8hpp.xhtml#a75a7bcda686113f2f624591c4b496013" target="_top" xlink:title="Computes number of padding bytes to be inserted in order to reach multiple of x. ">
<polygon fill="#ffffff" stroke="#000000" points="184.6709,-5.5 184.6709,-23.5 325.0166,-23.5 325.0166,-5.5 184.6709,-5.5"/>
<text text-anchor="middle" x="254.8438" y="-11.5" font-family="Helvetica,sans-Serif" font-size="10.00" fill="#000000">TOOL::computePaddingLen</text>
</a>
</g>
</g>
<!-- Node10&#45;&gt;Node11 -->
<g id="edge1" class="edge">
<title>Node10&#45;&gt;Node11</title>
<path fill="none" stroke="#191970" d="M148.7972,-14.5C157.313,-14.5 166.0224,-14.5 174.6093,-14.5"/>
<polygon fill="#191970" stroke="#191970" points="174.6145,-18.0001 184.6144,-14.5 174.6144,-11.0001 174.6145,-18.0001"/>
</g>
<!-- Node11&#45;&gt;Node11 -->
<g id="edge2" class="edge">
<title>Node11&#45;&gt;Node11</title>
<path fill="none" stroke="#191970" d="M228.0234,-23.5134C213.2083,-32.322 222.1484,-42 254.8438,-42 278.3435,-42 289.5713,-37.0003 288.5271,-30.9173"/>
<polygon fill="#191970" stroke="#191970" points="291.0291,-28.468 281.6641,-23.5134 285.8954,-33.2267 291.0291,-28.468"/>
</g>
</g>
</svg>
