<?xml version="1.0" encoding="UTF-8" standalone="no"?>
<!DOCTYPE svg PUBLIC "-//W3C//DTD SVG 1.1//EN"
 "http://www.w3.org/Graphics/SVG/1.1/DTD/svg11.dtd">
<!-- Generated by graphviz version 2.40.1 (20161225.0304)
 -->
<!-- Title: TOOL::RingBuffer::push Pages: 1 -->
<svg width="305pt" height="74pt"
 viewBox="0.00 0.00 304.56 74.00" xmlns="http://www.w3.org/2000/svg" xmlns:xlink="http://www.w3.org/1999/xlink">
<g id="graph0" class="graph" transform="scale(1 1) rotate(0) translate(4 70)">
<title>TOOL::RingBuffer::push</title>
<polygon fill="#ffffff" stroke="transparent" points="-4,4 -4,-70 300.5596,-70 300.5596,4 -4,4"/>
<!-- Node14 -->
<g id="node1" class="node">
<title>Node14</title>
<polygon fill="#bfbfbf" stroke="#000000" points="0,-26.5 0,-44.5 122.9189,-44.5 122.9189,-26.5 0,-26.5"/>
<text text-anchor="middle" x="61.4595" y="-32.5" font-family="Helvetica,sans-Serif" font-size="10.00" fill="#000000">TOOL::RingBuffer::push</text>
</g>
<!-- Node15 -->
<g id="node2" class="node">
<title>Node15</title>
<g id="a_node2"><a xlink:href="capturing_8hpp.xhtml#a5b519a162338237e3935db3c8a3f8638" target="_top" xlink:title="Function that processes every packet. ">
<polygon fill="#ffffff" stroke="#000000" points="187.498,-47.5 187.498,-65.5 267.9805,-65.5 267.9805,-47.5 187.498,-47.5"/>
<text text-anchor="middle" x="227.7393" y="-53.5" font-family="Helvetica,sans-Serif" font-size="10.00" fill="#000000">packetHandler</text>
</a>
</g>
</g>
<!-- Node14&#45;&gt;Node15 -->
<g id="edge1" class="edge">
<title>Node14&#45;&gt;Node15</title>
<path fill="none" stroke="#191970" d="M133.5412,-44.6034C152.0188,-46.937 171.2383,-49.3643 187.461,-51.4131"/>
<polygon fill="#191970" stroke="#191970" points="133.7357,-41.1003 123.3759,-43.3196 132.8585,-48.0451 133.7357,-41.1003"/>
</g>
<!-- Node16 -->
<g id="node3" class="node">
<title>Node16</title>
<g id="a_node3"><a xlink:href="class_t_o_o_l_1_1_ring_buffer.xhtml#a24d1db9b6bebde32dfe3f0c3d36bc118" target="_top" xlink:title="Get method for TOOL::RingBuffer::droppedElem. ">
<polygon fill="#ffffff" stroke="#000000" points="158.9189,-.5 158.9189,-28.5 296.5596,-28.5 296.5596,-.5 158.9189,-.5"/>
<text text-anchor="start" x="166.9189" y="-16.5" font-family="Helvetica,sans-Serif" font-size="10.00" fill="#000000">TOOL::RingBuffer&lt; Netflow</text>
<text text-anchor="middle" x="227.7393" y="-6.5" font-family="Helvetica,sans-Serif" font-size="10.00" fill="#000000"> &gt;::getDroppedElem</text>
</a>
</g>
</g>
<!-- Node14&#45;&gt;Node16 -->
<g id="edge2" class="edge">
<title>Node14&#45;&gt;Node16</title>
<path fill="none" stroke="#191970" d="M133.508,-26.4008C141.8961,-25.3414 150.4376,-24.2627 158.7827,-23.2087"/>
<polygon fill="#191970" stroke="#191970" points="132.8585,-22.9549 123.3759,-27.6804 133.7357,-29.8997 132.8585,-22.9549"/>
</g>
</g>
</svg>
