<?xml version="1.0" encoding="UTF-8" standalone="no"?>
<!DOCTYPE svg PUBLIC "-//W3C//DTD SVG 1.1//EN"
 "http://www.w3.org/Graphics/SVG/1.1/DTD/svg11.dtd">
<!-- Generated by graphviz version 2.40.1 (20161225.0304)
 -->
<!-- Title: NAMON::TTree Pages: 1 -->
<svg width="276pt" height="92pt"
 viewBox="0.00 0.00 275.91 92.00" xmlns="http://www.w3.org/2000/svg" xmlns:xlink="http://www.w3.org/1999/xlink">
<g id="graph0" class="graph" transform="scale(1 1) rotate(0) translate(4 88)">
<title>NAMON::TTree</title>
<polygon fill="#ffffff" stroke="transparent" points="-4,4 -4,-88 271.9111,-88 271.9111,4 -4,4"/>
<!-- Node2 -->
<g id="node1" class="node">
<title>Node2</title>
<polygon fill="#bfbfbf" stroke="#000000" points="91.2783,-.5 91.2783,-18.5 176.3604,-18.5 176.3604,-.5 91.2783,-.5"/>
<text text-anchor="middle" x="133.8193" y="-6.5" font-family="Helvetica,sans-Serif" font-size="10.00" fill="#000000">NAMON::TTree</text>
</g>
<!-- Node3 -->
<g id="node2" class="node">
<title>Node3</title>
<g id="a_node2"><a xlink:href="class_n_a_m_o_n_1_1_t_entry_or_t_tree.xhtml" target="_top" xlink:title="Base class which a decision tree (cache) is made of. ">
<polygon fill="#ffffff" stroke="#000000" points="0,-65.5 0,-83.5 125.6387,-83.5 125.6387,-65.5 0,-65.5"/>
<text text-anchor="middle" x="62.8193" y="-71.5" font-family="Helvetica,sans-Serif" font-size="10.00" fill="#000000">NAMON::TEntryOrTTree</text>
</a>
</g>
</g>
<!-- Node3&#45;&gt;Node2 -->
<g id="edge1" class="edge">
<title>Node3&#45;&gt;Node2</title>
<path fill="none" stroke="#191970" d="M80.4283,-58.3791C94.0037,-45.9509 112.305,-29.1962 123.5712,-18.8821"/>
<polygon fill="#191970" stroke="#191970" points="77.7041,-56.1279 72.6916,-65.462 82.4309,-61.291 77.7041,-56.1279"/>
</g>
<!-- Node4 -->
<g id="node3" class="node">
<title>Node4</title>
<g id="a_node3"><a xlink:href="union_n_a_m_o_n_1_1_common_value.xhtml" target="_top" xlink:title="An union which stores values which are compared at different levels. ">
<polygon fill="#ffffff" stroke="#000000" points="143.7275,-65.5 143.7275,-83.5 267.9111,-83.5 267.9111,-65.5 143.7275,-65.5"/>
<text text-anchor="middle" x="205.8193" y="-71.5" font-family="Helvetica,sans-Serif" font-size="10.00" fill="#000000">NAMON::CommonValue</text>
</a>
</g>
</g>
<!-- Node4&#45;&gt;Node2 -->
<g id="edge2" class="edge">
<title>Node4&#45;&gt;Node2</title>
<path fill="none" stroke="#9a32cd" stroke-dasharray="5,2" d="M188.3507,-58.7297C174.5465,-46.2676 155.7445,-29.2936 144.2119,-18.8821"/>
<polygon fill="#9a32cd" stroke="#9a32cd" points="186.04,-61.3589 195.808,-65.462 190.7307,-56.163 186.04,-61.3589"/>
<text text-anchor="middle" x="180.2085" y="-39" font-family="Helvetica,sans-Serif" font-size="10.00" fill="#000000"> cv</text>
</g>
</g>
</svg>
