<?xml version="1.0" encoding="UTF-8" standalone="no"?>
<!DOCTYPE svg PUBLIC "-//W3C//DTD SVG 1.1//EN"
 "http://www.w3.org/Graphics/SVG/1.1/DTD/svg11.dtd">
<!-- Generated by graphviz version 2.40.1 (20161225.0304)
 -->
<!-- Title: NAMON::Cache::find Pages: 1 -->
<svg width="307pt" height="64pt"
 viewBox="0.00 0.00 307.19 64.00" xmlns="http://www.w3.org/2000/svg" xmlns:xlink="http://www.w3.org/1999/xlink">
<g id="graph0" class="graph" transform="scale(1 1) rotate(0) translate(4 60)">
<title>NAMON::Cache::find</title>
<polygon fill="#ffffff" stroke="transparent" points="-4,4 -4,-60 303.1914,-60 303.1914,4 -4,4"/>
<!-- Node2 -->
<g id="node1" class="node">
<title>Node2</title>
<polygon fill="#bfbfbf" stroke="#000000" points="0,-18.5 0,-36.5 109.3643,-36.5 109.3643,-18.5 0,-18.5"/>
<text text-anchor="middle" x="54.6821" y="-24.5" font-family="Helvetica,sans-Serif" font-size="10.00" fill="#000000">NAMON::Cache::find</text>
</g>
<!-- Node3 -->
<g id="node2" class="node">
<title>Node3</title>
<g id="a_node2"><a xlink:href="class_n_a_m_o_n_1_1_netflow.xhtml#af4e590a380d12a01491b911ff7ba2c37" target="_top" xlink:title="Get method for NAMON::Netflow::localPort. ">
<polygon fill="#ffffff" stroke="#000000" points="145.3643,-37.5 145.3643,-55.5 299.1914,-55.5 299.1914,-37.5 145.3643,-37.5"/>
<text text-anchor="middle" x="222.2778" y="-43.5" font-family="Helvetica,sans-Serif" font-size="10.00" fill="#000000">NAMON::Netflow::getLocalPort</text>
</a>
</g>
</g>
<!-- Node2&#45;&gt;Node3 -->
<g id="edge1" class="edge">
<title>Node2&#45;&gt;Node3</title>
<path fill="none" stroke="#191970" d="M109.5592,-33.7213C117.7245,-34.647 126.3072,-35.62 134.9402,-36.5987"/>
<polygon fill="#191970" stroke="#191970" points="134.745,-40.0989 145.0756,-37.7477 135.5335,-33.1435 134.745,-40.0989"/>
</g>
<!-- Node4 -->
<g id="node3" class="node">
<title>Node4</title>
<g id="a_node3"><a xlink:href="class_n_a_m_o_n_1_1_t_entry.xhtml#af0fae8cb7b437ff71eee166b58111fa9" target="_top" xlink:title="Get method for NAMON::TEntry::n. ">
<polygon fill="#ffffff" stroke="#000000" points="145.374,-.5 145.374,-18.5 299.1816,-18.5 299.1816,-.5 145.374,-.5"/>
<text text-anchor="middle" x="222.2778" y="-6.5" font-family="Helvetica,sans-Serif" font-size="10.00" fill="#000000">NAMON::TEntry::getNetflowPtr</text>
</a>
</g>
</g>
<!-- Node2&#45;&gt;Node4 -->
<g id="edge2" class="edge">
<title>Node2&#45;&gt;Node4</title>
<path fill="none" stroke="#191970" d="M109.5592,-21.6061C117.7245,-20.7292 126.3072,-19.8074 134.9402,-18.8802"/>
<polygon fill="#191970" stroke="#191970" points="135.5066,-22.3396 145.0756,-17.7916 134.759,-15.3796 135.5066,-22.3396"/>
</g>
</g>
</svg>
