<?xml version="1.0" encoding="UTF-8" standalone="no"?>
<!DOCTYPE svg PUBLIC "-//W3C//DTD SVG 1.1//EN"
 "http://www.w3.org/Graphics/SVG/1.1/DTD/svg11.dtd">
<!-- Generated by graphviz version 2.40.1 (20161225.0304)
 -->
<!-- Title: TOOL::SectionHeaderBlock::write Pages: 1 -->
<svg width="324pt" height="50pt"
 viewBox="0.00 0.00 323.56 50.00" xmlns="http://www.w3.org/2000/svg" xmlns:xlink="http://www.w3.org/1999/xlink">
<g id="graph0" class="graph" transform="scale(1 1) rotate(0) translate(4 46)">
<title>TOOL::SectionHeaderBlock::write</title>
<polygon fill="#ffffff" stroke="transparent" points="-4,4 -4,-46 319.5586,-46 319.5586,4 -4,4"/>
<!-- Node3 -->
<g id="node1" class="node">
<title>Node3</title>
<polygon fill="#bfbfbf" stroke="#000000" points="0,-.5 0,-28.5 139.2129,-28.5 139.2129,-.5 0,-.5"/>
<text text-anchor="start" x="8" y="-16.5" font-family="Helvetica,sans-Serif" font-size="10.00" fill="#000000">TOOL::SectionHeaderBlock</text>
<text text-anchor="middle" x="69.6064" y="-6.5" font-family="Helvetica,sans-Serif" font-size="10.00" fill="#000000">::write</text>
</g>
<!-- Node4 -->
<g id="node2" class="node">
<title>Node4</title>
<g id="a_node2"><a xlink:href="pcapng__blocks_8hpp.xhtml#a75a7bcda686113f2f624591c4b496013" target="_top" xlink:title="Computes number of padding bytes to be inserted in order to reach multiple of x. ">
<polygon fill="#ffffff" stroke="#000000" points="175.2129,-5.5 175.2129,-23.5 315.5586,-23.5 315.5586,-5.5 175.2129,-5.5"/>
<text text-anchor="middle" x="245.3857" y="-11.5" font-family="Helvetica,sans-Serif" font-size="10.00" fill="#000000">TOOL::computePaddingLen</text>
</a>
</g>
</g>
<!-- Node3&#45;&gt;Node4 -->
<g id="edge1" class="edge">
<title>Node3&#45;&gt;Node4</title>
<path fill="none" stroke="#191970" d="M139.3315,-14.5C147.8055,-14.5 156.515,-14.5 165.1261,-14.5"/>
<polygon fill="#191970" stroke="#191970" points="165.1696,-18.0001 175.1696,-14.5 165.1696,-11.0001 165.1696,-18.0001"/>
</g>
<!-- Node4&#45;&gt;Node4 -->
<g id="edge2" class="edge">
<title>Node4&#45;&gt;Node4</title>
<path fill="none" stroke="#191970" d="M219.4594,-23.5134C205.1382,-32.322 213.7803,-42 245.3857,-42 267.6083,-42 278.4782,-37.2153 277.9953,-31.3125"/>
<polygon fill="#191970" stroke="#191970" points="280.4768,-28.8294 271.3121,-23.5134 275.1614,-33.3843 280.4768,-28.8294"/>
</g>
</g>
</svg>
