<?xml version="1.0" encoding="UTF-8" standalone="no"?>
<!DOCTYPE svg PUBLIC "-//W3C//DTD SVG 1.1//EN"
 "http://www.w3.org/Graphics/SVG/1.1/DTD/svg11.dtd">
<!-- Generated by graphviz version 2.40.1 (20161225.0304)
 -->
<!-- Title: NAMON::TEntryOrTTree::getLevel Pages: 1 -->
<svg width="438pt" height="51pt"
 viewBox="0.00 0.00 438.42 51.00" xmlns="http://www.w3.org/2000/svg" xmlns:xlink="http://www.w3.org/1999/xlink">
<g id="graph0" class="graph" transform="scale(1 1) rotate(0) translate(4 47)">
<title>NAMON::TEntryOrTTree::getLevel</title>
<polygon fill="#ffffff" stroke="transparent" points="-4,4 -4,-47 434.4248,-47 434.4248,4 -4,4"/>
<!-- Node1 -->
<g id="node1" class="node">
<title>Node1</title>
<polygon fill="#bfbfbf" stroke="#000000" points="0,-.5 0,-28.5 125.6387,-28.5 125.6387,-.5 0,-.5"/>
<text text-anchor="start" x="8" y="-16.5" font-family="Helvetica,sans-Serif" font-size="10.00" fill="#000000">NAMON::TEntryOrTTree</text>
<text text-anchor="middle" x="62.8193" y="-6.5" font-family="Helvetica,sans-Serif" font-size="10.00" fill="#000000">::getLevel</text>
</g>
<!-- Node2 -->
<g id="node2" class="node">
<title>Node2</title>
<g id="a_node2"><a xlink:href="class_n_a_m_o_n_1_1_t_tree.xhtml#a7c2a0cc5654377b4b8ca63feb050fa62" target="_top" xlink:title="Function inserts a new TEntry into a decision tree. ">
<polygon fill="#ffffff" stroke="#000000" points="161.6387,-24.5 161.6387,-42.5 276.7305,-42.5 276.7305,-24.5 161.6387,-24.5"/>
<text text-anchor="middle" x="219.1846" y="-30.5" font-family="Helvetica,sans-Serif" font-size="10.00" fill="#000000">NAMON::TTree::insert</text>
</a>
</g>
</g>
<!-- Node1&#45;&gt;Node2 -->
<g id="edge1" class="edge">
<title>Node1&#45;&gt;Node2</title>
<path fill="none" stroke="#191970" d="M135.9964,-23.3918C144.5918,-24.4362 153.2683,-25.4905 161.6079,-26.5038"/>
<polygon fill="#191970" stroke="#191970" points="136.3175,-19.9051 125.9683,-22.1733 135.4731,-26.854 136.3175,-19.9051"/>
</g>
<!-- Node3 -->
<g id="node3" class="node">
<title>Node3</title>
<g id="a_node3"><a xlink:href="class_n_a_m_o_n_1_1_cache.xhtml#a7a097b6420be4d276bca506ff7ffe6bb" target="_top" xlink:title="Function inserts new TEntry into the TTree node. ">
<polygon fill="#ffffff" stroke="#000000" points="312.7305,-5.5 312.7305,-23.5 430.4248,-23.5 430.4248,-5.5 312.7305,-5.5"/>
<text text-anchor="middle" x="371.5776" y="-11.5" font-family="Helvetica,sans-Serif" font-size="10.00" fill="#000000">NAMON::Cache::insert</text>
</a>
</g>
</g>
<!-- Node1&#45;&gt;Node3 -->
<g id="edge3" class="edge">
<title>Node1&#45;&gt;Node3</title>
<path fill="none" stroke="#191970" d="M135.8543,-14.5C189.7609,-14.5 262.1906,-14.5 312.4754,-14.5"/>
<polygon fill="#191970" stroke="#191970" points="135.6734,-11.0001 125.6733,-14.5 135.6733,-18.0001 135.6734,-11.0001"/>
</g>
<!-- Node2&#45;&gt;Node3 -->
<g id="edge2" class="edge">
<title>Node2&#45;&gt;Node3</title>
<path fill="none" stroke="#191970" d="M286.8045,-25.0693C295.4094,-23.9965 304.162,-22.9052 312.6159,-21.8512"/>
<polygon fill="#191970" stroke="#191970" points="286.288,-21.6065 276.7979,-26.3169 287.1541,-28.5527 286.288,-21.6065"/>
</g>
</g>
</svg>
