<?xml version="1.0" encoding="UTF-8" standalone="no"?>
<!DOCTYPE svg PUBLIC "-//W3C//DTD SVG 1.1//EN"
 "http://www.w3.org/Graphics/SVG/1.1/DTD/svg11.dtd">
<!-- Generated by graphviz version 2.40.1 (20161225.0304)
 -->
<!-- Title: NAMON::Netflow::getProto Pages: 1 -->
<!--zoomable 138 -->
<svg id="main" version="1.1" xmlns="http://www.w3.org/2000/svg" xmlns:xlink="http://www.w3.org/1999/xlink" xml:space="preserve" onload="init(evt)">
<style type="text/css"><![CDATA[
.edge:hover path { stroke: red; }
.edge:hover polygon { stroke: red; fill: red; }
]]></style>
<script type="text/javascript"><![CDATA[
var edges = document.getElementsByTagName('g');
if (edges && edges.length) {
  for (var i=0;i<edges.length;i++) {
    if (edges[i].id.substr(0,4)=='edge') {
      edges[i].setAttribute('class','edge');
    }
  }
}
]]></script>
        <defs>
                <circle id="rim" cx="0" cy="0" r="7"/>
                <circle id="rim2" cx="0" cy="0" r="3.5"/>
                <g id="zoomPlus">
                        <use xlink:href="#rim" fill="#404040">
                                <set attributeName="fill" to="#808080" begin="zoomplus.mouseover" end="zoomplus.mouseout"/>
                        </use>
                        <path d="M-4,0h8M0,-4v8" fill="none" stroke="white" stroke-width="1.5" pointer-events="none"/>
                </g>
                <g id="zoomMin">
                        <use xlink:href="#rim" fill="#404040">
                                <set attributeName="fill" to="#808080" begin="zoomminus.mouseover" end="zoomminus.mouseout"/>
                        </use>
                        <path d="M-4,0h8" fill="none" stroke="white" stroke-width="1.5" pointer-events="none"/>
                </g>
                <g id="dirArrow">
                        <path fill="none" stroke="white" stroke-width="1.5" d="M0,-3.0v7 M-2.5,-0.5L0,-3.0L2.5,-0.5"/>
                </g>
               <g id="resetDef">
                       <use xlink:href="#rim2" fill="#404040">
                               <set attributeName="fill" to="#808080" begin="reset.mouseover" end="reset.mouseout"/>
                       </use>
               </g>
        </defs>

<script type="text/javascript">
var viewWidth = 503;
var viewHeight = 138;
var sectionId = 'dynsection-3';
</script>
<script xlink:href="svgpan.js"/>
<svg id="graph" class="graph">
<g id="viewport">
<title>NAMON::Netflow::getProto</title>
<polygon fill="#ffffff" stroke="transparent" points="-4,4 -4,-134 498.5605,-134 498.5605,4 -4,4"/>
<!-- Node22 -->
<g id="node1" class="node">
<title>Node22</title>
<polygon fill="#bfbfbf" stroke="#000000" points="0,-55.5 0,-73.5 135.4824,-73.5 135.4824,-55.5 0,-55.5"/>
<text text-anchor="middle" x="67.7412" y="-61.5" font-family="Helvetica,sans-Serif" font-size="10.00" fill="#000000">NAMON::Netflow::getProto</text>
</g>
<!-- Node23 -->
<g id="node2" class="node">
<title>Node23</title>
<g id="a_node2"><a xlink:href="class_n_a_m_o_n_1_1_t_entry.xhtml#a9faba1b923d35a52c53bf7f7a76f7a32" target="_top" xlink:title="Compares values important at a specific #NAMON::TreeLevel. ">
<polygon fill="#ffffff" stroke="#000000" points="178.4355,-111.5 178.4355,-129.5 333.9131,-129.5 333.9131,-111.5 178.4355,-111.5"/>
<text text-anchor="middle" x="256.1743" y="-117.5" font-family="Helvetica,sans-Serif" font-size="10.00" fill="#000000">NAMON::TEntry::levelCompare</text>
</a>
</g>
</g>
<!-- Node22&#45;&gt;Node23 -->
<g id="edge1" class="edge">
<title>Node22&#45;&gt;Node23</title>
<path fill="none" stroke="#191970" d="M99.1102,-77.3098C119.4916,-85.3027 146.7714,-95.3871 171.4824,-102.5 183.1832,-105.868 195.9583,-108.9067 207.9565,-111.4873"/>
<polygon fill="#191970" stroke="#191970" points="100.2863,-74.0111 89.7004,-73.5762 97.7046,-80.5176 100.2863,-74.0111"/>
</g>
<!-- Node24 -->
<g id="node3" class="node">
<title>Node24</title>
<g id="a_node3"><a xlink:href="class_n_a_m_o_n_1_1_t_tree.xhtml#a4e9f8f0a46da002c0836ca5a15526a59" target="_top" xlink:title="Set method for NAMON::TTree::cv union. ">
<polygon fill="#ffffff" stroke="#000000" points="171.4824,-74.5 171.4824,-92.5 340.8662,-92.5 340.8662,-74.5 171.4824,-74.5"/>
<text text-anchor="middle" x="256.1743" y="-80.5" font-family="Helvetica,sans-Serif" font-size="10.00" fill="#000000">NAMON::TTree::setCommonValue</text>
</a>
</g>
</g>
<!-- Node22&#45;&gt;Node24 -->
<g id="edge2" class="edge">
<title>Node22&#45;&gt;Node24</title>
<path fill="none" stroke="#191970" d="M145.6956,-72.3603C154.1398,-73.2117 162.7637,-74.0813 171.2848,-74.9405"/>
<polygon fill="#191970" stroke="#191970" points="145.8044,-68.8536 135.5037,-71.3326 145.1021,-75.8183 145.8044,-68.8536"/>
</g>
<!-- Node26 -->
<g id="node5" class="node">
<title>Node26</title>
<g id="a_node5"><a xlink:href="class_n_a_m_o_n_1_1_t_tree.xhtml#a9d653ac69fd4e434543f99c77af734b7" target="_top" xlink:title="Compares values important at a specific #NAMON::TreeLevel. ">
<polygon fill="#ffffff" stroke="#000000" points="180.0078,-37.5 180.0078,-55.5 332.3408,-55.5 332.3408,-37.5 180.0078,-37.5"/>
<text text-anchor="middle" x="256.1743" y="-43.5" font-family="Helvetica,sans-Serif" font-size="10.00" fill="#000000">NAMON::TTree::levelCompare</text>
</a>
</g>
</g>
<!-- Node22&#45;&gt;Node26 -->
<g id="edge4" class="edge">
<title>Node22&#45;&gt;Node26</title>
<path fill="none" stroke="#191970" d="M145.7209,-57.051C156.9645,-55.977 168.5263,-54.8725 179.7393,-53.8014"/>
<polygon fill="#191970" stroke="#191970" points="145.1255,-53.5919 135.5037,-58.027 145.7912,-60.5602 145.1255,-53.5919"/>
</g>
<!-- Node27 -->
<g id="node6" class="node">
<title>Node27</title>
<g id="a_node6"><a xlink:href="capturing_8hpp.xhtml#a30a4aa41a243aeb1e88c49d09e65a48e" target="_top" xlink:title="Parses layer 4 header. ">
<polygon fill="#ffffff" stroke="#000000" points="223.9971,-.5 223.9971,-18.5 288.3516,-18.5 288.3516,-.5 223.9971,-.5"/>
<text text-anchor="middle" x="256.1743" y="-6.5" font-family="Helvetica,sans-Serif" font-size="10.00" fill="#000000">parsePorts</text>
</a>
</g>
</g>
<!-- Node22&#45;&gt;Node27 -->
<g id="edge5" class="edge">
<title>Node22&#45;&gt;Node27</title>
<path fill="none" stroke="#191970" d="M100.7824,-51.96C121.0127,-44.5517 147.5314,-35.3186 171.4824,-28.5 188.5842,-23.6313 207.9142,-19.2141 223.7848,-15.8667"/>
<polygon fill="#191970" stroke="#191970" points="99.5603,-48.6802 91.3951,-55.4316 101.9883,-55.2456 99.5603,-48.6802"/>
</g>
<!-- Node25 -->
<g id="node4" class="node">
<title>Node25</title>
<g id="a_node4"><a xlink:href="class_n_a_m_o_n_1_1_cache.xhtml#a7a097b6420be4d276bca506ff7ffe6bb" target="_top" xlink:title="Function inserts new TEntry into the TTree node. ">
<polygon fill="#ffffff" stroke="#000000" points="376.8662,-74.5 376.8662,-92.5 494.5605,-92.5 494.5605,-74.5 376.8662,-74.5"/>
<text text-anchor="middle" x="435.7134" y="-80.5" font-family="Helvetica,sans-Serif" font-size="10.00" fill="#000000">NAMON::Cache::insert</text>
</a>
</g>
</g>
<!-- Node24&#45;&gt;Node25 -->
<g id="edge3" class="edge">
<title>Node24&#45;&gt;Node25</title>
<path fill="none" stroke="#191970" d="M351.1471,-83.5C359.8254,-83.5 368.4386,-83.5 376.6609,-83.5"/>
<polygon fill="#191970" stroke="#191970" points="350.9492,-80.0001 340.9492,-83.5 350.9492,-87.0001 350.9492,-80.0001"/>
</g>
</g>
</svg>
        <g id="navigator" transform="translate(0 0)" fill="#404254">
                <rect fill="#f2f5e9" fill-opacity="0.5" stroke="#606060" stroke-width=".5" x="0" y="0" width="60" height="60"/>
                <use id="zoomplus" xlink:href="#zoomPlus" x="17" y="9" onmousedown="handleZoom(evt,'in')"/>
                <use id="zoomminus" xlink:href="#zoomMin" x="42" y="9" onmousedown="handleZoom(evt,'out')"/>
                <use id="reset" xlink:href="#resetDef" x="30" y="36" onmousedown="handleReset()"/>
                <g id="arrowUp" xlink:href="#dirArrow" transform="translate(30 24)" onmousedown="handlePan(0,-1)">
                  <use xlink:href="#rim" fill="#404040">
                        <set attributeName="fill" to="#808080" begin="arrowUp.mouseover" end="arrowUp.mouseout"/>
                  </use>
                  <path fill="none" stroke="white" stroke-width="1.5" d="M0,-3.0v7 M-2.5,-0.5L0,-3.0L2.5,-0.5"/>
                </g>
                <g id="arrowRight" xlink:href="#dirArrow" transform="rotate(90) translate(36 -43)" onmousedown="handlePan(1,0)">
                  <use xlink:href="#rim" fill="#404040">
                        <set attributeName="fill" to="#808080" begin="arrowRight.mouseover" end="arrowRight.mouseout"/>
                  </use>
                  <path fill="none" stroke="white" stroke-width="1.5" d="M0,-3.0v7 M-2.5,-0.5L0,-3.0L2.5,-0.5"/>
                </g>
                <g id="arrowDown" xlink:href="#dirArrow" transform="rotate(180) translate(-30 -48)" onmousedown="handlePan(0,1)">
                  <use xlink:href="#rim" fill="#404040">
                        <set attributeName="fill" to="#808080" begin="arrowDown.mouseover" end="arrowDown.mouseout"/>
                  </use>
                  <path fill="none" stroke="white" stroke-width="1.5" d="M0,-3.0v7 M-2.5,-0.5L0,-3.0L2.5,-0.5"/>
                </g>
                <g id="arrowLeft" xlink:href="#dirArrow" transform="rotate(270) translate(-36 17)" onmousedown="handlePan(-1,0)">
                  <use xlink:href="#rim" fill="#404040">
                        <set attributeName="fill" to="#808080" begin="arrowLeft.mouseover" end="arrowLeft.mouseout"/>
                  </use>
                  <path fill="none" stroke="white" stroke-width="1.5" d="M0,-3.0v7 M-2.5,-0.5L0,-3.0L2.5,-0.5"/>
                </g>
        </g>
        <svg viewBox="0 0 15 15" width="100%" height="30px" preserveAspectRatio="xMaxYMin meet">
         <g id="arrow_out" transform="scale(0.3 0.3)">
          <a xlink:href="class_n_a_m_o_n_1_1_netflow_acd9ecb6f7bac62db7294f5dd76094b38_icgraph_org.svg" target="_base">
           <rect id="button" ry="5" rx="5" y="6" x="6" height="38" width="38"
                fill="#f2f5e9" fill-opacity="0.5" stroke="#606060" stroke-width="1.0"/>
           <path id="arrow"
             d="M 11.500037,31.436501 C 11.940474,20.09759 22.043105,11.32322 32.158766,21.979434 L 37.068811,17.246167 C 37.068811,17.246167 37.088388,32 37.088388,32 L 22.160133,31.978069 C 22.160133,31.978069 26.997745,27.140456 26.997745,27.140456 C 18.528582,18.264221 13.291696,25.230495 11.500037,31.436501 z"
             style="fill:#404040;"/>
          </a>
         </g>
        </svg>
</svg>
