<?xml version="1.0" encoding="UTF-8" standalone="no"?>
<!DOCTYPE svg PUBLIC "-//W3C//DTD SVG 1.1//EN"
 "http://www.w3.org/Graphics/SVG/1.1/DTD/svg11.dtd">
<!-- Generated by graphviz version 2.40.1 (20161225.0304)
 -->
<!-- Title: NAMON::TEntry Pages: 1 -->
<svg width="302pt" height="92pt"
 viewBox="0.00 0.00 301.88 92.00" xmlns="http://www.w3.org/2000/svg" xmlns:xlink="http://www.w3.org/1999/xlink">
<g id="graph0" class="graph" transform="scale(1 1) rotate(0) translate(4 88)">
<title>NAMON::TEntry</title>
<polygon fill="#ffffff" stroke="transparent" points="-4,4 -4,-88 297.8809,-88 297.8809,4 -4,4"/>
<!-- Node2 -->
<g id="node1" class="node">
<title>Node2</title>
<polygon fill="#bfbfbf" stroke="#000000" points="119.7061,-.5 119.7061,-18.5 207.9326,-18.5 207.9326,-.5 119.7061,-.5"/>
<text text-anchor="middle" x="163.8193" y="-6.5" font-family="Helvetica,sans-Serif" font-size="10.00" fill="#000000">NAMON::TEntry</text>
</g>
<!-- Node3 -->
<g id="node2" class="node">
<title>Node3</title>
<g id="a_node2"><a xlink:href="class_n_a_m_o_n_1_1_t_entry_or_t_tree.xhtml" target="_top" xlink:title="Base class which a decision tree (cache) is made of. ">
<polygon fill="#ffffff" stroke="#000000" points="0,-65.5 0,-83.5 125.6387,-83.5 125.6387,-65.5 0,-65.5"/>
<text text-anchor="middle" x="62.8193" y="-71.5" font-family="Helvetica,sans-Serif" font-size="10.00" fill="#000000">NAMON::TEntryOrTTree</text>
</a>
</g>
</g>
<!-- Node3&#45;&gt;Node2 -->
<g id="edge1" class="edge">
<title>Node3&#45;&gt;Node2</title>
<path fill="none" stroke="#191970" d="M85.4996,-59.9038C105.1298,-47.2705 132.9124,-29.3906 149.5694,-18.6708"/>
<polygon fill="#191970" stroke="#191970" points="83.3779,-57.107 76.863,-65.462 87.1662,-62.9934 83.3779,-57.107"/>
</g>
<!-- Node4 -->
<g id="node3" class="node">
<title>Node4</title>
<polygon fill="#ffffff" stroke="#bfbfbf" points="143.5928,-65.5 143.5928,-83.5 184.0459,-83.5 184.0459,-65.5 143.5928,-65.5"/>
<text text-anchor="middle" x="163.8193" y="-71.5" font-family="Helvetica,sans-Serif" font-size="10.00" fill="#000000">string</text>
</g>
<!-- Node4&#45;&gt;Node2 -->
<g id="edge2" class="edge">
<title>Node4&#45;&gt;Node2</title>
<path fill="none" stroke="#9a32cd" stroke-dasharray="5,2" d="M163.8193,-55.1265C163.8193,-43.1522 163.8193,-28.3205 163.8193,-18.8821"/>
<polygon fill="#9a32cd" stroke="#9a32cd" points="160.3194,-55.462 163.8193,-65.462 167.3194,-55.4621 160.3194,-55.462"/>
<text text-anchor="middle" x="186.8882" y="-39" font-family="Helvetica,sans-Serif" font-size="10.00" fill="#000000"> appName</text>
</g>
<!-- Node5 -->
<g id="node4" class="node">
<title>Node5</title>
<g id="a_node4"><a xlink:href="class_n_a_m_o_n_1_1_netflow.xhtml" target="_top" xlink:title="Netflow class contains information about packet needed to uniquely determine a netflow it belongs to...">
<polygon fill="#ffffff" stroke="#000000" points="201.7578,-65.5 201.7578,-83.5 293.8809,-83.5 293.8809,-65.5 201.7578,-65.5"/>
<text text-anchor="middle" x="247.8193" y="-71.5" font-family="Helvetica,sans-Serif" font-size="10.00" fill="#000000">NAMON::Netflow</text>
</a>
</g>
</g>
<!-- Node5&#45;&gt;Node2 -->
<g id="edge3" class="edge">
<title>Node5&#45;&gt;Node2</title>
<path fill="none" stroke="#9a32cd" stroke-dasharray="5,2" d="M234.3807,-57.3434C228.5195,-50.5162 221.2864,-42.8985 213.8193,-37 204.6461,-29.7537 193.3062,-23.3448 183.7461,-18.5409"/>
<polygon fill="#9a32cd" stroke="#9a32cd" points="231.9321,-59.8764 240.9855,-65.3796 237.34,-55.4317 231.9321,-59.8764"/>
<text text-anchor="middle" x="227.9893" y="-39" font-family="Helvetica,sans-Serif" font-size="10.00" fill="#000000"> n</text>
</g>
</g>
</svg>
