<?xml version="1.0" encoding="UTF-8" standalone="no"?>
<!DOCTYPE svg PUBLIC "-//W3C//DTD SVG 1.1//EN"
 "http://www.w3.org/Graphics/SVG/1.1/DTD/svg11.dtd">
<!-- Generated by graphviz version 2.40.1 (20161225.0304)
 -->
<!-- Title: TOOL::CustomBlock::write Pages: 1 -->
<svg width="297pt" height="50pt"
 viewBox="0.00 0.00 297.42 50.00" xmlns="http://www.w3.org/2000/svg" xmlns:xlink="http://www.w3.org/1999/xlink">
<g id="graph0" class="graph" transform="scale(1 1) rotate(0) translate(4 46)">
<title>TOOL::CustomBlock::write</title>
<polygon fill="#ffffff" stroke="transparent" points="-4,4 -4,-46 293.416,-46 293.416,4 -4,4"/>
<!-- Node2 -->
<g id="node1" class="node">
<title>Node2</title>
<polygon fill="#bfbfbf" stroke="#000000" points="0,-.5 0,-28.5 113.0703,-28.5 113.0703,-.5 0,-.5"/>
<text text-anchor="start" x="8" y="-16.5" font-family="Helvetica,sans-Serif" font-size="10.00" fill="#000000">TOOL::CustomBlock::</text>
<text text-anchor="middle" x="56.5352" y="-6.5" font-family="Helvetica,sans-Serif" font-size="10.00" fill="#000000">write</text>
</g>
<!-- Node3 -->
<g id="node2" class="node">
<title>Node3</title>
<g id="a_node2"><a xlink:href="pcapng__blocks_8hpp.xhtml#a75a7bcda686113f2f624591c4b496013" target="_top" xlink:title="Computes number of padding bytes to be inserted in order to reach multiple of x. ">
<polygon fill="#ffffff" stroke="#000000" points="149.0703,-5.5 149.0703,-23.5 289.416,-23.5 289.416,-5.5 149.0703,-5.5"/>
<text text-anchor="middle" x="219.2432" y="-11.5" font-family="Helvetica,sans-Serif" font-size="10.00" fill="#000000">TOOL::computePaddingLen</text>
</a>
</g>
</g>
<!-- Node2&#45;&gt;Node3 -->
<g id="edge1" class="edge">
<title>Node2&#45;&gt;Node3</title>
<path fill="none" stroke="#191970" d="M113.4425,-14.5C121.6759,-14.5 130.2776,-14.5 138.8647,-14.5"/>
<polygon fill="#191970" stroke="#191970" points="138.9158,-18.0001 148.9157,-14.5 138.9157,-11.0001 138.9158,-18.0001"/>
</g>
<!-- Node3&#45;&gt;Node3 -->
<g id="edge2" class="edge">
<title>Node3&#45;&gt;Node3</title>
<path fill="none" stroke="#191970" d="M195.1048,-23.5134C181.7713,-32.322 189.8174,-42 219.2432,-42 239.4734,-42 249.5984,-37.4256 249.6181,-31.7043"/>
<polygon fill="#191970" stroke="#191970" points="252.2242,-29.3493 243.3815,-23.5134 246.6548,-33.5899 252.2242,-29.3493"/>
</g>
</g>
</svg>
