<?xml version="1.0" encoding="UTF-8" standalone="no"?>
<!DOCTYPE svg PUBLIC "-//W3C//DTD SVG 1.1//EN"
 "http://www.w3.org/Graphics/SVG/1.1/DTD/svg11.dtd">
<!-- Generated by graphviz version 2.40.1 (20161225.0304)
 -->
<!-- Title: NAMON::EnhancedPacketBlock::write Pages: 1 -->
<svg width="353pt" height="50pt"
 viewBox="0.00 0.00 353.36 50.00" xmlns="http://www.w3.org/2000/svg" xmlns:xlink="http://www.w3.org/1999/xlink">
<g id="graph0" class="graph" transform="scale(1 1) rotate(0) translate(4 46)">
<title>NAMON::EnhancedPacketBlock::write</title>
<polygon fill="#ffffff" stroke="transparent" points="-4,4 -4,-46 349.3584,-46 349.3584,4 -4,4"/>
<!-- Node10 -->
<g id="node1" class="node">
<title>Node10</title>
<polygon fill="#bfbfbf" stroke="#000000" points="0,-.5 0,-28.5 158.8418,-28.5 158.8418,-.5 0,-.5"/>
<text text-anchor="start" x="8" y="-16.5" font-family="Helvetica,sans-Serif" font-size="10.00" fill="#000000">NAMON::EnhancedPacketBlock</text>
<text text-anchor="middle" x="79.4209" y="-6.5" font-family="Helvetica,sans-Serif" font-size="10.00" fill="#000000">::write</text>
</g>
<!-- Node11 -->
<g id="node2" class="node">
<title>Node11</title>
<g id="a_node2"><a xlink:href="pcapng__blocks_8hpp.xhtml#a0172951579b09d97a40a36c79257f466" target="_top" xlink:title="Computes number of padding bytes to be inserted in order to reach multiple of x. ">
<polygon fill="#ffffff" stroke="#000000" points="194.8418,-5.5 194.8418,-23.5 345.3584,-23.5 345.3584,-5.5 194.8418,-5.5"/>
<text text-anchor="middle" x="270.1001" y="-11.5" font-family="Helvetica,sans-Serif" font-size="10.00" fill="#000000">NAMON::computePaddingLen</text>
</a>
</g>
</g>
<!-- Node10&#45;&gt;Node11 -->
<g id="edge1" class="edge">
<title>Node10&#45;&gt;Node11</title>
<path fill="none" stroke="#191970" d="M158.9053,-14.5C167.4252,-14.5 176.1189,-14.5 184.7039,-14.5"/>
<polygon fill="#191970" stroke="#191970" points="184.7151,-18.0001 194.7151,-14.5 184.7151,-11.0001 184.7151,-18.0001"/>
</g>
<!-- Node11&#45;&gt;Node11 -->
<g id="edge2" class="edge">
<title>Node11&#45;&gt;Node11</title>
<path fill="none" stroke="#191970" d="M241.7897,-23.5134C226.1516,-32.322 235.5884,-42 270.1001,-42 295.4446,-42 307.2661,-36.7806 305.5645,-30.5191"/>
<polygon fill="#191970" stroke="#191970" points="308.0041,-28.0094 298.4105,-23.5134 303.1065,-33.0107 308.0041,-28.0094"/>
</g>
</g>
</svg>
