<?xml version="1.0" encoding="UTF-8" standalone="no"?>
<!DOCTYPE svg PUBLIC "-//W3C//DTD SVG 1.1//EN"
 "http://www.w3.org/Graphics/SVG/1.1/DTD/svg11.dtd">
<!-- Generated by graphviz version 2.40.1 (20161225.0304)
 -->
<!-- Title: TOOL::TEntry::getNetflowPtr Pages: 1 -->
<svg width="469pt" height="177pt"
 viewBox="0.00 0.00 468.70 177.00" xmlns="http://www.w3.org/2000/svg" xmlns:xlink="http://www.w3.org/1999/xlink">
<g id="graph0" class="graph" transform="scale(1 1) rotate(0) translate(4 173)">
<title>TOOL::TEntry::getNetflowPtr</title>
<polygon fill="#ffffff" stroke="transparent" points="-4,4 -4,-173 464.6982,-173 464.6982,4 -4,4"/>
<!-- Node9 -->
<g id="node1" class="node">
<title>Node9</title>
<polygon fill="#bfbfbf" stroke="#000000" points="0,-74.5 0,-92.5 143.6367,-92.5 143.6367,-74.5 0,-74.5"/>
<text text-anchor="middle" x="71.8184" y="-80.5" font-family="Helvetica,sans-Serif" font-size="10.00" fill="#000000">TOOL::TEntry::getNetflowPtr</text>
</g>
<!-- Node10 -->
<g id="node2" class="node">
<title>Node10</title>
<g id="a_node2"><a xlink:href="class_t_o_o_l_1_1_t_tree.xhtml#a16d14c1d6d1c451e569a3e0b5e459248" target="_top" xlink:title="Function inserts a new TEntry into a decision tree. ">
<polygon fill="#ffffff" stroke="#000000" points="195.9453,-150.5 195.9453,-168.5 300.8662,-168.5 300.8662,-150.5 195.9453,-150.5"/>
<text text-anchor="middle" x="248.4058" y="-156.5" font-family="Helvetica,sans-Serif" font-size="10.00" fill="#000000">TOOL::TTree::insert</text>
</a>
</g>
</g>
<!-- Node9&#45;&gt;Node10 -->
<g id="edge1" class="edge">
<title>Node9&#45;&gt;Node10</title>
<path fill="none" stroke="#191970" d="M98.2761,-97.3025C119.8706,-108.3132 151.3306,-123.7791 179.6367,-135.5 192.722,-140.9183 207.5205,-146.1893 220.0285,-150.4048"/>
<polygon fill="#191970" stroke="#191970" points="99.5896,-94.0424 89.0952,-92.5864 96.391,-100.269 99.5896,-94.0424"/>
</g>
<!-- Node11 -->
<g id="node3" class="node">
<title>Node11</title>
<g id="a_node3"><a xlink:href="class_t_o_o_l_1_1_cache.xhtml#a5936010932979fe258f3e501b5aec703" target="_top" xlink:title="Function inserts new TEntry into the TTree node. ">
<polygon fill="#ffffff" stroke="#000000" points="353.1748,-131.5 353.1748,-149.5 460.6982,-149.5 460.6982,-131.5 353.1748,-131.5"/>
<text text-anchor="middle" x="406.9365" y="-137.5" font-family="Helvetica,sans-Serif" font-size="10.00" fill="#000000">TOOL::Cache::insert</text>
</a>
</g>
</g>
<!-- Node9&#45;&gt;Node11 -->
<g id="edge5" class="edge">
<title>Node9&#45;&gt;Node11</title>
<path fill="none" stroke="#191970" d="M132.4621,-94.2831C147.8466,-96.9921 164.3468,-99.8748 179.6367,-102.5 238.7853,-112.6557 306.6564,-123.9564 352.7212,-131.5737"/>
<polygon fill="#191970" stroke="#191970" points="132.9933,-90.8228 122.5373,-92.5324 131.7772,-97.7164 132.9933,-90.8228"/>
</g>
<!-- Node12 -->
<g id="node4" class="node">
<title>Node12</title>
<g id="a_node4"><a xlink:href="class_t_o_o_l_1_1_t_tree.xhtml#a767c53849c7d02f696e5b115b8169244" target="_top" xlink:title="Finds invalid entries and saves them in g_finalResults. ">
<polygon fill="#ffffff" stroke="#000000" points="180.938,-74.5 180.938,-92.5 315.8735,-92.5 315.8735,-74.5 180.938,-74.5"/>
<text text-anchor="middle" x="248.4058" y="-80.5" font-family="Helvetica,sans-Serif" font-size="10.00" fill="#000000">TOOL::TTree::saveResults</text>
</a>
</g>
</g>
<!-- Node9&#45;&gt;Node12 -->
<g id="edge3" class="edge">
<title>Node9&#45;&gt;Node12</title>
<path fill="none" stroke="#191970" d="M153.8265,-83.5C162.8977,-83.5 172.0578,-83.5 180.9213,-83.5"/>
<polygon fill="#191970" stroke="#191970" points="153.6433,-80.0001 143.6432,-83.5 153.6432,-87.0001 153.6433,-80.0001"/>
</g>
<!-- Node13 -->
<g id="node5" class="node">
<title>Node13</title>
<g id="a_node5"><a xlink:href="class_t_o_o_l_1_1_cache.xhtml#abb8781e377e41322c132c7a24c3c96ec" target="_top" xlink:title="Function finds a Netflow record in a cache. ">
<polygon fill="#ffffff" stroke="#000000" points="198.8091,-37.5 198.8091,-55.5 298.0024,-55.5 298.0024,-37.5 198.8091,-37.5"/>
<text text-anchor="middle" x="248.4058" y="-43.5" font-family="Helvetica,sans-Serif" font-size="10.00" fill="#000000">TOOL::Cache::find</text>
</a>
</g>
</g>
<!-- Node9&#45;&gt;Node13 -->
<g id="edge4" class="edge">
<title>Node9&#45;&gt;Node13</title>
<path fill="none" stroke="#191970" d="M124.975,-72.3622C150.6763,-66.9771 181.124,-60.5974 205.3479,-55.5218"/>
<polygon fill="#191970" stroke="#191970" points="124.0862,-68.9723 115.0165,-74.4488 125.5218,-75.8236 124.0862,-68.9723"/>
</g>
<!-- Node14 -->
<g id="node6" class="node">
<title>Node14</title>
<g id="a_node6"><a xlink:href="class_t_o_o_l_1_1_cache.xhtml#af97cbe252896a34b737765d1fb3be743" target="_top" xlink:title="Finds expired entries and saves them in g_finalResults. ">
<polygon fill="#ffffff" stroke="#000000" points="179.6367,-.5 179.6367,-18.5 317.1748,-18.5 317.1748,-.5 179.6367,-.5"/>
<text text-anchor="middle" x="248.4058" y="-6.5" font-family="Helvetica,sans-Serif" font-size="10.00" fill="#000000">TOOL::Cache::saveResults</text>
</a>
</g>
</g>
<!-- Node9&#45;&gt;Node14 -->
<g id="edge6" class="edge">
<title>Node9&#45;&gt;Node14</title>
<path fill="none" stroke="#191970" d="M95.8165,-69.4769C117.249,-57.3895 149.7789,-40.1026 179.6367,-28.5 189.4502,-24.6865 200.3284,-21.3108 210.4823,-18.5025"/>
<polygon fill="#191970" stroke="#191970" points="94.0252,-66.4693 87.0753,-74.4661 97.4952,-72.5487 94.0252,-66.4693"/>
</g>
<!-- Node10&#45;&gt;Node11 -->
<g id="edge2" class="edge">
<title>Node10&#45;&gt;Node11</title>
<path fill="none" stroke="#191970" d="M311.134,-151.982C324.9912,-150.3212 339.5541,-148.5758 353.025,-146.9613"/>
<polygon fill="#191970" stroke="#191970" points="310.7066,-148.5081 301.1942,-153.1733 311.5397,-155.4583 310.7066,-148.5081"/>
</g>
</g>
</svg>
