<?xml version="1.0" encoding="UTF-8" standalone="no"?>
<!DOCTYPE svg PUBLIC "-//W3C//DTD SVG 1.1//EN"
 "http://www.w3.org/Graphics/SVG/1.1/DTD/svg11.dtd">
<!-- Generated by graphviz version 2.40.1 (20161225.0304)
 -->
<!-- Title: NAMON::Cache::insert Pages: 1 -->
<svg width="670pt" height="328pt"
 viewBox="0.00 0.00 669.61 328.00" xmlns="http://www.w3.org/2000/svg" xmlns:xlink="http://www.w3.org/1999/xlink">
<g id="graph0" class="graph" transform="scale(1 1) rotate(0) translate(4 324)">
<title>NAMON::Cache::insert</title>
<polygon fill="#ffffff" stroke="transparent" points="-4,4 -4,-324 665.6143,-324 665.6143,4 -4,4"/>
<!-- Node6 -->
<g id="node1" class="node">
<title>Node6</title>
<polygon fill="#bfbfbf" stroke="#000000" points="0,-187.5 0,-205.5 117.6943,-205.5 117.6943,-187.5 0,-187.5"/>
<text text-anchor="middle" x="58.8472" y="-193.5" font-family="Helvetica,sans-Serif" font-size="10.00" fill="#000000">NAMON::Cache::insert</text>
</g>
<!-- Node7 -->
<g id="node2" class="node">
<title>Node7</title>
<g id="a_node2"><a xlink:href="class_n_a_m_o_n_1_1_t_entry.xhtml#af0fae8cb7b437ff71eee166b58111fa9" target="_top" xlink:title="Get method for NAMON::TEntry::n. ">
<polygon fill="#ffffff" stroke="#000000" points="359.0879,-301.5 359.0879,-319.5 512.8955,-319.5 512.8955,-301.5 359.0879,-301.5"/>
<text text-anchor="middle" x="435.9917" y="-307.5" font-family="Helvetica,sans-Serif" font-size="10.00" fill="#000000">NAMON::TEntry::getNetflowPtr</text>
</a>
</g>
</g>
<!-- Node6&#45;&gt;Node7 -->
<g id="edge1" class="edge">
<title>Node6&#45;&gt;Node7</title>
<path fill="none" stroke="#191970" d="M66.6206,-205.6455C81.5523,-222.513 116.1133,-258.276 153.6943,-274.5 215.4206,-301.1477 291.2894,-309.6377 348.8243,-311.7444"/>
<polygon fill="#191970" stroke="#191970" points="348.8794,-315.2476 358.9825,-312.0573 349.095,-308.2509 348.8794,-315.2476"/>
</g>
<!-- Node8 -->
<g id="node3" class="node">
<title>Node8</title>
<g id="a_node3"><a xlink:href="class_n_a_m_o_n_1_1_netflow.xhtml#af4e590a380d12a01491b911ff7ba2c37" target="_top" xlink:title="Get method for NAMON::Netflow::localPort. ">
<polygon fill="#ffffff" stroke="#000000" points="359.0781,-111.5 359.0781,-129.5 512.9053,-129.5 512.9053,-111.5 359.0781,-111.5"/>
<text text-anchor="middle" x="435.9917" y="-117.5" font-family="Helvetica,sans-Serif" font-size="10.00" fill="#000000">NAMON::Netflow::getLocalPort</text>
</a>
</g>
</g>
<!-- Node6&#45;&gt;Node8 -->
<g id="edge2" class="edge">
<title>Node6&#45;&gt;Node8</title>
<path fill="none" stroke="#191970" d="M87.7003,-187.4298C106.3903,-181.7676 131.3288,-174.6095 153.6943,-169.5 224.1443,-153.4055 305.5473,-139.7978 362.7839,-131.0375"/>
<polygon fill="#191970" stroke="#191970" points="363.4636,-134.4745 372.8246,-129.5125 362.4124,-127.5539 363.4636,-134.4745"/>
</g>
<!-- Node9 -->
<g id="node4" class="node">
<title>Node9</title>
<g id="a_node4"><a xlink:href="debug_8hpp.xhtml#a9f1c1527f51faaaca3be83b5a8928ca5" target="_top" xlink:title="Function that prints log messages. ">
<polygon fill="#ffffff" stroke="#000000" points="399.9302,-246.5 399.9302,-264.5 472.0532,-264.5 472.0532,-246.5 399.9302,-246.5"/>
<text text-anchor="middle" x="435.9917" y="-252.5" font-family="Helvetica,sans-Serif" font-size="10.00" fill="#000000">NAMON::log</text>
</a>
</g>
</g>
<!-- Node6&#45;&gt;Node9 -->
<g id="edge3" class="edge">
<title>Node6&#45;&gt;Node9</title>
<path fill="none" stroke="#191970" d="M69.6035,-205.6623C86.2963,-219.2187 120.0351,-244.0355 153.6943,-253.5 234.089,-276.1058 332.5274,-269.5046 389.3725,-262.562"/>
<polygon fill="#191970" stroke="#191970" points="390.0135,-266.0087 399.4889,-261.2687 389.1258,-259.0652 390.0135,-266.0087"/>
</g>
<!-- Node11 -->
<g id="node6" class="node">
<title>Node11</title>
<g id="a_node6"><a xlink:href="class_n_a_m_o_n_1_1_t_entry_or_t_tree.xhtml#afd79f5ba5cbe063e8e557c288826cbe7" target="_top" xlink:title="Get method for NAMON::TEntryOrTTree::level. ">
<polygon fill="#ffffff" stroke="#000000" points="373.1724,-198.5 373.1724,-226.5 498.811,-226.5 498.811,-198.5 373.1724,-198.5"/>
<text text-anchor="start" x="381.1724" y="-214.5" font-family="Helvetica,sans-Serif" font-size="10.00" fill="#000000">NAMON::TEntryOrTTree</text>
<text text-anchor="middle" x="435.9917" y="-204.5" font-family="Helvetica,sans-Serif" font-size="10.00" fill="#000000">::getLevel</text>
</a>
</g>
</g>
<!-- Node6&#45;&gt;Node11 -->
<g id="edge7" class="edge">
<title>Node6&#45;&gt;Node11</title>
<path fill="none" stroke="#191970" d="M117.776,-199C183.9253,-201.8063 291.327,-206.3627 362.8028,-209.395"/>
<polygon fill="#191970" stroke="#191970" points="362.9391,-212.9039 373.0785,-209.831 363.2359,-205.9102 362.9391,-212.9039"/>
</g>
<!-- Node12 -->
<g id="node7" class="node">
<title>Node12</title>
<g id="a_node7"><a xlink:href="class_n_a_m_o_n_1_1_t_tree.xhtml#a4e9f8f0a46da002c0836ca5a15526a59" target="_top" xlink:title="Set method for NAMON::TTree::cv union. ">
<polygon fill="#ffffff" stroke="#000000" points="153.6943,-73.5 153.6943,-91.5 323.0781,-91.5 323.0781,-73.5 153.6943,-73.5"/>
<text text-anchor="middle" x="238.3862" y="-79.5" font-family="Helvetica,sans-Serif" font-size="10.00" fill="#000000">NAMON::TTree::setCommonValue</text>
</a>
</g>
</g>
<!-- Node6&#45;&gt;Node12 -->
<g id="edge8" class="edge">
<title>Node6&#45;&gt;Node12</title>
<path fill="none" stroke="#191970" d="M65.8845,-187.3363C80.3315,-169.1582 115.2291,-128.4044 153.6943,-106.5 162.1708,-101.673 171.6852,-97.7611 181.1932,-94.608"/>
<polygon fill="#191970" stroke="#191970" points="182.517,-97.8631 191.0553,-91.5902 180.4688,-91.1695 182.517,-97.8631"/>
</g>
<!-- Node16 -->
<g id="node11" class="node">
<title>Node16</title>
<g id="a_node11"><a xlink:href="class_n_a_m_o_n_1_1_t_tree.xhtml#a7c2a0cc5654377b4b8ca63feb050fa62" target="_top" xlink:title="Function inserts a new TEntry into a decision tree. ">
<polygon fill="#ffffff" stroke="#000000" points="180.8403,-225.5 180.8403,-243.5 295.9321,-243.5 295.9321,-225.5 180.8403,-225.5"/>
<text text-anchor="middle" x="238.3862" y="-231.5" font-family="Helvetica,sans-Serif" font-size="10.00" fill="#000000">NAMON::TTree::insert</text>
</a>
</g>
</g>
<!-- Node6&#45;&gt;Node16 -->
<g id="edge13" class="edge">
<title>Node6&#45;&gt;Node16</title>
<path fill="none" stroke="#191970" d="M101.3954,-205.5055C126.6813,-210.8573 158.9551,-217.6881 185.8249,-223.3752"/>
<polygon fill="#191970" stroke="#191970" points="185.3246,-226.8468 195.8326,-225.4934 186.7741,-219.9985 185.3246,-226.8468"/>
</g>
<!-- Node17 -->
<g id="node12" class="node">
<title>Node17</title>
<g id="a_node12"><a xlink:href="class_n_a_m_o_n_1_1_t_entry_or_t_tree.xhtml#a133099e2ed5580107c782181a8d5301d" target="_top" xlink:title="Set method for NAMON::TEntryOrTTree::level. ">
<polygon fill="#ffffff" stroke="#000000" points="373.1724,-149.5 373.1724,-177.5 498.811,-177.5 498.811,-149.5 373.1724,-149.5"/>
<text text-anchor="start" x="381.1724" y="-165.5" font-family="Helvetica,sans-Serif" font-size="10.00" fill="#000000">NAMON::TEntryOrTTree</text>
<text text-anchor="middle" x="435.9917" y="-155.5" font-family="Helvetica,sans-Serif" font-size="10.00" fill="#000000">::setLevel</text>
</a>
</g>
</g>
<!-- Node6&#45;&gt;Node17 -->
<g id="edge18" class="edge">
<title>Node6&#45;&gt;Node17</title>
<path fill="none" stroke="#191970" d="M117.776,-191.3438C183.9253,-185.5557 291.327,-176.1581 362.8028,-169.904"/>
<polygon fill="#191970" stroke="#191970" points="363.4217,-173.3633 373.0785,-169.0049 362.8115,-166.39 363.4217,-173.3633"/>
</g>
<!-- Node9&#45;&gt;Node9 -->
<g id="edge4" class="edge">
<title>Node9&#45;&gt;Node9</title>
<path fill="none" stroke="#191970" d="M410.9594,-264.5134C397.132,-273.322 405.4761,-283 435.9917,-283 457.448,-283 467.943,-278.2153 467.4768,-272.3125"/>
<polygon fill="#191970" stroke="#191970" points="470.0955,-269.987 461.024,-264.5134 464.7022,-274.4493 470.0955,-269.987"/>
</g>
<!-- Node10 -->
<g id="node5" class="node">
<title>Node10</title>
<g id="a_node5"><a xlink:href="debug_8cpp.xhtml#a1a395cd89e6df6f9fd16ed25601ac351" target="_top" xlink:title="Sets #NAMON::generalLogLevel;. ">
<polygon fill="#ffffff" stroke="#000000" points="548.9053,-246.5 548.9053,-264.5 661.6143,-264.5 661.6143,-246.5 548.9053,-246.5"/>
<text text-anchor="middle" x="605.2598" y="-252.5" font-family="Helvetica,sans-Serif" font-size="10.00" fill="#000000">NAMON::setLogLevel</text>
</a>
</g>
</g>
<!-- Node9&#45;&gt;Node10 -->
<g id="edge5" class="edge">
<title>Node9&#45;&gt;Node10</title>
<path fill="none" stroke="#191970" d="M472.3039,-255.5C491.5949,-255.5 515.923,-255.5 538.4786,-255.5"/>
<polygon fill="#191970" stroke="#191970" points="538.6928,-259.0001 548.6928,-255.5 538.6928,-252.0001 538.6928,-259.0001"/>
</g>
<!-- Node10&#45;&gt;Node10 -->
<g id="edge6" class="edge">
<title>Node10&#45;&gt;Node10</title>
<path fill="none" stroke="#191970" d="M580.2274,-264.5134C566.4,-273.322 574.7441,-283 605.2598,-283 626.7161,-283 637.2111,-278.2153 636.7449,-272.3125"/>
<polygon fill="#191970" stroke="#191970" points="639.3636,-269.987 630.2921,-264.5134 633.9702,-274.4493 639.3636,-269.987"/>
</g>
<!-- Node12&#45;&gt;Node8 -->
<g id="edge9" class="edge">
<title>Node12&#45;&gt;Node8</title>
<path fill="none" stroke="#191970" d="M285.216,-91.5055C313.4141,-96.928 349.5079,-103.869 379.3107,-109.6001"/>
<polygon fill="#191970" stroke="#191970" points="378.675,-113.0419 389.1561,-111.4934 379.997,-106.1679 378.675,-113.0419"/>
</g>
<!-- Node13 -->
<g id="node8" class="node">
<title>Node13</title>
<g id="a_node8"><a xlink:href="class_n_a_m_o_n_1_1_netflow.xhtml#acd9ecb6f7bac62db7294f5dd76094b38" target="_top" xlink:title="Get method for NAMON::Netflow::proto. ">
<polygon fill="#ffffff" stroke="#000000" points="368.2505,-74.5 368.2505,-92.5 503.7329,-92.5 503.7329,-74.5 368.2505,-74.5"/>
<text text-anchor="middle" x="435.9917" y="-80.5" font-family="Helvetica,sans-Serif" font-size="10.00" fill="#000000">NAMON::Netflow::getProto</text>
</a>
</g>
</g>
<!-- Node12&#45;&gt;Node13 -->
<g id="edge10" class="edge">
<title>Node12&#45;&gt;Node13</title>
<path fill="none" stroke="#191970" d="M323.3355,-82.9299C334.7882,-82.9879 346.4941,-83.0471 357.8214,-83.1044"/>
<polygon fill="#191970" stroke="#191970" points="358.0818,-86.6057 368.0994,-83.1564 358.1173,-79.6058 358.0818,-86.6057"/>
</g>
<!-- Node14 -->
<g id="node9" class="node">
<title>Node14</title>
<g id="a_node9"><a xlink:href="class_n_a_m_o_n_1_1_netflow.xhtml#a30554593d83f2f2a071b19d63ba79cc2" target="_top" xlink:title="Get method for NAMON::Netflow::ipVersion. ">
<polygon fill="#ffffff" stroke="#000000" points="359.3516,-37.5 359.3516,-55.5 512.6318,-55.5 512.6318,-37.5 359.3516,-37.5"/>
<text text-anchor="middle" x="435.9917" y="-43.5" font-family="Helvetica,sans-Serif" font-size="10.00" fill="#000000">NAMON::Netflow::getIpVersion</text>
</a>
</g>
</g>
<!-- Node12&#45;&gt;Node14 -->
<g id="edge11" class="edge">
<title>Node12&#45;&gt;Node14</title>
<path fill="none" stroke="#191970" d="M287.9954,-73.4621C314.7743,-68.5835 348.0262,-62.5257 376.2236,-57.3886"/>
<polygon fill="#191970" stroke="#191970" points="377.1514,-60.7773 386.3621,-55.5416 375.8967,-53.8906 377.1514,-60.7773"/>
</g>
<!-- Node15 -->
<g id="node10" class="node">
<title>Node15</title>
<g id="a_node10"><a xlink:href="class_n_a_m_o_n_1_1_netflow.xhtml#af02ec690b9b87a91d4eb25204bb6d1ff" target="_top" xlink:title="Get method for NAMON::Netflow::localIp. ">
<polygon fill="#ffffff" stroke="#000000" points="364.0781,-.5 364.0781,-18.5 507.9053,-18.5 507.9053,-.5 364.0781,-.5"/>
<text text-anchor="middle" x="435.9917" y="-6.5" font-family="Helvetica,sans-Serif" font-size="10.00" fill="#000000">NAMON::Netflow::getLocalIp</text>
</a>
</g>
</g>
<!-- Node12&#45;&gt;Node15 -->
<g id="edge12" class="edge">
<title>Node12&#45;&gt;Node15</title>
<path fill="none" stroke="#191970" d="M255.534,-73.3731C278.5442,-61.4343 320.9395,-40.5098 359.0781,-27.5 365.9491,-25.1562 373.2674,-23.012 380.554,-21.0851"/>
<polygon fill="#191970" stroke="#191970" points="381.5863,-24.4344 390.4259,-18.5939 379.8735,-17.6472 381.5863,-24.4344"/>
</g>
<!-- Node16&#45;&gt;Node7 -->
<g id="edge14" class="edge">
<title>Node16&#45;&gt;Node7</title>
<path fill="none" stroke="#191970" d="M254.3027,-243.5404C276.9469,-256.0754 320.0519,-278.7418 359.0781,-292.5 365.836,-294.8824 373.0393,-297.0421 380.2246,-298.9708"/>
<polygon fill="#191970" stroke="#191970" points="379.4134,-302.3759 389.9683,-301.4569 381.1441,-295.5932 379.4134,-302.3759"/>
</g>
<!-- Node16&#45;&gt;Node9 -->
<g id="edge15" class="edge">
<title>Node16&#45;&gt;Node9</title>
<path fill="none" stroke="#191970" d="M296.0731,-240.6305C325.771,-243.7866 361.5008,-247.5837 389.4207,-250.5508"/>
<polygon fill="#191970" stroke="#191970" points="389.3962,-254.0678 399.7101,-251.6443 390.136,-247.107 389.3962,-254.0678"/>
</g>
<!-- Node16&#45;&gt;Node11 -->
<g id="edge16" class="edge">
<title>Node16&#45;&gt;Node11</title>
<path fill="none" stroke="#191970" d="M296.0731,-228.0775C317.0162,-225.7459 340.9591,-223.0803 363.0473,-220.6211"/>
<polygon fill="#191970" stroke="#191970" points="363.4967,-224.0928 373.048,-219.5077 362.7221,-217.1358 363.4967,-224.0928"/>
</g>
<!-- Node16&#45;&gt;Node17 -->
<g id="edge17" class="edge">
<title>Node16&#45;&gt;Node17</title>
<path fill="none" stroke="#191970" d="M261.8967,-225.4889C286.1627,-216.2459 325.1528,-201.5554 359.0781,-189.5 367.097,-186.6505 375.6114,-183.6989 383.9418,-180.8519"/>
<polygon fill="#191970" stroke="#191970" points="385.2542,-184.1025 393.5955,-177.5702 383.0011,-177.475 385.2542,-184.1025"/>
</g>
</g>
</svg>
