<?xml version="1.0" encoding="UTF-8" standalone="no"?>
<!DOCTYPE svg PUBLIC "-//W3C//DTD SVG 1.1//EN"
 "http://www.w3.org/Graphics/SVG/1.1/DTD/svg11.dtd">
<!-- Generated by graphviz version 2.40.1 (20161225.0304)
 -->
<!-- Title: NAMON::Cache::saveResults Pages: 1 -->
<svg width="346pt" height="64pt"
 viewBox="0.00 0.00 345.52 64.00" xmlns="http://www.w3.org/2000/svg" xmlns:xlink="http://www.w3.org/1999/xlink">
<g id="graph0" class="graph" transform="scale(1 1) rotate(0) translate(4 60)">
<title>NAMON::Cache::saveResults</title>
<polygon fill="#ffffff" stroke="transparent" points="-4,4 -4,-60 341.5166,-60 341.5166,4 -4,4"/>
<!-- Node19 -->
<g id="node1" class="node">
<title>Node19</title>
<polygon fill="#bfbfbf" stroke="#000000" points="0,-18.5 0,-36.5 147.709,-36.5 147.709,-18.5 0,-18.5"/>
<text text-anchor="middle" x="73.8545" y="-24.5" font-family="Helvetica,sans-Serif" font-size="10.00" fill="#000000">NAMON::Cache::saveResults</text>
</g>
<!-- Node20 -->
<g id="node2" class="node">
<title>Node20</title>
<g id="a_node2"><a xlink:href="class_n_a_m_o_n_1_1_t_entry.xhtml#a3bddfe1a3b0489e6008e2ed90b67523f" target="_top" xlink:title="Get method for NAMON::TEntry::appName. ">
<polygon fill="#ffffff" stroke="#000000" points="184.5366,-37.5 184.5366,-55.5 336.689,-55.5 336.689,-37.5 184.5366,-37.5"/>
<text text-anchor="middle" x="260.6128" y="-43.5" font-family="Helvetica,sans-Serif" font-size="10.00" fill="#000000">NAMON::TEntry::getAppName</text>
</a>
</g>
</g>
<!-- Node19&#45;&gt;Node20 -->
<g id="edge1" class="edge">
<title>Node19&#45;&gt;Node20</title>
<path fill="none" stroke="#191970" d="M147.9346,-35.0366C156.6657,-35.9249 165.6322,-36.8371 174.5105,-37.7403"/>
<polygon fill="#191970" stroke="#191970" points="174.1766,-41.2243 184.4795,-38.7545 174.8852,-34.2603 174.1766,-41.2243"/>
</g>
<!-- Node21 -->
<g id="node3" class="node">
<title>Node21</title>
<g id="a_node3"><a xlink:href="class_n_a_m_o_n_1_1_t_entry.xhtml#af0fae8cb7b437ff71eee166b58111fa9" target="_top" xlink:title="Get method for NAMON::TEntry::n. ">
<polygon fill="#ffffff" stroke="#000000" points="183.709,-.5 183.709,-18.5 337.5166,-18.5 337.5166,-.5 183.709,-.5"/>
<text text-anchor="middle" x="260.6128" y="-6.5" font-family="Helvetica,sans-Serif" font-size="10.00" fill="#000000">NAMON::TEntry::getNetflowPtr</text>
</a>
</g>
</g>
<!-- Node19&#45;&gt;Node21 -->
<g id="edge2" class="edge">
<title>Node19&#45;&gt;Node21</title>
<path fill="none" stroke="#191970" d="M147.9346,-20.3601C156.3522,-19.5488 164.9887,-18.7164 173.5539,-17.8908"/>
<polygon fill="#191970" stroke="#191970" points="173.9405,-21.3699 183.5586,-16.9266 173.2689,-14.4022 173.9405,-21.3699"/>
</g>
</g>
</svg>
