<?xml version="1.0" encoding="UTF-8" standalone="no"?>
<!DOCTYPE svg PUBLIC "-//W3C//DTD SVG 1.1//EN"
 "http://www.w3.org/Graphics/SVG/1.1/DTD/svg11.dtd">
<!-- Generated by graphviz version 2.40.1 (20161225.0304)
 -->
<!-- Title: TOOL::TEntryOrTTree Pages: 1 -->
<svg width="178pt" height="82pt"
 viewBox="0.00 0.00 178.48 82.00" xmlns="http://www.w3.org/2000/svg" xmlns:xlink="http://www.w3.org/1999/xlink">
<g id="graph0" class="graph" transform="scale(1 1) rotate(0) translate(4 78)">
<title>TOOL::TEntryOrTTree</title>
<polygon fill="#ffffff" stroke="transparent" points="-4,4 -4,-78 174.4834,-78 174.4834,4 -4,4"/>
<!-- Node0 -->
<g id="node1" class="node">
<title>Node0</title>
<polygon fill="#bfbfbf" stroke="#000000" points="28.2939,-55.5 28.2939,-73.5 143.7617,-73.5 143.7617,-55.5 28.2939,-55.5"/>
<text text-anchor="middle" x="86.0278" y="-61.5" font-family="Helvetica,sans-Serif" font-size="10.00" fill="#000000">TOOL::TEntryOrTTree</text>
</g>
<!-- Node1 -->
<g id="node2" class="node">
<title>Node1</title>
<g id="a_node2"><a xlink:href="class_t_o_o_l_1_1_t_entry.xhtml" target="_top" xlink:title="Class with application name, its socket inode (Linux) or PID (windows) and a pointer to Netflow class...">
<polygon fill="#ffffff" stroke="#000000" points="0,-.5 0,-18.5 78.0557,-18.5 78.0557,-.5 0,-.5"/>
<text text-anchor="middle" x="39.0278" y="-6.5" font-family="Helvetica,sans-Serif" font-size="10.00" fill="#000000">TOOL::TEntry</text>
</a>
</g>
</g>
<!-- Node0&#45;&gt;Node1 -->
<g id="edge1" class="edge">
<title>Node0&#45;&gt;Node1</title>
<path fill="none" stroke="#191970" d="M71.6931,-47.7253C63.5661,-38.215 53.705,-26.6754 46.9575,-18.7795"/>
<polygon fill="#191970" stroke="#191970" points="69.1094,-50.0893 78.2667,-55.4179 74.431,-45.5417 69.1094,-50.0893"/>
</g>
<!-- Node2 -->
<g id="node3" class="node">
<title>Node2</title>
<g id="a_node3"><a xlink:href="class_t_o_o_l_1_1_t_tree.xhtml" target="_top" xlink:title="Class with pointers to subtrees. ">
<polygon fill="#ffffff" stroke="#000000" points="95.5723,-.5 95.5723,-18.5 170.4834,-18.5 170.4834,-.5 95.5723,-.5"/>
<text text-anchor="middle" x="133.0278" y="-6.5" font-family="Helvetica,sans-Serif" font-size="10.00" fill="#000000">TOOL::TTree</text>
</a>
</g>
</g>
<!-- Node0&#45;&gt;Node2 -->
<g id="edge2" class="edge">
<title>Node0&#45;&gt;Node2</title>
<path fill="none" stroke="#191970" d="M100.3626,-47.7253C108.4895,-38.215 118.3507,-26.6754 125.0981,-18.7795"/>
<polygon fill="#191970" stroke="#191970" points="97.6247,-45.5417 93.7889,-55.4179 102.9463,-50.0893 97.6247,-45.5417"/>
</g>
</g>
</svg>
