<?xml version="1.0" encoding="UTF-8" standalone="no"?>
<!DOCTYPE svg PUBLIC "-//W3C//DTD SVG 1.1//EN"
 "http://www.w3.org/Graphics/SVG/1.1/DTD/svg11.dtd">
<!-- Generated by graphviz version 2.40.1 (20161225.0304)
 -->
<!-- Title: NAMON::TTree::insert Pages: 1 -->
<svg width="462pt" height="176pt"
 viewBox="0.00 0.00 461.61 176.00" xmlns="http://www.w3.org/2000/svg" xmlns:xlink="http://www.w3.org/1999/xlink">
<g id="graph0" class="graph" transform="scale(1 1) rotate(0) translate(4 172)">
<title>NAMON::TTree::insert</title>
<polygon fill="#ffffff" stroke="transparent" points="-4,4 -4,-172 457.6084,-172 457.6084,4 -4,4"/>
<!-- Node6 -->
<g id="node1" class="node">
<title>Node6</title>
<polygon fill="#bfbfbf" stroke="#000000" points="0,-73.5 0,-91.5 115.0918,-91.5 115.0918,-73.5 0,-73.5"/>
<text text-anchor="middle" x="57.5459" y="-79.5" font-family="Helvetica,sans-Serif" font-size="10.00" fill="#000000">NAMON::TTree::insert</text>
</g>
<!-- Node7 -->
<g id="node2" class="node">
<title>Node7</title>
<g id="a_node2"><a xlink:href="class_n_a_m_o_n_1_1_t_entry.xhtml#af0fae8cb7b437ff71eee166b58111fa9" target="_top" xlink:title="Get method for NAMON::TEntry::n. ">
<polygon fill="#ffffff" stroke="#000000" points="151.0918,-149.5 151.0918,-167.5 304.8994,-167.5 304.8994,-149.5 151.0918,-149.5"/>
<text text-anchor="middle" x="227.9956" y="-155.5" font-family="Helvetica,sans-Serif" font-size="10.00" fill="#000000">NAMON::TEntry::getNetflowPtr</text>
</a>
</g>
</g>
<!-- Node6&#45;&gt;Node7 -->
<g id="edge1" class="edge">
<title>Node6&#45;&gt;Node7</title>
<path fill="none" stroke="#191970" d="M69.2663,-91.5345C86.3446,-104.2736 119.4874,-127.4178 151.0918,-140.5 156.611,-142.7846 162.4787,-144.8129 168.4165,-146.606"/>
<polygon fill="#191970" stroke="#191970" points="167.8532,-150.0827 178.4264,-149.4052 169.7385,-143.3413 167.8532,-150.0827"/>
</g>
<!-- Node8 -->
<g id="node3" class="node">
<title>Node8</title>
<g id="a_node3"><a xlink:href="debug_8hpp.xhtml#a9f1c1527f51faaaca3be83b5a8928ca5" target="_top" xlink:title="Function that prints log messages. ">
<polygon fill="#ffffff" stroke="#000000" points="191.9341,-94.5 191.9341,-112.5 264.0571,-112.5 264.0571,-94.5 191.9341,-94.5"/>
<text text-anchor="middle" x="227.9956" y="-100.5" font-family="Helvetica,sans-Serif" font-size="10.00" fill="#000000">NAMON::log</text>
</a>
</g>
</g>
<!-- Node6&#45;&gt;Node8 -->
<g id="edge2" class="edge">
<title>Node6&#45;&gt;Node8</title>
<path fill="none" stroke="#191970" d="M115.2524,-89.6096C136.8991,-92.2766 161.199,-95.2704 181.681,-97.7939"/>
<polygon fill="#191970" stroke="#191970" points="181.3512,-101.2796 191.7042,-99.0288 182.2072,-94.3322 181.3512,-101.2796"/>
</g>
<!-- Node10 -->
<g id="node5" class="node">
<title>Node10</title>
<g id="a_node5"><a xlink:href="class_n_a_m_o_n_1_1_t_entry_or_t_tree.xhtml#afd79f5ba5cbe063e8e557c288826cbe7" target="_top" xlink:title="Get method for NAMON::TEntryOrTTree::level. ">
<polygon fill="#ffffff" stroke="#000000" points="165.1763,-47.5 165.1763,-75.5 290.8149,-75.5 290.8149,-47.5 165.1763,-47.5"/>
<text text-anchor="start" x="173.1763" y="-63.5" font-family="Helvetica,sans-Serif" font-size="10.00" fill="#000000">NAMON::TEntryOrTTree</text>
<text text-anchor="middle" x="227.9956" y="-53.5" font-family="Helvetica,sans-Serif" font-size="10.00" fill="#000000">::getLevel</text>
</a>
</g>
</g>
<!-- Node6&#45;&gt;Node10 -->
<g id="edge6" class="edge">
<title>Node6&#45;&gt;Node10</title>
<path fill="none" stroke="#191970" d="M115.2524,-75.3904C128.0281,-73.8164 141.728,-72.1285 155.0217,-70.4906"/>
<polygon fill="#191970" stroke="#191970" points="155.5894,-73.9473 165.0863,-69.2506 154.7333,-66.9998 155.5894,-73.9473"/>
</g>
<!-- Node11 -->
<g id="node6" class="node">
<title>Node11</title>
<g id="a_node6"><a xlink:href="class_n_a_m_o_n_1_1_t_entry_or_t_tree.xhtml#a133099e2ed5580107c782181a8d5301d" target="_top" xlink:title="Set method for NAMON::TEntryOrTTree::level. ">
<polygon fill="#ffffff" stroke="#000000" points="165.1763,-.5 165.1763,-28.5 290.8149,-28.5 290.8149,-.5 165.1763,-.5"/>
<text text-anchor="start" x="173.1763" y="-16.5" font-family="Helvetica,sans-Serif" font-size="10.00" fill="#000000">NAMON::TEntryOrTTree</text>
<text text-anchor="middle" x="227.9956" y="-6.5" font-family="Helvetica,sans-Serif" font-size="10.00" fill="#000000">::setLevel</text>
</a>
</g>
</g>
<!-- Node6&#45;&gt;Node11 -->
<g id="edge7" class="edge">
<title>Node6&#45;&gt;Node11</title>
<path fill="none" stroke="#191970" d="M74.8187,-73.4985C93.3589,-64.0456 123.8286,-49.1082 151.0918,-38.5 156.994,-36.2035 163.2142,-33.9685 169.4554,-31.8451"/>
<polygon fill="#191970" stroke="#191970" points="170.8437,-35.0724 179.2375,-28.6074 168.6442,-28.4269 170.8437,-35.0724"/>
</g>
<!-- Node8&#45;&gt;Node8 -->
<g id="edge3" class="edge">
<title>Node8&#45;&gt;Node8</title>
<path fill="none" stroke="#191970" d="M202.9633,-112.5134C189.1359,-121.322 197.48,-131 227.9956,-131 249.4519,-131 259.9469,-126.2153 259.4807,-120.3125"/>
<polygon fill="#191970" stroke="#191970" points="262.0994,-117.987 253.028,-112.5134 256.7061,-122.4493 262.0994,-117.987"/>
</g>
<!-- Node9 -->
<g id="node4" class="node">
<title>Node9</title>
<g id="a_node4"><a xlink:href="debug_8cpp.xhtml#a1a395cd89e6df6f9fd16ed25601ac351" target="_top" xlink:title="Sets #NAMON::generalLogLevel;. ">
<polygon fill="#ffffff" stroke="#000000" points="340.8994,-94.5 340.8994,-112.5 453.6084,-112.5 453.6084,-94.5 340.8994,-94.5"/>
<text text-anchor="middle" x="397.2539" y="-100.5" font-family="Helvetica,sans-Serif" font-size="10.00" fill="#000000">NAMON::setLogLevel</text>
</a>
</g>
</g>
<!-- Node8&#45;&gt;Node9 -->
<g id="edge4" class="edge">
<title>Node8&#45;&gt;Node9</title>
<path fill="none" stroke="#191970" d="M264.3058,-103.5C283.5956,-103.5 307.9222,-103.5 330.4766,-103.5"/>
<polygon fill="#191970" stroke="#191970" points="330.6902,-107.0001 340.6902,-103.5 330.6902,-100.0001 330.6902,-107.0001"/>
</g>
<!-- Node9&#45;&gt;Node9 -->
<g id="edge5" class="edge">
<title>Node9&#45;&gt;Node9</title>
<path fill="none" stroke="#191970" d="M372.2216,-112.5134C358.3942,-121.322 366.7383,-131 397.2539,-131 418.7102,-131 429.2052,-126.2153 428.739,-120.3125"/>
<polygon fill="#191970" stroke="#191970" points="431.3577,-117.987 422.2863,-112.5134 425.9644,-122.4493 431.3577,-117.987"/>
</g>
</g>
</svg>
