<?xml version="1.0" encoding="UTF-8" standalone="no"?>
<!DOCTYPE svg PUBLIC "-//W3C//DTD SVG 1.1//EN"
 "http://www.w3.org/Graphics/SVG/1.1/DTD/svg11.dtd">
<!-- Generated by graphviz version 2.40.1 (20161225.0304)
 -->
<!-- Title: TOOL::Cache::saveResults Pages: 1 -->
<svg width="325pt" height="64pt"
 viewBox="0.00 0.00 325.17 64.00" xmlns="http://www.w3.org/2000/svg" xmlns:xlink="http://www.w3.org/1999/xlink">
<g id="graph0" class="graph" transform="scale(1 1) rotate(0) translate(4 60)">
<title>TOOL::Cache::saveResults</title>
<polygon fill="#ffffff" stroke="transparent" points="-4,4 -4,-60 321.1748,-60 321.1748,4 -4,4"/>
<!-- Node19 -->
<g id="node1" class="node">
<title>Node19</title>
<polygon fill="#bfbfbf" stroke="#000000" points="0,-18.5 0,-36.5 137.5381,-36.5 137.5381,-18.5 0,-18.5"/>
<text text-anchor="middle" x="68.769" y="-24.5" font-family="Helvetica,sans-Serif" font-size="10.00" fill="#000000">TOOL::Cache::saveResults</text>
</g>
<!-- Node20 -->
<g id="node2" class="node">
<title>Node20</title>
<g id="a_node2"><a xlink:href="class_t_o_o_l_1_1_t_entry.xhtml#a5975fd365fdb2faf75b93f59149f7993" target="_top" xlink:title="Get method for TOOL::TEntry::appName. ">
<polygon fill="#ffffff" stroke="#000000" points="174.3657,-37.5 174.3657,-55.5 316.3472,-55.5 316.3472,-37.5 174.3657,-37.5"/>
<text text-anchor="middle" x="245.3564" y="-43.5" font-family="Helvetica,sans-Serif" font-size="10.00" fill="#000000">TOOL::TEntry::getAppName</text>
</a>
</g>
</g>
<!-- Node19&#45;&gt;Node20 -->
<g id="edge1" class="edge">
<title>Node19&#45;&gt;Node20</title>
<path fill="none" stroke="#191970" d="M137.548,-34.9003C146.2728,-35.8391 155.2652,-36.8066 164.1609,-37.7637"/>
<polygon fill="#191970" stroke="#191970" points="163.8269,-41.2479 174.1439,-38.8379 164.5758,-34.2881 163.8269,-41.2479"/>
</g>
<!-- Node21 -->
<g id="node3" class="node">
<title>Node21</title>
<g id="a_node3"><a xlink:href="class_t_o_o_l_1_1_t_entry.xhtml#af9bb543217d0fb9d47f41bc2d086fcc8" target="_top" xlink:title="Get method for TOOL::TEntry::n. ">
<polygon fill="#ffffff" stroke="#000000" points="173.5381,-.5 173.5381,-18.5 317.1748,-18.5 317.1748,-.5 173.5381,-.5"/>
<text text-anchor="middle" x="245.3564" y="-6.5" font-family="Helvetica,sans-Serif" font-size="10.00" fill="#000000">TOOL::TEntry::getNetflowPtr</text>
</a>
</g>
</g>
<!-- Node19&#45;&gt;Node21 -->
<g id="edge2" class="edge">
<title>Node19&#45;&gt;Node21</title>
<path fill="none" stroke="#191970" d="M137.548,-20.4892C145.9702,-19.6307 154.6417,-18.7468 163.2349,-17.8709"/>
<polygon fill="#191970" stroke="#191970" points="163.6734,-21.3444 173.2669,-16.8483 162.9635,-14.3805 163.6734,-21.3444"/>
</g>
</g>
</svg>
