<?xml version="1.0" encoding="UTF-8" standalone="no"?>
<!DOCTYPE svg PUBLIC "-//W3C//DTD SVG 1.1//EN"
 "http://www.w3.org/Graphics/SVG/1.1/DTD/svg11.dtd">
<!-- Generated by graphviz version 2.40.1 (20161225.0304)
 -->
<!-- Title: NAMON::CustomBlock::write Pages: 1 -->
<svg width="312pt" height="50pt"
 viewBox="0.00 0.00 312.20 50.00" xmlns="http://www.w3.org/2000/svg" xmlns:xlink="http://www.w3.org/1999/xlink">
<g id="graph0" class="graph" transform="scale(1 1) rotate(0) translate(4 46)">
<title>NAMON::CustomBlock::write</title>
<polygon fill="#ffffff" stroke="transparent" points="-4,4 -4,-46 308.2012,-46 308.2012,4 -4,4"/>
<!-- Node2 -->
<g id="node1" class="node">
<title>Node2</title>
<polygon fill="#bfbfbf" stroke="#000000" points="0,-.5 0,-28.5 117.6846,-28.5 117.6846,-.5 0,-.5"/>
<text text-anchor="start" x="8" y="-16.5" font-family="Helvetica,sans-Serif" font-size="10.00" fill="#000000">NAMON::CustomBlock</text>
<text text-anchor="middle" x="58.8423" y="-6.5" font-family="Helvetica,sans-Serif" font-size="10.00" fill="#000000">::write</text>
</g>
<!-- Node3 -->
<g id="node2" class="node">
<title>Node3</title>
<g id="a_node2"><a xlink:href="pcapng__blocks_8hpp.xhtml#a0172951579b09d97a40a36c79257f466" target="_top" xlink:title="Computes number of padding bytes to be inserted in order to reach multiple of x. ">
<polygon fill="#ffffff" stroke="#000000" points="153.6846,-5.5 153.6846,-23.5 304.2012,-23.5 304.2012,-5.5 153.6846,-5.5"/>
<text text-anchor="middle" x="228.9429" y="-11.5" font-family="Helvetica,sans-Serif" font-size="10.00" fill="#000000">NAMON::computePaddingLen</text>
</a>
</g>
</g>
<!-- Node2&#45;&gt;Node3 -->
<g id="edge1" class="edge">
<title>Node2&#45;&gt;Node3</title>
<path fill="none" stroke="#191970" d="M117.8578,-14.5C126.134,-14.5 134.7741,-14.5 143.4208,-14.5"/>
<polygon fill="#191970" stroke="#191970" points="143.5528,-18.0001 153.5527,-14.5 143.5527,-11.0001 143.5528,-18.0001"/>
</g>
<!-- Node3&#45;&gt;Node3 -->
<g id="edge2" class="edge">
<title>Node3&#45;&gt;Node3</title>
<path fill="none" stroke="#191970" d="M203.6125,-23.5134C189.6205,-32.322 198.064,-42 228.9429,-42 250.6546,-42 261.2746,-37.2153 260.8028,-31.3125"/>
<polygon fill="#191970" stroke="#191970" points="263.3764,-28.9341 254.2732,-23.5134 258.0091,-33.4278 263.3764,-28.9341"/>
</g>
</g>
</svg>
