<?xml version="1.0" encoding="UTF-8" standalone="no"?>
<!DOCTYPE svg PUBLIC "-//W3C//DTD SVG 1.1//EN"
 "http://www.w3.org/Graphics/SVG/1.1/DTD/svg11.dtd">
<!-- Generated by graphviz version 2.40.1 (20161225.0304)
 -->
<!-- Title: TOOL::TEntry::levelCompare Pages: 1 -->
<svg width="333pt" height="138pt"
 viewBox="0.00 0.00 332.96 138.00" xmlns="http://www.w3.org/2000/svg" xmlns:xlink="http://www.w3.org/1999/xlink">
<g id="graph0" class="graph" transform="scale(1 1) rotate(0) translate(4 134)">
<title>TOOL::TEntry::levelCompare</title>
<polygon fill="#ffffff" stroke="transparent" points="-4,4 -4,-134 328.9629,-134 328.9629,4 -4,4"/>
<!-- Node15 -->
<g id="node1" class="node">
<title>Node15</title>
<polygon fill="#bfbfbf" stroke="#000000" points="0,-55.5 0,-73.5 145.3066,-73.5 145.3066,-55.5 0,-55.5"/>
<text text-anchor="middle" x="72.6533" y="-61.5" font-family="Helvetica,sans-Serif" font-size="10.00" fill="#000000">TOOL::TEntry::levelCompare</text>
</g>
<!-- Node16 -->
<g id="node2" class="node">
<title>Node16</title>
<g id="a_node2"><a xlink:href="class_t_o_o_l_1_1_netflow.xhtml#a236c3017659c725da82f3f9abd025851" target="_top" xlink:title="Get method for TOOL::Netflow::localPort. ">
<polygon fill="#ffffff" stroke="#000000" points="181.3066,-111.5 181.3066,-129.5 324.9629,-129.5 324.9629,-111.5 181.3066,-111.5"/>
<text text-anchor="middle" x="253.1348" y="-117.5" font-family="Helvetica,sans-Serif" font-size="10.00" fill="#000000">TOOL::Netflow::getLocalPort</text>
</a>
</g>
</g>
<!-- Node15&#45;&gt;Node16 -->
<g id="edge1" class="edge">
<title>Node15&#45;&gt;Node16</title>
<path fill="none" stroke="#191970" d="M96.6143,-73.5855C118.4946,-81.7127 151.8254,-93.6706 181.3066,-102.5 188.7536,-104.7303 196.69,-106.9112 204.4692,-108.9417"/>
<polygon fill="#191970" stroke="#191970" points="203.6349,-112.3409 214.1901,-111.4256 205.3679,-105.5588 203.6349,-112.3409"/>
</g>
<!-- Node17 -->
<g id="node3" class="node">
<title>Node17</title>
<g id="a_node3"><a xlink:href="class_t_o_o_l_1_1_netflow.xhtml#a90e60833b8662f06ca181452aafaa27e" target="_top" xlink:title="Get method for TOOL::Netflow::proto. ">
<polygon fill="#ffffff" stroke="#000000" points="190.479,-74.5 190.479,-92.5 315.7905,-92.5 315.7905,-74.5 190.479,-74.5"/>
<text text-anchor="middle" x="253.1348" y="-80.5" font-family="Helvetica,sans-Serif" font-size="10.00" fill="#000000">TOOL::Netflow::getProto</text>
</a>
</g>
</g>
<!-- Node15&#45;&gt;Node17 -->
<g id="edge2" class="edge">
<title>Node15&#45;&gt;Node17</title>
<path fill="none" stroke="#191970" d="M145.5418,-72.1733C157.0432,-73.3841 168.9355,-74.636 180.4327,-75.8464"/>
<polygon fill="#191970" stroke="#191970" points="180.1033,-79.3309 190.4148,-76.8972 180.8362,-72.3694 180.1033,-79.3309"/>
</g>
<!-- Node18 -->
<g id="node4" class="node">
<title>Node18</title>
<g id="a_node4"><a xlink:href="class_t_o_o_l_1_1_netflow.xhtml#a1b36fe95c3c9c18fd8ddc646281474b8" target="_top" xlink:title="Get method for TOOL::Netflow::ipVersion. ">
<polygon fill="#ffffff" stroke="#000000" points="181.5801,-37.5 181.5801,-55.5 324.6895,-55.5 324.6895,-37.5 181.5801,-37.5"/>
<text text-anchor="middle" x="253.1348" y="-43.5" font-family="Helvetica,sans-Serif" font-size="10.00" fill="#000000">TOOL::Netflow::getIpVersion</text>
</a>
</g>
</g>
<!-- Node15&#45;&gt;Node18 -->
<g id="edge3" class="edge">
<title>Node15&#45;&gt;Node18</title>
<path fill="none" stroke="#191970" d="M145.5418,-57.2306C154.0502,-56.382 162.7724,-55.5121 171.3904,-54.6526"/>
<polygon fill="#191970" stroke="#191970" points="171.8369,-58.1256 181.4402,-53.6503 171.1422,-51.1601 171.8369,-58.1256"/>
</g>
<!-- Node19 -->
<g id="node5" class="node">
<title>Node19</title>
<g id="a_node5"><a xlink:href="class_t_o_o_l_1_1_netflow.xhtml#a075c89c1c339bb8aaf54c6f9749f309b" target="_top" xlink:title="Get method for TOOL::Netflow::localIp. ">
<polygon fill="#ffffff" stroke="#000000" points="186.3066,-.5 186.3066,-18.5 319.9629,-18.5 319.9629,-.5 186.3066,-.5"/>
<text text-anchor="middle" x="253.1348" y="-6.5" font-family="Helvetica,sans-Serif" font-size="10.00" fill="#000000">TOOL::Netflow::getLocalIp</text>
</a>
</g>
</g>
<!-- Node15&#45;&gt;Node19 -->
<g id="edge4" class="edge">
<title>Node15&#45;&gt;Node19</title>
<path fill="none" stroke="#191970" d="M98.4174,-55.4683C120.3445,-47.901 152.7373,-37.0028 181.3066,-28.5 189.7503,-25.987 198.8009,-23.4626 207.5338,-21.1116"/>
<polygon fill="#191970" stroke="#191970" points="208.4432,-24.4915 217.2091,-18.541 206.6456,-17.7263 208.4432,-24.4915"/>
</g>
</g>
</svg>
