<?xml version="1.0" encoding="UTF-8" standalone="no"?>
<!DOCTYPE svg PUBLIC "-//W3C//DTD SVG 1.1//EN"
 "http://www.w3.org/Graphics/SVG/1.1/DTD/svg11.dtd">
<!-- Generated by graphviz version 2.40.1 (20161225.0304)
 -->
<!-- Title: TOOL::Cache::insert Pages: 1 -->
<svg width="629pt" height="328pt"
 viewBox="0.00 0.00 628.93 328.00" xmlns="http://www.w3.org/2000/svg" xmlns:xlink="http://www.w3.org/1999/xlink">
<g id="graph0" class="graph" transform="scale(1 1) rotate(0) translate(4 324)">
<title>TOOL::Cache::insert</title>
<polygon fill="#ffffff" stroke="transparent" points="-4,4 -4,-324 624.9307,-324 624.9307,4 -4,4"/>
<!-- Node6 -->
<g id="node1" class="node">
<title>Node6</title>
<polygon fill="#bfbfbf" stroke="#000000" points="0,-187.5 0,-205.5 107.5234,-205.5 107.5234,-187.5 0,-187.5"/>
<text text-anchor="middle" x="53.7617" y="-193.5" font-family="Helvetica,sans-Serif" font-size="10.00" fill="#000000">TOOL::Cache::insert</text>
</g>
<!-- Node7 -->
<g id="node2" class="node">
<title>Node7</title>
<g id="a_node2"><a xlink:href="class_t_o_o_l_1_1_t_entry.xhtml#af9bb543217d0fb9d47f41bc2d086fcc8" target="_top" xlink:title="Get method for TOOL::TEntry::n. ">
<polygon fill="#ffffff" stroke="#000000" points="338.7461,-301.5 338.7461,-319.5 482.3828,-319.5 482.3828,-301.5 338.7461,-301.5"/>
<text text-anchor="middle" x="410.5645" y="-307.5" font-family="Helvetica,sans-Serif" font-size="10.00" fill="#000000">TOOL::TEntry::getNetflowPtr</text>
</a>
</g>
</g>
<!-- Node6&#45;&gt;Node7 -->
<g id="edge1" class="edge">
<title>Node6&#45;&gt;Node7</title>
<path fill="none" stroke="#191970" d="M61.015,-205.625C74.9738,-222.4584 107.406,-258.1668 143.5234,-274.5 201.6873,-300.8032 273.7168,-309.2939 328.3049,-311.4881"/>
<polygon fill="#191970" stroke="#191970" points="328.5212,-314.9973 338.6337,-311.837 328.7575,-308.0013 328.5212,-314.9973"/>
</g>
<!-- Node8 -->
<g id="node3" class="node">
<title>Node8</title>
<g id="a_node3"><a xlink:href="class_t_o_o_l_1_1_netflow.xhtml#a236c3017659c725da82f3f9abd025851" target="_top" xlink:title="Get method for TOOL::Netflow::localPort. ">
<polygon fill="#ffffff" stroke="#000000" points="338.7363,-111.5 338.7363,-129.5 482.3926,-129.5 482.3926,-111.5 338.7363,-111.5"/>
<text text-anchor="middle" x="410.5645" y="-117.5" font-family="Helvetica,sans-Serif" font-size="10.00" fill="#000000">TOOL::Netflow::getLocalPort</text>
</a>
</g>
</g>
<!-- Node6&#45;&gt;Node8 -->
<g id="edge2" class="edge">
<title>Node6&#45;&gt;Node8</title>
<path fill="none" stroke="#191970" d="M81.0465,-187.4344C98.7259,-181.7741 122.3258,-174.6163 143.5234,-169.5 209.8133,-153.5003 286.4654,-139.935 340.5957,-131.1625"/>
<polygon fill="#191970" stroke="#191970" points="341.4544,-134.5695 350.7722,-129.5267 340.3435,-127.6582 341.4544,-134.5695"/>
</g>
<!-- Node9 -->
<g id="node4" class="node">
<title>Node9</title>
<g id="a_node4"><a xlink:href="debug_8hpp.xhtml#a9340c95e0607709d793dc427c8b630e8" target="_top" xlink:title="Function that prints log messages. ">
<polygon fill="#ffffff" stroke="#000000" points="379.5884,-246.5 379.5884,-264.5 441.5405,-264.5 441.5405,-246.5 379.5884,-246.5"/>
<text text-anchor="middle" x="410.5645" y="-252.5" font-family="Helvetica,sans-Serif" font-size="10.00" fill="#000000">TOOL::log</text>
</a>
</g>
</g>
<!-- Node6&#45;&gt;Node9 -->
<g id="edge3" class="edge">
<title>Node6&#45;&gt;Node9</title>
<path fill="none" stroke="#191970" d="M63.848,-205.6538C79.5239,-219.1989 111.2967,-244.0013 143.5234,-253.5 220.653,-276.2336 315.8435,-269.0816 369.2207,-262.1038"/>
<polygon fill="#191970" stroke="#191970" points="369.8889,-265.5451 379.321,-260.7195 368.9383,-258.6099 369.8889,-265.5451"/>
</g>
<!-- Node11 -->
<g id="node6" class="node">
<title>Node11</title>
<g id="a_node6"><a xlink:href="class_t_o_o_l_1_1_t_entry_or_t_tree.xhtml#a5ed89469fcaab6aa829e371921793cb2" target="_top" xlink:title="Get method for TOOL::TEntryOrTTree::level. ">
<polygon fill="#ffffff" stroke="#000000" points="352.8306,-198.5 352.8306,-226.5 468.2983,-226.5 468.2983,-198.5 352.8306,-198.5"/>
<text text-anchor="start" x="360.8306" y="-214.5" font-family="Helvetica,sans-Serif" font-size="10.00" fill="#000000">TOOL::TEntryOrTTree</text>
<text text-anchor="middle" x="410.5645" y="-204.5" font-family="Helvetica,sans-Serif" font-size="10.00" fill="#000000">::getLevel</text>
</a>
</g>
</g>
<!-- Node6&#45;&gt;Node11 -->
<g id="edge7" class="edge">
<title>Node6&#45;&gt;Node11</title>
<path fill="none" stroke="#191970" d="M107.565,-198.9127C170.339,-201.7276 274.2218,-206.386 342.5369,-209.4495"/>
<polygon fill="#191970" stroke="#191970" points="342.6193,-212.9566 352.7661,-209.9082 342.933,-205.9636 342.6193,-212.9566"/>
</g>
<!-- Node12 -->
<g id="node7" class="node">
<title>Node12</title>
<g id="a_node7"><a xlink:href="class_t_o_o_l_1_1_t_tree.xhtml#a82dde6ad8b94ec9b2d60ecb57dc6276c" target="_top" xlink:title="Set method for TOOL::TTree::cv union. ">
<polygon fill="#ffffff" stroke="#000000" points="143.5234,-73.5 143.5234,-91.5 302.7363,-91.5 302.7363,-73.5 143.5234,-73.5"/>
<text text-anchor="middle" x="223.1299" y="-79.5" font-family="Helvetica,sans-Serif" font-size="10.00" fill="#000000">TOOL::TTree::setCommonValue</text>
</a>
</g>
</g>
<!-- Node6&#45;&gt;Node12 -->
<g id="edge8" class="edge">
<title>Node6&#45;&gt;Node12</title>
<path fill="none" stroke="#191970" d="M60.3346,-187.3723C73.8503,-169.259 106.6092,-128.616 143.5234,-106.5 151.5258,-101.7057 160.5609,-97.8025 169.5975,-94.646"/>
<polygon fill="#191970" stroke="#191970" points="170.9071,-97.9014 179.3548,-91.5072 168.7634,-91.2377 170.9071,-97.9014"/>
</g>
<!-- Node16 -->
<g id="node11" class="node">
<title>Node16</title>
<g id="a_node11"><a xlink:href="class_t_o_o_l_1_1_t_tree.xhtml#a16d14c1d6d1c451e569a3e0b5e459248" target="_top" xlink:title="Function inserts a new TEntry into a decision tree. ">
<polygon fill="#ffffff" stroke="#000000" points="170.6694,-225.5 170.6694,-243.5 275.5903,-243.5 275.5903,-225.5 170.6694,-225.5"/>
<text text-anchor="middle" x="223.1299" y="-231.5" font-family="Helvetica,sans-Serif" font-size="10.00" fill="#000000">TOOL::TTree::insert</text>
</a>
</g>
</g>
<!-- Node6&#45;&gt;Node16 -->
<g id="edge13" class="edge">
<title>Node6&#45;&gt;Node16</title>
<path fill="none" stroke="#191970" d="M93.8996,-205.5055C117.648,-210.8337 147.9304,-217.628 173.2109,-223.3"/>
<polygon fill="#191970" stroke="#191970" points="172.4633,-226.7192 182.987,-225.4934 173.9958,-219.889 172.4633,-226.7192"/>
</g>
<!-- Node17 -->
<g id="node12" class="node">
<title>Node17</title>
<g id="a_node12"><a xlink:href="class_t_o_o_l_1_1_t_entry_or_t_tree.xhtml#a4778552d1b9264fcce3ce796ba9cffca" target="_top" xlink:title="Set method for TOOL::TEntryOrTTree::level. ">
<polygon fill="#ffffff" stroke="#000000" points="352.8306,-149.5 352.8306,-177.5 468.2983,-177.5 468.2983,-149.5 352.8306,-149.5"/>
<text text-anchor="start" x="360.8306" y="-165.5" font-family="Helvetica,sans-Serif" font-size="10.00" fill="#000000">TOOL::TEntryOrTTree</text>
<text text-anchor="middle" x="410.5645" y="-155.5" font-family="Helvetica,sans-Serif" font-size="10.00" fill="#000000">::setLevel</text>
</a>
</g>
</g>
<!-- Node6&#45;&gt;Node17 -->
<g id="edge18" class="edge">
<title>Node6&#45;&gt;Node17</title>
<path fill="none" stroke="#191970" d="M107.565,-191.5238C170.339,-185.718 274.2218,-176.1101 342.5369,-169.7917"/>
<polygon fill="#191970" stroke="#191970" points="343.131,-173.2518 352.7661,-168.8457 342.4863,-166.2816 343.131,-173.2518"/>
</g>
<!-- Node9&#45;&gt;Node9 -->
<g id="edge4" class="edge">
<title>Node9&#45;&gt;Node9</title>
<path fill="none" stroke="#191970" d="M387.0221,-264.5134C374.0178,-273.322 381.8652,-283 410.5645,-283 430.2952,-283 440.1702,-278.4256 440.1894,-272.7043"/>
<polygon fill="#191970" stroke="#191970" points="442.8787,-270.4551 434.1068,-264.5134 437.2589,-274.6285 442.8787,-270.4551"/>
</g>
<!-- Node10 -->
<g id="node5" class="node">
<title>Node10</title>
<g id="a_node5"><a xlink:href="debug_8cpp.xhtml#ad6ba0645e5c2cdd3f7533aa4f15dbe71" target="_top" xlink:title="Sets #TOOL::generalLogLevel;. ">
<polygon fill="#ffffff" stroke="#000000" points="518.3926,-246.5 518.3926,-264.5 620.9307,-264.5 620.9307,-246.5 518.3926,-246.5"/>
<text text-anchor="middle" x="569.6616" y="-252.5" font-family="Helvetica,sans-Serif" font-size="10.00" fill="#000000">TOOL::setLogLevel</text>
</a>
</g>
</g>
<!-- Node9&#45;&gt;Node10 -->
<g id="edge5" class="edge">
<title>Node9&#45;&gt;Node10</title>
<path fill="none" stroke="#191970" d="M441.6177,-255.5C460.5168,-255.5 485.3215,-255.5 508.0617,-255.5"/>
<polygon fill="#191970" stroke="#191970" points="508.336,-259.0001 518.336,-255.5 508.3359,-252.0001 508.336,-259.0001"/>
</g>
<!-- Node10&#45;&gt;Node10 -->
<g id="edge6" class="edge">
<title>Node10&#45;&gt;Node10</title>
<path fill="none" stroke="#191970" d="M546.1193,-264.5134C533.115,-273.322 540.9624,-283 569.6616,-283 589.3923,-283 599.2673,-278.4256 599.2866,-272.7043"/>
<polygon fill="#191970" stroke="#191970" points="601.9759,-270.4551 593.2039,-264.5134 596.356,-274.6285 601.9759,-270.4551"/>
</g>
<!-- Node12&#45;&gt;Node8 -->
<g id="edge9" class="edge">
<title>Node12&#45;&gt;Node8</title>
<path fill="none" stroke="#191970" d="M267.5493,-91.5055C294.0635,-96.8809 327.9372,-103.7484 356.0621,-109.4503"/>
<polygon fill="#191970" stroke="#191970" points="355.6434,-112.9366 366.1395,-111.4934 357.0344,-106.0762 355.6434,-112.9366"/>
</g>
<!-- Node13 -->
<g id="node8" class="node">
<title>Node13</title>
<g id="a_node8"><a xlink:href="class_t_o_o_l_1_1_netflow.xhtml#a90e60833b8662f06ca181452aafaa27e" target="_top" xlink:title="Get method for TOOL::Netflow::proto. ">
<polygon fill="#ffffff" stroke="#000000" points="347.9087,-74.5 347.9087,-92.5 473.2202,-92.5 473.2202,-74.5 347.9087,-74.5"/>
<text text-anchor="middle" x="410.5645" y="-80.5" font-family="Helvetica,sans-Serif" font-size="10.00" fill="#000000">TOOL::Netflow::getProto</text>
</a>
</g>
</g>
<!-- Node12&#45;&gt;Node13 -->
<g id="edge10" class="edge">
<title>Node12&#45;&gt;Node13</title>
<path fill="none" stroke="#191970" d="M302.8908,-82.9255C314.41,-82.987 326.2169,-83.05 337.5943,-83.1107"/>
<polygon fill="#191970" stroke="#191970" points="337.883,-86.6122 347.9016,-83.1657 337.9204,-79.6123 337.883,-86.6122"/>
</g>
<!-- Node14 -->
<g id="node9" class="node">
<title>Node14</title>
<g id="a_node9"><a xlink:href="class_t_o_o_l_1_1_netflow.xhtml#a1b36fe95c3c9c18fd8ddc646281474b8" target="_top" xlink:title="Get method for TOOL::Netflow::ipVersion. ">
<polygon fill="#ffffff" stroke="#000000" points="339.0098,-37.5 339.0098,-55.5 482.1191,-55.5 482.1191,-37.5 339.0098,-37.5"/>
<text text-anchor="middle" x="410.5645" y="-43.5" font-family="Helvetica,sans-Serif" font-size="10.00" fill="#000000">TOOL::Netflow::getIpVersion</text>
</a>
</g>
</g>
<!-- Node12&#45;&gt;Node14 -->
<g id="edge11" class="edge">
<title>Node12&#45;&gt;Node14</title>
<path fill="none" stroke="#191970" d="M270.4275,-73.4157C295.7186,-68.5581 327.0438,-62.5416 353.6593,-57.4296"/>
<polygon fill="#191970" stroke="#191970" points="354.4466,-60.8424 363.6069,-55.519 353.1262,-53.9681 354.4466,-60.8424"/>
</g>
<!-- Node15 -->
<g id="node10" class="node">
<title>Node15</title>
<g id="a_node10"><a xlink:href="class_t_o_o_l_1_1_netflow.xhtml#a075c89c1c339bb8aaf54c6f9749f309b" target="_top" xlink:title="Get method for TOOL::Netflow::localIp. ">
<polygon fill="#ffffff" stroke="#000000" points="343.7363,-.5 343.7363,-18.5 477.3926,-18.5 477.3926,-.5 343.7363,-.5"/>
<text text-anchor="middle" x="410.5645" y="-6.5" font-family="Helvetica,sans-Serif" font-size="10.00" fill="#000000">TOOL::Netflow::getLocalIp</text>
</a>
</g>
</g>
<!-- Node12&#45;&gt;Node15 -->
<g id="edge12" class="edge">
<title>Node12&#45;&gt;Node15</title>
<path fill="none" stroke="#191970" d="M239.5326,-73.4144C261.5483,-61.5212 302.1298,-40.6472 338.7363,-27.5 345.077,-25.2228 351.8318,-23.1235 358.5653,-21.2249"/>
<polygon fill="#191970" stroke="#191970" points="359.6172,-24.5665 368.365,-18.5893 357.7991,-17.8067 359.6172,-24.5665"/>
</g>
<!-- Node16&#45;&gt;Node7 -->
<g id="edge14" class="edge">
<title>Node16&#45;&gt;Node7</title>
<path fill="none" stroke="#191970" d="M238.7171,-243.7114C260.4732,-256.2407 301.4733,-278.6747 338.7363,-292.5 344.9718,-294.8135 351.6205,-296.927 358.2607,-298.827"/>
<polygon fill="#191970" stroke="#191970" points="357.3663,-302.2108 367.9342,-301.4561 359.2023,-295.4558 357.3663,-302.2108"/>
</g>
<!-- Node16&#45;&gt;Node9 -->
<g id="edge15" class="edge">
<title>Node16&#45;&gt;Node9</title>
<path fill="none" stroke="#191970" d="M275.8397,-240.4056C305.4115,-243.7188 341.7688,-247.7922 369.2584,-250.8721"/>
<polygon fill="#191970" stroke="#191970" points="368.9998,-254.3649 379.3273,-252.0002 369.7792,-247.4085 368.9998,-254.3649"/>
</g>
<!-- Node16&#45;&gt;Node11 -->
<g id="edge16" class="edge">
<title>Node16&#45;&gt;Node11</title>
<path fill="none" stroke="#191970" d="M275.8397,-228.3132C296.591,-225.8776 320.6837,-223.0497 342.7088,-220.4645"/>
<polygon fill="#191970" stroke="#191970" points="343.1398,-223.938 352.6636,-219.2961 342.3237,-216.9858 343.1398,-223.938"/>
</g>
<!-- Node16&#45;&gt;Node17 -->
<g id="edge17" class="edge">
<title>Node16&#45;&gt;Node17</title>
<path fill="none" stroke="#191970" d="M246.0988,-225.3729C269.3826,-216.1646 306.4763,-201.6153 338.7363,-189.5 346.0691,-186.7462 353.8417,-183.8791 361.4608,-181.0976"/>
<polygon fill="#191970" stroke="#191970" points="362.7825,-184.3412 370.9849,-177.6351 360.3908,-177.7625 362.7825,-184.3412"/>
</g>
</g>
</svg>
