<?xml version="1.0" encoding="UTF-8" standalone="no"?>
<!DOCTYPE svg PUBLIC "-//W3C//DTD SVG 1.1//EN"
 "http://www.w3.org/Graphics/SVG/1.1/DTD/svg11.dtd">
<!-- Generated by graphviz version 2.40.1 (20161225.0304)
 -->
<!-- Title: TOOL::Netflow::setEndTime Pages: 1 -->
<svg width="321pt" height="64pt"
 viewBox="0.00 0.00 320.93 64.00" xmlns="http://www.w3.org/2000/svg" xmlns:xlink="http://www.w3.org/1999/xlink">
<g id="graph0" class="graph" transform="scale(1 1) rotate(0) translate(4 60)">
<title>TOOL::Netflow::setEndTime</title>
<polygon fill="#ffffff" stroke="transparent" points="-4,4 -4,-60 316.9316,-60 316.9316,4 -4,4"/>
<!-- Node35 -->
<g id="node1" class="node">
<title>Node35</title>
<polygon fill="#bfbfbf" stroke="#000000" points="0,-18.5 0,-36.5 140.4971,-36.5 140.4971,-18.5 0,-18.5"/>
<text text-anchor="middle" x="70.2485" y="-24.5" font-family="Helvetica,sans-Serif" font-size="10.00" fill="#000000">TOOL::Netflow::setEndTime</text>
</g>
<!-- Node36 -->
<g id="node2" class="node">
<title>Node36</title>
<g id="a_node2"><a xlink:href="class_t_o_o_l_1_1_netflow.xhtml#ab7cd64f8dbf21086e0a2588472df7681" target="_top" xlink:title="Function prints content of the Netflow structure to the standard output. ">
<polygon fill="#ffffff" stroke="#000000" points="191.2334,-37.5 191.2334,-55.5 298.1953,-55.5 298.1953,-37.5 191.2334,-37.5"/>
<text text-anchor="middle" x="244.7144" y="-43.5" font-family="Helvetica,sans-Serif" font-size="10.00" fill="#000000">TOOL::Netflow::print</text>
</a>
</g>
</g>
<!-- Node35&#45;&gt;Node36 -->
<g id="edge1" class="edge">
<title>Node35&#45;&gt;Node36</title>
<path fill="none" stroke="#191970" d="M140.7076,-35.1733C153.9905,-36.6198 167.8126,-38.1251 180.8785,-39.548"/>
<polygon fill="#191970" stroke="#191970" points="180.85,-43.0655 191.1702,-40.6688 181.6079,-36.1067 180.85,-43.0655"/>
</g>
<!-- Node37 -->
<g id="node3" class="node">
<title>Node37</title>
<g id="a_node3"><a xlink:href="class_t_o_o_l_1_1_netflow.xhtml#aceca96b5eb9684f0c9161792297fcc53" target="_top" xlink:title="Overloaded equality operator. ">
<polygon fill="#ffffff" stroke="#000000" points="176.4971,-.5 176.4971,-18.5 312.9316,-18.5 312.9316,-.5 176.4971,-.5"/>
<text text-anchor="middle" x="244.7144" y="-6.5" font-family="Helvetica,sans-Serif" font-size="10.00" fill="#000000">TOOL::Netflow::operator==</text>
</a>
</g>
</g>
<!-- Node35&#45;&gt;Node37 -->
<g id="edge2" class="edge">
<title>Node35&#45;&gt;Node37</title>
<path fill="none" stroke="#191970" d="M140.7076,-20.2306C149.0447,-19.3704 157.5942,-18.4884 166.0358,-17.6174"/>
<polygon fill="#191970" stroke="#191970" points="166.6697,-21.0707 176.2577,-16.5628 165.9512,-14.1077 166.6697,-21.0707"/>
</g>
</g>
</svg>
