<?xml version="1.0" encoding="UTF-8" standalone="no"?>
<!DOCTYPE svg PUBLIC "-//W3C//DTD SVG 1.1//EN"
 "http://www.w3.org/Graphics/SVG/1.1/DTD/svg11.dtd">
<!-- Generated by graphviz version 2.40.1 (20161225.0304)
 -->
<!-- Title: NAMON::TEntry::levelCompare Pages: 1 -->
<svg width="353pt" height="138pt"
 viewBox="0.00 0.00 353.30 138.00" xmlns="http://www.w3.org/2000/svg" xmlns:xlink="http://www.w3.org/1999/xlink">
<g id="graph0" class="graph" transform="scale(1 1) rotate(0) translate(4 134)">
<title>NAMON::TEntry::levelCompare</title>
<polygon fill="#ffffff" stroke="transparent" points="-4,4 -4,-134 349.3047,-134 349.3047,4 -4,4"/>
<!-- Node15 -->
<g id="node1" class="node">
<title>Node15</title>
<polygon fill="#bfbfbf" stroke="#000000" points="0,-55.5 0,-73.5 155.4775,-73.5 155.4775,-55.5 0,-55.5"/>
<text text-anchor="middle" x="77.7388" y="-61.5" font-family="Helvetica,sans-Serif" font-size="10.00" fill="#000000">NAMON::TEntry::levelCompare</text>
</g>
<!-- Node16 -->
<g id="node2" class="node">
<title>Node16</title>
<g id="a_node2"><a xlink:href="class_n_a_m_o_n_1_1_netflow.xhtml#af4e590a380d12a01491b911ff7ba2c37" target="_top" xlink:title="Get method for NAMON::Netflow::localPort. ">
<polygon fill="#ffffff" stroke="#000000" points="191.4775,-111.5 191.4775,-129.5 345.3047,-129.5 345.3047,-111.5 191.4775,-111.5"/>
<text text-anchor="middle" x="268.3911" y="-117.5" font-family="Helvetica,sans-Serif" font-size="10.00" fill="#000000">NAMON::Netflow::getLocalPort</text>
</a>
</g>
</g>
<!-- Node15&#45;&gt;Node16 -->
<g id="edge1" class="edge">
<title>Node15&#45;&gt;Node16</title>
<path fill="none" stroke="#191970" d="M102.8281,-73.627C125.7371,-81.7822 160.6308,-93.7578 191.4775,-102.5 199.6332,-104.8114 208.3345,-107.056 216.8425,-109.1313"/>
<polygon fill="#191970" stroke="#191970" points="216.1577,-112.5661 226.6971,-111.4836 217.783,-105.7574 216.1577,-112.5661"/>
</g>
<!-- Node17 -->
<g id="node3" class="node">
<title>Node17</title>
<g id="a_node3"><a xlink:href="class_n_a_m_o_n_1_1_netflow.xhtml#acd9ecb6f7bac62db7294f5dd76094b38" target="_top" xlink:title="Get method for NAMON::Netflow::proto. ">
<polygon fill="#ffffff" stroke="#000000" points="200.6499,-74.5 200.6499,-92.5 336.1323,-92.5 336.1323,-74.5 200.6499,-74.5"/>
<text text-anchor="middle" x="268.3911" y="-80.5" font-family="Helvetica,sans-Serif" font-size="10.00" fill="#000000">NAMON::Netflow::getProto</text>
</a>
</g>
</g>
<!-- Node15&#45;&gt;Node17 -->
<g id="edge2" class="edge">
<title>Node15&#45;&gt;Node17</title>
<path fill="none" stroke="#191970" d="M155.5594,-72.2554C167.1066,-73.4062 179.0087,-74.5923 190.5562,-75.7431"/>
<polygon fill="#191970" stroke="#191970" points="190.2971,-79.2346 200.5949,-76.7436 190.9913,-72.2691 190.2971,-79.2346"/>
</g>
<!-- Node18 -->
<g id="node4" class="node">
<title>Node18</title>
<g id="a_node4"><a xlink:href="class_n_a_m_o_n_1_1_netflow.xhtml#a30554593d83f2f2a071b19d63ba79cc2" target="_top" xlink:title="Get method for NAMON::Netflow::ipVersion. ">
<polygon fill="#ffffff" stroke="#000000" points="191.751,-37.5 191.751,-55.5 345.0313,-55.5 345.0313,-37.5 191.751,-37.5"/>
<text text-anchor="middle" x="268.3911" y="-43.5" font-family="Helvetica,sans-Serif" font-size="10.00" fill="#000000">NAMON::Netflow::getIpVersion</text>
</a>
</g>
</g>
<!-- Node15&#45;&gt;Node18 -->
<g id="edge3" class="edge">
<title>Node15&#45;&gt;Node18</title>
<path fill="none" stroke="#191970" d="M155.5594,-57.1527C164.144,-56.3423 172.9247,-55.5132 181.6101,-54.6932"/>
<polygon fill="#191970" stroke="#191970" points="182.118,-58.1609 191.7447,-53.7364 181.4599,-51.1919 182.118,-58.1609"/>
</g>
<!-- Node19 -->
<g id="node5" class="node">
<title>Node19</title>
<g id="a_node5"><a xlink:href="class_n_a_m_o_n_1_1_netflow.xhtml#af02ec690b9b87a91d4eb25204bb6d1ff" target="_top" xlink:title="Get method for NAMON::Netflow::localIp. ">
<polygon fill="#ffffff" stroke="#000000" points="196.4775,-.5 196.4775,-18.5 340.3047,-18.5 340.3047,-.5 196.4775,-.5"/>
<text text-anchor="middle" x="268.3911" y="-6.5" font-family="Helvetica,sans-Serif" font-size="10.00" fill="#000000">NAMON::Netflow::getLocalIp</text>
</a>
</g>
</g>
<!-- Node15&#45;&gt;Node19 -->
<g id="edge4" class="edge">
<title>Node15&#45;&gt;Node19</title>
<path fill="none" stroke="#191970" d="M104.7091,-55.4243C127.6627,-47.8301 161.5718,-36.9172 191.4775,-28.5 200.5201,-25.9549 210.212,-23.4155 219.5633,-21.0599"/>
<polygon fill="#191970" stroke="#191970" points="220.6685,-24.3918 229.5299,-18.5843 218.981,-17.5982 220.6685,-24.3918"/>
</g>
</g>
</svg>
