<?xml version="1.0" encoding="UTF-8" standalone="no"?>
<!DOCTYPE svg PUBLIC "-//W3C//DTD SVG 1.1//EN"
 "http://www.w3.org/Graphics/SVG/1.1/DTD/svg11.dtd">
<!-- Generated by graphviz version 2.40.1 (20161225.0304)
 -->
<!-- Title: NAMON::InterfaceDescriptionBlock::write Pages: 1 -->
<svg width="342pt" height="50pt"
 viewBox="0.00 0.00 342.23 50.00" xmlns="http://www.w3.org/2000/svg" xmlns:xlink="http://www.w3.org/1999/xlink">
<g id="graph0" class="graph" transform="scale(1 1) rotate(0) translate(4 46)">
<title>NAMON::InterfaceDescriptionBlock::write</title>
<polygon fill="#ffffff" stroke="transparent" points="-4,4 -4,-46 338.2256,-46 338.2256,4 -4,4"/>
<!-- Node3 -->
<g id="node1" class="node">
<title>Node3</title>
<polygon fill="#bfbfbf" stroke="#000000" points="0,-.5 0,-28.5 147.709,-28.5 147.709,-.5 0,-.5"/>
<text text-anchor="start" x="8" y="-16.5" font-family="Helvetica,sans-Serif" font-size="10.00" fill="#000000">NAMON::InterfaceDescription</text>
<text text-anchor="middle" x="73.8545" y="-6.5" font-family="Helvetica,sans-Serif" font-size="10.00" fill="#000000">Block::write</text>
</g>
<!-- Node4 -->
<g id="node2" class="node">
<title>Node4</title>
<g id="a_node2"><a xlink:href="pcapng__blocks_8hpp.xhtml#a0172951579b09d97a40a36c79257f466" target="_top" xlink:title="Computes number of padding bytes to be inserted in order to reach multiple of x. ">
<polygon fill="#ffffff" stroke="#000000" points="183.709,-5.5 183.709,-23.5 334.2256,-23.5 334.2256,-5.5 183.709,-5.5"/>
<text text-anchor="middle" x="258.9673" y="-11.5" font-family="Helvetica,sans-Serif" font-size="10.00" fill="#000000">NAMON::computePaddingLen</text>
</a>
</g>
</g>
<!-- Node3&#45;&gt;Node4 -->
<g id="edge1" class="edge">
<title>Node3&#45;&gt;Node4</title>
<path fill="none" stroke="#191970" d="M147.814,-14.5C156.2827,-14.5 164.9681,-14.5 173.5704,-14.5"/>
<polygon fill="#191970" stroke="#191970" points="173.6128,-18.0001 183.6128,-14.5 173.6127,-11.0001 173.6128,-18.0001"/>
</g>
<!-- Node4&#45;&gt;Node4 -->
<g id="edge2" class="edge">
<title>Node4&#45;&gt;Node4</title>
<path fill="none" stroke="#191970" d="M231.5509,-23.5134C216.4066,-32.322 225.5454,-42 258.9673,-42 282.9893,-42 294.4666,-37.0003 293.3992,-30.9173"/>
<polygon fill="#191970" stroke="#191970" points="295.8024,-28.365 286.3837,-23.5134 290.7212,-33.1797 295.8024,-28.365"/>
</g>
</g>
</svg>
