<?xml version="1.0" encoding="UTF-8" standalone="no"?>
<!DOCTYPE svg PUBLIC "-//W3C//DTD SVG 1.1//EN"
 "http://www.w3.org/Graphics/SVG/1.1/DTD/svg11.dtd">
<!-- Generated by graphviz version 2.40.1 (20161225.0304)
 -->
<!-- Title: TOOL::TTree::levelCompare Pages: 1 -->
<svg width="330pt" height="138pt"
 viewBox="0.00 0.00 329.82 138.00" xmlns="http://www.w3.org/2000/svg" xmlns:xlink="http://www.w3.org/1999/xlink">
<g id="graph0" class="graph" transform="scale(1 1) rotate(0) translate(4 134)">
<title>TOOL::TTree::levelCompare</title>
<polygon fill="#ffffff" stroke="transparent" points="-4,4 -4,-134 325.8184,-134 325.8184,4 -4,4"/>
<!-- Node14 -->
<g id="node1" class="node">
<title>Node14</title>
<polygon fill="#bfbfbf" stroke="#000000" points="0,-55.5 0,-73.5 142.1621,-73.5 142.1621,-55.5 0,-55.5"/>
<text text-anchor="middle" x="71.0811" y="-61.5" font-family="Helvetica,sans-Serif" font-size="10.00" fill="#000000">TOOL::TTree::levelCompare</text>
</g>
<!-- Node15 -->
<g id="node2" class="node">
<title>Node15</title>
<g id="a_node2"><a xlink:href="class_t_o_o_l_1_1_netflow.xhtml#a236c3017659c725da82f3f9abd025851" target="_top" xlink:title="Get method for TOOL::Netflow::localPort. ">
<polygon fill="#ffffff" stroke="#000000" points="178.1621,-111.5 178.1621,-129.5 321.8184,-129.5 321.8184,-111.5 178.1621,-111.5"/>
<text text-anchor="middle" x="249.9902" y="-117.5" font-family="Helvetica,sans-Serif" font-size="10.00" fill="#000000">TOOL::Netflow::getLocalPort</text>
</a>
</g>
</g>
<!-- Node14&#45;&gt;Node15 -->
<g id="edge1" class="edge">
<title>Node14&#45;&gt;Node15</title>
<path fill="none" stroke="#191970" d="M94.6825,-73.608C116.2376,-81.7504 149.0806,-93.7179 178.1621,-102.5 185.6039,-104.7473 193.5376,-106.9372 201.3157,-108.9715"/>
<polygon fill="#191970" stroke="#191970" points="200.4805,-112.3705 211.0359,-111.4576 202.2151,-105.5888 200.4805,-112.3705"/>
</g>
<!-- Node16 -->
<g id="node3" class="node">
<title>Node16</title>
<g id="a_node3"><a xlink:href="class_t_o_o_l_1_1_netflow.xhtml#a90e60833b8662f06ca181452aafaa27e" target="_top" xlink:title="Get method for TOOL::Netflow::proto. ">
<polygon fill="#ffffff" stroke="#000000" points="187.3345,-74.5 187.3345,-92.5 312.646,-92.5 312.646,-74.5 187.3345,-74.5"/>
<text text-anchor="middle" x="249.9902" y="-80.5" font-family="Helvetica,sans-Serif" font-size="10.00" fill="#000000">TOOL::Netflow::getProto</text>
</a>
</g>
</g>
<!-- Node14&#45;&gt;Node16 -->
<g id="edge2" class="edge">
<title>Node14&#45;&gt;Node16</title>
<path fill="none" stroke="#191970" d="M142.3048,-72.0639C153.7607,-73.2805 165.6332,-74.5414 177.127,-75.762"/>
<polygon fill="#191970" stroke="#191970" points="176.7964,-79.2465 187.1101,-76.8222 177.5357,-72.2856 176.7964,-79.2465"/>
</g>
<!-- Node17 -->
<g id="node4" class="node">
<title>Node17</title>
<g id="a_node4"><a xlink:href="class_t_o_o_l_1_1_netflow.xhtml#a1b36fe95c3c9c18fd8ddc646281474b8" target="_top" xlink:title="Get method for TOOL::Netflow::ipVersion. ">
<polygon fill="#ffffff" stroke="#000000" points="178.4355,-37.5 178.4355,-55.5 321.5449,-55.5 321.5449,-37.5 178.4355,-37.5"/>
<text text-anchor="middle" x="249.9902" y="-43.5" font-family="Helvetica,sans-Serif" font-size="10.00" fill="#000000">TOOL::Netflow::getIpVersion</text>
</a>
</g>
</g>
<!-- Node14&#45;&gt;Node17 -->
<g id="edge3" class="edge">
<title>Node14&#45;&gt;Node17</title>
<path fill="none" stroke="#191970" d="M142.3048,-57.3342C150.8495,-56.4745 159.626,-55.5915 168.3042,-54.7184"/>
<polygon fill="#191970" stroke="#191970" points="168.8275,-58.1835 178.4268,-53.7 168.1267,-51.2187 168.8275,-58.1835"/>
</g>
<!-- Node18 -->
<g id="node5" class="node">
<title>Node18</title>
<g id="a_node5"><a xlink:href="class_t_o_o_l_1_1_netflow.xhtml#a075c89c1c339bb8aaf54c6f9749f309b" target="_top" xlink:title="Get method for TOOL::Netflow::localIp. ">
<polygon fill="#ffffff" stroke="#000000" points="183.1621,-.5 183.1621,-18.5 316.8184,-18.5 316.8184,-.5 183.1621,-.5"/>
<text text-anchor="middle" x="249.9902" y="-6.5" font-family="Helvetica,sans-Serif" font-size="10.00" fill="#000000">TOOL::Netflow::getLocalIp</text>
</a>
</g>
</g>
<!-- Node14&#45;&gt;Node18 -->
<g id="edge4" class="edge">
<title>Node14&#45;&gt;Node18</title>
<path fill="none" stroke="#191970" d="M96.4606,-55.443C118.0633,-47.8603 149.9834,-36.9537 178.1621,-28.5 186.6002,-25.9685 195.6483,-23.4355 204.3803,-21.0818"/>
<polygon fill="#191970" stroke="#191970" points="205.29,-24.4617 214.0554,-18.5104 203.4919,-17.6965 205.29,-24.4617"/>
</g>
</g>
</svg>
