<?xml version="1.0" encoding="UTF-8" standalone="no"?>
<!DOCTYPE svg PUBLIC "-//W3C//DTD SVG 1.1//EN"
 "http://www.w3.org/Graphics/SVG/1.1/DTD/svg11.dtd">
<!-- Generated by graphviz version 2.40.1 (20161225.0304)
 -->
<!-- Title: TOOL::Netflow::getProto Pages: 1 -->
<svg width="472pt" height="138pt"
 viewBox="0.00 0.00 472.05 138.00" xmlns="http://www.w3.org/2000/svg" xmlns:xlink="http://www.w3.org/1999/xlink">
<g id="graph0" class="graph" transform="scale(1 1) rotate(0) translate(4 134)">
<title>TOOL::Netflow::getProto</title>
<polygon fill="#ffffff" stroke="transparent" points="-4,4 -4,-134 468.0479,-134 468.0479,4 -4,4"/>
<!-- Node22 -->
<g id="node1" class="node">
<title>Node22</title>
<polygon fill="#bfbfbf" stroke="#000000" points="0,-55.5 0,-73.5 125.3115,-73.5 125.3115,-55.5 0,-55.5"/>
<text text-anchor="middle" x="62.6558" y="-61.5" font-family="Helvetica,sans-Serif" font-size="10.00" fill="#000000">TOOL::Netflow::getProto</text>
</g>
<!-- Node23 -->
<g id="node2" class="node">
<title>Node23</title>
<g id="a_node2"><a xlink:href="class_t_o_o_l_1_1_t_entry.xhtml#a6a286dc8f1ab0e592932115a6f3e60f4" target="_top" xlink:title="Compares values important at a specific #TOOL::TreeLevel. ">
<polygon fill="#ffffff" stroke="#000000" points="168.2646,-111.5 168.2646,-129.5 313.5713,-129.5 313.5713,-111.5 168.2646,-111.5"/>
<text text-anchor="middle" x="240.918" y="-117.5" font-family="Helvetica,sans-Serif" font-size="10.00" fill="#000000">TOOL::TEntry::levelCompare</text>
</a>
</g>
</g>
<!-- Node22&#45;&gt;Node23 -->
<g id="edge1" class="edge">
<title>Node22&#45;&gt;Node23</title>
<path fill="none" stroke="#191970" d="M92.9873,-77.4998C112.2992,-85.4463 137.9823,-95.4106 161.3115,-102.5 172.2929,-105.8371 184.2948,-108.8645 195.572,-111.444"/>
<polygon fill="#191970" stroke="#191970" points="94.0923,-74.1686 83.5153,-73.5541 91.4005,-80.6304 94.0923,-74.1686"/>
</g>
<!-- Node24 -->
<g id="node3" class="node">
<title>Node24</title>
<g id="a_node3"><a xlink:href="class_t_o_o_l_1_1_t_tree.xhtml#a82dde6ad8b94ec9b2d60ecb57dc6276c" target="_top" xlink:title="Set method for TOOL::TTree::cv union. ">
<polygon fill="#ffffff" stroke="#000000" points="161.3115,-74.5 161.3115,-92.5 320.5244,-92.5 320.5244,-74.5 161.3115,-74.5"/>
<text text-anchor="middle" x="240.918" y="-80.5" font-family="Helvetica,sans-Serif" font-size="10.00" fill="#000000">TOOL::TTree::setCommonValue</text>
</a>
</g>
</g>
<!-- Node22&#45;&gt;Node24 -->
<g id="edge2" class="edge">
<title>Node22&#45;&gt;Node24</title>
<path fill="none" stroke="#191970" d="M135.6413,-72.2791C144.0497,-73.1753 152.6565,-74.0927 161.1486,-74.9978"/>
<polygon fill="#191970" stroke="#191970" points="135.819,-68.7783 125.5043,-71.1987 135.0771,-75.7389 135.819,-68.7783"/>
</g>
<!-- Node26 -->
<g id="node5" class="node">
<title>Node26</title>
<g id="a_node5"><a xlink:href="class_t_o_o_l_1_1_t_tree.xhtml#ade063acb83e5a7fe144fbee267fe5164" target="_top" xlink:title="Compares values important at a specific #TOOL::TreeLevel. ">
<polygon fill="#ffffff" stroke="#000000" points="169.8369,-37.5 169.8369,-55.5 311.999,-55.5 311.999,-37.5 169.8369,-37.5"/>
<text text-anchor="middle" x="240.918" y="-43.5" font-family="Helvetica,sans-Serif" font-size="10.00" fill="#000000">TOOL::TTree::levelCompare</text>
</a>
</g>
</g>
<!-- Node22&#45;&gt;Node26 -->
<g id="edge4" class="edge">
<title>Node22&#45;&gt;Node26</title>
<path fill="none" stroke="#191970" d="M135.7257,-57.1218C146.9874,-55.9846 158.6029,-54.8117 169.8207,-53.679"/>
<polygon fill="#191970" stroke="#191970" points="135.1021,-53.6669 125.5043,-58.1539 135.8054,-60.6314 135.1021,-53.6669"/>
</g>
<!-- Node27 -->
<g id="node6" class="node">
<title>Node27</title>
<g id="a_node6"><a xlink:href="capturing_8hpp.xhtml#a30a4aa41a243aeb1e88c49d09e65a48e" target="_top" xlink:title="Parses layer 4 header. ">
<polygon fill="#ffffff" stroke="#000000" points="208.7407,-.5 208.7407,-18.5 273.0952,-18.5 273.0952,-.5 208.7407,-.5"/>
<text text-anchor="middle" x="240.918" y="-6.5" font-family="Helvetica,sans-Serif" font-size="10.00" fill="#000000">parsePorts</text>
</a>
</g>
</g>
<!-- Node22&#45;&gt;Node27 -->
<g id="edge5" class="edge">
<title>Node22&#45;&gt;Node27</title>
<path fill="none" stroke="#191970" d="M94.5813,-51.7861C113.7443,-44.4226 138.7115,-35.2956 161.3115,-28.5 176.6874,-23.8766 193.9997,-19.6329 208.5431,-16.3344"/>
<polygon fill="#191970" stroke="#191970" points="93.188,-48.5724 85.1326,-55.4543 95.7214,-55.0979 93.188,-48.5724"/>
</g>
<!-- Node25 -->
<g id="node4" class="node">
<title>Node25</title>
<g id="a_node4"><a xlink:href="class_t_o_o_l_1_1_cache.xhtml#a5936010932979fe258f3e501b5aec703" target="_top" xlink:title="Function inserts new TEntry into the TTree node. ">
<polygon fill="#ffffff" stroke="#000000" points="356.5244,-74.5 356.5244,-92.5 464.0479,-92.5 464.0479,-74.5 356.5244,-74.5"/>
<text text-anchor="middle" x="410.2861" y="-80.5" font-family="Helvetica,sans-Serif" font-size="10.00" fill="#000000">TOOL::Cache::insert</text>
</a>
</g>
</g>
<!-- Node24&#45;&gt;Node25 -->
<g id="edge3" class="edge">
<title>Node24&#45;&gt;Node25</title>
<path fill="none" stroke="#191970" d="M330.7877,-83.5C339.4199,-83.5 347.98,-83.5 356.1075,-83.5"/>
<polygon fill="#191970" stroke="#191970" points="330.6427,-80.0001 320.6426,-83.5 330.6426,-87.0001 330.6427,-80.0001"/>
</g>
</g>
</svg>
