<?xml version="1.0" encoding="UTF-8" standalone="no"?>
<!DOCTYPE svg PUBLIC "-//W3C//DTD SVG 1.1//EN"
 "http://www.w3.org/Graphics/SVG/1.1/DTD/svg11.dtd">
<!-- Generated by graphviz version 2.40.1 (20161225.0304)
 -->
<!-- Title: TOOL::InterfaceDescriptionBlock::InterfaceDescriptionBlock Pages: 1 -->
<svg width="344pt" height="50pt"
 viewBox="0.00 0.00 343.74 50.00" xmlns="http://www.w3.org/2000/svg" xmlns:xlink="http://www.w3.org/1999/xlink">
<g id="graph0" class="graph" transform="scale(1 1) rotate(0) translate(4 46)">
<title>TOOL::InterfaceDescriptionBlock::InterfaceDescriptionBlock</title>
<polygon fill="#ffffff" stroke="transparent" points="-4,4 -4,-46 339.7393,-46 339.7393,4 -4,4"/>
<!-- Node0 -->
<g id="node1" class="node">
<title>Node0</title>
<polygon fill="#bfbfbf" stroke="#000000" points="0,-.5 0,-28.5 159.3936,-28.5 159.3936,-.5 0,-.5"/>
<text text-anchor="start" x="8" y="-16.5" font-family="Helvetica,sans-Serif" font-size="10.00" fill="#000000">TOOL::InterfaceDescription</text>
<text text-anchor="middle" x="79.6968" y="-6.5" font-family="Helvetica,sans-Serif" font-size="10.00" fill="#000000">Block::InterfaceDescriptionBlock</text>
</g>
<!-- Node1 -->
<g id="node2" class="node">
<title>Node1</title>
<g id="a_node2"><a xlink:href="pcapng__blocks_8hpp.xhtml#a75a7bcda686113f2f624591c4b496013" target="_top" xlink:title="Computes number of padding bytes to be inserted in order to reach multiple of x. ">
<polygon fill="#ffffff" stroke="#000000" points="195.3936,-5.5 195.3936,-23.5 335.7393,-23.5 335.7393,-5.5 195.3936,-5.5"/>
<text text-anchor="middle" x="265.5664" y="-11.5" font-family="Helvetica,sans-Serif" font-size="10.00" fill="#000000">TOOL::computePaddingLen</text>
</a>
</g>
</g>
<!-- Node0&#45;&gt;Node1 -->
<g id="edge1" class="edge">
<title>Node0&#45;&gt;Node1</title>
<path fill="none" stroke="#191970" d="M159.6009,-14.5C168.065,-14.5 176.6762,-14.5 185.1461,-14.5"/>
<polygon fill="#191970" stroke="#191970" points="185.3882,-18.0001 195.3881,-14.5 185.3881,-11.0001 185.3882,-18.0001"/>
</g>
<!-- Node1&#45;&gt;Node1 -->
<g id="edge2" class="edge">
<title>Node1&#45;&gt;Node1</title>
<path fill="none" stroke="#191970" d="M238.15,-23.5134C223.0057,-32.322 232.1445,-42 265.5664,-42 289.5884,-42 301.0657,-37.0003 299.9983,-30.9173"/>
<polygon fill="#191970" stroke="#191970" points="302.4016,-28.365 292.9828,-23.5134 297.3203,-33.1797 302.4016,-28.365"/>
</g>
</g>
</svg>
