<?xml version="1.0" encoding="UTF-8" standalone="no"?>
<!DOCTYPE svg PUBLIC "-//W3C//DTD SVG 1.1//EN"
 "http://www.w3.org/Graphics/SVG/1.1/DTD/svg11.dtd">
<!-- Generated by graphviz version 2.40.1 (20161225.0304)
 -->
<!-- Title: NAMON::Netflow::getProto Pages: 1 -->
<svg width="503pt" height="138pt"
 viewBox="0.00 0.00 502.56 138.00" xmlns="http://www.w3.org/2000/svg" xmlns:xlink="http://www.w3.org/1999/xlink">
<g id="graph0" class="graph" transform="scale(1 1) rotate(0) translate(4 134)">
<title>NAMON::Netflow::getProto</title>
<polygon fill="#ffffff" stroke="transparent" points="-4,4 -4,-134 498.5605,-134 498.5605,4 -4,4"/>
<!-- Node22 -->
<g id="node1" class="node">
<title>Node22</title>
<polygon fill="#bfbfbf" stroke="#000000" points="0,-55.5 0,-73.5 135.4824,-73.5 135.4824,-55.5 0,-55.5"/>
<text text-anchor="middle" x="67.7412" y="-61.5" font-family="Helvetica,sans-Serif" font-size="10.00" fill="#000000">NAMON::Netflow::getProto</text>
</g>
<!-- Node23 -->
<g id="node2" class="node">
<title>Node23</title>
<g id="a_node2"><a xlink:href="class_n_a_m_o_n_1_1_t_entry.xhtml#a9faba1b923d35a52c53bf7f7a76f7a32" target="_top" xlink:title="Compares values important at a specific #NAMON::TreeLevel. ">
<polygon fill="#ffffff" stroke="#000000" points="178.4355,-111.5 178.4355,-129.5 333.9131,-129.5 333.9131,-111.5 178.4355,-111.5"/>
<text text-anchor="middle" x="256.1743" y="-117.5" font-family="Helvetica,sans-Serif" font-size="10.00" fill="#000000">NAMON::TEntry::levelCompare</text>
</a>
</g>
</g>
<!-- Node22&#45;&gt;Node23 -->
<g id="edge1" class="edge">
<title>Node22&#45;&gt;Node23</title>
<path fill="none" stroke="#191970" d="M99.1102,-77.3098C119.4916,-85.3027 146.7714,-95.3871 171.4824,-102.5 183.1832,-105.868 195.9583,-108.9067 207.9565,-111.4873"/>
<polygon fill="#191970" stroke="#191970" points="100.2863,-74.0111 89.7004,-73.5762 97.7046,-80.5176 100.2863,-74.0111"/>
</g>
<!-- Node24 -->
<g id="node3" class="node">
<title>Node24</title>
<g id="a_node3"><a xlink:href="class_n_a_m_o_n_1_1_t_tree.xhtml#a4e9f8f0a46da002c0836ca5a15526a59" target="_top" xlink:title="Set method for NAMON::TTree::cv union. ">
<polygon fill="#ffffff" stroke="#000000" points="171.4824,-74.5 171.4824,-92.5 340.8662,-92.5 340.8662,-74.5 171.4824,-74.5"/>
<text text-anchor="middle" x="256.1743" y="-80.5" font-family="Helvetica,sans-Serif" font-size="10.00" fill="#000000">NAMON::TTree::setCommonValue</text>
</a>
</g>
</g>
<!-- Node22&#45;&gt;Node24 -->
<g id="edge2" class="edge">
<title>Node22&#45;&gt;Node24</title>
<path fill="none" stroke="#191970" d="M145.6956,-72.3603C154.1398,-73.2117 162.7637,-74.0813 171.2848,-74.9405"/>
<polygon fill="#191970" stroke="#191970" points="145.8044,-68.8536 135.5037,-71.3326 145.1021,-75.8183 145.8044,-68.8536"/>
</g>
<!-- Node26 -->
<g id="node5" class="node">
<title>Node26</title>
<g id="a_node5"><a xlink:href="class_n_a_m_o_n_1_1_t_tree.xhtml#a9d653ac69fd4e434543f99c77af734b7" target="_top" xlink:title="Compares values important at a specific #NAMON::TreeLevel. ">
<polygon fill="#ffffff" stroke="#000000" points="180.0078,-37.5 180.0078,-55.5 332.3408,-55.5 332.3408,-37.5 180.0078,-37.5"/>
<text text-anchor="middle" x="256.1743" y="-43.5" font-family="Helvetica,sans-Serif" font-size="10.00" fill="#000000">NAMON::TTree::levelCompare</text>
</a>
</g>
</g>
<!-- Node22&#45;&gt;Node26 -->
<g id="edge4" class="edge">
<title>Node22&#45;&gt;Node26</title>
<path fill="none" stroke="#191970" d="M145.7209,-57.051C156.9645,-55.977 168.5263,-54.8725 179.7393,-53.8014"/>
<polygon fill="#191970" stroke="#191970" points="145.1255,-53.5919 135.5037,-58.027 145.7912,-60.5602 145.1255,-53.5919"/>
</g>
<!-- Node27 -->
<g id="node6" class="node">
<title>Node27</title>
<g id="a_node6"><a xlink:href="capturing_8hpp.xhtml#a30a4aa41a243aeb1e88c49d09e65a48e" target="_top" xlink:title="Parses layer 4 header. ">
<polygon fill="#ffffff" stroke="#000000" points="223.9971,-.5 223.9971,-18.5 288.3516,-18.5 288.3516,-.5 223.9971,-.5"/>
<text text-anchor="middle" x="256.1743" y="-6.5" font-family="Helvetica,sans-Serif" font-size="10.00" fill="#000000">parsePorts</text>
</a>
</g>
</g>
<!-- Node22&#45;&gt;Node27 -->
<g id="edge5" class="edge">
<title>Node22&#45;&gt;Node27</title>
<path fill="none" stroke="#191970" d="M100.7824,-51.96C121.0127,-44.5517 147.5314,-35.3186 171.4824,-28.5 188.5842,-23.6313 207.9142,-19.2141 223.7848,-15.8667"/>
<polygon fill="#191970" stroke="#191970" points="99.5603,-48.6802 91.3951,-55.4316 101.9883,-55.2456 99.5603,-48.6802"/>
</g>
<!-- Node25 -->
<g id="node4" class="node">
<title>Node25</title>
<g id="a_node4"><a xlink:href="class_n_a_m_o_n_1_1_cache.xhtml#a7a097b6420be4d276bca506ff7ffe6bb" target="_top" xlink:title="Function inserts new TEntry into the TTree node. ">
<polygon fill="#ffffff" stroke="#000000" points="376.8662,-74.5 376.8662,-92.5 494.5605,-92.5 494.5605,-74.5 376.8662,-74.5"/>
<text text-anchor="middle" x="435.7134" y="-80.5" font-family="Helvetica,sans-Serif" font-size="10.00" fill="#000000">NAMON::Cache::insert</text>
</a>
</g>
</g>
<!-- Node24&#45;&gt;Node25 -->
<g id="edge3" class="edge">
<title>Node24&#45;&gt;Node25</title>
<path fill="none" stroke="#191970" d="M351.1471,-83.5C359.8254,-83.5 368.4386,-83.5 376.6609,-83.5"/>
<polygon fill="#191970" stroke="#191970" points="350.9492,-80.0001 340.9492,-83.5 350.9492,-87.0001 350.9492,-80.0001"/>
</g>
</g>
</svg>
