<?xml version="1.0" encoding="UTF-8" standalone="no"?>
<!DOCTYPE svg PUBLIC "-//W3C//DTD SVG 1.1//EN"
 "http://www.w3.org/Graphics/SVG/1.1/DTD/svg11.dtd">
<!-- Generated by graphviz version 2.40.1 (20161225.0304)
 -->
<!-- Title: TOOL::TEntry Pages: 1 -->
<svg width="282pt" height="92pt"
 viewBox="0.00 0.00 281.96 92.00" xmlns="http://www.w3.org/2000/svg" xmlns:xlink="http://www.w3.org/1999/xlink">
<g id="graph0" class="graph" transform="scale(1 1) rotate(0) translate(4 88)">
<title>TOOL::TEntry</title>
<polygon fill="#ffffff" stroke="transparent" points="-4,4 -4,-88 277.9604,-88 277.9604,4 -4,4"/>
<!-- Node2 -->
<g id="node1" class="node">
<title>Node2</title>
<polygon fill="#bfbfbf" stroke="#000000" points="135.7061,-.5 135.7061,-18.5 213.7617,-18.5 213.7617,-.5 135.7061,-.5"/>
<text text-anchor="middle" x="174.7339" y="-6.5" font-family="Helvetica,sans-Serif" font-size="10.00" fill="#000000">TOOL::TEntry</text>
</g>
<!-- Node3 -->
<g id="node2" class="node">
<title>Node3</title>
<g id="a_node2"><a xlink:href="class_t_o_o_l_1_1_t_entry_or_t_tree.xhtml" target="_top" xlink:title="Base class which a decision tree (cache) is made of. ">
<polygon fill="#ffffff" stroke="#000000" points="0,-65.5 0,-83.5 115.4678,-83.5 115.4678,-65.5 0,-65.5"/>
<text text-anchor="middle" x="57.7339" y="-71.5" font-family="Helvetica,sans-Serif" font-size="10.00" fill="#000000">TOOL::TEntryOrTTree</text>
</a>
</g>
</g>
<!-- Node3&#45;&gt;Node2 -->
<g id="edge1" class="edge">
<title>Node3&#45;&gt;Node2</title>
<path fill="none" stroke="#191970" d="M82.7817,-60.5846C105.5778,-47.9201 138.5815,-29.5847 158.2265,-18.6708"/>
<polygon fill="#191970" stroke="#191970" points="81.0441,-57.546 74.0022,-65.462 84.4436,-63.6651 81.0441,-57.546"/>
</g>
<!-- Node4 -->
<g id="node3" class="node">
<title>Node4</title>
<g id="a_node3"><a xlink:href="class_t_o_o_l_1_1_netflow.xhtml" target="_top" xlink:title="Netflow class contains information about packet needed to uniquely determine a netflow it belongs to...">
<polygon fill="#ffffff" stroke="#000000" points="133.7578,-65.5 133.7578,-83.5 215.71,-83.5 215.71,-65.5 133.7578,-65.5"/>
<text text-anchor="middle" x="174.7339" y="-71.5" font-family="Helvetica,sans-Serif" font-size="10.00" fill="#000000">TOOL::Netflow</text>
</a>
</g>
</g>
<!-- Node4&#45;&gt;Node2 -->
<g id="edge2" class="edge">
<title>Node4&#45;&gt;Node2</title>
<path fill="none" stroke="#9a32cd" stroke-dasharray="5,2" d="M174.7339,-55.1265C174.7339,-43.1522 174.7339,-28.3205 174.7339,-18.8821"/>
<polygon fill="#9a32cd" stroke="#9a32cd" points="171.234,-55.462 174.7339,-65.462 178.234,-55.4621 171.234,-55.462"/>
<text text-anchor="middle" x="178.9038" y="-39" font-family="Helvetica,sans-Serif" font-size="10.00" fill="#000000"> n</text>
</g>
<!-- Node5 -->
<g id="node4" class="node">
<title>Node5</title>
<polygon fill="#ffffff" stroke="#bfbfbf" points="233.5073,-65.5 233.5073,-83.5 273.9604,-83.5 273.9604,-65.5 233.5073,-65.5"/>
<text text-anchor="middle" x="253.7339" y="-71.5" font-family="Helvetica,sans-Serif" font-size="10.00" fill="#000000">string</text>
</g>
<!-- Node5&#45;&gt;Node2 -->
<g id="edge3" class="edge">
<title>Node5&#45;&gt;Node2</title>
<path fill="none" stroke="#9a32cd" stroke-dasharray="5,2" d="M234.9421,-59.0384C219.6607,-46.4651 198.6139,-29.1481 185.8799,-18.6708"/>
<polygon fill="#9a32cd" stroke="#9a32cd" points="232.8033,-61.8111 242.7493,-65.462 237.2509,-56.4056 232.8033,-61.8111"/>
<text text-anchor="middle" x="241.8027" y="-39" font-family="Helvetica,sans-Serif" font-size="10.00" fill="#000000"> appName</text>
</g>
</g>
</svg>
