<?xml version="1.0" encoding="UTF-8" standalone="no"?>
<!DOCTYPE svg PUBLIC "-//W3C//DTD SVG 1.1//EN"
 "http://www.w3.org/Graphics/SVG/1.1/DTD/svg11.dtd">
<!-- Generated by graphviz version 2.40.1 (20161225.0304)
 -->
<!-- Title: NAMON::Netflow::getIpVersion Pages: 1 -->
<svg width="520pt" height="101pt"
 viewBox="0.00 0.00 520.36 101.00" xmlns="http://www.w3.org/2000/svg" xmlns:xlink="http://www.w3.org/1999/xlink">
<g id="graph0" class="graph" transform="scale(1 1) rotate(0) translate(4 97)">
<title>NAMON::Netflow::getIpVersion</title>
<polygon fill="#ffffff" stroke="transparent" points="-4,4 -4,-97 516.3584,-97 516.3584,4 -4,4"/>
<!-- Node3 -->
<g id="node1" class="node">
<title>Node3</title>
<polygon fill="#bfbfbf" stroke="#000000" points="0,-37.5 0,-55.5 153.2803,-55.5 153.2803,-37.5 0,-37.5"/>
<text text-anchor="middle" x="76.6401" y="-43.5" font-family="Helvetica,sans-Serif" font-size="10.00" fill="#000000">NAMON::Netflow::getIpVersion</text>
</g>
<!-- Node4 -->
<g id="node2" class="node">
<title>Node4</title>
<g id="a_node2"><a xlink:href="class_n_a_m_o_n_1_1_t_entry.xhtml#a9faba1b923d35a52c53bf7f7a76f7a32" target="_top" xlink:title="Compares values important at a specific #NAMON::TreeLevel. ">
<polygon fill="#ffffff" stroke="#000000" points="196.2334,-74.5 196.2334,-92.5 351.7109,-92.5 351.7109,-74.5 196.2334,-74.5"/>
<text text-anchor="middle" x="273.9722" y="-80.5" font-family="Helvetica,sans-Serif" font-size="10.00" fill="#000000">NAMON::TEntry::levelCompare</text>
</a>
</g>
</g>
<!-- Node3&#45;&gt;Node4 -->
<g id="edge1" class="edge">
<title>Node3&#45;&gt;Node4</title>
<path fill="none" stroke="#191970" d="M134.649,-57.3767C163.615,-62.8079 198.2471,-69.3015 225.7363,-74.4557"/>
<polygon fill="#191970" stroke="#191970" points="135.1344,-53.9068 124.6606,-55.5039 133.8443,-60.7869 135.1344,-53.9068"/>
</g>
<!-- Node5 -->
<g id="node3" class="node">
<title>Node5</title>
<g id="a_node3"><a xlink:href="class_n_a_m_o_n_1_1_t_tree.xhtml#a4e9f8f0a46da002c0836ca5a15526a59" target="_top" xlink:title="Set method for NAMON::TTree::cv union. ">
<polygon fill="#ffffff" stroke="#000000" points="189.2803,-37.5 189.2803,-55.5 358.6641,-55.5 358.6641,-37.5 189.2803,-37.5"/>
<text text-anchor="middle" x="273.9722" y="-43.5" font-family="Helvetica,sans-Serif" font-size="10.00" fill="#000000">NAMON::TTree::setCommonValue</text>
</a>
</g>
</g>
<!-- Node3&#45;&gt;Node5 -->
<g id="edge2" class="edge">
<title>Node3&#45;&gt;Node5</title>
<path fill="none" stroke="#191970" d="M163.725,-46.5C172.169,-46.5 180.7278,-46.5 189.1494,-46.5"/>
<polygon fill="#191970" stroke="#191970" points="163.4989,-43.0001 153.4989,-46.5 163.4989,-50.0001 163.4989,-43.0001"/>
</g>
<!-- Node7 -->
<g id="node5" class="node">
<title>Node7</title>
<g id="a_node5"><a xlink:href="class_n_a_m_o_n_1_1_t_tree.xhtml#a9d653ac69fd4e434543f99c77af734b7" target="_top" xlink:title="Compares values important at a specific #NAMON::TreeLevel. ">
<polygon fill="#ffffff" stroke="#000000" points="197.8057,-.5 197.8057,-18.5 350.1387,-18.5 350.1387,-.5 197.8057,-.5"/>
<text text-anchor="middle" x="273.9722" y="-6.5" font-family="Helvetica,sans-Serif" font-size="10.00" fill="#000000">NAMON::TTree::levelCompare</text>
</a>
</g>
</g>
<!-- Node3&#45;&gt;Node7 -->
<g id="edge4" class="edge">
<title>Node3&#45;&gt;Node7</title>
<path fill="none" stroke="#191970" d="M134.649,-35.6233C163.615,-30.1921 198.2471,-23.6985 225.7363,-18.5443"/>
<polygon fill="#191970" stroke="#191970" points="133.8443,-32.2131 124.6606,-37.4961 135.1344,-39.0932 133.8443,-32.2131"/>
</g>
<!-- Node6 -->
<g id="node4" class="node">
<title>Node6</title>
<g id="a_node4"><a xlink:href="class_n_a_m_o_n_1_1_cache.xhtml#a7a097b6420be4d276bca506ff7ffe6bb" target="_top" xlink:title="Function inserts new TEntry into the TTree node. ">
<polygon fill="#ffffff" stroke="#000000" points="394.6641,-37.5 394.6641,-55.5 512.3584,-55.5 512.3584,-37.5 394.6641,-37.5"/>
<text text-anchor="middle" x="453.5112" y="-43.5" font-family="Helvetica,sans-Serif" font-size="10.00" fill="#000000">NAMON::Cache::insert</text>
</a>
</g>
</g>
<!-- Node5&#45;&gt;Node6 -->
<g id="edge3" class="edge">
<title>Node5&#45;&gt;Node6</title>
<path fill="none" stroke="#191970" d="M368.945,-46.5C377.6232,-46.5 386.2364,-46.5 394.4587,-46.5"/>
<polygon fill="#191970" stroke="#191970" points="368.7471,-43.0001 358.7471,-46.5 368.747,-50.0001 368.7471,-43.0001"/>
</g>
</g>
</svg>
