<?xml version="1.0" encoding="UTF-8" standalone="no"?>
<!DOCTYPE svg PUBLIC "-//W3C//DTD SVG 1.1//EN"
 "http://www.w3.org/Graphics/SVG/1.1/DTD/svg11.dtd">
<!-- Generated by graphviz version 2.40.1 (20161225.0304)
 -->
<!-- Title: TOOL::Cache::find Pages: 1 -->
<svg width="287pt" height="64pt"
 viewBox="0.00 0.00 286.85 64.00" xmlns="http://www.w3.org/2000/svg" xmlns:xlink="http://www.w3.org/1999/xlink">
<g id="graph0" class="graph" transform="scale(1 1) rotate(0) translate(4 60)">
<title>TOOL::Cache::find</title>
<polygon fill="#ffffff" stroke="transparent" points="-4,4 -4,-60 282.8496,-60 282.8496,4 -4,4"/>
<!-- Node2 -->
<g id="node1" class="node">
<title>Node2</title>
<polygon fill="#bfbfbf" stroke="#000000" points="0,-18.5 0,-36.5 99.1934,-36.5 99.1934,-18.5 0,-18.5"/>
<text text-anchor="middle" x="49.5967" y="-24.5" font-family="Helvetica,sans-Serif" font-size="10.00" fill="#000000">TOOL::Cache::find</text>
</g>
<!-- Node3 -->
<g id="node2" class="node">
<title>Node3</title>
<g id="a_node2"><a xlink:href="class_t_o_o_l_1_1_netflow.xhtml#a236c3017659c725da82f3f9abd025851" target="_top" xlink:title="Get method for TOOL::Netflow::localPort. ">
<polygon fill="#ffffff" stroke="#000000" points="135.1934,-37.5 135.1934,-55.5 278.8496,-55.5 278.8496,-37.5 135.1934,-37.5"/>
<text text-anchor="middle" x="207.0215" y="-43.5" font-family="Helvetica,sans-Serif" font-size="10.00" fill="#000000">TOOL::Netflow::getLocalPort</text>
</a>
</g>
</g>
<!-- Node2&#45;&gt;Node3 -->
<g id="edge1" class="edge">
<title>Node2&#45;&gt;Node3</title>
<path fill="none" stroke="#191970" d="M99.4069,-33.5117C107.5647,-34.4963 116.2034,-35.5389 124.8978,-36.5883"/>
<polygon fill="#191970" stroke="#191970" points="124.757,-40.0966 135.1043,-37.8201 125.5958,-33.147 124.757,-40.0966"/>
</g>
<!-- Node4 -->
<g id="node3" class="node">
<title>Node4</title>
<g id="a_node3"><a xlink:href="class_t_o_o_l_1_1_t_entry.xhtml#af9bb543217d0fb9d47f41bc2d086fcc8" target="_top" xlink:title="Get method for TOOL::TEntry::n. ">
<polygon fill="#ffffff" stroke="#000000" points="135.2031,-.5 135.2031,-18.5 278.8398,-18.5 278.8398,-.5 135.2031,-.5"/>
<text text-anchor="middle" x="207.0215" y="-6.5" font-family="Helvetica,sans-Serif" font-size="10.00" fill="#000000">TOOL::TEntry::getNetflowPtr</text>
</a>
</g>
</g>
<!-- Node2&#45;&gt;Node4 -->
<g id="edge2" class="edge">
<title>Node2&#45;&gt;Node4</title>
<path fill="none" stroke="#191970" d="M99.4069,-21.8047C107.5647,-20.8719 116.2034,-19.8842 124.8978,-18.89"/>
<polygon fill="#191970" stroke="#191970" points="125.5667,-22.3365 135.1043,-17.723 124.7714,-15.3818 125.5667,-22.3365"/>
</g>
</g>
</svg>
