<?xml version="1.0" encoding="UTF-8" standalone="no"?>
<!DOCTYPE svg PUBLIC "-//W3C//DTD SVG 1.1//EN"
 "http://www.w3.org/Graphics/SVG/1.1/DTD/svg11.dtd">
<!-- Generated by graphviz version 2.40.1 (20161225.0304)
 -->
<!-- Title: TOOL::InterfaceDescriptionBlock::write Pages: 1 -->
<svg width="322pt" height="50pt"
 viewBox="0.00 0.00 321.88 50.00" xmlns="http://www.w3.org/2000/svg" xmlns:xlink="http://www.w3.org/1999/xlink">
<g id="graph0" class="graph" transform="scale(1 1) rotate(0) translate(4 46)">
<title>TOOL::InterfaceDescriptionBlock::write</title>
<polygon fill="#ffffff" stroke="transparent" points="-4,4 -4,-46 317.8838,-46 317.8838,4 -4,4"/>
<!-- Node3 -->
<g id="node1" class="node">
<title>Node3</title>
<polygon fill="#bfbfbf" stroke="#000000" points="0,-.5 0,-28.5 137.5381,-28.5 137.5381,-.5 0,-.5"/>
<text text-anchor="start" x="8" y="-16.5" font-family="Helvetica,sans-Serif" font-size="10.00" fill="#000000">TOOL::InterfaceDescription</text>
<text text-anchor="middle" x="68.769" y="-6.5" font-family="Helvetica,sans-Serif" font-size="10.00" fill="#000000">Block::write</text>
</g>
<!-- Node4 -->
<g id="node2" class="node">
<title>Node4</title>
<g id="a_node2"><a xlink:href="pcapng__blocks_8hpp.xhtml#a75a7bcda686113f2f624591c4b496013" target="_top" xlink:title="Computes number of padding bytes to be inserted in order to reach multiple of x. ">
<polygon fill="#ffffff" stroke="#000000" points="173.5381,-5.5 173.5381,-23.5 313.8838,-23.5 313.8838,-5.5 173.5381,-5.5"/>
<text text-anchor="middle" x="243.7109" y="-11.5" font-family="Helvetica,sans-Serif" font-size="10.00" fill="#000000">TOOL::computePaddingLen</text>
</a>
</g>
</g>
<!-- Node3&#45;&gt;Node4 -->
<g id="edge1" class="edge">
<title>Node3&#45;&gt;Node4</title>
<path fill="none" stroke="#191970" d="M137.6596,-14.5C146.1126,-14.5 154.8084,-14.5 163.411,-14.5"/>
<polygon fill="#191970" stroke="#191970" points="163.4469,-18.0001 173.4468,-14.5 163.4468,-11.0001 163.4469,-18.0001"/>
</g>
<!-- Node4&#45;&gt;Node4 -->
<g id="edge2" class="edge">
<title>Node4&#45;&gt;Node4</title>
<path fill="none" stroke="#191970" d="M217.7846,-23.5134C203.4633,-32.322 212.1055,-42 243.7109,-42 265.9335,-42 276.8034,-37.2153 276.3205,-31.3125"/>
<polygon fill="#191970" stroke="#191970" points="278.802,-28.8294 269.6373,-23.5134 273.4866,-33.3843 278.802,-28.8294"/>
</g>
</g>
</svg>
