<?xml version="1.0" encoding="UTF-8" standalone="no"?>
<!DOCTYPE svg PUBLIC "-//W3C//DTD SVG 1.1//EN"
 "http://www.w3.org/Graphics/SVG/1.1/DTD/svg11.dtd">
<!-- Generated by graphviz version 2.40.1 (20161225.0304)
 -->
<!-- Title: TOOL::TEntry::getAppName Pages: 1 -->
<svg width="324pt" height="64pt"
 viewBox="0.00 0.00 323.52 64.00" xmlns="http://www.w3.org/2000/svg" xmlns:xlink="http://www.w3.org/1999/xlink">
<g id="graph0" class="graph" transform="scale(1 1) rotate(0) translate(4 60)">
<title>TOOL::TEntry::getAppName</title>
<polygon fill="#ffffff" stroke="transparent" points="-4,4 -4,-60 319.5195,-60 319.5195,4 -4,4"/>
<!-- Node3 -->
<g id="node1" class="node">
<title>Node3</title>
<polygon fill="#bfbfbf" stroke="#000000" points="0,-18.5 0,-36.5 141.9814,-36.5 141.9814,-18.5 0,-18.5"/>
<text text-anchor="middle" x="70.9907" y="-24.5" font-family="Helvetica,sans-Serif" font-size="10.00" fill="#000000">TOOL::TEntry::getAppName</text>
</g>
<!-- Node4 -->
<g id="node2" class="node">
<title>Node4</title>
<g id="a_node2"><a xlink:href="class_t_o_o_l_1_1_t_tree.xhtml#a767c53849c7d02f696e5b115b8169244" target="_top" xlink:title="Finds invalid entries and saves them in g_finalResults. ">
<polygon fill="#ffffff" stroke="#000000" points="179.2827,-37.5 179.2827,-55.5 314.2183,-55.5 314.2183,-37.5 179.2827,-37.5"/>
<text text-anchor="middle" x="246.7505" y="-43.5" font-family="Helvetica,sans-Serif" font-size="10.00" fill="#000000">TOOL::TTree::saveResults</text>
</a>
</g>
</g>
<!-- Node3&#45;&gt;Node4 -->
<g id="edge1" class="edge">
<title>Node3&#45;&gt;Node4</title>
<path fill="none" stroke="#191970" d="M152.2962,-36.2893C161.2684,-37.2592 170.3324,-38.239 179.1114,-39.1881"/>
<polygon fill="#191970" stroke="#191970" points="152.5438,-32.7958 142.2256,-35.2006 151.7915,-39.7552 152.5438,-32.7958"/>
</g>
<!-- Node5 -->
<g id="node3" class="node">
<title>Node5</title>
<g id="a_node3"><a xlink:href="class_t_o_o_l_1_1_cache.xhtml#af97cbe252896a34b737765d1fb3be743" target="_top" xlink:title="Finds expired entries and saves them in g_finalResults. ">
<polygon fill="#ffffff" stroke="#000000" points="177.9814,-.5 177.9814,-18.5 315.5195,-18.5 315.5195,-.5 177.9814,-.5"/>
<text text-anchor="middle" x="246.7505" y="-6.5" font-family="Helvetica,sans-Serif" font-size="10.00" fill="#000000">TOOL::Cache::saveResults</text>
</a>
</g>
</g>
<!-- Node3&#45;&gt;Node5 -->
<g id="edge2" class="edge">
<title>Node3&#45;&gt;Node5</title>
<path fill="none" stroke="#191970" d="M152.2601,-19.177C160.8581,-18.2965 169.541,-17.4072 177.9771,-16.5433"/>
<polygon fill="#191970" stroke="#191970" points="151.8169,-15.704 142.2256,-20.2047 152.5302,-22.6676 151.8169,-15.704"/>
</g>
</g>
</svg>
