<?xml version="1.0" encoding="UTF-8" standalone="no"?>
<!DOCTYPE svg PUBLIC "-//W3C//DTD SVG 1.1//EN"
 "http://www.w3.org/Graphics/SVG/1.1/DTD/svg11.dtd">
<!-- Generated by graphviz version 2.40.1 (20161225.0304)
 -->
<!-- Title: NAMON::TEntry::getNetflowPtr Pages: 1 -->
<svg width="499pt" height="177pt"
 viewBox="0.00 0.00 499.21 177.00" xmlns="http://www.w3.org/2000/svg" xmlns:xlink="http://www.w3.org/1999/xlink">
<g id="graph0" class="graph" transform="scale(1 1) rotate(0) translate(4 173)">
<title>NAMON::TEntry::getNetflowPtr</title>
<polygon fill="#ffffff" stroke="transparent" points="-4,4 -4,-173 495.2109,-173 495.2109,4 -4,4"/>
<!-- Node9 -->
<g id="node1" class="node">
<title>Node9</title>
<polygon fill="#bfbfbf" stroke="#000000" points="0,-74.5 0,-92.5 153.8076,-92.5 153.8076,-74.5 0,-74.5"/>
<text text-anchor="middle" x="76.9038" y="-80.5" font-family="Helvetica,sans-Serif" font-size="10.00" fill="#000000">NAMON::TEntry::getNetflowPtr</text>
</g>
<!-- Node10 -->
<g id="node2" class="node">
<title>Node10</title>
<g id="a_node2"><a xlink:href="class_n_a_m_o_n_1_1_t_tree.xhtml#a7c2a0cc5654377b4b8ca63feb050fa62" target="_top" xlink:title="Function inserts a new TEntry into a decision tree. ">
<polygon fill="#ffffff" stroke="#000000" points="206.1162,-150.5 206.1162,-168.5 321.208,-168.5 321.208,-150.5 206.1162,-150.5"/>
<text text-anchor="middle" x="263.6621" y="-156.5" font-family="Helvetica,sans-Serif" font-size="10.00" fill="#000000">NAMON::TTree::insert</text>
</a>
</g>
</g>
<!-- Node9&#45;&gt;Node10 -->
<g id="edge1" class="edge">
<title>Node9&#45;&gt;Node10</title>
<path fill="none" stroke="#191970" d="M104.008,-97.0752C126.6401,-108.1444 159.9129,-123.805 189.8076,-135.5 203.8697,-141.0012 219.7636,-146.2826 233.195,-150.4835"/>
<polygon fill="#191970" stroke="#191970" points="105.5181,-93.9175 95.0009,-92.6373 102.4242,-100.1967 105.5181,-93.9175"/>
</g>
<!-- Node11 -->
<g id="node3" class="node">
<title>Node11</title>
<g id="a_node3"><a xlink:href="class_n_a_m_o_n_1_1_cache.xhtml#a7a097b6420be4d276bca506ff7ffe6bb" target="_top" xlink:title="Function inserts new TEntry into the TTree node. ">
<polygon fill="#ffffff" stroke="#000000" points="373.5166,-131.5 373.5166,-149.5 491.2109,-149.5 491.2109,-131.5 373.5166,-131.5"/>
<text text-anchor="middle" x="432.3638" y="-137.5" font-family="Helvetica,sans-Serif" font-size="10.00" fill="#000000">NAMON::Cache::insert</text>
</a>
</g>
</g>
<!-- Node9&#45;&gt;Node11 -->
<g id="edge5" class="edge">
<title>Node9&#45;&gt;Node11</title>
<path fill="none" stroke="#191970" d="M139.6993,-94.1973C156.0096,-96.9401 173.56,-99.8603 189.8076,-102.5 252.4955,-112.6849 324.3792,-123.8868 373.518,-131.4717"/>
<polygon fill="#191970" stroke="#191970" points="140.1696,-90.7272 129.7269,-92.5164 139.0061,-97.6299 140.1696,-90.7272"/>
</g>
<!-- Node12 -->
<g id="node4" class="node">
<title>Node12</title>
<g id="a_node4"><a xlink:href="class_n_a_m_o_n_1_1_t_tree.xhtml#a815d4775fee5298d82e628138bb2b547" target="_top" xlink:title="Finds invalid entries and saves them in g_finalResults. ">
<polygon fill="#ffffff" stroke="#000000" points="191.1089,-74.5 191.1089,-92.5 336.2153,-92.5 336.2153,-74.5 191.1089,-74.5"/>
<text text-anchor="middle" x="263.6621" y="-80.5" font-family="Helvetica,sans-Serif" font-size="10.00" fill="#000000">NAMON::TTree::saveResults</text>
</a>
</g>
</g>
<!-- Node9&#45;&gt;Node12 -->
<g id="edge3" class="edge">
<title>Node9&#45;&gt;Node12</title>
<path fill="none" stroke="#191970" d="M164.0684,-83.5C173.081,-83.5 182.1712,-83.5 191.0011,-83.5"/>
<polygon fill="#191970" stroke="#191970" points="163.9438,-80.0001 153.9438,-83.5 163.9438,-87.0001 163.9438,-80.0001"/>
</g>
<!-- Node13 -->
<g id="node5" class="node">
<title>Node13</title>
<g id="a_node5"><a xlink:href="class_n_a_m_o_n_1_1_cache.xhtml#a96a1eeb67705d385c22a8921410af3a6" target="_top" xlink:title="Function finds a Netflow record in a cache. ">
<polygon fill="#ffffff" stroke="#000000" points="208.98,-37.5 208.98,-55.5 318.3442,-55.5 318.3442,-37.5 208.98,-37.5"/>
<text text-anchor="middle" x="263.6621" y="-43.5" font-family="Helvetica,sans-Serif" font-size="10.00" fill="#000000">NAMON::Cache::find</text>
</a>
</g>
</g>
<!-- Node9&#45;&gt;Node13 -->
<g id="edge4" class="edge">
<title>Node9&#45;&gt;Node13</title>
<path fill="none" stroke="#191970" d="M132.4016,-72.5049C159.7332,-67.0901 192.2784,-60.6423 218.1243,-55.5218"/>
<polygon fill="#191970" stroke="#191970" points="131.7192,-69.072 122.59,-74.4488 133.0796,-75.9386 131.7192,-69.072"/>
</g>
<!-- Node14 -->
<g id="node6" class="node">
<title>Node14</title>
<g id="a_node6"><a xlink:href="class_n_a_m_o_n_1_1_cache.xhtml#a6167f2cdef0bb0bcc1e7239efb3caff7" target="_top" xlink:title="Finds expired entries and saves them in g_finalResults. ">
<polygon fill="#ffffff" stroke="#000000" points="189.8076,-.5 189.8076,-18.5 337.5166,-18.5 337.5166,-.5 189.8076,-.5"/>
<text text-anchor="middle" x="263.6621" y="-6.5" font-family="Helvetica,sans-Serif" font-size="10.00" fill="#000000">NAMON::Cache::saveResults</text>
</a>
</g>
</g>
<!-- Node9&#45;&gt;Node14 -->
<g id="edge6" class="edge">
<title>Node9&#45;&gt;Node14</title>
<path fill="none" stroke="#191970" d="M101.7681,-69.5779C124.2306,-57.4431 158.4746,-40.0282 189.8076,-28.5 200.2447,-24.6599 211.7841,-21.2942 222.5787,-18.5051"/>
<polygon fill="#191970" stroke="#191970" points="100.0012,-66.555 92.9056,-74.4228 103.3589,-72.6971 100.0012,-66.555"/>
</g>
<!-- Node10&#45;&gt;Node11 -->
<g id="edge2" class="edge">
<title>Node10&#45;&gt;Node11</title>
<path fill="none" stroke="#191970" d="M331.2493,-151.888C345.1701,-150.3202 359.7257,-148.6808 373.3157,-147.1503"/>
<polygon fill="#191970" stroke="#191970" points="330.7932,-148.4171 321.2478,-153.0144 331.5767,-155.3732 330.7932,-148.4171"/>
</g>
</g>
</svg>
