<?xml version="1.0" encoding="UTF-8" standalone="no"?>
<!DOCTYPE svg PUBLIC "-//W3C//DTD SVG 1.1//EN"
 "http://www.w3.org/Graphics/SVG/1.1/DTD/svg11.dtd">
<!-- Generated by graphviz version 2.40.1 (20161225.0304)
 -->
<!-- Title: NAMON::Netflow::getLocalIp Pages: 1 -->
<svg width="511pt" height="101pt"
 viewBox="0.00 0.00 510.91 101.00" xmlns="http://www.w3.org/2000/svg" xmlns:xlink="http://www.w3.org/1999/xlink">
<g id="graph0" class="graph" transform="scale(1 1) rotate(0) translate(4 97)">
<title>NAMON::Netflow::getLocalIp</title>
<polygon fill="#ffffff" stroke="transparent" points="-4,4 -4,-97 506.9053,-97 506.9053,4 -4,4"/>
<!-- Node9 -->
<g id="node1" class="node">
<title>Node9</title>
<polygon fill="#bfbfbf" stroke="#000000" points="0,-37.5 0,-55.5 143.8271,-55.5 143.8271,-37.5 0,-37.5"/>
<text text-anchor="middle" x="71.9136" y="-43.5" font-family="Helvetica,sans-Serif" font-size="10.00" fill="#000000">NAMON::Netflow::getLocalIp</text>
</g>
<!-- Node10 -->
<g id="node2" class="node">
<title>Node10</title>
<g id="a_node2"><a xlink:href="class_n_a_m_o_n_1_1_t_entry.xhtml#a9faba1b923d35a52c53bf7f7a76f7a32" target="_top" xlink:title="Compares values important at a specific #NAMON::TreeLevel. ">
<polygon fill="#ffffff" stroke="#000000" points="186.7803,-74.5 186.7803,-92.5 342.2578,-92.5 342.2578,-74.5 186.7803,-74.5"/>
<text text-anchor="middle" x="264.519" y="-80.5" font-family="Helvetica,sans-Serif" font-size="10.00" fill="#000000">NAMON::TEntry::levelCompare</text>
</a>
</g>
</g>
<!-- Node9&#45;&gt;Node10 -->
<g id="edge1" class="edge">
<title>Node9&#45;&gt;Node10</title>
<path fill="none" stroke="#191970" d="M129.1489,-57.4951C157.3363,-62.9099 190.9004,-69.3577 217.5555,-74.4782"/>
<polygon fill="#191970" stroke="#191970" points="129.5109,-54.0007 119.0302,-55.5512 128.1903,-60.875 129.5109,-54.0007"/>
</g>
<!-- Node11 -->
<g id="node3" class="node">
<title>Node11</title>
<g id="a_node3"><a xlink:href="class_n_a_m_o_n_1_1_t_tree.xhtml#a4e9f8f0a46da002c0836ca5a15526a59" target="_top" xlink:title="Set method for NAMON::TTree::cv union. ">
<polygon fill="#ffffff" stroke="#000000" points="179.8271,-37.5 179.8271,-55.5 349.2109,-55.5 349.2109,-37.5 179.8271,-37.5"/>
<text text-anchor="middle" x="264.519" y="-43.5" font-family="Helvetica,sans-Serif" font-size="10.00" fill="#000000">NAMON::TTree::setCommonValue</text>
</a>
</g>
</g>
<!-- Node9&#45;&gt;Node11 -->
<g id="edge2" class="edge">
<title>Node9&#45;&gt;Node11</title>
<path fill="none" stroke="#191970" d="M154.1157,-46.5C162.5601,-46.5 171.1523,-46.5 179.625,-46.5"/>
<polygon fill="#191970" stroke="#191970" points="153.9067,-43.0001 143.9066,-46.5 153.9066,-50.0001 153.9067,-43.0001"/>
</g>
<!-- Node13 -->
<g id="node5" class="node">
<title>Node13</title>
<g id="a_node5"><a xlink:href="class_n_a_m_o_n_1_1_t_tree.xhtml#a9d653ac69fd4e434543f99c77af734b7" target="_top" xlink:title="Compares values important at a specific #NAMON::TreeLevel. ">
<polygon fill="#ffffff" stroke="#000000" points="188.3525,-.5 188.3525,-18.5 340.6855,-18.5 340.6855,-.5 188.3525,-.5"/>
<text text-anchor="middle" x="264.519" y="-6.5" font-family="Helvetica,sans-Serif" font-size="10.00" fill="#000000">NAMON::TTree::levelCompare</text>
</a>
</g>
</g>
<!-- Node9&#45;&gt;Node13 -->
<g id="edge4" class="edge">
<title>Node9&#45;&gt;Node13</title>
<path fill="none" stroke="#191970" d="M129.1489,-35.5049C157.3363,-30.0901 190.9004,-23.6423 217.5555,-18.5218"/>
<polygon fill="#191970" stroke="#191970" points="128.1903,-32.125 119.0302,-37.4488 129.5109,-38.9993 128.1903,-32.125"/>
</g>
<!-- Node12 -->
<g id="node4" class="node">
<title>Node12</title>
<g id="a_node4"><a xlink:href="class_n_a_m_o_n_1_1_cache.xhtml#a7a097b6420be4d276bca506ff7ffe6bb" target="_top" xlink:title="Function inserts new TEntry into the TTree node. ">
<polygon fill="#ffffff" stroke="#000000" points="385.2109,-37.5 385.2109,-55.5 502.9053,-55.5 502.9053,-37.5 385.2109,-37.5"/>
<text text-anchor="middle" x="444.0581" y="-43.5" font-family="Helvetica,sans-Serif" font-size="10.00" fill="#000000">NAMON::Cache::insert</text>
</a>
</g>
</g>
<!-- Node11&#45;&gt;Node12 -->
<g id="edge3" class="edge">
<title>Node11&#45;&gt;Node12</title>
<path fill="none" stroke="#191970" d="M359.4918,-46.5C368.1701,-46.5 376.7833,-46.5 385.0056,-46.5"/>
<polygon fill="#191970" stroke="#191970" points="359.294,-43.0001 349.2939,-46.5 359.2939,-50.0001 359.294,-43.0001"/>
</g>
</g>
</svg>
