<?xml version="1.0" encoding="UTF-8" standalone="no"?>
<!DOCTYPE svg PUBLIC "-//W3C//DTD SVG 1.1//EN"
 "http://www.w3.org/Graphics/SVG/1.1/DTD/svg11.dtd">
<!-- Generated by graphviz version 2.40.1 (20161225.0304)
 -->
<!-- Title: NAMON::InterfaceDescriptionBlock::InterfaceDescriptionBlock Pages: 1 -->
<svg width="354pt" height="50pt"
 viewBox="0.00 0.00 353.91 50.00" xmlns="http://www.w3.org/2000/svg" xmlns:xlink="http://www.w3.org/1999/xlink">
<g id="graph0" class="graph" transform="scale(1 1) rotate(0) translate(4 46)">
<title>NAMON::InterfaceDescriptionBlock::InterfaceDescriptionBlock</title>
<polygon fill="#ffffff" stroke="transparent" points="-4,4 -4,-46 349.9102,-46 349.9102,4 -4,4"/>
<!-- Node0 -->
<g id="node1" class="node">
<title>Node0</title>
<polygon fill="#bfbfbf" stroke="#000000" points="0,-.5 0,-28.5 159.3936,-28.5 159.3936,-.5 0,-.5"/>
<text text-anchor="start" x="8" y="-16.5" font-family="Helvetica,sans-Serif" font-size="10.00" fill="#000000">NAMON::InterfaceDescription</text>
<text text-anchor="middle" x="79.6968" y="-6.5" font-family="Helvetica,sans-Serif" font-size="10.00" fill="#000000">Block::InterfaceDescriptionBlock</text>
</g>
<!-- Node1 -->
<g id="node2" class="node">
<title>Node1</title>
<g id="a_node2"><a xlink:href="pcapng__blocks_8hpp.xhtml#a0172951579b09d97a40a36c79257f466" target="_top" xlink:title="Computes number of padding bytes to be inserted in order to reach multiple of x. ">
<polygon fill="#ffffff" stroke="#000000" points="195.3936,-5.5 195.3936,-23.5 345.9102,-23.5 345.9102,-5.5 195.3936,-5.5"/>
<text text-anchor="middle" x="270.6519" y="-11.5" font-family="Helvetica,sans-Serif" font-size="10.00" fill="#000000">NAMON::computePaddingLen</text>
</a>
</g>
</g>
<!-- Node0&#45;&gt;Node1 -->
<g id="edge1" class="edge">
<title>Node0&#45;&gt;Node1</title>
<path fill="none" stroke="#191970" d="M159.5725,-14.5C168.0935,-14.5 176.7848,-14.5 185.3651,-14.5"/>
<polygon fill="#191970" stroke="#191970" points="185.3699,-18.0001 195.3698,-14.5 185.3698,-11.0001 185.3699,-18.0001"/>
</g>
<!-- Node1&#45;&gt;Node1 -->
<g id="edge2" class="edge">
<title>Node1&#45;&gt;Node1</title>
<path fill="none" stroke="#191970" d="M242.3415,-23.5134C226.7033,-32.322 236.1401,-42 270.6519,-42 295.9964,-42 307.8179,-36.7806 306.1163,-30.5191"/>
<polygon fill="#191970" stroke="#191970" points="308.5559,-28.0094 298.9622,-23.5134 303.6582,-33.0107 308.5559,-28.0094"/>
</g>
</g>
</svg>
