<?xml version="1.0" encoding="UTF-8" standalone="no"?>
<!DOCTYPE svg PUBLIC "-//W3C//DTD SVG 1.1//EN"
 "http://www.w3.org/Graphics/SVG/1.1/DTD/svg11.dtd">
<!-- Generated by graphviz version 2.40.1 (20161225.0304)
 -->
<!-- Title: NAMON::TTree::setCommonValue Pages: 1 -->
<svg width="367pt" height="138pt"
 viewBox="0.00 0.00 367.21 138.00" xmlns="http://www.w3.org/2000/svg" xmlns:xlink="http://www.w3.org/1999/xlink">
<g id="graph0" class="graph" transform="scale(1 1) rotate(0) translate(4 134)">
<title>NAMON::TTree::setCommonValue</title>
<polygon fill="#ffffff" stroke="transparent" points="-4,4 -4,-134 363.2109,-134 363.2109,4 -4,4"/>
<!-- Node24 -->
<g id="node1" class="node">
<title>Node24</title>
<polygon fill="#bfbfbf" stroke="#000000" points="0,-55.5 0,-73.5 169.3838,-73.5 169.3838,-55.5 0,-55.5"/>
<text text-anchor="middle" x="84.6919" y="-61.5" font-family="Helvetica,sans-Serif" font-size="10.00" fill="#000000">NAMON::TTree::setCommonValue</text>
</g>
<!-- Node25 -->
<g id="node2" class="node">
<title>Node25</title>
<g id="a_node2"><a xlink:href="class_n_a_m_o_n_1_1_netflow.xhtml#af4e590a380d12a01491b911ff7ba2c37" target="_top" xlink:title="Get method for NAMON::Netflow::localPort. ">
<polygon fill="#ffffff" stroke="#000000" points="205.3838,-111.5 205.3838,-129.5 359.2109,-129.5 359.2109,-111.5 205.3838,-111.5"/>
<text text-anchor="middle" x="282.2974" y="-117.5" font-family="Helvetica,sans-Serif" font-size="10.00" fill="#000000">NAMON::Netflow::getLocalPort</text>
</a>
</g>
</g>
<!-- Node24&#45;&gt;Node25 -->
<g id="edge1" class="edge">
<title>Node24&#45;&gt;Node25</title>
<path fill="none" stroke="#191970" d="M111.3652,-73.5325C135.7084,-81.6241 172.7567,-93.5594 205.3838,-102.5 213.6543,-104.7663 222.4735,-106.9995 231.0798,-109.0804"/>
<polygon fill="#191970" stroke="#191970" points="230.5013,-112.5403 241.0395,-111.4462 232.1191,-105.7298 230.5013,-112.5403"/>
</g>
<!-- Node26 -->
<g id="node3" class="node">
<title>Node26</title>
<g id="a_node3"><a xlink:href="class_n_a_m_o_n_1_1_netflow.xhtml#acd9ecb6f7bac62db7294f5dd76094b38" target="_top" xlink:title="Get method for NAMON::Netflow::proto. ">
<polygon fill="#ffffff" stroke="#000000" points="214.5562,-74.5 214.5562,-92.5 350.0386,-92.5 350.0386,-74.5 214.5562,-74.5"/>
<text text-anchor="middle" x="282.2974" y="-80.5" font-family="Helvetica,sans-Serif" font-size="10.00" fill="#000000">NAMON::Netflow::getProto</text>
</a>
</g>
</g>
<!-- Node24&#45;&gt;Node26 -->
<g id="edge2" class="edge">
<title>Node24&#45;&gt;Node26</title>
<path fill="none" stroke="#191970" d="M169.6412,-72.668C181.0938,-73.7692 192.7998,-74.8947 204.1271,-75.9838"/>
<polygon fill="#191970" stroke="#191970" points="204.116,-79.4988 214.4051,-76.9721 204.786,-72.531 204.116,-79.4988"/>
</g>
<!-- Node27 -->
<g id="node4" class="node">
<title>Node27</title>
<g id="a_node4"><a xlink:href="class_n_a_m_o_n_1_1_netflow.xhtml#a30554593d83f2f2a071b19d63ba79cc2" target="_top" xlink:title="Get method for NAMON::Netflow::ipVersion. ">
<polygon fill="#ffffff" stroke="#000000" points="205.6572,-37.5 205.6572,-55.5 358.9375,-55.5 358.9375,-37.5 205.6572,-37.5"/>
<text text-anchor="middle" x="282.2974" y="-43.5" font-family="Helvetica,sans-Serif" font-size="10.00" fill="#000000">NAMON::Netflow::getIpVersion</text>
</a>
</g>
</g>
<!-- Node24&#45;&gt;Node27 -->
<g id="edge3" class="edge">
<title>Node24&#45;&gt;Node27</title>
<path fill="none" stroke="#191970" d="M169.6412,-56.7619C178.2123,-55.9812 186.9253,-55.1875 195.5152,-54.405"/>
<polygon fill="#191970" stroke="#191970" points="195.8854,-57.8859 205.5267,-53.4931 195.2504,-50.9148 195.8854,-57.8859"/>
</g>
<!-- Node28 -->
<g id="node5" class="node">
<title>Node28</title>
<g id="a_node5"><a xlink:href="class_n_a_m_o_n_1_1_netflow.xhtml#af02ec690b9b87a91d4eb25204bb6d1ff" target="_top" xlink:title="Get method for NAMON::Netflow::localIp. ">
<polygon fill="#ffffff" stroke="#000000" points="210.3838,-.5 210.3838,-18.5 354.2109,-18.5 354.2109,-.5 210.3838,-.5"/>
<text text-anchor="middle" x="282.2974" y="-6.5" font-family="Helvetica,sans-Serif" font-size="10.00" fill="#000000">NAMON::Netflow::getLocalIp</text>
</a>
</g>
</g>
<!-- Node24&#45;&gt;Node28 -->
<g id="edge4" class="edge">
<title>Node24&#45;&gt;Node28</title>
<path fill="none" stroke="#191970" d="M113.8461,-55.379C138.2214,-47.8555 173.95,-37.0654 205.3838,-28.5 214.7406,-25.9504 224.7777,-23.3639 234.4106,-20.9543"/>
<polygon fill="#191970" stroke="#191970" points="235.3916,-24.3172 244.2573,-18.5162 233.7092,-17.5224 235.3916,-24.3172"/>
</g>
</g>
</svg>
