<?xml version="1.0" encoding="UTF-8" standalone="no"?>
<!DOCTYPE svg PUBLIC "-//W3C//DTD SVG 1.1//EN"
 "http://www.w3.org/Graphics/SVG/1.1/DTD/svg11.dtd">
<!-- Generated by graphviz version 2.40.1 (20161225.0304)
 -->
<!-- Title: NAMON::TTree::levelCompare Pages: 1 -->
<svg width="350pt" height="138pt"
 viewBox="0.00 0.00 350.16 138.00" xmlns="http://www.w3.org/2000/svg" xmlns:xlink="http://www.w3.org/1999/xlink">
<g id="graph0" class="graph" transform="scale(1 1) rotate(0) translate(4 134)">
<title>NAMON::TTree::levelCompare</title>
<polygon fill="#ffffff" stroke="transparent" points="-4,4 -4,-134 346.1602,-134 346.1602,4 -4,4"/>
<!-- Node14 -->
<g id="node1" class="node">
<title>Node14</title>
<polygon fill="#bfbfbf" stroke="#000000" points="0,-55.5 0,-73.5 152.333,-73.5 152.333,-55.5 0,-55.5"/>
<text text-anchor="middle" x="76.1665" y="-61.5" font-family="Helvetica,sans-Serif" font-size="10.00" fill="#000000">NAMON::TTree::levelCompare</text>
</g>
<!-- Node15 -->
<g id="node2" class="node">
<title>Node15</title>
<g id="a_node2"><a xlink:href="class_n_a_m_o_n_1_1_netflow.xhtml#af4e590a380d12a01491b911ff7ba2c37" target="_top" xlink:title="Get method for NAMON::Netflow::localPort. ">
<polygon fill="#ffffff" stroke="#000000" points="188.333,-111.5 188.333,-129.5 342.1602,-129.5 342.1602,-111.5 188.333,-111.5"/>
<text text-anchor="middle" x="265.2466" y="-117.5" font-family="Helvetica,sans-Serif" font-size="10.00" fill="#000000">NAMON::Netflow::getLocalPort</text>
</a>
</g>
</g>
<!-- Node14&#45;&gt;Node15 -->
<g id="edge1" class="edge">
<title>Node14&#45;&gt;Node15</title>
<path fill="none" stroke="#191970" d="M100.8972,-73.6483C123.4815,-81.8177 157.8878,-93.8024 188.333,-102.5 196.389,-104.8014 204.9804,-107.0296 213.3927,-109.0883"/>
<polygon fill="#191970" stroke="#191970" points="212.6031,-112.4981 223.1431,-111.4215 214.2322,-105.6903 212.6031,-112.4981"/>
</g>
<!-- Node16 -->
<g id="node3" class="node">
<title>Node16</title>
<g id="a_node3"><a xlink:href="class_n_a_m_o_n_1_1_netflow.xhtml#acd9ecb6f7bac62db7294f5dd76094b38" target="_top" xlink:title="Get method for NAMON::Netflow::proto. ">
<polygon fill="#ffffff" stroke="#000000" points="197.5054,-74.5 197.5054,-92.5 332.9878,-92.5 332.9878,-74.5 197.5054,-74.5"/>
<text text-anchor="middle" x="265.2466" y="-80.5" font-family="Helvetica,sans-Serif" font-size="10.00" fill="#000000">NAMON::Netflow::getProto</text>
</a>
</g>
</g>
<!-- Node14&#45;&gt;Node16 -->
<g id="edge2" class="edge">
<title>Node14&#45;&gt;Node16</title>
<path fill="none" stroke="#191970" d="M152.5276,-72.1733C164.0221,-73.3283 175.8892,-74.5208 187.4141,-75.6789"/>
<polygon fill="#191970" stroke="#191970" points="187.1362,-79.1685 197.436,-76.686 187.8361,-72.2036 187.1362,-79.1685"/>
</g>
<!-- Node17 -->
<g id="node4" class="node">
<title>Node17</title>
<g id="a_node4"><a xlink:href="class_n_a_m_o_n_1_1_netflow.xhtml#a30554593d83f2f2a071b19d63ba79cc2" target="_top" xlink:title="Get method for NAMON::Netflow::ipVersion. ">
<polygon fill="#ffffff" stroke="#000000" points="188.6064,-37.5 188.6064,-55.5 341.8867,-55.5 341.8867,-37.5 188.6064,-37.5"/>
<text text-anchor="middle" x="265.2466" y="-43.5" font-family="Helvetica,sans-Serif" font-size="10.00" fill="#000000">NAMON::Netflow::getIpVersion</text>
</a>
</g>
</g>
<!-- Node14&#45;&gt;Node17 -->
<g id="edge3" class="edge">
<title>Node14&#45;&gt;Node17</title>
<path fill="none" stroke="#191970" d="M152.5276,-57.2306C161.073,-56.4171 169.8243,-55.584 178.4879,-54.7592"/>
<polygon fill="#191970" stroke="#191970" points="178.977,-58.2286 188.6003,-53.7966 178.3136,-51.2601 178.977,-58.2286"/>
</g>
<!-- Node18 -->
<g id="node5" class="node">
<title>Node18</title>
<g id="a_node5"><a xlink:href="class_n_a_m_o_n_1_1_netflow.xhtml#af02ec690b9b87a91d4eb25204bb6d1ff" target="_top" xlink:title="Get method for NAMON::Netflow::localIp. ">
<polygon fill="#ffffff" stroke="#000000" points="193.333,-.5 193.333,-18.5 337.1602,-18.5 337.1602,-.5 193.333,-.5"/>
<text text-anchor="middle" x="265.2466" y="-6.5" font-family="Helvetica,sans-Serif" font-size="10.00" fill="#000000">NAMON::Netflow::getLocalIp</text>
</a>
</g>
</g>
<!-- Node14&#45;&gt;Node18 -->
<g id="edge4" class="edge">
<title>Node14&#45;&gt;Node18</title>
<path fill="none" stroke="#191970" d="M102.7531,-55.4005C125.3829,-47.7918 158.8196,-36.871 188.333,-28.5 197.3704,-25.9367 207.0599,-23.3888 216.4105,-21.0305"/>
<polygon fill="#191970" stroke="#191970" points="217.5159,-24.3623 226.3768,-18.5542 215.8279,-17.5689 217.5159,-24.3623"/>
</g>
</g>
</svg>
