<?xml version="1.0" encoding="UTF-8" standalone="no"?>
<!DOCTYPE svg PUBLIC "-//W3C//DTD SVG 1.1//EN"
 "http://www.w3.org/Graphics/SVG/1.1/DTD/svg11.dtd">
<!-- Generated by graphviz version 2.40.1 (20161225.0304)
 -->
<!-- Title: TOOL::TEntryOrTTree::setLevel Pages: 1 -->
<svg width="408pt" height="51pt"
 viewBox="0.00 0.00 407.91 51.00" xmlns="http://www.w3.org/2000/svg" xmlns:xlink="http://www.w3.org/1999/xlink">
<g id="graph0" class="graph" transform="scale(1 1) rotate(0) translate(4 47)">
<title>TOOL::TEntryOrTTree::setLevel</title>
<polygon fill="#ffffff" stroke="transparent" points="-4,4 -4,-47 403.9121,-47 403.9121,4 -4,4"/>
<!-- Node11 -->
<g id="node1" class="node">
<title>Node11</title>
<polygon fill="#bfbfbf" stroke="#000000" points="0,-.5 0,-28.5 115.4678,-28.5 115.4678,-.5 0,-.5"/>
<text text-anchor="start" x="8" y="-16.5" font-family="Helvetica,sans-Serif" font-size="10.00" fill="#000000">TOOL::TEntryOrTTree</text>
<text text-anchor="middle" x="57.7339" y="-6.5" font-family="Helvetica,sans-Serif" font-size="10.00" fill="#000000">::setLevel</text>
</g>
<!-- Node12 -->
<g id="node2" class="node">
<title>Node12</title>
<g id="a_node2"><a xlink:href="class_t_o_o_l_1_1_t_tree.xhtml#a16d14c1d6d1c451e569a3e0b5e459248" target="_top" xlink:title="Function inserts a new TEntry into a decision tree. ">
<polygon fill="#ffffff" stroke="#000000" points="151.4678,-24.5 151.4678,-42.5 256.3887,-42.5 256.3887,-24.5 151.4678,-24.5"/>
<text text-anchor="middle" x="203.9282" y="-30.5" font-family="Helvetica,sans-Serif" font-size="10.00" fill="#000000">TOOL::TTree::insert</text>
</a>
</g>
</g>
<!-- Node11&#45;&gt;Node12 -->
<g id="edge1" class="edge">
<title>Node11&#45;&gt;Node12</title>
<path fill="none" stroke="#191970" d="M125.5837,-23.318C134.2252,-24.4411 142.9649,-25.577 151.3165,-26.6624"/>
<polygon fill="#191970" stroke="#191970" points="125.8815,-19.8274 115.5138,-22.0093 124.9793,-26.769 125.8815,-19.8274"/>
</g>
<!-- Node13 -->
<g id="node3" class="node">
<title>Node13</title>
<g id="a_node3"><a xlink:href="class_t_o_o_l_1_1_cache.xhtml#a5936010932979fe258f3e501b5aec703" target="_top" xlink:title="Function inserts new TEntry into the TTree node. ">
<polygon fill="#ffffff" stroke="#000000" points="292.3887,-5.5 292.3887,-23.5 399.9121,-23.5 399.9121,-5.5 292.3887,-5.5"/>
<text text-anchor="middle" x="346.1504" y="-11.5" font-family="Helvetica,sans-Serif" font-size="10.00" fill="#000000">TOOL::Cache::insert</text>
</a>
</g>
</g>
<!-- Node11&#45;&gt;Node13 -->
<g id="edge3" class="edge">
<title>Node11&#45;&gt;Node13</title>
<path fill="none" stroke="#191970" d="M125.9837,-14.5C176.7601,-14.5 245.119,-14.5 292.1242,-14.5"/>
<polygon fill="#191970" stroke="#191970" points="125.7524,-11.0001 115.7523,-14.5 125.7523,-18.0001 125.7524,-11.0001"/>
</g>
<!-- Node12&#45;&gt;Node13 -->
<g id="edge2" class="edge">
<title>Node12&#45;&gt;Node13</title>
<path fill="none" stroke="#191970" d="M266.5039,-25.1403C275.1337,-23.9874 283.9337,-22.8118 292.3855,-21.6827"/>
<polygon fill="#191970" stroke="#191970" points="265.9309,-21.6856 256.4824,-26.4791 266.8579,-28.624 265.9309,-21.6856"/>
</g>
</g>
</svg>
