<?xml version="1.0" encoding="UTF-8" standalone="no"?>
<!DOCTYPE svg PUBLIC "-//W3C//DTD SVG 1.1//EN"
 "http://www.w3.org/Graphics/SVG/1.1/DTD/svg11.dtd">
<!-- Generated by graphviz version 2.40.1 (20161225.0304)
 -->
<!-- Title: NAMON::TEntry::getAppName Pages: 1 -->
<svg width="344pt" height="64pt"
 viewBox="0.00 0.00 343.86 64.00" xmlns="http://www.w3.org/2000/svg" xmlns:xlink="http://www.w3.org/1999/xlink">
<g id="graph0" class="graph" transform="scale(1 1) rotate(0) translate(4 60)">
<title>NAMON::TEntry::getAppName</title>
<polygon fill="#ffffff" stroke="transparent" points="-4,4 -4,-60 339.8613,-60 339.8613,4 -4,4"/>
<!-- Node3 -->
<g id="node1" class="node">
<title>Node3</title>
<polygon fill="#bfbfbf" stroke="#000000" points="0,-18.5 0,-36.5 152.1523,-36.5 152.1523,-18.5 0,-18.5"/>
<text text-anchor="middle" x="76.0762" y="-24.5" font-family="Helvetica,sans-Serif" font-size="10.00" fill="#000000">NAMON::TEntry::getAppName</text>
</g>
<!-- Node4 -->
<g id="node2" class="node">
<title>Node4</title>
<g id="a_node2"><a xlink:href="class_n_a_m_o_n_1_1_t_tree.xhtml#a815d4775fee5298d82e628138bb2b547" target="_top" xlink:title="Finds invalid entries and saves them in g_finalResults. ">
<polygon fill="#ffffff" stroke="#000000" points="189.4536,-37.5 189.4536,-55.5 334.5601,-55.5 334.5601,-37.5 189.4536,-37.5"/>
<text text-anchor="middle" x="262.0068" y="-43.5" font-family="Helvetica,sans-Serif" font-size="10.00" fill="#000000">NAMON::TTree::saveResults</text>
</a>
</g>
</g>
<!-- Node3&#45;&gt;Node4 -->
<g id="edge1" class="edge">
<title>Node3&#45;&gt;Node4</title>
<path fill="none" stroke="#191970" d="M162.3463,-36.3158C171.3474,-37.2356 180.4325,-38.164 189.262,-39.0663"/>
<polygon fill="#191970" stroke="#191970" points="162.5418,-32.8177 152.2378,-35.2828 161.8301,-39.7814 162.5418,-32.8177"/>
</g>
<!-- Node5 -->
<g id="node3" class="node">
<title>Node5</title>
<g id="a_node3"><a xlink:href="class_n_a_m_o_n_1_1_cache.xhtml#a6167f2cdef0bb0bcc1e7239efb3caff7" target="_top" xlink:title="Finds expired entries and saves them in g_finalResults. ">
<polygon fill="#ffffff" stroke="#000000" points="188.1523,-.5 188.1523,-18.5 335.8613,-18.5 335.8613,-.5 188.1523,-.5"/>
<text text-anchor="middle" x="262.0068" y="-6.5" font-family="Helvetica,sans-Serif" font-size="10.00" fill="#000000">NAMON::Cache::saveResults</text>
</a>
</g>
</g>
<!-- Node3&#45;&gt;Node5 -->
<g id="edge2" class="edge">
<title>Node3&#45;&gt;Node5</title>
<path fill="none" stroke="#191970" d="M162.294,-19.1532C170.906,-18.3195 179.5956,-17.4783 188.0651,-16.6583"/>
<polygon fill="#191970" stroke="#191970" points="161.8539,-15.6794 152.2378,-20.1268 162.5285,-22.6468 161.8539,-15.6794"/>
</g>
</g>
</svg>
