<?xml version="1.0" encoding="UTF-8" standalone="no"?>
<!DOCTYPE svg PUBLIC "-//W3C//DTD SVG 1.1//EN"
 "http://www.w3.org/Graphics/SVG/1.1/DTD/svg11.dtd">
<!-- Generated by graphviz version 2.40.1 (20161225.0304)
 -->
<!-- Title: TOOL::Netflow::getLocalIp Pages: 1 -->
<svg width="480pt" height="101pt"
 viewBox="0.00 0.00 480.39 101.00" xmlns="http://www.w3.org/2000/svg" xmlns:xlink="http://www.w3.org/1999/xlink">
<g id="graph0" class="graph" transform="scale(1 1) rotate(0) translate(4 97)">
<title>TOOL::Netflow::getLocalIp</title>
<polygon fill="#ffffff" stroke="transparent" points="-4,4 -4,-97 476.3926,-97 476.3926,4 -4,4"/>
<!-- Node9 -->
<g id="node1" class="node">
<title>Node9</title>
<polygon fill="#bfbfbf" stroke="#000000" points="0,-37.5 0,-55.5 133.6563,-55.5 133.6563,-37.5 0,-37.5"/>
<text text-anchor="middle" x="66.8281" y="-43.5" font-family="Helvetica,sans-Serif" font-size="10.00" fill="#000000">TOOL::Netflow::getLocalIp</text>
</g>
<!-- Node10 -->
<g id="node2" class="node">
<title>Node10</title>
<g id="a_node2"><a xlink:href="class_t_o_o_l_1_1_t_entry.xhtml#a6a286dc8f1ab0e592932115a6f3e60f4" target="_top" xlink:title="Compares values important at a specific #TOOL::TreeLevel. ">
<polygon fill="#ffffff" stroke="#000000" points="176.6094,-74.5 176.6094,-92.5 321.916,-92.5 321.916,-74.5 176.6094,-74.5"/>
<text text-anchor="middle" x="249.2627" y="-80.5" font-family="Helvetica,sans-Serif" font-size="10.00" fill="#000000">TOOL::TEntry::levelCompare</text>
</a>
</g>
</g>
<!-- Node9&#45;&gt;Node10 -->
<g id="edge1" class="edge">
<title>Node9&#45;&gt;Node10</title>
<path fill="none" stroke="#191970" d="M121.3927,-57.5664C148.0187,-62.9665 179.6424,-69.3801 204.7791,-74.4782"/>
<polygon fill="#191970" stroke="#191970" points="121.9528,-54.1088 111.4566,-55.5512 120.5614,-60.9691 121.9528,-54.1088"/>
</g>
<!-- Node11 -->
<g id="node3" class="node">
<title>Node11</title>
<g id="a_node3"><a xlink:href="class_t_o_o_l_1_1_t_tree.xhtml#a82dde6ad8b94ec9b2d60ecb57dc6276c" target="_top" xlink:title="Set method for TOOL::TTree::cv union. ">
<polygon fill="#ffffff" stroke="#000000" points="169.6563,-37.5 169.6563,-55.5 328.8691,-55.5 328.8691,-37.5 169.6563,-37.5"/>
<text text-anchor="middle" x="249.2627" y="-43.5" font-family="Helvetica,sans-Serif" font-size="10.00" fill="#000000">TOOL::TTree::setCommonValue</text>
</a>
</g>
</g>
<!-- Node9&#45;&gt;Node11 -->
<g id="edge2" class="edge">
<title>Node9&#45;&gt;Node11</title>
<path fill="none" stroke="#191970" d="M143.8992,-46.5C152.3244,-46.5 160.9146,-46.5 169.3728,-46.5"/>
<polygon fill="#191970" stroke="#191970" points="143.7241,-43.0001 133.7241,-46.5 143.7241,-50.0001 143.7241,-43.0001"/>
</g>
<!-- Node13 -->
<g id="node5" class="node">
<title>Node13</title>
<g id="a_node5"><a xlink:href="class_t_o_o_l_1_1_t_tree.xhtml#ade063acb83e5a7fe144fbee267fe5164" target="_top" xlink:title="Compares values important at a specific #TOOL::TreeLevel. ">
<polygon fill="#ffffff" stroke="#000000" points="178.1816,-.5 178.1816,-18.5 320.3438,-18.5 320.3438,-.5 178.1816,-.5"/>
<text text-anchor="middle" x="249.2627" y="-6.5" font-family="Helvetica,sans-Serif" font-size="10.00" fill="#000000">TOOL::TTree::levelCompare</text>
</a>
</g>
</g>
<!-- Node9&#45;&gt;Node13 -->
<g id="edge4" class="edge">
<title>Node9&#45;&gt;Node13</title>
<path fill="none" stroke="#191970" d="M121.3927,-35.4336C148.0187,-30.0335 179.6424,-23.6199 204.7791,-18.5218"/>
<polygon fill="#191970" stroke="#191970" points="120.5614,-32.0309 111.4566,-37.4488 121.9528,-38.8912 120.5614,-32.0309"/>
</g>
<!-- Node12 -->
<g id="node4" class="node">
<title>Node12</title>
<g id="a_node4"><a xlink:href="class_t_o_o_l_1_1_cache.xhtml#a5936010932979fe258f3e501b5aec703" target="_top" xlink:title="Function inserts new TEntry into the TTree node. ">
<polygon fill="#ffffff" stroke="#000000" points="364.8691,-37.5 364.8691,-55.5 472.3926,-55.5 472.3926,-37.5 364.8691,-37.5"/>
<text text-anchor="middle" x="418.6309" y="-43.5" font-family="Helvetica,sans-Serif" font-size="10.00" fill="#000000">TOOL::Cache::insert</text>
</a>
</g>
</g>
<!-- Node11&#45;&gt;Node12 -->
<g id="edge3" class="edge">
<title>Node11&#45;&gt;Node12</title>
<path fill="none" stroke="#191970" d="M339.1324,-46.5C347.7646,-46.5 356.3248,-46.5 364.4522,-46.5"/>
<polygon fill="#191970" stroke="#191970" points="338.9874,-43.0001 328.9873,-46.5 338.9873,-50.0001 338.9874,-43.0001"/>
</g>
</g>
</svg>
