<?xml version="1.0" encoding="UTF-8" standalone="no"?>
<!DOCTYPE svg PUBLIC "-//W3C//DTD SVG 1.1//EN"
 "http://www.w3.org/Graphics/SVG/1.1/DTD/svg11.dtd">
<!-- Generated by graphviz version 2.40.1 (20161225.0304)
 -->
<!-- Title: NAMON::Netflow::getLocalPort Pages: 1 -->
<!--zoomable 177 -->
<svg id="main" version="1.1" xmlns="http://www.w3.org/2000/svg" xmlns:xlink="http://www.w3.org/1999/xlink" xml:space="preserve" onload="init(evt)">
<style type="text/css"><![CDATA[
.edge:hover path { stroke: red; }
.edge:hover polygon { stroke: red; fill: red; }
]]></style>
<script type="text/javascript"><![CDATA[
var edges = document.getElementsByTagName('g');
if (edges && edges.length) {
  for (var i=0;i<edges.length;i++) {
    if (edges[i].id.substr(0,4)=='edge') {
      edges[i].setAttribute('class','edge');
    }
  }
}
]]></script>
        <defs>
                <circle id="rim" cx="0" cy="0" r="7"/>
                <circle id="rim2" cx="0" cy="0" r="3.5"/>
                <g id="zoomPlus">
                        <use xlink:href="#rim" fill="#404040">
                                <set attributeName="fill" to="#808080" begin="zoomplus.mouseover" end="zoomplus.mouseout"/>
                        </use>
                        <path d="M-4,0h8M0,-4v8" fill="none" stroke="white" stroke-width="1.5" pointer-events="none"/>
                </g>
                <g id="zoomMin">
                        <use xlink:href="#rim" fill="#404040">
                                <set attributeName="fill" to="#808080" begin="zoomminus.mouseover" end="zoomminus.mouseout"/>
                        </use>
                        <path d="M-4,0h8" fill="none" stroke="white" stroke-width="1.5" pointer-events="none"/>
                </g>
                <g id="dirArrow">
                        <path fill="none" stroke="white" stroke-width="1.5" d="M0,-3.0v7 M-2.5,-0.5L0,-3.0L2.5,-0.5"/>
                </g>
               <g id="resetDef">
                       <use xlink:href="#rim2" fill="#404040">
                               <set attributeName="fill" to="#808080" begin="reset.mouseover" end="reset.mouseout"/>
                       </use>
               </g>
        </defs>

<script type="text/javascript">
var viewWidth = 521;
var viewHeight = 177;
var sectionId = 'dynsection-2';
</script>
<script xlink:href="svgpan.js"/>
<svg id="graph" class="graph">
<g id="viewport">
<title>NAMON::Netflow::getLocalPort</title>
<polygon fill="#ffffff" stroke="transparent" points="-4,4 -4,-173 516.9053,-173 516.9053,4 -4,4"/>
<!-- Node15 -->
<g id="node1" class="node">
<title>Node15</title>
<polygon fill="#bfbfbf" stroke="#000000" points="0,-75.5 0,-93.5 153.8271,-93.5 153.8271,-75.5 0,-75.5"/>
<text text-anchor="middle" x="76.9136" y="-81.5" font-family="Helvetica,sans-Serif" font-size="10.00" fill="#000000">NAMON::Netflow::getLocalPort</text>
</g>
<!-- Node16 -->
<g id="node2" class="node">
<title>Node16</title>
<g id="a_node2"><a xlink:href="class_n_a_m_o_n_1_1_t_entry.xhtml#a9faba1b923d35a52c53bf7f7a76f7a32" target="_top" xlink:title="Compares values important at a specific #NAMON::TreeLevel. ">
<polygon fill="#ffffff" stroke="#000000" points="196.7803,-150.5 196.7803,-168.5 352.2578,-168.5 352.2578,-150.5 196.7803,-150.5"/>
<text text-anchor="middle" x="274.519" y="-156.5" font-family="Helvetica,sans-Serif" font-size="10.00" fill="#000000">NAMON::TEntry::levelCompare</text>
</a>
</g>
</g>
<!-- Node15&#45;&gt;Node16 -->
<g id="edge1" class="edge">
<title>Node15&#45;&gt;Node16</title>
<path fill="none" stroke="#191970" d="M100.4566,-98.6528C122.7653,-111.5076 157.566,-130.1441 189.8271,-141.5 199.8943,-145.0436 210.8918,-148.0062 221.5292,-150.4374"/>
<polygon fill="#191970" stroke="#191970" points="102.1037,-95.5615 91.7044,-93.5357 98.5706,-101.6045 102.1037,-95.5615"/>
</g>
<!-- Node17 -->
<g id="node3" class="node">
<title>Node17</title>
<g id="a_node3"><a xlink:href="class_n_a_m_o_n_1_1_t_tree.xhtml#a4e9f8f0a46da002c0836ca5a15526a59" target="_top" xlink:title="Set method for NAMON::TTree::cv union. ">
<polygon fill="#ffffff" stroke="#000000" points="189.8271,-113.5 189.8271,-131.5 359.2109,-131.5 359.2109,-113.5 189.8271,-113.5"/>
<text text-anchor="middle" x="274.519" y="-119.5" font-family="Helvetica,sans-Serif" font-size="10.00" fill="#000000">NAMON::TTree::setCommonValue</text>
</a>
</g>
</g>
<!-- Node15&#45;&gt;Node17 -->
<g id="edge2" class="edge">
<title>Node15&#45;&gt;Node17</title>
<path fill="none" stroke="#191970" d="M133.5884,-95.3987C163.3903,-101.1297 199.4842,-108.0706 227.6834,-113.4934"/>
<polygon fill="#191970" stroke="#191970" points="134.2244,-91.9569 123.7433,-93.5055 132.9024,-98.831 134.2244,-91.9569"/>
</g>
<!-- Node18 -->
<g id="node4" class="node">
<title>Node18</title>
<g id="a_node4"><a xlink:href="class_n_a_m_o_n_1_1_cache.xhtml#a7a097b6420be4d276bca506ff7ffe6bb" target="_top" xlink:title="Function inserts new TEntry into the TTree node. ">
<polygon fill="#ffffff" stroke="#000000" points="395.2109,-94.5 395.2109,-112.5 512.9053,-112.5 512.9053,-94.5 395.2109,-94.5"/>
<text text-anchor="middle" x="454.0581" y="-100.5" font-family="Helvetica,sans-Serif" font-size="10.00" fill="#000000">NAMON::Cache::insert</text>
</a>
</g>
</g>
<!-- Node15&#45;&gt;Node18 -->
<g id="edge6" class="edge">
<title>Node15&#45;&gt;Node18</title>
<path fill="none" stroke="#191970" d="M164.4022,-88.9075C235.3086,-92.4797 333.2835,-97.4155 395.1527,-100.5324"/>
<polygon fill="#191970" stroke="#191970" points="164.3079,-85.3985 154.1445,-88.3908 163.9557,-92.3896 164.3079,-85.3985"/>
</g>
<!-- Node19 -->
<g id="node5" class="node">
<title>Node19</title>
<g id="a_node5"><a xlink:href="class_n_a_m_o_n_1_1_t_tree.xhtml#a9d653ac69fd4e434543f99c77af734b7" target="_top" xlink:title="Compares values important at a specific #NAMON::TreeLevel. ">
<polygon fill="#ffffff" stroke="#000000" points="198.3525,-37.5 198.3525,-55.5 350.6855,-55.5 350.6855,-37.5 198.3525,-37.5"/>
<text text-anchor="middle" x="274.519" y="-43.5" font-family="Helvetica,sans-Serif" font-size="10.00" fill="#000000">NAMON::TTree::levelCompare</text>
</a>
</g>
</g>
<!-- Node15&#45;&gt;Node19 -->
<g id="edge4" class="edge">
<title>Node15&#45;&gt;Node19</title>
<path fill="none" stroke="#191970" d="M133.5884,-73.6013C163.3903,-67.8703 199.4842,-60.9294 227.6834,-55.5066"/>
<polygon fill="#191970" stroke="#191970" points="132.9024,-70.169 123.7433,-75.4945 134.2244,-77.0431 132.9024,-70.169"/>
</g>
<!-- Node20 -->
<g id="node6" class="node">
<title>Node20</title>
<g id="a_node6"><a xlink:href="class_n_a_m_o_n_1_1_cache.xhtml#a96a1eeb67705d385c22a8921410af3a6" target="_top" xlink:title="Function finds a Netflow record in a cache. ">
<polygon fill="#ffffff" stroke="#000000" points="219.8369,-.5 219.8369,-18.5 329.2012,-18.5 329.2012,-.5 219.8369,-.5"/>
<text text-anchor="middle" x="274.519" y="-6.5" font-family="Helvetica,sans-Serif" font-size="10.00" fill="#000000">NAMON::Cache::find</text>
</a>
</g>
</g>
<!-- Node15&#45;&gt;Node20 -->
<g id="edge5" class="edge">
<title>Node15&#45;&gt;Node20</title>
<path fill="none" stroke="#191970" d="M100.8979,-70.4875C123.2645,-57.9386 157.8843,-39.819 189.8271,-28.5 200.9059,-24.5742 213.0959,-21.2768 224.6914,-18.5894"/>
<polygon fill="#191970" stroke="#191970" points="99.0677,-67.5019 92.106,-75.4884 102.5287,-73.5864 99.0677,-67.5019"/>
</g>
<!-- Node17&#45;&gt;Node18 -->
<g id="edge3" class="edge">
<title>Node17&#45;&gt;Node18</title>
<path fill="none" stroke="#191970" d="M369.4918,-112.4494C378.1701,-111.531 386.7833,-110.6195 395.0056,-109.7493"/>
<polygon fill="#191970" stroke="#191970" points="368.87,-108.9955 359.2939,-113.5286 369.6068,-115.9567 368.87,-108.9955"/>
</g>
</g>
</svg>
        <g id="navigator" transform="translate(0 0)" fill="#404254">
                <rect fill="#f2f5e9" fill-opacity="0.5" stroke="#606060" stroke-width=".5" x="0" y="0" width="60" height="60"/>
                <use id="zoomplus" xlink:href="#zoomPlus" x="17" y="9" onmousedown="handleZoom(evt,'in')"/>
                <use id="zoomminus" xlink:href="#zoomMin" x="42" y="9" onmousedown="handleZoom(evt,'out')"/>
                <use id="reset" xlink:href="#resetDef" x="30" y="36" onmousedown="handleReset()"/>
                <g id="arrowUp" xlink:href="#dirArrow" transform="translate(30 24)" onmousedown="handlePan(0,-1)">
                  <use xlink:href="#rim" fill="#404040">
                        <set attributeName="fill" to="#808080" begin="arrowUp.mouseover" end="arrowUp.mouseout"/>
                  </use>
                  <path fill="none" stroke="white" stroke-width="1.5" d="M0,-3.0v7 M-2.5,-0.5L0,-3.0L2.5,-0.5"/>
                </g>
                <g id="arrowRight" xlink:href="#dirArrow" transform="rotate(90) translate(36 -43)" onmousedown="handlePan(1,0)">
                  <use xlink:href="#rim" fill="#404040">
                        <set attributeName="fill" to="#808080" begin="arrowRight.mouseover" end="arrowRight.mouseout"/>
                  </use>
                  <path fill="none" stroke="white" stroke-width="1.5" d="M0,-3.0v7 M-2.5,-0.5L0,-3.0L2.5,-0.5"/>
                </g>
                <g id="arrowDown" xlink:href="#dirArrow" transform="rotate(180) translate(-30 -48)" onmousedown="handlePan(0,1)">
                  <use xlink:href="#rim" fill="#404040">
                        <set attributeName="fill" to="#808080" begin="arrowDown.mouseover" end="arrowDown.mouseout"/>
                  </use>
                  <path fill="none" stroke="white" stroke-width="1.5" d="M0,-3.0v7 M-2.5,-0.5L0,-3.0L2.5,-0.5"/>
                </g>
                <g id="arrowLeft" xlink:href="#dirArrow" transform="rotate(270) translate(-36 17)" onmousedown="handlePan(-1,0)">
                  <use xlink:href="#rim" fill="#404040">
                        <set attributeName="fill" to="#808080" begin="arrowLeft.mouseover" end="arrowLeft.mouseout"/>
                  </use>
                  <path fill="none" stroke="white" stroke-width="1.5" d="M0,-3.0v7 M-2.5,-0.5L0,-3.0L2.5,-0.5"/>
                </g>
        </g>
        <svg viewBox="0 0 15 15" width="100%" height="30px" preserveAspectRatio="xMaxYMin meet">
         <g id="arrow_out" transform="scale(0.3 0.3)">
          <a xlink:href="class_n_a_m_o_n_1_1_netflow_af4e590a380d12a01491b911ff7ba2c37_icgraph_org.svg" target="_base">
           <rect id="button" ry="5" rx="5" y="6" x="6" height="38" width="38"
                fill="#f2f5e9" fill-opacity="0.5" stroke="#606060" stroke-width="1.0"/>
           <path id="arrow"
             d="M 11.500037,31.436501 C 11.940474,20.09759 22.043105,11.32322 32.158766,21.979434 L 37.068811,17.246167 C 37.068811,17.246167 37.088388,32 37.088388,32 L 22.160133,31.978069 C 22.160133,31.978069 26.997745,27.140456 26.997745,27.140456 C 18.528582,18.264221 13.291696,25.230495 11.500037,31.436501 z"
             style="fill:#404040;"/>
          </a>
         </g>
        </svg>
</svg>
