<?xml version="1.0" encoding="UTF-8" standalone="no"?>
<!DOCTYPE svg PUBLIC "-//W3C//DTD SVG 1.1//EN"
 "http://www.w3.org/Graphics/SVG/1.1/DTD/svg11.dtd">
<!-- Generated by graphviz version 2.40.1 (20161225.0304)
 -->
<!-- Title: NAMON::TTree::saveResults Pages: 1 -->
<svg width="343pt" height="64pt"
 viewBox="0.00 0.00 342.91 64.00" xmlns="http://www.w3.org/2000/svg" xmlns:xlink="http://www.w3.org/1999/xlink">
<g id="graph0" class="graph" transform="scale(1 1) rotate(0) translate(4 60)">
<title>NAMON::TTree::saveResults</title>
<polygon fill="#ffffff" stroke="transparent" points="-4,4 -4,-60 338.9141,-60 338.9141,4 -4,4"/>
<!-- Node20 -->
<g id="node1" class="node">
<title>Node20</title>
<polygon fill="#bfbfbf" stroke="#000000" points="0,-18.5 0,-36.5 145.1064,-36.5 145.1064,-18.5 0,-18.5"/>
<text text-anchor="middle" x="72.5532" y="-24.5" font-family="Helvetica,sans-Serif" font-size="10.00" fill="#000000">NAMON::TTree::saveResults</text>
</g>
<!-- Node21 -->
<g id="node2" class="node">
<title>Node21</title>
<g id="a_node2"><a xlink:href="class_n_a_m_o_n_1_1_t_entry.xhtml#a3bddfe1a3b0489e6008e2ed90b67523f" target="_top" xlink:title="Get method for NAMON::TEntry::appName. ">
<polygon fill="#ffffff" stroke="#000000" points="181.9341,-37.5 181.9341,-55.5 334.0864,-55.5 334.0864,-37.5 181.9341,-37.5"/>
<text text-anchor="middle" x="258.0103" y="-43.5" font-family="Helvetica,sans-Serif" font-size="10.00" fill="#000000">NAMON::TEntry::getAppName</text>
</a>
</g>
</g>
<!-- Node20&#45;&gt;Node21 -->
<g id="edge1" class="edge">
<title>Node20&#45;&gt;Node21</title>
<path fill="none" stroke="#191970" d="M145.3185,-34.9548C154.0186,-35.8461 162.9649,-36.7626 171.831,-37.671"/>
<polygon fill="#191970" stroke="#191970" points="171.4849,-41.1537 181.7896,-38.6912 172.1984,-34.1902 171.4849,-41.1537"/>
</g>
<!-- Node22 -->
<g id="node3" class="node">
<title>Node22</title>
<g id="a_node3"><a xlink:href="class_n_a_m_o_n_1_1_t_entry.xhtml#af0fae8cb7b437ff71eee166b58111fa9" target="_top" xlink:title="Get method for NAMON::TEntry::n. ">
<polygon fill="#ffffff" stroke="#000000" points="181.1064,-.5 181.1064,-18.5 334.9141,-18.5 334.9141,-.5 181.1064,-.5"/>
<text text-anchor="middle" x="258.0103" y="-6.5" font-family="Helvetica,sans-Serif" font-size="10.00" fill="#000000">NAMON::TEntry::getNetflowPtr</text>
</a>
</g>
</g>
<!-- Node20&#45;&gt;Node22 -->
<g id="edge2" class="edge">
<title>Node20&#45;&gt;Node22</title>
<path fill="none" stroke="#191970" d="M145.3185,-20.4376C153.7063,-19.6235 162.3229,-18.7872 170.8758,-17.9571"/>
<polygon fill="#191970" stroke="#191970" points="171.2542,-21.4369 180.8693,-16.9871 170.5779,-14.4696 171.2542,-21.4369"/>
</g>
</g>
</svg>
