<?xml version="1.0" encoding="UTF-8" standalone="no"?>
<!DOCTYPE svg PUBLIC "-//W3C//DTD SVG 1.1//EN"
 "http://www.w3.org/Graphics/SVG/1.1/DTD/svg11.dtd">
<!-- Generated by graphviz version 2.40.1 (20161225.0304)
 -->
<!-- Title: TOOL::Netflow::getIpVersion Pages: 1 -->
<svg width="490pt" height="101pt"
 viewBox="0.00 0.00 489.85 101.00" xmlns="http://www.w3.org/2000/svg" xmlns:xlink="http://www.w3.org/1999/xlink">
<g id="graph0" class="graph" transform="scale(1 1) rotate(0) translate(4 97)">
<title>TOOL::Netflow::getIpVersion</title>
<polygon fill="#ffffff" stroke="transparent" points="-4,4 -4,-97 485.8457,-97 485.8457,4 -4,4"/>
<!-- Node3 -->
<g id="node1" class="node">
<title>Node3</title>
<polygon fill="#bfbfbf" stroke="#000000" points="0,-37.5 0,-55.5 143.1094,-55.5 143.1094,-37.5 0,-37.5"/>
<text text-anchor="middle" x="71.5547" y="-43.5" font-family="Helvetica,sans-Serif" font-size="10.00" fill="#000000">TOOL::Netflow::getIpVersion</text>
</g>
<!-- Node4 -->
<g id="node2" class="node">
<title>Node4</title>
<g id="a_node2"><a xlink:href="class_t_o_o_l_1_1_t_entry.xhtml#a6a286dc8f1ab0e592932115a6f3e60f4" target="_top" xlink:title="Compares values important at a specific #TOOL::TreeLevel. ">
<polygon fill="#ffffff" stroke="#000000" points="186.0625,-74.5 186.0625,-92.5 331.3691,-92.5 331.3691,-74.5 186.0625,-74.5"/>
<text text-anchor="middle" x="258.7158" y="-80.5" font-family="Helvetica,sans-Serif" font-size="10.00" fill="#000000">TOOL::TEntry::levelCompare</text>
</a>
</g>
</g>
<!-- Node3&#45;&gt;Node4 -->
<g id="edge1" class="edge">
<title>Node3&#45;&gt;Node4</title>
<path fill="none" stroke="#191970" d="M127.1722,-57.4951C154.5628,-62.9099 187.1782,-69.3577 213.0797,-74.4782"/>
<polygon fill="#191970" stroke="#191970" points="127.8284,-54.0571 117.3395,-55.5512 126.4708,-60.9242 127.8284,-54.0571"/>
</g>
<!-- Node5 -->
<g id="node3" class="node">
<title>Node5</title>
<g id="a_node3"><a xlink:href="class_t_o_o_l_1_1_t_tree.xhtml#a82dde6ad8b94ec9b2d60ecb57dc6276c" target="_top" xlink:title="Set method for TOOL::TTree::cv union. ">
<polygon fill="#ffffff" stroke="#000000" points="179.1094,-37.5 179.1094,-55.5 338.3223,-55.5 338.3223,-37.5 179.1094,-37.5"/>
<text text-anchor="middle" x="258.7158" y="-43.5" font-family="Helvetica,sans-Serif" font-size="10.00" fill="#000000">TOOL::TTree::setCommonValue</text>
</a>
</g>
</g>
<!-- Node3&#45;&gt;Node5 -->
<g id="edge2" class="edge">
<title>Node3&#45;&gt;Node5</title>
<path fill="none" stroke="#191970" d="M153.1385,-46.5C161.7476,-46.5 170.4943,-46.5 179.0808,-46.5"/>
<polygon fill="#191970" stroke="#191970" points="153.1134,-43.0001 143.1134,-46.5 153.1134,-50.0001 153.1134,-43.0001"/>
</g>
<!-- Node7 -->
<g id="node5" class="node">
<title>Node7</title>
<g id="a_node5"><a xlink:href="class_t_o_o_l_1_1_t_tree.xhtml#ade063acb83e5a7fe144fbee267fe5164" target="_top" xlink:title="Compares values important at a specific #TOOL::TreeLevel. ">
<polygon fill="#ffffff" stroke="#000000" points="187.6348,-.5 187.6348,-18.5 329.7969,-18.5 329.7969,-.5 187.6348,-.5"/>
<text text-anchor="middle" x="258.7158" y="-6.5" font-family="Helvetica,sans-Serif" font-size="10.00" fill="#000000">TOOL::TTree::levelCompare</text>
</a>
</g>
</g>
<!-- Node3&#45;&gt;Node7 -->
<g id="edge4" class="edge">
<title>Node3&#45;&gt;Node7</title>
<path fill="none" stroke="#191970" d="M127.1722,-35.5049C154.5628,-30.0901 187.1782,-23.6423 213.0797,-18.5218"/>
<polygon fill="#191970" stroke="#191970" points="126.4708,-32.0758 117.3395,-37.4488 127.8284,-38.9429 126.4708,-32.0758"/>
</g>
<!-- Node6 -->
<g id="node4" class="node">
<title>Node6</title>
<g id="a_node4"><a xlink:href="class_t_o_o_l_1_1_cache.xhtml#a5936010932979fe258f3e501b5aec703" target="_top" xlink:title="Function inserts new TEntry into the TTree node. ">
<polygon fill="#ffffff" stroke="#000000" points="374.3223,-37.5 374.3223,-55.5 481.8457,-55.5 481.8457,-37.5 374.3223,-37.5"/>
<text text-anchor="middle" x="428.084" y="-43.5" font-family="Helvetica,sans-Serif" font-size="10.00" fill="#000000">TOOL::Cache::insert</text>
</a>
</g>
</g>
<!-- Node5&#45;&gt;Node6 -->
<g id="edge3" class="edge">
<title>Node5&#45;&gt;Node6</title>
<path fill="none" stroke="#191970" d="M348.5855,-46.5C357.2178,-46.5 365.7779,-46.5 373.9053,-46.5"/>
<polygon fill="#191970" stroke="#191970" points="348.4405,-43.0001 338.4405,-46.5 348.4404,-50.0001 348.4405,-43.0001"/>
</g>
</g>
</svg>
