<?xml version="1.0" encoding="UTF-8" standalone="no"?>
<!DOCTYPE svg PUBLIC "-//W3C//DTD SVG 1.1//EN"
 "http://www.w3.org/Graphics/SVG/1.1/DTD/svg11.dtd">
<!-- Generated by graphviz version 2.40.1 (20161225.0304)
 -->
<!-- Title: TOOL::TTree::saveResults Pages: 1 -->
<svg width="323pt" height="64pt"
 viewBox="0.00 0.00 322.57 64.00" xmlns="http://www.w3.org/2000/svg" xmlns:xlink="http://www.w3.org/1999/xlink">
<g id="graph0" class="graph" transform="scale(1 1) rotate(0) translate(4 60)">
<title>TOOL::TTree::saveResults</title>
<polygon fill="#ffffff" stroke="transparent" points="-4,4 -4,-60 318.5723,-60 318.5723,4 -4,4"/>
<!-- Node20 -->
<g id="node1" class="node">
<title>Node20</title>
<polygon fill="#bfbfbf" stroke="#000000" points="0,-18.5 0,-36.5 134.9355,-36.5 134.9355,-18.5 0,-18.5"/>
<text text-anchor="middle" x="67.4678" y="-24.5" font-family="Helvetica,sans-Serif" font-size="10.00" fill="#000000">TOOL::TTree::saveResults</text>
</g>
<!-- Node21 -->
<g id="node2" class="node">
<title>Node21</title>
<g id="a_node2"><a xlink:href="class_t_o_o_l_1_1_t_entry.xhtml#a5975fd365fdb2faf75b93f59149f7993" target="_top" xlink:title="Get method for TOOL::TEntry::appName. ">
<polygon fill="#ffffff" stroke="#000000" points="171.7632,-37.5 171.7632,-55.5 313.7446,-55.5 313.7446,-37.5 171.7632,-37.5"/>
<text text-anchor="middle" x="242.7539" y="-43.5" font-family="Helvetica,sans-Serif" font-size="10.00" fill="#000000">TOOL::TEntry::getAppName</text>
</a>
</g>
</g>
<!-- Node20&#45;&gt;Node21 -->
<g id="edge1" class="edge">
<title>Node20&#45;&gt;Node21</title>
<path fill="none" stroke="#191970" d="M134.9872,-34.8187C143.6761,-35.7605 152.644,-36.7326 161.5236,-37.6951"/>
<polygon fill="#191970" stroke="#191970" points="161.1729,-41.1775 171.4919,-38.7756 161.9273,-34.2183 161.1729,-41.1775"/>
</g>
<!-- Node22 -->
<g id="node3" class="node">
<title>Node22</title>
<g id="a_node3"><a xlink:href="class_t_o_o_l_1_1_t_entry.xhtml#af9bb543217d0fb9d47f41bc2d086fcc8" target="_top" xlink:title="Get method for TOOL::TEntry::n. ">
<polygon fill="#ffffff" stroke="#000000" points="170.9355,-.5 170.9355,-18.5 314.5723,-18.5 314.5723,-.5 170.9355,-.5"/>
<text text-anchor="middle" x="242.7539" y="-6.5" font-family="Helvetica,sans-Serif" font-size="10.00" fill="#000000">TOOL::TEntry::getNetflowPtr</text>
</a>
</g>
</g>
<!-- Node20&#45;&gt;Node22 -->
<g id="edge2" class="edge">
<title>Node20&#45;&gt;Node22</title>
<path fill="none" stroke="#191970" d="M134.9872,-20.5665C143.4441,-19.6981 152.1652,-18.8025 160.812,-17.9146"/>
<polygon fill="#191970" stroke="#191970" points="161.318,-21.3811 170.9081,-16.8778 160.6028,-14.4177 161.318,-21.3811"/>
</g>
</g>
</svg>
