<?xml version="1.0" encoding="UTF-8" standalone="no"?>
<!DOCTYPE svg PUBLIC "-//W3C//DTD SVG 1.1//EN"
 "http://www.w3.org/Graphics/SVG/1.1/DTD/svg11.dtd">
<!-- Generated by graphviz version 2.40.1 (20161225.0304)
 -->
<!-- Title: NAMON::RingBuffer::empty Pages: 1 -->
<svg width="291pt" height="37pt"
 viewBox="0.00 0.00 291.18 37.00" xmlns="http://www.w3.org/2000/svg" xmlns:xlink="http://www.w3.org/1999/xlink">
<g id="graph0" class="graph" transform="scale(1 1) rotate(0) translate(4 33)">
<title>NAMON::RingBuffer::empty</title>
<polygon fill="#ffffff" stroke="transparent" points="-4,4 -4,-33 287.1758,-33 287.1758,4 -4,4"/>
<!-- Node3 -->
<g id="node1" class="node">
<title>Node3</title>
<polygon fill="#bfbfbf" stroke="#000000" points="0,-.5 0,-28.5 111.4053,-28.5 111.4053,-.5 0,-.5"/>
<text text-anchor="start" x="8" y="-16.5" font-family="Helvetica,sans-Serif" font-size="10.00" fill="#000000">NAMON::RingBuffer::</text>
<text text-anchor="middle" x="55.7026" y="-6.5" font-family="Helvetica,sans-Serif" font-size="10.00" fill="#000000">empty</text>
</g>
<!-- Node4 -->
<g id="node2" class="node">
<title>Node4</title>
<g id="a_node2"><a xlink:href="class_n_a_m_o_n_1_1_ring_buffer.xhtml#a3a4b8fc72199965bbdd58bb8716a14a6" target="_top" xlink:title="Callback function that is called when m_condVar.notify_*() is called. ">
<polygon fill="#ffffff" stroke="#000000" points="147.4053,-.5 147.4053,-28.5 283.1758,-28.5 283.1758,-.5 147.4053,-.5"/>
<text text-anchor="start" x="155.4053" y="-16.5" font-family="Helvetica,sans-Serif" font-size="10.00" fill="#000000">NAMON::RingBuffer&lt;</text>
<text text-anchor="middle" x="215.2905" y="-6.5" font-family="Helvetica,sans-Serif" font-size="10.00" fill="#000000"> Netflow &gt;::newItemOrStop</text>
</a>
</g>
</g>
<!-- Node3&#45;&gt;Node4 -->
<g id="edge1" class="edge">
<title>Node3&#45;&gt;Node4</title>
<path fill="none" stroke="#191970" d="M121.6534,-14.5C130.0697,-14.5 138.6979,-14.5 147.148,-14.5"/>
<polygon fill="#191970" stroke="#191970" points="121.5188,-11.0001 111.5187,-14.5 121.5187,-18.0001 121.5188,-11.0001"/>
</g>
</g>
</svg>
