<?xml version="1.0" encoding="UTF-8" standalone="no"?>
<!DOCTYPE svg PUBLIC "-//W3C//DTD SVG 1.1//EN"
 "http://www.w3.org/Graphics/SVG/1.1/DTD/svg11.dtd">
<!-- Generated by graphviz version 2.40.1 (20161225.0304)
 -->
<!-- Title: NAMON::TEntryOrTTree Pages: 1 -->
<svg width="200pt" height="82pt"
 viewBox="0.00 0.00 199.65 82.00" xmlns="http://www.w3.org/2000/svg" xmlns:xlink="http://www.w3.org/1999/xlink">
<g id="graph0" class="graph" transform="scale(1 1) rotate(0) translate(4 78)">
<title>NAMON::TEntryOrTTree</title>
<polygon fill="#ffffff" stroke="transparent" points="-4,4 -4,-78 195.6543,-78 195.6543,4 -4,4"/>
<!-- Node0 -->
<g id="node1" class="node">
<title>Node0</title>
<polygon fill="#bfbfbf" stroke="#000000" points="33.2939,-55.5 33.2939,-73.5 158.9326,-73.5 158.9326,-55.5 33.2939,-55.5"/>
<text text-anchor="middle" x="96.1133" y="-61.5" font-family="Helvetica,sans-Serif" font-size="10.00" fill="#000000">NAMON::TEntryOrTTree</text>
</g>
<!-- Node1 -->
<g id="node2" class="node">
<title>Node1</title>
<g id="a_node2"><a xlink:href="class_n_a_m_o_n_1_1_t_entry.xhtml" target="_top" xlink:title="Class with application name, its socket inode (Linux) or PID (windows) and a pointer to Netflow class...">
<polygon fill="#ffffff" stroke="#000000" points="0,-.5 0,-18.5 88.2266,-18.5 88.2266,-.5 0,-.5"/>
<text text-anchor="middle" x="44.1133" y="-6.5" font-family="Helvetica,sans-Serif" font-size="10.00" fill="#000000">NAMON::TEntry</text>
</a>
</g>
</g>
<!-- Node0&#45;&gt;Node1 -->
<g id="edge1" class="edge">
<title>Node0&#45;&gt;Node1</title>
<path fill="none" stroke="#191970" d="M80.5255,-48.0129C71.4828,-38.4485 60.4273,-26.7552 52.8866,-18.7795"/>
<polygon fill="#191970" stroke="#191970" points="78.1131,-50.5559 87.5265,-55.4179 83.1997,-45.7468 78.1131,-50.5559"/>
</g>
<!-- Node2 -->
<g id="node3" class="node">
<title>Node2</title>
<g id="a_node3"><a xlink:href="class_n_a_m_o_n_1_1_t_tree.xhtml" target="_top" xlink:title="Class with pointers to subtrees. ">
<polygon fill="#ffffff" stroke="#000000" points="106.5723,-.5 106.5723,-18.5 191.6543,-18.5 191.6543,-.5 106.5723,-.5"/>
<text text-anchor="middle" x="149.1133" y="-6.5" font-family="Helvetica,sans-Serif" font-size="10.00" fill="#000000">NAMON::TTree</text>
</a>
</g>
</g>
<!-- Node0&#45;&gt;Node2 -->
<g id="edge2" class="edge">
<title>Node0&#45;&gt;Node2</title>
<path fill="none" stroke="#191970" d="M112.0009,-48.0129C121.2174,-38.4485 132.4856,-26.7552 140.1713,-18.7795"/>
<polygon fill="#191970" stroke="#191970" points="109.2838,-45.7884 104.8652,-55.4179 114.3244,-50.6457 109.2838,-45.7884"/>
</g>
</g>
</svg>
