<?xml version="1.0" encoding="UTF-8" standalone="no"?>
<!DOCTYPE svg PUBLIC "-//W3C//DTD SVG 1.1//EN"
 "http://www.w3.org/Graphics/SVG/1.1/DTD/svg11.dtd">
<!-- Generated by graphviz version 2.40.1 (20161225.0304)
 -->
<!-- Title: NAMON::RingBuffer::push Pages: 1 -->
<svg width="318pt" height="74pt"
 viewBox="0.00 0.00 318.43 74.00" xmlns="http://www.w3.org/2000/svg" xmlns:xlink="http://www.w3.org/1999/xlink">
<g id="graph0" class="graph" transform="scale(1 1) rotate(0) translate(4 70)">
<title>NAMON::RingBuffer::push</title>
<polygon fill="#ffffff" stroke="transparent" points="-4,4 -4,-70 314.4316,-70 314.4316,4 -4,4"/>
<!-- Node14 -->
<g id="node1" class="node">
<title>Node14</title>
<polygon fill="#bfbfbf" stroke="#000000" points="0,-26.5 0,-44.5 133.0898,-44.5 133.0898,-26.5 0,-26.5"/>
<text text-anchor="middle" x="66.5449" y="-32.5" font-family="Helvetica,sans-Serif" font-size="10.00" fill="#000000">NAMON::RingBuffer::push</text>
</g>
<!-- Node15 -->
<g id="node2" class="node">
<title>Node15</title>
<g id="a_node2"><a xlink:href="capturing_8hpp.xhtml#a5b519a162338237e3935db3c8a3f8638" target="_top" xlink:title="Function that processes every packet. ">
<polygon fill="#ffffff" stroke="#000000" points="199.5195,-47.5 199.5195,-65.5 280.002,-65.5 280.002,-47.5 199.5195,-47.5"/>
<text text-anchor="middle" x="239.7607" y="-53.5" font-family="Helvetica,sans-Serif" font-size="10.00" fill="#000000">packetHandler</text>
</a>
</g>
</g>
<!-- Node14&#45;&gt;Node15 -->
<g id="edge1" class="edge">
<title>Node14&#45;&gt;Node15</title>
<path fill="none" stroke="#191970" d="M143.5352,-44.834C162.8494,-47.1756 182.8096,-49.5955 199.5095,-51.6201"/>
<polygon fill="#191970" stroke="#191970" points="143.8633,-41.3482 133.5147,-43.6191 143.0207,-48.2973 143.8633,-41.3482"/>
</g>
<!-- Node16 -->
<g id="node3" class="node">
<title>Node16</title>
<g id="a_node3"><a xlink:href="class_n_a_m_o_n_1_1_ring_buffer.xhtml#ac0b98412737fda608fb9846720b2e744" target="_top" xlink:title="Get method for NAMON::RingBuffer::droppedElem. ">
<polygon fill="#ffffff" stroke="#000000" points="169.0898,-.5 169.0898,-28.5 310.4316,-28.5 310.4316,-.5 169.0898,-.5"/>
<text text-anchor="start" x="177.0898" y="-16.5" font-family="Helvetica,sans-Serif" font-size="10.00" fill="#000000">NAMON::RingBuffer&lt;</text>
<text text-anchor="middle" x="239.7607" y="-6.5" font-family="Helvetica,sans-Serif" font-size="10.00" fill="#000000"> Netflow &gt;::getDroppedElem</text>
</a>
</g>
</g>
<!-- Node14&#45;&gt;Node16 -->
<g id="edge2" class="edge">
<title>Node14&#45;&gt;Node16</title>
<path fill="none" stroke="#191970" d="M143.6897,-26.1473C152.0981,-25.1279 160.6268,-24.0939 168.9539,-23.0843"/>
<polygon fill="#191970" stroke="#191970" points="143.0207,-22.7027 133.5147,-27.3809 143.8633,-29.6518 143.0207,-22.7027"/>
</g>
</g>
</svg>
