<?xml version="1.0" encoding="UTF-8" standalone="no"?>
<!DOCTYPE svg PUBLIC "-//W3C//DTD SVG 1.1//EN"
 "http://www.w3.org/Graphics/SVG/1.1/DTD/svg11.dtd">
<!-- Generated by graphviz version 2.40.1 (20161225.0304)
 -->
<!-- Title: NAMON::Netflow::setEndTime Pages: 1 -->
<svg width="341pt" height="64pt"
 viewBox="0.00 0.00 341.27 64.00" xmlns="http://www.w3.org/2000/svg" xmlns:xlink="http://www.w3.org/1999/xlink">
<g id="graph0" class="graph" transform="scale(1 1) rotate(0) translate(4 60)">
<title>NAMON::Netflow::setEndTime</title>
<polygon fill="#ffffff" stroke="transparent" points="-4,4 -4,-60 337.2734,-60 337.2734,4 -4,4"/>
<!-- Node35 -->
<g id="node1" class="node">
<title>Node35</title>
<polygon fill="#bfbfbf" stroke="#000000" points="0,-18.5 0,-36.5 150.668,-36.5 150.668,-18.5 0,-18.5"/>
<text text-anchor="middle" x="75.334" y="-24.5" font-family="Helvetica,sans-Serif" font-size="10.00" fill="#000000">NAMON::Netflow::setEndTime</text>
</g>
<!-- Node36 -->
<g id="node2" class="node">
<title>Node36</title>
<g id="a_node2"><a xlink:href="class_n_a_m_o_n_1_1_netflow.xhtml#a53f794cc496fa04ac365e998a60277aa" target="_top" xlink:title="Function prints content of the Netflow structure to the standard output. ">
<polygon fill="#ffffff" stroke="#000000" points="201.4043,-37.5 201.4043,-55.5 318.5371,-55.5 318.5371,-37.5 201.4043,-37.5"/>
<text text-anchor="middle" x="259.9707" y="-43.5" font-family="Helvetica,sans-Serif" font-size="10.00" fill="#000000">NAMON::Netflow::print</text>
</a>
</g>
</g>
<!-- Node35&#45;&gt;Node36 -->
<g id="edge1" class="edge">
<title>Node35&#45;&gt;Node36</title>
<path fill="none" stroke="#191970" d="M150.6991,-35.2554C164.1279,-36.6373 178.0523,-38.0702 191.2825,-39.4317"/>
<polygon fill="#191970" stroke="#191970" points="190.939,-42.9147 201.2447,-40.4568 191.6556,-35.9515 190.939,-42.9147"/>
</g>
<!-- Node37 -->
<g id="node3" class="node">
<title>Node37</title>
<g id="a_node3"><a xlink:href="class_n_a_m_o_n_1_1_netflow.xhtml#ae78f4b03ead6fb6632d10b02dd9701aa" target="_top" xlink:title="Overloaded equality operator. ">
<polygon fill="#ffffff" stroke="#000000" points="186.668,-.5 186.668,-18.5 333.2734,-18.5 333.2734,-.5 186.668,-.5"/>
<text text-anchor="middle" x="259.9707" y="-6.5" font-family="Helvetica,sans-Serif" font-size="10.00" fill="#000000">NAMON::Netflow::operator==</text>
</a>
</g>
</g>
<!-- Node35&#45;&gt;Node37 -->
<g id="edge2" class="edge">
<title>Node35&#45;&gt;Node37</title>
<path fill="none" stroke="#191970" d="M150.6991,-20.1527C159.2279,-19.3213 167.9565,-18.4703 176.5803,-17.6296"/>
<polygon fill="#191970" stroke="#191970" points="177.0242,-21.103 186.6374,-16.6492 176.3449,-14.1361 177.0242,-21.103"/>
</g>
</g>
</svg>
