<?xml version="1.0" encoding="UTF-8" standalone="no"?>
<!DOCTYPE svg PUBLIC "-//W3C//DTD SVG 1.1//EN"
 "http://www.w3.org/Graphics/SVG/1.1/DTD/svg11.dtd">
<!-- Generated by graphviz version 2.40.1 (20161225.0304)
 -->
<!-- Title: TOOL::TTree::insert Pages: 1 -->
<svg width="431pt" height="176pt"
 viewBox="0.00 0.00 431.10 176.00" xmlns="http://www.w3.org/2000/svg" xmlns:xlink="http://www.w3.org/1999/xlink">
<g id="graph0" class="graph" transform="scale(1 1) rotate(0) translate(4 172)">
<title>TOOL::TTree::insert</title>
<polygon fill="#ffffff" stroke="transparent" points="-4,4 -4,-172 427.0957,-172 427.0957,4 -4,4"/>
<!-- Node6 -->
<g id="node1" class="node">
<title>Node6</title>
<polygon fill="#bfbfbf" stroke="#000000" points="0,-73.5 0,-91.5 104.9209,-91.5 104.9209,-73.5 0,-73.5"/>
<text text-anchor="middle" x="52.4604" y="-79.5" font-family="Helvetica,sans-Serif" font-size="10.00" fill="#000000">TOOL::TTree::insert</text>
</g>
<!-- Node7 -->
<g id="node2" class="node">
<title>Node7</title>
<g id="a_node2"><a xlink:href="class_t_o_o_l_1_1_t_entry.xhtml#af9bb543217d0fb9d47f41bc2d086fcc8" target="_top" xlink:title="Get method for TOOL::TEntry::n. ">
<polygon fill="#ffffff" stroke="#000000" points="140.9209,-149.5 140.9209,-167.5 284.5576,-167.5 284.5576,-149.5 140.9209,-149.5"/>
<text text-anchor="middle" x="212.7393" y="-155.5" font-family="Helvetica,sans-Serif" font-size="10.00" fill="#000000">TOOL::TEntry::getNetflowPtr</text>
</a>
</g>
</g>
<!-- Node6&#45;&gt;Node7 -->
<g id="edge1" class="edge">
<title>Node6&#45;&gt;Node7</title>
<path fill="none" stroke="#191970" d="M63.4832,-91.5046C79.5595,-104.2074 110.8119,-127.3076 140.9209,-140.5 145.9982,-142.7247 151.403,-144.7106 156.8808,-146.4751"/>
<polygon fill="#191970" stroke="#191970" points="156.1818,-149.9187 166.7647,-149.4158 158.1781,-143.2094 156.1818,-149.9187"/>
</g>
<!-- Node8 -->
<g id="node3" class="node">
<title>Node8</title>
<g id="a_node3"><a xlink:href="debug_8hpp.xhtml#a9340c95e0607709d793dc427c8b630e8" target="_top" xlink:title="Function that prints log messages. ">
<polygon fill="#ffffff" stroke="#000000" points="181.7632,-94.5 181.7632,-112.5 243.7153,-112.5 243.7153,-94.5 181.7632,-94.5"/>
<text text-anchor="middle" x="212.7393" y="-100.5" font-family="Helvetica,sans-Serif" font-size="10.00" fill="#000000">TOOL::log</text>
</a>
</g>
</g>
<!-- Node6&#45;&gt;Node8 -->
<g id="edge2" class="edge">
<title>Node6&#45;&gt;Node8</title>
<path fill="none" stroke="#191970" d="M104.9417,-89.3762C126.5549,-92.208 151.2272,-95.4406 171.5091,-98.098"/>
<polygon fill="#191970" stroke="#191970" points="171.3056,-101.6011 181.6756,-99.43 172.215,-94.6604 171.3056,-101.6011"/>
</g>
<!-- Node10 -->
<g id="node5" class="node">
<title>Node10</title>
<g id="a_node5"><a xlink:href="class_t_o_o_l_1_1_t_entry_or_t_tree.xhtml#a5ed89469fcaab6aa829e371921793cb2" target="_top" xlink:title="Get method for TOOL::TEntryOrTTree::level. ">
<polygon fill="#ffffff" stroke="#000000" points="155.0054,-47.5 155.0054,-75.5 270.4731,-75.5 270.4731,-47.5 155.0054,-47.5"/>
<text text-anchor="start" x="163.0054" y="-63.5" font-family="Helvetica,sans-Serif" font-size="10.00" fill="#000000">TOOL::TEntryOrTTree</text>
<text text-anchor="middle" x="212.7393" y="-53.5" font-family="Helvetica,sans-Serif" font-size="10.00" fill="#000000">::getLevel</text>
</a>
</g>
</g>
<!-- Node6&#45;&gt;Node10 -->
<g id="edge6" class="edge">
<title>Node6&#45;&gt;Node10</title>
<path fill="none" stroke="#191970" d="M104.9417,-75.6238C117.6734,-73.9557 131.4666,-72.1485 144.7986,-70.4017"/>
<polygon fill="#191970" stroke="#191970" points="145.4179,-73.8506 154.8785,-69.081 144.5085,-66.9099 145.4179,-73.8506"/>
</g>
<!-- Node11 -->
<g id="node6" class="node">
<title>Node11</title>
<g id="a_node6"><a xlink:href="class_t_o_o_l_1_1_t_entry_or_t_tree.xhtml#a4778552d1b9264fcce3ce796ba9cffca" target="_top" xlink:title="Set method for TOOL::TEntryOrTTree::level. ">
<polygon fill="#ffffff" stroke="#000000" points="155.0054,-.5 155.0054,-28.5 270.4731,-28.5 270.4731,-.5 155.0054,-.5"/>
<text text-anchor="start" x="163.0054" y="-16.5" font-family="Helvetica,sans-Serif" font-size="10.00" fill="#000000">TOOL::TEntryOrTTree</text>
<text text-anchor="middle" x="212.7393" y="-6.5" font-family="Helvetica,sans-Serif" font-size="10.00" fill="#000000">::setLevel</text>
</a>
</g>
</g>
<!-- Node6&#45;&gt;Node11 -->
<g id="edge7" class="edge">
<title>Node6&#45;&gt;Node11</title>
<path fill="none" stroke="#191970" d="M69.0955,-73.3537C86.6387,-63.9165 115.2418,-49.1167 140.9209,-38.5 146.3689,-36.2476 152.112,-34.0479 157.8796,-31.9515"/>
<polygon fill="#191970" stroke="#191970" points="159.2991,-35.162 167.5614,-28.5299 156.9667,-28.562 159.2991,-35.162"/>
</g>
<!-- Node8&#45;&gt;Node8 -->
<g id="edge3" class="edge">
<title>Node8&#45;&gt;Node8</title>
<path fill="none" stroke="#191970" d="M189.1969,-112.5134C176.1926,-121.322 184.04,-131 212.7393,-131 232.47,-131 242.345,-126.4256 242.3642,-120.7043"/>
<polygon fill="#191970" stroke="#191970" points="245.0535,-118.4551 236.2816,-112.5134 239.4337,-122.6285 245.0535,-118.4551"/>
</g>
<!-- Node9 -->
<g id="node4" class="node">
<title>Node9</title>
<g id="a_node4"><a xlink:href="debug_8cpp.xhtml#ad6ba0645e5c2cdd3f7533aa4f15dbe71" target="_top" xlink:title="Sets #TOOL::generalLogLevel;. ">
<polygon fill="#ffffff" stroke="#000000" points="320.5576,-94.5 320.5576,-112.5 423.0957,-112.5 423.0957,-94.5 320.5576,-94.5"/>
<text text-anchor="middle" x="371.8267" y="-100.5" font-family="Helvetica,sans-Serif" font-size="10.00" fill="#000000">TOOL::setLogLevel</text>
</a>
</g>
</g>
<!-- Node8&#45;&gt;Node9 -->
<g id="edge4" class="edge">
<title>Node8&#45;&gt;Node9</title>
<path fill="none" stroke="#191970" d="M243.7906,-103.5C262.6886,-103.5 287.4917,-103.5 310.2305,-103.5"/>
<polygon fill="#191970" stroke="#191970" points="310.5042,-107.0001 320.5041,-103.5 310.5041,-100.0001 310.5042,-107.0001"/>
</g>
<!-- Node9&#45;&gt;Node9 -->
<g id="edge5" class="edge">
<title>Node9&#45;&gt;Node9</title>
<path fill="none" stroke="#191970" d="M348.2843,-112.5134C335.28,-121.322 343.1274,-131 371.8267,-131 391.5574,-131 401.4324,-126.4256 401.4516,-120.7043"/>
<polygon fill="#191970" stroke="#191970" points="404.1409,-118.4551 395.369,-112.5134 398.5211,-122.6285 404.1409,-118.4551"/>
</g>
</g>
</svg>
