<?xml version="1.0" encoding="UTF-8" standalone="no"?>
<!DOCTYPE svg PUBLIC "-//W3C//DTD SVG 1.1//EN"
 "http://www.w3.org/Graphics/SVG/1.1/DTD/svg11.dtd">
<!-- Generated by graphviz version 2.40.1 (20161225.0304)
 -->
<!-- Title: NAMON::SectionHeaderBlock::write Pages: 1 -->
<svg width="344pt" height="50pt"
 viewBox="0.00 0.00 343.90 50.00" xmlns="http://www.w3.org/2000/svg" xmlns:xlink="http://www.w3.org/1999/xlink">
<g id="graph0" class="graph" transform="scale(1 1) rotate(0) translate(4 46)">
<title>NAMON::SectionHeaderBlock::write</title>
<polygon fill="#ffffff" stroke="transparent" points="-4,4 -4,-46 339.9004,-46 339.9004,4 -4,4"/>
<!-- Node3 -->
<g id="node1" class="node">
<title>Node3</title>
<polygon fill="#bfbfbf" stroke="#000000" points="0,-.5 0,-28.5 149.3838,-28.5 149.3838,-.5 0,-.5"/>
<text text-anchor="start" x="8" y="-16.5" font-family="Helvetica,sans-Serif" font-size="10.00" fill="#000000">NAMON::SectionHeaderBlock</text>
<text text-anchor="middle" x="74.6919" y="-6.5" font-family="Helvetica,sans-Serif" font-size="10.00" fill="#000000">::write</text>
</g>
<!-- Node4 -->
<g id="node2" class="node">
<title>Node4</title>
<g id="a_node2"><a xlink:href="pcapng__blocks_8hpp.xhtml#a0172951579b09d97a40a36c79257f466" target="_top" xlink:title="Computes number of padding bytes to be inserted in order to reach multiple of x. ">
<polygon fill="#ffffff" stroke="#000000" points="185.3838,-5.5 185.3838,-23.5 335.9004,-23.5 335.9004,-5.5 185.3838,-5.5"/>
<text text-anchor="middle" x="260.6421" y="-11.5" font-family="Helvetica,sans-Serif" font-size="10.00" fill="#000000">NAMON::computePaddingLen</text>
</a>
</g>
</g>
<!-- Node3&#45;&gt;Node4 -->
<g id="edge1" class="edge">
<title>Node3&#45;&gt;Node4</title>
<path fill="none" stroke="#191970" d="M149.5212,-14.5C158.0078,-14.5 166.7044,-14.5 175.3129,-14.5"/>
<polygon fill="#191970" stroke="#191970" points="175.3603,-18.0001 185.3603,-14.5 175.3603,-11.0001 175.3603,-18.0001"/>
</g>
<!-- Node4&#45;&gt;Node4 -->
<g id="edge2" class="edge">
<title>Node4&#45;&gt;Node4</title>
<path fill="none" stroke="#191970" d="M233.2257,-23.5134C218.0814,-32.322 227.2202,-42 260.6421,-42 284.6641,-42 296.1414,-37.0003 295.074,-30.9173"/>
<polygon fill="#191970" stroke="#191970" points="297.4772,-28.365 288.0585,-23.5134 292.396,-33.1797 297.4772,-28.365"/>
</g>
</g>
</svg>
