<?xml version="1.0" encoding="UTF-8" standalone="no"?>
<!DOCTYPE svg PUBLIC "-//W3C//DTD SVG 1.1//EN"
 "http://www.w3.org/Graphics/SVG/1.1/DTD/svg11.dtd">
<!-- Generated by graphviz version 2.40.1 (20161225.0304)
 -->
<!-- Title: TOOL::Netflow::getLocalPort Pages: 1 -->
<svg width="490pt" height="177pt"
 viewBox="0.00 0.00 490.39 177.00" xmlns="http://www.w3.org/2000/svg" xmlns:xlink="http://www.w3.org/1999/xlink">
<g id="graph0" class="graph" transform="scale(1 1) rotate(0) translate(4 173)">
<title>TOOL::Netflow::getLocalPort</title>
<polygon fill="#ffffff" stroke="transparent" points="-4,4 -4,-173 486.3926,-173 486.3926,4 -4,4"/>
<!-- Node15 -->
<g id="node1" class="node">
<title>Node15</title>
<polygon fill="#bfbfbf" stroke="#000000" points="0,-75.5 0,-93.5 143.6563,-93.5 143.6563,-75.5 0,-75.5"/>
<text text-anchor="middle" x="71.8281" y="-81.5" font-family="Helvetica,sans-Serif" font-size="10.00" fill="#000000">TOOL::Netflow::getLocalPort</text>
</g>
<!-- Node16 -->
<g id="node2" class="node">
<title>Node16</title>
<g id="a_node2"><a xlink:href="class_t_o_o_l_1_1_t_entry.xhtml#a6a286dc8f1ab0e592932115a6f3e60f4" target="_top" xlink:title="Compares values important at a specific #TOOL::TreeLevel. ">
<polygon fill="#ffffff" stroke="#000000" points="186.6094,-150.5 186.6094,-168.5 331.916,-168.5 331.916,-150.5 186.6094,-150.5"/>
<text text-anchor="middle" x="259.2627" y="-156.5" font-family="Helvetica,sans-Serif" font-size="10.00" fill="#000000">TOOL::TEntry::levelCompare</text>
</a>
</g>
</g>
<!-- Node15&#45;&gt;Node16 -->
<g id="edge1" class="edge">
<title>Node15&#45;&gt;Node16</title>
<path fill="none" stroke="#191970" d="M94.5398,-98.785C115.815,-111.6057 148.8633,-130.1085 179.6563,-141.5 189.2245,-145.0397 199.7076,-148.0121 209.8341,-150.4564"/>
<polygon fill="#191970" stroke="#191970" points="96.2705,-95.7409 85.9136,-93.5081 92.6176,-101.7122 96.2705,-95.7409"/>
</g>
<!-- Node17 -->
<g id="node3" class="node">
<title>Node17</title>
<g id="a_node3"><a xlink:href="class_t_o_o_l_1_1_t_tree.xhtml#a82dde6ad8b94ec9b2d60ecb57dc6276c" target="_top" xlink:title="Set method for TOOL::TTree::cv union. ">
<polygon fill="#ffffff" stroke="#000000" points="179.6563,-113.5 179.6563,-131.5 338.8691,-131.5 338.8691,-113.5 179.6563,-113.5"/>
<text text-anchor="middle" x="259.2627" y="-119.5" font-family="Helvetica,sans-Serif" font-size="10.00" fill="#000000">TOOL::TTree::setCommonValue</text>
</a>
</g>
</g>
<!-- Node15&#45;&gt;Node17 -->
<g id="edge2" class="edge">
<title>Node15&#45;&gt;Node17</title>
<path fill="none" stroke="#191970" d="M126.3246,-95.5485C154.4487,-101.2503 188.3225,-108.1178 214.8378,-113.4934"/>
<polygon fill="#191970" stroke="#191970" points="126.7436,-92.0623 116.2475,-93.5055 125.3527,-98.9227 126.7436,-92.0623"/>
</g>
<!-- Node18 -->
<g id="node4" class="node">
<title>Node18</title>
<g id="a_node4"><a xlink:href="class_t_o_o_l_1_1_cache.xhtml#a5936010932979fe258f3e501b5aec703" target="_top" xlink:title="Function inserts new TEntry into the TTree node. ">
<polygon fill="#ffffff" stroke="#000000" points="374.8691,-94.5 374.8691,-112.5 482.3926,-112.5 482.3926,-94.5 374.8691,-94.5"/>
<text text-anchor="middle" x="428.6309" y="-100.5" font-family="Helvetica,sans-Serif" font-size="10.00" fill="#000000">TOOL::Cache::insert</text>
</a>
</g>
</g>
<!-- Node15&#45;&gt;Node18 -->
<g id="edge6" class="edge">
<title>Node15&#45;&gt;Node18</title>
<path fill="none" stroke="#191970" d="M154.2653,-88.8898C222.1183,-92.5031 316.3396,-97.5204 374.8427,-100.6357"/>
<polygon fill="#191970" stroke="#191970" points="154.2045,-85.3817 144.0325,-88.3449 153.8322,-92.3718 154.2045,-85.3817"/>
</g>
<!-- Node19 -->
<g id="node5" class="node">
<title>Node19</title>
<g id="a_node5"><a xlink:href="class_t_o_o_l_1_1_t_tree.xhtml#ade063acb83e5a7fe144fbee267fe5164" target="_top" xlink:title="Compares values important at a specific #TOOL::TreeLevel. ">
<polygon fill="#ffffff" stroke="#000000" points="188.1816,-37.5 188.1816,-55.5 330.3438,-55.5 330.3438,-37.5 188.1816,-37.5"/>
<text text-anchor="middle" x="259.2627" y="-43.5" font-family="Helvetica,sans-Serif" font-size="10.00" fill="#000000">TOOL::TTree::levelCompare</text>
</a>
</g>
</g>
<!-- Node15&#45;&gt;Node19 -->
<g id="edge4" class="edge">
<title>Node15&#45;&gt;Node19</title>
<path fill="none" stroke="#191970" d="M126.3246,-73.4515C154.4487,-67.7497 188.3225,-60.8822 214.8378,-55.5066"/>
<polygon fill="#191970" stroke="#191970" points="125.3527,-70.0773 116.2475,-75.4945 126.7436,-76.9377 125.3527,-70.0773"/>
</g>
<!-- Node20 -->
<g id="node6" class="node">
<title>Node20</title>
<g id="a_node6"><a xlink:href="class_t_o_o_l_1_1_cache.xhtml#abb8781e377e41322c132c7a24c3c96ec" target="_top" xlink:title="Function finds a Netflow record in a cache. ">
<polygon fill="#ffffff" stroke="#000000" points="209.666,-.5 209.666,-18.5 308.8594,-18.5 308.8594,-.5 209.666,-.5"/>
<text text-anchor="middle" x="259.2627" y="-6.5" font-family="Helvetica,sans-Serif" font-size="10.00" fill="#000000">TOOL::Cache::find</text>
</a>
</g>
</g>
<!-- Node15&#45;&gt;Node20 -->
<g id="edge5" class="edge">
<title>Node15&#45;&gt;Node20</title>
<path fill="none" stroke="#191970" d="M95.3299,-70.1476C116.6712,-57.6428 149.3513,-39.791 179.6563,-28.5 190.1748,-24.581 201.7824,-21.2714 212.8052,-18.5683"/>
<polygon fill="#191970" stroke="#191970" points="93.4531,-67.1914 86.6448,-75.3092 97.0294,-73.2089 93.4531,-67.1914"/>
</g>
<!-- Node17&#45;&gt;Node18 -->
<g id="edge3" class="edge">
<title>Node17&#45;&gt;Node18</title>
<path fill="none" stroke="#191970" d="M349.1324,-112.4183C357.7646,-111.4499 366.3248,-110.4896 374.4522,-109.5779"/>
<polygon fill="#191970" stroke="#191970" points="348.5348,-108.9633 338.9873,-113.5564 349.3152,-115.9196 348.5348,-108.9633"/>
</g>
</g>
</svg>
