<?xml version="1.0" encoding="UTF-8" standalone="no"?>
<!DOCTYPE svg PUBLIC "-//W3C//DTD SVG 1.1//EN"
 "http://www.w3.org/Graphics/SVG/1.1/DTD/svg11.dtd">
<!-- Generated by graphviz version 2.40.1 (20161225.0304)
 -->
<!-- Title: TOOL::TTree::setCommonValue Pages: 1 -->
<svg width="347pt" height="138pt"
 viewBox="0.00 0.00 346.87 138.00" xmlns="http://www.w3.org/2000/svg" xmlns:xlink="http://www.w3.org/1999/xlink">
<g id="graph0" class="graph" transform="scale(1 1) rotate(0) translate(4 134)">
<title>TOOL::TTree::setCommonValue</title>
<polygon fill="#ffffff" stroke="transparent" points="-4,4 -4,-134 342.8691,-134 342.8691,4 -4,4"/>
<!-- Node24 -->
<g id="node1" class="node">
<title>Node24</title>
<polygon fill="#bfbfbf" stroke="#000000" points="0,-55.5 0,-73.5 159.2129,-73.5 159.2129,-55.5 0,-55.5"/>
<text text-anchor="middle" x="79.6064" y="-61.5" font-family="Helvetica,sans-Serif" font-size="10.00" fill="#000000">TOOL::TTree::setCommonValue</text>
</g>
<!-- Node25 -->
<g id="node2" class="node">
<title>Node25</title>
<g id="a_node2"><a xlink:href="class_t_o_o_l_1_1_netflow.xhtml#a236c3017659c725da82f3f9abd025851" target="_top" xlink:title="Get method for TOOL::Netflow::localPort. ">
<polygon fill="#ffffff" stroke="#000000" points="195.2129,-111.5 195.2129,-129.5 338.8691,-129.5 338.8691,-111.5 195.2129,-111.5"/>
<text text-anchor="middle" x="267.041" y="-117.5" font-family="Helvetica,sans-Serif" font-size="10.00" fill="#000000">TOOL::Netflow::getLocalPort</text>
</a>
</g>
</g>
<!-- Node24&#45;&gt;Node25 -->
<g id="edge1" class="edge">
<title>Node24&#45;&gt;Node25</title>
<path fill="none" stroke="#191970" d="M105.6106,-73.6426C128.9323,-81.6994 164.1614,-93.5186 195.2129,-102.5 202.8542,-104.7102 210.9978,-106.9035 218.9545,-108.959"/>
<polygon fill="#191970" stroke="#191970" points="218.3272,-112.4107 228.8811,-111.4798 220.0502,-105.6261 218.3272,-112.4107"/>
</g>
<!-- Node26 -->
<g id="node3" class="node">
<title>Node26</title>
<g id="a_node3"><a xlink:href="class_t_o_o_l_1_1_netflow.xhtml#a90e60833b8662f06ca181452aafaa27e" target="_top" xlink:title="Get method for TOOL::Netflow::proto. ">
<polygon fill="#ffffff" stroke="#000000" points="204.3853,-74.5 204.3853,-92.5 329.6968,-92.5 329.6968,-74.5 204.3853,-74.5"/>
<text text-anchor="middle" x="267.041" y="-80.5" font-family="Helvetica,sans-Serif" font-size="10.00" fill="#000000">TOOL::Netflow::getProto</text>
</a>
</g>
</g>
<!-- Node24&#45;&gt;Node26 -->
<g id="edge2" class="edge">
<title>Node24&#45;&gt;Node26</title>
<path fill="none" stroke="#191970" d="M159.3674,-72.5853C171.0041,-73.7649 182.9344,-74.9742 194.419,-76.1384"/>
<polygon fill="#191970" stroke="#191970" points="194.0761,-79.6215 204.3781,-77.1479 194.7821,-72.6572 194.0761,-79.6215"/>
</g>
<!-- Node27 -->
<g id="node4" class="node">
<title>Node27</title>
<g id="a_node4"><a xlink:href="class_t_o_o_l_1_1_netflow.xhtml#a1b36fe95c3c9c18fd8ddc646281474b8" target="_top" xlink:title="Get method for TOOL::Netflow::ipVersion. ">
<polygon fill="#ffffff" stroke="#000000" points="195.4863,-37.5 195.4863,-55.5 338.5957,-55.5 338.5957,-37.5 195.4863,-37.5"/>
<text text-anchor="middle" x="267.041" y="-43.5" font-family="Helvetica,sans-Serif" font-size="10.00" fill="#000000">TOOL::Netflow::getIpVersion</text>
</a>
</g>
</g>
<!-- Node24&#45;&gt;Node27 -->
<g id="edge3" class="edge">
<title>Node24&#45;&gt;Node27</title>
<path fill="none" stroke="#191970" d="M159.3674,-56.8403C167.9612,-56.015 176.7152,-55.1743 185.3315,-54.3469"/>
<polygon fill="#191970" stroke="#191970" points="185.7456,-57.8233 195.3652,-53.3833 185.0764,-50.8553 185.7456,-57.8233"/>
</g>
<!-- Node28 -->
<g id="node5" class="node">
<title>Node28</title>
<g id="a_node5"><a xlink:href="class_t_o_o_l_1_1_netflow.xhtml#a075c89c1c339bb8aaf54c6f9749f309b" target="_top" xlink:title="Get method for TOOL::Netflow::localIp. ">
<polygon fill="#ffffff" stroke="#000000" points="200.2129,-.5 200.2129,-18.5 333.8691,-18.5 333.8691,-.5 200.2129,-.5"/>
<text text-anchor="middle" x="267.041" y="-6.5" font-family="Helvetica,sans-Serif" font-size="10.00" fill="#000000">TOOL::Netflow::getLocalIp</text>
</a>
</g>
</g>
<!-- Node24&#45;&gt;Node28 -->
<g id="edge4" class="edge">
<title>Node24&#45;&gt;Node28</title>
<path fill="none" stroke="#191970" d="M107.5372,-55.4302C130.8886,-47.9372 165.1132,-37.1631 195.2129,-28.5 203.7689,-26.0374 212.9328,-23.5216 221.7548,-21.1602"/>
<polygon fill="#191970" stroke="#191970" points="222.7504,-24.5172 231.5191,-18.5708 220.9561,-17.7511 222.7504,-24.5172"/>
</g>
</g>
</svg>
