<?xml version="1.0" encoding="UTF-8" standalone="no"?>
<!DOCTYPE svg PUBLIC "-//W3C//DTD SVG 1.1//EN"
 "http://www.w3.org/Graphics/SVG/1.1/DTD/svg11.dtd">
<!-- Generated by graphviz version 2.40.1 (20161225.0304)
 -->
<!-- Title: TOOL::TTree Pages: 1 -->
<svg width="256pt" height="92pt"
 viewBox="0.00 0.00 255.74 92.00" xmlns="http://www.w3.org/2000/svg" xmlns:xlink="http://www.w3.org/1999/xlink">
<g id="graph0" class="graph" transform="scale(1 1) rotate(0) translate(4 88)">
<title>TOOL::TTree</title>
<polygon fill="#ffffff" stroke="transparent" points="-4,4 -4,-88 251.7402,-88 251.7402,4 -4,4"/>
<!-- Node2 -->
<g id="node1" class="node">
<title>Node2</title>
<polygon fill="#bfbfbf" stroke="#000000" points="86.2783,-.5 86.2783,-18.5 161.1895,-18.5 161.1895,-.5 86.2783,-.5"/>
<text text-anchor="middle" x="123.7339" y="-6.5" font-family="Helvetica,sans-Serif" font-size="10.00" fill="#000000">TOOL::TTree</text>
</g>
<!-- Node3 -->
<g id="node2" class="node">
<title>Node3</title>
<g id="a_node2"><a xlink:href="class_t_o_o_l_1_1_t_entry_or_t_tree.xhtml" target="_top" xlink:title="Base class which a decision tree (cache) is made of. ">
<polygon fill="#ffffff" stroke="#000000" points="0,-65.5 0,-83.5 115.4678,-83.5 115.4678,-65.5 0,-65.5"/>
<text text-anchor="middle" x="57.7339" y="-71.5" font-family="Helvetica,sans-Serif" font-size="10.00" fill="#000000">TOOL::TEntryOrTTree</text>
</a>
</g>
</g>
<!-- Node3&#45;&gt;Node2 -->
<g id="edge1" class="edge">
<title>Node3&#45;&gt;Node2</title>
<path fill="none" stroke="#191970" d="M74.1028,-58.3791C86.7222,-45.9509 103.7346,-29.1962 114.2074,-18.8821"/>
<polygon fill="#191970" stroke="#191970" points="71.5798,-55.9514 66.9109,-65.462 76.4917,-60.9388 71.5798,-55.9514"/>
</g>
<!-- Node4 -->
<g id="node3" class="node">
<title>Node4</title>
<g id="a_node3"><a xlink:href="union_t_o_o_l_1_1_common_value.xhtml" target="_top" xlink:title="An union which stores values which are compared at different levels. ">
<polygon fill="#ffffff" stroke="#000000" points="133.7275,-65.5 133.7275,-83.5 247.7402,-83.5 247.7402,-65.5 133.7275,-65.5"/>
<text text-anchor="middle" x="190.7339" y="-71.5" font-family="Helvetica,sans-Serif" font-size="10.00" fill="#000000">TOOL::CommonValue</text>
</a>
</g>
</g>
<!-- Node4&#45;&gt;Node2 -->
<g id="edge2" class="edge">
<title>Node4&#45;&gt;Node2</title>
<path fill="none" stroke="#9a32cd" stroke-dasharray="5,2" d="M174.117,-58.3791C161.3064,-45.9509 144.0362,-29.1962 133.4047,-18.8821"/>
<polygon fill="#9a32cd" stroke="#9a32cd" points="171.8033,-61.011 181.4178,-65.462 176.6775,-55.9868 171.8033,-61.011"/>
<text text-anchor="middle" x="167.123" y="-39" font-family="Helvetica,sans-Serif" font-size="10.00" fill="#000000"> cv</text>
</g>
</g>
</svg>
