<?xml version="1.0" encoding="UTF-8" standalone="no"?>
<!DOCTYPE svg PUBLIC "-//W3C//DTD SVG 1.1//EN"
 "http://www.w3.org/Graphics/SVG/1.1/DTD/svg11.dtd">
<!-- Generated by graphviz version 2.40.1 (20161225.0304)
 -->
<!-- Title: TOOL::setLogLevel Pages: 1 -->
<svg width="606pt" height="438pt"
 viewBox="0.00 0.00 605.91 438.00" xmlns="http://www.w3.org/2000/svg" xmlns:xlink="http://www.w3.org/1999/xlink">
<g id="graph0" class="graph" transform="scale(1 1) rotate(0) translate(4 434)">
<title>TOOL::setLogLevel</title>
<polygon fill="#ffffff" stroke="transparent" points="-4,4 -4,-434 601.9063,-434 601.9063,4 -4,4"/>
<!-- Node18 -->
<g id="node1" class="node">
<title>Node18</title>
<polygon fill="#bfbfbf" stroke="#000000" points="0,-223.5 0,-241.5 102.5381,-241.5 102.5381,-223.5 0,-223.5"/>
<text text-anchor="middle" x="51.269" y="-229.5" font-family="Helvetica,sans-Serif" font-size="10.00" fill="#000000">TOOL::setLogLevel</text>
</g>
<!-- Node18&#45;&gt;Node18 -->
<g id="edge1" class="edge">
<title>Node18&#45;&gt;Node18</title>
<path fill="none" stroke="#191970" d="M29.1916,-250.477C29.8441,-255.832 37.2032,-260 51.269,-260 72.7026,-260 78.5634,-250.322 68.8513,-241.5134"/>
<polygon fill="#191970" stroke="#191970" points="32.3326,-252.0214 33.6868,-241.5134 26.0753,-248.8834 32.3326,-252.0214"/>
</g>
<!-- Node19 -->
<g id="node2" class="node">
<title>Node19</title>
<g id="a_node2"><a xlink:href="debug_8hpp.xhtml#a9340c95e0607709d793dc427c8b630e8" target="_top" xlink:title="Function that prints log messages. ">
<polygon fill="#ffffff" stroke="#000000" points="138.5381,-223.5 138.5381,-241.5 200.4902,-241.5 200.4902,-223.5 138.5381,-223.5"/>
<text text-anchor="middle" x="169.5142" y="-229.5" font-family="Helvetica,sans-Serif" font-size="10.00" fill="#000000">TOOL::log</text>
</a>
</g>
</g>
<!-- Node18&#45;&gt;Node19 -->
<g id="edge2" class="edge">
<title>Node18&#45;&gt;Node19</title>
<path fill="none" stroke="#191970" d="M113.0325,-232.5C121.7673,-232.5 130.4251,-232.5 138.2412,-232.5"/>
<polygon fill="#191970" stroke="#191970" points="112.7891,-229.0001 102.7891,-232.5 112.7891,-236.0001 112.7891,-229.0001"/>
</g>
<!-- Node19&#45;&gt;Node19 -->
<g id="edge13" class="edge">
<title>Node19&#45;&gt;Node19</title>
<path fill="none" stroke="#191970" d="M147.4368,-250.477C148.0892,-255.832 155.4484,-260 169.5142,-260 190.9478,-260 196.8085,-250.322 187.0964,-241.5134"/>
<polygon fill="#191970" stroke="#191970" points="150.5777,-252.0214 151.9319,-241.5134 144.3204,-248.8834 150.5777,-252.0214"/>
</g>
<!-- Node20 -->
<g id="node3" class="node">
<title>Node20</title>
<g id="a_node3"><a xlink:href="class_t_o_o_l_1_1_t_tree.xhtml#a16d14c1d6d1c451e569a3e0b5e459248" target="_top" xlink:title="Function inserts a new TEntry into a decision tree. ">
<polygon fill="#ffffff" stroke="#000000" points="239.4639,-411.5 239.4639,-429.5 344.3848,-429.5 344.3848,-411.5 239.4639,-411.5"/>
<text text-anchor="middle" x="291.9243" y="-417.5" font-family="Helvetica,sans-Serif" font-size="10.00" fill="#000000">TOOL::TTree::insert</text>
</a>
</g>
</g>
<!-- Node19&#45;&gt;Node20 -->
<g id="edge3" class="edge">
<title>Node19&#45;&gt;Node20</title>
<path fill="none" stroke="#191970" d="M172.4626,-251.4836C178.5924,-284.9524 195.6965,-354.8461 236.4902,-396.5 242.8741,-403.0185 251.3213,-407.8783 259.692,-411.454"/>
<polygon fill="#191970" stroke="#191970" points="175.9129,-250.895 170.7862,-241.6231 169.0119,-252.0683 175.9129,-250.895"/>
</g>
<!-- Node21 -->
<g id="node4" class="node">
<title>Node21</title>
<g id="a_node4"><a xlink:href="class_t_o_o_l_1_1_cache.xhtml#a5936010932979fe258f3e501b5aec703" target="_top" xlink:title="Function inserts new TEntry into the TTree node. ">
<polygon fill="#ffffff" stroke="#000000" points="383.3584,-392.5 383.3584,-410.5 490.8818,-410.5 490.8818,-392.5 383.3584,-392.5"/>
<text text-anchor="middle" x="437.1201" y="-398.5" font-family="Helvetica,sans-Serif" font-size="10.00" fill="#000000">TOOL::Cache::insert</text>
</a>
</g>
</g>
<!-- Node19&#45;&gt;Node21 -->
<g id="edge5" class="edge">
<title>Node19&#45;&gt;Node21</title>
<path fill="none" stroke="#191970" d="M174.0657,-251.2528C181.864,-279.1903 200.5341,-331.354 236.4902,-358.5 278.7089,-390.374 339.4574,-399.7383 383.032,-401.9823"/>
<polygon fill="#191970" stroke="#191970" points="177.4373,-250.3113 171.5199,-241.523 170.6652,-252.0833 177.4373,-250.3113"/>
</g>
<!-- Node22 -->
<g id="node5" class="node">
<title>Node22</title>
<g id="a_node5"><a xlink:href="capturing_8hpp.xhtml#a796d8f82917739002736e8d61c6fb635" target="_top" xlink:title="Starts network traffic capture. ">
<polygon fill="#ffffff" stroke="#000000" points="526.8818,-148.5 526.8818,-166.5 597.9063,-166.5 597.9063,-148.5 526.8818,-148.5"/>
<text text-anchor="middle" x="562.394" y="-154.5" font-family="Helvetica,sans-Serif" font-size="10.00" fill="#000000">startCapture</text>
</a>
</g>
</g>
<!-- Node19&#45;&gt;Node22 -->
<g id="edge6" class="edge">
<title>Node19&#45;&gt;Node22</title>
<path fill="none" stroke="#191970" d="M176.6115,-251.0096C186.3142,-273.3685 206.0666,-309.9182 236.4902,-325.5 280.3475,-347.962 300.7681,-341.542 347.3584,-325.5 443.2182,-292.4935 529.0775,-197.2728 554.6698,-166.9169"/>
<polygon fill="#191970" stroke="#191970" points="179.7842,-249.5215 172.7553,-241.5941 173.3064,-252.1745 179.7842,-249.5215"/>
</g>
<!-- Node23 -->
<g id="node6" class="node">
<title>Node23</title>
<g id="a_node6"><a xlink:href="capturing_8hpp.xhtml#a5b519a162338237e3935db3c8a3f8638" target="_top" xlink:title="Function that processes every packet. ">
<polygon fill="#ffffff" stroke="#000000" points="251.6831,-297.5 251.6831,-315.5 332.1655,-315.5 332.1655,-297.5 251.6831,-297.5"/>
<text text-anchor="middle" x="291.9243" y="-303.5" font-family="Helvetica,sans-Serif" font-size="10.00" fill="#000000">packetHandler</text>
</a>
</g>
</g>
<!-- Node19&#45;&gt;Node23 -->
<g id="edge7" class="edge">
<title>Node19&#45;&gt;Node23</title>
<path fill="none" stroke="#191970" d="M185.3247,-248.7644C198.1295,-261.1394 217.1587,-277.8088 236.4902,-288.5 242.8656,-292.0258 250.0398,-294.9922 257.0591,-297.435"/>
<polygon fill="#191970" stroke="#191970" points="187.7736,-246.2637 178.2092,-241.706 182.8438,-251.2334 187.7736,-246.2637"/>
</g>
<!-- Node24 -->
<g id="node7" class="node">
<title>Node24</title>
<g id="a_node7"><a xlink:href="capturing_8hpp.xhtml#a66d66c5f9a4235b784cbae69bcfefbd1" target="_top" xlink:title="Determines packet derection. ">
<polygon fill="#ffffff" stroke="#000000" points="241.959,-260.5 241.959,-278.5 341.8896,-278.5 341.8896,-260.5 241.959,-260.5"/>
<text text-anchor="middle" x="291.9243" y="-266.5" font-family="Helvetica,sans-Serif" font-size="10.00" fill="#000000">getPacketDirection</text>
</a>
</g>
</g>
<!-- Node19&#45;&gt;Node24 -->
<g id="edge8" class="edge">
<title>Node19&#45;&gt;Node24</title>
<path fill="none" stroke="#191970" d="M209.1893,-244.4923C226.3023,-249.6649 245.9889,-255.6155 261.8643,-260.414"/>
<polygon fill="#191970" stroke="#191970" points="210.044,-241.0943 199.4591,-241.5512 208.0186,-247.7949 210.044,-241.0943"/>
</g>
<!-- Node25 -->
<g id="node8" class="node">
<title>Node25</title>
<g id="a_node8"><a xlink:href="capturing_8hpp.xhtml#a8fd309d5e9252e6de3b1bea1802e8453" target="_top" xlink:title="Parses IP header. ">
<polygon fill="#ffffff" stroke="#000000" points="267.2471,-223.5 267.2471,-241.5 316.6016,-241.5 316.6016,-223.5 267.2471,-223.5"/>
<text text-anchor="middle" x="291.9243" y="-229.5" font-family="Helvetica,sans-Serif" font-size="10.00" fill="#000000">parseIp</text>
</a>
</g>
</g>
<!-- Node19&#45;&gt;Node25 -->
<g id="edge9" class="edge">
<title>Node19&#45;&gt;Node25</title>
<path fill="none" stroke="#191970" d="M210.7368,-232.5C229.3728,-232.5 250.7851,-232.5 266.9395,-232.5"/>
<polygon fill="#191970" stroke="#191970" points="210.7202,-229.0001 200.7201,-232.5 210.7201,-236.0001 210.7202,-229.0001"/>
</g>
<!-- Node26 -->
<g id="node9" class="node">
<title>Node26</title>
<g id="a_node9"><a xlink:href="capturing_8hpp.xhtml#a30a4aa41a243aeb1e88c49d09e65a48e" target="_top" xlink:title="Parses layer 4 header. ">
<polygon fill="#ffffff" stroke="#000000" points="259.7471,-186.5 259.7471,-204.5 324.1016,-204.5 324.1016,-186.5 259.7471,-186.5"/>
<text text-anchor="middle" x="291.9243" y="-192.5" font-family="Helvetica,sans-Serif" font-size="10.00" fill="#000000">parsePorts</text>
</a>
</g>
</g>
<!-- Node19&#45;&gt;Node26 -->
<g id="edge10" class="edge">
<title>Node19&#45;&gt;Node26</title>
<path fill="none" stroke="#191970" d="M209.1893,-220.5077C226.3023,-215.3351 245.9889,-209.3845 261.8643,-204.586"/>
<polygon fill="#191970" stroke="#191970" points="208.0186,-217.2051 199.4591,-223.4488 210.044,-223.9057 208.0186,-217.2051"/>
</g>
<!-- Node27 -->
<g id="node10" class="node">
<title>Node27</title>
<g id="a_node10"><a xlink:href="capturing_8hpp.xhtml#a8ee3282bc313e547dbbb8d4f4010db61" target="_top" xlink:title="Signal handler function. ">
<polygon fill="#ffffff" stroke="#000000" points="398.5464,-148.5 398.5464,-166.5 475.6938,-166.5 475.6938,-148.5 398.5464,-148.5"/>
<text text-anchor="middle" x="437.1201" y="-154.5" font-family="Helvetica,sans-Serif" font-size="10.00" fill="#000000">signalHandler</text>
</a>
</g>
</g>
<!-- Node19&#45;&gt;Node27 -->
<g id="edge11" class="edge">
<title>Node19&#45;&gt;Node27</title>
<path fill="none" stroke="#191970" d="M184.387,-215.796C196.9057,-202.9489 216.0061,-186.0027 236.4902,-177.5 289.3493,-155.559 356.5265,-153.4861 398.1713,-154.8528"/>
<polygon fill="#191970" stroke="#191970" points="181.7756,-213.4641 177.4894,-223.1532 186.8823,-218.2518 181.7756,-213.4641"/>
</g>
<!-- Node28 -->
<g id="node11" class="node">
<title>Node28</title>
<g id="a_node11"><a xlink:href="file_handler_8cpp.xhtml#a9fb5f617541ea7938831450d69157f60" target="_top" xlink:title="Creates the output file and writes SectionHeaderBlock and InterfaceDescriptionBlock to the file...">
<polygon fill="#ffffff" stroke="#000000" points="249.2832,-92.5 249.2832,-110.5 334.5654,-110.5 334.5654,-92.5 249.2832,-92.5"/>
<text text-anchor="middle" x="291.9243" y="-98.5" font-family="Helvetica,sans-Serif" font-size="10.00" fill="#000000">TOOL::initOFile</text>
</a>
</g>
</g>
<!-- Node19&#45;&gt;Node28 -->
<g id="edge14" class="edge">
<title>Node19&#45;&gt;Node28</title>
<path fill="none" stroke="#191970" d="M180.7095,-214.7724C193.0679,-195.947 214.1843,-165.8788 236.4902,-143.5 249.2761,-130.6724 266.1103,-118.4576 277.859,-110.5415"/>
<polygon fill="#191970" stroke="#191970" points="177.7137,-212.9599 175.2321,-223.26 183.5953,-216.7556 177.7137,-212.9599"/>
</g>
<!-- Node29 -->
<g id="node12" class="node">
<title>Node29</title>
<g id="a_node12"><a xlink:href="tool_8cpp.xhtml#aa97bd89bdff783d43ffca0a0335286f1" target="_top" xlink:title="Identifies application, which has opened socket which belongs to some IP, proto and port...">
<polygon fill="#ffffff" stroke="#000000" points="236.4902,-37.5 236.4902,-55.5 347.3584,-55.5 347.3584,-37.5 236.4902,-37.5"/>
<text text-anchor="middle" x="291.9243" y="-43.5" font-family="Helvetica,sans-Serif" font-size="10.00" fill="#000000">TOOL::determineApp</text>
</a>
</g>
</g>
<!-- Node19&#45;&gt;Node29 -->
<g id="edge16" class="edge">
<title>Node19&#45;&gt;Node29</title>
<path fill="none" stroke="#191970" d="M174.1662,-213.6634C182.4413,-183.2424 202.1569,-122.6562 236.4902,-82.5 246.3338,-70.987 260.7644,-61.7755 272.4346,-55.553"/>
<polygon fill="#191970" stroke="#191970" points="170.7605,-212.8534 171.6293,-223.4126 177.5349,-214.6163 170.7605,-212.8534"/>
</g>
<!-- Node31 -->
<g id="node14" class="node">
<title>Node31</title>
<g id="a_node14"><a xlink:href="tool__linux_8cpp.xhtml#acecfe465c85a3ca3a91897379f4de033" target="_top" xlink:title="TOOL::getApp">
<polygon fill="#ffffff" stroke="#000000" points="251.7734,-.5 251.7734,-18.5 332.0752,-18.5 332.0752,-.5 251.7734,-.5"/>
<text text-anchor="middle" x="291.9243" y="-6.5" font-family="Helvetica,sans-Serif" font-size="10.00" fill="#000000">TOOL::getApp</text>
</a>
</g>
</g>
<!-- Node19&#45;&gt;Node31 -->
<g id="edge21" class="edge">
<title>Node19&#45;&gt;Node31</title>
<path fill="none" stroke="#191970" d="M173.4443,-213.3937C183.1759,-167.7908 209.5615,-54.38 236.4902,-27.5 240.7871,-23.2109 246.1149,-19.9436 251.7543,-17.4546"/>
<polygon fill="#191970" stroke="#191970" points="170.0139,-212.6988 171.3858,-223.2045 176.8648,-214.1363 170.0139,-212.6988"/>
</g>
<!-- Node20&#45;&gt;Node21 -->
<g id="edge4" class="edge">
<title>Node20&#45;&gt;Node21</title>
<path fill="none" stroke="#191970" d="M354.8527,-412.2653C364.2675,-411.0333 373.9031,-409.7724 383.111,-408.5675"/>
<polygon fill="#191970" stroke="#191970" points="354.2154,-408.8188 344.7541,-413.5868 355.1237,-415.7596 354.2154,-408.8188"/>
</g>
<!-- Node27&#45;&gt;Node22 -->
<g id="edge12" class="edge">
<title>Node27&#45;&gt;Node22</title>
<path fill="none" stroke="#191970" d="M485.8988,-157.5C499.4912,-157.5 514.0001,-157.5 526.6881,-157.5"/>
<polygon fill="#191970" stroke="#191970" points="485.7287,-154.0001 475.7286,-157.5 485.7286,-161.0001 485.7287,-154.0001"/>
</g>
<!-- Node28&#45;&gt;Node28 -->
<g id="edge15" class="edge">
<title>Node28&#45;&gt;Node28</title>
<path fill="none" stroke="#191970" d="M269.0985,-119.477C269.7731,-124.832 277.3817,-129 291.9243,-129 314.0845,-129 320.1439,-119.322 310.1026,-110.5134"/>
<polygon fill="#191970" stroke="#191970" points="272.2502,-121.0022 273.7461,-110.5134 266.0359,-117.78 272.2502,-121.0022"/>
</g>
<!-- Node29&#45;&gt;Node29 -->
<g id="edge17" class="edge">
<title>Node29&#45;&gt;Node29</title>
<path fill="none" stroke="#191970" d="M269.0985,-64.477C269.7731,-69.832 277.3817,-74 291.9243,-74 314.0845,-74 320.1439,-64.322 310.1026,-55.5134"/>
<polygon fill="#191970" stroke="#191970" points="272.2502,-66.0022 273.7461,-55.5134 266.0359,-62.78 272.2502,-66.0022"/>
</g>
<!-- Node30 -->
<g id="node13" class="node">
<title>Node30</title>
<g id="a_node13"><a xlink:href="tool__apple_8cpp.xhtml#abffa8d5a00da5ef52e025864e1b86829" target="_top" xlink:title="Sets mac address of g_dev interface into g_devMac. ">
<polygon fill="#ffffff" stroke="#000000" points="387.8091,-65.5 387.8091,-83.5 486.4312,-83.5 486.4312,-65.5 387.8091,-65.5"/>
<text text-anchor="middle" x="437.1201" y="-71.5" font-family="Helvetica,sans-Serif" font-size="10.00" fill="#000000">TOOL::setDevMac</text>
</a>
</g>
</g>
<!-- Node29&#45;&gt;Node30 -->
<g id="edge18" class="edge">
<title>Node29&#45;&gt;Node30</title>
<path fill="none" stroke="#191970" d="M348.4844,-57.4072C362.207,-60.0535 376.7344,-62.855 389.9698,-65.4074"/>
<polygon fill="#191970" stroke="#191970" points="349.1463,-53.9704 338.6644,-55.5135 347.8207,-60.8438 349.1463,-53.9704"/>
</g>
<!-- Node30&#45;&gt;Node22 -->
<g id="edge19" class="edge">
<title>Node30&#45;&gt;Node22</title>
<path fill="none" stroke="#191970" d="M459.405,-89.2648C485.1922,-106.3501 526.8675,-133.962 548.4467,-148.2592"/>
<polygon fill="#191970" stroke="#191970" points="461.2747,-86.3051 451.0053,-83.6996 457.4085,-92.1405 461.2747,-86.3051"/>
</g>
<!-- Node30&#45;&gt;Node30 -->
<g id="edge20" class="edge">
<title>Node30&#45;&gt;Node30</title>
<path fill="none" stroke="#191970" d="M413.9201,-92.477C414.6058,-97.832 422.3391,-102 437.1201,-102 459.6436,-102 465.8023,-92.322 455.5964,-83.5134"/>
<polygon fill="#191970" stroke="#191970" points="417.078,-93.9919 418.6439,-83.5134 410.8853,-90.7284 417.078,-93.9919"/>
</g>
</g>
</svg>
