<?xml version="1.0" encoding="UTF-8" standalone="no"?>
<!DOCTYPE svg PUBLIC "-//W3C//DTD SVG 1.1//EN"
 "http://www.w3.org/Graphics/SVG/1.1/DTD/svg11.dtd">
<!-- Generated by graphviz version 2.40.1 (20161225.0304)
 -->
<!-- Title: NAMON::log Pages: 1 -->
<svg width="385pt" height="381pt"
 viewBox="0.00 0.00 384.91 381.00" xmlns="http://www.w3.org/2000/svg" xmlns:xlink="http://www.w3.org/1999/xlink">
<g id="graph0" class="graph" transform="scale(1 1) rotate(0) translate(4 377)">
<title>NAMON::log</title>
<polygon fill="#ffffff" stroke="transparent" points="-4,4 -4,-377 380.9092,-377 380.9092,4 -4,4"/>
<!-- Node2 -->
<g id="node1" class="node">
<title>Node2</title>
<polygon fill="#bfbfbf" stroke="#000000" points="0,-184.5 0,-202.5 72.123,-202.5 72.123,-184.5 0,-184.5"/>
<text text-anchor="middle" x="36.0615" y="-190.5" font-family="Helvetica,sans-Serif" font-size="10.00" fill="#000000">NAMON::log</text>
</g>
<!-- Node2&#45;&gt;Node2 -->
<g id="edge11" class="edge">
<title>Node2&#45;&gt;Node2</title>
<path fill="none" stroke="#191970" d="M12.1132,-211.477C12.8209,-216.832 20.8037,-221 36.0615,-221 59.3115,-221 65.6689,-211.322 55.1338,-202.5134"/>
<polygon fill="#191970" stroke="#191970" points="15.2851,-212.9703 16.9893,-202.5134 9.1361,-209.6253 15.2851,-212.9703"/>
</g>
<!-- Node3 -->
<g id="node2" class="node">
<title>Node3</title>
<g id="a_node2"><a xlink:href="class_n_a_m_o_n_1_1_t_tree.xhtml#a7c2a0cc5654377b4b8ca63feb050fa62" target="_top" xlink:title="Function inserts a new TEntry into a decision tree. ">
<polygon fill="#ffffff" stroke="#000000" points="108.123,-354.5 108.123,-372.5 223.2148,-372.5 223.2148,-354.5 108.123,-354.5"/>
<text text-anchor="middle" x="165.6689" y="-360.5" font-family="Helvetica,sans-Serif" font-size="10.00" fill="#000000">NAMON::TTree::insert</text>
</a>
</g>
</g>
<!-- Node2&#45;&gt;Node3 -->
<g id="edge1" class="edge">
<title>Node2&#45;&gt;Node3</title>
<path fill="none" stroke="#191970" d="M40.7825,-212.579C49.2844,-243.2405 69.9419,-303.6647 108.123,-339.5 115.0687,-346.0189 124.0391,-350.892 132.8215,-354.4805"/>
<polygon fill="#191970" stroke="#191970" points="44.1204,-211.5098 38.1903,-202.73 37.3509,-213.2915 44.1204,-211.5098"/>
</g>
<!-- Node4 -->
<g id="node3" class="node">
<title>Node4</title>
<g id="a_node3"><a xlink:href="class_n_a_m_o_n_1_1_cache.xhtml#a7a097b6420be4d276bca506ff7ffe6bb" target="_top" xlink:title="Function inserts new TEntry into the TTree node. ">
<polygon fill="#ffffff" stroke="#000000" points="259.2148,-335.5 259.2148,-353.5 376.9092,-353.5 376.9092,-335.5 259.2148,-335.5"/>
<text text-anchor="middle" x="318.062" y="-341.5" font-family="Helvetica,sans-Serif" font-size="10.00" fill="#000000">NAMON::Cache::insert</text>
</a>
</g>
</g>
<!-- Node2&#45;&gt;Node4 -->
<g id="edge3" class="edge">
<title>Node2&#45;&gt;Node4</title>
<path fill="none" stroke="#191970" d="M45.0892,-211.7935C56.6975,-233.3996 78.8939,-268.876 108.123,-288.5 153.378,-318.8836 214.4325,-332.8089 259.0317,-339.1755"/>
<polygon fill="#191970" stroke="#191970" points="48.0851,-209.967 40.3848,-202.6899 41.8664,-213.1806 48.0851,-209.967"/>
</g>
<!-- Node5 -->
<g id="node4" class="node">
<title>Node5</title>
<g id="a_node4"><a xlink:href="capturing_8hpp.xhtml#a796d8f82917739002736e8d61c6fb635" target="_top" xlink:title="Starts network traffic capture. ">
<polygon fill="#ffffff" stroke="#000000" points="282.5498,-185.5 282.5498,-203.5 353.5742,-203.5 353.5742,-185.5 282.5498,-185.5"/>
<text text-anchor="middle" x="318.062" y="-191.5" font-family="Helvetica,sans-Serif" font-size="10.00" fill="#000000">startCapture</text>
</a>
</g>
</g>
<!-- Node2&#45;&gt;Node5 -->
<g id="edge4" class="edge">
<title>Node2&#45;&gt;Node5</title>
<path fill="none" stroke="#191970" d="M46.8487,-211.2677C59.1004,-229.5462 80.9612,-256.93 108.123,-268.5 155.1834,-288.5461 174.8442,-285.1372 223.2148,-268.5 261.1344,-255.4575 295.5261,-220.3538 310.3521,-203.617"/>
<polygon fill="#191970" stroke="#191970" points="49.6825,-209.2029 41.3406,-202.6712 43.7886,-212.9794 49.6825,-209.2029"/>
</g>
<!-- Node6 -->
<g id="node5" class="node">
<title>Node6</title>
<g id="a_node5"><a xlink:href="capturing_8hpp.xhtml#a5b519a162338237e3935db3c8a3f8638" target="_top" xlink:title="Function that processes every packet. ">
<polygon fill="#ffffff" stroke="#000000" points="125.4277,-240.5 125.4277,-258.5 205.9102,-258.5 205.9102,-240.5 125.4277,-240.5"/>
<text text-anchor="middle" x="165.6689" y="-246.5" font-family="Helvetica,sans-Serif" font-size="10.00" fill="#000000">packetHandler</text>
</a>
</g>
</g>
<!-- Node2&#45;&gt;Node6 -->
<g id="edge5" class="edge">
<title>Node2&#45;&gt;Node6</title>
<path fill="none" stroke="#191970" d="M60.228,-207.6616C73.9727,-215.3522 91.6772,-224.6587 108.123,-231.5 116.0484,-234.7968 124.8008,-237.8284 133.0372,-240.4265"/>
<polygon fill="#191970" stroke="#191970" points="61.8319,-204.5473 51.4091,-202.6456 58.3711,-210.632 61.8319,-204.5473"/>
</g>
<!-- Node7 -->
<g id="node6" class="node">
<title>Node7</title>
<g id="a_node6"><a xlink:href="capturing_8hpp.xhtml#a39b0e4ebc788767093d4663596525c20" target="_top" xlink:title="Determines packet derection. ">
<polygon fill="#ffffff" stroke="#000000" points="115.7036,-203.5 115.7036,-221.5 215.6343,-221.5 215.6343,-203.5 115.7036,-203.5"/>
<text text-anchor="middle" x="165.6689" y="-209.5" font-family="Helvetica,sans-Serif" font-size="10.00" fill="#000000">getPacketDirection</text>
</a>
</g>
</g>
<!-- Node2&#45;&gt;Node7 -->
<g id="edge6" class="edge">
<title>Node2&#45;&gt;Node7</title>
<path fill="none" stroke="#191970" d="M82.1658,-200.2587C92.8805,-201.8295 104.3411,-203.5096 115.2317,-205.1061"/>
<polygon fill="#191970" stroke="#191970" points="82.5664,-196.7801 72.1644,-198.7926 81.551,-203.7061 82.5664,-196.7801"/>
</g>
<!-- Node8 -->
<g id="node7" class="node">
<title>Node8</title>
<g id="a_node7"><a xlink:href="capturing_8hpp.xhtml#a8fd309d5e9252e6de3b1bea1802e8453" target="_top" xlink:title="Parses IP header. ">
<polygon fill="#ffffff" stroke="#000000" points="140.9917,-166.5 140.9917,-184.5 190.3462,-184.5 190.3462,-166.5 140.9917,-166.5"/>
<text text-anchor="middle" x="165.6689" y="-172.5" font-family="Helvetica,sans-Serif" font-size="10.00" fill="#000000">parseIp</text>
</a>
</g>
</g>
<!-- Node2&#45;&gt;Node8 -->
<g id="edge7" class="edge">
<title>Node2&#45;&gt;Node8</title>
<path fill="none" stroke="#191970" d="M82.2217,-187.0892C101.9779,-184.3455 124.2609,-181.2508 140.8279,-178.9499"/>
<polygon fill="#191970" stroke="#191970" points="81.5879,-183.6436 72.1644,-188.486 82.5508,-190.577 81.5879,-183.6436"/>
</g>
<!-- Node9 -->
<g id="node8" class="node">
<title>Node9</title>
<g id="a_node8"><a xlink:href="capturing_8hpp.xhtml#a30a4aa41a243aeb1e88c49d09e65a48e" target="_top" xlink:title="Parses layer 4 header. ">
<polygon fill="#ffffff" stroke="#000000" points="133.4917,-129.5 133.4917,-147.5 197.8462,-147.5 197.8462,-129.5 133.4917,-129.5"/>
<text text-anchor="middle" x="165.6689" y="-135.5" font-family="Helvetica,sans-Serif" font-size="10.00" fill="#000000">parsePorts</text>
</a>
</g>
</g>
<!-- Node2&#45;&gt;Node9 -->
<g id="edge8" class="edge">
<title>Node2&#45;&gt;Node9</title>
<path fill="none" stroke="#191970" d="M61.8234,-179.4954C75.3823,-172.4166 92.4134,-163.9778 108.123,-157.5 116.877,-153.8903 126.5883,-150.4704 135.5018,-147.5529"/>
<polygon fill="#191970" stroke="#191970" points="59.8322,-176.5893 52.6326,-184.3621 63.108,-182.7756 59.8322,-176.5893"/>
</g>
<!-- Node10 -->
<g id="node9" class="node">
<title>Node10</title>
<g id="a_node9"><a xlink:href="capturing_8hpp.xhtml#a8ee3282bc313e547dbbb8d4f4010db61" target="_top" xlink:title="Signal handler function. ">
<polygon fill="#ffffff" stroke="#000000" points="127.0952,-92.5 127.0952,-110.5 204.2427,-110.5 204.2427,-92.5 127.0952,-92.5"/>
<text text-anchor="middle" x="165.6689" y="-98.5" font-family="Helvetica,sans-Serif" font-size="10.00" fill="#000000">signalHandler</text>
</a>
</g>
</g>
<!-- Node2&#45;&gt;Node10 -->
<g id="edge9" class="edge">
<title>Node2&#45;&gt;Node10</title>
<path fill="none" stroke="#191970" d="M48.8882,-175.9884C62.0179,-159.239 83.8864,-134.39 108.123,-119.5 114.0097,-115.8835 120.686,-112.9353 127.3535,-110.5513"/>
<polygon fill="#191970" stroke="#191970" points="45.8003,-174.267 42.5335,-184.3456 51.3724,-178.504 45.8003,-174.267"/>
</g>
<!-- Node11 -->
<g id="node10" class="node">
<title>Node11</title>
<g id="a_node10"><a xlink:href="file_handler_8cpp.xhtml#a4059ecb3af96ce5609c0e1dd27de8297" target="_top" xlink:title="Creates the output file and writes SectionHeaderBlock and InterfaceDescriptionBlock to the file...">
<polygon fill="#ffffff" stroke="#000000" points="117.9424,-37.5 117.9424,-55.5 213.3955,-55.5 213.3955,-37.5 117.9424,-37.5"/>
<text text-anchor="middle" x="165.6689" y="-43.5" font-family="Helvetica,sans-Serif" font-size="10.00" fill="#000000">NAMON::initOFile</text>
</a>
</g>
</g>
<!-- Node2&#45;&gt;Node11 -->
<g id="edge12" class="edge">
<title>Node2&#45;&gt;Node11</title>
<path fill="none" stroke="#191970" d="M44.8654,-174.9924C56.7444,-151.4273 79.7251,-110.4251 108.123,-82.5 119.4665,-71.3454 134.8492,-61.9441 146.8565,-55.549"/>
<polygon fill="#191970" stroke="#191970" points="41.6055,-173.6907 40.3396,-184.2096 47.8889,-176.776 41.6055,-173.6907"/>
</g>
<!-- Node12 -->
<g id="node11" class="node">
<title>Node12</title>
<g id="a_node11"><a xlink:href="namon__linux_8cpp.xhtml#af8138eb0e99de9e8740d0b93c935a759" target="_top" xlink:title="NAMON::getApp">
<polygon fill="#ffffff" stroke="#000000" points="120.4326,-.5 120.4326,-18.5 210.9053,-18.5 210.9053,-.5 120.4326,-.5"/>
<text text-anchor="middle" x="165.6689" y="-6.5" font-family="Helvetica,sans-Serif" font-size="10.00" fill="#000000">NAMON::getApp</text>
</a>
</g>
</g>
<!-- Node2&#45;&gt;Node12 -->
<g id="edge14" class="edge">
<title>Node2&#45;&gt;Node12</title>
<path fill="none" stroke="#191970" d="M39.0612,-174.3006C45.4479,-139.8721 63.6187,-67.504 108.123,-27.5 112.2491,-23.7911 117.1333,-20.8465 122.2848,-18.5085"/>
<polygon fill="#191970" stroke="#191970" points="35.5665,-173.9726 37.3261,-184.4203 42.4658,-175.1556 35.5665,-173.9726"/>
</g>
<!-- Node3&#45;&gt;Node4 -->
<g id="edge2" class="edge">
<title>Node3&#45;&gt;Node4</title>
<path fill="none" stroke="#191970" d="M233.2889,-355.0693C241.8938,-353.9965 250.6464,-352.9052 259.1003,-351.8512"/>
<polygon fill="#191970" stroke="#191970" points="232.7724,-351.6065 223.2822,-356.3169 233.6385,-358.5527 232.7724,-351.6065"/>
</g>
<!-- Node10&#45;&gt;Node5 -->
<g id="edge10" class="edge">
<title>Node10&#45;&gt;Node5</title>
<path fill="none" stroke="#191970" d="M211.3812,-114.0804C215.4638,-115.7148 219.4665,-117.5193 223.2148,-119.5 258.109,-137.9382 292.9041,-169.7433 308.9269,-185.3388"/>
<polygon fill="#191970" stroke="#191970" points="212.3856,-110.721 201.7918,-110.5723 209.9806,-117.2949 212.3856,-110.721"/>
</g>
<!-- Node11&#45;&gt;Node11 -->
<g id="edge13" class="edge">
<title>Node11&#45;&gt;Node11</title>
<path fill="none" stroke="#191970" d="M141.7206,-64.477C142.4283,-69.832 150.4111,-74 165.6689,-74 188.9189,-74 195.2764,-64.322 184.7412,-55.5134"/>
<polygon fill="#191970" stroke="#191970" points="144.8926,-65.9703 146.5967,-55.5134 138.7435,-62.6253 144.8926,-65.9703"/>
</g>
</g>
</svg>
