<?xml version="1.0" encoding="UTF-8" standalone="no"?>
<!DOCTYPE svg PUBLIC "-//W3C//DTD SVG 1.1//EN"
 "http://www.w3.org/Graphics/SVG/1.1/DTD/svg11.dtd">
<!-- Generated by graphviz version 2.40.1 (20161225.0304)
 -->
<!-- Title: TOOL::log Pages: 1 -->
<svg width="467pt" height="438pt"
 viewBox="0.00 0.00 467.37 438.00" xmlns="http://www.w3.org/2000/svg" xmlns:xlink="http://www.w3.org/1999/xlink">
<g id="graph0" class="graph" transform="scale(1 1) rotate(0) translate(4 434)">
<title>TOOL::log</title>
<polygon fill="#ffffff" stroke="transparent" points="-4,4 -4,-434 463.3682,-434 463.3682,4 -4,4"/>
<!-- Node2 -->
<g id="node1" class="node">
<title>Node2</title>
<polygon fill="#bfbfbf" stroke="#000000" points="0,-223.5 0,-241.5 61.9521,-241.5 61.9521,-223.5 0,-223.5"/>
<text text-anchor="middle" x="30.9761" y="-229.5" font-family="Helvetica,sans-Serif" font-size="10.00" fill="#000000">TOOL::log</text>
</g>
<!-- Node2&#45;&gt;Node2 -->
<g id="edge11" class="edge">
<title>Node2&#45;&gt;Node2</title>
<path fill="none" stroke="#191970" d="M8.1503,-250.477C8.8249,-255.832 16.4335,-260 30.9761,-260 53.1362,-260 59.1956,-250.322 49.1543,-241.5134"/>
<polygon fill="#191970" stroke="#191970" points="11.302,-252.0022 12.7978,-241.5134 5.0876,-248.78 11.302,-252.0022"/>
</g>
<!-- Node3 -->
<g id="node2" class="node">
<title>Node3</title>
<g id="a_node2"><a xlink:href="class_t_o_o_l_1_1_t_tree.xhtml#a16d14c1d6d1c451e569a3e0b5e459248" target="_top" xlink:title="Function inserts a new TEntry into a decision tree. ">
<polygon fill="#ffffff" stroke="#000000" points="100.9258,-411.5 100.9258,-429.5 205.8467,-429.5 205.8467,-411.5 100.9258,-411.5"/>
<text text-anchor="middle" x="153.3862" y="-417.5" font-family="Helvetica,sans-Serif" font-size="10.00" fill="#000000">TOOL::TTree::insert</text>
</a>
</g>
</g>
<!-- Node2&#45;&gt;Node3 -->
<g id="edge1" class="edge">
<title>Node2&#45;&gt;Node3</title>
<path fill="none" stroke="#191970" d="M33.9245,-251.4836C40.0544,-284.9524 57.1584,-354.8461 97.9521,-396.5 104.3361,-403.0185 112.7832,-407.8783 121.1539,-411.454"/>
<polygon fill="#191970" stroke="#191970" points="37.3748,-250.895 32.2481,-241.6231 30.4738,-252.0683 37.3748,-250.895"/>
</g>
<!-- Node4 -->
<g id="node3" class="node">
<title>Node4</title>
<g id="a_node3"><a xlink:href="class_t_o_o_l_1_1_cache.xhtml#a5936010932979fe258f3e501b5aec703" target="_top" xlink:title="Function inserts new TEntry into the TTree node. ">
<polygon fill="#ffffff" stroke="#000000" points="244.8203,-392.5 244.8203,-410.5 352.3438,-410.5 352.3438,-392.5 244.8203,-392.5"/>
<text text-anchor="middle" x="298.582" y="-398.5" font-family="Helvetica,sans-Serif" font-size="10.00" fill="#000000">TOOL::Cache::insert</text>
</a>
</g>
</g>
<!-- Node2&#45;&gt;Node4 -->
<g id="edge3" class="edge">
<title>Node2&#45;&gt;Node4</title>
<path fill="none" stroke="#191970" d="M35.5276,-251.2528C43.3259,-279.1903 61.996,-331.354 97.9521,-358.5 140.1708,-390.374 200.9193,-399.7383 244.4939,-401.9823"/>
<polygon fill="#191970" stroke="#191970" points="38.8992,-250.3113 32.9818,-241.523 32.1272,-252.0833 38.8992,-250.3113"/>
</g>
<!-- Node5 -->
<g id="node4" class="node">
<title>Node5</title>
<g id="a_node4"><a xlink:href="capturing_8hpp.xhtml#a796d8f82917739002736e8d61c6fb635" target="_top" xlink:title="Starts network traffic capture. ">
<polygon fill="#ffffff" stroke="#000000" points="388.3438,-148.5 388.3438,-166.5 459.3682,-166.5 459.3682,-148.5 388.3438,-148.5"/>
<text text-anchor="middle" x="423.856" y="-154.5" font-family="Helvetica,sans-Serif" font-size="10.00" fill="#000000">startCapture</text>
</a>
</g>
</g>
<!-- Node2&#45;&gt;Node5 -->
<g id="edge4" class="edge">
<title>Node2&#45;&gt;Node5</title>
<path fill="none" stroke="#191970" d="M38.0734,-251.0096C47.7761,-273.3685 67.5285,-309.9182 97.9521,-325.5 141.8094,-347.962 162.23,-341.542 208.8203,-325.5 304.6801,-292.4935 390.5394,-197.2728 416.1318,-166.9169"/>
<polygon fill="#191970" stroke="#191970" points="41.2461,-249.5215 34.2172,-241.5941 34.7684,-252.1745 41.2461,-249.5215"/>
</g>
<!-- Node6 -->
<g id="node5" class="node">
<title>Node6</title>
<g id="a_node5"><a xlink:href="capturing_8hpp.xhtml#a5b519a162338237e3935db3c8a3f8638" target="_top" xlink:title="Function that processes every packet. ">
<polygon fill="#ffffff" stroke="#000000" points="113.145,-297.5 113.145,-315.5 193.6274,-315.5 193.6274,-297.5 113.145,-297.5"/>
<text text-anchor="middle" x="153.3862" y="-303.5" font-family="Helvetica,sans-Serif" font-size="10.00" fill="#000000">packetHandler</text>
</a>
</g>
</g>
<!-- Node2&#45;&gt;Node6 -->
<g id="edge5" class="edge">
<title>Node2&#45;&gt;Node6</title>
<path fill="none" stroke="#191970" d="M46.7866,-248.7644C59.5915,-261.1394 78.6206,-277.8088 97.9521,-288.5 104.3275,-292.0258 111.5017,-294.9922 118.521,-297.435"/>
<polygon fill="#191970" stroke="#191970" points="49.2355,-246.2637 39.6711,-241.706 44.3058,-251.2334 49.2355,-246.2637"/>
</g>
<!-- Node7 -->
<g id="node6" class="node">
<title>Node7</title>
<g id="a_node6"><a xlink:href="capturing_8hpp.xhtml#a66d66c5f9a4235b784cbae69bcfefbd1" target="_top" xlink:title="Determines packet derection. ">
<polygon fill="#ffffff" stroke="#000000" points="103.4209,-260.5 103.4209,-278.5 203.3516,-278.5 203.3516,-260.5 103.4209,-260.5"/>
<text text-anchor="middle" x="153.3862" y="-266.5" font-family="Helvetica,sans-Serif" font-size="10.00" fill="#000000">getPacketDirection</text>
</a>
</g>
</g>
<!-- Node2&#45;&gt;Node7 -->
<g id="edge6" class="edge">
<title>Node2&#45;&gt;Node7</title>
<path fill="none" stroke="#191970" d="M70.6512,-244.4923C87.7642,-249.6649 107.4508,-255.6155 123.3262,-260.414"/>
<polygon fill="#191970" stroke="#191970" points="71.5059,-241.0943 60.921,-241.5512 69.4806,-247.7949 71.5059,-241.0943"/>
</g>
<!-- Node8 -->
<g id="node7" class="node">
<title>Node8</title>
<g id="a_node7"><a xlink:href="capturing_8hpp.xhtml#a8fd309d5e9252e6de3b1bea1802e8453" target="_top" xlink:title="Parses IP header. ">
<polygon fill="#ffffff" stroke="#000000" points="128.709,-223.5 128.709,-241.5 178.0635,-241.5 178.0635,-223.5 128.709,-223.5"/>
<text text-anchor="middle" x="153.3862" y="-229.5" font-family="Helvetica,sans-Serif" font-size="10.00" fill="#000000">parseIp</text>
</a>
</g>
</g>
<!-- Node2&#45;&gt;Node8 -->
<g id="edge7" class="edge">
<title>Node2&#45;&gt;Node8</title>
<path fill="none" stroke="#191970" d="M72.1987,-232.5C90.8347,-232.5 112.247,-232.5 128.4014,-232.5"/>
<polygon fill="#191970" stroke="#191970" points="72.1821,-229.0001 62.1821,-232.5 72.182,-236.0001 72.1821,-229.0001"/>
</g>
<!-- Node9 -->
<g id="node8" class="node">
<title>Node9</title>
<g id="a_node8"><a xlink:href="capturing_8hpp.xhtml#a30a4aa41a243aeb1e88c49d09e65a48e" target="_top" xlink:title="Parses layer 4 header. ">
<polygon fill="#ffffff" stroke="#000000" points="121.209,-186.5 121.209,-204.5 185.5635,-204.5 185.5635,-186.5 121.209,-186.5"/>
<text text-anchor="middle" x="153.3862" y="-192.5" font-family="Helvetica,sans-Serif" font-size="10.00" fill="#000000">parsePorts</text>
</a>
</g>
</g>
<!-- Node2&#45;&gt;Node9 -->
<g id="edge8" class="edge">
<title>Node2&#45;&gt;Node9</title>
<path fill="none" stroke="#191970" d="M70.6512,-220.5077C87.7642,-215.3351 107.4508,-209.3845 123.3262,-204.586"/>
<polygon fill="#191970" stroke="#191970" points="69.4806,-217.2051 60.921,-223.4488 71.5059,-223.9057 69.4806,-217.2051"/>
</g>
<!-- Node10 -->
<g id="node9" class="node">
<title>Node10</title>
<g id="a_node9"><a xlink:href="capturing_8hpp.xhtml#a8ee3282bc313e547dbbb8d4f4010db61" target="_top" xlink:title="Signal handler function. ">
<polygon fill="#ffffff" stroke="#000000" points="260.0083,-148.5 260.0083,-166.5 337.1558,-166.5 337.1558,-148.5 260.0083,-148.5"/>
<text text-anchor="middle" x="298.582" y="-154.5" font-family="Helvetica,sans-Serif" font-size="10.00" fill="#000000">signalHandler</text>
</a>
</g>
</g>
<!-- Node2&#45;&gt;Node10 -->
<g id="edge9" class="edge">
<title>Node2&#45;&gt;Node10</title>
<path fill="none" stroke="#191970" d="M45.8489,-215.796C58.3676,-202.9489 77.468,-186.0027 97.9521,-177.5 150.8112,-155.559 217.9884,-153.4861 259.6332,-154.8528"/>
<polygon fill="#191970" stroke="#191970" points="43.2375,-213.4641 38.9513,-223.1532 48.3442,-218.2518 43.2375,-213.4641"/>
</g>
<!-- Node11 -->
<g id="node10" class="node">
<title>Node11</title>
<g id="a_node10"><a xlink:href="file_handler_8cpp.xhtml#a9fb5f617541ea7938831450d69157f60" target="_top" xlink:title="Creates the output file and writes SectionHeaderBlock and InterfaceDescriptionBlock to the file...">
<polygon fill="#ffffff" stroke="#000000" points="110.7451,-92.5 110.7451,-110.5 196.0273,-110.5 196.0273,-92.5 110.7451,-92.5"/>
<text text-anchor="middle" x="153.3862" y="-98.5" font-family="Helvetica,sans-Serif" font-size="10.00" fill="#000000">TOOL::initOFile</text>
</a>
</g>
</g>
<!-- Node2&#45;&gt;Node11 -->
<g id="edge12" class="edge">
<title>Node2&#45;&gt;Node11</title>
<path fill="none" stroke="#191970" d="M42.1714,-214.7724C54.5298,-195.947 75.6462,-165.8788 97.9521,-143.5 110.738,-130.6724 127.5722,-118.4576 139.321,-110.5415"/>
<polygon fill="#191970" stroke="#191970" points="39.1756,-212.9599 36.694,-223.26 45.0572,-216.7556 39.1756,-212.9599"/>
</g>
<!-- Node12 -->
<g id="node11" class="node">
<title>Node12</title>
<g id="a_node11"><a xlink:href="tool_8cpp.xhtml#aa97bd89bdff783d43ffca0a0335286f1" target="_top" xlink:title="Identifies application, which has opened socket which belongs to some IP, proto and port...">
<polygon fill="#ffffff" stroke="#000000" points="97.9521,-37.5 97.9521,-55.5 208.8203,-55.5 208.8203,-37.5 97.9521,-37.5"/>
<text text-anchor="middle" x="153.3862" y="-43.5" font-family="Helvetica,sans-Serif" font-size="10.00" fill="#000000">TOOL::determineApp</text>
</a>
</g>
</g>
<!-- Node2&#45;&gt;Node12 -->
<g id="edge14" class="edge">
<title>Node2&#45;&gt;Node12</title>
<path fill="none" stroke="#191970" d="M35.6282,-213.6634C43.9033,-183.2424 63.6188,-122.6562 97.9521,-82.5 107.7957,-70.987 122.2263,-61.7755 133.8965,-55.553"/>
<polygon fill="#191970" stroke="#191970" points="32.2224,-212.8534 33.0912,-223.4126 38.9968,-214.6163 32.2224,-212.8534"/>
</g>
<!-- Node14 -->
<g id="node13" class="node">
<title>Node14</title>
<g id="a_node13"><a xlink:href="tool__linux_8cpp.xhtml#acecfe465c85a3ca3a91897379f4de033" target="_top" xlink:title="TOOL::getApp">
<polygon fill="#ffffff" stroke="#000000" points="113.2354,-.5 113.2354,-18.5 193.5371,-18.5 193.5371,-.5 113.2354,-.5"/>
<text text-anchor="middle" x="153.3862" y="-6.5" font-family="Helvetica,sans-Serif" font-size="10.00" fill="#000000">TOOL::getApp</text>
</a>
</g>
</g>
<!-- Node2&#45;&gt;Node14 -->
<g id="edge19" class="edge">
<title>Node2&#45;&gt;Node14</title>
<path fill="none" stroke="#191970" d="M34.9062,-213.3937C44.6379,-167.7908 71.0234,-54.38 97.9521,-27.5 102.249,-23.2109 107.5768,-19.9436 113.2162,-17.4546"/>
<polygon fill="#191970" stroke="#191970" points="31.4759,-212.6988 32.8477,-223.2045 38.3267,-214.1363 31.4759,-212.6988"/>
</g>
<!-- Node3&#45;&gt;Node4 -->
<g id="edge2" class="edge">
<title>Node3&#45;&gt;Node4</title>
<path fill="none" stroke="#191970" d="M216.3146,-412.2653C225.7294,-411.0333 235.365,-409.7724 244.5729,-408.5675"/>
<polygon fill="#191970" stroke="#191970" points="215.6773,-408.8188 206.216,-413.5868 216.5856,-415.7596 215.6773,-408.8188"/>
</g>
<!-- Node10&#45;&gt;Node5 -->
<g id="edge10" class="edge">
<title>Node10&#45;&gt;Node5</title>
<path fill="none" stroke="#191970" d="M347.3607,-157.5C360.9531,-157.5 375.462,-157.5 388.15,-157.5"/>
<polygon fill="#191970" stroke="#191970" points="347.1906,-154.0001 337.1905,-157.5 347.1905,-161.0001 347.1906,-154.0001"/>
</g>
<!-- Node11&#45;&gt;Node11 -->
<g id="edge13" class="edge">
<title>Node11&#45;&gt;Node11</title>
<path fill="none" stroke="#191970" d="M130.5605,-119.477C131.235,-124.832 138.8436,-129 153.3862,-129 175.5464,-129 181.6058,-119.322 171.5645,-110.5134"/>
<polygon fill="#191970" stroke="#191970" points="133.7121,-121.0022 135.208,-110.5134 127.4978,-117.78 133.7121,-121.0022"/>
</g>
<!-- Node12&#45;&gt;Node12 -->
<g id="edge15" class="edge">
<title>Node12&#45;&gt;Node12</title>
<path fill="none" stroke="#191970" d="M130.5605,-64.477C131.235,-69.832 138.8436,-74 153.3862,-74 175.5464,-74 181.6058,-64.322 171.5645,-55.5134"/>
<polygon fill="#191970" stroke="#191970" points="133.7121,-66.0022 135.208,-55.5134 127.4978,-62.78 133.7121,-66.0022"/>
</g>
<!-- Node13 -->
<g id="node12" class="node">
<title>Node13</title>
<g id="a_node12"><a xlink:href="tool__apple_8cpp.xhtml#abffa8d5a00da5ef52e025864e1b86829" target="_top" xlink:title="Sets mac address of g_dev interface into g_devMac. ">
<polygon fill="#ffffff" stroke="#000000" points="249.271,-65.5 249.271,-83.5 347.8931,-83.5 347.8931,-65.5 249.271,-65.5"/>
<text text-anchor="middle" x="298.582" y="-71.5" font-family="Helvetica,sans-Serif" font-size="10.00" fill="#000000">TOOL::setDevMac</text>
</a>
</g>
</g>
<!-- Node12&#45;&gt;Node13 -->
<g id="edge16" class="edge">
<title>Node12&#45;&gt;Node13</title>
<path fill="none" stroke="#191970" d="M209.9463,-57.4072C223.6689,-60.0535 238.1963,-62.855 251.4317,-65.4074"/>
<polygon fill="#191970" stroke="#191970" points="210.6082,-53.9704 200.1263,-55.5135 209.2826,-60.8438 210.6082,-53.9704"/>
</g>
<!-- Node13&#45;&gt;Node5 -->
<g id="edge17" class="edge">
<title>Node13&#45;&gt;Node5</title>
<path fill="none" stroke="#191970" d="M320.8669,-89.2648C346.6541,-106.3501 388.3294,-133.962 409.9086,-148.2592"/>
<polygon fill="#191970" stroke="#191970" points="322.7367,-86.3051 312.4672,-83.6996 318.8704,-92.1405 322.7367,-86.3051"/>
</g>
<!-- Node13&#45;&gt;Node13 -->
<g id="edge18" class="edge">
<title>Node13&#45;&gt;Node13</title>
<path fill="none" stroke="#191970" d="M275.3821,-92.477C276.0677,-97.832 283.801,-102 298.582,-102 321.1055,-102 327.2642,-92.322 317.0583,-83.5134"/>
<polygon fill="#191970" stroke="#191970" points="278.54,-93.9919 280.1058,-83.5134 272.3472,-90.7284 278.54,-93.9919"/>
</g>
</g>
</svg>
