<?xml version="1.0" encoding="UTF-8" standalone="no"?>
<!DOCTYPE svg PUBLIC "-//W3C//DTD SVG 1.1//EN"
 "http://www.w3.org/Graphics/SVG/1.1/DTD/svg11.dtd">
<!-- Generated by graphviz version 2.40.1 (20161225.0304)
 -->
<!-- Title: NAMON::log Pages: 1 -->
<svg width="229pt" height="45pt"
 viewBox="0.00 0.00 228.83 45.00" xmlns="http://www.w3.org/2000/svg" xmlns:xlink="http://www.w3.org/1999/xlink">
<g id="graph0" class="graph" transform="scale(1 1) rotate(0) translate(4 41)">
<title>NAMON::log</title>
<polygon fill="#ffffff" stroke="transparent" points="-4,4 -4,-41 224.832,-41 224.832,4 -4,4"/>
<!-- Node0 -->
<g id="node1" class="node">
<title>Node0</title>
<polygon fill="#bfbfbf" stroke="#000000" points="0,-.5 0,-18.5 72.123,-18.5 72.123,-.5 0,-.5"/>
<text text-anchor="middle" x="36.0615" y="-6.5" font-family="Helvetica,sans-Serif" font-size="10.00" fill="#000000">NAMON::log</text>
</g>
<!-- Node0&#45;&gt;Node0 -->
<g id="edge1" class="edge">
<title>Node0&#45;&gt;Node0</title>
<path fill="none" stroke="#191970" d="M16.9893,-18.5134C6.4541,-27.322 12.8115,-37 36.0615,-37 51.3193,-37 59.3021,-32.832 60.0099,-27.477"/>
<polygon fill="#191970" stroke="#191970" points="62.987,-25.6253 55.1338,-18.5134 56.8379,-28.9703 62.987,-25.6253"/>
</g>
<!-- Node1 -->
<g id="node2" class="node">
<title>Node1</title>
<g id="a_node2"><a xlink:href="debug_8cpp.xhtml#a1a395cd89e6df6f9fd16ed25601ac351" target="_top" xlink:title="Sets #NAMON::generalLogLevel;. ">
<polygon fill="#ffffff" stroke="#000000" points="108.123,-.5 108.123,-18.5 220.832,-18.5 220.832,-.5 108.123,-.5"/>
<text text-anchor="middle" x="164.4775" y="-6.5" font-family="Helvetica,sans-Serif" font-size="10.00" fill="#000000">NAMON::setLogLevel</text>
</a>
</g>
</g>
<!-- Node0&#45;&gt;Node1 -->
<g id="edge2" class="edge">
<title>Node0&#45;&gt;Node1</title>
<path fill="none" stroke="#191970" d="M72.1743,-9.5C80.2592,-9.5 89.0844,-9.5 97.9684,-9.5"/>
<polygon fill="#191970" stroke="#191970" points="97.9875,-13.0001 107.9874,-9.5 97.9874,-6.0001 97.9875,-13.0001"/>
</g>
<!-- Node1&#45;&gt;Node1 -->
<g id="edge3" class="edge">
<title>Node1&#45;&gt;Node1</title>
<path fill="none" stroke="#191970" d="M145.4053,-18.5134C134.8701,-27.322 141.2275,-37 164.4775,-37 179.7354,-37 187.7181,-32.832 188.4259,-27.477"/>
<polygon fill="#191970" stroke="#191970" points="191.403,-25.6253 183.5498,-18.5134 185.2539,-28.9703 191.403,-25.6253"/>
</g>
</g>
</svg>
