<?xml version="1.0" encoding="UTF-8" standalone="no"?>
<!DOCTYPE svg PUBLIC "-//W3C//DTD SVG 1.1//EN"
 "http://www.w3.org/Graphics/SVG/1.1/DTD/svg11.dtd">
<!-- Generated by graphviz version 2.40.1 (20161225.0304)
 -->
<!-- Title: src/debug.hpp Pages: 1 -->
<svg width="124pt" height="82pt"
 viewBox="0.00 0.00 123.79 82.00" xmlns="http://www.w3.org/2000/svg" xmlns:xlink="http://www.w3.org/1999/xlink">
<g id="graph0" class="graph" transform="scale(1 1) rotate(0) translate(4 78)">
<title>src/debug.hpp</title>
<polygon fill="#ffffff" stroke="transparent" points="-4,4 -4,-78 119.7881,-78 119.7881,4 -4,4"/>
<!-- Node0 -->
<g id="node1" class="node">
<title>Node0</title>
<polygon fill="#bfbfbf" stroke="#000000" points="20.4829,-55.5 20.4829,-73.5 99.8618,-73.5 99.8618,-55.5 20.4829,-55.5"/>
<text text-anchor="middle" x="60.1724" y="-61.5" font-family="Helvetica,sans-Serif" font-size="10.00" fill="#000000">src/debug.hpp</text>
</g>
<!-- Node1 -->
<g id="node2" class="node">
<title>Node1</title>
<polygon fill="#ffffff" stroke="#bfbfbf" points="0,-.5 0,-18.5 54.3447,-18.5 54.3447,-.5 0,-.5"/>
<text text-anchor="middle" x="27.1724" y="-6.5" font-family="Helvetica,sans-Serif" font-size="10.00" fill="#000000">iostream</text>
</g>
<!-- Node0&#45;&gt;Node1 -->
<g id="edge1" class="edge">
<title>Node0&#45;&gt;Node1</title>
<path fill="none" stroke="#191970" d="M54.7231,-55.4179C50.1648,-47.8207 43.524,-36.7527 37.9043,-27.3866"/>
<polygon fill="#191970" stroke="#191970" points="40.8863,-25.5536 32.74,-18.7795 34.8838,-29.1552 40.8863,-25.5536"/>
</g>
<!-- Node2 -->
<g id="node3" class="node">
<title>Node2</title>
<polygon fill="#ffffff" stroke="#bfbfbf" points="72.5566,-.5 72.5566,-18.5 115.7881,-18.5 115.7881,-.5 72.5566,-.5"/>
<text text-anchor="middle" x="94.1724" y="-6.5" font-family="Helvetica,sans-Serif" font-size="10.00" fill="#000000">mutex</text>
</g>
<!-- Node0&#45;&gt;Node2 -->
<g id="edge2" class="edge">
<title>Node0&#45;&gt;Node2</title>
<path fill="none" stroke="#191970" d="M65.7868,-55.4179C70.4832,-47.8207 77.3253,-36.7527 83.1152,-27.3866"/>
<polygon fill="#191970" stroke="#191970" points="86.1548,-29.1258 88.436,-18.7795 80.2006,-25.445 86.1548,-29.1258"/>
</g>
</g>
</svg>
