<?xml version="1.0" encoding="UTF-8" standalone="no"?>
<!DOCTYPE svg PUBLIC "-//W3C//DTD SVG 1.1//EN"
 "http://www.w3.org/Graphics/SVG/1.1/DTD/svg11.dtd">
<!-- Generated by graphviz version 2.40.1 (20161225.0304)
 -->
<!-- Title: NAMON::setLogLevel Pages: 1 -->
<svg width="534pt" height="381pt"
 viewBox="0.00 0.00 533.62 381.00" xmlns="http://www.w3.org/2000/svg" xmlns:xlink="http://www.w3.org/1999/xlink">
<g id="graph0" class="graph" transform="scale(1 1) rotate(0) translate(4 377)">
<title>NAMON::setLogLevel</title>
<polygon fill="#ffffff" stroke="transparent" points="-4,4 -4,-377 529.6182,-377 529.6182,4 -4,4"/>
<!-- Node16 -->
<g id="node1" class="node">
<title>Node16</title>
<polygon fill="#bfbfbf" stroke="#000000" points="0,-184.5 0,-202.5 112.709,-202.5 112.709,-184.5 0,-184.5"/>
<text text-anchor="middle" x="56.3545" y="-190.5" font-family="Helvetica,sans-Serif" font-size="10.00" fill="#000000">NAMON::setLogLevel</text>
</g>
<!-- Node16&#45;&gt;Node16 -->
<g id="edge1" class="edge">
<title>Node16&#45;&gt;Node16</title>
<path fill="none" stroke="#191970" d="M32.4061,-211.477C33.1139,-216.832 41.0967,-221 56.3545,-221 79.6045,-221 85.9619,-211.322 75.4268,-202.5134"/>
<polygon fill="#191970" stroke="#191970" points="35.5781,-212.9703 37.2822,-202.5134 29.4291,-209.6253 35.5781,-212.9703"/>
</g>
<!-- Node17 -->
<g id="node2" class="node">
<title>Node17</title>
<g id="a_node2"><a xlink:href="debug_8hpp.xhtml#a9f1c1527f51faaaca3be83b5a8928ca5" target="_top" xlink:title="Function that prints log messages. ">
<polygon fill="#ffffff" stroke="#000000" points="148.709,-184.5 148.709,-202.5 220.832,-202.5 220.832,-184.5 148.709,-184.5"/>
<text text-anchor="middle" x="184.7705" y="-190.5" font-family="Helvetica,sans-Serif" font-size="10.00" fill="#000000">NAMON::log</text>
</a>
</g>
</g>
<!-- Node16&#45;&gt;Node17 -->
<g id="edge2" class="edge">
<title>Node16&#45;&gt;Node17</title>
<path fill="none" stroke="#191970" d="M123.3044,-193.5C132.0433,-193.5 140.7143,-193.5 148.6684,-193.5"/>
<polygon fill="#191970" stroke="#191970" points="123.0535,-190.0001 113.0534,-193.5 123.0534,-197.0001 123.0535,-190.0001"/>
</g>
<!-- Node17&#45;&gt;Node17 -->
<g id="edge13" class="edge">
<title>Node17&#45;&gt;Node17</title>
<path fill="none" stroke="#191970" d="M160.8221,-211.477C161.5299,-216.832 169.5127,-221 184.7705,-221 208.0205,-221 214.3779,-211.322 203.8428,-202.5134"/>
<polygon fill="#191970" stroke="#191970" points="163.9941,-212.9703 165.6982,-202.5134 157.8451,-209.6253 163.9941,-212.9703"/>
</g>
<!-- Node18 -->
<g id="node3" class="node">
<title>Node18</title>
<g id="a_node3"><a xlink:href="class_n_a_m_o_n_1_1_t_tree.xhtml#a7c2a0cc5654377b4b8ca63feb050fa62" target="_top" xlink:title="Function inserts a new TEntry into a decision tree. ">
<polygon fill="#ffffff" stroke="#000000" points="256.832,-354.5 256.832,-372.5 371.9238,-372.5 371.9238,-354.5 256.832,-354.5"/>
<text text-anchor="middle" x="314.3779" y="-360.5" font-family="Helvetica,sans-Serif" font-size="10.00" fill="#000000">NAMON::TTree::insert</text>
</a>
</g>
</g>
<!-- Node17&#45;&gt;Node18 -->
<g id="edge3" class="edge">
<title>Node17&#45;&gt;Node18</title>
<path fill="none" stroke="#191970" d="M189.4915,-212.579C197.9934,-243.2405 218.6509,-303.6647 256.832,-339.5 263.7777,-346.0189 272.7481,-350.892 281.5305,-354.4805"/>
<polygon fill="#191970" stroke="#191970" points="192.8293,-211.5098 186.8993,-202.73 186.0599,-213.2915 192.8293,-211.5098"/>
</g>
<!-- Node19 -->
<g id="node4" class="node">
<title>Node19</title>
<g id="a_node4"><a xlink:href="class_n_a_m_o_n_1_1_cache.xhtml#a7a097b6420be4d276bca506ff7ffe6bb" target="_top" xlink:title="Function inserts new TEntry into the TTree node. ">
<polygon fill="#ffffff" stroke="#000000" points="407.9238,-335.5 407.9238,-353.5 525.6182,-353.5 525.6182,-335.5 407.9238,-335.5"/>
<text text-anchor="middle" x="466.771" y="-341.5" font-family="Helvetica,sans-Serif" font-size="10.00" fill="#000000">NAMON::Cache::insert</text>
</a>
</g>
</g>
<!-- Node17&#45;&gt;Node19 -->
<g id="edge5" class="edge">
<title>Node17&#45;&gt;Node19</title>
<path fill="none" stroke="#191970" d="M193.7982,-211.7935C205.4064,-233.3996 227.6029,-268.876 256.832,-288.5 302.087,-318.8836 363.1415,-332.8089 407.7407,-339.1755"/>
<polygon fill="#191970" stroke="#191970" points="196.7941,-209.967 189.0938,-202.6899 190.5754,-213.1806 196.7941,-209.967"/>
</g>
<!-- Node20 -->
<g id="node5" class="node">
<title>Node20</title>
<g id="a_node5"><a xlink:href="capturing_8hpp.xhtml#a796d8f82917739002736e8d61c6fb635" target="_top" xlink:title="Starts network traffic capture. ">
<polygon fill="#ffffff" stroke="#000000" points="431.2588,-185.5 431.2588,-203.5 502.2832,-203.5 502.2832,-185.5 431.2588,-185.5"/>
<text text-anchor="middle" x="466.771" y="-191.5" font-family="Helvetica,sans-Serif" font-size="10.00" fill="#000000">startCapture</text>
</a>
</g>
</g>
<!-- Node17&#45;&gt;Node20 -->
<g id="edge6" class="edge">
<title>Node17&#45;&gt;Node20</title>
<path fill="none" stroke="#191970" d="M195.5577,-211.2677C207.8093,-229.5462 229.6702,-256.93 256.832,-268.5 303.8923,-288.5461 323.5531,-285.1372 371.9238,-268.5 409.8434,-255.4575 444.2351,-220.3538 459.061,-203.617"/>
<polygon fill="#191970" stroke="#191970" points="198.3915,-209.2029 190.0495,-202.6712 192.4976,-212.9794 198.3915,-209.2029"/>
</g>
<!-- Node21 -->
<g id="node6" class="node">
<title>Node21</title>
<g id="a_node6"><a xlink:href="capturing_8hpp.xhtml#a5b519a162338237e3935db3c8a3f8638" target="_top" xlink:title="Function that processes every packet. ">
<polygon fill="#ffffff" stroke="#000000" points="274.1367,-240.5 274.1367,-258.5 354.6191,-258.5 354.6191,-240.5 274.1367,-240.5"/>
<text text-anchor="middle" x="314.3779" y="-246.5" font-family="Helvetica,sans-Serif" font-size="10.00" fill="#000000">packetHandler</text>
</a>
</g>
</g>
<!-- Node17&#45;&gt;Node21 -->
<g id="edge7" class="edge">
<title>Node17&#45;&gt;Node21</title>
<path fill="none" stroke="#191970" d="M208.937,-207.6616C222.6817,-215.3522 240.3862,-224.6587 256.832,-231.5 264.7574,-234.7968 273.5098,-237.8284 281.7462,-240.4265"/>
<polygon fill="#191970" stroke="#191970" points="210.5409,-204.5473 200.1181,-202.6456 207.0801,-210.632 210.5409,-204.5473"/>
</g>
<!-- Node22 -->
<g id="node7" class="node">
<title>Node22</title>
<g id="a_node7"><a xlink:href="capturing_8hpp.xhtml#a39b0e4ebc788767093d4663596525c20" target="_top" xlink:title="Determines packet derection. ">
<polygon fill="#ffffff" stroke="#000000" points="264.4126,-203.5 264.4126,-221.5 364.3433,-221.5 364.3433,-203.5 264.4126,-203.5"/>
<text text-anchor="middle" x="314.3779" y="-209.5" font-family="Helvetica,sans-Serif" font-size="10.00" fill="#000000">getPacketDirection</text>
</a>
</g>
</g>
<!-- Node17&#45;&gt;Node22 -->
<g id="edge8" class="edge">
<title>Node17&#45;&gt;Node22</title>
<path fill="none" stroke="#191970" d="M230.8748,-200.2587C241.5895,-201.8295 253.0501,-203.5096 263.9407,-205.1061"/>
<polygon fill="#191970" stroke="#191970" points="231.2753,-196.7801 220.8734,-198.7926 230.26,-203.7061 231.2753,-196.7801"/>
</g>
<!-- Node23 -->
<g id="node8" class="node">
<title>Node23</title>
<g id="a_node8"><a xlink:href="capturing_8hpp.xhtml#a8fd309d5e9252e6de3b1bea1802e8453" target="_top" xlink:title="Parses IP header. ">
<polygon fill="#ffffff" stroke="#000000" points="289.7007,-166.5 289.7007,-184.5 339.0552,-184.5 339.0552,-166.5 289.7007,-166.5"/>
<text text-anchor="middle" x="314.3779" y="-172.5" font-family="Helvetica,sans-Serif" font-size="10.00" fill="#000000">parseIp</text>
</a>
</g>
</g>
<!-- Node17&#45;&gt;Node23 -->
<g id="edge9" class="edge">
<title>Node17&#45;&gt;Node23</title>
<path fill="none" stroke="#191970" d="M230.9306,-187.0892C250.6868,-184.3455 272.9699,-181.2508 289.5369,-178.9499"/>
<polygon fill="#191970" stroke="#191970" points="230.2968,-183.6436 220.8734,-188.486 231.2598,-190.577 230.2968,-183.6436"/>
</g>
<!-- Node24 -->
<g id="node9" class="node">
<title>Node24</title>
<g id="a_node9"><a xlink:href="capturing_8hpp.xhtml#a30a4aa41a243aeb1e88c49d09e65a48e" target="_top" xlink:title="Parses layer 4 header. ">
<polygon fill="#ffffff" stroke="#000000" points="282.2007,-129.5 282.2007,-147.5 346.5552,-147.5 346.5552,-129.5 282.2007,-129.5"/>
<text text-anchor="middle" x="314.3779" y="-135.5" font-family="Helvetica,sans-Serif" font-size="10.00" fill="#000000">parsePorts</text>
</a>
</g>
</g>
<!-- Node17&#45;&gt;Node24 -->
<g id="edge10" class="edge">
<title>Node17&#45;&gt;Node24</title>
<path fill="none" stroke="#191970" d="M210.5324,-179.4954C224.0913,-172.4166 241.1223,-163.9778 256.832,-157.5 265.586,-153.8903 275.2973,-150.4704 284.2108,-147.5529"/>
<polygon fill="#191970" stroke="#191970" points="208.5412,-176.5893 201.3416,-184.3621 211.8169,-182.7756 208.5412,-176.5893"/>
</g>
<!-- Node25 -->
<g id="node10" class="node">
<title>Node25</title>
<g id="a_node10"><a xlink:href="capturing_8hpp.xhtml#a8ee3282bc313e547dbbb8d4f4010db61" target="_top" xlink:title="Signal handler function. ">
<polygon fill="#ffffff" stroke="#000000" points="275.8042,-92.5 275.8042,-110.5 352.9517,-110.5 352.9517,-92.5 275.8042,-92.5"/>
<text text-anchor="middle" x="314.3779" y="-98.5" font-family="Helvetica,sans-Serif" font-size="10.00" fill="#000000">signalHandler</text>
</a>
</g>
</g>
<!-- Node17&#45;&gt;Node25 -->
<g id="edge11" class="edge">
<title>Node17&#45;&gt;Node25</title>
<path fill="none" stroke="#191970" d="M197.5972,-175.9884C210.7269,-159.239 232.5954,-134.39 256.832,-119.5 262.7187,-115.8835 269.395,-112.9353 276.0624,-110.5513"/>
<polygon fill="#191970" stroke="#191970" points="194.5093,-174.267 191.2425,-184.3456 200.0814,-178.504 194.5093,-174.267"/>
</g>
<!-- Node26 -->
<g id="node11" class="node">
<title>Node26</title>
<g id="a_node11"><a xlink:href="file_handler_8cpp.xhtml#a4059ecb3af96ce5609c0e1dd27de8297" target="_top" xlink:title="Creates the output file and writes SectionHeaderBlock and InterfaceDescriptionBlock to the file...">
<polygon fill="#ffffff" stroke="#000000" points="266.6514,-37.5 266.6514,-55.5 362.1045,-55.5 362.1045,-37.5 266.6514,-37.5"/>
<text text-anchor="middle" x="314.3779" y="-43.5" font-family="Helvetica,sans-Serif" font-size="10.00" fill="#000000">NAMON::initOFile</text>
</a>
</g>
</g>
<!-- Node17&#45;&gt;Node26 -->
<g id="edge14" class="edge">
<title>Node17&#45;&gt;Node26</title>
<path fill="none" stroke="#191970" d="M193.5744,-174.9924C205.4534,-151.4273 228.434,-110.4251 256.832,-82.5 268.1755,-71.3454 283.5582,-61.9441 295.5654,-55.549"/>
<polygon fill="#191970" stroke="#191970" points="190.3145,-173.6907 189.0486,-184.2096 196.5979,-176.776 190.3145,-173.6907"/>
</g>
<!-- Node27 -->
<g id="node12" class="node">
<title>Node27</title>
<g id="a_node12"><a xlink:href="namon__linux_8cpp.xhtml#af8138eb0e99de9e8740d0b93c935a759" target="_top" xlink:title="NAMON::getApp">
<polygon fill="#ffffff" stroke="#000000" points="269.1416,-.5 269.1416,-18.5 359.6143,-18.5 359.6143,-.5 269.1416,-.5"/>
<text text-anchor="middle" x="314.3779" y="-6.5" font-family="Helvetica,sans-Serif" font-size="10.00" fill="#000000">NAMON::getApp</text>
</a>
</g>
</g>
<!-- Node17&#45;&gt;Node27 -->
<g id="edge16" class="edge">
<title>Node17&#45;&gt;Node27</title>
<path fill="none" stroke="#191970" d="M187.7702,-174.3006C194.1568,-139.8721 212.3277,-67.504 256.832,-27.5 260.9581,-23.7911 265.8423,-20.8465 270.9938,-18.5085"/>
<polygon fill="#191970" stroke="#191970" points="184.2755,-173.9726 186.0351,-184.4203 191.1748,-175.1556 184.2755,-173.9726"/>
</g>
<!-- Node18&#45;&gt;Node19 -->
<g id="edge4" class="edge">
<title>Node18&#45;&gt;Node19</title>
<path fill="none" stroke="#191970" d="M381.9979,-355.0693C390.6027,-353.9965 399.3554,-352.9052 407.8093,-351.8512"/>
<polygon fill="#191970" stroke="#191970" points="381.4813,-351.6065 371.9912,-356.3169 382.3474,-358.5527 381.4813,-351.6065"/>
</g>
<!-- Node25&#45;&gt;Node20 -->
<g id="edge12" class="edge">
<title>Node25&#45;&gt;Node20</title>
<path fill="none" stroke="#191970" d="M360.0901,-114.0804C364.1728,-115.7148 368.1754,-117.5193 371.9238,-119.5 406.818,-137.9382 441.613,-169.7433 457.6359,-185.3388"/>
<polygon fill="#191970" stroke="#191970" points="361.0946,-110.721 350.5008,-110.5723 358.6896,-117.2949 361.0946,-110.721"/>
</g>
<!-- Node26&#45;&gt;Node26 -->
<g id="edge15" class="edge">
<title>Node26&#45;&gt;Node26</title>
<path fill="none" stroke="#191970" d="M290.4296,-64.477C291.1373,-69.832 299.1201,-74 314.3779,-74 337.6279,-74 343.9854,-64.322 333.4502,-55.5134"/>
<polygon fill="#191970" stroke="#191970" points="293.6016,-65.9703 295.3057,-55.5134 287.4525,-62.6253 293.6016,-65.9703"/>
</g>
</g>
</svg>
