<?xml version="1.0" encoding="UTF-8" standalone="no"?>
<!DOCTYPE svg PUBLIC "-//W3C//DTD SVG 1.1//EN"
 "http://www.w3.org/Graphics/SVG/1.1/DTD/svg11.dtd">
<!-- Generated by graphviz version 2.40.1 (20161225.0304)
 -->
<!-- Title: TOOL::log Pages: 1 -->
<svg width="208pt" height="45pt"
 viewBox="0.00 0.00 208.49 45.00" xmlns="http://www.w3.org/2000/svg" xmlns:xlink="http://www.w3.org/1999/xlink">
<g id="graph0" class="graph" transform="scale(1 1) rotate(0) translate(4 41)">
<title>TOOL::log</title>
<polygon fill="#ffffff" stroke="transparent" points="-4,4 -4,-41 204.4902,-41 204.4902,4 -4,4"/>
<!-- Node0 -->
<g id="node1" class="node">
<title>Node0</title>
<polygon fill="#bfbfbf" stroke="#000000" points="0,-.5 0,-18.5 61.9521,-18.5 61.9521,-.5 0,-.5"/>
<text text-anchor="middle" x="30.9761" y="-6.5" font-family="Helvetica,sans-Serif" font-size="10.00" fill="#000000">TOOL::log</text>
</g>
<!-- Node0&#45;&gt;Node0 -->
<g id="edge1" class="edge">
<title>Node0&#45;&gt;Node0</title>
<path fill="none" stroke="#191970" d="M13.3938,-18.5134C3.6817,-27.322 9.5425,-37 30.9761,-37 45.0419,-37 52.401,-32.832 53.0535,-27.477"/>
<polygon fill="#191970" stroke="#191970" points="56.1698,-25.8834 48.5583,-18.5134 49.9125,-29.0214 56.1698,-25.8834"/>
</g>
<!-- Node1 -->
<g id="node2" class="node">
<title>Node1</title>
<g id="a_node2"><a xlink:href="debug_8cpp.xhtml#ad6ba0645e5c2cdd3f7533aa4f15dbe71" target="_top" xlink:title="Sets #TOOL::generalLogLevel;. ">
<polygon fill="#ffffff" stroke="#000000" points="97.9521,-.5 97.9521,-18.5 200.4902,-18.5 200.4902,-.5 97.9521,-.5"/>
<text text-anchor="middle" x="149.2212" y="-6.5" font-family="Helvetica,sans-Serif" font-size="10.00" fill="#000000">TOOL::setLogLevel</text>
</a>
</g>
</g>
<!-- Node0&#45;&gt;Node1 -->
<g id="edge2" class="edge">
<title>Node0&#45;&gt;Node1</title>
<path fill="none" stroke="#191970" d="M62.0436,-9.5C69.9981,-9.5 78.8346,-9.5 87.7426,-9.5"/>
<polygon fill="#191970" stroke="#191970" points="87.7871,-13.0001 97.7871,-9.5 87.7871,-6.0001 87.7871,-13.0001"/>
</g>
<!-- Node1&#45;&gt;Node1 -->
<g id="edge3" class="edge">
<title>Node1&#45;&gt;Node1</title>
<path fill="none" stroke="#191970" d="M131.6389,-18.5134C121.9268,-27.322 127.7876,-37 149.2212,-37 163.287,-37 170.6461,-32.832 171.2986,-27.477"/>
<polygon fill="#191970" stroke="#191970" points="174.4149,-25.8834 166.8034,-18.5134 168.1576,-29.0214 174.4149,-25.8834"/>
</g>
</g>
</svg>
