<?xml version="1.0" encoding="UTF-8" standalone="no"?>
<!DOCTYPE svg PUBLIC "-//W3C//DTD SVG 1.1//EN"
 "http://www.w3.org/Graphics/SVG/1.1/DTD/svg11.dtd">
<!-- Generated by graphviz version 2.40.1 (20161225.0304)
 -->
<!-- Title: src/debug.hpp Pages: 1 -->
<svg width="994pt" height="247pt"
 viewBox="0.00 0.00 994.24 247.00" xmlns="http://www.w3.org/2000/svg" xmlns:xlink="http://www.w3.org/1999/xlink">
<g id="graph0" class="graph" transform="scale(1 1) rotate(0) translate(4 243)">
<title>src/debug.hpp</title>
<polygon fill="#ffffff" stroke="transparent" points="-4,4 -4,-243 990.2437,-243 990.2437,4 -4,4"/>
<!-- Node3 -->
<g id="node1" class="node">
<title>Node3</title>
<polygon fill="#bfbfbf" stroke="#000000" points="408.1577,-220.5 408.1577,-238.5 487.5366,-238.5 487.5366,-220.5 408.1577,-220.5"/>
<text text-anchor="middle" x="447.8472" y="-226.5" font-family="Helvetica,sans-Serif" font-size="10.00" fill="#000000">src/debug.hpp</text>
</g>
<!-- Node4 -->
<g id="node2" class="node">
<title>Node4</title>
<g id="a_node2"><a xlink:href="cache_8cpp.xhtml" target="_top" xlink:title="Cache implementation sources. ">
<polygon fill="#ffffff" stroke="#000000" points="0,-165.5 0,-183.5 77.6943,-183.5 77.6943,-165.5 0,-165.5"/>
<text text-anchor="middle" x="38.8472" y="-171.5" font-family="Helvetica,sans-Serif" font-size="10.00" fill="#000000">src/cache.cpp</text>
</a>
</g>
</g>
<!-- Node3&#45;&gt;Node4 -->
<g id="edge1" class="edge">
<title>Node3&#45;&gt;Node4</title>
<path fill="none" stroke="#191970" d="M397.8343,-223.9108C328.8459,-216.0181 200.6603,-200.695 91.8472,-184 87.3196,-183.3053 82.5835,-182.5286 77.8846,-181.7266"/>
<polygon fill="#191970" stroke="#191970" points="397.6483,-227.4121 407.9802,-225.0667 398.4407,-220.4571 397.6483,-227.4121"/>
</g>
<!-- Node5 -->
<g id="node3" class="node">
<title>Node5</title>
<g id="a_node3"><a xlink:href="pcapng__blocks_8hpp.xhtml" target="_top" xlink:title="Pcap&#45;ng block structures. ">
<polygon fill="#ffffff" stroke="#000000" points="250.7046,-165.5 250.7046,-183.5 368.9897,-183.5 368.9897,-165.5 250.7046,-165.5"/>
<text text-anchor="middle" x="309.8472" y="-171.5" font-family="Helvetica,sans-Serif" font-size="10.00" fill="#000000">src/pcapng_blocks.hpp</text>
</a>
</g>
</g>
<!-- Node3&#45;&gt;Node5 -->
<g id="edge2" class="edge">
<title>Node3&#45;&gt;Node5</title>
<path fill="none" stroke="#191970" d="M415.475,-216.598C390.0399,-206.4609 355.2539,-192.5969 332.6689,-183.5956"/>
<polygon fill="#191970" stroke="#191970" points="414.474,-219.9668 425.0593,-220.4179 417.0657,-213.4642 414.474,-219.9668"/>
</g>
<!-- Node7 -->
<g id="node5" class="node">
<title>Node7</title>
<g id="a_node5"><a xlink:href="capturing_8cpp.xhtml" target="_top" xlink:title="Network traffic capture sources. ">
<polygon fill="#ffffff" stroke="#000000" points="250.7734,-.5 250.7734,-18.5 342.9209,-18.5 342.9209,-.5 250.7734,-.5"/>
<text text-anchor="middle" x="296.8472" y="-6.5" font-family="Helvetica,sans-Serif" font-size="10.00" fill="#000000">src/capturing.cpp</text>
</a>
</g>
</g>
<!-- Node3&#45;&gt;Node7 -->
<g id="edge10" class="edge">
<title>Node3&#45;&gt;Node7</title>
<path fill="none" stroke="#191970" d="M397.7324,-224.9143C349.5515,-219.3111 275.3319,-207.5086 214.8472,-184 171.1536,-167.0176 147.7778,-169.8866 124.8472,-129 92.0318,-70.4883 195.8557,-34.2458 256.411,-18.5654"/>
<polygon fill="#191970" stroke="#191970" points="397.5753,-228.4184 407.902,-226.0498 398.3521,-221.4617 397.5753,-228.4184"/>
</g>
<!-- Node8 -->
<g id="node6" class="node">
<title>Node8</title>
<g id="a_node6"><a xlink:href="capturing_8hpp.xhtml" target="_top" xlink:title="Network traffic capture header file. ">
<polygon fill="#ffffff" stroke="#000000" points="325.4927,-55.5 325.4927,-73.5 418.2017,-73.5 418.2017,-55.5 325.4927,-55.5"/>
<text text-anchor="middle" x="371.8472" y="-61.5" font-family="Helvetica,sans-Serif" font-size="10.00" fill="#000000">src/capturing.hpp</text>
</a>
</g>
</g>
<!-- Node3&#45;&gt;Node8 -->
<g id="edge11" class="edge">
<title>Node3&#45;&gt;Node8</title>
<path fill="none" stroke="#191970" d="M439.3147,-210.9756C423.0656,-175.698 388.22,-100.0463 376.1038,-73.7414"/>
<polygon fill="#191970" stroke="#191970" points="436.1807,-212.5376 443.5433,-220.1561 442.5387,-209.609 436.1807,-212.5376"/>
</g>
<!-- Node9 -->
<g id="node7" class="node">
<title>Node9</title>
<g id="a_node7"><a xlink:href="main_8cpp.xhtml" target="_top" xlink:title="Main source file. ">
<polygon fill="#ffffff" stroke="#000000" points="385.5049,-.5 385.5049,-18.5 458.1895,-18.5 458.1895,-.5 385.5049,-.5"/>
<text text-anchor="middle" x="421.8472" y="-6.5" font-family="Helvetica,sans-Serif" font-size="10.00" fill="#000000">src/main.cpp</text>
</a>
</g>
</g>
<!-- Node3&#45;&gt;Node9 -->
<g id="edge14" class="edge">
<title>Node3&#45;&gt;Node9</title>
<path fill="none" stroke="#191970" d="M445.5787,-210.3056C440.202,-164.8101 426.8417,-51.7616 422.9359,-18.7122"/>
<polygon fill="#191970" stroke="#191970" points="442.1135,-210.8069 446.7631,-220.327 449.0652,-209.9853 442.1135,-210.8069"/>
</g>
<!-- Node10 -->
<g id="node8" class="node">
<title>Node10</title>
<g id="a_node8"><a xlink:href="file_handler_8cpp.xhtml" target="_top" xlink:title="File handler source file. ">
<polygon fill="#ffffff" stroke="#000000" points="133.7144,-110.5 133.7144,-128.5 231.98,-128.5 231.98,-110.5 133.7144,-110.5"/>
<text text-anchor="middle" x="182.8472" y="-116.5" font-family="Helvetica,sans-Serif" font-size="10.00" fill="#000000">src/fileHandler.cpp</text>
</a>
</g>
</g>
<!-- Node3&#45;&gt;Node10 -->
<g id="edge13" class="edge">
<title>Node3&#45;&gt;Node10</title>
<path fill="none" stroke="#191970" d="M397.7377,-221.9951C345.5844,-213.5608 267.9403,-199.0664 241.8472,-184 217.6649,-170.0369 197.7652,-142.825 188.4844,-128.6227"/>
<polygon fill="#191970" stroke="#191970" points="397.3794,-225.4821 407.8057,-223.5996 398.4811,-218.5694 397.3794,-225.4821"/>
</g>
<!-- Node11 -->
<g id="node9" class="node">
<title>Node11</title>
<g id="a_node9"><a xlink:href="debug_8cpp.xhtml" target="_top" xlink:title="Debug variables. ">
<polygon fill="#ffffff" stroke="#000000" points="475.4385,-165.5 475.4385,-183.5 554.2559,-183.5 554.2559,-165.5 475.4385,-165.5"/>
<text text-anchor="middle" x="514.8472" y="-171.5" font-family="Helvetica,sans-Serif" font-size="10.00" fill="#000000">src/debug.cpp</text>
</a>
</g>
</g>
<!-- Node3&#45;&gt;Node11 -->
<g id="edge12" class="edge">
<title>Node3&#45;&gt;Node11</title>
<path fill="none" stroke="#191970" d="M466.8901,-213.8678C478.7238,-204.1535 493.5358,-191.9944 503.5431,-183.7795"/>
<polygon fill="#191970" stroke="#191970" points="464.4194,-211.3676 458.9109,-220.4179 468.8609,-216.7782 464.4194,-211.3676"/>
</g>
<!-- Node12 -->
<g id="node10" class="node">
<title>Node12</title>
<g id="a_node10"><a xlink:href="namon_8cpp.xhtml" target="_top" xlink:title="Network Traffic Capturing With Application Tags. ">
<polygon fill="#ffffff" stroke="#000000" points="572.0542,-165.5 572.0542,-183.5 653.6401,-183.5 653.6401,-165.5 572.0542,-165.5"/>
<text text-anchor="middle" x="612.8472" y="-171.5" font-family="Helvetica,sans-Serif" font-size="10.00" fill="#000000">src/namon.cpp</text>
</a>
</g>
</g>
<!-- Node3&#45;&gt;Node12 -->
<g id="edge15" class="edge">
<title>Node3&#45;&gt;Node12</title>
<path fill="none" stroke="#191970" d="M484.581,-217.2554C515.2463,-207.0336 558.2524,-192.6983 585.8345,-183.5042"/>
<polygon fill="#191970" stroke="#191970" points="483.4736,-213.9351 475.0936,-220.4179 485.6872,-220.5759 483.4736,-213.9351"/>
</g>
<!-- Node13 -->
<g id="node11" class="node">
<title>Node13</title>
<g id="a_node11"><a xlink:href="namon__linux_8cpp.xhtml" target="_top" xlink:title="Determining applications and their sockets in Linux. ">
<polygon fill="#ffffff" stroke="#000000" points="671.9902,-165.5 671.9902,-183.5 779.7041,-183.5 779.7041,-165.5 671.9902,-165.5"/>
<text text-anchor="middle" x="725.8472" y="-171.5" font-family="Helvetica,sans-Serif" font-size="10.00" fill="#000000">src/namon_linux.cpp</text>
</a>
</g>
</g>
<!-- Node3&#45;&gt;Node13 -->
<g id="edge16" class="edge">
<title>Node3&#45;&gt;Node13</title>
<path fill="none" stroke="#191970" d="M497.6371,-219.6495C549.4284,-209.403 629.8329,-193.4956 680.0798,-183.5547"/>
<polygon fill="#191970" stroke="#191970" points="496.8083,-216.2455 487.6778,-221.6198 498.167,-223.1124 496.8083,-216.2455"/>
</g>
<!-- Node14 -->
<g id="node12" class="node">
<title>Node14</title>
<g id="a_node12"><a xlink:href="namon__win_8cpp.xhtml" target="_top" xlink:title="Determining the applications and their sockets on Windows. ">
<polygon fill="#ffffff" stroke="#000000" points="797.771,-165.5 797.771,-183.5 899.9233,-183.5 899.9233,-165.5 797.771,-165.5"/>
<text text-anchor="middle" x="848.8472" y="-171.5" font-family="Helvetica,sans-Serif" font-size="10.00" fill="#000000">src/namon_win.cpp</text>
</a>
</g>
</g>
<!-- Node3&#45;&gt;Node14 -->
<g id="edge17" class="edge">
<title>Node3&#45;&gt;Node14</title>
<path fill="none" stroke="#191970" d="M497.9887,-223.1982C564.5251,-214.7469 685.6241,-199.0561 788.8472,-184 791.6649,-183.589 794.5557,-183.159 797.4727,-182.7187"/>
<polygon fill="#191970" stroke="#191970" points="497.27,-219.7612 487.7896,-224.4912 498.1505,-226.7056 497.27,-219.7612"/>
</g>
<!-- Node15 -->
<g id="node13" class="node">
<title>Node15</title>
<g id="a_node13"><a xlink:href="utils_8cpp.xhtml" target="_top" xlink:title="Small useful functions. ">
<polygon fill="#ffffff" stroke="#000000" points="917.4507,-165.5 917.4507,-183.5 986.2437,-183.5 986.2437,-165.5 917.4507,-165.5"/>
<text text-anchor="middle" x="951.8472" y="-171.5" font-family="Helvetica,sans-Serif" font-size="10.00" fill="#000000">src/utils.cpp</text>
</a>
</g>
</g>
<!-- Node3&#45;&gt;Node15 -->
<g id="edge18" class="edge">
<title>Node3&#45;&gt;Node15</title>
<path fill="none" stroke="#191970" d="M497.9607,-226.5155C582.893,-221.0199 760.364,-207.6436 908.8472,-184 911.5652,-183.5672 914.3692,-183.0682 917.1811,-182.5303"/>
<polygon fill="#191970" stroke="#191970" points="497.582,-223.0325 487.8252,-227.1622 498.0278,-230.0183 497.582,-223.0325"/>
</g>
<!-- Node6 -->
<g id="node4" class="node">
<title>Node6</title>
<g id="a_node4"><a xlink:href="ring_buffer_8hpp.xhtml" target="_top" xlink:title="Ring Buffer header file. ">
<polygon fill="#ffffff" stroke="#000000" points="249.7456,-110.5 249.7456,-128.5 343.9487,-128.5 343.9487,-110.5 249.7456,-110.5"/>
<text text-anchor="middle" x="296.8472" y="-116.5" font-family="Helvetica,sans-Serif" font-size="10.00" fill="#000000">src/ringBuffer.hpp</text>
</a>
</g>
</g>
<!-- Node5&#45;&gt;Node6 -->
<g id="edge3" class="edge">
<title>Node5&#45;&gt;Node6</title>
<path fill="none" stroke="#191970" d="M305.3987,-155.6796C303.2529,-146.6014 300.7748,-136.1171 299.0405,-128.7795"/>
<polygon fill="#191970" stroke="#191970" points="301.994,-156.4911 307.7005,-165.4179 308.8063,-154.8809 301.994,-156.4911"/>
</g>
<!-- Node5&#45;&gt;Node8 -->
<g id="edge8" class="edge">
<title>Node5&#45;&gt;Node8</title>
<path fill="none" stroke="#191970" d="M328.309,-158.7626C336.8344,-150.6373 346.4595,-140.1095 352.8472,-129 363.2046,-110.9863 368.3444,-86.8397 370.515,-73.7978"/>
<polygon fill="#191970" stroke="#191970" points="325.9506,-156.1764 320.913,-165.497 330.6635,-161.3522 325.9506,-156.1764"/>
</g>
<!-- Node5&#45;&gt;Node10 -->
<g id="edge9" class="edge">
<title>Node5&#45;&gt;Node10</title>
<path fill="none" stroke="#191970" d="M279.4319,-161.328C256.082,-151.2159 224.4506,-137.5172 203.8498,-128.5956"/>
<polygon fill="#191970" stroke="#191970" points="278.3083,-164.6555 288.8757,-165.4179 281.0902,-158.232 278.3083,-164.6555"/>
</g>
<!-- Node6&#45;&gt;Node7 -->
<g id="edge4" class="edge">
<title>Node6&#45;&gt;Node7</title>
<path fill="none" stroke="#191970" d="M296.8472,-100.1899C296.8472,-76.2569 296.8472,-36.4552 296.8472,-18.6261"/>
<polygon fill="#191970" stroke="#191970" points="293.3473,-100.4982 296.8472,-110.4982 300.3473,-100.4983 293.3473,-100.4982"/>
</g>
<!-- Node6&#45;&gt;Node8 -->
<g id="edge5" class="edge">
<title>Node6&#45;&gt;Node8</title>
<path fill="none" stroke="#191970" d="M317.449,-104.392C330.9078,-94.5222 348.0386,-81.9596 359.444,-73.5956"/>
<polygon fill="#191970" stroke="#191970" points="315.2262,-101.6818 309.2319,-110.4179 319.3657,-107.3266 315.2262,-101.6818"/>
</g>
<!-- Node8&#45;&gt;Node7 -->
<g id="edge6" class="edge">
<title>Node8&#45;&gt;Node7</title>
<path fill="none" stroke="#191970" d="M351.2454,-49.392C337.7865,-39.5222 320.6558,-26.9596 309.2503,-18.5956"/>
<polygon fill="#191970" stroke="#191970" points="349.3286,-52.3266 359.4624,-55.4179 353.4682,-46.6818 349.3286,-52.3266"/>
</g>
<!-- Node8&#45;&gt;Node9 -->
<g id="edge7" class="edge">
<title>Node8&#45;&gt;Node9</title>
<path fill="none" stroke="#191970" d="M386.8355,-48.0129C395.5303,-38.4485 406.1607,-26.7552 413.4113,-18.7795"/>
<polygon fill="#191970" stroke="#191970" points="384.2406,-45.6641 380.1037,-55.4179 389.4202,-50.3728 384.2406,-45.6641"/>
</g>
</g>
</svg>
