<?xml version="1.0" encoding="UTF-8" standalone="no"?>
<!DOCTYPE svg PUBLIC "-//W3C//DTD SVG 1.1//EN"
 "http://www.w3.org/Graphics/SVG/1.1/DTD/svg11.dtd">
<!-- Generated by graphviz version 2.40.1 (20161225.0304)
 -->
<!-- Title: TOOL::initOFile Pages: 1 -->
<svg width="330pt" height="45pt"
 viewBox="0.00 0.00 329.77 45.00" xmlns="http://www.w3.org/2000/svg" xmlns:xlink="http://www.w3.org/1999/xlink">
<g id="graph0" class="graph" transform="scale(1 1) rotate(0) translate(4 41)">
<title>TOOL::initOFile</title>
<polygon fill="#ffffff" stroke="transparent" points="-4,4 -4,-41 325.7725,-41 325.7725,4 -4,4"/>
<!-- Node0 -->
<g id="node1" class="node">
<title>Node0</title>
<polygon fill="#bfbfbf" stroke="#000000" points="0,-.5 0,-18.5 85.2822,-18.5 85.2822,-.5 0,-.5"/>
<text text-anchor="middle" x="42.6411" y="-6.5" font-family="Helvetica,sans-Serif" font-size="10.00" fill="#000000">TOOL::initOFile</text>
</g>
<!-- Node0&#45;&gt;Node0 -->
<g id="edge1" class="edge">
<title>Node0&#45;&gt;Node0</title>
<path fill="none" stroke="#191970" d="M26.5489,-18.5134C17.6599,-27.322 23.0239,-37 42.6411,-37 55.2084,-37 61.9262,-33.0281 62.7944,-27.8575"/>
<polygon fill="#191970" stroke="#191970" points="65.9293,-26.2896 58.7333,-18.5134 59.5095,-29.0798 65.9293,-26.2896"/>
</g>
<!-- Node1 -->
<g id="node2" class="node">
<title>Node1</title>
<g id="a_node2"><a xlink:href="debug_8hpp.xhtml#a9340c95e0607709d793dc427c8b630e8" target="_top" xlink:title="Function that prints log messages. ">
<polygon fill="#ffffff" stroke="#000000" points="121.2822,-.5 121.2822,-18.5 183.2344,-18.5 183.2344,-.5 121.2822,-.5"/>
<text text-anchor="middle" x="152.2583" y="-6.5" font-family="Helvetica,sans-Serif" font-size="10.00" fill="#000000">TOOL::log</text>
</a>
</g>
</g>
<!-- Node0&#45;&gt;Node1 -->
<g id="edge2" class="edge">
<title>Node0&#45;&gt;Node1</title>
<path fill="none" stroke="#191970" d="M85.3359,-9.5C93.7049,-9.5 102.4707,-9.5 110.7986,-9.5"/>
<polygon fill="#191970" stroke="#191970" points="111.0504,-13.0001 121.0504,-9.5 111.0503,-6.0001 111.0504,-13.0001"/>
</g>
<!-- Node1&#45;&gt;Node1 -->
<g id="edge3" class="edge">
<title>Node1&#45;&gt;Node1</title>
<path fill="none" stroke="#191970" d="M136.1661,-18.5134C127.277,-27.322 132.6411,-37 152.2583,-37 164.8256,-37 171.5433,-33.0281 172.4116,-27.8575"/>
<polygon fill="#191970" stroke="#191970" points="175.5465,-26.2896 168.3505,-18.5134 169.1267,-29.0798 175.5465,-26.2896"/>
</g>
<!-- Node2 -->
<g id="node3" class="node">
<title>Node2</title>
<g id="a_node3"><a xlink:href="debug_8cpp.xhtml#ad6ba0645e5c2cdd3f7533aa4f15dbe71" target="_top" xlink:title="Sets #TOOL::generalLogLevel;. ">
<polygon fill="#ffffff" stroke="#000000" points="219.2344,-.5 219.2344,-18.5 321.7725,-18.5 321.7725,-.5 219.2344,-.5"/>
<text text-anchor="middle" x="270.5034" y="-6.5" font-family="Helvetica,sans-Serif" font-size="10.00" fill="#000000">TOOL::setLogLevel</text>
</a>
</g>
</g>
<!-- Node1&#45;&gt;Node2 -->
<g id="edge4" class="edge">
<title>Node1&#45;&gt;Node2</title>
<path fill="none" stroke="#191970" d="M183.3258,-9.5C191.2803,-9.5 200.1168,-9.5 209.0248,-9.5"/>
<polygon fill="#191970" stroke="#191970" points="209.0694,-13.0001 219.0693,-9.5 209.0693,-6.0001 209.0694,-13.0001"/>
</g>
<!-- Node2&#45;&gt;Node2 -->
<g id="edge5" class="edge">
<title>Node2&#45;&gt;Node2</title>
<path fill="none" stroke="#191970" d="M252.9212,-18.5134C243.2091,-27.322 249.0698,-37 270.5034,-37 284.5692,-37 291.9283,-32.832 292.5808,-27.477"/>
<polygon fill="#191970" stroke="#191970" points="295.6971,-25.8834 288.0857,-18.5134 289.4399,-29.0214 295.6971,-25.8834"/>
</g>
</g>
</svg>
