<?xml version="1.0" encoding="UTF-8" standalone="no"?>
<!DOCTYPE svg PUBLIC "-//W3C//DTD SVG 1.1//EN"
 "http://www.w3.org/Graphics/SVG/1.1/DTD/svg11.dtd">
<!-- Generated by graphviz version 2.40.1 (20161225.0304)
 -->
<!-- Title: src/fileHandler.hpp Pages: 1 -->
<svg width="216pt" height="82pt"
 viewBox="0.00 0.00 216.21 82.00" xmlns="http://www.w3.org/2000/svg" xmlns:xlink="http://www.w3.org/1999/xlink">
<g id="graph0" class="graph" transform="scale(1 1) rotate(0) translate(4 78)">
<title>src/fileHandler.hpp</title>
<polygon fill="#ffffff" stroke="transparent" points="-4,4 -4,-78 212.2065,-78 212.2065,4 -4,4"/>
<!-- Node2 -->
<g id="node1" class="node">
<title>Node2</title>
<polygon fill="#bfbfbf" stroke="#000000" points="52.6602,-55.5 52.6602,-73.5 151.4873,-73.5 151.4873,-55.5 52.6602,-55.5"/>
<text text-anchor="middle" x="102.0737" y="-61.5" font-family="Helvetica,sans-Serif" font-size="10.00" fill="#000000">src/fileHandler.hpp</text>
</g>
<!-- Node3 -->
<g id="node2" class="node">
<title>Node3</title>
<g id="a_node2"><a xlink:href="capturing_8cpp.xhtml" target="_top" xlink:title="Network traffic capture sources. ">
<polygon fill="#ffffff" stroke="#000000" points="0,-.5 0,-18.5 92.1475,-18.5 92.1475,-.5 0,-.5"/>
<text text-anchor="middle" x="46.0737" y="-6.5" font-family="Helvetica,sans-Serif" font-size="10.00" fill="#000000">src/capturing.cpp</text>
</a>
</g>
</g>
<!-- Node2&#45;&gt;Node3 -->
<g id="edge1" class="edge">
<title>Node2&#45;&gt;Node3</title>
<path fill="none" stroke="#191970" d="M85.5783,-48.2992C75.7871,-38.6828 63.7238,-26.8349 55.5219,-18.7795"/>
<polygon fill="#191970" stroke="#191970" points="83.2395,-50.9078 92.8265,-55.4179 88.1444,-45.9137 83.2395,-50.9078"/>
</g>
<!-- Node4 -->
<g id="node3" class="node">
<title>Node4</title>
<g id="a_node3"><a xlink:href="file_handler_8cpp.xhtml" target="_top" xlink:title="File handler source file. ">
<polygon fill="#ffffff" stroke="#000000" points="109.9409,-.5 109.9409,-18.5 208.2065,-18.5 208.2065,-.5 109.9409,-.5"/>
<text text-anchor="middle" x="159.0737" y="-6.5" font-family="Helvetica,sans-Serif" font-size="10.00" fill="#000000">src/fileHandler.cpp</text>
</a>
</g>
</g>
<!-- Node2&#45;&gt;Node4 -->
<g id="edge2" class="edge">
<title>Node2&#45;&gt;Node4</title>
<path fill="none" stroke="#191970" d="M118.8637,-48.2992C128.8298,-38.6828 141.1085,-26.8349 149.4568,-18.7795"/>
<polygon fill="#191970" stroke="#191970" points="116.252,-45.9555 111.4861,-55.4179 121.1126,-50.9928 116.252,-45.9555"/>
</g>
</g>
</svg>
