<?xml version="1.0" encoding="UTF-8" standalone="no"?>
<!DOCTYPE svg PUBLIC "-//W3C//DTD SVG 1.1//EN"
 "http://www.w3.org/Graphics/SVG/1.1/DTD/svg11.dtd">
<!-- Generated by graphviz version 2.40.1 (20161225.0304)
 -->
<!-- Title: src/fileHandler.cpp Pages: 1 -->
<!--zoomable 302 -->
<svg id="main" version="1.1" xmlns="http://www.w3.org/2000/svg" xmlns:xlink="http://www.w3.org/1999/xlink" xml:space="preserve" onload="init(evt)">
<style type="text/css"><![CDATA[
.edge:hover path { stroke: red; }
.edge:hover polygon { stroke: red; fill: red; }
]]></style>
<script type="text/javascript"><![CDATA[
var edges = document.getElementsByTagName('g');
if (edges && edges.length) {
  for (var i=0;i<edges.length;i++) {
    if (edges[i].id.substr(0,4)=='edge') {
      edges[i].setAttribute('class','edge');
    }
  }
}
]]></script>
        <defs>
                <circle id="rim" cx="0" cy="0" r="7"/>
                <circle id="rim2" cx="0" cy="0" r="3.5"/>
                <g id="zoomPlus">
                        <use xlink:href="#rim" fill="#404040">
                                <set attributeName="fill" to="#808080" begin="zoomplus.mouseover" end="zoomplus.mouseout"/>
                        </use>
                        <path d="M-4,0h8M0,-4v8" fill="none" stroke="white" stroke-width="1.5" pointer-events="none"/>
                </g>
                <g id="zoomMin">
                        <use xlink:href="#rim" fill="#404040">
                                <set attributeName="fill" to="#808080" begin="zoomminus.mouseover" end="zoomminus.mouseout"/>
                        </use>
                        <path d="M-4,0h8" fill="none" stroke="white" stroke-width="1.5" pointer-events="none"/>
                </g>
                <g id="dirArrow">
                        <path fill="none" stroke="white" stroke-width="1.5" d="M0,-3.0v7 M-2.5,-0.5L0,-3.0L2.5,-0.5"/>
                </g>
               <g id="resetDef">
                       <use xlink:href="#rim2" fill="#404040">
                               <set attributeName="fill" to="#808080" begin="reset.mouseover" end="reset.mouseout"/>
                       </use>
               </g>
        </defs>

<script type="text/javascript">
var viewWidth = 615;
var viewHeight = 302;
var sectionId = 'dynsection-0';
</script>
<script xlink:href="svgpan.js"/>
<svg id="graph" class="graph">
<g id="viewport">
<title>src/fileHandler.cpp</title>
<polygon fill="#ffffff" stroke="transparent" points="-4,4 -4,-298 611.0893,-298 611.0893,4 -4,4"/>
<!-- Node0 -->
<g id="node1" class="node">
<title>Node0</title>
<polygon fill="#bfbfbf" stroke="#000000" points="208.2866,-275.5 208.2866,-293.5 306.5522,-293.5 306.5522,-275.5 208.2866,-275.5"/>
<text text-anchor="middle" x="257.4194" y="-281.5" font-family="Helvetica,sans-Serif" font-size="10.00" fill="#000000">src/fileHandler.cpp</text>
</g>
<!-- Node1 -->
<g id="node2" class="node">
<title>Node1</title>
<polygon fill="#ffffff" stroke="#bfbfbf" points="186.1929,-55.5 186.1929,-73.5 226.646,-73.5 226.646,-55.5 186.1929,-55.5"/>
<text text-anchor="middle" x="206.4194" y="-61.5" font-family="Helvetica,sans-Serif" font-size="10.00" fill="#000000">string</text>
</g>
<!-- Node0&#45;&gt;Node1 -->
<g id="edge1" class="edge">
<title>Node0&#45;&gt;Node1</title>
<path fill="none" stroke="#191970" d="M216.7921,-275.4949C154.4204,-259.0545 38.5913,-217.3964 3.4194,-129 .2975,-121.1538 -1.8585,-116.5918 3.4194,-110 24.7051,-83.4153 124.7927,-71.3069 176.0301,-66.7733"/>
<polygon fill="#191970" stroke="#191970" points="176.5054,-70.2458 186.1761,-65.9184 175.9175,-63.2705 176.5054,-70.2458"/>
</g>
<!-- Node2 -->
<g id="node3" class="node">
<title>Node2</title>
<polygon fill="#ffffff" stroke="#bfbfbf" points="427.1831,-220.5 427.1831,-238.5 507.6558,-238.5 507.6558,-220.5 427.1831,-220.5"/>
<text text-anchor="middle" x="467.4194" y="-226.5" font-family="Helvetica,sans-Serif" font-size="10.00" fill="#000000">sys/utsname.h</text>
</g>
<!-- Node0&#45;&gt;Node2 -->
<g id="edge2" class="edge">
<title>Node0&#45;&gt;Node2</title>
<path fill="none" stroke="#191970" d="M292.0967,-275.4179C327.9214,-266.0352 383.9593,-251.3586 423.0056,-241.1322"/>
<polygon fill="#191970" stroke="#191970" points="424.2528,-244.4237 433.0397,-238.5042 422.4792,-237.6521 424.2528,-244.4237"/>
</g>
<!-- Node3 -->
<g id="node4" class="node">
<title>Node3</title>
<g id="a_node4"><a xlink:href="debug_8hpp.xhtml" target="_top" xlink:title="Debugging functions. ">
<polygon fill="#ffffff" stroke="#000000" points="64.7842,-165.5 64.7842,-183.5 128.0547,-183.5 128.0547,-165.5 64.7842,-165.5"/>
<text text-anchor="middle" x="96.4194" y="-171.5" font-family="Helvetica,sans-Serif" font-size="10.00" fill="#000000">debug.hpp</text>
</a>
</g>
</g>
<!-- Node0&#45;&gt;Node3 -->
<g id="edge3" class="edge">
<title>Node0&#45;&gt;Node3</title>
<path fill="none" stroke="#191970" d="M244.2441,-275.4982C216.5302,-256.5633 151.974,-212.4566 118.0804,-189.2994"/>
<polygon fill="#191970" stroke="#191970" points="120.0081,-186.3776 109.7768,-183.6261 116.0592,-192.1574 120.0081,-186.3776"/>
</g>
<!-- Node6 -->
<g id="node7" class="node">
<title>Node6</title>
<g id="a_node7"><a xlink:href="pcapng__blocks_8hpp.xhtml" target="_top" xlink:title="Pcap&#45;ng block structures. ">
<polygon fill="#ffffff" stroke="#000000" points="206.331,-220.5 206.331,-238.5 308.5078,-238.5 308.5078,-220.5 206.331,-220.5"/>
<text text-anchor="middle" x="257.4194" y="-226.5" font-family="Helvetica,sans-Serif" font-size="10.00" fill="#000000">pcapng_blocks.hpp</text>
</a>
</g>
</g>
<!-- Node0&#45;&gt;Node6 -->
<g id="edge6" class="edge">
<title>Node0&#45;&gt;Node6</title>
<path fill="none" stroke="#191970" d="M257.4194,-275.4179C257.4194,-268.2164 257.4194,-257.8962 257.4194,-248.8632"/>
<polygon fill="#191970" stroke="#191970" points="260.9195,-248.7794 257.4194,-238.7795 253.9195,-248.7795 260.9195,-248.7794"/>
</g>
<!-- Node18 -->
<g id="node19" class="node">
<title>Node18</title>
<g id="a_node19"><a xlink:href="file_handler_8hpp.xhtml" target="_top" xlink:title="File handler header file. ">
<polygon fill="#ffffff" stroke="#000000" points="326.0601,-220.5 326.0601,-238.5 408.7788,-238.5 408.7788,-220.5 326.0601,-220.5"/>
<text text-anchor="middle" x="367.4194" y="-226.5" font-family="Helvetica,sans-Serif" font-size="10.00" fill="#000000">fileHandler.hpp</text>
</a>
</g>
</g>
<!-- Node0&#45;&gt;Node18 -->
<g id="edge24" class="edge">
<title>Node0&#45;&gt;Node18</title>
<path fill="none" stroke="#191970" d="M275.5837,-275.4179C293.1784,-266.6205 320.0812,-253.1691 340.2282,-243.0956"/>
<polygon fill="#191970" stroke="#191970" points="341.8492,-246.1983 349.2282,-238.5956 338.7186,-239.9373 341.8492,-246.1983"/>
</g>
<!-- Node4 -->
<g id="node5" class="node">
<title>Node4</title>
<polygon fill="#ffffff" stroke="#bfbfbf" points="74.2471,-110.5 74.2471,-128.5 128.5918,-128.5 128.5918,-110.5 74.2471,-110.5"/>
<text text-anchor="middle" x="101.4194" y="-116.5" font-family="Helvetica,sans-Serif" font-size="10.00" fill="#000000">iostream</text>
</g>
<!-- Node3&#45;&gt;Node4 -->
<g id="edge4" class="edge">
<title>Node3&#45;&gt;Node4</title>
<path fill="none" stroke="#191970" d="M97.2451,-165.4179C97.8998,-158.2164 98.838,-147.8962 99.6591,-138.8632"/>
<polygon fill="#191970" stroke="#191970" points="103.156,-139.0553 100.5758,-128.7795 96.1848,-138.4215 103.156,-139.0553"/>
</g>
<!-- Node5 -->
<g id="node6" class="node">
<title>Node5</title>
<polygon fill="#ffffff" stroke="#bfbfbf" points="12.8037,-110.5 12.8037,-128.5 56.0352,-128.5 56.0352,-110.5 12.8037,-110.5"/>
<text text-anchor="middle" x="34.4194" y="-116.5" font-family="Helvetica,sans-Serif" font-size="10.00" fill="#000000">mutex</text>
</g>
<!-- Node3&#45;&gt;Node5 -->
<g id="edge5" class="edge">
<title>Node3&#45;&gt;Node5</title>
<path fill="none" stroke="#191970" d="M86.1814,-165.4179C77.082,-157.3458 63.5658,-145.3556 52.6268,-135.6517"/>
<polygon fill="#191970" stroke="#191970" points="54.6833,-132.7974 44.8799,-128.7795 50.038,-138.0339 54.6833,-132.7974"/>
</g>
<!-- Node6&#45;&gt;Node1 -->
<g id="edge9" class="edge">
<title>Node6&#45;&gt;Node1</title>
<path fill="none" stroke="#191970" d="M246.1023,-220.4502C227.0871,-204.4231 189.4327,-168.9488 175.4194,-129 169.5495,-112.2662 179.8622,-94.1414 190.1367,-81.3788"/>
<polygon fill="#191970" stroke="#191970" points="192.7802,-83.6727 196.7127,-73.8347 187.5034,-79.0732 192.7802,-83.6727"/>
</g>
<!-- Node6&#45;&gt;Node3 -->
<g id="edge23" class="edge">
<title>Node6&#45;&gt;Node3</title>
<path fill="none" stroke="#191970" d="M230.8336,-220.4179C203.9523,-211.2348 162.2267,-196.9807 132.3982,-186.7909"/>
<polygon fill="#191970" stroke="#191970" points="133.3717,-183.4249 122.7772,-183.5042 131.1088,-190.0491 133.3717,-183.4249"/>
</g>
<!-- Node7 -->
<g id="node8" class="node">
<title>Node7</title>
<polygon fill="#ffffff" stroke="#bfbfbf" points="494.9687,-165.5 494.9687,-183.5 539.8701,-183.5 539.8701,-165.5 494.9687,-165.5"/>
<text text-anchor="middle" x="517.4194" y="-171.5" font-family="Helvetica,sans-Serif" font-size="10.00" fill="#000000">cstdint</text>
</g>
<!-- Node6&#45;&gt;Node7 -->
<g id="edge7" class="edge">
<title>Node6&#45;&gt;Node7</title>
<path fill="none" stroke="#191970" d="M306.0967,-220.4509C351.5894,-211.7956 421.3261,-198.0199 481.4194,-184 482.4896,-183.7503 483.5763,-183.4919 484.6728,-183.2271"/>
<polygon fill="#191970" stroke="#191970" points="485.7697,-186.5603 494.6157,-180.7295 484.0643,-179.7712 485.7697,-186.5603"/>
</g>
<!-- Node8 -->
<g id="node9" class="node">
<title>Node8</title>
<polygon fill="#ffffff" stroke="#bfbfbf" points="557.7495,-165.5 557.7495,-183.5 607.0893,-183.5 607.0893,-165.5 557.7495,-165.5"/>
<text text-anchor="middle" x="582.4194" y="-171.5" font-family="Helvetica,sans-Serif" font-size="10.00" fill="#000000">fstream</text>
</g>
<!-- Node6&#45;&gt;Node8 -->
<g id="edge8" class="edge">
<title>Node6&#45;&gt;Node8</title>
<path fill="none" stroke="#191970" d="M308.8051,-221.3555C311.7193,-220.8963 314.6064,-220.4419 317.4194,-220 416.9591,-204.3635 445.1808,-205.906 547.7896,-183.9218"/>
<polygon fill="#191970" stroke="#191970" points="548.5887,-187.33 557.6214,-181.7929 547.1072,-180.4886 548.5887,-187.33"/>
</g>
<!-- Node9 -->
<g id="node10" class="node">
<title>Node9</title>
<polygon fill="#ffffff" stroke="#bfbfbf" points="184.8037,-110.5 184.8037,-128.5 228.0352,-128.5 228.0352,-110.5 184.8037,-110.5"/>
<text text-anchor="middle" x="206.4194" y="-116.5" font-family="Helvetica,sans-Serif" font-size="10.00" fill="#000000">vector</text>
</g>
<!-- Node6&#45;&gt;Node9 -->
<g id="edge10" class="edge">
<title>Node6&#45;&gt;Node9</title>
<path fill="none" stroke="#191970" d="M251.3302,-220.3582C245.4962,-211.357 236.6783,-197.094 230.4194,-184 223.3345,-169.1778 216.9366,-151.6705 212.5317,-138.6385"/>
<polygon fill="#191970" stroke="#191970" points="215.7783,-137.3071 209.329,-128.9014 209.1288,-139.4943 215.7783,-137.3071"/>
</g>
<!-- Node10 -->
<g id="node11" class="node">
<title>Node10</title>
<polygon fill="#ffffff" stroke="#bfbfbf" points="239.6929,-165.5 239.6929,-183.5 275.146,-183.5 275.146,-165.5 239.6929,-165.5"/>
<text text-anchor="middle" x="257.4194" y="-171.5" font-family="Helvetica,sans-Serif" font-size="10.00" fill="#000000">map</text>
</g>
<!-- Node6&#45;&gt;Node10 -->
<g id="edge11" class="edge">
<title>Node6&#45;&gt;Node10</title>
<path fill="none" stroke="#191970" d="M257.4194,-220.4179C257.4194,-213.2164 257.4194,-202.8962 257.4194,-193.8632"/>
<polygon fill="#191970" stroke="#191970" points="260.9195,-193.7794 257.4194,-183.7795 253.9195,-193.7795 260.9195,-193.7794"/>
</g>
<!-- Node11 -->
<g id="node12" class="node">
<title>Node11</title>
<g id="a_node12"><a xlink:href="tcpip__headers_8hpp.xhtml" target="_top" xlink:title="Protocol headers. ">
<polygon fill="#ffffff" stroke="#000000" points="499.2768,-55.5 499.2768,-73.5 597.562,-73.5 597.562,-55.5 499.2768,-55.5"/>
<text text-anchor="middle" x="548.4194" y="-61.5" font-family="Helvetica,sans-Serif" font-size="10.00" fill="#000000">tcpip_headers.hpp</text>
</a>
</g>
</g>
<!-- Node6&#45;&gt;Node11 -->
<g id="edge12" class="edge">
<title>Node6&#45;&gt;Node11</title>
<path fill="none" stroke="#191970" d="M293.4734,-220.4841C359.5629,-203.2858 496.3747,-164.3526 529.4194,-129 540.8672,-116.7527 545.4503,-97.9486 547.268,-83.7982"/>
<polygon fill="#191970" stroke="#191970" points="550.7696,-83.9431 548.2113,-73.6618 543.7997,-83.2945 550.7696,-83.9431"/>
</g>
<!-- Node13 -->
<g id="node14" class="node">
<title>Node13</title>
<g id="a_node14"><a xlink:href="cache_8hpp.xhtml" target="_top" xlink:title="Cache implementation header file. ">
<polygon fill="#ffffff" stroke="#000000" points="295.3457,-165.5 295.3457,-183.5 357.4932,-183.5 357.4932,-165.5 295.3457,-165.5"/>
<text text-anchor="middle" x="326.4194" y="-171.5" font-family="Helvetica,sans-Serif" font-size="10.00" fill="#000000">cache.hpp</text>
</a>
</g>
</g>
<!-- Node6&#45;&gt;Node13 -->
<g id="edge14" class="edge">
<title>Node6&#45;&gt;Node13</title>
<path fill="none" stroke="#191970" d="M268.8134,-220.4179C279.1387,-212.1876 294.5742,-199.8839 306.8692,-190.0836"/>
<polygon fill="#191970" stroke="#191970" points="309.1398,-192.7495 314.7779,-183.7795 304.7766,-187.2757 309.1398,-192.7495"/>
</g>
<!-- Node12 -->
<g id="node13" class="node">
<title>Node12</title>
<polygon fill="#ffffff" stroke="#bfbfbf" points="524.2988,-.5 524.2988,-18.5 572.54,-18.5 572.54,-.5 524.2988,-.5"/>
<text text-anchor="middle" x="548.4194" y="-6.5" font-family="Helvetica,sans-Serif" font-size="10.00" fill="#000000">stdint.h</text>
</g>
<!-- Node11&#45;&gt;Node12 -->
<g id="edge13" class="edge">
<title>Node11&#45;&gt;Node12</title>
<path fill="none" stroke="#191970" d="M548.4194,-55.4179C548.4194,-48.2164 548.4194,-37.8962 548.4194,-28.8632"/>
<polygon fill="#191970" stroke="#191970" points="551.9195,-28.7794 548.4194,-18.7795 544.9195,-28.7795 551.9195,-28.7794"/>
</g>
<!-- Node13&#45;&gt;Node1 -->
<g id="edge15" class="edge">
<title>Node13&#45;&gt;Node1</title>
<path fill="none" stroke="#191970" d="M315.8063,-165.1597C305.4454,-156.0114 289.2631,-141.6426 275.4194,-129 257.6048,-112.731 237.4767,-93.8582 223.5782,-80.7479"/>
<polygon fill="#191970" stroke="#191970" points="225.8521,-78.0812 216.1794,-73.7579 221.0449,-83.1695 225.8521,-78.0812"/>
</g>
<!-- Node13&#45;&gt;Node9 -->
<g id="edge16" class="edge">
<title>Node13&#45;&gt;Node9</title>
<path fill="none" stroke="#191970" d="M306.6039,-165.4179C287.2359,-156.5409 257.5291,-142.9253 235.4877,-132.823"/>
<polygon fill="#191970" stroke="#191970" points="236.8134,-129.5805 226.2644,-128.5956 233.8968,-135.944 236.8134,-129.5805"/>
</g>
<!-- Node14 -->
<g id="node15" class="node">
<title>Node14</title>
<polygon fill="#ffffff" stroke="#bfbfbf" points="284.1167,-110.5 284.1167,-128.5 370.7222,-128.5 370.7222,-110.5 284.1167,-110.5"/>
<text text-anchor="middle" x="327.4194" y="-116.5" font-family="Helvetica,sans-Serif" font-size="10.00" fill="#000000">unordered_map</text>
</g>
<!-- Node13&#45;&gt;Node14 -->
<g id="edge17" class="edge">
<title>Node13&#45;&gt;Node14</title>
<path fill="none" stroke="#191970" d="M326.5846,-165.4179C326.7155,-158.2164 326.9031,-147.8962 327.0674,-138.8632"/>
<polygon fill="#191970" stroke="#191970" points="330.5682,-138.8415 327.2507,-128.7795 323.5694,-138.7141 330.5682,-138.8415"/>
</g>
<!-- Node15 -->
<g id="node16" class="node">
<title>Node15</title>
<polygon fill="#ffffff" stroke="#bfbfbf" points="389.1313,-110.5 389.1313,-128.5 435.7075,-128.5 435.7075,-110.5 389.1313,-110.5"/>
<text text-anchor="middle" x="412.4194" y="-116.5" font-family="Helvetica,sans-Serif" font-size="10.00" fill="#000000">chrono</text>
</g>
<!-- Node13&#45;&gt;Node15 -->
<g id="edge18" class="edge">
<title>Node13&#45;&gt;Node15</title>
<path fill="none" stroke="#191970" d="M340.6206,-165.4179C353.9408,-156.8992 374.0844,-144.0166 389.6486,-134.0627"/>
<polygon fill="#191970" stroke="#191970" points="391.6584,-136.932 398.1972,-128.5956 387.8869,-131.0348 391.6584,-136.932"/>
</g>
<!-- Node16 -->
<g id="node17" class="node">
<title>Node16</title>
<g id="a_node17"><a xlink:href="netflow_8hpp.xhtml" target="_top" xlink:title="Netflow structure header file. ">
<polygon fill="#ffffff" stroke="#000000" points="454.1191,-110.5 454.1191,-128.5 520.7197,-128.5 520.7197,-110.5 454.1191,-110.5"/>
<text text-anchor="middle" x="487.4194" y="-116.5" font-family="Helvetica,sans-Serif" font-size="10.00" fill="#000000">netflow.hpp</text>
</a>
</g>
</g>
<!-- Node13&#45;&gt;Node16 -->
<g id="edge19" class="edge">
<title>Node13&#45;&gt;Node16</title>
<path fill="none" stroke="#191970" d="M353.0053,-165.4179C379.8866,-156.2348 421.6122,-141.9807 451.4406,-131.7909"/>
<polygon fill="#191970" stroke="#191970" points="452.7301,-135.0491 461.0616,-128.5042 450.4671,-128.4249 452.7301,-135.0491"/>
</g>
<!-- Node16&#45;&gt;Node1 -->
<g id="edge20" class="edge">
<title>Node16&#45;&gt;Node1</title>
<path fill="none" stroke="#191970" d="M454.1049,-112.0415C450.8349,-111.3389 447.5644,-110.6479 444.4194,-110 370.0376,-94.6766 282.2077,-78.3384 236.8854,-70.0367"/>
<polygon fill="#191970" stroke="#191970" points="237.2999,-66.5545 226.8336,-68.1997 236.0414,-73.4405 237.2999,-66.5545"/>
</g>
<!-- Node16&#45;&gt;Node11 -->
<g id="edge22" class="edge">
<title>Node16&#45;&gt;Node11</title>
<path fill="none" stroke="#191970" d="M497.4923,-110.4179C506.4449,-102.3458 519.7432,-90.3556 530.5057,-80.6517"/>
<polygon fill="#191970" stroke="#191970" points="533.0445,-83.0753 538.1277,-73.7795 528.357,-77.8764 533.0445,-83.0753"/>
</g>
<!-- Node17 -->
<g id="node18" class="node">
<title>Node17</title>
<polygon fill="#ffffff" stroke="#bfbfbf" points="435.6929,-55.5 435.6929,-73.5 481.146,-73.5 481.146,-55.5 435.6929,-55.5"/>
<text text-anchor="middle" x="458.4194" y="-61.5" font-family="Helvetica,sans-Serif" font-size="10.00" fill="#000000">cstring</text>
</g>
<!-- Node16&#45;&gt;Node17 -->
<g id="edge21" class="edge">
<title>Node16&#45;&gt;Node17</title>
<path fill="none" stroke="#191970" d="M482.6307,-110.4179C478.6666,-102.8998 472.9104,-91.9829 468.0052,-82.6799"/>
<polygon fill="#191970" stroke="#191970" points="471.0724,-80.9927 463.3122,-73.7795 464.8804,-84.2576 471.0724,-80.9927"/>
</g>
<!-- Node18&#45;&gt;Node8 -->
<g id="edge25" class="edge">
<title>Node18&#45;&gt;Node8</title>
<path fill="none" stroke="#191970" d="M404.5843,-220.4591C439.15,-211.9835 492.3283,-198.7746 547.5855,-184.1722"/>
<polygon fill="#191970" stroke="#191970" points="548.7889,-187.4741 557.5575,-181.5276 546.9944,-180.708 548.7889,-187.4741"/>
</g>
</g>
</svg>
        <g id="navigator" transform="translate(0 0)" fill="#404254">
                <rect fill="#f2f5e9" fill-opacity="0.5" stroke="#606060" stroke-width=".5" x="0" y="0" width="60" height="60"/>
                <use id="zoomplus" xlink:href="#zoomPlus" x="17" y="9" onmousedown="handleZoom(evt,'in')"/>
                <use id="zoomminus" xlink:href="#zoomMin" x="42" y="9" onmousedown="handleZoom(evt,'out')"/>
                <use id="reset" xlink:href="#resetDef" x="30" y="36" onmousedown="handleReset()"/>
                <g id="arrowUp" xlink:href="#dirArrow" transform="translate(30 24)" onmousedown="handlePan(0,-1)">
                  <use xlink:href="#rim" fill="#404040">
                        <set attributeName="fill" to="#808080" begin="arrowUp.mouseover" end="arrowUp.mouseout"/>
                  </use>
                  <path fill="none" stroke="white" stroke-width="1.5" d="M0,-3.0v7 M-2.5,-0.5L0,-3.0L2.5,-0.5"/>
                </g>
                <g id="arrowRight" xlink:href="#dirArrow" transform="rotate(90) translate(36 -43)" onmousedown="handlePan(1,0)">
                  <use xlink:href="#rim" fill="#404040">
                        <set attributeName="fill" to="#808080" begin="arrowRight.mouseover" end="arrowRight.mouseout"/>
                  </use>
                  <path fill="none" stroke="white" stroke-width="1.5" d="M0,-3.0v7 M-2.5,-0.5L0,-3.0L2.5,-0.5"/>
                </g>
                <g id="arrowDown" xlink:href="#dirArrow" transform="rotate(180) translate(-30 -48)" onmousedown="handlePan(0,1)">
                  <use xlink:href="#rim" fill="#404040">
                        <set attributeName="fill" to="#808080" begin="arrowDown.mouseover" end="arrowDown.mouseout"/>
                  </use>
                  <path fill="none" stroke="white" stroke-width="1.5" d="M0,-3.0v7 M-2.5,-0.5L0,-3.0L2.5,-0.5"/>
                </g>
                <g id="arrowLeft" xlink:href="#dirArrow" transform="rotate(270) translate(-36 17)" onmousedown="handlePan(-1,0)">
                  <use xlink:href="#rim" fill="#404040">
                        <set attributeName="fill" to="#808080" begin="arrowLeft.mouseover" end="arrowLeft.mouseout"/>
                  </use>
                  <path fill="none" stroke="white" stroke-width="1.5" d="M0,-3.0v7 M-2.5,-0.5L0,-3.0L2.5,-0.5"/>
                </g>
        </g>
        <svg viewBox="0 0 15 15" width="100%" height="30px" preserveAspectRatio="xMaxYMin meet">
         <g id="arrow_out" transform="scale(0.3 0.3)">
          <a xlink:href="file_handler_8cpp__incl_org.svg" target="_base">
           <rect id="button" ry="5" rx="5" y="6" x="6" height="38" width="38"
                fill="#f2f5e9" fill-opacity="0.5" stroke="#606060" stroke-width="1.0"/>
           <path id="arrow"
             d="M 11.500037,31.436501 C 11.940474,20.09759 22.043105,11.32322 32.158766,21.979434 L 37.068811,17.246167 C 37.068811,17.246167 37.088388,32 37.088388,32 L 22.160133,31.978069 C 22.160133,31.978069 26.997745,27.140456 26.997745,27.140456 C 18.528582,18.264221 13.291696,25.230495 11.500037,31.436501 z"
             style="fill:#404040;"/>
          </a>
         </g>
        </svg>
</svg>
