<?xml version="1.0" encoding="UTF-8" standalone="no"?>
<!DOCTYPE svg PUBLIC "-//W3C//DTD SVG 1.1//EN"
 "http://www.w3.org/Graphics/SVG/1.1/DTD/svg11.dtd">
<!-- Generated by graphviz version 2.40.1 (20161225.0304)
 -->
<!-- Title: NAMON::initOFile Pages: 1 -->
<svg width="360pt" height="45pt"
 viewBox="0.00 0.00 360.29 45.00" xmlns="http://www.w3.org/2000/svg" xmlns:xlink="http://www.w3.org/1999/xlink">
<g id="graph0" class="graph" transform="scale(1 1) rotate(0) translate(4 41)">
<title>NAMON::initOFile</title>
<polygon fill="#ffffff" stroke="transparent" points="-4,4 -4,-41 356.2852,-41 356.2852,4 -4,4"/>
<!-- Node0 -->
<g id="node1" class="node">
<title>Node0</title>
<polygon fill="#bfbfbf" stroke="#000000" points="0,-.5 0,-18.5 95.4531,-18.5 95.4531,-.5 0,-.5"/>
<text text-anchor="middle" x="47.7266" y="-6.5" font-family="Helvetica,sans-Serif" font-size="10.00" fill="#000000">NAMON::initOFile</text>
</g>
<!-- Node0&#45;&gt;Node0 -->
<g id="edge1" class="edge">
<title>Node0&#45;&gt;Node0</title>
<path fill="none" stroke="#191970" d="M30.1443,-18.5134C20.4322,-27.322 26.293,-37 47.7266,-37 61.7924,-37 69.1515,-32.832 69.804,-27.477"/>
<polygon fill="#191970" stroke="#191970" points="72.9203,-25.8834 65.3088,-18.5134 66.663,-29.0214 72.9203,-25.8834"/>
</g>
<!-- Node1 -->
<g id="node2" class="node">
<title>Node1</title>
<g id="a_node2"><a xlink:href="debug_8hpp.xhtml#a9f1c1527f51faaaca3be83b5a8928ca5" target="_top" xlink:title="Function that prints log messages. ">
<polygon fill="#ffffff" stroke="#000000" points="131.4531,-.5 131.4531,-18.5 203.5762,-18.5 203.5762,-.5 131.4531,-.5"/>
<text text-anchor="middle" x="167.5146" y="-6.5" font-family="Helvetica,sans-Serif" font-size="10.00" fill="#000000">NAMON::log</text>
</a>
</g>
</g>
<!-- Node0&#45;&gt;Node1 -->
<g id="edge2" class="edge">
<title>Node0&#45;&gt;Node1</title>
<path fill="none" stroke="#191970" d="M95.7587,-9.5C104.0882,-9.5 112.7365,-9.5 121.0239,-9.5"/>
<polygon fill="#191970" stroke="#191970" points="121.2772,-13.0001 131.2772,-9.5 121.2771,-6.0001 121.2772,-13.0001"/>
</g>
<!-- Node1&#45;&gt;Node1 -->
<g id="edge3" class="edge">
<title>Node1&#45;&gt;Node1</title>
<path fill="none" stroke="#191970" d="M149.9324,-18.5134C140.2203,-27.322 146.0811,-37 167.5146,-37 181.5804,-37 188.9396,-32.832 189.592,-27.477"/>
<polygon fill="#191970" stroke="#191970" points="192.7084,-25.8834 185.0969,-18.5134 186.4511,-29.0214 192.7084,-25.8834"/>
</g>
<!-- Node2 -->
<g id="node3" class="node">
<title>Node2</title>
<g id="a_node3"><a xlink:href="debug_8cpp.xhtml#a1a395cd89e6df6f9fd16ed25601ac351" target="_top" xlink:title="Sets #NAMON::generalLogLevel;. ">
<polygon fill="#ffffff" stroke="#000000" points="239.5762,-.5 239.5762,-18.5 352.2852,-18.5 352.2852,-.5 239.5762,-.5"/>
<text text-anchor="middle" x="295.9307" y="-6.5" font-family="Helvetica,sans-Serif" font-size="10.00" fill="#000000">NAMON::setLogLevel</text>
</a>
</g>
</g>
<!-- Node1&#45;&gt;Node2 -->
<g id="edge4" class="edge">
<title>Node1&#45;&gt;Node2</title>
<path fill="none" stroke="#191970" d="M203.6274,-9.5C211.7123,-9.5 220.5375,-9.5 229.4215,-9.5"/>
<polygon fill="#191970" stroke="#191970" points="229.4406,-13.0001 239.4406,-9.5 229.4405,-6.0001 229.4406,-13.0001"/>
</g>
<!-- Node2&#45;&gt;Node2 -->
<g id="edge5" class="edge">
<title>Node2&#45;&gt;Node2</title>
<path fill="none" stroke="#191970" d="M276.8584,-18.5134C266.3232,-27.322 272.6807,-37 295.9307,-37 311.1885,-37 319.1713,-32.832 319.879,-27.477"/>
<polygon fill="#191970" stroke="#191970" points="322.8561,-25.6253 315.0029,-18.5134 316.707,-28.9703 322.8561,-25.6253"/>
</g>
</g>
</svg>
