<?xml version="1.0" encoding="UTF-8" standalone="no"?>
<!DOCTYPE svg PUBLIC "-//W3C//DTD SVG 1.1//EN"
 "http://www.w3.org/Graphics/SVG/1.1/DTD/svg11.dtd">
<!-- Generated by graphviz version 2.40.1 (20161225.0304)
 -->
<!-- Title: Graphical Class Hierarchy Pages: 1 -->
<svg width="238pt" height="64pt"
 viewBox="0.00 0.00 237.52 64.00" xmlns="http://www.w3.org/2000/svg" xmlns:xlink="http://www.w3.org/1999/xlink">
<g id="graph0" class="graph" transform="scale(1 1) rotate(0) translate(4 60)">
<title>Graphical Class Hierarchy</title>
<polygon fill="#ffffff" stroke="transparent" points="-4,4 -4,-60 233.5234,-60 233.5234,4 -4,4"/>
<!-- Node0 -->
<g id="node1" class="node">
<title>Node0</title>
<g id="a_node1"><a xlink:href="class_t_o_o_l_1_1_t_entry_or_t_tree.xhtml" target="_top" xlink:title="Base class which a decision tree (cache) is made of. ">
<polygon fill="#ffffff" stroke="#000000" points="0,-18.5 0,-36.5 115.4678,-36.5 115.4678,-18.5 0,-18.5"/>
<text text-anchor="middle" x="57.7339" y="-24.5" font-family="Helvetica,sans-Serif" font-size="10.00" fill="#000000">TOOL::TEntryOrTTree</text>
</a>
</g>
</g>
<!-- Node1 -->
<g id="node2" class="node">
<title>Node1</title>
<g id="a_node2"><a xlink:href="class_t_o_o_l_1_1_t_entry.xhtml" target="_top" xlink:title="Class with application name, its socket inode (Linux) or PID (windows) and a pointer to Netflow class...">
<polygon fill="#ffffff" stroke="#000000" points="151.4678,-37.5 151.4678,-55.5 229.5234,-55.5 229.5234,-37.5 151.4678,-37.5"/>
<text text-anchor="middle" x="190.4956" y="-43.5" font-family="Helvetica,sans-Serif" font-size="10.00" fill="#000000">TOOL::TEntry</text>
</a>
</g>
</g>
<!-- Node0&#45;&gt;Node1 -->
<g id="edge1" class="edge">
<title>Node0&#45;&gt;Node1</title>
<path fill="none" stroke="#191970" d="M125.4902,-37.1968C134.2858,-38.4556 143.0492,-39.7098 151.1623,-40.8709"/>
<polygon fill="#191970" stroke="#191970" points="125.9739,-33.7305 115.5789,-35.7784 124.9822,-40.6599 125.9739,-33.7305"/>
</g>
<!-- Node2 -->
<g id="node3" class="node">
<title>Node2</title>
<g id="a_node3"><a xlink:href="class_t_o_o_l_1_1_t_tree.xhtml" target="_top" xlink:title="Class with pointers to subtrees. ">
<polygon fill="#ffffff" stroke="#000000" points="153.04,-.5 153.04,-18.5 227.9512,-18.5 227.9512,-.5 153.04,-.5"/>
<text text-anchor="middle" x="190.4956" y="-6.5" font-family="Helvetica,sans-Serif" font-size="10.00" fill="#000000">TOOL::TTree</text>
</a>
</g>
</g>
<!-- Node0&#45;&gt;Node2 -->
<g id="edge2" class="edge">
<title>Node0&#45;&gt;Node2</title>
<path fill="none" stroke="#191970" d="M125.6551,-18.2912C134.9584,-17.0298 144.2212,-15.7739 152.7123,-14.6227"/>
<polygon fill="#191970" stroke="#191970" points="125.018,-14.8454 115.5789,-19.6573 125.9585,-21.782 125.018,-14.8454"/>
</g>
</g>
</svg>
