<?xml version="1.0" encoding="UTF-8" standalone="no"?>
<!DOCTYPE svg PUBLIC "-//W3C//DTD SVG 1.1//EN"
 "http://www.w3.org/Graphics/SVG/1.1/DTD/svg11.dtd">
<!-- Generated by graphviz version 2.40.1 (20161225.0304)
 -->
<!-- Title: Graphical Class Hierarchy Pages: 1 -->
<svg width="181pt" height="64pt"
 viewBox="0.00 0.00 180.88 64.00" xmlns="http://www.w3.org/2000/svg" xmlns:xlink="http://www.w3.org/1999/xlink">
<g id="graph0" class="graph" transform="scale(1 1) rotate(0) translate(4 60)">
<title>Graphical Class Hierarchy</title>
<polygon fill="#ffffff" stroke="transparent" points="-4,4 -4,-60 176.8779,-60 176.8779,4 -4,4"/>
<!-- Node23 -->
<g id="node1" class="node">
<title>Node23</title>
<polygon fill="#ffffff" stroke="#bfbfbf" points="0,-18.5 0,-36.5 58.8076,-36.5 58.8076,-18.5 0,-18.5"/>
<text text-anchor="middle" x="29.4038" y="-24.5" font-family="Helvetica,sans-Serif" font-size="10.00" fill="#000000">exception</text>
</g>
<!-- Node0 -->
<g id="node2" class="node">
<title>Node0</title>
<g id="a_node2"><a xlink:href="structpcap__ex.xhtml" target="_top" xlink:title="Exception used during pcap related errors. ">
<polygon fill="#ffffff" stroke="#000000" points="106.939,-37.5 106.939,-55.5 160.7466,-55.5 160.7466,-37.5 106.939,-37.5"/>
<text text-anchor="middle" x="133.8428" y="-43.5" font-family="Helvetica,sans-Serif" font-size="10.00" fill="#000000">pcap_ex</text>
</a>
</g>
</g>
<!-- Node23&#45;&gt;Node0 -->
<g id="edge1" class="edge">
<title>Node23&#45;&gt;Node0</title>
<path fill="none" stroke="#191970" d="M69.2386,-34.7469C81.7264,-37.0188 95.217,-39.473 106.6242,-41.5483"/>
<polygon fill="#191970" stroke="#191970" points="69.5175,-31.2403 59.0525,-32.8938 68.2645,-38.1272 69.5175,-31.2403"/>
</g>
<!-- Node25 -->
<g id="node3" class="node">
<title>Node25</title>
<g id="a_node3"><a xlink:href="struct_t_o_o_l_1_1std__ex.xhtml" target="_top" xlink:title="Exception, which takes also string as parameter. ">
<polygon fill="#ffffff" stroke="#000000" points="94.8076,-.5 94.8076,-18.5 172.8779,-18.5 172.8779,-.5 94.8076,-.5"/>
<text text-anchor="middle" x="133.8428" y="-6.5" font-family="Helvetica,sans-Serif" font-size="10.00" fill="#000000">TOOL::std_ex</text>
</a>
</g>
</g>
<!-- Node23&#45;&gt;Node25 -->
<g id="edge2" class="edge">
<title>Node23&#45;&gt;Node25</title>
<path fill="none" stroke="#191970" d="M69.0333,-20.6699C77.4571,-19.218 86.3457,-17.6861 94.7493,-16.2377"/>
<polygon fill="#191970" stroke="#191970" points="68.3127,-17.2424 59.0525,-22.3901 69.5017,-24.1407 68.3127,-17.2424"/>
</g>
</g>
</svg>
