<?xml version="1.0" encoding="UTF-8" standalone="no"?>
<!DOCTYPE svg PUBLIC "-//W3C//DTD SVG 1.1//EN"
 "http://www.w3.org/Graphics/SVG/1.1/DTD/svg11.dtd">
<!-- Generated by graphviz version 2.40.1 (20161225.0304)
 -->
<!-- Title: Graphical Class Hierarchy Pages: 1 -->
<svg width="258pt" height="64pt"
 viewBox="0.00 0.00 257.87 64.00" xmlns="http://www.w3.org/2000/svg" xmlns:xlink="http://www.w3.org/1999/xlink">
<g id="graph0" class="graph" transform="scale(1 1) rotate(0) translate(4 60)">
<title>Graphical Class Hierarchy</title>
<polygon fill="#ffffff" stroke="transparent" points="-4,4 -4,-60 253.8652,-60 253.8652,4 -4,4"/>
<!-- Node0 -->
<g id="node1" class="node">
<title>Node0</title>
<g id="a_node1"><a xlink:href="class_n_a_m_o_n_1_1_t_entry_or_t_tree.xhtml" target="_top" xlink:title="Base class which a decision tree (cache) is made of. ">
<polygon fill="#ffffff" stroke="#000000" points="0,-18.5 0,-36.5 125.6387,-36.5 125.6387,-18.5 0,-18.5"/>
<text text-anchor="middle" x="62.8193" y="-24.5" font-family="Helvetica,sans-Serif" font-size="10.00" fill="#000000">NAMON::TEntryOrTTree</text>
</a>
</g>
</g>
<!-- Node1 -->
<g id="node2" class="node">
<title>Node1</title>
<g id="a_node2"><a xlink:href="class_n_a_m_o_n_1_1_t_entry.xhtml" target="_top" xlink:title="Class with application name, its socket inode (Linux) or PID (windows) and a pointer to Netflow class...">
<polygon fill="#ffffff" stroke="#000000" points="161.6387,-37.5 161.6387,-55.5 249.8652,-55.5 249.8652,-37.5 161.6387,-37.5"/>
<text text-anchor="middle" x="205.752" y="-43.5" font-family="Helvetica,sans-Serif" font-size="10.00" fill="#000000">NAMON::TEntry</text>
</a>
</g>
</g>
<!-- Node0&#45;&gt;Node1 -->
<g id="edge1" class="edge">
<title>Node0&#45;&gt;Node1</title>
<path fill="none" stroke="#191970" d="M136.0684,-37.237C144.7191,-38.3869 153.3349,-39.5322 161.4084,-40.6054"/>
<polygon fill="#191970" stroke="#191970" points="136.3018,-33.7373 125.9277,-35.889 135.3793,-40.6763 136.3018,-33.7373"/>
</g>
<!-- Node2 -->
<g id="node3" class="node">
<title>Node2</title>
<g id="a_node3"><a xlink:href="class_n_a_m_o_n_1_1_t_tree.xhtml" target="_top" xlink:title="Class with pointers to subtrees. ">
<polygon fill="#ffffff" stroke="#000000" points="163.2109,-.5 163.2109,-18.5 248.293,-18.5 248.293,-.5 163.2109,-.5"/>
<text text-anchor="middle" x="205.752" y="-6.5" font-family="Helvetica,sans-Serif" font-size="10.00" fill="#000000">NAMON::TTree</text>
</a>
</g>
</g>
<!-- Node0&#45;&gt;Node2 -->
<g id="edge2" class="edge">
<title>Node0&#45;&gt;Node2</title>
<path fill="none" stroke="#191970" d="M135.9838,-18.2861C145.2647,-17.1174 154.5073,-15.9534 163.0852,-14.8732"/>
<polygon fill="#191970" stroke="#191970" points="135.412,-14.8304 125.9277,-19.5525 136.2867,-21.7756 135.412,-14.8304"/>
</g>
</g>
</svg>
