<?xml version="1.0" encoding="UTF-8" standalone="no"?>
<!DOCTYPE svg PUBLIC "-//W3C//DTD SVG 1.1//EN"
 "http://www.w3.org/Graphics/SVG/1.1/DTD/svg11.dtd">
<!-- Generated by graphviz version 2.40.1 (20161225.0304)
 -->
<!-- Title: Graphical Class Hierarchy Pages: 1 -->
<svg width="191pt" height="64pt"
 viewBox="0.00 0.00 191.05 64.00" xmlns="http://www.w3.org/2000/svg" xmlns:xlink="http://www.w3.org/1999/xlink">
<g id="graph0" class="graph" transform="scale(1 1) rotate(0) translate(4 60)">
<title>Graphical Class Hierarchy</title>
<polygon fill="#ffffff" stroke="transparent" points="-4,4 -4,-60 187.0488,-60 187.0488,4 -4,4"/>
<!-- Node23 -->
<g id="node1" class="node">
<title>Node23</title>
<polygon fill="#ffffff" stroke="#bfbfbf" points="0,-18.5 0,-36.5 58.8076,-36.5 58.8076,-18.5 0,-18.5"/>
<text text-anchor="middle" x="29.4038" y="-24.5" font-family="Helvetica,sans-Serif" font-size="10.00" fill="#000000">exception</text>
</g>
<!-- Node0 -->
<g id="node2" class="node">
<title>Node0</title>
<g id="a_node2"><a xlink:href="struct_n_a_m_o_n_1_1std__ex.xhtml" target="_top" xlink:title="Exception, which takes also string as parameter. ">
<polygon fill="#ffffff" stroke="#000000" points="94.8076,-37.5 94.8076,-55.5 183.0488,-55.5 183.0488,-37.5 94.8076,-37.5"/>
<text text-anchor="middle" x="138.9282" y="-43.5" font-family="Helvetica,sans-Serif" font-size="10.00" fill="#000000">NAMON::std_ex</text>
</a>
</g>
</g>
<!-- Node23&#45;&gt;Node0 -->
<g id="edge1" class="edge">
<title>Node23&#45;&gt;Node0</title>
<path fill="none" stroke="#191970" d="M69.1334,-34.3922C77.3556,-35.8186 86.0679,-37.3299 94.4471,-38.7835"/>
<polygon fill="#191970" stroke="#191970" points="69.4938,-30.9025 59.0427,-32.6417 68.2973,-37.7995 69.4938,-30.9025"/>
</g>
<!-- Node25 -->
<g id="node3" class="node">
<title>Node25</title>
<g id="a_node3"><a xlink:href="structpcap__ex.xhtml" target="_top" xlink:title="Exception used during pcap related errors. ">
<polygon fill="#ffffff" stroke="#000000" points="112.0244,-.5 112.0244,-18.5 165.832,-18.5 165.832,-.5 112.0244,-.5"/>
<text text-anchor="middle" x="138.9282" y="-6.5" font-family="Helvetica,sans-Serif" font-size="10.00" fill="#000000">pcap_ex</text>
</a>
</g>
</g>
<!-- Node23&#45;&gt;Node25 -->
<g id="edge2" class="edge">
<title>Node23&#45;&gt;Node25</title>
<path fill="none" stroke="#191970" d="M69.0761,-20.98C83.2963,-18.6429 98.989,-16.0639 111.8921,-13.9433"/>
<polygon fill="#191970" stroke="#191970" points="68.3427,-17.5535 59.0427,-22.6289 69.4779,-24.4608 68.3427,-17.5535"/>
</g>
</g>
</svg>
