<?xml version="1.0" encoding="UTF-8" standalone="no"?>
<!DOCTYPE svg PUBLIC "-//W3C//DTD SVG 1.1//EN"
 "http://www.w3.org/Graphics/SVG/1.1/DTD/svg11.dtd">
<!-- Generated by graphviz version 2.40.1 (20161225.0304)
 -->
<!-- Title: src/main.cpp Pages: 1 -->
<svg width="1037pt" height="412pt"
 viewBox="0.00 0.00 1036.57 412.00" xmlns="http://www.w3.org/2000/svg" xmlns:xlink="http://www.w3.org/1999/xlink">
<g id="graph0" class="graph" transform="scale(1 1) rotate(0) translate(4 408)">
<title>src/main.cpp</title>
<polygon fill="#ffffff" stroke="transparent" points="-4,4 -4,-408 1032.5688,-408 1032.5688,4 -4,4"/>
<!-- Node0 -->
<g id="node1" class="node">
<title>Node0</title>
<polygon fill="#bfbfbf" stroke="#000000" points="868.6577,-385.5 868.6577,-403.5 941.3423,-403.5 941.3423,-385.5 868.6577,-385.5"/>
<text text-anchor="middle" x="905" y="-391.5" font-family="Helvetica,sans-Serif" font-size="10.00" fill="#000000">src/main.cpp</text>
</g>
<!-- Node1 -->
<g id="node2" class="node">
<title>Node1</title>
<polygon fill="#ffffff" stroke="#bfbfbf" points="839.8276,-110.5 839.8276,-128.5 894.1724,-128.5 894.1724,-110.5 839.8276,-110.5"/>
<text text-anchor="middle" x="867" y="-116.5" font-family="Helvetica,sans-Serif" font-size="10.00" fill="#000000">iostream</text>
</g>
<!-- Node0&#45;&gt;Node1 -->
<g id="edge1" class="edge">
<title>Node0&#45;&gt;Node1</title>
<path fill="none" stroke="#191970" d="M910.4445,-385.4507C920.9518,-367.0998 943,-323.899 943,-284.5 943,-284.5 943,-284.5 943,-229.5 943,-190.0142 909.4425,-154.4341 886.9247,-135.0039"/>
<polygon fill="#191970" stroke="#191970" points="889.1402,-132.2943 879.2107,-128.5988 884.6684,-137.6798 889.1402,-132.2943"/>
</g>
<!-- Node2 -->
<g id="node3" class="node">
<title>Node2</title>
<polygon fill="#ffffff" stroke="#bfbfbf" points="824.9287,-330.5 824.9287,-348.5 877.0713,-348.5 877.0713,-330.5 824.9287,-330.5"/>
<text text-anchor="middle" x="851" y="-336.5" font-family="Helvetica,sans-Serif" font-size="10.00" fill="#000000">getopt.h</text>
</g>
<!-- Node0&#45;&gt;Node2 -->
<g id="edge2" class="edge">
<title>Node0&#45;&gt;Node2</title>
<path fill="none" stroke="#191970" d="M896.083,-385.4179C888.2354,-377.425 876.616,-365.5903 867.1389,-355.9377"/>
<polygon fill="#191970" stroke="#191970" points="869.6142,-353.463 860.1107,-348.7795 864.6192,-358.3672 869.6142,-353.463"/>
</g>
<!-- Node3 -->
<g id="node4" class="node">
<title>Node3</title>
<g id="a_node4"><a xlink:href="capturing_8hpp.xhtml" target="_top" xlink:title="Network traffic capture header file. ">
<polygon fill="#ffffff" stroke="#000000" points="526.6997,-330.5 526.6997,-348.5 603.3003,-348.5 603.3003,-330.5 526.6997,-330.5"/>
<text text-anchor="middle" x="565" y="-336.5" font-family="Helvetica,sans-Serif" font-size="10.00" fill="#000000">capturing.hpp</text>
</a>
</g>
</g>
<!-- Node0&#45;&gt;Node3 -->
<g id="edge3" class="edge">
<title>Node0&#45;&gt;Node3</title>
<path fill="none" stroke="#191970" d="M868.614,-388.614C807.1022,-378.6636 682.5418,-358.5141 613.6184,-347.3647"/>
<polygon fill="#191970" stroke="#191970" points="613.8904,-343.8633 603.4598,-345.7214 612.7726,-350.7735 613.8904,-343.8633"/>
</g>
<!-- Node24 -->
<g id="node25" class="node">
<title>Node24</title>
<g id="a_node25"><a xlink:href="debug_8hpp.xhtml" target="_top" xlink:title="Debugging functions. ">
<polygon fill="#ffffff" stroke="#000000" points="775.3647,-165.5 775.3647,-183.5 838.6353,-183.5 838.6353,-165.5 775.3647,-165.5"/>
<text text-anchor="middle" x="807" y="-171.5" font-family="Helvetica,sans-Serif" font-size="10.00" fill="#000000">debug.hpp</text>
</a>
</g>
</g>
<!-- Node0&#45;&gt;Node24 -->
<g id="edge43" class="edge">
<title>Node0&#45;&gt;Node24</title>
<path fill="none" stroke="#191970" d="M902.8162,-385.134C899.7228,-372.4196 893.5877,-349.0932 886,-330 865.4929,-278.397 833.8288,-220.9328 817.5143,-192.4829"/>
<polygon fill="#191970" stroke="#191970" points="820.4636,-190.5913 812.4273,-183.6871 814.404,-194.0959 820.4636,-190.5913"/>
</g>
<!-- Node27 -->
<g id="node28" class="node">
<title>Node27</title>
<g id="a_node28"><a xlink:href="main_8hpp.xhtml" target="_top" xlink:title="Main header file. ">
<polygon fill="#ffffff" stroke="#000000" points="971.4312,-330.5 971.4312,-348.5 1028.5688,-348.5 1028.5688,-330.5 971.4312,-330.5"/>
<text text-anchor="middle" x="1000" y="-336.5" font-family="Helvetica,sans-Serif" font-size="10.00" fill="#000000">main.hpp</text>
</a>
</g>
</g>
<!-- Node0&#45;&gt;Node27 -->
<g id="edge44" class="edge">
<title>Node0&#45;&gt;Node27</title>
<path fill="none" stroke="#191970" d="M920.6873,-385.4179C935.539,-376.8195 958.0698,-363.7754 975.3269,-353.7844"/>
<polygon fill="#191970" stroke="#191970" points="977.3887,-356.635 984.2894,-348.5956 973.8815,-350.577 977.3887,-356.635"/>
</g>
<!-- Node3&#45;&gt;Node1 -->
<g id="edge4" class="edge">
<title>Node3&#45;&gt;Node1</title>
<path fill="none" stroke="#191970" d="M603.548,-335.8929C677.0287,-328.6481 831.3529,-311.5178 848,-294 888.3475,-251.5423 878.8206,-174.4772 871.566,-138.7017"/>
<polygon fill="#191970" stroke="#191970" points="874.9187,-137.6506 869.3565,-128.6333 868.0814,-139.1511 874.9187,-137.6506"/>
</g>
<!-- Node4 -->
<g id="node5" class="node">
<title>Node4</title>
<polygon fill="#ffffff" stroke="#bfbfbf" points="772.9902,-275.5 772.9902,-293.5 839.0098,-293.5 839.0098,-275.5 772.9902,-275.5"/>
<text text-anchor="middle" x="806" y="-281.5" font-family="Helvetica,sans-Serif" font-size="10.00" fill="#000000">sys/types.h</text>
</g>
<!-- Node3&#45;&gt;Node4 -->
<g id="edge5" class="edge">
<title>Node3&#45;&gt;Node4</title>
<path fill="none" stroke="#191970" d="M603.4537,-330.7243C646.9427,-320.7994 717.5842,-304.6779 762.9022,-294.3356"/>
<polygon fill="#191970" stroke="#191970" points="763.7566,-297.7307 772.7272,-292.0934 762.1991,-290.9061 763.7566,-297.7307"/>
</g>
<!-- Node5 -->
<g id="node6" class="node">
<title>Node5</title>
<polygon fill="#ffffff" stroke="#bfbfbf" points="104.2734,-220.5 104.2734,-238.5 149.7266,-238.5 149.7266,-220.5 104.2734,-220.5"/>
<text text-anchor="middle" x="127" y="-226.5" font-family="Helvetica,sans-Serif" font-size="10.00" fill="#000000">atomic</text>
</g>
<!-- Node3&#45;&gt;Node5 -->
<g id="edge6" class="edge">
<title>Node3&#45;&gt;Node5</title>
<path fill="none" stroke="#191970" d="M526.5043,-330.5933C455.8433,-314.1098 300.535,-277.2554 159.7184,-239.1077"/>
<polygon fill="#191970" stroke="#191970" points="160.6039,-235.7214 150.036,-236.4763 158.768,-242.4764 160.6039,-235.7214"/>
</g>
<!-- Node6 -->
<g id="node7" class="node">
<title>Node6</title>
<g id="a_node7"><a xlink:href="tcpip__headers_8hpp.xhtml" target="_top" xlink:title="Protocol headers. ">
<polygon fill="#ffffff" stroke="#000000" points="140.8574,-55.5 140.8574,-73.5 239.1426,-73.5 239.1426,-55.5 140.8574,-55.5"/>
<text text-anchor="middle" x="190" y="-61.5" font-family="Helvetica,sans-Serif" font-size="10.00" fill="#000000">tcpip_headers.hpp</text>
</a>
</g>
</g>
<!-- Node3&#45;&gt;Node6 -->
<g id="edge7" class="edge">
<title>Node3&#45;&gt;Node6</title>
<path fill="none" stroke="#191970" d="M526.3562,-337.8191C430.7726,-333.3158 185.4185,-319.553 108,-294 54.9085,-276.4764 0,-285.4087 0,-229.5 0,-229.5 0,-229.5 0,-174.5 0,-139.2626 99.1152,-97.5438 154.1718,-77.088"/>
<polygon fill="#191970" stroke="#191970" points="155.3965,-80.3669 163.5813,-73.6394 152.9876,-73.7944 155.3965,-80.3669"/>
</g>
<!-- Node8 -->
<g id="node9" class="node">
<title>Node8</title>
<g id="a_node9"><a xlink:href="netflow_8hpp.xhtml" target="_top" xlink:title="Netflow structure header file. ">
<polygon fill="#ffffff" stroke="#000000" points="111.6997,-110.5 111.6997,-128.5 178.3003,-128.5 178.3003,-110.5 111.6997,-110.5"/>
<text text-anchor="middle" x="145" y="-116.5" font-family="Helvetica,sans-Serif" font-size="10.00" fill="#000000">netflow.hpp</text>
</a>
</g>
</g>
<!-- Node3&#45;&gt;Node8 -->
<g id="edge9" class="edge">
<title>Node3&#45;&gt;Node8</title>
<path fill="none" stroke="#191970" d="M526.4798,-338.0957C437.117,-334.3867 218.206,-322.5808 151,-294 110.4454,-276.7533 73.283,-262.4834 85,-220 93.8618,-187.8687 115.9989,-155.6545 130.7619,-136.6541"/>
<polygon fill="#191970" stroke="#191970" points="133.6305,-138.6708 137.1391,-128.6738 128.1621,-134.3009 133.6305,-138.6708"/>
</g>
<!-- Node11 -->
<g id="node12" class="node">
<title>Node11</title>
<g id="a_node12"><a xlink:href="ring_buffer_8hpp.xhtml" target="_top" xlink:title="Ring Buffer header file. ">
<polygon fill="#ffffff" stroke="#000000" points="437.9526,-275.5 437.9526,-293.5 516.0474,-293.5 516.0474,-275.5 437.9526,-275.5"/>
<text text-anchor="middle" x="477" y="-281.5" font-family="Helvetica,sans-Serif" font-size="10.00" fill="#000000">ringBuffer.hpp</text>
</a>
</g>
</g>
<!-- Node3&#45;&gt;Node11 -->
<g id="edge13" class="edge">
<title>Node3&#45;&gt;Node11</title>
<path fill="none" stroke="#191970" d="M550.4686,-330.4179C536.8386,-321.8992 516.2265,-309.0166 500.3004,-299.0627"/>
<polygon fill="#191970" stroke="#191970" points="501.888,-295.9277 491.553,-293.5956 498.178,-301.8637 501.888,-295.9277"/>
</g>
<!-- Node17 -->
<g id="node18" class="node">
<title>Node17</title>
<g id="a_node18"><a xlink:href="pcapng__blocks_8hpp.xhtml" target="_top" xlink:title="Pcap&#45;ng block structures. ">
<polygon fill="#ffffff" stroke="#000000" points="661.9116,-220.5 661.9116,-238.5 764.0884,-238.5 764.0884,-220.5 661.9116,-220.5"/>
<text text-anchor="middle" x="713" y="-226.5" font-family="Helvetica,sans-Serif" font-size="10.00" fill="#000000">pcapng_blocks.hpp</text>
</a>
</g>
</g>
<!-- Node3&#45;&gt;Node17 -->
<g id="edge40" class="edge">
<title>Node3&#45;&gt;Node17</title>
<path fill="none" stroke="#191970" d="M577.1115,-330.4982C602.4792,-311.6439 661.4267,-267.8315 692.6888,-244.5962"/>
<polygon fill="#191970" stroke="#191970" points="694.7831,-247.4005 700.7212,-238.6261 690.6074,-241.7823 694.7831,-247.4005"/>
</g>
<!-- Node21 -->
<g id="node22" class="node">
<title>Node21</title>
<g id="a_node22"><a xlink:href="cache_8hpp.xhtml" target="_top" xlink:title="Cache implementation header file. ">
<polygon fill="#ffffff" stroke="#000000" points="223.9263,-165.5 223.9263,-183.5 286.0737,-183.5 286.0737,-165.5 223.9263,-165.5"/>
<text text-anchor="middle" x="255" y="-171.5" font-family="Helvetica,sans-Serif" font-size="10.00" fill="#000000">cache.hpp</text>
</a>
</g>
</g>
<!-- Node3&#45;&gt;Node21 -->
<g id="edge41" class="edge">
<title>Node3&#45;&gt;Node21</title>
<path fill="none" stroke="#191970" d="M526.4571,-337.4415C423.7481,-331.0541 147.69,-307.6897 95,-239 61.9661,-195.9351 155.8792,-181.5191 213.5632,-176.7717"/>
<polygon fill="#191970" stroke="#191970" points="214.1657,-180.2362 223.8737,-175.993 213.6385,-173.2561 214.1657,-180.2362"/>
</g>
<!-- Node3&#45;&gt;Node24 -->
<g id="edge42" class="edge">
<title>Node3&#45;&gt;Node24</title>
<path fill="none" stroke="#191970" d="M598.7467,-330.4402C643.4016,-316.98 722.3665,-287.8906 773,-239 786.2069,-226.2477 795.3621,-207.243 800.8175,-193.163"/>
<polygon fill="#191970" stroke="#191970" points="804.1871,-194.1356 804.2741,-183.5411 797.5993,-191.769 804.1871,-194.1356"/>
</g>
<!-- Node7 -->
<g id="node8" class="node">
<title>Node7</title>
<polygon fill="#ffffff" stroke="#bfbfbf" points="165.8794,-.5 165.8794,-18.5 214.1206,-18.5 214.1206,-.5 165.8794,-.5"/>
<text text-anchor="middle" x="190" y="-6.5" font-family="Helvetica,sans-Serif" font-size="10.00" fill="#000000">stdint.h</text>
</g>
<!-- Node6&#45;&gt;Node7 -->
<g id="edge8" class="edge">
<title>Node6&#45;&gt;Node7</title>
<path fill="none" stroke="#191970" d="M190,-55.4179C190,-48.2164 190,-37.8962 190,-28.8632"/>
<polygon fill="#191970" stroke="#191970" points="193.5001,-28.7794 190,-18.7795 186.5001,-28.7795 193.5001,-28.7794"/>
</g>
<!-- Node8&#45;&gt;Node6 -->
<g id="edge12" class="edge">
<title>Node8&#45;&gt;Node6</title>
<path fill="none" stroke="#191970" d="M152.4308,-110.4179C158.7762,-102.6624 168.0809,-91.29 175.8426,-81.8035"/>
<polygon fill="#191970" stroke="#191970" points="178.7842,-83.7354 182.4077,-73.7795 173.3664,-79.3027 178.7842,-83.7354"/>
</g>
<!-- Node9 -->
<g id="node10" class="node">
<title>Node9</title>
<polygon fill="#ffffff" stroke="#bfbfbf" points="355.7734,-55.5 355.7734,-73.5 396.2266,-73.5 396.2266,-55.5 355.7734,-55.5"/>
<text text-anchor="middle" x="376" y="-61.5" font-family="Helvetica,sans-Serif" font-size="10.00" fill="#000000">string</text>
</g>
<!-- Node8&#45;&gt;Node9 -->
<g id="edge10" class="edge">
<title>Node8&#45;&gt;Node9</title>
<path fill="none" stroke="#191970" d="M178.5894,-111.5025C223.5578,-100.7958 302.6552,-81.963 345.818,-71.6862"/>
<polygon fill="#191970" stroke="#191970" points="346.8051,-75.0491 355.7225,-69.328 345.1837,-68.2394 346.8051,-75.0491"/>
</g>
<!-- Node10 -->
<g id="node11" class="node">
<title>Node10</title>
<polygon fill="#ffffff" stroke="#bfbfbf" points="77.2734,-55.5 77.2734,-73.5 122.7266,-73.5 122.7266,-55.5 77.2734,-55.5"/>
<text text-anchor="middle" x="100" y="-61.5" font-family="Helvetica,sans-Serif" font-size="10.00" fill="#000000">cstring</text>
</g>
<!-- Node8&#45;&gt;Node10 -->
<g id="edge11" class="edge">
<title>Node8&#45;&gt;Node10</title>
<path fill="none" stroke="#191970" d="M137.5692,-110.4179C131.2238,-102.6624 121.9191,-91.29 114.1574,-81.8035"/>
<polygon fill="#191970" stroke="#191970" points="116.6336,-79.3027 107.5923,-73.7795 111.2158,-83.7354 116.6336,-79.3027"/>
</g>
<!-- Node11&#45;&gt;Node5 -->
<g id="edge15" class="edge">
<title>Node11&#45;&gt;Node5</title>
<path fill="none" stroke="#191970" d="M437.504,-280.7295C378.8831,-274.7243 265.3031,-261.5216 159.8206,-238.9026"/>
<polygon fill="#191970" stroke="#191970" points="160.483,-235.4648 149.9672,-236.7566 158.9933,-242.3045 160.483,-235.4648"/>
</g>
<!-- Node12 -->
<g id="node13" class="node">
<title>Node12</title>
<polygon fill="#ffffff" stroke="#bfbfbf" points="404.3843,-110.5 404.3843,-128.5 447.6157,-128.5 447.6157,-110.5 404.3843,-110.5"/>
<text text-anchor="middle" x="426" y="-116.5" font-family="Helvetica,sans-Serif" font-size="10.00" fill="#000000">vector</text>
</g>
<!-- Node11&#45;&gt;Node12 -->
<g id="edge14" class="edge">
<title>Node11&#45;&gt;Node12</title>
<path fill="none" stroke="#191970" d="M480.3527,-275.3813C484.5215,-262.552 490.2571,-238.6566 483,-220 475.1314,-199.7714 461.328,-202.5145 450,-184 441.3284,-169.8272 434.996,-152.0194 431.0201,-138.7079"/>
<polygon fill="#191970" stroke="#191970" points="434.3021,-137.448 428.2351,-128.7623 427.5613,-139.3356 434.3021,-137.448"/>
</g>
<!-- Node13 -->
<g id="node14" class="node">
<title>Node13</title>
<polygon fill="#ffffff" stroke="#bfbfbf" points="667.3843,-110.5 667.3843,-128.5 710.6157,-128.5 710.6157,-110.5 667.3843,-110.5"/>
<text text-anchor="middle" x="689" y="-116.5" font-family="Helvetica,sans-Serif" font-size="10.00" fill="#000000">mutex</text>
</g>
<!-- Node11&#45;&gt;Node13 -->
<g id="edge16" class="edge">
<title>Node11&#45;&gt;Node13</title>
<path fill="none" stroke="#191970" d="M483.1837,-275.1835C498.1304,-253.2829 538.372,-197.9004 584,-165 606.499,-148.777 635.6881,-136.7159 657.5779,-129.1024"/>
<polygon fill="#191970" stroke="#191970" points="658.7035,-132.4166 667.0715,-125.9184 656.4776,-125.7799 658.7035,-132.4166"/>
</g>
<!-- Node14 -->
<g id="node15" class="node">
<title>Node14</title>
<polygon fill="#ffffff" stroke="#bfbfbf" points="251.8228,-220.5 251.8228,-238.5 296.1772,-238.5 296.1772,-220.5 251.8228,-220.5"/>
<text text-anchor="middle" x="274" y="-226.5" font-family="Helvetica,sans-Serif" font-size="10.00" fill="#000000">thread</text>
</g>
<!-- Node11&#45;&gt;Node14 -->
<g id="edge17" class="edge">
<title>Node11&#45;&gt;Node14</title>
<path fill="none" stroke="#191970" d="M441.3128,-275.4895C408.4918,-267.1074 358.2513,-254.0378 306.0805,-239.2363"/>
<polygon fill="#191970" stroke="#191970" points="306.8968,-235.8296 296.3204,-236.4531 304.9772,-242.5613 306.8968,-235.8296"/>
</g>
<!-- Node15 -->
<g id="node16" class="node">
<title>Node15</title>
<polygon fill="#ffffff" stroke="#bfbfbf" points="313.6948,-220.5 313.6948,-238.5 410.3052,-238.5 410.3052,-220.5 313.6948,-220.5"/>
<text text-anchor="middle" x="362" y="-226.5" font-family="Helvetica,sans-Serif" font-size="10.00" fill="#000000">condition_variable</text>
</g>
<!-- Node11&#45;&gt;Node15 -->
<g id="edge18" class="edge">
<title>Node11&#45;&gt;Node15</title>
<path fill="none" stroke="#191970" d="M458.0101,-275.4179C439.5324,-266.5807 411.2352,-253.0473 390.1417,-242.9591"/>
<polygon fill="#191970" stroke="#191970" points="391.5496,-239.7528 381.0181,-238.5956 388.5294,-246.0677 391.5496,-239.7528"/>
</g>
<!-- Node16 -->
<g id="node17" class="node">
<title>Node16</title>
<polygon fill="#ffffff" stroke="#bfbfbf" points="427.9878,-220.5 427.9878,-238.5 474.0122,-238.5 474.0122,-220.5 427.9878,-220.5"/>
<text text-anchor="middle" x="451" y="-226.5" font-family="Helvetica,sans-Serif" font-size="10.00" fill="#000000">pcap.h</text>
</g>
<!-- Node11&#45;&gt;Node16 -->
<g id="edge19" class="edge">
<title>Node11&#45;&gt;Node16</title>
<path fill="none" stroke="#191970" d="M472.7066,-275.4179C469.19,-267.9789 464.1004,-257.2123 459.7332,-247.9742"/>
<polygon fill="#191970" stroke="#191970" points="462.8248,-246.3243 455.3867,-238.7795 456.4962,-249.316 462.8248,-246.3243"/>
</g>
<!-- Node11&#45;&gt;Node17 -->
<g id="edge20" class="edge">
<title>Node11&#45;&gt;Node17</title>
<path fill="none" stroke="#191970" d="M515.7063,-275.4795C556.3475,-266.008 620.3451,-251.0933 664.3689,-240.8335"/>
<polygon fill="#191970" stroke="#191970" points="665.3279,-244.2039 674.2725,-238.5255 663.7391,-237.3866 665.3279,-244.2039"/>
</g>
<!-- Node25 -->
<g id="node26" class="node">
<title>Node25</title>
<g id="a_node26"><a xlink:href="namon_8hpp.xhtml" target="_top" xlink:title="Determining applications header file. ">
<polygon fill="#ffffff" stroke="#000000" points="167.9805,-220.5 167.9805,-238.5 234.0195,-238.5 234.0195,-220.5 167.9805,-220.5"/>
<text text-anchor="middle" x="201" y="-226.5" font-family="Helvetica,sans-Serif" font-size="10.00" fill="#000000">namon.hpp</text>
</a>
</g>
</g>
<!-- Node11&#45;&gt;Node25 -->
<g id="edge36" class="edge">
<title>Node11&#45;&gt;Node25</title>
<path fill="none" stroke="#191970" d="M437.5937,-277.2161C393.0275,-268.8947 318.038,-254.6411 244.3633,-239.243"/>
<polygon fill="#191970" stroke="#191970" points="244.9563,-235.7913 234.4506,-237.1625 243.5184,-242.642 244.9563,-235.7913"/>
</g>
<!-- Node26 -->
<g id="node27" class="node">
<title>Node26</title>
<g id="a_node27"><a xlink:href="ring_buffer_8tpp.xhtml" target="_top" xlink:title="Ring Buffer template functions. ">
<polygon fill="#ffffff" stroke="#000000" points="568.3442,-220.5 568.3442,-238.5 643.6558,-238.5 643.6558,-220.5 568.3442,-220.5"/>
<text text-anchor="middle" x="606" y="-226.5" font-family="Helvetica,sans-Serif" font-size="10.00" fill="#000000">ringBuffer.tpp</text>
</a>
</g>
</g>
<!-- Node11&#45;&gt;Node26 -->
<g id="edge39" class="edge">
<title>Node11&#45;&gt;Node26</title>
<path fill="none" stroke="#191970" d="M498.3017,-275.4179C519.309,-266.4613 551.6308,-252.6806 575.3871,-242.552"/>
<polygon fill="#191970" stroke="#191970" points="576.8405,-245.7372 584.6666,-238.5956 574.0951,-239.2981 576.8405,-245.7372"/>
</g>
<!-- Node17&#45;&gt;Node6 -->
<g id="edge26" class="edge">
<title>Node17&#45;&gt;Node6</title>
<path fill="none" stroke="#191970" d="M666.3529,-220.4368C634.4849,-213.1693 591.8779,-201.299 557,-184 507.4678,-159.4327 507.8622,-131.6801 457,-110 420.5357,-94.457 316.2968,-79.6522 249.368,-71.3545"/>
<polygon fill="#191970" stroke="#191970" points="249.7214,-67.8717 239.3698,-70.1289 248.8697,-74.8197 249.7214,-67.8717"/>
</g>
<!-- Node17&#45;&gt;Node9 -->
<g id="edge23" class="edge">
<title>Node17&#45;&gt;Node9</title>
<path fill="none" stroke="#191970" d="M675.1124,-220.4633C648.4284,-213.0906 612.522,-201.0845 584,-184 542.1688,-158.9434 544.7693,-135.1596 503,-110 472.3593,-91.5436 433.0768,-78.9147 406.3693,-71.729"/>
<polygon fill="#191970" stroke="#191970" points="407.0065,-68.2785 396.448,-69.1543 405.2481,-75.0541 407.0065,-68.2785"/>
</g>
<!-- Node17&#45;&gt;Node12 -->
<g id="edge24" class="edge">
<title>Node17&#45;&gt;Node12</title>
<path fill="none" stroke="#191970" d="M661.8259,-220.6763C594.2828,-208.8904 482.9327,-188.9185 475,-184 457.1319,-172.9215 443.4224,-152.7854 435.108,-137.9489"/>
<polygon fill="#191970" stroke="#191970" points="437.9907,-135.9121 430.229,-128.7006 431.7995,-139.1784 437.9907,-135.9121"/>
</g>
<!-- Node18 -->
<g id="node19" class="node">
<title>Node18</title>
<polygon fill="#ffffff" stroke="#bfbfbf" points="592.5493,-165.5 592.5493,-183.5 637.4507,-183.5 637.4507,-165.5 592.5493,-165.5"/>
<text text-anchor="middle" x="615" y="-171.5" font-family="Helvetica,sans-Serif" font-size="10.00" fill="#000000">cstdint</text>
</g>
<!-- Node17&#45;&gt;Node18 -->
<g id="edge21" class="edge">
<title>Node17&#45;&gt;Node18</title>
<path fill="none" stroke="#191970" d="M696.8173,-220.4179C681.3548,-211.7399 657.8232,-198.5334 639.9591,-188.5077"/>
<polygon fill="#191970" stroke="#191970" points="641.6402,-185.4377 631.2067,-183.5956 638.2143,-191.542 641.6402,-185.4377"/>
</g>
<!-- Node19 -->
<g id="node20" class="node">
<title>Node19</title>
<polygon fill="#ffffff" stroke="#bfbfbf" points="655.3301,-165.5 655.3301,-183.5 704.6699,-183.5 704.6699,-165.5 655.3301,-165.5"/>
<text text-anchor="middle" x="680" y="-171.5" font-family="Helvetica,sans-Serif" font-size="10.00" fill="#000000">fstream</text>
</g>
<!-- Node17&#45;&gt;Node19 -->
<g id="edge22" class="edge">
<title>Node17&#45;&gt;Node19</title>
<path fill="none" stroke="#191970" d="M707.5507,-220.4179C702.9924,-212.8207 696.3516,-201.7527 690.732,-192.3866"/>
<polygon fill="#191970" stroke="#191970" points="693.7139,-190.5536 685.5677,-183.7795 687.7114,-194.1552 693.7139,-190.5536"/>
</g>
<!-- Node20 -->
<g id="node21" class="node">
<title>Node20</title>
<polygon fill="#ffffff" stroke="#bfbfbf" points="722.2734,-165.5 722.2734,-183.5 757.7266,-183.5 757.7266,-165.5 722.2734,-165.5"/>
<text text-anchor="middle" x="740" y="-171.5" font-family="Helvetica,sans-Serif" font-size="10.00" fill="#000000">map</text>
</g>
<!-- Node17&#45;&gt;Node20 -->
<g id="edge25" class="edge">
<title>Node17&#45;&gt;Node20</title>
<path fill="none" stroke="#191970" d="M717.4585,-220.4179C721.1103,-212.9789 726.3958,-202.2123 730.9309,-192.9742"/>
<polygon fill="#191970" stroke="#191970" points="734.1797,-194.2985 735.4446,-183.7795 727.896,-191.2138 734.1797,-194.2985"/>
</g>
<!-- Node17&#45;&gt;Node21 -->
<g id="edge27" class="edge">
<title>Node17&#45;&gt;Node21</title>
<path fill="none" stroke="#191970" d="M661.6346,-221.2177C658.7152,-220.7935 655.8215,-220.3845 653,-220 523.1172,-202.3018 368.7447,-186.0002 296.3489,-178.6324"/>
<polygon fill="#191970" stroke="#191970" points="296.5771,-175.1376 286.275,-177.611 295.8709,-182.1019 296.5771,-175.1376"/>
</g>
<!-- Node17&#45;&gt;Node24 -->
<g id="edge33" class="edge">
<title>Node17&#45;&gt;Node24</title>
<path fill="none" stroke="#191970" d="M728.5222,-220.4179C743.2175,-211.8195 765.5112,-198.7754 782.5866,-188.7844"/>
<polygon fill="#191970" stroke="#191970" points="784.5912,-191.6667 791.4548,-183.5956 781.0561,-185.6249 784.5912,-191.6667"/>
</g>
<!-- Node21&#45;&gt;Node8 -->
<g id="edge32" class="edge">
<title>Node21&#45;&gt;Node8</title>
<path fill="none" stroke="#191970" d="M236.8357,-165.4179C219.241,-156.6205 192.3382,-143.1691 172.1912,-133.0956"/>
<polygon fill="#191970" stroke="#191970" points="173.7008,-129.9373 163.1912,-128.5956 170.5703,-136.1983 173.7008,-129.9373"/>
</g>
<!-- Node21&#45;&gt;Node9 -->
<g id="edge28" class="edge">
<title>Node21&#45;&gt;Node9</title>
<path fill="none" stroke="#191970" d="M286.4033,-167.9281C309.0537,-161.6192 338.7407,-149.8674 357,-129 368.0396,-116.3836 372.6725,-97.6245 374.6126,-83.5848"/>
<polygon fill="#191970" stroke="#191970" points="378.1034,-83.8542 375.6622,-73.5445 371.1413,-83.1264 378.1034,-83.8542"/>
</g>
<!-- Node21&#45;&gt;Node12 -->
<g id="edge29" class="edge">
<title>Node21&#45;&gt;Node12</title>
<path fill="none" stroke="#191970" d="M283.2372,-165.4179C313.881,-155.5617 362.6872,-139.8638 394.5386,-129.6192"/>
<polygon fill="#191970" stroke="#191970" points="395.7916,-132.8928 404.2397,-126.4989 393.6483,-126.229 395.7916,-132.8928"/>
</g>
<!-- Node22 -->
<g id="node23" class="node">
<title>Node22</title>
<polygon fill="#ffffff" stroke="#bfbfbf" points="196.6973,-110.5 196.6973,-128.5 283.3027,-128.5 283.3027,-110.5 196.6973,-110.5"/>
<text text-anchor="middle" x="240" y="-116.5" font-family="Helvetica,sans-Serif" font-size="10.00" fill="#000000">unordered_map</text>
</g>
<!-- Node21&#45;&gt;Node22 -->
<g id="edge30" class="edge">
<title>Node21&#45;&gt;Node22</title>
<path fill="none" stroke="#191970" d="M252.5231,-165.4179C250.5374,-158.1372 247.6824,-147.669 245.1998,-138.5659"/>
<polygon fill="#191970" stroke="#191970" points="248.5387,-137.5062 242.5308,-128.7795 241.7853,-139.348 248.5387,-137.5062"/>
</g>
<!-- Node23 -->
<g id="node24" class="node">
<title>Node23</title>
<polygon fill="#ffffff" stroke="#bfbfbf" points="301.7119,-110.5 301.7119,-128.5 348.2881,-128.5 348.2881,-110.5 301.7119,-110.5"/>
<text text-anchor="middle" x="325" y="-116.5" font-family="Helvetica,sans-Serif" font-size="10.00" fill="#000000">chrono</text>
</g>
<!-- Node21&#45;&gt;Node23 -->
<g id="edge31" class="edge">
<title>Node21&#45;&gt;Node23</title>
<path fill="none" stroke="#191970" d="M266.5591,-165.4179C277.034,-157.1876 292.6932,-144.8839 305.1664,-135.0836"/>
<polygon fill="#191970" stroke="#191970" points="307.489,-137.7098 313.1898,-128.7795 303.1642,-132.2056 307.489,-137.7098"/>
</g>
<!-- Node24&#45;&gt;Node1 -->
<g id="edge34" class="edge">
<title>Node24&#45;&gt;Node1</title>
<path fill="none" stroke="#191970" d="M816.9078,-165.4179C825.7136,-157.3458 838.7939,-145.3556 849.38,-135.6517"/>
<polygon fill="#191970" stroke="#191970" points="851.8704,-138.1168 856.877,-128.7795 847.1403,-132.9567 851.8704,-138.1168"/>
</g>
<!-- Node24&#45;&gt;Node13 -->
<g id="edge35" class="edge">
<title>Node24&#45;&gt;Node13</title>
<path fill="none" stroke="#191970" d="M787.5147,-165.4179C768.4695,-156.5409 739.2578,-142.9253 717.5838,-132.823"/>
<polygon fill="#191970" stroke="#191970" points="719.0567,-129.648 708.5142,-128.5956 716.0994,-135.9927 719.0567,-129.648"/>
</g>
<!-- Node25&#45;&gt;Node8 -->
<g id="edge37" class="edge">
<title>Node25&#45;&gt;Node8</title>
<path fill="none" stroke="#191970" d="M196.4173,-220.4982C187.2289,-202.4496 166.3974,-161.5306 154.2574,-137.6843"/>
<polygon fill="#191970" stroke="#191970" points="157.302,-135.9499 149.646,-128.6261 151.0638,-139.1257 157.302,-135.9499"/>
</g>
<!-- Node25&#45;&gt;Node21 -->
<g id="edge38" class="edge">
<title>Node25&#45;&gt;Node21</title>
<path fill="none" stroke="#191970" d="M209.917,-220.4179C217.7646,-212.425 229.384,-200.5903 238.8611,-190.9377"/>
<polygon fill="#191970" stroke="#191970" points="241.3808,-193.3672 245.8893,-183.7795 236.3858,-188.463 241.3808,-193.3672"/>
</g>
</g>
</svg>
