<?xml version="1.0" encoding="UTF-8" standalone="no"?>
<!DOCTYPE svg PUBLIC "-//W3C//DTD SVG 1.1//EN"
 "http://www.w3.org/Graphics/SVG/1.1/DTD/svg11.dtd">
<!-- Generated by graphviz version 2.40.1 (20161225.0304)
 -->
<!-- Title: src/main.cpp Pages: 1 -->
<!--zoomable 412 -->
<svg id="main" version="1.1" xmlns="http://www.w3.org/2000/svg" xmlns:xlink="http://www.w3.org/1999/xlink" xml:space="preserve" onload="init(evt)">
<style type="text/css"><![CDATA[
.edge:hover path { stroke: red; }
.edge:hover polygon { stroke: red; fill: red; }
]]></style>
<script type="text/javascript"><![CDATA[
var edges = document.getElementsByTagName('g');
if (edges && edges.length) {
  for (var i=0;i<edges.length;i++) {
    if (edges[i].id.substr(0,4)=='edge') {
      edges[i].setAttribute('class','edge');
    }
  }
}
]]></script>
        <defs>
                <circle id="rim" cx="0" cy="0" r="7"/>
                <circle id="rim2" cx="0" cy="0" r="3.5"/>
                <g id="zoomPlus">
                        <use xlink:href="#rim" fill="#404040">
                                <set attributeName="fill" to="#808080" begin="zoomplus.mouseover" end="zoomplus.mouseout"/>
                        </use>
                        <path d="M-4,0h8M0,-4v8" fill="none" stroke="white" stroke-width="1.5" pointer-events="none"/>
                </g>
                <g id="zoomMin">
                        <use xlink:href="#rim" fill="#404040">
                                <set attributeName="fill" to="#808080" begin="zoomminus.mouseover" end="zoomminus.mouseout"/>
                        </use>
                        <path d="M-4,0h8" fill="none" stroke="white" stroke-width="1.5" pointer-events="none"/>
                </g>
                <g id="dirArrow">
                        <path fill="none" stroke="white" stroke-width="1.5" d="M0,-3.0v7 M-2.5,-0.5L0,-3.0L2.5,-0.5"/>
                </g>
               <g id="resetDef">
                       <use xlink:href="#rim2" fill="#404040">
                               <set attributeName="fill" to="#808080" begin="reset.mouseover" end="reset.mouseout"/>
                       </use>
               </g>
        </defs>

<script type="text/javascript">
var viewWidth = 1024;
var viewHeight = 412;
var sectionId = 'dynsection-0';
</script>
<script xlink:href="svgpan.js"/>
<svg id="graph" class="graph">
<g id="viewport">
<title>src/main.cpp</title>
<polygon fill="#ffffff" stroke="transparent" points="-4,4 -4,-408 1019.5688,-408 1019.5688,4 -4,4"/>
<!-- Node0 -->
<g id="node1" class="node">
<title>Node0</title>
<polygon fill="#bfbfbf" stroke="#000000" points="855.6577,-385.5 855.6577,-403.5 928.3423,-403.5 928.3423,-385.5 855.6577,-385.5"/>
<text text-anchor="middle" x="892" y="-391.5" font-family="Helvetica,sans-Serif" font-size="10.00" fill="#000000">src/main.cpp</text>
</g>
<!-- Node1 -->
<g id="node2" class="node">
<title>Node1</title>
<polygon fill="#ffffff" stroke="#bfbfbf" points="826.8276,-110.5 826.8276,-128.5 881.1724,-128.5 881.1724,-110.5 826.8276,-110.5"/>
<text text-anchor="middle" x="854" y="-116.5" font-family="Helvetica,sans-Serif" font-size="10.00" fill="#000000">iostream</text>
</g>
<!-- Node0&#45;&gt;Node1 -->
<g id="edge1" class="edge">
<title>Node0&#45;&gt;Node1</title>
<path fill="none" stroke="#191970" d="M897.4445,-385.4507C907.9518,-367.0998 930,-323.899 930,-284.5 930,-284.5 930,-284.5 930,-229.5 930,-190.0142 896.4425,-154.4341 873.9247,-135.0039"/>
<polygon fill="#191970" stroke="#191970" points="876.1402,-132.2943 866.2107,-128.5988 871.6684,-137.6798 876.1402,-132.2943"/>
</g>
<!-- Node2 -->
<g id="node3" class="node">
<title>Node2</title>
<polygon fill="#ffffff" stroke="#bfbfbf" points="811.9287,-330.5 811.9287,-348.5 864.0713,-348.5 864.0713,-330.5 811.9287,-330.5"/>
<text text-anchor="middle" x="838" y="-336.5" font-family="Helvetica,sans-Serif" font-size="10.00" fill="#000000">getopt.h</text>
</g>
<!-- Node0&#45;&gt;Node2 -->
<g id="edge2" class="edge">
<title>Node0&#45;&gt;Node2</title>
<path fill="none" stroke="#191970" d="M883.083,-385.4179C875.2354,-377.425 863.616,-365.5903 854.1389,-355.9377"/>
<polygon fill="#191970" stroke="#191970" points="856.6142,-353.463 847.1107,-348.7795 851.6192,-358.3672 856.6142,-353.463"/>
</g>
<!-- Node3 -->
<g id="node4" class="node">
<title>Node3</title>
<g id="a_node4"><a xlink:href="capturing_8hpp.xhtml" target="_top" xlink:title="Network traffic capture header file. ">
<polygon fill="#ffffff" stroke="#000000" points="513.6997,-330.5 513.6997,-348.5 590.3003,-348.5 590.3003,-330.5 513.6997,-330.5"/>
<text text-anchor="middle" x="552" y="-336.5" font-family="Helvetica,sans-Serif" font-size="10.00" fill="#000000">capturing.hpp</text>
</a>
</g>
</g>
<!-- Node0&#45;&gt;Node3 -->
<g id="edge3" class="edge">
<title>Node0&#45;&gt;Node3</title>
<path fill="none" stroke="#191970" d="M855.614,-388.614C794.1022,-378.6636 669.5418,-358.5141 600.6184,-347.3647"/>
<polygon fill="#191970" stroke="#191970" points="600.8904,-343.8633 590.4598,-345.7214 599.7726,-350.7735 600.8904,-343.8633"/>
</g>
<!-- Node24 -->
<g id="node25" class="node">
<title>Node24</title>
<g id="a_node25"><a xlink:href="debug_8hpp.xhtml" target="_top" xlink:title="Debugging functions. ">
<polygon fill="#ffffff" stroke="#000000" points="762.3647,-165.5 762.3647,-183.5 825.6353,-183.5 825.6353,-165.5 762.3647,-165.5"/>
<text text-anchor="middle" x="794" y="-171.5" font-family="Helvetica,sans-Serif" font-size="10.00" fill="#000000">debug.hpp</text>
</a>
</g>
</g>
<!-- Node0&#45;&gt;Node24 -->
<g id="edge43" class="edge">
<title>Node0&#45;&gt;Node24</title>
<path fill="none" stroke="#191970" d="M889.8162,-385.134C886.7228,-372.4196 880.5877,-349.0932 873,-330 852.4929,-278.397 820.8288,-220.9328 804.5143,-192.4829"/>
<polygon fill="#191970" stroke="#191970" points="807.4636,-190.5913 799.4273,-183.6871 801.404,-194.0959 807.4636,-190.5913"/>
</g>
<!-- Node27 -->
<g id="node28" class="node">
<title>Node27</title>
<g id="a_node28"><a xlink:href="main_8hpp.xhtml" target="_top" xlink:title="Main header file. ">
<polygon fill="#ffffff" stroke="#000000" points="958.4312,-330.5 958.4312,-348.5 1015.5688,-348.5 1015.5688,-330.5 958.4312,-330.5"/>
<text text-anchor="middle" x="987" y="-336.5" font-family="Helvetica,sans-Serif" font-size="10.00" fill="#000000">main.hpp</text>
</a>
</g>
</g>
<!-- Node0&#45;&gt;Node27 -->
<g id="edge44" class="edge">
<title>Node0&#45;&gt;Node27</title>
<path fill="none" stroke="#191970" d="M907.6873,-385.4179C922.539,-376.8195 945.0698,-363.7754 962.3269,-353.7844"/>
<polygon fill="#191970" stroke="#191970" points="964.3887,-356.635 971.2894,-348.5956 960.8815,-350.577 964.3887,-356.635"/>
</g>
<!-- Node3&#45;&gt;Node1 -->
<g id="edge4" class="edge">
<title>Node3&#45;&gt;Node1</title>
<path fill="none" stroke="#191970" d="M590.548,-335.8929C664.0287,-328.6481 818.3529,-311.5178 835,-294 875.3475,-251.5423 865.8206,-174.4772 858.566,-138.7017"/>
<polygon fill="#191970" stroke="#191970" points="861.9187,-137.6506 856.3565,-128.6333 855.0814,-139.1511 861.9187,-137.6506"/>
</g>
<!-- Node4 -->
<g id="node5" class="node">
<title>Node4</title>
<polygon fill="#ffffff" stroke="#bfbfbf" points="759.9902,-275.5 759.9902,-293.5 826.0098,-293.5 826.0098,-275.5 759.9902,-275.5"/>
<text text-anchor="middle" x="793" y="-281.5" font-family="Helvetica,sans-Serif" font-size="10.00" fill="#000000">sys/types.h</text>
</g>
<!-- Node3&#45;&gt;Node4 -->
<g id="edge5" class="edge">
<title>Node3&#45;&gt;Node4</title>
<path fill="none" stroke="#191970" d="M590.4537,-330.7243C633.9427,-320.7994 704.5842,-304.6779 749.9022,-294.3356"/>
<polygon fill="#191970" stroke="#191970" points="750.7566,-297.7307 759.7272,-292.0934 749.1991,-290.9061 750.7566,-297.7307"/>
</g>
<!-- Node5 -->
<g id="node6" class="node">
<title>Node5</title>
<polygon fill="#ffffff" stroke="#bfbfbf" points="104.2734,-220.5 104.2734,-238.5 149.7266,-238.5 149.7266,-220.5 104.2734,-220.5"/>
<text text-anchor="middle" x="127" y="-226.5" font-family="Helvetica,sans-Serif" font-size="10.00" fill="#000000">atomic</text>
</g>
<!-- Node3&#45;&gt;Node5 -->
<g id="edge6" class="edge">
<title>Node3&#45;&gt;Node5</title>
<path fill="none" stroke="#191970" d="M514.7586,-330.4799C446.4635,-313.8293 296.4155,-276.7427 159.8499,-239.1614"/>
<polygon fill="#191970" stroke="#191970" points="160.6126,-235.7411 150.0418,-236.455 158.7505,-242.4889 160.6126,-235.7411"/>
</g>
<!-- Node6 -->
<g id="node7" class="node">
<title>Node6</title>
<g id="a_node7"><a xlink:href="tcpip__headers_8hpp.xhtml" target="_top" xlink:title="Protocol headers. ">
<polygon fill="#ffffff" stroke="#000000" points="127.8574,-55.5 127.8574,-73.5 226.1426,-73.5 226.1426,-55.5 127.8574,-55.5"/>
<text text-anchor="middle" x="177" y="-61.5" font-family="Helvetica,sans-Serif" font-size="10.00" fill="#000000">tcpip_headers.hpp</text>
</a>
</g>
</g>
<!-- Node3&#45;&gt;Node6 -->
<g id="edge7" class="edge">
<title>Node3&#45;&gt;Node6</title>
<path fill="none" stroke="#191970" d="M513.4261,-337.6931C419.8389,-332.9662 182.9264,-318.8504 108,-294 54.9339,-276.3999 0,-285.4087 0,-229.5 0,-229.5 0,-229.5 0,-174.5 0,-117.7378 66.4778,-89.2348 117.952,-75.6726"/>
<polygon fill="#191970" stroke="#191970" points="118.8452,-79.0571 127.6956,-73.233 117.145,-72.2667 118.8452,-79.0571"/>
</g>
<!-- Node8 -->
<g id="node9" class="node">
<title>Node8</title>
<g id="a_node9"><a xlink:href="netflow_8hpp.xhtml" target="_top" xlink:title="Netflow structure header file. ">
<polygon fill="#ffffff" stroke="#000000" points="98.6997,-110.5 98.6997,-128.5 165.3003,-128.5 165.3003,-110.5 98.6997,-110.5"/>
<text text-anchor="middle" x="132" y="-116.5" font-family="Helvetica,sans-Serif" font-size="10.00" fill="#000000">netflow.hpp</text>
</a>
</g>
</g>
<!-- Node3&#45;&gt;Node8 -->
<g id="edge9" class="edge">
<title>Node3&#45;&gt;Node8</title>
<path fill="none" stroke="#191970" d="M513.4973,-338.0324C425.8351,-334.2315 213.9448,-322.3174 149,-294 114.621,-279.01 100.6498,-273.0837 85,-239 68.5128,-203.0925 97.3821,-159.6266 116.7077,-136.2788"/>
<polygon fill="#191970" stroke="#191970" points="119.4157,-138.4979 123.2942,-128.6385 114.1138,-133.9273 119.4157,-138.4979"/>
</g>
<!-- Node11 -->
<g id="node12" class="node">
<title>Node11</title>
<g id="a_node12"><a xlink:href="ring_buffer_8hpp.xhtml" target="_top" xlink:title="Ring Buffer header file. ">
<polygon fill="#ffffff" stroke="#000000" points="423.9526,-275.5 423.9526,-293.5 502.0474,-293.5 502.0474,-275.5 423.9526,-275.5"/>
<text text-anchor="middle" x="463" y="-281.5" font-family="Helvetica,sans-Serif" font-size="10.00" fill="#000000">ringBuffer.hpp</text>
</a>
</g>
</g>
<!-- Node3&#45;&gt;Node11 -->
<g id="edge13" class="edge">
<title>Node3&#45;&gt;Node11</title>
<path fill="none" stroke="#191970" d="M537.3035,-330.4179C523.5186,-321.8992 502.6722,-309.0166 486.5651,-299.0627"/>
<polygon fill="#191970" stroke="#191970" points="488.0651,-295.8753 477.7184,-293.5956 484.3852,-301.83 488.0651,-295.8753"/>
</g>
<!-- Node17 -->
<g id="node18" class="node">
<title>Node17</title>
<g id="a_node18"><a xlink:href="pcapng__blocks_8hpp.xhtml" target="_top" xlink:title="Pcap&#45;ng block structures. ">
<polygon fill="#ffffff" stroke="#000000" points="647.9116,-220.5 647.9116,-238.5 750.0884,-238.5 750.0884,-220.5 647.9116,-220.5"/>
<text text-anchor="middle" x="699" y="-226.5" font-family="Helvetica,sans-Serif" font-size="10.00" fill="#000000">pcapng_blocks.hpp</text>
</a>
</g>
</g>
<!-- Node3&#45;&gt;Node17 -->
<g id="edge40" class="edge">
<title>Node3&#45;&gt;Node17</title>
<path fill="none" stroke="#191970" d="M564.0296,-330.4982C589.1183,-311.7244 647.2754,-268.2055 678.4264,-244.8952"/>
<polygon fill="#191970" stroke="#191970" points="680.8946,-247.4198 686.8042,-238.6261 676.7006,-241.8152 680.8946,-247.4198"/>
</g>
<!-- Node21 -->
<g id="node22" class="node">
<title>Node21</title>
<g id="a_node22"><a xlink:href="cache_8hpp.xhtml" target="_top" xlink:title="Cache implementation header file. ">
<polygon fill="#ffffff" stroke="#000000" points="211.9263,-165.5 211.9263,-183.5 274.0737,-183.5 274.0737,-165.5 211.9263,-165.5"/>
<text text-anchor="middle" x="243" y="-171.5" font-family="Helvetica,sans-Serif" font-size="10.00" fill="#000000">cache.hpp</text>
</a>
</g>
</g>
<!-- Node3&#45;&gt;Node21 -->
<g id="edge41" class="edge">
<title>Node3&#45;&gt;Node21</title>
<path fill="none" stroke="#191970" d="M513.4224,-337.1848C412.6784,-330.2373 145.9459,-305.7592 95,-239 64.7288,-199.3329 148.1329,-183.6436 201.7485,-177.7662"/>
<polygon fill="#191970" stroke="#191970" points="202.1131,-181.2473 211.7053,-176.7483 201.4011,-174.2836 202.1131,-181.2473"/>
</g>
<!-- Node3&#45;&gt;Node24 -->
<g id="edge42" class="edge">
<title>Node3&#45;&gt;Node24</title>
<path fill="none" stroke="#191970" d="M585.1194,-330.4234C629.393,-316.8652 708.1725,-287.5812 759,-239 772.3574,-226.233 781.8135,-207.2301 787.5016,-193.1547"/>
<polygon fill="#191970" stroke="#191970" points="790.8746,-194.1285 791.119,-183.5364 784.3227,-191.6642 790.8746,-194.1285"/>
</g>
<!-- Node7 -->
<g id="node8" class="node">
<title>Node7</title>
<polygon fill="#ffffff" stroke="#bfbfbf" points="152.8794,-.5 152.8794,-18.5 201.1206,-18.5 201.1206,-.5 152.8794,-.5"/>
<text text-anchor="middle" x="177" y="-6.5" font-family="Helvetica,sans-Serif" font-size="10.00" fill="#000000">stdint.h</text>
</g>
<!-- Node6&#45;&gt;Node7 -->
<g id="edge8" class="edge">
<title>Node6&#45;&gt;Node7</title>
<path fill="none" stroke="#191970" d="M177,-55.4179C177,-48.2164 177,-37.8962 177,-28.8632"/>
<polygon fill="#191970" stroke="#191970" points="180.5001,-28.7794 177,-18.7795 173.5001,-28.7795 180.5001,-28.7794"/>
</g>
<!-- Node8&#45;&gt;Node6 -->
<g id="edge12" class="edge">
<title>Node8&#45;&gt;Node6</title>
<path fill="none" stroke="#191970" d="M139.4308,-110.4179C145.7762,-102.6624 155.0809,-91.29 162.8426,-81.8035"/>
<polygon fill="#191970" stroke="#191970" points="165.7842,-83.7354 169.4077,-73.7795 160.3664,-79.3027 165.7842,-83.7354"/>
</g>
<!-- Node9 -->
<g id="node10" class="node">
<title>Node9</title>
<polygon fill="#ffffff" stroke="#bfbfbf" points="342.7734,-55.5 342.7734,-73.5 383.2266,-73.5 383.2266,-55.5 342.7734,-55.5"/>
<text text-anchor="middle" x="363" y="-61.5" font-family="Helvetica,sans-Serif" font-size="10.00" fill="#000000">string</text>
</g>
<!-- Node8&#45;&gt;Node9 -->
<g id="edge10" class="edge">
<title>Node8&#45;&gt;Node9</title>
<path fill="none" stroke="#191970" d="M165.5894,-111.5025C210.5578,-100.7958 289.6552,-81.963 332.818,-71.6862"/>
<polygon fill="#191970" stroke="#191970" points="333.8051,-75.0491 342.7225,-69.328 332.1837,-68.2394 333.8051,-75.0491"/>
</g>
<!-- Node10 -->
<g id="node11" class="node">
<title>Node10</title>
<polygon fill="#ffffff" stroke="#bfbfbf" points="64.2734,-55.5 64.2734,-73.5 109.7266,-73.5 109.7266,-55.5 64.2734,-55.5"/>
<text text-anchor="middle" x="87" y="-61.5" font-family="Helvetica,sans-Serif" font-size="10.00" fill="#000000">cstring</text>
</g>
<!-- Node8&#45;&gt;Node10 -->
<g id="edge11" class="edge">
<title>Node8&#45;&gt;Node10</title>
<path fill="none" stroke="#191970" d="M124.5692,-110.4179C118.2238,-102.6624 108.9191,-91.29 101.1574,-81.8035"/>
<polygon fill="#191970" stroke="#191970" points="103.6336,-79.3027 94.5923,-73.7795 98.2158,-83.7354 103.6336,-79.3027"/>
</g>
<!-- Node11&#45;&gt;Node5 -->
<g id="edge15" class="edge">
<title>Node11&#45;&gt;Node5</title>
<path fill="none" stroke="#191970" d="M423.8083,-280.412C367.47,-274.1484 260.2316,-260.7851 159.9627,-238.9482"/>
<polygon fill="#191970" stroke="#191970" points="160.4911,-235.4806 149.9712,-236.7385 158.9794,-242.3154 160.4911,-235.4806"/>
</g>
<!-- Node12 -->
<g id="node13" class="node">
<title>Node12</title>
<polygon fill="#ffffff" stroke="#bfbfbf" points="391.3843,-110.5 391.3843,-128.5 434.6157,-128.5 434.6157,-110.5 391.3843,-110.5"/>
<text text-anchor="middle" x="413" y="-116.5" font-family="Helvetica,sans-Serif" font-size="10.00" fill="#000000">vector</text>
</g>
<!-- Node11&#45;&gt;Node12 -->
<g id="edge14" class="edge">
<title>Node11&#45;&gt;Node12</title>
<path fill="none" stroke="#191970" d="M466.3129,-275.3966C470.4344,-262.5855 476.1141,-238.7116 469,-220 461.3923,-199.9902 448.0325,-202.3454 437,-184 428.4372,-169.7613 422.0953,-151.9592 418.0882,-138.6666"/>
<polygon fill="#191970" stroke="#191970" points="421.3686,-137.4051 415.2739,-128.7388 414.6339,-139.3142 421.3686,-137.4051"/>
</g>
<!-- Node13 -->
<g id="node14" class="node">
<title>Node13</title>
<polygon fill="#ffffff" stroke="#bfbfbf" points="654.3843,-110.5 654.3843,-128.5 697.6157,-128.5 697.6157,-110.5 654.3843,-110.5"/>
<text text-anchor="middle" x="676" y="-116.5" font-family="Helvetica,sans-Serif" font-size="10.00" fill="#000000">mutex</text>
</g>
<!-- Node11&#45;&gt;Node13 -->
<g id="edge16" class="edge">
<title>Node11&#45;&gt;Node13</title>
<path fill="none" stroke="#191970" d="M469.2628,-275.1877C484.3953,-253.296 525.1055,-197.9315 571,-165 593.5364,-148.829 622.7221,-136.7632 644.6011,-129.1347"/>
<polygon fill="#191970" stroke="#191970" points="645.7271,-132.4488 654.0894,-125.9432 643.4953,-125.814 645.7271,-132.4488"/>
</g>
<!-- Node14 -->
<g id="node15" class="node">
<title>Node14</title>
<polygon fill="#ffffff" stroke="#bfbfbf" points="237.8228,-220.5 237.8228,-238.5 282.1772,-238.5 282.1772,-220.5 237.8228,-220.5"/>
<text text-anchor="middle" x="260" y="-226.5" font-family="Helvetica,sans-Serif" font-size="10.00" fill="#000000">thread</text>
</g>
<!-- Node11&#45;&gt;Node14 -->
<g id="edge17" class="edge">
<title>Node11&#45;&gt;Node14</title>
<path fill="none" stroke="#191970" d="M427.3128,-275.4895C394.4918,-267.1074 344.2513,-254.0378 292.0805,-239.2363"/>
<polygon fill="#191970" stroke="#191970" points="292.8968,-235.8296 282.3204,-236.4531 290.9772,-242.5613 292.8968,-235.8296"/>
</g>
<!-- Node15 -->
<g id="node16" class="node">
<title>Node15</title>
<polygon fill="#ffffff" stroke="#bfbfbf" points="299.6948,-220.5 299.6948,-238.5 396.3052,-238.5 396.3052,-220.5 299.6948,-220.5"/>
<text text-anchor="middle" x="348" y="-226.5" font-family="Helvetica,sans-Serif" font-size="10.00" fill="#000000">condition_variable</text>
</g>
<!-- Node11&#45;&gt;Node15 -->
<g id="edge18" class="edge">
<title>Node11&#45;&gt;Node15</title>
<path fill="none" stroke="#191970" d="M444.0101,-275.4179C425.5324,-266.5807 397.2352,-253.0473 376.1417,-242.9591"/>
<polygon fill="#191970" stroke="#191970" points="377.5496,-239.7528 367.0181,-238.5956 374.5294,-246.0677 377.5496,-239.7528"/>
</g>
<!-- Node16 -->
<g id="node17" class="node">
<title>Node16</title>
<polygon fill="#ffffff" stroke="#bfbfbf" points="413.9878,-220.5 413.9878,-238.5 460.0122,-238.5 460.0122,-220.5 413.9878,-220.5"/>
<text text-anchor="middle" x="437" y="-226.5" font-family="Helvetica,sans-Serif" font-size="10.00" fill="#000000">pcap.h</text>
</g>
<!-- Node11&#45;&gt;Node16 -->
<g id="edge19" class="edge">
<title>Node11&#45;&gt;Node16</title>
<path fill="none" stroke="#191970" d="M458.7066,-275.4179C455.19,-267.9789 450.1004,-257.2123 445.7332,-247.9742"/>
<polygon fill="#191970" stroke="#191970" points="448.8248,-246.3243 441.3867,-238.7795 442.4962,-249.316 448.8248,-246.3243"/>
</g>
<!-- Node11&#45;&gt;Node17 -->
<g id="edge20" class="edge">
<title>Node11&#45;&gt;Node17</title>
<path fill="none" stroke="#191970" d="M501.7063,-275.4795C542.3475,-266.008 606.3451,-251.0933 650.3689,-240.8335"/>
<polygon fill="#191970" stroke="#191970" points="651.3279,-244.2039 660.2725,-238.5255 649.7391,-237.3866 651.3279,-244.2039"/>
</g>
<!-- Node25 -->
<g id="node26" class="node">
<title>Node25</title>
<g id="a_node26"><a xlink:href="tool_8hpp.xhtml" target="_top" xlink:title="Determining applications header file. ">
<polygon fill="#ffffff" stroke="#000000" points="168.207,-220.5 168.207,-238.5 219.793,-238.5 219.793,-220.5 168.207,-220.5"/>
<text text-anchor="middle" x="194" y="-226.5" font-family="Helvetica,sans-Serif" font-size="10.00" fill="#000000">tool.hpp</text>
</a>
</g>
</g>
<!-- Node11&#45;&gt;Node25 -->
<g id="edge36" class="edge">
<title>Node11&#45;&gt;Node25</title>
<path fill="none" stroke="#191970" d="M423.8958,-277.7972C379.2843,-269.9519 303.95,-256.1019 229.9033,-239.079"/>
<polygon fill="#191970" stroke="#191970" points="230.4726,-235.6182 219.9403,-236.7672 228.8903,-242.4371 230.4726,-235.6182"/>
</g>
<!-- Node26 -->
<g id="node27" class="node">
<title>Node26</title>
<g id="a_node27"><a xlink:href="ring_buffer_8tpp.xhtml" target="_top" xlink:title="Ring Buffer template functions. ">
<polygon fill="#ffffff" stroke="#000000" points="554.3442,-220.5 554.3442,-238.5 629.6558,-238.5 629.6558,-220.5 554.3442,-220.5"/>
<text text-anchor="middle" x="592" y="-226.5" font-family="Helvetica,sans-Serif" font-size="10.00" fill="#000000">ringBuffer.tpp</text>
</a>
</g>
</g>
<!-- Node11&#45;&gt;Node26 -->
<g id="edge39" class="edge">
<title>Node11&#45;&gt;Node26</title>
<path fill="none" stroke="#191970" d="M484.3017,-275.4179C505.309,-266.4613 537.6308,-252.6806 561.3871,-242.552"/>
<polygon fill="#191970" stroke="#191970" points="562.8405,-245.7372 570.6666,-238.5956 560.0951,-239.2981 562.8405,-245.7372"/>
</g>
<!-- Node17&#45;&gt;Node6 -->
<g id="edge26" class="edge">
<title>Node17&#45;&gt;Node6</title>
<path fill="none" stroke="#191970" d="M652.9973,-220.4699C621.2975,-213.1888 578.7826,-201.2893 544,-184 494.4892,-159.3898 494.8622,-131.6801 444,-110 407.5357,-94.457 303.2968,-79.6522 236.368,-71.3545"/>
<polygon fill="#191970" stroke="#191970" points="236.7214,-67.8717 226.3698,-70.1289 235.8697,-74.8197 236.7214,-67.8717"/>
</g>
<!-- Node17&#45;&gt;Node9 -->
<g id="edge23" class="edge">
<title>Node17&#45;&gt;Node9</title>
<path fill="none" stroke="#191970" d="M661.6917,-220.4912C635.1869,-213.1011 599.4058,-201.0621 571,-184 529.1995,-158.8922 531.7693,-135.1596 490,-110 459.3593,-91.5436 420.0768,-78.9147 393.3693,-71.729"/>
<polygon fill="#191970" stroke="#191970" points="394.0065,-68.2785 383.448,-69.1543 392.2481,-75.0541 394.0065,-68.2785"/>
</g>
<!-- Node17&#45;&gt;Node12 -->
<g id="edge24" class="edge">
<title>Node17&#45;&gt;Node12</title>
<path fill="none" stroke="#191970" d="M647.7562,-220.6217C580.4691,-208.8238 469.8876,-188.8947 462,-184 444.1363,-172.9145 430.426,-152.7796 422.1102,-137.9453"/>
<polygon fill="#191970" stroke="#191970" points="424.9931,-135.9089 417.2303,-128.6985 418.8023,-139.1761 424.9931,-135.9089"/>
</g>
<!-- Node18 -->
<g id="node19" class="node">
<title>Node18</title>
<polygon fill="#ffffff" stroke="#bfbfbf" points="579.5493,-165.5 579.5493,-183.5 624.4507,-183.5 624.4507,-165.5 579.5493,-165.5"/>
<text text-anchor="middle" x="602" y="-171.5" font-family="Helvetica,sans-Serif" font-size="10.00" fill="#000000">cstdint</text>
</g>
<!-- Node17&#45;&gt;Node18 -->
<g id="edge21" class="edge">
<title>Node17&#45;&gt;Node18</title>
<path fill="none" stroke="#191970" d="M682.9824,-220.4179C667.8181,-211.8195 644.8129,-198.7754 627.1925,-188.7844"/>
<polygon fill="#191970" stroke="#191970" points="628.4667,-185.4834 618.0414,-183.5956 625.014,-191.5727 628.4667,-185.4834"/>
</g>
<!-- Node19 -->
<g id="node20" class="node">
<title>Node19</title>
<polygon fill="#ffffff" stroke="#bfbfbf" points="642.3301,-165.5 642.3301,-183.5 691.6699,-183.5 691.6699,-165.5 642.3301,-165.5"/>
<text text-anchor="middle" x="667" y="-171.5" font-family="Helvetica,sans-Serif" font-size="10.00" fill="#000000">fstream</text>
</g>
<!-- Node17&#45;&gt;Node19 -->
<g id="edge22" class="edge">
<title>Node17&#45;&gt;Node19</title>
<path fill="none" stroke="#191970" d="M693.7159,-220.4179C689.3417,-212.8998 682.99,-201.9829 677.5774,-192.6799"/>
<polygon fill="#191970" stroke="#191970" points="680.4532,-190.6628 672.399,-183.7795 674.4027,-194.1831 680.4532,-190.6628"/>
</g>
<!-- Node20 -->
<g id="node21" class="node">
<title>Node20</title>
<polygon fill="#ffffff" stroke="#bfbfbf" points="709.2734,-165.5 709.2734,-183.5 744.7266,-183.5 744.7266,-165.5 709.2734,-165.5"/>
<text text-anchor="middle" x="727" y="-171.5" font-family="Helvetica,sans-Serif" font-size="10.00" fill="#000000">map</text>
</g>
<!-- Node17&#45;&gt;Node20 -->
<g id="edge25" class="edge">
<title>Node17&#45;&gt;Node20</title>
<path fill="none" stroke="#191970" d="M703.6236,-220.4179C707.4107,-212.9789 712.8919,-202.2123 717.595,-192.9742"/>
<polygon fill="#191970" stroke="#191970" points="720.8581,-194.279 722.2759,-183.7795 714.62,-191.1032 720.8581,-194.279"/>
</g>
<!-- Node17&#45;&gt;Node21 -->
<g id="edge27" class="edge">
<title>Node17&#45;&gt;Node21</title>
<path fill="none" stroke="#191970" d="M647.6343,-221.2196C644.715,-220.7949 641.8214,-220.3853 639,-220 509.7665,-202.3528 356.1713,-186.0271 284.1404,-178.643"/>
<polygon fill="#191970" stroke="#191970" points="284.4212,-175.1535 274.1173,-177.6193 283.7099,-182.1173 284.4212,-175.1535"/>
</g>
<!-- Node17&#45;&gt;Node24 -->
<g id="edge33" class="edge">
<title>Node17&#45;&gt;Node24</title>
<path fill="none" stroke="#191970" d="M714.6873,-220.4179C729.539,-211.8195 752.0698,-198.7754 769.3269,-188.7844"/>
<polygon fill="#191970" stroke="#191970" points="771.3887,-191.635 778.2894,-183.5956 767.8815,-185.577 771.3887,-191.635"/>
</g>
<!-- Node21&#45;&gt;Node8 -->
<g id="edge32" class="edge">
<title>Node21&#45;&gt;Node8</title>
<path fill="none" stroke="#191970" d="M224.6706,-165.4179C206.9159,-156.6205 179.7686,-143.1691 159.4384,-133.0956"/>
<polygon fill="#191970" stroke="#191970" points="160.8709,-129.8994 150.3566,-128.5956 157.763,-136.1716 160.8709,-129.8994"/>
</g>
<!-- Node21&#45;&gt;Node9 -->
<g id="edge28" class="edge">
<title>Node21&#45;&gt;Node9</title>
<path fill="none" stroke="#191970" d="M274.1002,-167.8479C296.531,-161.4981 325.928,-149.7302 344,-129 355.0164,-116.3633 359.6521,-97.6067 361.5992,-83.5731"/>
<polygon fill="#191970" stroke="#191970" points="365.0893,-83.8494 362.6548,-73.5381 358.1277,-83.117 365.0893,-83.8494"/>
</g>
<!-- Node21&#45;&gt;Node12 -->
<g id="edge29" class="edge">
<title>Node21&#45;&gt;Node12</title>
<path fill="none" stroke="#191970" d="M271.072,-165.4179C301.5366,-155.5617 350.0575,-139.8638 381.7226,-129.6192"/>
<polygon fill="#191970" stroke="#191970" points="382.9299,-132.9073 391.3669,-126.4989 380.7751,-126.2472 382.9299,-132.9073"/>
</g>
<!-- Node22 -->
<g id="node23" class="node">
<title>Node22</title>
<polygon fill="#ffffff" stroke="#bfbfbf" points="183.6973,-110.5 183.6973,-128.5 270.3027,-128.5 270.3027,-110.5 183.6973,-110.5"/>
<text text-anchor="middle" x="227" y="-116.5" font-family="Helvetica,sans-Serif" font-size="10.00" fill="#000000">unordered_map</text>
</g>
<!-- Node21&#45;&gt;Node22 -->
<g id="edge30" class="edge">
<title>Node21&#45;&gt;Node22</title>
<path fill="none" stroke="#191970" d="M240.3579,-165.4179C238.2399,-158.1372 235.1946,-147.669 232.5464,-138.5659"/>
<polygon fill="#191970" stroke="#191970" points="235.8535,-137.4037 229.6995,-128.7795 229.1322,-139.3591 235.8535,-137.4037"/>
</g>
<!-- Node23 -->
<g id="node24" class="node">
<title>Node23</title>
<polygon fill="#ffffff" stroke="#bfbfbf" points="288.7119,-110.5 288.7119,-128.5 335.2881,-128.5 335.2881,-110.5 288.7119,-110.5"/>
<text text-anchor="middle" x="312" y="-116.5" font-family="Helvetica,sans-Serif" font-size="10.00" fill="#000000">chrono</text>
</g>
<!-- Node21&#45;&gt;Node23 -->
<g id="edge31" class="edge">
<title>Node21&#45;&gt;Node23</title>
<path fill="none" stroke="#191970" d="M254.3939,-165.4179C264.7192,-157.1876 280.1547,-144.8839 292.4497,-135.0836"/>
<polygon fill="#191970" stroke="#191970" points="294.7204,-137.7495 300.3585,-128.7795 290.3571,-132.2757 294.7204,-137.7495"/>
</g>
<!-- Node24&#45;&gt;Node1 -->
<g id="edge34" class="edge">
<title>Node24&#45;&gt;Node1</title>
<path fill="none" stroke="#191970" d="M803.9078,-165.4179C812.7136,-157.3458 825.7939,-145.3556 836.38,-135.6517"/>
<polygon fill="#191970" stroke="#191970" points="838.8704,-138.1168 843.877,-128.7795 834.1403,-132.9567 838.8704,-138.1168"/>
</g>
<!-- Node24&#45;&gt;Node13 -->
<g id="edge35" class="edge">
<title>Node24&#45;&gt;Node13</title>
<path fill="none" stroke="#191970" d="M774.5147,-165.4179C755.4695,-156.5409 726.2578,-142.9253 704.5838,-132.823"/>
<polygon fill="#191970" stroke="#191970" points="706.0567,-129.648 695.5142,-128.5956 703.0994,-135.9927 706.0567,-129.648"/>
</g>
<!-- Node25&#45;&gt;Node8 -->
<g id="edge37" class="edge">
<title>Node25&#45;&gt;Node8</title>
<path fill="none" stroke="#191970" d="M188.9263,-220.4982C178.708,-202.369 155.4838,-161.1647 142.0699,-137.3659"/>
<polygon fill="#191970" stroke="#191970" points="145.103,-135.6191 137.1438,-128.6261 139.005,-139.0562 145.103,-135.6191"/>
</g>
<!-- Node25&#45;&gt;Node21 -->
<g id="edge38" class="edge">
<title>Node25&#45;&gt;Node21</title>
<path fill="none" stroke="#191970" d="M202.0914,-220.4179C209.0713,-212.5833 219.3397,-201.0575 227.8423,-191.5137"/>
<polygon fill="#191970" stroke="#191970" points="230.6941,-193.5743 234.7328,-183.7795 225.4674,-188.9178 230.6941,-193.5743"/>
</g>
</g>
</svg>
        <g id="navigator" transform="translate(0 0)" fill="#404254">
                <rect fill="#f2f5e9" fill-opacity="0.5" stroke="#606060" stroke-width=".5" x="0" y="0" width="60" height="60"/>
                <use id="zoomplus" xlink:href="#zoomPlus" x="17" y="9" onmousedown="handleZoom(evt,'in')"/>
                <use id="zoomminus" xlink:href="#zoomMin" x="42" y="9" onmousedown="handleZoom(evt,'out')"/>
                <use id="reset" xlink:href="#resetDef" x="30" y="36" onmousedown="handleReset()"/>
                <g id="arrowUp" xlink:href="#dirArrow" transform="translate(30 24)" onmousedown="handlePan(0,-1)">
                  <use xlink:href="#rim" fill="#404040">
                        <set attributeName="fill" to="#808080" begin="arrowUp.mouseover" end="arrowUp.mouseout"/>
                  </use>
                  <path fill="none" stroke="white" stroke-width="1.5" d="M0,-3.0v7 M-2.5,-0.5L0,-3.0L2.5,-0.5"/>
                </g>
                <g id="arrowRight" xlink:href="#dirArrow" transform="rotate(90) translate(36 -43)" onmousedown="handlePan(1,0)">
                  <use xlink:href="#rim" fill="#404040">
                        <set attributeName="fill" to="#808080" begin="arrowRight.mouseover" end="arrowRight.mouseout"/>
                  </use>
                  <path fill="none" stroke="white" stroke-width="1.5" d="M0,-3.0v7 M-2.5,-0.5L0,-3.0L2.5,-0.5"/>
                </g>
                <g id="arrowDown" xlink:href="#dirArrow" transform="rotate(180) translate(-30 -48)" onmousedown="handlePan(0,1)">
                  <use xlink:href="#rim" fill="#404040">
                        <set attributeName="fill" to="#808080" begin="arrowDown.mouseover" end="arrowDown.mouseout"/>
                  </use>
                  <path fill="none" stroke="white" stroke-width="1.5" d="M0,-3.0v7 M-2.5,-0.5L0,-3.0L2.5,-0.5"/>
                </g>
                <g id="arrowLeft" xlink:href="#dirArrow" transform="rotate(270) translate(-36 17)" onmousedown="handlePan(-1,0)">
                  <use xlink:href="#rim" fill="#404040">
                        <set attributeName="fill" to="#808080" begin="arrowLeft.mouseover" end="arrowLeft.mouseout"/>
                  </use>
                  <path fill="none" stroke="white" stroke-width="1.5" d="M0,-3.0v7 M-2.5,-0.5L0,-3.0L2.5,-0.5"/>
                </g>
        </g>
        <svg viewBox="0 0 15 15" width="100%" height="30px" preserveAspectRatio="xMaxYMin meet">
         <g id="arrow_out" transform="scale(0.3 0.3)">
          <a xlink:href="main_8cpp__incl_org.svg" target="_base">
           <rect id="button" ry="5" rx="5" y="6" x="6" height="38" width="38"
                fill="#f2f5e9" fill-opacity="0.5" stroke="#606060" stroke-width="1.0"/>
           <path id="arrow"
             d="M 11.500037,31.436501 C 11.940474,20.09759 22.043105,11.32322 32.158766,21.979434 L 37.068811,17.246167 C 37.068811,17.246167 37.088388,32 37.088388,32 L 22.160133,31.978069 C 22.160133,31.978069 26.997745,27.140456 26.997745,27.140456 C 18.528582,18.264221 13.291696,25.230495 11.500037,31.436501 z"
             style="fill:#404040;"/>
          </a>
         </g>
        </svg>
</svg>
