<?xml version="1.0" encoding="UTF-8" standalone="no"?>
<!DOCTYPE svg PUBLIC "-//W3C//DTD SVG 1.1//EN"
 "http://www.w3.org/Graphics/SVG/1.1/DTD/svg11.dtd">
<!-- Generated by graphviz version 2.40.1 (20161225.0304)
 -->
<!-- Title: NAMON::determineApp Pages: 1 -->
<svg width="381pt" height="45pt"
 viewBox="0.00 0.00 380.86 45.00" xmlns="http://www.w3.org/2000/svg" xmlns:xlink="http://www.w3.org/1999/xlink">
<g id="graph0" class="graph" transform="scale(1 1) rotate(0) translate(4 41)">
<title>NAMON::determineApp</title>
<polygon fill="#ffffff" stroke="transparent" points="-4,4 -4,-41 376.8564,-41 376.8564,4 -4,4"/>
<!-- Node1 -->
<g id="node1" class="node">
<title>Node1</title>
<polygon fill="#bfbfbf" stroke="#000000" points="0,-.5 0,-18.5 121.0391,-18.5 121.0391,-.5 0,-.5"/>
<text text-anchor="middle" x="60.5195" y="-6.5" font-family="Helvetica,sans-Serif" font-size="10.00" fill="#000000">NAMON::determineApp</text>
</g>
<!-- Node1&#45;&gt;Node1 -->
<g id="edge1" class="edge">
<title>Node1&#45;&gt;Node1</title>
<path fill="none" stroke="#191970" d="M32.3946,-26.7043C32.4129,-32.4256 41.7878,-37 60.5195,-37 87.7656,-37 95.2157,-27.322 82.8698,-18.5134"/>
<polygon fill="#191970" stroke="#191970" points="35.2676,-28.7032 38.1692,-18.5134 29.5465,-24.6697 35.2676,-28.7032"/>
</g>
<!-- Node2 -->
<g id="node2" class="node">
<title>Node2</title>
<g id="a_node2"><a xlink:href="namon__apple_8cpp.xhtml#a3f33b2f8e1e02244d4291332e760796e" target="_top" xlink:title="Sets mac address of g_dev interface into g_devMac. ">
<polygon fill="#ffffff" stroke="#000000" points="157.0391,-.5 157.0391,-18.5 265.832,-18.5 265.832,-.5 157.0391,-.5"/>
<text text-anchor="middle" x="211.4355" y="-6.5" font-family="Helvetica,sans-Serif" font-size="10.00" fill="#000000">NAMON::setDevMac</text>
</a>
</g>
</g>
<!-- Node1&#45;&gt;Node2 -->
<g id="edge2" class="edge">
<title>Node1&#45;&gt;Node2</title>
<path fill="none" stroke="#191970" d="M131.633,-9.5C140.0188,-9.5 148.4763,-9.5 156.5896,-9.5"/>
<polygon fill="#191970" stroke="#191970" points="131.4679,-6.0001 121.4678,-9.5 131.4678,-13.0001 131.4679,-6.0001"/>
</g>
<!-- Node2&#45;&gt;Node2 -->
<g id="edge4" class="edge">
<title>Node2&#45;&gt;Node2</title>
<path fill="none" stroke="#191970" d="M188.2356,-27.477C188.9212,-32.832 196.6545,-37 211.4355,-37 233.959,-37 240.1177,-27.322 229.9118,-18.5134"/>
<polygon fill="#191970" stroke="#191970" points="191.3935,-28.9919 192.9593,-18.5134 185.2008,-25.7284 191.3935,-28.9919"/>
</g>
<!-- Node3 -->
<g id="node3" class="node">
<title>Node3</title>
<g id="a_node3"><a xlink:href="capturing_8hpp.xhtml#a796d8f82917739002736e8d61c6fb635" target="_top" xlink:title="Starts network traffic capture. ">
<polygon fill="#ffffff" stroke="#000000" points="301.832,-.5 301.832,-18.5 372.8564,-18.5 372.8564,-.5 301.832,-.5"/>
<text text-anchor="middle" x="337.3442" y="-6.5" font-family="Helvetica,sans-Serif" font-size="10.00" fill="#000000">startCapture</text>
</a>
</g>
</g>
<!-- Node2&#45;&gt;Node3 -->
<g id="edge3" class="edge">
<title>Node2&#45;&gt;Node3</title>
<path fill="none" stroke="#191970" d="M276.1946,-9.5C284.9562,-9.5 293.6711,-9.5 301.6598,-9.5"/>
<polygon fill="#191970" stroke="#191970" points="275.9287,-6.0001 265.9286,-9.5 275.9286,-13.0001 275.9287,-6.0001"/>
</g>
</g>
</svg>
