<?xml version="1.0" encoding="UTF-8" standalone="no"?>
<!DOCTYPE svg PUBLIC "-//W3C//DTD SVG 1.1//EN"
 "http://www.w3.org/Graphics/SVG/1.1/DTD/svg11.dtd">
<!-- Generated by graphviz version 2.40.1 (20161225.0304)
 -->
<!-- Title: NAMON::getApp Pages: 1 -->
<svg width="374pt" height="155pt"
 viewBox="0.00 0.00 374.20 155.00" xmlns="http://www.w3.org/2000/svg" xmlns:xlink="http://www.w3.org/1999/xlink">
<g id="graph0" class="graph" transform="scale(1 1) rotate(0) translate(4 151)">
<title>NAMON::getApp</title>
<polygon fill="#ffffff" stroke="transparent" points="-4,4 -4,-151 370.2012,-151 370.2012,4 -4,4"/>
<!-- Node0 -->
<g id="node1" class="node">
<title>Node0</title>
<polygon fill="#bfbfbf" stroke="#000000" points="0,-55.5 0,-73.5 90.4727,-73.5 90.4727,-55.5 0,-55.5"/>
<text text-anchor="middle" x="45.2363" y="-61.5" font-family="Helvetica,sans-Serif" font-size="10.00" fill="#000000">NAMON::getApp</text>
</g>
<!-- Node1 -->
<g id="node2" class="node">
<title>Node1</title>
<g id="a_node2"><a xlink:href="namon__apple_8cpp.xhtml#a3bbbb69bc9ea2cecaa22e05a285bc9fb" target="_top" xlink:title="Finds an application with opened socket inode in parameter. ">
<polygon fill="#ffffff" stroke="#000000" points="126.7461,-110.5 126.7461,-128.5 217.2188,-128.5 217.2188,-110.5 126.7461,-110.5"/>
<text text-anchor="middle" x="171.9824" y="-116.5" font-family="Helvetica,sans-Serif" font-size="10.00" fill="#000000">NAMON::getApp</text>
</a>
</g>
</g>
<!-- Node0&#45;&gt;Node1 -->
<g id="edge1" class="edge">
<title>Node0&#45;&gt;Node1</title>
<path fill="none" stroke="#191970" d="M64.4824,-73.5992C80.8663,-81.2648 105.0797,-92.4044 126.4727,-101.5 130.4311,-103.183 134.6037,-104.9043 138.7509,-106.5829"/>
<polygon fill="#191970" stroke="#191970" points="137.6842,-109.9256 148.2691,-110.3841 140.2804,-103.4248 137.6842,-109.9256"/>
</g>
<!-- Node2 -->
<g id="node3" class="node">
<title>Node2</title>
<g id="a_node3"><a xlink:href="utils_8cpp.xhtml#ab5404d89c33dfee3caf9d6e2879bd9b1" target="_top" xlink:title="Converts char* string to integer. ">
<polygon fill="#ffffff" stroke="#000000" points="126.4727,-55.5 126.4727,-73.5 217.4922,-73.5 217.4922,-55.5 126.4727,-55.5"/>
<text text-anchor="middle" x="171.9824" y="-61.5" font-family="Helvetica,sans-Serif" font-size="10.00" fill="#000000">NAMON::chToInt</text>
</a>
</g>
</g>
<!-- Node0&#45;&gt;Node2 -->
<g id="edge3" class="edge">
<title>Node0&#45;&gt;Node2</title>
<path fill="none" stroke="#191970" d="M90.6366,-64.5C98.8175,-64.5 107.434,-64.5 115.8762,-64.5"/>
<polygon fill="#191970" stroke="#191970" points="116.0464,-68.0001 126.0464,-64.5 116.0463,-61.0001 116.0464,-68.0001"/>
</g>
<!-- Node3 -->
<g id="node4" class="node">
<title>Node3</title>
<g id="a_node4"><a xlink:href="debug_8hpp.xhtml#a9f1c1527f51faaaca3be83b5a8928ca5" target="_top" xlink:title="Function that prints log messages. ">
<polygon fill="#ffffff" stroke="#000000" points="135.9209,-.5 135.9209,-18.5 208.0439,-18.5 208.0439,-.5 135.9209,-.5"/>
<text text-anchor="middle" x="171.9824" y="-6.5" font-family="Helvetica,sans-Serif" font-size="10.00" fill="#000000">NAMON::log</text>
</a>
</g>
</g>
<!-- Node0&#45;&gt;Node3 -->
<g id="edge5" class="edge">
<title>Node0&#45;&gt;Node3</title>
<path fill="none" stroke="#191970" d="M66.1659,-55.4179C86.7144,-46.5011 118.2811,-32.803 141.5927,-22.6873"/>
<polygon fill="#191970" stroke="#191970" points="143.2415,-25.7872 151.0218,-18.5956 140.455,-19.3657 143.2415,-25.7872"/>
</g>
<!-- Node1&#45;&gt;Node1 -->
<g id="edge2" class="edge">
<title>Node1&#45;&gt;Node1</title>
<path fill="none" stroke="#191970" d="M153.2082,-128.5134C142.8376,-137.322 149.0957,-147 171.9824,-147 187.0018,-147 194.8599,-142.832 195.5566,-137.477"/>
<polygon fill="#191970" stroke="#191970" points="198.5629,-135.6768 190.7567,-128.5134 192.3919,-138.9813 198.5629,-135.6768"/>
</g>
<!-- Node2&#45;&gt;Node2 -->
<g id="edge4" class="edge">
<title>Node2&#45;&gt;Node2</title>
<path fill="none" stroke="#191970" d="M153.2082,-73.5134C142.8376,-82.322 149.0957,-92 171.9824,-92 187.0018,-92 194.8599,-87.832 195.5566,-82.477"/>
<polygon fill="#191970" stroke="#191970" points="198.5629,-80.6768 190.7567,-73.5134 192.3919,-83.9813 198.5629,-80.6768"/>
</g>
<!-- Node3&#45;&gt;Node3 -->
<g id="edge6" class="edge">
<title>Node3&#45;&gt;Node3</title>
<path fill="none" stroke="#191970" d="M153.2082,-18.5134C142.8376,-27.322 149.0957,-37 171.9824,-37 187.0018,-37 194.8599,-32.832 195.5566,-27.477"/>
<polygon fill="#191970" stroke="#191970" points="198.5629,-25.6768 190.7567,-18.5134 192.3919,-28.9813 198.5629,-25.6768"/>
</g>
<!-- Node4 -->
<g id="node5" class="node">
<title>Node4</title>
<g id="a_node5"><a xlink:href="debug_8cpp.xhtml#a1a395cd89e6df6f9fd16ed25601ac351" target="_top" xlink:title="Sets #NAMON::generalLogLevel;. ">
<polygon fill="#ffffff" stroke="#000000" points="253.4922,-.5 253.4922,-18.5 366.2012,-18.5 366.2012,-.5 253.4922,-.5"/>
<text text-anchor="middle" x="309.8467" y="-6.5" font-family="Helvetica,sans-Serif" font-size="10.00" fill="#000000">NAMON::setLogLevel</text>
</a>
</g>
</g>
<!-- Node3&#45;&gt;Node4 -->
<g id="edge7" class="edge">
<title>Node3&#45;&gt;Node4</title>
<path fill="none" stroke="#191970" d="M208.2046,-9.5C218.9873,-9.5 231.16,-9.5 243.2375,-9.5"/>
<polygon fill="#191970" stroke="#191970" points="243.3276,-13.0001 253.3276,-9.5 243.3275,-6.0001 243.3276,-13.0001"/>
</g>
<!-- Node4&#45;&gt;Node4 -->
<g id="edge8" class="edge">
<title>Node4&#45;&gt;Node4</title>
<path fill="none" stroke="#191970" d="M289.5824,-18.5134C278.3888,-27.322 285.1436,-37 309.8467,-37 326.4441,-37 334.9393,-32.6312 335.3324,-27.0926"/>
<polygon fill="#191970" stroke="#191970" points="338.2998,-25.2361 330.111,-18.5134 332.3202,-28.8754 338.2998,-25.2361"/>
</g>
</g>
</svg>
