<?xml version="1.0" encoding="UTF-8" standalone="no"?>
<!DOCTYPE svg PUBLIC "-//W3C//DTD SVG 1.1//EN"
 "http://www.w3.org/Graphics/SVG/1.1/DTD/svg11.dtd">
<!-- Generated by graphviz version 2.40.1 (20161225.0304)
 -->
<!-- Title: src/namon_win.hpp Pages: 1 -->
<svg width="229pt" height="192pt"
 viewBox="0.00 0.00 229.50 192.00" xmlns="http://www.w3.org/2000/svg" xmlns:xlink="http://www.w3.org/1999/xlink">
<g id="graph0" class="graph" transform="scale(1 1) rotate(0) translate(4 188)">
<title>src/namon_win.hpp</title>
<polygon fill="#ffffff" stroke="transparent" points="-4,4 -4,-188 225.4995,-188 225.4995,4 -4,4"/>
<!-- Node0 -->
<g id="node1" class="node">
<title>Node0</title>
<polygon fill="#bfbfbf" stroke="#000000" points="0,-165.5 0,-183.5 102.7139,-183.5 102.7139,-165.5 0,-165.5"/>
<text text-anchor="middle" x="51.3569" y="-171.5" font-family="Helvetica,sans-Serif" font-size="10.00" fill="#000000">src/namon_win.hpp</text>
</g>
<!-- Node1 -->
<g id="node2" class="node">
<title>Node1</title>
<polygon fill="#ffffff" stroke="#bfbfbf" points="1.1304,-55.5 1.1304,-73.5 41.5835,-73.5 41.5835,-55.5 1.1304,-55.5"/>
<text text-anchor="middle" x="21.3569" y="-61.5" font-family="Helvetica,sans-Serif" font-size="10.00" fill="#000000">string</text>
</g>
<!-- Node0&#45;&gt;Node1 -->
<g id="edge1" class="edge">
<title>Node0&#45;&gt;Node1</title>
<path fill="none" stroke="#191970" d="M48.9019,-165.4982C44.0235,-147.6108 33.0186,-107.2594 26.4916,-83.3271"/>
<polygon fill="#191970" stroke="#191970" points="29.8538,-82.3528 23.8459,-73.6261 23.1005,-84.1947 29.8538,-82.3528"/>
</g>
<!-- Node2 -->
<g id="node3" class="node">
<title>Node2</title>
<g id="a_node3"><a xlink:href="netflow_8hpp.xhtml" target="_top" xlink:title="Netflow structure header file. ">
<polygon fill="#ffffff" stroke="#000000" points="49.0566,-110.5 49.0566,-128.5 115.6572,-128.5 115.6572,-110.5 49.0566,-110.5"/>
<text text-anchor="middle" x="82.3569" y="-116.5" font-family="Helvetica,sans-Serif" font-size="10.00" fill="#000000">netflow.hpp</text>
</a>
</g>
</g>
<!-- Node0&#45;&gt;Node2 -->
<g id="edge2" class="edge">
<title>Node0&#45;&gt;Node2</title>
<path fill="none" stroke="#191970" d="M56.476,-165.4179C60.7134,-157.8998 66.8666,-146.9829 72.1101,-137.6799"/>
<polygon fill="#191970" stroke="#191970" points="75.2656,-139.2096 77.1267,-128.7795 69.1675,-135.7724 75.2656,-139.2096"/>
</g>
<!-- Node2&#45;&gt;Node1 -->
<g id="edge3" class="edge">
<title>Node2&#45;&gt;Node1</title>
<path fill="none" stroke="#191970" d="M72.284,-110.4179C63.3314,-102.3458 50.0332,-90.3556 39.2706,-80.6517"/>
<polygon fill="#191970" stroke="#191970" points="41.4193,-77.8764 31.6487,-73.7795 36.7319,-83.0753 41.4193,-77.8764"/>
</g>
<!-- Node3 -->
<g id="node4" class="node">
<title>Node3</title>
<polygon fill="#ffffff" stroke="#bfbfbf" points="59.6304,-55.5 59.6304,-73.5 105.0835,-73.5 105.0835,-55.5 59.6304,-55.5"/>
<text text-anchor="middle" x="82.3569" y="-61.5" font-family="Helvetica,sans-Serif" font-size="10.00" fill="#000000">cstring</text>
</g>
<!-- Node2&#45;&gt;Node3 -->
<g id="edge4" class="edge">
<title>Node2&#45;&gt;Node3</title>
<path fill="none" stroke="#191970" d="M82.3569,-110.4179C82.3569,-103.2164 82.3569,-92.8962 82.3569,-83.8632"/>
<polygon fill="#191970" stroke="#191970" points="85.857,-83.7794 82.3569,-73.7795 78.857,-83.7795 85.857,-83.7794"/>
</g>
<!-- Node4 -->
<g id="node5" class="node">
<title>Node4</title>
<g id="a_node5"><a xlink:href="tcpip__headers_8hpp.xhtml" target="_top" xlink:title="Protocol headers. ">
<polygon fill="#ffffff" stroke="#000000" points="123.2144,-55.5 123.2144,-73.5 221.4995,-73.5 221.4995,-55.5 123.2144,-55.5"/>
<text text-anchor="middle" x="172.3569" y="-61.5" font-family="Helvetica,sans-Serif" font-size="10.00" fill="#000000">tcpip_headers.hpp</text>
</a>
</g>
</g>
<!-- Node2&#45;&gt;Node4 -->
<g id="edge5" class="edge">
<title>Node2&#45;&gt;Node4</title>
<path fill="none" stroke="#191970" d="M97.2186,-110.4179C111.1583,-101.8992 132.2389,-89.0166 148.527,-79.0627"/>
<polygon fill="#191970" stroke="#191970" points="150.7654,-81.7967 157.4732,-73.5956 147.1153,-75.8237 150.7654,-81.7967"/>
</g>
<!-- Node5 -->
<g id="node6" class="node">
<title>Node5</title>
<polygon fill="#ffffff" stroke="#bfbfbf" points="148.2363,-.5 148.2363,-18.5 196.4775,-18.5 196.4775,-.5 148.2363,-.5"/>
<text text-anchor="middle" x="172.3569" y="-6.5" font-family="Helvetica,sans-Serif" font-size="10.00" fill="#000000">stdint.h</text>
</g>
<!-- Node4&#45;&gt;Node5 -->
<g id="edge6" class="edge">
<title>Node4&#45;&gt;Node5</title>
<path fill="none" stroke="#191970" d="M172.3569,-55.4179C172.3569,-48.2164 172.3569,-37.8962 172.3569,-28.8632"/>
<polygon fill="#191970" stroke="#191970" points="175.857,-28.7794 172.3569,-18.7795 168.857,-28.7795 175.857,-28.7794"/>
</g>
</g>
</svg>
