<?xml version="1.0" encoding="UTF-8" standalone="no"?>
<!DOCTYPE svg PUBLIC "-//W3C//DTD SVG 1.1//EN"
 "http://www.w3.org/Graphics/SVG/1.1/DTD/svg11.dtd">
<!-- Generated by graphviz version 2.40.1 (20161225.0304)
 -->
<!-- Title: src/namon_linux.cpp Pages: 1 -->
<!--zoomable 247 -->
<svg id="main" version="1.1" xmlns="http://www.w3.org/2000/svg" xmlns:xlink="http://www.w3.org/1999/xlink" xml:space="preserve" onload="init(evt)">
<style type="text/css"><![CDATA[
.edge:hover path { stroke: red; }
.edge:hover polygon { stroke: red; fill: red; }
]]></style>
<script type="text/javascript"><![CDATA[
var edges = document.getElementsByTagName('g');
if (edges && edges.length) {
  for (var i=0;i<edges.length;i++) {
    if (edges[i].id.substr(0,4)=='edge') {
      edges[i].setAttribute('class','edge');
    }
  }
}
]]></script>
        <defs>
                <circle id="rim" cx="0" cy="0" r="7"/>
                <circle id="rim2" cx="0" cy="0" r="3.5"/>
                <g id="zoomPlus">
                        <use xlink:href="#rim" fill="#404040">
                                <set attributeName="fill" to="#808080" begin="zoomplus.mouseover" end="zoomplus.mouseout"/>
                        </use>
                        <path d="M-4,0h8M0,-4v8" fill="none" stroke="white" stroke-width="1.5" pointer-events="none"/>
                </g>
                <g id="zoomMin">
                        <use xlink:href="#rim" fill="#404040">
                                <set attributeName="fill" to="#808080" begin="zoomminus.mouseover" end="zoomminus.mouseout"/>
                        </use>
                        <path d="M-4,0h8" fill="none" stroke="white" stroke-width="1.5" pointer-events="none"/>
                </g>
                <g id="dirArrow">
                        <path fill="none" stroke="white" stroke-width="1.5" d="M0,-3.0v7 M-2.5,-0.5L0,-3.0L2.5,-0.5"/>
                </g>
               <g id="resetDef">
                       <use xlink:href="#rim2" fill="#404040">
                               <set attributeName="fill" to="#808080" begin="reset.mouseover" end="reset.mouseout"/>
                       </use>
               </g>
        </defs>

<script type="text/javascript">
var viewWidth = 1038;
var viewHeight = 247;
var sectionId = 'dynsection-0';
</script>
<script xlink:href="svgpan.js"/>
<svg id="graph" class="graph">
<g id="viewport">
<title>src/namon_linux.cpp</title>
<polygon fill="#ffffff" stroke="transparent" points="-4,4 -4,-243 1034.2856,-243 1034.2856,4 -4,4"/>
<!-- Node0 -->
<g id="node1" class="node">
<title>Node0</title>
<polygon fill="#bfbfbf" stroke="#000000" points="216.813,-220.5 216.813,-238.5 324.5269,-238.5 324.5269,-220.5 216.813,-220.5"/>
<text text-anchor="middle" x="270.6699" y="-226.5" font-family="Helvetica,sans-Serif" font-size="10.00" fill="#000000">src/namon_linux.cpp</text>
</g>
<!-- Node1 -->
<g id="node2" class="node">
<title>Node1</title>
<polygon fill="#ffffff" stroke="#bfbfbf" points="0,-165.5 0,-183.5 49.3398,-183.5 49.3398,-165.5 0,-165.5"/>
<text text-anchor="middle" x="24.6699" y="-171.5" font-family="Helvetica,sans-Serif" font-size="10.00" fill="#000000">fstream</text>
</g>
<!-- Node0&#45;&gt;Node1 -->
<g id="edge1" class="edge">
<title>Node0&#45;&gt;Node1</title>
<path fill="none" stroke="#191970" d="M223.9168,-220.49C182.8153,-212.3499 121.1788,-199.6137 59.3993,-184.3212"/>
<polygon fill="#191970" stroke="#191970" points="60.036,-180.8727 49.4859,-181.8452 58.3397,-187.6641 60.036,-180.8727"/>
</g>
<!-- Node2 -->
<g id="node3" class="node">
<title>Node2</title>
<polygon fill="#ffffff" stroke="#bfbfbf" points="66.9927,-165.5 66.9927,-183.5 116.3472,-183.5 116.3472,-165.5 66.9927,-165.5"/>
<text text-anchor="middle" x="91.6699" y="-171.5" font-family="Helvetica,sans-Serif" font-size="10.00" fill="#000000">dirent.h</text>
</g>
<!-- Node0&#45;&gt;Node2 -->
<g id="edge2" class="edge">
<title>Node0&#45;&gt;Node2</title>
<path fill="none" stroke="#191970" d="M241.1117,-220.4179C209.5254,-210.7126 159.5045,-195.343 126.1468,-185.0935"/>
<polygon fill="#191970" stroke="#191970" points="126.9552,-181.6804 116.3682,-182.0889 124.8992,-188.3717 126.9552,-181.6804"/>
</g>
<!-- Node3 -->
<g id="node4" class="node">
<title>Node3</title>
<polygon fill="#ffffff" stroke="#bfbfbf" points="134.1577,-165.5 134.1577,-183.5 185.1821,-183.5 185.1821,-165.5 134.1577,-165.5"/>
<text text-anchor="middle" x="159.6699" y="-171.5" font-family="Helvetica,sans-Serif" font-size="10.00" fill="#000000">unistd.h</text>
</g>
<!-- Node0&#45;&gt;Node3 -->
<g id="edge3" class="edge">
<title>Node0&#45;&gt;Node3</title>
<path fill="none" stroke="#191970" d="M252.3405,-220.4179C234.5858,-211.6205 207.4385,-198.1691 187.1083,-188.0956"/>
<polygon fill="#191970" stroke="#191970" points="188.5409,-184.8994 178.0265,-183.5956 185.433,-191.1716 188.5409,-184.8994"/>
</g>
<!-- Node4 -->
<g id="node5" class="node">
<title>Node4</title>
<polygon fill="#ffffff" stroke="#bfbfbf" points="194.9434,-55.5 194.9434,-73.5 240.3965,-73.5 240.3965,-55.5 194.9434,-55.5"/>
<text text-anchor="middle" x="217.6699" y="-61.5" font-family="Helvetica,sans-Serif" font-size="10.00" fill="#000000">cstring</text>
</g>
<!-- Node0&#45;&gt;Node4 -->
<g id="edge4" class="edge">
<title>Node0&#45;&gt;Node4</title>
<path fill="none" stroke="#191970" d="M267.6686,-220.1561C259.2145,-193.837 235.0825,-118.709 223.7224,-83.3426"/>
<polygon fill="#191970" stroke="#191970" points="227.029,-82.1919 220.6384,-73.7414 220.3644,-84.3327 227.029,-82.1919"/>
</g>
<!-- Node5 -->
<g id="node6" class="node">
<title>Node5</title>
<g id="a_node6"><a xlink:href="tcpip__headers_8hpp.xhtml" target="_top" xlink:title="Protocol headers. ">
<polygon fill="#ffffff" stroke="#000000" points="260.5273,-55.5 260.5273,-73.5 358.8125,-73.5 358.8125,-55.5 260.5273,-55.5"/>
<text text-anchor="middle" x="309.6699" y="-61.5" font-family="Helvetica,sans-Serif" font-size="10.00" fill="#000000">tcpip_headers.hpp</text>
</a>
</g>
</g>
<!-- Node0&#45;&gt;Node5 -->
<g id="edge5" class="edge">
<title>Node0&#45;&gt;Node5</title>
<path fill="none" stroke="#191970" d="M268.6033,-220.4335C264.3717,-199.9626 256.2741,-148.9157 270.6699,-110 274.7849,-98.8762 282.9688,-88.6367 290.7817,-80.6998"/>
<polygon fill="#191970" stroke="#191970" points="293.4462,-82.9973 298.3066,-73.5831 288.6362,-77.9116 293.4462,-82.9973"/>
</g>
<!-- Node7 -->
<g id="node8" class="node">
<title>Node7</title>
<g id="a_node8"><a xlink:href="netflow_8hpp.xhtml" target="_top" xlink:title="Netflow structure header file. ">
<polygon fill="#ffffff" stroke="#000000" points="279.3696,-110.5 279.3696,-128.5 345.9702,-128.5 345.9702,-110.5 279.3696,-110.5"/>
<text text-anchor="middle" x="312.6699" y="-116.5" font-family="Helvetica,sans-Serif" font-size="10.00" fill="#000000">netflow.hpp</text>
</a>
</g>
</g>
<!-- Node0&#45;&gt;Node7 -->
<g id="edge7" class="edge">
<title>Node0&#45;&gt;Node7</title>
<path fill="none" stroke="#191970" d="M274.107,-220.4982C280.9675,-202.5302 296.4826,-161.8954 305.6045,-138.0046"/>
<polygon fill="#191970" stroke="#191970" points="308.8881,-139.2168 309.1854,-128.6261 302.3485,-136.7199 308.8881,-139.2168"/>
</g>
<!-- Node9 -->
<g id="node10" class="node">
<title>Node9</title>
<g id="a_node10"><a xlink:href="cache_8hpp.xhtml" target="_top" xlink:title="Cache implementation header file. ">
<polygon fill="#ffffff" stroke="#000000" points="442.5962,-165.5 442.5962,-183.5 504.7437,-183.5 504.7437,-165.5 442.5962,-165.5"/>
<text text-anchor="middle" x="473.6699" y="-171.5" font-family="Helvetica,sans-Serif" font-size="10.00" fill="#000000">cache.hpp</text>
</a>
</g>
</g>
<!-- Node0&#45;&gt;Node9 -->
<g id="edge11" class="edge">
<title>Node0&#45;&gt;Node9</title>
<path fill="none" stroke="#191970" d="M304.1912,-220.4179C339.4421,-210.8671 394.9385,-195.8312 432.7486,-185.5871"/>
<polygon fill="#191970" stroke="#191970" points="433.6975,-188.9562 442.4342,-182.9629 431.8669,-182.1998 433.6975,-188.9562"/>
</g>
<!-- Node13 -->
<g id="node14" class="node">
<title>Node13</title>
<g id="a_node14"><a xlink:href="debug_8hpp.xhtml" target="_top" xlink:title="Debugging functions. ">
<polygon fill="#ffffff" stroke="#000000" points="910.0347,-165.5 910.0347,-183.5 973.3052,-183.5 973.3052,-165.5 910.0347,-165.5"/>
<text text-anchor="middle" x="941.6699" y="-171.5" font-family="Helvetica,sans-Serif" font-size="10.00" fill="#000000">debug.hpp</text>
</a>
</g>
</g>
<!-- Node0&#45;&gt;Node13 -->
<g id="edge17" class="edge">
<title>Node0&#45;&gt;Node13</title>
<path fill="none" stroke="#191970" d="M324.729,-225.0689C454.7671,-214.4101 782.9035,-187.5136 899.6409,-177.945"/>
<polygon fill="#191970" stroke="#191970" points="900.2629,-181.4059 909.9435,-177.1005 899.6909,-174.4292 900.2629,-181.4059"/>
</g>
<!-- Node16 -->
<g id="node17" class="node">
<title>Node16</title>
<g id="a_node17"><a xlink:href="utils_8hpp.xhtml" target="_top" xlink:title="Small useful functions header file. ">
<polygon fill="#ffffff" stroke="#000000" points="710.0469,-165.5 710.0469,-183.5 763.293,-183.5 763.293,-165.5 710.0469,-165.5"/>
<text text-anchor="middle" x="736.6699" y="-171.5" font-family="Helvetica,sans-Serif" font-size="10.00" fill="#000000">utils.hpp</text>
</a>
</g>
</g>
<!-- Node0&#45;&gt;Node16 -->
<g id="edge20" class="edge">
<title>Node0&#45;&gt;Node16</title>
<path fill="none" stroke="#191970" d="M324.5813,-223.1371C420.4062,-211.8273 617.9956,-188.5066 699.8775,-178.8425"/>
<polygon fill="#191970" stroke="#191970" points="700.4388,-182.3006 709.9596,-177.6525 699.6182,-175.3488 700.4388,-182.3006"/>
</g>
<!-- Node20 -->
<g id="node21" class="node">
<title>Node20</title>
<g id="a_node21"><a xlink:href="namon__linux_8hpp.xhtml" target="_top" xlink:title="Determining applications and their sockets on Linux. ">
<polygon fill="#ffffff" stroke="#000000" points="317.5864,-165.5 317.5864,-183.5 409.7534,-183.5 409.7534,-165.5 317.5864,-165.5"/>
<text text-anchor="middle" x="363.6699" y="-171.5" font-family="Helvetica,sans-Serif" font-size="10.00" fill="#000000">namon_linux.hpp</text>
</a>
</g>
</g>
<!-- Node0&#45;&gt;Node20 -->
<g id="edge25" class="edge">
<title>Node0&#45;&gt;Node20</title>
<path fill="none" stroke="#191970" d="M286.027,-220.4179C300.566,-211.8195 322.6225,-198.7754 339.5163,-188.7844"/>
<polygon fill="#191970" stroke="#191970" points="341.4643,-191.6987 348.29,-183.5956 337.901,-185.6735 341.4643,-191.6987"/>
</g>
<!-- Node6 -->
<g id="node7" class="node">
<title>Node6</title>
<polygon fill="#ffffff" stroke="#bfbfbf" points="285.5493,-.5 285.5493,-18.5 333.7905,-18.5 333.7905,-.5 285.5493,-.5"/>
<text text-anchor="middle" x="309.6699" y="-6.5" font-family="Helvetica,sans-Serif" font-size="10.00" fill="#000000">stdint.h</text>
</g>
<!-- Node5&#45;&gt;Node6 -->
<g id="edge6" class="edge">
<title>Node5&#45;&gt;Node6</title>
<path fill="none" stroke="#191970" d="M309.6699,-55.4179C309.6699,-48.2164 309.6699,-37.8962 309.6699,-28.8632"/>
<polygon fill="#191970" stroke="#191970" points="313.17,-28.7794 309.6699,-18.7795 306.17,-28.7795 313.17,-28.7794"/>
</g>
<!-- Node7&#45;&gt;Node4 -->
<g id="edge9" class="edge">
<title>Node7&#45;&gt;Node4</title>
<path fill="none" stroke="#191970" d="M296.9826,-110.4179C282.1309,-101.8195 259.6001,-88.7754 242.343,-78.7844"/>
<polygon fill="#191970" stroke="#191970" points="243.7885,-75.577 233.3805,-73.5956 240.2812,-81.635 243.7885,-75.577"/>
</g>
<!-- Node7&#45;&gt;Node5 -->
<g id="edge10" class="edge">
<title>Node7&#45;&gt;Node5</title>
<path fill="none" stroke="#191970" d="M312.1745,-110.4179C311.7817,-103.2164 311.2188,-92.8962 310.7261,-83.8632"/>
<polygon fill="#191970" stroke="#191970" points="314.2156,-83.574 310.1761,-73.7795 307.226,-83.9553 314.2156,-83.574"/>
</g>
<!-- Node8 -->
<g id="node9" class="node">
<title>Node8</title>
<polygon fill="#ffffff" stroke="#bfbfbf" points="498.4434,-55.5 498.4434,-73.5 538.8965,-73.5 538.8965,-55.5 498.4434,-55.5"/>
<text text-anchor="middle" x="518.6699" y="-61.5" font-family="Helvetica,sans-Serif" font-size="10.00" fill="#000000">string</text>
</g>
<!-- Node7&#45;&gt;Node8 -->
<g id="edge8" class="edge">
<title>Node7&#45;&gt;Node8</title>
<path fill="none" stroke="#191970" d="M346.2259,-110.5409C385.6177,-100.0237 450.375,-82.7341 488.3236,-72.6022"/>
<polygon fill="#191970" stroke="#191970" points="489.5141,-75.907 498.2728,-69.9458 487.7084,-69.1439 489.5141,-75.907"/>
</g>
<!-- Node9&#45;&gt;Node7 -->
<g id="edge16" class="edge">
<title>Node9&#45;&gt;Node7</title>
<path fill="none" stroke="#191970" d="M447.084,-165.4179C420.2028,-156.2348 378.4772,-141.9807 348.6487,-131.7909"/>
<polygon fill="#191970" stroke="#191970" points="349.6222,-128.4249 339.0277,-128.5042 347.3593,-135.0491 349.6222,-128.4249"/>
</g>
<!-- Node9&#45;&gt;Node8 -->
<g id="edge12" class="edge">
<title>Node9&#45;&gt;Node8</title>
<path fill="none" stroke="#191970" d="M504.7519,-169.4302C544.1319,-162.2996 608.5895,-148.022 622.6699,-129 644.9695,-98.8743 587.1472,-79.6389 549.0401,-70.5906"/>
<polygon fill="#191970" stroke="#191970" points="549.4222,-67.0892 538.8977,-68.3081 547.8853,-73.9184 549.4222,-67.0892"/>
</g>
<!-- Node10 -->
<g id="node11" class="node">
<title>Node10</title>
<polygon fill="#ffffff" stroke="#bfbfbf" points="466.0542,-110.5 466.0542,-128.5 509.2856,-128.5 509.2856,-110.5 466.0542,-110.5"/>
<text text-anchor="middle" x="487.6699" y="-116.5" font-family="Helvetica,sans-Serif" font-size="10.00" fill="#000000">vector</text>
</g>
<!-- Node9&#45;&gt;Node10 -->
<g id="edge13" class="edge">
<title>Node9&#45;&gt;Node10</title>
<path fill="none" stroke="#191970" d="M475.9817,-165.4179C477.835,-158.1372 480.4996,-147.669 482.8168,-138.5659"/>
<polygon fill="#191970" stroke="#191970" points="486.2329,-139.3338 485.3079,-128.7795 479.4492,-137.607 486.2329,-139.3338"/>
</g>
<!-- Node11 -->
<g id="node12" class="node">
<title>Node11</title>
<polygon fill="#ffffff" stroke="#bfbfbf" points="527.3672,-110.5 527.3672,-128.5 613.9727,-128.5 613.9727,-110.5 527.3672,-110.5"/>
<text text-anchor="middle" x="570.6699" y="-116.5" font-family="Helvetica,sans-Serif" font-size="10.00" fill="#000000">unordered_map</text>
</g>
<!-- Node9&#45;&gt;Node11 -->
<g id="edge14" class="edge">
<title>Node9&#45;&gt;Node11</title>
<path fill="none" stroke="#191970" d="M489.6875,-165.4179C504.8518,-156.8195 527.857,-143.7754 545.4774,-133.7844"/>
<polygon fill="#191970" stroke="#191970" points="547.6559,-136.5727 554.6285,-128.5956 544.2032,-130.4834 547.6559,-136.5727"/>
</g>
<!-- Node12 -->
<g id="node13" class="node">
<title>Node12</title>
<polygon fill="#ffffff" stroke="#bfbfbf" points="401.3818,-110.5 401.3818,-128.5 447.958,-128.5 447.958,-110.5 401.3818,-110.5"/>
<text text-anchor="middle" x="424.6699" y="-116.5" font-family="Helvetica,sans-Serif" font-size="10.00" fill="#000000">chrono</text>
</g>
<!-- Node9&#45;&gt;Node12 -->
<g id="edge15" class="edge">
<title>Node9&#45;&gt;Node12</title>
<path fill="none" stroke="#191970" d="M465.5786,-165.4179C458.5986,-157.5833 448.3303,-146.0575 439.8276,-136.5137"/>
<polygon fill="#191970" stroke="#191970" points="442.2025,-133.9178 432.9371,-128.7795 436.9758,-138.5743 442.2025,-133.9178"/>
</g>
<!-- Node14 -->
<g id="node15" class="node">
<title>Node14</title>
<polygon fill="#ffffff" stroke="#bfbfbf" points="914.4976,-110.5 914.4976,-128.5 968.8423,-128.5 968.8423,-110.5 914.4976,-110.5"/>
<text text-anchor="middle" x="941.6699" y="-116.5" font-family="Helvetica,sans-Serif" font-size="10.00" fill="#000000">iostream</text>
</g>
<!-- Node13&#45;&gt;Node14 -->
<g id="edge18" class="edge">
<title>Node13&#45;&gt;Node14</title>
<path fill="none" stroke="#191970" d="M941.6699,-165.4179C941.6699,-158.2164 941.6699,-147.8962 941.6699,-138.8632"/>
<polygon fill="#191970" stroke="#191970" points="945.17,-138.7794 941.6699,-128.7795 938.17,-138.7795 945.17,-138.7794"/>
</g>
<!-- Node15 -->
<g id="node16" class="node">
<title>Node15</title>
<polygon fill="#ffffff" stroke="#bfbfbf" points="987.0542,-110.5 987.0542,-128.5 1030.2856,-128.5 1030.2856,-110.5 987.0542,-110.5"/>
<text text-anchor="middle" x="1008.6699" y="-116.5" font-family="Helvetica,sans-Serif" font-size="10.00" fill="#000000">mutex</text>
</g>
<!-- Node13&#45;&gt;Node15 -->
<g id="edge19" class="edge">
<title>Node13&#45;&gt;Node15</title>
<path fill="none" stroke="#191970" d="M952.7336,-165.4179C962.6632,-157.2667 977.4599,-145.1201 989.3411,-135.3669"/>
<polygon fill="#191970" stroke="#191970" points="991.8573,-137.8297 997.3659,-128.7795 987.4158,-132.4192 991.8573,-137.8297"/>
</g>
<!-- Node16&#45;&gt;Node8 -->
<g id="edge22" class="edge">
<title>Node16&#45;&gt;Node8</title>
<path fill="none" stroke="#191970" d="M724.9609,-165.4314C707.2502,-152.0186 672.2513,-126.6834 639.6699,-110 609.8223,-94.7164 573.5976,-81.7739 548.6072,-73.6461"/>
<polygon fill="#191970" stroke="#191970" points="549.5545,-70.2745 538.9637,-70.5672 547.4254,-76.9429 549.5545,-70.2745"/>
</g>
<!-- Node17 -->
<g id="node18" class="node">
<title>Node17</title>
<polygon fill="#ffffff" stroke="#bfbfbf" points="707.2661,-110.5 707.2661,-128.5 766.0737,-128.5 766.0737,-110.5 707.2661,-110.5"/>
<text text-anchor="middle" x="736.6699" y="-116.5" font-family="Helvetica,sans-Serif" font-size="10.00" fill="#000000">exception</text>
</g>
<!-- Node16&#45;&gt;Node17 -->
<g id="edge21" class="edge">
<title>Node16&#45;&gt;Node17</title>
<path fill="none" stroke="#191970" d="M736.6699,-165.4179C736.6699,-158.2164 736.6699,-147.8962 736.6699,-138.8632"/>
<polygon fill="#191970" stroke="#191970" points="740.17,-138.7794 736.6699,-128.7795 733.17,-138.7795 740.17,-138.7794"/>
</g>
<!-- Node18 -->
<g id="node19" class="node">
<title>Node18</title>
<polygon fill="#ffffff" stroke="#bfbfbf" points="784.4976,-110.5 784.4976,-128.5 828.8423,-128.5 828.8423,-110.5 784.4976,-110.5"/>
<text text-anchor="middle" x="806.6699" y="-116.5" font-family="Helvetica,sans-Serif" font-size="10.00" fill="#000000">cerrno</text>
</g>
<!-- Node16&#45;&gt;Node18 -->
<g id="edge23" class="edge">
<title>Node16&#45;&gt;Node18</title>
<path fill="none" stroke="#191970" d="M748.229,-165.4179C758.7039,-157.1876 774.3631,-144.8839 786.8363,-135.0836"/>
<polygon fill="#191970" stroke="#191970" points="789.1589,-137.7098 794.8597,-128.7795 784.8341,-132.2056 789.1589,-137.7098"/>
</g>
<!-- Node19 -->
<g id="node20" class="node">
<title>Node19</title>
<g id="a_node20"><a xlink:href="utils_8tpp.xhtml" target="_top" xlink:title="Small useful templated functions. ">
<polygon fill="#ffffff" stroke="#000000" points="846.4385,-110.5 846.4385,-128.5 896.9014,-128.5 896.9014,-110.5 846.4385,-110.5"/>
<text text-anchor="middle" x="871.6699" y="-116.5" font-family="Helvetica,sans-Serif" font-size="10.00" fill="#000000">utils.tpp</text>
</a>
</g>
</g>
<!-- Node16&#45;&gt;Node19 -->
<g id="edge24" class="edge">
<title>Node16&#45;&gt;Node19</title>
<path fill="none" stroke="#191970" d="M758.9624,-165.4179C781.0445,-156.4215 815.0729,-142.5581 839.9642,-132.4172"/>
<polygon fill="#191970" stroke="#191970" points="841.4039,-135.61 849.3443,-128.5956 838.7628,-129.1273 841.4039,-135.61"/>
</g>
<!-- Node20&#45;&gt;Node7 -->
<g id="edge27" class="edge">
<title>Node20&#45;&gt;Node7</title>
<path fill="none" stroke="#191970" d="M355.2483,-165.4179C347.9101,-157.5041 337.0797,-145.8243 328.1786,-136.2251"/>
<polygon fill="#191970" stroke="#191970" points="330.6404,-133.7324 321.2745,-128.7795 325.5075,-138.492 330.6404,-133.7324"/>
</g>
<!-- Node20&#45;&gt;Node8 -->
<g id="edge26" class="edge">
<title>Node20&#45;&gt;Node8</title>
<path fill="none" stroke="#191970" d="M365.4302,-165.2549C368.5373,-151.3815 376.2805,-125.189 392.6699,-110 419.2917,-85.3281 460.2813,-73.8277 488.2273,-68.6086"/>
<polygon fill="#191970" stroke="#191970" points="488.9724,-72.0321 498.242,-66.9015 487.7961,-65.1317 488.9724,-72.0321"/>
</g>
</g>
</svg>
        <g id="navigator" transform="translate(0 0)" fill="#404254">
                <rect fill="#f2f5e9" fill-opacity="0.5" stroke="#606060" stroke-width=".5" x="0" y="0" width="60" height="60"/>
                <use id="zoomplus" xlink:href="#zoomPlus" x="17" y="9" onmousedown="handleZoom(evt,'in')"/>
                <use id="zoomminus" xlink:href="#zoomMin" x="42" y="9" onmousedown="handleZoom(evt,'out')"/>
                <use id="reset" xlink:href="#resetDef" x="30" y="36" onmousedown="handleReset()"/>
                <g id="arrowUp" xlink:href="#dirArrow" transform="translate(30 24)" onmousedown="handlePan(0,-1)">
                  <use xlink:href="#rim" fill="#404040">
                        <set attributeName="fill" to="#808080" begin="arrowUp.mouseover" end="arrowUp.mouseout"/>
                  </use>
                  <path fill="none" stroke="white" stroke-width="1.5" d="M0,-3.0v7 M-2.5,-0.5L0,-3.0L2.5,-0.5"/>
                </g>
                <g id="arrowRight" xlink:href="#dirArrow" transform="rotate(90) translate(36 -43)" onmousedown="handlePan(1,0)">
                  <use xlink:href="#rim" fill="#404040">
                        <set attributeName="fill" to="#808080" begin="arrowRight.mouseover" end="arrowRight.mouseout"/>
                  </use>
                  <path fill="none" stroke="white" stroke-width="1.5" d="M0,-3.0v7 M-2.5,-0.5L0,-3.0L2.5,-0.5"/>
                </g>
                <g id="arrowDown" xlink:href="#dirArrow" transform="rotate(180) translate(-30 -48)" onmousedown="handlePan(0,1)">
                  <use xlink:href="#rim" fill="#404040">
                        <set attributeName="fill" to="#808080" begin="arrowDown.mouseover" end="arrowDown.mouseout"/>
                  </use>
                  <path fill="none" stroke="white" stroke-width="1.5" d="M0,-3.0v7 M-2.5,-0.5L0,-3.0L2.5,-0.5"/>
                </g>
                <g id="arrowLeft" xlink:href="#dirArrow" transform="rotate(270) translate(-36 17)" onmousedown="handlePan(-1,0)">
                  <use xlink:href="#rim" fill="#404040">
                        <set attributeName="fill" to="#808080" begin="arrowLeft.mouseover" end="arrowLeft.mouseout"/>
                  </use>
                  <path fill="none" stroke="white" stroke-width="1.5" d="M0,-3.0v7 M-2.5,-0.5L0,-3.0L2.5,-0.5"/>
                </g>
        </g>
        <svg viewBox="0 0 15 15" width="100%" height="30px" preserveAspectRatio="xMaxYMin meet">
         <g id="arrow_out" transform="scale(0.3 0.3)">
          <a xlink:href="namon__linux_8cpp__incl_org.svg" target="_base">
           <rect id="button" ry="5" rx="5" y="6" x="6" height="38" width="38"
                fill="#f2f5e9" fill-opacity="0.5" stroke="#606060" stroke-width="1.0"/>
           <path id="arrow"
             d="M 11.500037,31.436501 C 11.940474,20.09759 22.043105,11.32322 32.158766,21.979434 L 37.068811,17.246167 C 37.068811,17.246167 37.088388,32 37.088388,32 L 22.160133,31.978069 C 22.160133,31.978069 26.997745,27.140456 26.997745,27.140456 C 18.528582,18.264221 13.291696,25.230495 11.500037,31.436501 z"
             style="fill:#404040;"/>
          </a>
         </g>
        </svg>
</svg>
