<?xml version="1.0" encoding="UTF-8" standalone="no"?>
<!DOCTYPE svg PUBLIC "-//W3C//DTD SVG 1.1//EN"
 "http://www.w3.org/Graphics/SVG/1.1/DTD/svg11.dtd">
<!-- Generated by graphviz version 2.40.1 (20161225.0304)
 -->
<!-- Title: src/namon_bsd.hpp Pages: 1 -->
<svg width="230pt" height="192pt"
 viewBox="0.00 0.00 230.06 192.00" xmlns="http://www.w3.org/2000/svg" xmlns:xlink="http://www.w3.org/1999/xlink">
<g id="graph0" class="graph" transform="scale(1 1) rotate(0) translate(4 188)">
<title>src/namon_bsd.hpp</title>
<polygon fill="#ffffff" stroke="transparent" points="-4,4 -4,-188 226.0586,-188 226.0586,4 -4,4"/>
<!-- Node0 -->
<g id="node1" class="node">
<title>Node0</title>
<polygon fill="#bfbfbf" stroke="#000000" points="0,-165.5 0,-183.5 103.832,-183.5 103.832,-165.5 0,-165.5"/>
<text text-anchor="middle" x="51.916" y="-171.5" font-family="Helvetica,sans-Serif" font-size="10.00" fill="#000000">src/namon_bsd.hpp</text>
</g>
<!-- Node1 -->
<g id="node2" class="node">
<title>Node1</title>
<polygon fill="#ffffff" stroke="#bfbfbf" points="1.6895,-55.5 1.6895,-73.5 42.1426,-73.5 42.1426,-55.5 1.6895,-55.5"/>
<text text-anchor="middle" x="21.916" y="-61.5" font-family="Helvetica,sans-Serif" font-size="10.00" fill="#000000">string</text>
</g>
<!-- Node0&#45;&gt;Node1 -->
<g id="edge1" class="edge">
<title>Node0&#45;&gt;Node1</title>
<path fill="none" stroke="#191970" d="M49.461,-165.4982C44.5826,-147.6108 33.5777,-107.2594 27.0507,-83.3271"/>
<polygon fill="#191970" stroke="#191970" points="30.4129,-82.3528 24.405,-73.6261 23.6595,-84.1947 30.4129,-82.3528"/>
</g>
<!-- Node2 -->
<g id="node3" class="node">
<title>Node2</title>
<g id="a_node3"><a xlink:href="netflow_8hpp.xhtml" target="_top" xlink:title="Netflow structure header file. ">
<polygon fill="#ffffff" stroke="#000000" points="49.6157,-110.5 49.6157,-128.5 116.2163,-128.5 116.2163,-110.5 49.6157,-110.5"/>
<text text-anchor="middle" x="82.916" y="-116.5" font-family="Helvetica,sans-Serif" font-size="10.00" fill="#000000">netflow.hpp</text>
</a>
</g>
</g>
<!-- Node0&#45;&gt;Node2 -->
<g id="edge2" class="edge">
<title>Node0&#45;&gt;Node2</title>
<path fill="none" stroke="#191970" d="M57.035,-165.4179C61.2725,-157.8998 67.4257,-146.9829 72.6692,-137.6799"/>
<polygon fill="#191970" stroke="#191970" points="75.8246,-139.2096 77.6858,-128.7795 69.7266,-135.7724 75.8246,-139.2096"/>
</g>
<!-- Node2&#45;&gt;Node1 -->
<g id="edge3" class="edge">
<title>Node2&#45;&gt;Node1</title>
<path fill="none" stroke="#191970" d="M72.8431,-110.4179C63.8905,-102.3458 50.5922,-90.3556 39.8297,-80.6517"/>
<polygon fill="#191970" stroke="#191970" points="41.9784,-77.8764 32.2078,-73.7795 37.2909,-83.0753 41.9784,-77.8764"/>
</g>
<!-- Node3 -->
<g id="node4" class="node">
<title>Node3</title>
<polygon fill="#ffffff" stroke="#bfbfbf" points="60.1895,-55.5 60.1895,-73.5 105.6426,-73.5 105.6426,-55.5 60.1895,-55.5"/>
<text text-anchor="middle" x="82.916" y="-61.5" font-family="Helvetica,sans-Serif" font-size="10.00" fill="#000000">cstring</text>
</g>
<!-- Node2&#45;&gt;Node3 -->
<g id="edge4" class="edge">
<title>Node2&#45;&gt;Node3</title>
<path fill="none" stroke="#191970" d="M82.916,-110.4179C82.916,-103.2164 82.916,-92.8962 82.916,-83.8632"/>
<polygon fill="#191970" stroke="#191970" points="86.4161,-83.7794 82.916,-73.7795 79.4161,-83.7795 86.4161,-83.7794"/>
</g>
<!-- Node4 -->
<g id="node5" class="node">
<title>Node4</title>
<g id="a_node5"><a xlink:href="tcpip__headers_8hpp.xhtml" target="_top" xlink:title="Protocol headers. ">
<polygon fill="#ffffff" stroke="#000000" points="123.7734,-55.5 123.7734,-73.5 222.0586,-73.5 222.0586,-55.5 123.7734,-55.5"/>
<text text-anchor="middle" x="172.916" y="-61.5" font-family="Helvetica,sans-Serif" font-size="10.00" fill="#000000">tcpip_headers.hpp</text>
</a>
</g>
</g>
<!-- Node2&#45;&gt;Node4 -->
<g id="edge5" class="edge">
<title>Node2&#45;&gt;Node4</title>
<path fill="none" stroke="#191970" d="M97.7777,-110.4179C111.7174,-101.8992 132.798,-89.0166 149.0861,-79.0627"/>
<polygon fill="#191970" stroke="#191970" points="151.3245,-81.7967 158.0323,-73.5956 147.6743,-75.8237 151.3245,-81.7967"/>
</g>
<!-- Node5 -->
<g id="node6" class="node">
<title>Node5</title>
<polygon fill="#ffffff" stroke="#bfbfbf" points="148.7954,-.5 148.7954,-18.5 197.0366,-18.5 197.0366,-.5 148.7954,-.5"/>
<text text-anchor="middle" x="172.916" y="-6.5" font-family="Helvetica,sans-Serif" font-size="10.00" fill="#000000">stdint.h</text>
</g>
<!-- Node4&#45;&gt;Node5 -->
<g id="edge6" class="edge">
<title>Node4&#45;&gt;Node5</title>
<path fill="none" stroke="#191970" d="M172.916,-55.4179C172.916,-48.2164 172.916,-37.8962 172.916,-28.8632"/>
<polygon fill="#191970" stroke="#191970" points="176.4161,-28.7794 172.916,-18.7795 169.4161,-28.7795 176.4161,-28.7794"/>
</g>
</g>
</svg>
