<?xml version="1.0" encoding="UTF-8" standalone="no"?>
<!DOCTYPE svg PUBLIC "-//W3C//DTD SVG 1.1//EN"
 "http://www.w3.org/Graphics/SVG/1.1/DTD/svg11.dtd">
<!-- Generated by graphviz version 2.40.1 (20161225.0304)
 -->
<!-- Title: NAMON::setDevMac Pages: 1 -->
<svg width="274pt" height="45pt"
 viewBox="0.00 0.00 273.83 45.00" xmlns="http://www.w3.org/2000/svg" xmlns:xlink="http://www.w3.org/1999/xlink">
<g id="graph0" class="graph" transform="scale(1 1) rotate(0) translate(4 41)">
<title>NAMON::setDevMac</title>
<polygon fill="#ffffff" stroke="transparent" points="-4,4 -4,-41 269.832,-41 269.832,4 -4,4"/>
<!-- Node4 -->
<g id="node1" class="node">
<title>Node4</title>
<polygon fill="#bfbfbf" stroke="#000000" points="0,-.5 0,-18.5 108.793,-18.5 108.793,-.5 0,-.5"/>
<text text-anchor="middle" x="54.3965" y="-6.5" font-family="Helvetica,sans-Serif" font-size="10.00" fill="#000000">NAMON::setDevMac</text>
</g>
<!-- Node4&#45;&gt;Node4 -->
<g id="edge1" class="edge">
<title>Node4&#45;&gt;Node4</title>
<path fill="none" stroke="#191970" d="M32.0462,-18.5134C19.7003,-27.322 27.1504,-37 54.3965,-37 73.1282,-37 82.5032,-32.4256 82.5215,-26.7043"/>
<polygon fill="#191970" stroke="#191970" points="85.3695,-24.6697 76.7468,-18.5134 79.6484,-28.7032 85.3695,-24.6697"/>
</g>
<!-- Node5 -->
<g id="node2" class="node">
<title>Node5</title>
<g id="a_node2"><a xlink:href="namon_8cpp.xhtml#ae908895e58096afddac49d147777aee9" target="_top" xlink:title="Identifies application, which has opened socket which belongs to some IP, proto and port...">
<polygon fill="#ffffff" stroke="#000000" points="144.793,-.5 144.793,-18.5 265.832,-18.5 265.832,-.5 144.793,-.5"/>
<text text-anchor="middle" x="205.3125" y="-6.5" font-family="Helvetica,sans-Serif" font-size="10.00" fill="#000000">NAMON::determineApp</text>
</a>
</g>
</g>
<!-- Node4&#45;&gt;Node5 -->
<g id="edge2" class="edge">
<title>Node4&#45;&gt;Node5</title>
<path fill="none" stroke="#191970" d="M108.8806,-9.5C117.255,-9.5 126.0038,-9.5 134.6676,-9.5"/>
<polygon fill="#191970" stroke="#191970" points="134.7716,-13.0001 144.7716,-9.5 134.7716,-6.0001 134.7716,-13.0001"/>
</g>
<!-- Node5&#45;&gt;Node5 -->
<g id="edge3" class="edge">
<title>Node5&#45;&gt;Node5</title>
<path fill="none" stroke="#191970" d="M182.9622,-18.5134C170.6163,-27.322 178.0664,-37 205.3125,-37 224.0442,-37 233.4192,-32.4256 233.4375,-26.7043"/>
<polygon fill="#191970" stroke="#191970" points="236.2855,-24.6697 227.6628,-18.5134 230.5644,-28.7032 236.2855,-24.6697"/>
</g>
</g>
</svg>
