<?xml version="1.0" encoding="UTF-8" standalone="no"?>
<!DOCTYPE svg PUBLIC "-//W3C//DTD SVG 1.1//EN"
 "http://www.w3.org/Graphics/SVG/1.1/DTD/svg11.dtd">
<!-- Generated by graphviz version 2.40.1 (20161225.0304)
 -->
<!-- Title: NAMON::setDevMac Pages: 1 -->
<svg width="224pt" height="45pt"
 viewBox="0.00 0.00 223.82 45.00" xmlns="http://www.w3.org/2000/svg" xmlns:xlink="http://www.w3.org/1999/xlink">
<g id="graph0" class="graph" transform="scale(1 1) rotate(0) translate(4 41)">
<title>NAMON::setDevMac</title>
<polygon fill="#ffffff" stroke="transparent" points="-4,4 -4,-41 219.8174,-41 219.8174,4 -4,4"/>
<!-- Node6 -->
<g id="node1" class="node">
<title>Node6</title>
<polygon fill="#bfbfbf" stroke="#000000" points="0,-.5 0,-18.5 108.793,-18.5 108.793,-.5 0,-.5"/>
<text text-anchor="middle" x="54.3965" y="-6.5" font-family="Helvetica,sans-Serif" font-size="10.00" fill="#000000">NAMON::setDevMac</text>
</g>
<!-- Node6&#45;&gt;Node6 -->
<g id="edge2" class="edge">
<title>Node6&#45;&gt;Node6</title>
<path fill="none" stroke="#191970" d="M31.1965,-27.477C31.8822,-32.832 39.6155,-37 54.3965,-37 76.9199,-37 83.0787,-27.322 72.8727,-18.5134"/>
<polygon fill="#191970" stroke="#191970" points="34.3544,-28.9919 35.9202,-18.5134 28.1617,-25.7284 34.3544,-28.9919"/>
</g>
<!-- Node7 -->
<g id="node2" class="node">
<title>Node7</title>
<g id="a_node2"><a xlink:href="capturing_8hpp.xhtml#a796d8f82917739002736e8d61c6fb635" target="_top" xlink:title="Starts network traffic capture. ">
<polygon fill="#ffffff" stroke="#000000" points="144.793,-.5 144.793,-18.5 215.8174,-18.5 215.8174,-.5 144.793,-.5"/>
<text text-anchor="middle" x="180.3052" y="-6.5" font-family="Helvetica,sans-Serif" font-size="10.00" fill="#000000">startCapture</text>
</a>
</g>
</g>
<!-- Node6&#45;&gt;Node7 -->
<g id="edge1" class="edge">
<title>Node6&#45;&gt;Node7</title>
<path fill="none" stroke="#191970" d="M119.1556,-9.5C127.9171,-9.5 136.632,-9.5 144.6207,-9.5"/>
<polygon fill="#191970" stroke="#191970" points="118.8896,-6.0001 108.8896,-9.5 118.8895,-13.0001 118.8896,-6.0001"/>
</g>
</g>
</svg>
