<?xml version="1.0" encoding="UTF-8" standalone="no"?>
<!DOCTYPE svg PUBLIC "-//W3C//DTD SVG 1.1//EN"
 "http://www.w3.org/Graphics/SVG/1.1/DTD/svg11.dtd">
<!-- Generated by graphviz version 2.40.1 (20161225.0304)
 -->
<!-- Title: src/namon_linux.hpp Pages: 1 -->
<svg width="232pt" height="192pt"
 viewBox="0.00 0.00 232.28 192.00" xmlns="http://www.w3.org/2000/svg" xmlns:xlink="http://www.w3.org/1999/xlink">
<g id="graph0" class="graph" transform="scale(1 1) rotate(0) translate(4 188)">
<title>src/namon_linux.hpp</title>
<polygon fill="#ffffff" stroke="transparent" points="-4,4 -4,-188 228.2803,-188 228.2803,4 -4,4"/>
<!-- Node0 -->
<g id="node1" class="node">
<title>Node0</title>
<polygon fill="#bfbfbf" stroke="#000000" points="0,-165.5 0,-183.5 108.2754,-183.5 108.2754,-165.5 0,-165.5"/>
<text text-anchor="middle" x="54.1377" y="-171.5" font-family="Helvetica,sans-Serif" font-size="10.00" fill="#000000">src/namon_linux.hpp</text>
</g>
<!-- Node1 -->
<g id="node2" class="node">
<title>Node1</title>
<polygon fill="#ffffff" stroke="#bfbfbf" points="3.9111,-55.5 3.9111,-73.5 44.3643,-73.5 44.3643,-55.5 3.9111,-55.5"/>
<text text-anchor="middle" x="24.1377" y="-61.5" font-family="Helvetica,sans-Serif" font-size="10.00" fill="#000000">string</text>
</g>
<!-- Node0&#45;&gt;Node1 -->
<g id="edge1" class="edge">
<title>Node0&#45;&gt;Node1</title>
<path fill="none" stroke="#191970" d="M51.6827,-165.4982C46.8043,-147.6108 35.7994,-107.2594 29.2723,-83.3271"/>
<polygon fill="#191970" stroke="#191970" points="32.6346,-82.3528 26.6266,-73.6261 25.8812,-84.1947 32.6346,-82.3528"/>
</g>
<!-- Node2 -->
<g id="node3" class="node">
<title>Node2</title>
<g id="a_node3"><a xlink:href="netflow_8hpp.xhtml" target="_top" xlink:title="Netflow structure header file. ">
<polygon fill="#ffffff" stroke="#000000" points="51.8374,-110.5 51.8374,-128.5 118.438,-128.5 118.438,-110.5 51.8374,-110.5"/>
<text text-anchor="middle" x="85.1377" y="-116.5" font-family="Helvetica,sans-Serif" font-size="10.00" fill="#000000">netflow.hpp</text>
</a>
</g>
</g>
<!-- Node0&#45;&gt;Node2 -->
<g id="edge2" class="edge">
<title>Node0&#45;&gt;Node2</title>
<path fill="none" stroke="#191970" d="M59.2567,-165.4179C63.4942,-157.8998 69.6473,-146.9829 74.8909,-137.6799"/>
<polygon fill="#191970" stroke="#191970" points="78.0463,-139.2096 79.9075,-128.7795 71.9482,-135.7724 78.0463,-139.2096"/>
</g>
<!-- Node2&#45;&gt;Node1 -->
<g id="edge3" class="edge">
<title>Node2&#45;&gt;Node1</title>
<path fill="none" stroke="#191970" d="M75.0648,-110.4179C66.1122,-102.3458 52.8139,-90.3556 42.0514,-80.6517"/>
<polygon fill="#191970" stroke="#191970" points="44.2001,-77.8764 34.4295,-73.7795 39.5126,-83.0753 44.2001,-77.8764"/>
</g>
<!-- Node3 -->
<g id="node4" class="node">
<title>Node3</title>
<polygon fill="#ffffff" stroke="#bfbfbf" points="62.4111,-55.5 62.4111,-73.5 107.8643,-73.5 107.8643,-55.5 62.4111,-55.5"/>
<text text-anchor="middle" x="85.1377" y="-61.5" font-family="Helvetica,sans-Serif" font-size="10.00" fill="#000000">cstring</text>
</g>
<!-- Node2&#45;&gt;Node3 -->
<g id="edge4" class="edge">
<title>Node2&#45;&gt;Node3</title>
<path fill="none" stroke="#191970" d="M85.1377,-110.4179C85.1377,-103.2164 85.1377,-92.8962 85.1377,-83.8632"/>
<polygon fill="#191970" stroke="#191970" points="88.6378,-83.7794 85.1377,-73.7795 81.6378,-83.7795 88.6378,-83.7794"/>
</g>
<!-- Node4 -->
<g id="node5" class="node">
<title>Node4</title>
<g id="a_node5"><a xlink:href="tcpip__headers_8hpp.xhtml" target="_top" xlink:title="Protocol headers. ">
<polygon fill="#ffffff" stroke="#000000" points="125.9951,-55.5 125.9951,-73.5 224.2803,-73.5 224.2803,-55.5 125.9951,-55.5"/>
<text text-anchor="middle" x="175.1377" y="-61.5" font-family="Helvetica,sans-Serif" font-size="10.00" fill="#000000">tcpip_headers.hpp</text>
</a>
</g>
</g>
<!-- Node2&#45;&gt;Node4 -->
<g id="edge5" class="edge">
<title>Node2&#45;&gt;Node4</title>
<path fill="none" stroke="#191970" d="M99.9994,-110.4179C113.9391,-101.8992 135.0197,-89.0166 151.3078,-79.0627"/>
<polygon fill="#191970" stroke="#191970" points="153.5462,-81.7967 160.2539,-73.5956 149.896,-75.8237 153.5462,-81.7967"/>
</g>
<!-- Node5 -->
<g id="node6" class="node">
<title>Node5</title>
<polygon fill="#ffffff" stroke="#bfbfbf" points="151.0171,-.5 151.0171,-18.5 199.2583,-18.5 199.2583,-.5 151.0171,-.5"/>
<text text-anchor="middle" x="175.1377" y="-6.5" font-family="Helvetica,sans-Serif" font-size="10.00" fill="#000000">stdint.h</text>
</g>
<!-- Node4&#45;&gt;Node5 -->
<g id="edge6" class="edge">
<title>Node4&#45;&gt;Node5</title>
<path fill="none" stroke="#191970" d="M175.1377,-55.4179C175.1377,-48.2164 175.1377,-37.8962 175.1377,-28.8632"/>
<polygon fill="#191970" stroke="#191970" points="178.6378,-28.7794 175.1377,-18.7795 171.6378,-28.7795 178.6378,-28.7794"/>
</g>
</g>
</svg>
