<?xml version="1.0" encoding="UTF-8" standalone="no"?>
<!DOCTYPE svg PUBLIC "-//W3C//DTD SVG 1.1//EN"
 "http://www.w3.org/Graphics/SVG/1.1/DTD/svg11.dtd">
<!-- Generated by graphviz version 2.40.1 (20161225.0304)
 -->
<!-- Title: src/namon_win.cpp Pages: 1 -->
<svg width="1044pt" height="247pt"
 viewBox="0.00 0.00 1043.80 247.00" xmlns="http://www.w3.org/2000/svg" xmlns:xlink="http://www.w3.org/1999/xlink">
<g id="graph0" class="graph" transform="scale(1 1) rotate(0) translate(4 243)">
<title>src/namon_win.cpp</title>
<polygon fill="#ffffff" stroke="transparent" points="-4,4 -4,-243 1039.7979,-243 1039.7979,4 -4,4"/>
<!-- Node0 -->
<g id="node1" class="node">
<title>Node0</title>
<polygon fill="#bfbfbf" stroke="#000000" points="354.4902,-220.5 354.4902,-238.5 456.6426,-238.5 456.6426,-220.5 354.4902,-220.5"/>
<text text-anchor="middle" x="405.5664" y="-226.5" font-family="Helvetica,sans-Serif" font-size="10.00" fill="#000000">src/namon_win.cpp</text>
</g>
<!-- Node1 -->
<g id="node2" class="node">
<title>Node1</title>
<polygon fill="#ffffff" stroke="#bfbfbf" points="0,-165.5 0,-183.5 67.1328,-183.5 67.1328,-165.5 0,-165.5"/>
<text text-anchor="middle" x="33.5664" y="-171.5" font-family="Helvetica,sans-Serif" font-size="10.00" fill="#000000">WS2tcpip.h</text>
</g>
<!-- Node0&#45;&gt;Node1 -->
<g id="edge1" class="edge">
<title>Node0&#45;&gt;Node1</title>
<path fill="none" stroke="#191970" d="M354.4726,-223.8278C291.4651,-216.5285 180.9049,-202.7311 77.4312,-184.2285"/>
<polygon fill="#191970" stroke="#191970" points="77.9046,-180.7574 67.4415,-182.4233 76.6597,-187.6459 77.9046,-180.7574"/>
</g>
<!-- Node2 -->
<g id="node3" class="node">
<title>Node2</title>
<polygon fill="#ffffff" stroke="#bfbfbf" points="84.8818,-165.5 84.8818,-183.5 144.251,-183.5 144.251,-165.5 84.8818,-165.5"/>
<text text-anchor="middle" x="114.5664" y="-171.5" font-family="Helvetica,sans-Serif" font-size="10.00" fill="#000000">Iphlpapi.h</text>
</g>
<!-- Node0&#45;&gt;Node2 -->
<g id="edge2" class="edge">
<title>Node0&#45;&gt;Node2</title>
<path fill="none" stroke="#191970" d="M354.4877,-221.3471C305.4488,-213.2879 229.076,-200.1318 154.4338,-184.3051"/>
<polygon fill="#191970" stroke="#191970" points="154.904,-180.8265 144.3931,-182.1574 153.4398,-187.6717 154.904,-180.8265"/>
</g>
<!-- Node3 -->
<g id="node4" class="node">
<title>Node3</title>
<polygon fill="#ffffff" stroke="#bfbfbf" points="162.0591,-165.5 162.0591,-183.5 223.0737,-183.5 223.0737,-165.5 162.0591,-165.5"/>
<text text-anchor="middle" x="192.5664" y="-171.5" font-family="Helvetica,sans-Serif" font-size="10.00" fill="#000000">Winternl.h</text>
</g>
<!-- Node0&#45;&gt;Node3 -->
<g id="edge3" class="edge">
<title>Node0&#45;&gt;Node3</title>
<path fill="none" stroke="#191970" d="M370.3938,-220.4179C332.6756,-210.6784 272.8666,-195.2348 233.1737,-184.9855"/>
<polygon fill="#191970" stroke="#191970" points="233.8507,-181.5455 223.2932,-182.4342 232.1006,-188.3232 233.8507,-181.5455"/>
</g>
<!-- Node4 -->
<g id="node5" class="node">
<title>Node4</title>
<polygon fill="#ffffff" stroke="#bfbfbf" points="241.0566,-165.5 241.0566,-183.5 302.0762,-183.5 302.0762,-165.5 241.0566,-165.5"/>
<text text-anchor="middle" x="271.5664" y="-171.5" font-family="Helvetica,sans-Serif" font-size="10.00" fill="#000000">wbemidl.h</text>
</g>
<!-- Node0&#45;&gt;Node4 -->
<g id="edge4" class="edge">
<title>Node0&#45;&gt;Node4</title>
<path fill="none" stroke="#191970" d="M383.439,-220.4179C361.5205,-211.4215 327.7442,-197.5581 303.0373,-187.4172"/>
<polygon fill="#191970" stroke="#191970" points="304.3067,-184.1549 293.7267,-183.5956 301.6487,-190.6306 304.3067,-184.1549"/>
</g>
<!-- Node5 -->
<g id="node6" class="node">
<title>Node5</title>
<polygon fill="#ffffff" stroke="#bfbfbf" points="320,-165.5 320,-183.5 377.1328,-183.5 377.1328,-165.5 320,-165.5"/>
<text text-anchor="middle" x="348.5664" y="-171.5" font-family="Helvetica,sans-Serif" font-size="10.00" fill="#000000">comdef.h</text>
</g>
<!-- Node0&#45;&gt;Node5 -->
<g id="edge5" class="edge">
<title>Node0&#45;&gt;Node5</title>
<path fill="none" stroke="#191970" d="M396.154,-220.4179C387.8705,-212.425 375.6055,-200.5903 365.6019,-190.9377"/>
<polygon fill="#191970" stroke="#191970" points="367.8098,-188.2045 358.1833,-183.7795 362.9492,-193.2419 367.8098,-188.2045"/>
</g>
<!-- Node6 -->
<g id="node7" class="node">
<title>Node6</title>
<g id="a_node7"><a xlink:href="netflow_8hpp.xhtml" target="_top" xlink:title="Netflow structure header file. ">
<polygon fill="#ffffff" stroke="#000000" points="552.2661,-110.5 552.2661,-128.5 618.8667,-128.5 618.8667,-110.5 552.2661,-110.5"/>
<text text-anchor="middle" x="585.5664" y="-116.5" font-family="Helvetica,sans-Serif" font-size="10.00" fill="#000000">netflow.hpp</text>
</a>
</g>
</g>
<!-- Node0&#45;&gt;Node6 -->
<g id="edge6" class="edge">
<title>Node0&#45;&gt;Node6</title>
<path fill="none" stroke="#191970" d="M429.5912,-220.3707C450.1678,-212.1098 480.2404,-198.9694 504.5664,-184 527.8181,-169.6917 551.9899,-149.6591 567.8063,-135.7302"/>
<polygon fill="#191970" stroke="#191970" points="570.5529,-137.9696 575.6747,-128.695 565.8871,-132.7512 570.5529,-137.9696"/>
</g>
<!-- Node9 -->
<g id="node10" class="node">
<title>Node9</title>
<g id="a_node10"><a xlink:href="tcpip__headers_8hpp.xhtml" target="_top" xlink:title="Protocol headers. ">
<polygon fill="#ffffff" stroke="#000000" points="326.4238,-55.5 326.4238,-73.5 424.709,-73.5 424.709,-55.5 326.4238,-55.5"/>
<text text-anchor="middle" x="375.5664" y="-61.5" font-family="Helvetica,sans-Serif" font-size="10.00" fill="#000000">tcpip_headers.hpp</text>
</a>
</g>
</g>
<!-- Node0&#45;&gt;Node9 -->
<g id="edge11" class="edge">
<title>Node0&#45;&gt;Node9</title>
<path fill="none" stroke="#191970" d="M405.4409,-220.2593C404.7478,-206.3915 401.4043,-180.2063 386.5664,-165 350.0508,-127.5776 305.3662,-171.2516 274.5664,-129 269.5921,-122.1762 269.9828,-117.0922 274.5664,-110 284.8277,-94.1229 302.0997,-83.7303 319.4858,-76.9512"/>
<polygon fill="#191970" stroke="#191970" points="320.853,-80.1802 329.1127,-73.5449 318.518,-73.5811 320.853,-80.1802"/>
</g>
<!-- Node11 -->
<g id="node12" class="node">
<title>Node11</title>
<g id="a_node12"><a xlink:href="cache_8hpp.xhtml" target="_top" xlink:title="Cache implementation header file. ">
<polygon fill="#ffffff" stroke="#000000" points="433.4927,-165.5 433.4927,-183.5 495.6401,-183.5 495.6401,-165.5 433.4927,-165.5"/>
<text text-anchor="middle" x="464.5664" y="-171.5" font-family="Helvetica,sans-Serif" font-size="10.00" fill="#000000">cache.hpp</text>
</a>
</g>
</g>
<!-- Node0&#45;&gt;Node11 -->
<g id="edge12" class="edge">
<title>Node0&#45;&gt;Node11</title>
<path fill="none" stroke="#191970" d="M415.3091,-220.4179C423.9681,-212.3458 436.8304,-200.3556 447.2401,-190.6517"/>
<polygon fill="#191970" stroke="#191970" points="449.684,-193.1584 454.6121,-183.7795 444.9108,-188.0381 449.684,-193.1584"/>
</g>
<!-- Node15 -->
<g id="node16" class="node">
<title>Node15</title>
<g id="a_node16"><a xlink:href="debug_8hpp.xhtml" target="_top" xlink:title="Debugging functions. ">
<polygon fill="#ffffff" stroke="#000000" points="664.9312,-165.5 664.9312,-183.5 728.2017,-183.5 728.2017,-165.5 664.9312,-165.5"/>
<text text-anchor="middle" x="696.5664" y="-171.5" font-family="Helvetica,sans-Serif" font-size="10.00" fill="#000000">debug.hpp</text>
</a>
</g>
</g>
<!-- Node0&#45;&gt;Node15 -->
<g id="edge18" class="edge">
<title>Node0&#45;&gt;Node15</title>
<path fill="none" stroke="#191970" d="M453.5812,-220.4519C502.223,-211.2818 579.6293,-196.6778 646.5664,-184 649.2414,-183.4934 651.9968,-182.9711 654.7745,-182.4442"/>
<polygon fill="#191970" stroke="#191970" points="655.6551,-185.8396 664.827,-180.5362 654.3497,-178.9624 655.6551,-185.8396"/>
</g>
<!-- Node18 -->
<g id="node19" class="node">
<title>Node18</title>
<g id="a_node19"><a xlink:href="utils_8hpp.xhtml" target="_top" xlink:title="Small useful functions header file. ">
<polygon fill="#ffffff" stroke="#000000" points="848.9434,-165.5 848.9434,-183.5 902.1895,-183.5 902.1895,-165.5 848.9434,-165.5"/>
<text text-anchor="middle" x="875.5664" y="-171.5" font-family="Helvetica,sans-Serif" font-size="10.00" fill="#000000">utils.hpp</text>
</a>
</g>
</g>
<!-- Node0&#45;&gt;Node18 -->
<g id="edge21" class="edge">
<title>Node0&#45;&gt;Node18</title>
<path fill="none" stroke="#191970" d="M456.7593,-223.5093C552.2439,-212.3356 755.3645,-188.5662 838.7098,-178.813"/>
<polygon fill="#191970" stroke="#191970" points="839.2033,-182.2792 848.7287,-177.6406 838.3896,-175.3267 839.2033,-182.2792"/>
</g>
<!-- Node22 -->
<g id="node23" class="node">
<title>Node22</title>
<g id="a_node23"><a xlink:href="namon__win_8hpp.xhtml" target="_top" xlink:title="Determining applications and their sockets on Windows. ">
<polygon fill="#ffffff" stroke="#000000" points="551.2637,-165.5 551.2637,-183.5 637.8691,-183.5 637.8691,-165.5 551.2637,-165.5"/>
<text text-anchor="middle" x="594.5664" y="-171.5" font-family="Helvetica,sans-Serif" font-size="10.00" fill="#000000">namon_win.hpp</text>
</a>
</g>
</g>
<!-- Node0&#45;&gt;Node22 -->
<g id="edge26" class="edge">
<title>Node0&#45;&gt;Node22</title>
<path fill="none" stroke="#191970" d="M436.7759,-220.4179C468.7438,-211.115 518.5952,-196.608 553.6934,-186.3943"/>
<polygon fill="#191970" stroke="#191970" points="555.0009,-189.659 563.6247,-183.5042 553.045,-182.9378 555.0009,-189.659"/>
</g>
<!-- Node7 -->
<g id="node8" class="node">
<title>Node7</title>
<polygon fill="#ffffff" stroke="#bfbfbf" points="626.3398,-55.5 626.3398,-73.5 666.793,-73.5 666.793,-55.5 626.3398,-55.5"/>
<text text-anchor="middle" x="646.5664" y="-61.5" font-family="Helvetica,sans-Serif" font-size="10.00" fill="#000000">string</text>
</g>
<!-- Node6&#45;&gt;Node7 -->
<g id="edge7" class="edge">
<title>Node6&#45;&gt;Node7</title>
<path fill="none" stroke="#191970" d="M595.6393,-110.4179C604.5919,-102.3458 617.8902,-90.3556 628.6527,-80.6517"/>
<polygon fill="#191970" stroke="#191970" points="631.1915,-83.0753 636.2746,-73.7795 626.504,-77.8764 631.1915,-83.0753"/>
</g>
<!-- Node8 -->
<g id="node9" class="node">
<title>Node8</title>
<polygon fill="#ffffff" stroke="#bfbfbf" points="562.8398,-55.5 562.8398,-73.5 608.293,-73.5 608.293,-55.5 562.8398,-55.5"/>
<text text-anchor="middle" x="585.5664" y="-61.5" font-family="Helvetica,sans-Serif" font-size="10.00" fill="#000000">cstring</text>
</g>
<!-- Node6&#45;&gt;Node8 -->
<g id="edge8" class="edge">
<title>Node6&#45;&gt;Node8</title>
<path fill="none" stroke="#191970" d="M585.5664,-110.4179C585.5664,-103.2164 585.5664,-92.8962 585.5664,-83.8632"/>
<polygon fill="#191970" stroke="#191970" points="589.0665,-83.7794 585.5664,-73.7795 582.0665,-83.7795 589.0665,-83.7794"/>
</g>
<!-- Node6&#45;&gt;Node9 -->
<g id="edge9" class="edge">
<title>Node6&#45;&gt;Node9</title>
<path fill="none" stroke="#191970" d="M551.8263,-110.6633C516.0961,-101.3054 459.5216,-86.4883 420.1397,-76.174"/>
<polygon fill="#191970" stroke="#191970" points="420.8317,-72.7372 410.2712,-73.5894 419.0582,-79.5088 420.8317,-72.7372"/>
</g>
<!-- Node10 -->
<g id="node11" class="node">
<title>Node10</title>
<polygon fill="#ffffff" stroke="#bfbfbf" points="351.4458,-.5 351.4458,-18.5 399.687,-18.5 399.687,-.5 351.4458,-.5"/>
<text text-anchor="middle" x="375.5664" y="-6.5" font-family="Helvetica,sans-Serif" font-size="10.00" fill="#000000">stdint.h</text>
</g>
<!-- Node9&#45;&gt;Node10 -->
<g id="edge10" class="edge">
<title>Node9&#45;&gt;Node10</title>
<path fill="none" stroke="#191970" d="M375.5664,-55.4179C375.5664,-48.2164 375.5664,-37.8962 375.5664,-28.8632"/>
<polygon fill="#191970" stroke="#191970" points="379.0665,-28.7794 375.5664,-18.7795 372.0665,-28.7795 379.0665,-28.7794"/>
</g>
<!-- Node11&#45;&gt;Node6 -->
<g id="edge17" class="edge">
<title>Node11&#45;&gt;Node6</title>
<path fill="none" stroke="#191970" d="M484.5471,-165.4179C504.0765,-156.5409 534.0308,-142.9253 556.2559,-132.823"/>
<polygon fill="#191970" stroke="#191970" points="557.9007,-135.92 565.556,-128.5956 555.004,-129.5474 557.9007,-135.92"/>
</g>
<!-- Node11&#45;&gt;Node7 -->
<g id="edge13" class="edge">
<title>Node11&#45;&gt;Node7</title>
<path fill="none" stroke="#191970" d="M474.1377,-165.2282C488.3807,-151.7841 516.4013,-126.6675 543.5664,-110 566.8693,-95.7022 595.4508,-83.4471 616.5891,-75.2699"/>
<polygon fill="#191970" stroke="#191970" points="617.9081,-78.513 626.0216,-71.6997 615.4301,-71.9663 617.9081,-78.513"/>
</g>
<!-- Node12 -->
<g id="node13" class="node">
<title>Node12</title>
<polygon fill="#ffffff" stroke="#bfbfbf" points="283.9507,-110.5 283.9507,-128.5 327.1821,-128.5 327.1821,-110.5 283.9507,-110.5"/>
<text text-anchor="middle" x="305.5664" y="-116.5" font-family="Helvetica,sans-Serif" font-size="10.00" fill="#000000">vector</text>
</g>
<!-- Node11&#45;&gt;Node12 -->
<g id="edge14" class="edge">
<title>Node11&#45;&gt;Node12</title>
<path fill="none" stroke="#191970" d="M438.3108,-165.4179C410.5375,-155.8108 366.7192,-140.6535 337.0951,-130.4062"/>
<polygon fill="#191970" stroke="#191970" points="337.853,-126.9649 327.2582,-127.0035 335.5646,-133.5803 337.853,-126.9649"/>
</g>
<!-- Node13 -->
<g id="node14" class="node">
<title>Node13</title>
<polygon fill="#ffffff" stroke="#bfbfbf" points="345.2637,-110.5 345.2637,-128.5 431.8691,-128.5 431.8691,-110.5 345.2637,-110.5"/>
<text text-anchor="middle" x="388.5664" y="-116.5" font-family="Helvetica,sans-Serif" font-size="10.00" fill="#000000">unordered_map</text>
</g>
<!-- Node11&#45;&gt;Node13 -->
<g id="edge15" class="edge">
<title>Node11&#45;&gt;Node13</title>
<path fill="none" stroke="#191970" d="M452.0166,-165.4179C440.4653,-157.0584 423.1072,-144.4966 409.4649,-134.6239"/>
<polygon fill="#191970" stroke="#191970" points="411.288,-131.6229 401.1349,-128.5956 407.1841,-137.2938 411.288,-131.6229"/>
</g>
<!-- Node14 -->
<g id="node15" class="node">
<title>Node14</title>
<polygon fill="#ffffff" stroke="#bfbfbf" points="450.2783,-110.5 450.2783,-128.5 496.8545,-128.5 496.8545,-110.5 450.2783,-110.5"/>
<text text-anchor="middle" x="473.5664" y="-116.5" font-family="Helvetica,sans-Serif" font-size="10.00" fill="#000000">chrono</text>
</g>
<!-- Node11&#45;&gt;Node14 -->
<g id="edge16" class="edge">
<title>Node11&#45;&gt;Node14</title>
<path fill="none" stroke="#191970" d="M466.0526,-165.4179C467.231,-158.2164 468.9198,-147.8962 470.3979,-138.8632"/>
<polygon fill="#191970" stroke="#191970" points="473.887,-139.2134 472.0479,-128.7795 466.9789,-138.083 473.887,-139.2134"/>
</g>
<!-- Node16 -->
<g id="node17" class="node">
<title>Node16</title>
<polygon fill="#ffffff" stroke="#bfbfbf" points="736.394,-110.5 736.394,-128.5 790.7388,-128.5 790.7388,-110.5 736.394,-110.5"/>
<text text-anchor="middle" x="763.5664" y="-116.5" font-family="Helvetica,sans-Serif" font-size="10.00" fill="#000000">iostream</text>
</g>
<!-- Node15&#45;&gt;Node16 -->
<g id="edge19" class="edge">
<title>Node15&#45;&gt;Node16</title>
<path fill="none" stroke="#191970" d="M707.6301,-165.4179C717.5597,-157.2667 732.3564,-145.1201 744.2376,-135.3669"/>
<polygon fill="#191970" stroke="#191970" points="746.7538,-137.8297 752.2623,-128.7795 742.3123,-132.4192 746.7538,-137.8297"/>
</g>
<!-- Node17 -->
<g id="node18" class="node">
<title>Node17</title>
<polygon fill="#ffffff" stroke="#bfbfbf" points="674.9507,-110.5 674.9507,-128.5 718.1821,-128.5 718.1821,-110.5 674.9507,-110.5"/>
<text text-anchor="middle" x="696.5664" y="-116.5" font-family="Helvetica,sans-Serif" font-size="10.00" fill="#000000">mutex</text>
</g>
<!-- Node15&#45;&gt;Node17 -->
<g id="edge20" class="edge">
<title>Node15&#45;&gt;Node17</title>
<path fill="none" stroke="#191970" d="M696.5664,-165.4179C696.5664,-158.2164 696.5664,-147.8962 696.5664,-138.8632"/>
<polygon fill="#191970" stroke="#191970" points="700.0665,-138.7794 696.5664,-128.7795 693.0665,-138.7795 700.0665,-138.7794"/>
</g>
<!-- Node18&#45;&gt;Node7 -->
<g id="edge23" class="edge">
<title>Node18&#45;&gt;Node7</title>
<path fill="none" stroke="#191970" d="M867.129,-165.2076C853.9904,-151.2725 827.2613,-125.0004 799.5664,-110 759.9407,-88.5376 708.9205,-75.9824 676.9712,-69.6785"/>
<polygon fill="#191970" stroke="#191970" points="677.3875,-66.1953 666.9114,-67.7765 676.087,-73.0734 677.3875,-66.1953"/>
</g>
<!-- Node19 -->
<g id="node20" class="node">
<title>Node19</title>
<polygon fill="#ffffff" stroke="#bfbfbf" points="846.1626,-110.5 846.1626,-128.5 904.9702,-128.5 904.9702,-110.5 846.1626,-110.5"/>
<text text-anchor="middle" x="875.5664" y="-116.5" font-family="Helvetica,sans-Serif" font-size="10.00" fill="#000000">exception</text>
</g>
<!-- Node18&#45;&gt;Node19 -->
<g id="edge22" class="edge">
<title>Node18&#45;&gt;Node19</title>
<path fill="none" stroke="#191970" d="M875.5664,-165.4179C875.5664,-158.2164 875.5664,-147.8962 875.5664,-138.8632"/>
<polygon fill="#191970" stroke="#191970" points="879.0665,-138.7794 875.5664,-128.7795 872.0665,-138.7795 879.0665,-138.7794"/>
</g>
<!-- Node20 -->
<g id="node21" class="node">
<title>Node20</title>
<polygon fill="#ffffff" stroke="#bfbfbf" points="923.394,-110.5 923.394,-128.5 967.7388,-128.5 967.7388,-110.5 923.394,-110.5"/>
<text text-anchor="middle" x="945.5664" y="-116.5" font-family="Helvetica,sans-Serif" font-size="10.00" fill="#000000">cerrno</text>
</g>
<!-- Node18&#45;&gt;Node20 -->
<g id="edge24" class="edge">
<title>Node18&#45;&gt;Node20</title>
<path fill="none" stroke="#191970" d="M887.1255,-165.4179C897.6004,-157.1876 913.2596,-144.8839 925.7328,-135.0836"/>
<polygon fill="#191970" stroke="#191970" points="928.0554,-137.7098 933.7562,-128.7795 923.7306,-132.2056 928.0554,-137.7098"/>
</g>
<!-- Node21 -->
<g id="node22" class="node">
<title>Node21</title>
<g id="a_node22"><a xlink:href="utils_8tpp.xhtml" target="_top" xlink:title="Small useful templated functions. ">
<polygon fill="#ffffff" stroke="#000000" points="985.335,-110.5 985.335,-128.5 1035.7979,-128.5 1035.7979,-110.5 985.335,-110.5"/>
<text text-anchor="middle" x="1010.5664" y="-116.5" font-family="Helvetica,sans-Serif" font-size="10.00" fill="#000000">utils.tpp</text>
</a>
</g>
</g>
<!-- Node18&#45;&gt;Node21 -->
<g id="edge25" class="edge">
<title>Node18&#45;&gt;Node21</title>
<path fill="none" stroke="#191970" d="M897.8589,-165.4179C919.941,-156.4215 953.9694,-142.5581 978.8606,-132.4172"/>
<polygon fill="#191970" stroke="#191970" points="980.3004,-135.61 988.2408,-128.5956 977.6593,-129.1273 980.3004,-135.61"/>
</g>
<!-- Node22&#45;&gt;Node6 -->
<g id="edge28" class="edge">
<title>Node22&#45;&gt;Node6</title>
<path fill="none" stroke="#191970" d="M593.0802,-165.4179C591.9018,-158.2164 590.2131,-147.8962 588.7349,-138.8632"/>
<polygon fill="#191970" stroke="#191970" points="592.1539,-138.083 587.0849,-128.7795 585.2458,-139.2134 592.1539,-138.083"/>
</g>
<!-- Node22&#45;&gt;Node7 -->
<g id="edge27" class="edge">
<title>Node22&#45;&gt;Node7</title>
<path fill="none" stroke="#191970" d="M602.6639,-165.3492C610.0647,-156.5683 620.8495,-142.6608 627.5664,-129 634.7293,-114.4321 639.7168,-96.6584 642.7786,-83.4606"/>
<polygon fill="#191970" stroke="#191970" points="646.2136,-84.1349 644.9032,-73.6214 639.3713,-82.6574 646.2136,-84.1349"/>
</g>
</g>
</svg>
