<?xml version="1.0" encoding="UTF-8" standalone="no"?>
<!DOCTYPE svg PUBLIC "-//W3C//DTD SVG 1.1//EN"
 "http://www.w3.org/Graphics/SVG/1.1/DTD/svg11.dtd">
<!-- Generated by graphviz version 2.40.1 (20161225.0304)
 -->
<!-- Title: src/namon.hpp Pages: 1 -->
<svg width="238pt" height="192pt"
 viewBox="0.00 0.00 237.87 192.00" xmlns="http://www.w3.org/2000/svg" xmlns:xlink="http://www.w3.org/1999/xlink">
<g id="graph0" class="graph" transform="scale(1 1) rotate(0) translate(4 188)">
<title>src/namon.hpp</title>
<polygon fill="#ffffff" stroke="transparent" points="-4,4 -4,-188 233.8667,-188 233.8667,4 -4,4"/>
<!-- Node10 -->
<g id="node1" class="node">
<title>Node10</title>
<polygon fill="#bfbfbf" stroke="#000000" points="95,-165.5 95,-183.5 177.1475,-183.5 177.1475,-165.5 95,-165.5"/>
<text text-anchor="middle" x="136.0737" y="-171.5" font-family="Helvetica,sans-Serif" font-size="10.00" fill="#000000">src/namon.hpp</text>
</g>
<!-- Node11 -->
<g id="node2" class="node">
<title>Node11</title>
<g id="a_node2"><a xlink:href="ring_buffer_8hpp.xhtml" target="_top" xlink:title="Ring Buffer header file. ">
<polygon fill="#ffffff" stroke="#000000" points="35.9722,-110.5 35.9722,-128.5 130.1753,-128.5 130.1753,-110.5 35.9722,-110.5"/>
<text text-anchor="middle" x="83.0737" y="-116.5" font-family="Helvetica,sans-Serif" font-size="10.00" fill="#000000">src/ringBuffer.hpp</text>
</a>
</g>
</g>
<!-- Node10&#45;&gt;Node11 -->
<g id="edge1" class="edge">
<title>Node10&#45;&gt;Node11</title>
<path fill="none" stroke="#191970" d="M120.1862,-158.0129C110.9696,-148.4485 99.7014,-136.7552 92.0158,-128.7795"/>
<polygon fill="#191970" stroke="#191970" points="117.8626,-160.6457 127.3219,-165.4179 122.9032,-155.7884 117.8626,-160.6457"/>
</g>
<!-- Node15 -->
<g id="node6" class="node">
<title>Node15</title>
<g id="a_node6"><a xlink:href="namon_8cpp.xhtml" target="_top" xlink:title="Network Traffic Capturing With Application Tags. ">
<polygon fill="#ffffff" stroke="#000000" points="148.2808,-110.5 148.2808,-128.5 229.8667,-128.5 229.8667,-110.5 148.2808,-110.5"/>
<text text-anchor="middle" x="189.0737" y="-116.5" font-family="Helvetica,sans-Serif" font-size="10.00" fill="#000000">src/namon.cpp</text>
</a>
</g>
</g>
<!-- Node10&#45;&gt;Node15 -->
<g id="edge6" class="edge">
<title>Node10&#45;&gt;Node15</title>
<path fill="none" stroke="#191970" d="M151.9613,-158.0129C161.1779,-148.4485 172.446,-136.7552 180.1317,-128.7795"/>
<polygon fill="#191970" stroke="#191970" points="149.2443,-155.7884 144.8256,-165.4179 154.2848,-160.6457 149.2443,-155.7884"/>
</g>
<!-- Node12 -->
<g id="node3" class="node">
<title>Node12</title>
<g id="a_node3"><a xlink:href="capturing_8cpp.xhtml" target="_top" xlink:title="Network traffic capture sources. ">
<polygon fill="#ffffff" stroke="#000000" points="0,-.5 0,-18.5 92.1475,-18.5 92.1475,-.5 0,-.5"/>
<text text-anchor="middle" x="46.0737" y="-6.5" font-family="Helvetica,sans-Serif" font-size="10.00" fill="#000000">src/capturing.cpp</text>
</a>
</g>
</g>
<!-- Node11&#45;&gt;Node12 -->
<g id="edge2" class="edge">
<title>Node11&#45;&gt;Node12</title>
<path fill="none" stroke="#191970" d="M75.2541,-100.8461C71.9416,-92.6705 68.1461,-82.9233 65.0737,-74 58.3851,-54.5736 51.9129,-31.3722 48.5209,-18.7684"/>
<polygon fill="#191970" stroke="#191970" points="72.0548,-102.2687 79.1009,-110.181 78.5268,-99.6017 72.0548,-102.2687"/>
</g>
<!-- Node13 -->
<g id="node4" class="node">
<title>Node13</title>
<g id="a_node4"><a xlink:href="capturing_8hpp.xhtml" target="_top" xlink:title="Network traffic capture header file. ">
<polygon fill="#ffffff" stroke="#000000" points="73.7192,-55.5 73.7192,-73.5 166.4282,-73.5 166.4282,-55.5 73.7192,-55.5"/>
<text text-anchor="middle" x="120.0737" y="-61.5" font-family="Helvetica,sans-Serif" font-size="10.00" fill="#000000">src/capturing.hpp</text>
</a>
</g>
</g>
<!-- Node11&#45;&gt;Node13 -->
<g id="edge3" class="edge">
<title>Node11&#45;&gt;Node13</title>
<path fill="none" stroke="#191970" d="M94.9438,-101.8553C101.2246,-92.519 108.6803,-81.4361 113.8312,-73.7795"/>
<polygon fill="#191970" stroke="#191970" points="91.8613,-100.167 89.1835,-110.4179 97.6694,-104.0743 91.8613,-100.167"/>
</g>
<!-- Node13&#45;&gt;Node12 -->
<g id="edge4" class="edge">
<title>Node13&#45;&gt;Node12</title>
<path fill="none" stroke="#191970" d="M99.7466,-49.392C86.4672,-39.5222 69.5649,-26.9596 58.3115,-18.5956"/>
<polygon fill="#191970" stroke="#191970" points="97.7403,-52.2617 107.8541,-55.4179 101.916,-46.6435 97.7403,-52.2617"/>
</g>
<!-- Node14 -->
<g id="node5" class="node">
<title>Node14</title>
<g id="a_node5"><a xlink:href="main_8cpp.xhtml" target="_top" xlink:title="Main source file. ">
<polygon fill="#ffffff" stroke="#000000" points="109.7314,-.5 109.7314,-18.5 182.416,-18.5 182.416,-.5 109.7314,-.5"/>
<text text-anchor="middle" x="146.0737" y="-6.5" font-family="Helvetica,sans-Serif" font-size="10.00" fill="#000000">src/main.cpp</text>
</a>
</g>
</g>
<!-- Node13&#45;&gt;Node14 -->
<g id="edge5" class="edge">
<title>Node13&#45;&gt;Node14</title>
<path fill="none" stroke="#191970" d="M128.6918,-46.2696C133.046,-37.0587 138.143,-26.2766 141.6871,-18.7795"/>
<polygon fill="#191970" stroke="#191970" points="125.4767,-44.8813 124.3671,-55.4179 131.8052,-47.873 125.4767,-44.8813"/>
</g>
</g>
</svg>
