<?xml version="1.0" encoding="UTF-8" standalone="no"?>
<!DOCTYPE svg PUBLIC "-//W3C//DTD SVG 1.1//EN"
 "http://www.w3.org/Graphics/SVG/1.1/DTD/svg11.dtd">
<!-- Generated by graphviz version 2.40.1 (20161225.0304)
 -->
<!-- Title: src/namon.cpp Pages: 1 -->
<svg width="494pt" height="302pt"
 viewBox="0.00 0.00 494.01 302.00" xmlns="http://www.w3.org/2000/svg" xmlns:xlink="http://www.w3.org/1999/xlink">
<g id="graph0" class="graph" transform="scale(1 1) rotate(0) translate(4 298)">
<title>src/namon.cpp</title>
<polygon fill="#ffffff" stroke="transparent" points="-4,4 -4,-298 490.0146,-298 490.0146,4 -4,4"/>
<!-- Node0 -->
<g id="node1" class="node">
<title>Node0</title>
<polygon fill="#bfbfbf" stroke="#000000" points="52.9336,-275.5 52.9336,-293.5 134.5195,-293.5 134.5195,-275.5 52.9336,-275.5"/>
<text text-anchor="middle" x="93.7266" y="-281.5" font-family="Helvetica,sans-Serif" font-size="10.00" fill="#000000">src/namon.cpp</text>
</g>
<!-- Node1 -->
<g id="node2" class="node">
<title>Node1</title>
<polygon fill="#ffffff" stroke="#bfbfbf" points="0,-220.5 0,-238.5 35.4531,-238.5 35.4531,-220.5 0,-220.5"/>
<text text-anchor="middle" x="17.7266" y="-226.5" font-family="Helvetica,sans-Serif" font-size="10.00" fill="#000000">map</text>
</g>
<!-- Node0&#45;&gt;Node1 -->
<g id="edge1" class="edge">
<title>Node0&#45;&gt;Node1</title>
<path fill="none" stroke="#191970" d="M81.1767,-275.4179C69.6254,-267.0584 52.2674,-254.4966 38.6251,-244.6239"/>
<polygon fill="#191970" stroke="#191970" points="40.4482,-241.6229 30.2951,-238.5956 36.3443,-247.2938 40.4482,-241.6229"/>
</g>
<!-- Node2 -->
<g id="node3" class="node">
<title>Node2</title>
<g id="a_node3"><a xlink:href="netflow_8hpp.xhtml" target="_top" xlink:title="Netflow structure header file. ">
<polygon fill="#ffffff" stroke="#000000" points="144.4263,-110.5 144.4263,-128.5 211.0269,-128.5 211.0269,-110.5 144.4263,-110.5"/>
<text text-anchor="middle" x="177.7266" y="-116.5" font-family="Helvetica,sans-Serif" font-size="10.00" fill="#000000">netflow.hpp</text>
</a>
</g>
</g>
<!-- Node0&#45;&gt;Node2 -->
<g id="edge2" class="edge">
<title>Node0&#45;&gt;Node2</title>
<path fill="none" stroke="#191970" d="M89.3311,-275.2292C79.9181,-253.8939 60.4089,-200.4343 82.7266,-165 94.232,-146.7325 115.3287,-135.6371 134.7238,-128.9837"/>
<polygon fill="#191970" stroke="#191970" points="135.8506,-132.2986 144.3541,-125.9787 133.7655,-125.6164 135.8506,-132.2986"/>
</g>
<!-- Node7 -->
<g id="node8" class="node">
<title>Node7</title>
<g id="a_node8"><a xlink:href="debug_8hpp.xhtml" target="_top" xlink:title="Debugging functions. ">
<polygon fill="#ffffff" stroke="#000000" points="92.0913,-220.5 92.0913,-238.5 155.3618,-238.5 155.3618,-220.5 92.0913,-220.5"/>
<text text-anchor="middle" x="123.7266" y="-226.5" font-family="Helvetica,sans-Serif" font-size="10.00" fill="#000000">debug.hpp</text>
</a>
</g>
</g>
<!-- Node0&#45;&gt;Node7 -->
<g id="edge7" class="edge">
<title>Node0&#45;&gt;Node7</title>
<path fill="none" stroke="#191970" d="M98.6805,-275.4179C102.7812,-267.8998 108.7359,-256.9829 113.8103,-247.6799"/>
<polygon fill="#191970" stroke="#191970" points="116.9491,-249.2344 118.665,-238.7795 110.8038,-245.8824 116.9491,-249.2344"/>
</g>
<!-- Node10 -->
<g id="node11" class="node">
<title>Node10</title>
<g id="a_node11"><a xlink:href="namon_8hpp.xhtml" target="_top" xlink:title="Determining applications header file. ">
<polygon fill="#ffffff" stroke="#000000" points="202.707,-220.5 202.707,-238.5 268.7461,-238.5 268.7461,-220.5 202.707,-220.5"/>
<text text-anchor="middle" x="235.7266" y="-226.5" font-family="Helvetica,sans-Serif" font-size="10.00" fill="#000000">namon.hpp</text>
</a>
</g>
</g>
<!-- Node0&#45;&gt;Node10 -->
<g id="edge10" class="edge">
<title>Node0&#45;&gt;Node10</title>
<path fill="none" stroke="#191970" d="M117.175,-275.4179C140.5048,-266.3817 176.5118,-252.4353 202.7238,-242.2828"/>
<polygon fill="#191970" stroke="#191970" points="204.1825,-245.4712 212.2433,-238.5956 201.6542,-238.9437 204.1825,-245.4712"/>
</g>
<!-- Node3 -->
<g id="node4" class="node">
<title>Node3</title>
<polygon fill="#ffffff" stroke="#bfbfbf" points="231.5,-55.5 231.5,-73.5 271.9531,-73.5 271.9531,-55.5 231.5,-55.5"/>
<text text-anchor="middle" x="251.7266" y="-61.5" font-family="Helvetica,sans-Serif" font-size="10.00" fill="#000000">string</text>
</g>
<!-- Node2&#45;&gt;Node3 -->
<g id="edge3" class="edge">
<title>Node2&#45;&gt;Node3</title>
<path fill="none" stroke="#191970" d="M189.9462,-110.4179C201.1935,-102.0584 218.0947,-89.4966 231.378,-79.6239"/>
<polygon fill="#191970" stroke="#191970" points="233.5507,-82.37 239.4888,-73.5956 229.375,-76.7518 233.5507,-82.37"/>
</g>
<!-- Node4 -->
<g id="node5" class="node">
<title>Node4</title>
<polygon fill="#ffffff" stroke="#bfbfbf" points="52,-55.5 52,-73.5 97.4531,-73.5 97.4531,-55.5 52,-55.5"/>
<text text-anchor="middle" x="74.7266" y="-61.5" font-family="Helvetica,sans-Serif" font-size="10.00" fill="#000000">cstring</text>
</g>
<!-- Node2&#45;&gt;Node4 -->
<g id="edge4" class="edge">
<title>Node2&#45;&gt;Node4</title>
<path fill="none" stroke="#191970" d="M160.7182,-110.4179C144.3922,-101.7001 119.5076,-88.4122 100.7011,-78.3699"/>
<polygon fill="#191970" stroke="#191970" points="102.23,-75.2186 91.7602,-73.5956 98.9327,-81.3934 102.23,-75.2186"/>
</g>
<!-- Node5 -->
<g id="node6" class="node">
<title>Node5</title>
<g id="a_node6"><a xlink:href="tcpip__headers_8hpp.xhtml" target="_top" xlink:title="Protocol headers. ">
<polygon fill="#ffffff" stroke="#000000" points="115.584,-55.5 115.584,-73.5 213.8691,-73.5 213.8691,-55.5 115.584,-55.5"/>
<text text-anchor="middle" x="164.7266" y="-61.5" font-family="Helvetica,sans-Serif" font-size="10.00" fill="#000000">tcpip_headers.hpp</text>
</a>
</g>
</g>
<!-- Node2&#45;&gt;Node5 -->
<g id="edge5" class="edge">
<title>Node2&#45;&gt;Node5</title>
<path fill="none" stroke="#191970" d="M175.5799,-110.4179C173.859,-103.1372 171.3847,-92.669 169.233,-83.5659"/>
<polygon fill="#191970" stroke="#191970" points="172.6264,-82.7062 166.9199,-73.7795 165.8141,-84.3164 172.6264,-82.7062"/>
</g>
<!-- Node6 -->
<g id="node7" class="node">
<title>Node6</title>
<polygon fill="#ffffff" stroke="#bfbfbf" points="140.606,-.5 140.606,-18.5 188.8472,-18.5 188.8472,-.5 140.606,-.5"/>
<text text-anchor="middle" x="164.7266" y="-6.5" font-family="Helvetica,sans-Serif" font-size="10.00" fill="#000000">stdint.h</text>
</g>
<!-- Node5&#45;&gt;Node6 -->
<g id="edge6" class="edge">
<title>Node5&#45;&gt;Node6</title>
<path fill="none" stroke="#191970" d="M164.7266,-55.4179C164.7266,-48.2164 164.7266,-37.8962 164.7266,-28.8632"/>
<polygon fill="#191970" stroke="#191970" points="168.2267,-28.7794 164.7266,-18.7795 161.2267,-28.7795 168.2267,-28.7794"/>
</g>
<!-- Node8 -->
<g id="node9" class="node">
<title>Node8</title>
<polygon fill="#ffffff" stroke="#bfbfbf" points="91.5542,-165.5 91.5542,-183.5 145.8989,-183.5 145.8989,-165.5 91.5542,-165.5"/>
<text text-anchor="middle" x="118.7266" y="-171.5" font-family="Helvetica,sans-Serif" font-size="10.00" fill="#000000">iostream</text>
</g>
<!-- Node7&#45;&gt;Node8 -->
<g id="edge8" class="edge">
<title>Node7&#45;&gt;Node8</title>
<path fill="none" stroke="#191970" d="M122.9009,-220.4179C122.2462,-213.2164 121.308,-202.8962 120.4869,-193.8632"/>
<polygon fill="#191970" stroke="#191970" points="123.9612,-193.4215 119.5701,-183.7795 116.99,-194.0553 123.9612,-193.4215"/>
</g>
<!-- Node9 -->
<g id="node10" class="node">
<title>Node9</title>
<polygon fill="#ffffff" stroke="#bfbfbf" points="164.1108,-165.5 164.1108,-183.5 207.3423,-183.5 207.3423,-165.5 164.1108,-165.5"/>
<text text-anchor="middle" x="185.7266" y="-171.5" font-family="Helvetica,sans-Serif" font-size="10.00" fill="#000000">mutex</text>
</g>
<!-- Node7&#45;&gt;Node9 -->
<g id="edge9" class="edge">
<title>Node7&#45;&gt;Node9</title>
<path fill="none" stroke="#191970" d="M133.9646,-220.4179C143.064,-212.3458 156.5802,-200.3556 167.5192,-190.6517"/>
<polygon fill="#191970" stroke="#191970" points="170.108,-193.0339 175.2661,-183.7795 165.4627,-187.7974 170.108,-193.0339"/>
</g>
<!-- Node10&#45;&gt;Node2 -->
<g id="edge11" class="edge">
<title>Node10&#45;&gt;Node2</title>
<path fill="none" stroke="#191970" d="M234.2718,-220.2708C231.9556,-207.3102 226.6439,-183.2597 216.7266,-165 210.9914,-154.4403 202.4926,-144.1473 194.8914,-136.0298"/>
<polygon fill="#191970" stroke="#191970" points="197.2212,-133.4064 187.725,-128.7082 192.2187,-138.3029 197.2212,-133.4064"/>
</g>
<!-- Node11 -->
<g id="node12" class="node">
<title>Node11</title>
<g id="a_node12"><a xlink:href="cache_8hpp.xhtml" target="_top" xlink:title="Cache implementation header file. ">
<polygon fill="#ffffff" stroke="#000000" points="263.6528,-165.5 263.6528,-183.5 325.8003,-183.5 325.8003,-165.5 263.6528,-165.5"/>
<text text-anchor="middle" x="294.7266" y="-171.5" font-family="Helvetica,sans-Serif" font-size="10.00" fill="#000000">cache.hpp</text>
</a>
</g>
</g>
<!-- Node10&#45;&gt;Node11 -->
<g id="edge12" class="edge">
<title>Node10&#45;&gt;Node11</title>
<path fill="none" stroke="#191970" d="M245.4692,-220.4179C254.1283,-212.3458 266.9905,-200.3556 277.4002,-190.6517"/>
<polygon fill="#191970" stroke="#191970" points="279.8441,-193.1584 284.7722,-183.7795 275.071,-188.0381 279.8441,-193.1584"/>
</g>
<!-- Node11&#45;&gt;Node2 -->
<g id="edge17" class="edge">
<title>Node11&#45;&gt;Node2</title>
<path fill="none" stroke="#191970" d="M275.4064,-165.4179C256.6073,-156.5807 227.818,-143.0473 206.3577,-132.9591"/>
<polygon fill="#191970" stroke="#191970" points="207.6144,-129.6824 197.0754,-128.5956 204.6364,-136.0174 207.6144,-129.6824"/>
</g>
<!-- Node11&#45;&gt;Node3 -->
<g id="edge13" class="edge">
<title>Node11&#45;&gt;Node3</title>
<path fill="none" stroke="#191970" d="M286.8329,-165.4064C279.6779,-156.666 269.4096,-142.7858 263.7266,-129 257.7502,-114.5026 254.7313,-96.9441 253.2173,-83.8097"/>
<polygon fill="#191970" stroke="#191970" points="256.6764,-83.2146 252.2378,-73.5943 249.7084,-83.8828 256.6764,-83.2146"/>
</g>
<!-- Node12 -->
<g id="node13" class="node">
<title>Node12</title>
<polygon fill="#ffffff" stroke="#bfbfbf" points="273.1108,-110.5 273.1108,-128.5 316.3423,-128.5 316.3423,-110.5 273.1108,-110.5"/>
<text text-anchor="middle" x="294.7266" y="-116.5" font-family="Helvetica,sans-Serif" font-size="10.00" fill="#000000">vector</text>
</g>
<!-- Node11&#45;&gt;Node12 -->
<g id="edge14" class="edge">
<title>Node11&#45;&gt;Node12</title>
<path fill="none" stroke="#191970" d="M294.7266,-165.4179C294.7266,-158.2164 294.7266,-147.8962 294.7266,-138.8632"/>
<polygon fill="#191970" stroke="#191970" points="298.2267,-138.7794 294.7266,-128.7795 291.2267,-138.7795 298.2267,-138.7794"/>
</g>
<!-- Node13 -->
<g id="node14" class="node">
<title>Node13</title>
<polygon fill="#ffffff" stroke="#bfbfbf" points="334.4238,-110.5 334.4238,-128.5 421.0293,-128.5 421.0293,-110.5 334.4238,-110.5"/>
<text text-anchor="middle" x="377.7266" y="-116.5" font-family="Helvetica,sans-Serif" font-size="10.00" fill="#000000">unordered_map</text>
</g>
<!-- Node11&#45;&gt;Node13 -->
<g id="edge15" class="edge">
<title>Node11&#45;&gt;Node13</title>
<path fill="none" stroke="#191970" d="M308.4323,-165.4179C321.1677,-156.9788 340.366,-144.257 355.3278,-134.3426"/>
<polygon fill="#191970" stroke="#191970" points="357.5978,-137.037 364.0004,-128.5956 353.7312,-131.2019 357.5978,-137.037"/>
</g>
<!-- Node14 -->
<g id="node15" class="node">
<title>Node14</title>
<polygon fill="#ffffff" stroke="#bfbfbf" points="439.4385,-110.5 439.4385,-128.5 486.0146,-128.5 486.0146,-110.5 439.4385,-110.5"/>
<text text-anchor="middle" x="462.7266" y="-116.5" font-family="Helvetica,sans-Serif" font-size="10.00" fill="#000000">chrono</text>
</g>
<!-- Node11&#45;&gt;Node14 -->
<g id="edge16" class="edge">
<title>Node11&#45;&gt;Node14</title>
<path fill="none" stroke="#191970" d="M322.4683,-165.4179C351.9018,-155.7819 398.3904,-140.5624 429.6947,-130.314"/>
<polygon fill="#191970" stroke="#191970" points="430.8693,-133.6123 439.284,-127.1746 428.6914,-126.9597 430.8693,-133.6123"/>
</g>
</g>
</svg>
