<?xml version="1.0" encoding="UTF-8" standalone="no"?>
<!DOCTYPE svg PUBLIC "-//W3C//DTD SVG 1.1//EN"
 "http://www.w3.org/Graphics/SVG/1.1/DTD/svg11.dtd">
<!-- Generated by graphviz version 2.40.1 (20161225.0304)
 -->
<!-- Title: src/netflow.hpp Pages: 1 -->
<svg width="1217pt" height="302pt"
 viewBox="0.00 0.00 1217.07 302.00" xmlns="http://www.w3.org/2000/svg" xmlns:xlink="http://www.w3.org/1999/xlink">
<g id="graph0" class="graph" transform="scale(1 1) rotate(0) translate(4 298)">
<title>src/netflow.hpp</title>
<polygon fill="#ffffff" stroke="transparent" points="-4,4 -4,-298 1213.0737,-298 1213.0737,4 -4,4"/>
<!-- Node5 -->
<g id="node1" class="node">
<title>Node5</title>
<polygon fill="#bfbfbf" stroke="#000000" points="502.6455,-275.5 502.6455,-293.5 585.3545,-293.5 585.3545,-275.5 502.6455,-275.5"/>
<text text-anchor="middle" x="544" y="-281.5" font-family="Helvetica,sans-Serif" font-size="10.00" fill="#000000">src/netflow.hpp</text>
</g>
<!-- Node6 -->
<g id="node2" class="node">
<title>Node6</title>
<g id="a_node2"><a xlink:href="cache_8cpp.xhtml" target="_top" xlink:title="Cache implementation sources. ">
<polygon fill="#ffffff" stroke="#000000" points="104.1528,-165.5 104.1528,-183.5 181.8472,-183.5 181.8472,-165.5 104.1528,-165.5"/>
<text text-anchor="middle" x="143" y="-171.5" font-family="Helvetica,sans-Serif" font-size="10.00" fill="#000000">src/cache.cpp</text>
</a>
</g>
</g>
<!-- Node5&#45;&gt;Node6 -->
<g id="edge1" class="edge">
<title>Node5&#45;&gt;Node6</title>
<path fill="none" stroke="#191970" d="M493.4175,-273.1782C455.2356,-264.4252 401.6338,-251.6955 355,-239 288.5546,-220.9111 211.3807,-196.5839 170.967,-183.5861"/>
<polygon fill="#191970" stroke="#191970" points="492.74,-276.6135 503.2681,-275.4266 494.2977,-269.789 492.74,-276.6135"/>
</g>
<!-- Node7 -->
<g id="node3" class="node">
<title>Node7</title>
<g id="a_node3"><a xlink:href="cache_8hpp.xhtml" target="_top" xlink:title="Cache implementation header file. ">
<polygon fill="#ffffff" stroke="#000000" points="418.8721,-220.5 418.8721,-238.5 497.1279,-238.5 497.1279,-220.5 418.8721,-220.5"/>
<text text-anchor="middle" x="458" y="-226.5" font-family="Helvetica,sans-Serif" font-size="10.00" fill="#000000">src/cache.hpp</text>
</a>
</g>
</g>
<!-- Node5&#45;&gt;Node7 -->
<g id="edge2" class="edge">
<title>Node5&#45;&gt;Node7</title>
<path fill="none" stroke="#191970" d="M521.2538,-269.953C505.6945,-260.0023 485.5496,-247.1189 472.2222,-238.5956"/>
<polygon fill="#191970" stroke="#191970" points="519.4886,-272.9786 529.7988,-275.4179 523.2601,-267.0815 519.4886,-272.9786"/>
</g>
<!-- Node10 -->
<g id="node6" class="node">
<title>Node10</title>
<g id="a_node6"><a xlink:href="capturing_8cpp.xhtml" target="_top" xlink:title="Network traffic capture sources. ">
<polygon fill="#ffffff" stroke="#000000" points="170.9263,-.5 170.9263,-18.5 263.0737,-18.5 263.0737,-.5 170.9263,-.5"/>
<text text-anchor="middle" x="217" y="-6.5" font-family="Helvetica,sans-Serif" font-size="10.00" fill="#000000">src/capturing.cpp</text>
</a>
</g>
</g>
<!-- Node5&#45;&gt;Node10 -->
<g id="edge21" class="edge">
<title>Node5&#45;&gt;Node10</title>
<path fill="none" stroke="#191970" d="M492.4575,-281.7177C393.9173,-275.9622 182.4231,-261.3855 113,-239 57.9627,-221.2532 0,-232.3278 0,-174.5 0,-174.5 0,-174.5 0,-119.5 0,-43.5781 106.9837,-20.0417 170.7142,-12.7565"/>
<polygon fill="#191970" stroke="#191970" points="492.2987,-285.2143 502.4836,-282.2956 492.7016,-278.2259 492.2987,-285.2143"/>
</g>
<!-- Node11 -->
<g id="node7" class="node">
<title>Node11</title>
<g id="a_node7"><a xlink:href="capturing_8hpp.xhtml" target="_top" xlink:title="Network traffic capture header file. ">
<polygon fill="#ffffff" stroke="#000000" points="245.6455,-55.5 245.6455,-73.5 338.3545,-73.5 338.3545,-55.5 245.6455,-55.5"/>
<text text-anchor="middle" x="292" y="-61.5" font-family="Helvetica,sans-Serif" font-size="10.00" fill="#000000">src/capturing.hpp</text>
</a>
</g>
</g>
<!-- Node5&#45;&gt;Node11 -->
<g id="edge22" class="edge">
<title>Node5&#45;&gt;Node11</title>
<path fill="none" stroke="#191970" d="M492.5241,-282.4243C399.7339,-278.0544 208.4474,-265.9955 148,-239 114.3664,-223.9794 108.3143,-213.3072 86,-184 64.7916,-156.1453 36.7428,-137.024 59,-110 82.1564,-81.8842 184.4066,-70.9028 245.4947,-66.7983"/>
<polygon fill="#191970" stroke="#191970" points="492.3822,-285.9214 502.5322,-282.8837 492.7032,-278.9287 492.3822,-285.9214"/>
</g>
<!-- Node14 -->
<g id="node10" class="node">
<title>Node14</title>
<g id="a_node10"><a xlink:href="namon_8hpp.xhtml" target="_top" xlink:title="Determining applications header file. ">
<polygon fill="#ffffff" stroke="#000000" points="199.9263,-165.5 199.9263,-183.5 282.0737,-183.5 282.0737,-165.5 199.9263,-165.5"/>
<text text-anchor="middle" x="241" y="-171.5" font-family="Helvetica,sans-Serif" font-size="10.00" fill="#000000">src/namon.hpp</text>
</a>
</g>
</g>
<!-- Node5&#45;&gt;Node14 -->
<g id="edge20" class="edge">
<title>Node5&#45;&gt;Node14</title>
<path fill="none" stroke="#191970" d="M506.6395,-272.2287C479.6884,-263.2755 442.4837,-250.7092 410,-239 357.4121,-220.044 296.2496,-196.2655 263.8607,-183.5353"/>
<polygon fill="#191970" stroke="#191970" points="505.8422,-275.6515 516.4356,-275.4738 508.0435,-269.0066 505.8422,-275.6515"/>
</g>
<!-- Node15 -->
<g id="node11" class="node">
<title>Node15</title>
<g id="a_node11"><a xlink:href="namon_8cpp.xhtml" target="_top" xlink:title="Network Traffic Capturing With Application Tags. ">
<polygon fill="#ffffff" stroke="#000000" points="68.207,-110.5 68.207,-128.5 149.793,-128.5 149.793,-110.5 68.207,-110.5"/>
<text text-anchor="middle" x="109" y="-116.5" font-family="Helvetica,sans-Serif" font-size="10.00" fill="#000000">src/namon.cpp</text>
</a>
</g>
</g>
<!-- Node5&#45;&gt;Node15 -->
<g id="edge23" class="edge">
<title>Node5&#45;&gt;Node15</title>
<path fill="none" stroke="#191970" d="M492.4148,-281.0693C384.8381,-272.7006 142.5688,-247.1086 95,-184 82.585,-167.5293 94.55,-142.3327 102.7484,-128.8239"/>
<polygon fill="#191970" stroke="#191970" points="492.1578,-284.5597 502.3939,-281.8261 492.6872,-277.5798 492.1578,-284.5597"/>
</g>
<!-- Node16 -->
<g id="node12" class="node">
<title>Node16</title>
<g id="a_node12"><a xlink:href="namon__apple_8cpp.xhtml" target="_top" xlink:title="Determining the applications and their sockets on macOS. ">
<polygon fill="#ffffff" stroke="#000000" points="512.1924,-165.5 512.1924,-183.5 623.8076,-183.5 623.8076,-165.5 512.1924,-165.5"/>
<text text-anchor="middle" x="568" y="-171.5" font-family="Helvetica,sans-Serif" font-size="10.00" fill="#000000">src/namon_apple.cpp</text>
</a>
</g>
</g>
<!-- Node5&#45;&gt;Node16 -->
<g id="edge24" class="edge">
<title>Node5&#45;&gt;Node16</title>
<path fill="none" stroke="#191970" d="M543.9062,-265.0938C544.2319,-252.157 545.4183,-234.8634 549,-220 552.1686,-206.851 558.6634,-192.6009 563.1717,-183.6176"/>
<polygon fill="#191970" stroke="#191970" points="540.4057,-265.135 543.803,-275.1704 547.4053,-265.2068 540.4057,-265.135"/>
</g>
<!-- Node17 -->
<g id="node13" class="node">
<title>Node17</title>
<g id="a_node13"><a xlink:href="namon__linux_8cpp.xhtml" target="_top" xlink:title="Determining applications and their sockets in Linux. ">
<polygon fill="#ffffff" stroke="#000000" points="642.1431,-165.5 642.1431,-183.5 749.8569,-183.5 749.8569,-165.5 642.1431,-165.5"/>
<text text-anchor="middle" x="696" y="-171.5" font-family="Helvetica,sans-Serif" font-size="10.00" fill="#000000">src/namon_linux.cpp</text>
</a>
</g>
</g>
<!-- Node5&#45;&gt;Node17 -->
<g id="edge27" class="edge">
<title>Node5&#45;&gt;Node17</title>
<path fill="none" stroke="#191970" d="M550.9838,-265.9841C557.1998,-251.7165 567.5537,-232.3937 582,-220 603.1063,-201.8925 632.3183,-190.4225 655.8872,-183.5283"/>
<polygon fill="#191970" stroke="#191970" points="547.7169,-264.7266 547.1896,-275.3083 554.2006,-267.365 547.7169,-264.7266"/>
</g>
<!-- Node18 -->
<g id="node14" class="node">
<title>Node18</title>
<g id="a_node14"><a xlink:href="namon__win_8cpp.xhtml" target="_top" xlink:title="Determining the applications and their sockets on Windows. ">
<polygon fill="#ffffff" stroke="#000000" points="767.9238,-165.5 767.9238,-183.5 870.0762,-183.5 870.0762,-165.5 767.9238,-165.5"/>
<text text-anchor="middle" x="819" y="-171.5" font-family="Helvetica,sans-Serif" font-size="10.00" fill="#000000">src/namon_win.cpp</text>
</a>
</g>
</g>
<!-- Node5&#45;&gt;Node18 -->
<g id="edge30" class="edge">
<title>Node5&#45;&gt;Node18</title>
<path fill="none" stroke="#191970" d="M595.2837,-273.8383C628.2047,-266.1324 671.4747,-254.3787 708,-239 727.5145,-230.7836 779.2057,-199.2341 804.5618,-183.5125"/>
<polygon fill="#191970" stroke="#191970" points="594.3834,-270.4538 585.418,-276.0993 595.9472,-277.2769 594.3834,-270.4538"/>
</g>
<!-- Node19 -->
<g id="node15" class="node">
<title>Node19</title>
<g id="a_node15"><a xlink:href="namon__apple_8hpp.xhtml" target="_top" xlink:title="Determining applications and their sockets on macOS. ">
<polygon fill="#ffffff" stroke="#000000" points="874.9116,-220.5 874.9116,-238.5 987.0884,-238.5 987.0884,-220.5 874.9116,-220.5"/>
<text text-anchor="middle" x="931" y="-226.5" font-family="Helvetica,sans-Serif" font-size="10.00" fill="#000000">src/namon_apple.hpp</text>
</a>
</g>
</g>
<!-- Node5&#45;&gt;Node19 -->
<g id="edge25" class="edge">
<title>Node5&#45;&gt;Node19</title>
<path fill="none" stroke="#191970" d="M595.6026,-277.2853C659.2038,-268.3753 770.5813,-252.7144 866,-239 868.8222,-238.5944 871.713,-238.1774 874.6322,-237.7551"/>
<polygon fill="#191970" stroke="#191970" points="594.8537,-273.8559 585.4358,-278.7091 595.8246,-280.7883 594.8537,-273.8559"/>
</g>
<!-- Node20 -->
<g id="node16" class="node">
<title>Node20</title>
<g id="a_node16"><a xlink:href="namon__bsd_8hpp.xhtml" target="_top" xlink:title="Determining applications and their sockets on FreeBSD. ">
<polygon fill="#ffffff" stroke="#000000" points="1005.084,-220.5 1005.084,-238.5 1108.916,-238.5 1108.916,-220.5 1005.084,-220.5"/>
<text text-anchor="middle" x="1057" y="-226.5" font-family="Helvetica,sans-Serif" font-size="10.00" fill="#000000">src/namon_bsd.hpp</text>
</a>
</g>
</g>
<!-- Node5&#45;&gt;Node20 -->
<g id="edge26" class="edge">
<title>Node5&#45;&gt;Node20</title>
<path fill="none" stroke="#191970" d="M595.577,-280.2238C679.6139,-273.0509 851.25,-257.5432 996,-239 998.8704,-238.6323 1001.8138,-238.2365 1004.783,-237.8226"/>
<polygon fill="#191970" stroke="#191970" points="595.1951,-276.7436 585.5272,-281.0775 595.7876,-283.7185 595.1951,-276.7436"/>
</g>
<!-- Node21 -->
<g id="node17" class="node">
<title>Node21</title>
<g id="a_node17"><a xlink:href="namon__linux_8hpp.xhtml" target="_top" xlink:title="Determining applications and their sockets on Linux. ">
<polygon fill="#ffffff" stroke="#000000" points="590.8623,-220.5 590.8623,-238.5 699.1377,-238.5 699.1377,-220.5 590.8623,-220.5"/>
<text text-anchor="middle" x="645" y="-226.5" font-family="Helvetica,sans-Serif" font-size="10.00" fill="#000000">src/namon_linux.hpp</text>
</a>
</g>
</g>
<!-- Node5&#45;&gt;Node21 -->
<g id="edge28" class="edge">
<title>Node5&#45;&gt;Node21</title>
<path fill="none" stroke="#191970" d="M569.6946,-270.5079C588.0995,-260.4854 612.3526,-247.2783 628.2971,-238.5956"/>
<polygon fill="#191970" stroke="#191970" points="567.7865,-267.5616 560.6781,-275.4179 571.1343,-273.7092 567.7865,-267.5616"/>
</g>
<!-- Node22 -->
<g id="node18" class="node">
<title>Node22</title>
<g id="a_node18"><a xlink:href="namon__win_8hpp.xhtml" target="_top" xlink:title="Determining applications and their sockets on Windows. ">
<polygon fill="#ffffff" stroke="#000000" points="754.6431,-220.5 754.6431,-238.5 857.3569,-238.5 857.3569,-220.5 754.6431,-220.5"/>
<text text-anchor="middle" x="806" y="-226.5" font-family="Helvetica,sans-Serif" font-size="10.00" fill="#000000">src/namon_win.hpp</text>
</a>
</g>
</g>
<!-- Node5&#45;&gt;Node22 -->
<g id="edge31" class="edge">
<title>Node5&#45;&gt;Node22</title>
<path fill="none" stroke="#191970" d="M595.5694,-273.6744C644.4602,-263.411 717.064,-248.1698 762.9378,-238.5398"/>
<polygon fill="#191970" stroke="#191970" points="594.5823,-270.3052 585.5147,-275.7851 596.0205,-277.1559 594.5823,-270.3052"/>
</g>
<!-- Node23 -->
<g id="node19" class="node">
<title>Node23</title>
<g id="a_node19"><a xlink:href="netflow_8cpp.xhtml" target="_top" xlink:title="Netflow structure source file. ">
<polygon fill="#ffffff" stroke="#000000" points="1126.9263,-220.5 1126.9263,-238.5 1209.0737,-238.5 1209.0737,-220.5 1126.9263,-220.5"/>
<text text-anchor="middle" x="1168" y="-226.5" font-family="Helvetica,sans-Serif" font-size="10.00" fill="#000000">src/netflow.cpp</text>
</a>
</g>
</g>
<!-- Node5&#45;&gt;Node23 -->
<g id="edge33" class="edge">
<title>Node5&#45;&gt;Node23</title>
<path fill="none" stroke="#191970" d="M595.8003,-282.2828C696.6747,-277.548 926.38,-264.7211 1118,-239 1120.8899,-238.6121 1123.8656,-238.1663 1126.857,-237.6841"/>
<polygon fill="#191970" stroke="#191970" points="595.4097,-278.797 585.5821,-282.7553 595.7331,-285.7896 595.4097,-278.797"/>
</g>
<!-- Node7&#45;&gt;Node6 -->
<g id="edge3" class="edge">
<title>Node7&#45;&gt;Node6</title>
<path fill="none" stroke="#191970" d="M408.6561,-221.4947C355.0178,-212.6987 266.8116,-197.9592 191,-184 188.0759,-183.4616 185.0542,-182.8928 182.0161,-182.3121"/>
<polygon fill="#191970" stroke="#191970" points="408.1495,-224.9583 418.5836,-223.1196 409.2802,-218.0502 408.1495,-224.9583"/>
</g>
<!-- Node8 -->
<g id="node4" class="node">
<title>Node8</title>
<g id="a_node4"><a xlink:href="pcapng__blocks_8hpp.xhtml" target="_top" xlink:title="Pcap&#45;ng block structures. ">
<polygon fill="#ffffff" stroke="#000000" points="299.8574,-165.5 299.8574,-183.5 418.1426,-183.5 418.1426,-165.5 299.8574,-165.5"/>
<text text-anchor="middle" x="359" y="-171.5" font-family="Helvetica,sans-Serif" font-size="10.00" fill="#000000">src/pcapng_blocks.hpp</text>
</a>
</g>
</g>
<!-- Node7&#45;&gt;Node8 -->
<g id="edge4" class="edge">
<title>Node7&#45;&gt;Node8</title>
<path fill="none" stroke="#191970" d="M432.8142,-215.5079C414.7738,-205.4854 391.0009,-192.2783 375.3721,-183.5956"/>
<polygon fill="#191970" stroke="#191970" points="431.2108,-218.6209 441.6522,-220.4179 434.6103,-212.5018 431.2108,-218.6209"/>
</g>
<!-- Node7&#45;&gt;Node10 -->
<g id="edge15" class="edge">
<title>Node7&#45;&gt;Node10</title>
<path fill="none" stroke="#191970" d="M463.7007,-210.3393C465.8168,-202.2847 467.9554,-192.7658 469,-184 473.0453,-150.0526 470.5026,-135.7376 448,-110 399.7818,-54.85 315.7695,-28.8444 263.4455,-17.4551"/>
<polygon fill="#191970" stroke="#191970" points="460.2637,-209.6335 460.9338,-220.2071 467.0038,-211.5234 460.2637,-209.6335"/>
</g>
<!-- Node7&#45;&gt;Node11 -->
<g id="edge16" class="edge">
<title>Node7&#45;&gt;Node11</title>
<path fill="none" stroke="#191970" d="M458.3499,-210.2413C457.766,-184.1734 452.8282,-137.7376 427,-110 413.8955,-95.9267 366.9011,-82.1625 332.0228,-73.5244"/>
<polygon fill="#191970" stroke="#191970" points="454.8501,-210.3586 458.3766,-220.3493 461.85,-210.34 454.8501,-210.3586"/>
</g>
<!-- Node7&#45;&gt;Node14 -->
<g id="edge12" class="edge">
<title>Node7&#45;&gt;Node14</title>
<path fill="none" stroke="#191970" d="M412.2851,-217.9133C371.8179,-207.6566 313.5855,-192.8973 276.5257,-183.5042"/>
<polygon fill="#191970" stroke="#191970" points="411.6134,-221.3536 422.1669,-220.4179 413.3333,-214.5682 411.6134,-221.3536"/>
</g>
<!-- Node7&#45;&gt;Node16 -->
<g id="edge17" class="edge">
<title>Node7&#45;&gt;Node16</title>
<path fill="none" stroke="#191970" d="M485.1603,-215.9198C505.3004,-205.8498 532.2045,-192.3977 549.8088,-183.5956"/>
<polygon fill="#191970" stroke="#191970" points="483.5433,-212.8152 476.1643,-220.4179 486.6738,-219.0762 483.5433,-212.8152"/>
</g>
<!-- Node7&#45;&gt;Node17 -->
<g id="edge18" class="edge">
<title>Node7&#45;&gt;Node17</title>
<path fill="none" stroke="#191970" d="M507.0201,-218.1718C551.4101,-207.9136 615.9506,-192.9988 656.9443,-183.5255"/>
<polygon fill="#191970" stroke="#191970" points="505.9895,-214.8177 497.0344,-220.4795 507.5657,-221.6379 505.9895,-214.8177"/>
</g>
<!-- Node7&#45;&gt;Node18 -->
<g id="edge19" class="edge">
<title>Node7&#45;&gt;Node18</title>
<path fill="none" stroke="#191970" d="M507.3567,-222.1474C566.9956,-213.2381 670.376,-197.7142 759,-184 761.814,-183.5645 764.7019,-183.1153 767.6167,-182.6599"/>
<polygon fill="#191970" stroke="#191970" points="506.8301,-218.6871 497.4567,-223.6256 507.8639,-225.6104 506.8301,-218.6871"/>
</g>
<!-- Node9 -->
<g id="node5" class="node">
<title>Node9</title>
<g id="a_node5"><a xlink:href="ring_buffer_8hpp.xhtml" target="_top" xlink:title="Ring Buffer header file. ">
<polygon fill="#ffffff" stroke="#000000" points="169.8984,-110.5 169.8984,-128.5 264.1016,-128.5 264.1016,-110.5 169.8984,-110.5"/>
<text text-anchor="middle" x="217" y="-116.5" font-family="Helvetica,sans-Serif" font-size="10.00" fill="#000000">src/ringBuffer.hpp</text>
</a>
</g>
</g>
<!-- Node8&#45;&gt;Node9 -->
<g id="edge5" class="edge">
<title>Node8&#45;&gt;Node9</title>
<path fill="none" stroke="#191970" d="M326.0363,-161.7324C299.8342,-151.5837 263.8257,-137.6367 240.4832,-128.5956"/>
<polygon fill="#191970" stroke="#191970" points="324.9625,-165.0698 335.5516,-165.4179 327.4908,-158.5423 324.9625,-165.0698"/>
</g>
<!-- Node8&#45;&gt;Node11 -->
<g id="edge10" class="edge">
<title>Node8&#45;&gt;Node11</title>
<path fill="none" stroke="#191970" d="M338.2539,-159.0739C328.7451,-151.0474 318.0476,-140.5131 311,-129 300.1514,-111.2777 295.2034,-87.0173 293.1954,-73.8789"/>
<polygon fill="#191970" stroke="#191970" points="336.1945,-161.9091 346.1825,-165.4436 340.5786,-156.452 336.1945,-161.9091"/>
</g>
<!-- Node13 -->
<g id="node9" class="node">
<title>Node13</title>
<g id="a_node9"><a xlink:href="file_handler_8cpp.xhtml" target="_top" xlink:title="File handler source file. ">
<polygon fill="#ffffff" stroke="#000000" points="319.8672,-110.5 319.8672,-128.5 418.1328,-128.5 418.1328,-110.5 319.8672,-110.5"/>
<text text-anchor="middle" x="369" y="-116.5" font-family="Helvetica,sans-Serif" font-size="10.00" fill="#000000">src/fileHandler.cpp</text>
</a>
</g>
</g>
<!-- Node8&#45;&gt;Node13 -->
<g id="edge11" class="edge">
<title>Node8&#45;&gt;Node13</title>
<path fill="none" stroke="#191970" d="M362.4758,-155.383C364.1138,-146.3738 365.9932,-136.0373 367.3128,-128.7795"/>
<polygon fill="#191970" stroke="#191970" points="358.9967,-154.953 360.6513,-165.4179 365.8838,-156.2053 358.9967,-154.953"/>
</g>
<!-- Node9&#45;&gt;Node10 -->
<g id="edge6" class="edge">
<title>Node9&#45;&gt;Node10</title>
<path fill="none" stroke="#191970" d="M217,-100.1899C217,-76.2569 217,-36.4552 217,-18.6261"/>
<polygon fill="#191970" stroke="#191970" points="213.5001,-100.4982 217,-110.4982 220.5001,-100.4983 213.5001,-100.4982"/>
</g>
<!-- Node9&#45;&gt;Node11 -->
<g id="edge7" class="edge">
<title>Node9&#45;&gt;Node11</title>
<path fill="none" stroke="#191970" d="M237.6018,-104.392C251.0606,-94.5222 268.1914,-81.9596 279.5969,-73.5956"/>
<polygon fill="#191970" stroke="#191970" points="235.379,-101.6818 229.3847,-110.4179 239.5186,-107.3266 235.379,-101.6818"/>
</g>
<!-- Node11&#45;&gt;Node10 -->
<g id="edge8" class="edge">
<title>Node11&#45;&gt;Node10</title>
<path fill="none" stroke="#191970" d="M271.3982,-49.392C257.9394,-39.5222 240.8086,-26.9596 229.4031,-18.5956"/>
<polygon fill="#191970" stroke="#191970" points="269.4814,-52.3266 279.6153,-55.4179 273.621,-46.6818 269.4814,-52.3266"/>
</g>
<!-- Node12 -->
<g id="node8" class="node">
<title>Node12</title>
<g id="a_node8"><a xlink:href="main_8cpp.xhtml" target="_top" xlink:title="Main source file. ">
<polygon fill="#ffffff" stroke="#000000" points="280.6577,-.5 280.6577,-18.5 353.3423,-18.5 353.3423,-.5 280.6577,-.5"/>
<text text-anchor="middle" x="317" y="-6.5" font-family="Helvetica,sans-Serif" font-size="10.00" fill="#000000">src/main.cpp</text>
</a>
</g>
</g>
<!-- Node11&#45;&gt;Node12 -->
<g id="edge9" class="edge">
<title>Node11&#45;&gt;Node12</title>
<path fill="none" stroke="#191970" d="M300.2866,-46.2696C304.4733,-37.0587 309.3743,-26.2766 312.7821,-18.7795"/>
<polygon fill="#191970" stroke="#191970" points="297.08,-44.8659 296.1282,-55.4179 303.4526,-47.7625 297.08,-44.8659"/>
</g>
<!-- Node14&#45;&gt;Node9 -->
<g id="edge13" class="edge">
<title>Node14&#45;&gt;Node9</title>
<path fill="none" stroke="#191970" d="M232.9164,-155.9751C228.9257,-146.8297 224.2859,-136.1969 221.0492,-128.7795"/>
<polygon fill="#191970" stroke="#191970" points="229.8295,-157.6523 237.0369,-165.4179 236.2453,-154.8526 229.8295,-157.6523"/>
</g>
<!-- Node14&#45;&gt;Node15 -->
<g id="edge14" class="edge">
<title>Node14&#45;&gt;Node15</title>
<path fill="none" stroke="#191970" d="M209.7118,-161.4633C185.4119,-151.3383 152.3369,-137.5571 130.8295,-128.5956"/>
<polygon fill="#191970" stroke="#191970" points="208.6259,-164.8024 219.2029,-165.4179 211.3183,-158.3409 208.6259,-164.8024"/>
</g>
<!-- Node21&#45;&gt;Node17 -->
<g id="edge29" class="edge">
<title>Node21&#45;&gt;Node17</title>
<path fill="none" stroke="#191970" d="M660.288,-213.0129C669.1568,-203.4485 679.9998,-191.7552 687.3954,-183.7795"/>
<polygon fill="#191970" stroke="#191970" points="657.6546,-210.7054 653.4216,-220.4179 662.7875,-215.465 657.6546,-210.7054"/>
</g>
<!-- Node22&#45;&gt;Node18 -->
<g id="edge32" class="edge">
<title>Node22&#45;&gt;Node18</title>
<path fill="none" stroke="#191970" d="M810.4485,-210.6796C812.5942,-201.6014 815.0723,-191.1171 816.8067,-183.7795"/>
<polygon fill="#191970" stroke="#191970" points="807.0409,-209.8809 808.1467,-220.4179 813.8532,-211.4911 807.0409,-209.8809"/>
</g>
</g>
</svg>
