<?xml version="1.0" encoding="UTF-8" standalone="no"?>
<!DOCTYPE svg PUBLIC "-//W3C//DTD SVG 1.1//EN"
 "http://www.w3.org/Graphics/SVG/1.1/DTD/svg11.dtd">
<!-- Generated by graphviz version 2.40.1 (20161225.0304)
 -->
<!-- Title: src/netflow.hpp Pages: 1 -->
<!--zoomable 302 -->
<svg id="main" version="1.1" xmlns="http://www.w3.org/2000/svg" xmlns:xlink="http://www.w3.org/1999/xlink" xml:space="preserve" onload="init(evt)">
<style type="text/css"><![CDATA[
.edge:hover path { stroke: red; }
.edge:hover polygon { stroke: red; fill: red; }
]]></style>
<script type="text/javascript"><![CDATA[
var edges = document.getElementsByTagName('g');
if (edges && edges.length) {
  for (var i=0;i<edges.length;i++) {
    if (edges[i].id.substr(0,4)=='edge') {
      edges[i].setAttribute('class','edge');
    }
  }
}
]]></script>
        <defs>
                <circle id="rim" cx="0" cy="0" r="7"/>
                <circle id="rim2" cx="0" cy="0" r="3.5"/>
                <g id="zoomPlus">
                        <use xlink:href="#rim" fill="#404040">
                                <set attributeName="fill" to="#808080" begin="zoomplus.mouseover" end="zoomplus.mouseout"/>
                        </use>
                        <path d="M-4,0h8M0,-4v8" fill="none" stroke="white" stroke-width="1.5" pointer-events="none"/>
                </g>
                <g id="zoomMin">
                        <use xlink:href="#rim" fill="#404040">
                                <set attributeName="fill" to="#808080" begin="zoomminus.mouseover" end="zoomminus.mouseout"/>
                        </use>
                        <path d="M-4,0h8" fill="none" stroke="white" stroke-width="1.5" pointer-events="none"/>
                </g>
                <g id="dirArrow">
                        <path fill="none" stroke="white" stroke-width="1.5" d="M0,-3.0v7 M-2.5,-0.5L0,-3.0L2.5,-0.5"/>
                </g>
               <g id="resetDef">
                       <use xlink:href="#rim2" fill="#404040">
                               <set attributeName="fill" to="#808080" begin="reset.mouseover" end="reset.mouseout"/>
                       </use>
               </g>
        </defs>

<script type="text/javascript">
var viewWidth = 1139;
var viewHeight = 302;
var sectionId = 'dynsection-1';
</script>
<script xlink:href="svgpan.js"/>
<svg id="graph" class="graph">
<g id="viewport">
<title>src/netflow.hpp</title>
<polygon fill="#ffffff" stroke="transparent" points="-4,4 -4,-298 1134.6895,-298 1134.6895,4 -4,4"/>
<!-- Node5 -->
<g id="node1" class="node">
<title>Node5</title>
<polygon fill="#bfbfbf" stroke="#000000" points="480.6455,-275.5 480.6455,-293.5 563.3545,-293.5 563.3545,-275.5 480.6455,-275.5"/>
<text text-anchor="middle" x="522" y="-281.5" font-family="Helvetica,sans-Serif" font-size="10.00" fill="#000000">src/netflow.hpp</text>
</g>
<!-- Node6 -->
<g id="node2" class="node">
<title>Node6</title>
<g id="a_node2"><a xlink:href="cache_8cpp.xhtml" target="_top" xlink:title="Cache implementation sources. ">
<polygon fill="#ffffff" stroke="#000000" points="104.1528,-165.5 104.1528,-183.5 181.8472,-183.5 181.8472,-165.5 104.1528,-165.5"/>
<text text-anchor="middle" x="143" y="-171.5" font-family="Helvetica,sans-Serif" font-size="10.00" fill="#000000">src/cache.cpp</text>
</a>
</g>
</g>
<!-- Node5&#45;&gt;Node6 -->
<g id="edge1" class="edge">
<title>Node5&#45;&gt;Node6</title>
<path fill="none" stroke="#191970" d="M471.4908,-273.1162C434.3647,-264.4808 382.7943,-251.9259 338,-239 276.5029,-221.2543 205.3757,-196.6833 168.3577,-183.5829"/>
<polygon fill="#191970" stroke="#191970" points="471.0301,-276.6019 481.5616,-275.4449 472.6072,-269.7819 471.0301,-276.6019"/>
</g>
<!-- Node7 -->
<g id="node3" class="node">
<title>Node7</title>
<g id="a_node3"><a xlink:href="cache_8hpp.xhtml" target="_top" xlink:title="Cache implementation header file. ">
<polygon fill="#ffffff" stroke="#000000" points="396.8721,-220.5 396.8721,-238.5 475.1279,-238.5 475.1279,-220.5 396.8721,-220.5"/>
<text text-anchor="middle" x="436" y="-226.5" font-family="Helvetica,sans-Serif" font-size="10.00" fill="#000000">src/cache.hpp</text>
</a>
</g>
</g>
<!-- Node5&#45;&gt;Node7 -->
<g id="edge2" class="edge">
<title>Node5&#45;&gt;Node7</title>
<path fill="none" stroke="#191970" d="M499.2538,-269.953C483.6945,-260.0023 463.5496,-247.1189 450.2222,-238.5956"/>
<polygon fill="#191970" stroke="#191970" points="497.4886,-272.9786 507.7988,-275.4179 501.2601,-267.0815 497.4886,-272.9786"/>
</g>
<!-- Node10 -->
<g id="node6" class="node">
<title>Node10</title>
<g id="a_node6"><a xlink:href="capturing_8cpp.xhtml" target="_top" xlink:title="Network traffic capture sources. ">
<polygon fill="#ffffff" stroke="#000000" points="156.9263,-.5 156.9263,-18.5 249.0737,-18.5 249.0737,-.5 156.9263,-.5"/>
<text text-anchor="middle" x="203" y="-6.5" font-family="Helvetica,sans-Serif" font-size="10.00" fill="#000000">src/capturing.cpp</text>
</a>
</g>
</g>
<!-- Node5&#45;&gt;Node10 -->
<g id="edge21" class="edge">
<title>Node5&#45;&gt;Node10</title>
<path fill="none" stroke="#191970" d="M470.1746,-281.322C375.6583,-275.097 179.0332,-260.0453 114,-239 58.6137,-221.0765 0,-232.7142 0,-174.5 0,-174.5 0,-174.5 0,-119.5 0,-48.6504 96.7687,-23.1979 156.6821,-14.229"/>
<polygon fill="#191970" stroke="#191970" points="470.1552,-284.8281 480.3613,-281.9847 470.6097,-277.8428 470.1552,-284.8281"/>
</g>
<!-- Node11 -->
<g id="node7" class="node">
<title>Node11</title>
<g id="a_node7"><a xlink:href="capturing_8hpp.xhtml" target="_top" xlink:title="Network traffic capture header file. ">
<polygon fill="#ffffff" stroke="#000000" points="231.6455,-55.5 231.6455,-73.5 324.3545,-73.5 324.3545,-55.5 231.6455,-55.5"/>
<text text-anchor="middle" x="278" y="-61.5" font-family="Helvetica,sans-Serif" font-size="10.00" fill="#000000">src/capturing.hpp</text>
</a>
</g>
</g>
<!-- Node5&#45;&gt;Node11 -->
<g id="edge22" class="edge">
<title>Node5&#45;&gt;Node11</title>
<path fill="none" stroke="#191970" d="M470.4737,-281.7129C382.6825,-276.3783 208.1494,-263.0616 152,-239 116.5885,-223.8252 108.6975,-214.3756 85,-184 63.5576,-156.5149 36.9998,-137.0408 59,-110 80.3215,-83.7934 173.8316,-72.1915 231.549,-67.4479"/>
<polygon fill="#191970" stroke="#191970" points="470.2906,-285.2081 480.4811,-282.3091 470.707,-278.2205 470.2906,-285.2081"/>
</g>
<!-- Node14 -->
<g id="node10" class="node">
<title>Node14</title>
<g id="a_node10"><a xlink:href="tool_8hpp.xhtml" target="_top" xlink:title="Determining applications header file. ">
<polygon fill="#ffffff" stroke="#000000" points="200.1528,-165.5 200.1528,-183.5 267.8472,-183.5 267.8472,-165.5 200.1528,-165.5"/>
<text text-anchor="middle" x="234" y="-171.5" font-family="Helvetica,sans-Serif" font-size="10.00" fill="#000000">src/tool.hpp</text>
</a>
</g>
</g>
<!-- Node5&#45;&gt;Node14 -->
<g id="edge20" class="edge">
<title>Node5&#45;&gt;Node14</title>
<path fill="none" stroke="#191970" d="M483.753,-272.2944C456.8113,-263.5067 419.9864,-251.1123 388,-239 339.4767,-220.6256 283.5186,-196.4122 254.2461,-183.5086"/>
<polygon fill="#191970" stroke="#191970" points="482.9721,-275.7206 493.5641,-275.4777 485.1325,-269.0622 482.9721,-275.7206"/>
</g>
<!-- Node15 -->
<g id="node11" class="node">
<title>Node15</title>
<g id="a_node11"><a xlink:href="tool_8cpp.xhtml" target="_top" xlink:title="Network Traffic Capturing With Application Tags. ">
<polygon fill="#ffffff" stroke="#000000" points="68.4336,-110.5 68.4336,-128.5 135.5664,-128.5 135.5664,-110.5 68.4336,-110.5"/>
<text text-anchor="middle" x="102" y="-116.5" font-family="Helvetica,sans-Serif" font-size="10.00" fill="#000000">src/tool.cpp</text>
</a>
</g>
</g>
<!-- Node5&#45;&gt;Node15 -->
<g id="edge24" class="edge">
<title>Node5&#45;&gt;Node15</title>
<path fill="none" stroke="#191970" d="M470.3564,-280.4495C366.7129,-271.104 139.4579,-244.0713 95,-184 82.9389,-167.7031 91.2994,-142.4359 97.3265,-128.8698"/>
<polygon fill="#191970" stroke="#191970" points="470.3165,-283.9594 480.585,-281.3504 470.9307,-276.9864 470.3165,-283.9594"/>
</g>
<!-- Node16 -->
<g id="node12" class="node">
<title>Node16</title>
<g id="a_node12"><a xlink:href="tool__apple_8cpp.xhtml" target="_top" xlink:title="Determining the applications and their sockets on macOS. ">
<polygon fill="#ffffff" stroke="#000000" points="498.4189,-165.5 498.4189,-183.5 595.5811,-183.5 595.5811,-165.5 498.4189,-165.5"/>
<text text-anchor="middle" x="547" y="-171.5" font-family="Helvetica,sans-Serif" font-size="10.00" fill="#000000">src/tool_apple.cpp</text>
</a>
</g>
</g>
<!-- Node5&#45;&gt;Node16 -->
<g id="edge25" class="edge">
<title>Node5&#45;&gt;Node16</title>
<path fill="none" stroke="#191970" d="M521.8155,-265.0715C522.1028,-252.1253 523.2804,-234.8295 527,-220 530.3168,-206.7762 537.1578,-192.5436 541.9094,-183.5847"/>
<polygon fill="#191970" stroke="#191970" points="518.3151,-265.1352 521.7507,-275.1575 525.315,-265.1803 518.3151,-265.1352"/>
</g>
<!-- Node17 -->
<g id="node13" class="node">
<title>Node17</title>
<g id="a_node13"><a xlink:href="tool__linux_8cpp.xhtml" target="_top" xlink:title="Determining applications and their sockets in Linux. ">
<polygon fill="#ffffff" stroke="#000000" points="613.3696,-165.5 613.3696,-183.5 706.6304,-183.5 706.6304,-165.5 613.3696,-165.5"/>
<text text-anchor="middle" x="660" y="-171.5" font-family="Helvetica,sans-Serif" font-size="10.00" fill="#000000">src/tool_linux.cpp</text>
</a>
</g>
</g>
<!-- Node5&#45;&gt;Node17 -->
<g id="edge28" class="edge">
<title>Node5&#45;&gt;Node17</title>
<path fill="none" stroke="#191970" d="M529.1469,-266.1696C535.4538,-252.0056 545.8505,-232.7316 560,-220 579.425,-202.5215 606.6984,-190.7196 627.8568,-183.5243"/>
<polygon fill="#191970" stroke="#191970" points="525.9104,-264.8373 525.2821,-275.4135 532.3686,-267.5375 525.9104,-264.8373"/>
</g>
<!-- Node18 -->
<g id="node14" class="node">
<title>Node18</title>
<g id="a_node14"><a xlink:href="tool__win_8cpp.xhtml" target="_top" xlink:title="Determining the applications and their sockets on Windows. ">
<polygon fill="#ffffff" stroke="#000000" points="724.1504,-165.5 724.1504,-183.5 811.8496,-183.5 811.8496,-165.5 724.1504,-165.5"/>
<text text-anchor="middle" x="768" y="-171.5" font-family="Helvetica,sans-Serif" font-size="10.00" fill="#000000">src/tool_win.cpp</text>
</a>
</g>
</g>
<!-- Node5&#45;&gt;Node18 -->
<g id="edge31" class="edge">
<title>Node5&#45;&gt;Node18</title>
<path fill="none" stroke="#191970" d="M573.067,-273.035C602.7509,-265.3927 640.413,-253.9886 672,-239 705.0155,-223.3335 739.6086,-197.3424 756.849,-183.6254"/>
<polygon fill="#191970" stroke="#191970" points="572.1721,-269.6509 563.3264,-275.4822 573.8779,-276.4399 572.1721,-269.6509"/>
</g>
<!-- Node19 -->
<g id="node15" class="node">
<title>Node19</title>
<g id="a_node15"><a xlink:href="netflow_8cpp.xhtml" target="_top" xlink:title="Netflow structure source file. ">
<polygon fill="#ffffff" stroke="#000000" points="824.9263,-220.5 824.9263,-238.5 907.0737,-238.5 907.0737,-220.5 824.9263,-220.5"/>
<text text-anchor="middle" x="866" y="-226.5" font-family="Helvetica,sans-Serif" font-size="10.00" fill="#000000">src/netflow.cpp</text>
</a>
</g>
</g>
<!-- Node5&#45;&gt;Node19 -->
<g id="edge23" class="edge">
<title>Node5&#45;&gt;Node19</title>
<path fill="none" stroke="#191970" d="M573.5997,-277.0602C632.3755,-268.459 731.2516,-253.6046 816,-239 818.8735,-238.5048 821.837,-237.9794 824.8195,-237.4399"/>
<polygon fill="#191970" stroke="#191970" points="572.8477,-273.6328 563.4581,-278.5405 573.8588,-280.5594 572.8477,-273.6328"/>
</g>
<!-- Node20 -->
<g id="node16" class="node">
<title>Node20</title>
<g id="a_node16"><a xlink:href="tool__apple_8hpp.xhtml" target="_top" xlink:title="Determining applications and their sockets on macOS. ">
<polygon fill="#ffffff" stroke="#000000" points="925.1382,-220.5 925.1382,-238.5 1022.8618,-238.5 1022.8618,-220.5 925.1382,-220.5"/>
<text text-anchor="middle" x="974" y="-226.5" font-family="Helvetica,sans-Serif" font-size="10.00" fill="#000000">src/tool_apple.hpp</text>
</a>
</g>
</g>
<!-- Node5&#45;&gt;Node20 -->
<g id="edge26" class="edge">
<title>Node5&#45;&gt;Node20</title>
<path fill="none" stroke="#191970" d="M573.6603,-279.3228C649.0443,-271.5893 793.55,-256.0888 916,-239 918.9306,-238.591 921.9416,-238.1528 924.9771,-237.6971"/>
<polygon fill="#191970" stroke="#191970" points="573.0839,-275.8634 563.4915,-280.3618 573.7955,-282.8271 573.0839,-275.8634"/>
</g>
<!-- Node21 -->
<g id="node17" class="node">
<title>Node21</title>
<g id="a_node17"><a xlink:href="tool__bsd_8hpp.xhtml" target="_top" xlink:title="Determining applications and their sockets on FreeBSD. ">
<polygon fill="#ffffff" stroke="#000000" points="1041.3105,-220.5 1041.3105,-238.5 1130.6895,-238.5 1130.6895,-220.5 1041.3105,-220.5"/>
<text text-anchor="middle" x="1086" y="-226.5" font-family="Helvetica,sans-Serif" font-size="10.00" fill="#000000">src/tool_bsd.hpp</text>
</a>
</g>
</g>
<!-- Node5&#45;&gt;Node21 -->
<g id="edge27" class="edge">
<title>Node5&#45;&gt;Node21</title>
<path fill="none" stroke="#191970" d="M573.6314,-281.3529C665.8946,-275.4045 865.048,-261.0921 1032,-239 1035.0197,-238.6004 1038.1283,-238.1523 1041.2563,-237.674"/>
<polygon fill="#191970" stroke="#191970" points="573.2049,-277.8729 563.4483,-282.0034 573.6511,-284.8587 573.2049,-277.8729"/>
</g>
<!-- Node22 -->
<g id="node18" class="node">
<title>Node22</title>
<g id="a_node18"><a xlink:href="tool__linux_8hpp.xhtml" target="_top" xlink:title="Determining applications and their sockets on Linux. ">
<polygon fill="#ffffff" stroke="#000000" points="569.0889,-220.5 569.0889,-238.5 662.9111,-238.5 662.9111,-220.5 569.0889,-220.5"/>
<text text-anchor="middle" x="616" y="-226.5" font-family="Helvetica,sans-Serif" font-size="10.00" fill="#000000">src/tool_linux.hpp</text>
</a>
</g>
</g>
<!-- Node5&#45;&gt;Node22 -->
<g id="edge29" class="edge">
<title>Node5&#45;&gt;Node22</title>
<path fill="none" stroke="#191970" d="M546.3866,-270.2313C563.4566,-260.2435 585.7515,-247.1986 600.4548,-238.5956"/>
<polygon fill="#191970" stroke="#191970" points="544.3858,-267.3468 537.5222,-275.4179 547.9209,-273.3886 544.3858,-267.3468"/>
</g>
<!-- Node23 -->
<g id="node19" class="node">
<title>Node23</title>
<g id="a_node19"><a xlink:href="tool__win_8hpp.xhtml" target="_top" xlink:title="Determining applications and their sockets on Windows. ">
<polygon fill="#ffffff" stroke="#000000" points="718.8696,-220.5 718.8696,-238.5 807.1304,-238.5 807.1304,-220.5 718.8696,-220.5"/>
<text text-anchor="middle" x="763" y="-226.5" font-family="Helvetica,sans-Serif" font-size="10.00" fill="#000000">src/tool_win.hpp</text>
</a>
</g>
</g>
<!-- Node5&#45;&gt;Node23 -->
<g id="edge32" class="edge">
<title>Node5&#45;&gt;Node23</title>
<path fill="none" stroke="#191970" d="M571.3544,-273.2365C616.3122,-262.9765 681.8542,-248.0187 723.452,-238.5255"/>
<polygon fill="#191970" stroke="#191970" points="570.497,-269.8422 561.5264,-275.4795 572.0545,-276.6667 570.497,-269.8422"/>
</g>
<!-- Node7&#45;&gt;Node6 -->
<g id="edge3" class="edge">
<title>Node7&#45;&gt;Node6</title>
<path fill="none" stroke="#191970" d="M386.3945,-220.4644C336.8794,-211.4037 258.6306,-196.9721 191,-184 188.08,-183.4399 185.0612,-182.8554 182.0252,-182.2636"/>
<polygon fill="#191970" stroke="#191970" points="386.0437,-223.9582 396.5102,-222.3139 387.3028,-217.0724 386.0437,-223.9582"/>
</g>
<!-- Node8 -->
<g id="node4" class="node">
<title>Node8</title>
<g id="a_node4"><a xlink:href="pcapng__blocks_8hpp.xhtml" target="_top" xlink:title="Pcap&#45;ng block structures. ">
<polygon fill="#ffffff" stroke="#000000" points="285.8574,-165.5 285.8574,-183.5 404.1426,-183.5 404.1426,-165.5 285.8574,-165.5"/>
<text text-anchor="middle" x="345" y="-171.5" font-family="Helvetica,sans-Serif" font-size="10.00" fill="#000000">src/pcapng_blocks.hpp</text>
</a>
</g>
</g>
<!-- Node7&#45;&gt;Node8 -->
<g id="edge4" class="edge">
<title>Node7&#45;&gt;Node8</title>
<path fill="none" stroke="#191970" d="M412.3917,-215.2313C395.8665,-205.2435 374.2831,-192.1986 360.0491,-183.5956"/>
<polygon fill="#191970" stroke="#191970" points="410.6045,-218.2406 420.9732,-220.4179 414.2253,-212.2498 410.6045,-218.2406"/>
</g>
<!-- Node7&#45;&gt;Node10 -->
<g id="edge15" class="edge">
<title>Node7&#45;&gt;Node10</title>
<path fill="none" stroke="#191970" d="M443.6673,-210.7664C446.5835,-202.6798 449.5512,-193.022 451,-184 456.3667,-150.5803 454.6007,-136.0593 433,-110 406.0253,-77.4574 287.8498,-36.5221 232.1907,-18.6028"/>
<polygon fill="#191970" stroke="#191970" points="440.3213,-209.7162 439.9955,-220.3061 446.8541,-212.2307 440.3213,-209.7162"/>
</g>
<!-- Node7&#45;&gt;Node11 -->
<g id="edge16" class="edge">
<title>Node7&#45;&gt;Node11</title>
<path fill="none" stroke="#191970" d="M437.8127,-210.3562C439.1746,-184.4212 437.5763,-138.1383 413,-110 400.4721,-95.6564 354.1634,-82.1045 319.25,-73.5825"/>
<polygon fill="#191970" stroke="#191970" points="434.3164,-210.18 437.0785,-220.4084 441.2978,-210.69 434.3164,-210.18"/>
</g>
<!-- Node7&#45;&gt;Node14 -->
<g id="edge12" class="edge">
<title>Node7&#45;&gt;Node14</title>
<path fill="none" stroke="#191970" d="M392.9653,-217.7826C355.3162,-207.5316 301.4219,-192.8575 267.07,-183.5042"/>
<polygon fill="#191970" stroke="#191970" points="392.0755,-221.1677 402.6438,-220.4179 393.9146,-214.4136 392.0755,-221.1677"/>
</g>
<!-- Node7&#45;&gt;Node16 -->
<g id="edge17" class="edge">
<title>Node7&#45;&gt;Node16</title>
<path fill="none" stroke="#191970" d="M463.4072,-215.9198C483.7304,-205.8498 510.8791,-192.3977 528.6434,-183.5956"/>
<polygon fill="#191970" stroke="#191970" points="461.7358,-212.8419 454.3294,-220.4179 464.8437,-219.1141 461.7358,-212.8419"/>
</g>
<!-- Node7&#45;&gt;Node17 -->
<g id="edge18" class="edge">
<title>Node7&#45;&gt;Node17</title>
<path fill="none" stroke="#191970" d="M482.9244,-217.9784C524.7073,-207.7192 584.9919,-192.9172 623.3283,-183.5042"/>
<polygon fill="#191970" stroke="#191970" points="481.866,-214.6342 472.989,-220.4179 483.5352,-221.4323 481.866,-214.6342"/>
</g>
<!-- Node7&#45;&gt;Node18 -->
<g id="edge19" class="edge">
<title>Node7&#45;&gt;Node18</title>
<path fill="none" stroke="#191970" d="M485.4563,-221.7637C541.4441,-212.9358 635.3612,-197.9166 716,-184 718.6226,-183.5474 721.3183,-183.0754 724.037,-182.5943"/>
<polygon fill="#191970" stroke="#191970" points="484.7892,-218.3255 475.4553,-223.3383 485.878,-225.2403 484.7892,-218.3255"/>
</g>
<!-- Node9 -->
<g id="node5" class="node">
<title>Node9</title>
<g id="a_node5"><a xlink:href="ring_buffer_8hpp.xhtml" target="_top" xlink:title="Ring Buffer header file. ">
<polygon fill="#ffffff" stroke="#000000" points="155.8984,-110.5 155.8984,-128.5 250.1016,-128.5 250.1016,-110.5 155.8984,-110.5"/>
<text text-anchor="middle" x="203" y="-116.5" font-family="Helvetica,sans-Serif" font-size="10.00" fill="#000000">src/ringBuffer.hpp</text>
</a>
</g>
</g>
<!-- Node8&#45;&gt;Node9 -->
<g id="edge5" class="edge">
<title>Node8&#45;&gt;Node9</title>
<path fill="none" stroke="#191970" d="M312.0363,-161.7324C285.8342,-151.5837 249.8257,-137.6367 226.4832,-128.5956"/>
<polygon fill="#191970" stroke="#191970" points="310.9625,-165.0698 321.5516,-165.4179 313.4908,-158.5423 310.9625,-165.0698"/>
</g>
<!-- Node8&#45;&gt;Node11 -->
<g id="edge10" class="edge">
<title>Node8&#45;&gt;Node11</title>
<path fill="none" stroke="#191970" d="M324.2539,-159.0739C314.7451,-151.0474 304.0476,-140.5131 297,-129 286.1514,-111.2777 281.2034,-87.0173 279.1954,-73.8789"/>
<polygon fill="#191970" stroke="#191970" points="322.1945,-161.9091 332.1825,-165.4436 326.5786,-156.452 322.1945,-161.9091"/>
</g>
<!-- Node13 -->
<g id="node9" class="node">
<title>Node13</title>
<g id="a_node9"><a xlink:href="file_handler_8cpp.xhtml" target="_top" xlink:title="File handler source file. ">
<polygon fill="#ffffff" stroke="#000000" points="305.8672,-110.5 305.8672,-128.5 404.1328,-128.5 404.1328,-110.5 305.8672,-110.5"/>
<text text-anchor="middle" x="355" y="-116.5" font-family="Helvetica,sans-Serif" font-size="10.00" fill="#000000">src/fileHandler.cpp</text>
</a>
</g>
</g>
<!-- Node8&#45;&gt;Node13 -->
<g id="edge11" class="edge">
<title>Node8&#45;&gt;Node13</title>
<path fill="none" stroke="#191970" d="M348.4758,-155.383C350.1138,-146.3738 351.9932,-136.0373 353.3128,-128.7795"/>
<polygon fill="#191970" stroke="#191970" points="344.9967,-154.953 346.6513,-165.4179 351.8838,-156.2053 344.9967,-154.953"/>
</g>
<!-- Node9&#45;&gt;Node10 -->
<g id="edge6" class="edge">
<title>Node9&#45;&gt;Node10</title>
<path fill="none" stroke="#191970" d="M203,-100.1899C203,-76.2569 203,-36.4552 203,-18.6261"/>
<polygon fill="#191970" stroke="#191970" points="199.5001,-100.4982 203,-110.4982 206.5001,-100.4983 199.5001,-100.4982"/>
</g>
<!-- Node9&#45;&gt;Node11 -->
<g id="edge7" class="edge">
<title>Node9&#45;&gt;Node11</title>
<path fill="none" stroke="#191970" d="M223.6018,-104.392C237.0606,-94.5222 254.1914,-81.9596 265.5969,-73.5956"/>
<polygon fill="#191970" stroke="#191970" points="221.379,-101.6818 215.3847,-110.4179 225.5186,-107.3266 221.379,-101.6818"/>
</g>
<!-- Node11&#45;&gt;Node10 -->
<g id="edge8" class="edge">
<title>Node11&#45;&gt;Node10</title>
<path fill="none" stroke="#191970" d="M257.3982,-49.392C243.9394,-39.5222 226.8086,-26.9596 215.4031,-18.5956"/>
<polygon fill="#191970" stroke="#191970" points="255.4814,-52.3266 265.6153,-55.4179 259.621,-46.6818 255.4814,-52.3266"/>
</g>
<!-- Node12 -->
<g id="node8" class="node">
<title>Node12</title>
<g id="a_node8"><a xlink:href="main_8cpp.xhtml" target="_top" xlink:title="Main source file. ">
<polygon fill="#ffffff" stroke="#000000" points="266.6577,-.5 266.6577,-18.5 339.3423,-18.5 339.3423,-.5 266.6577,-.5"/>
<text text-anchor="middle" x="303" y="-6.5" font-family="Helvetica,sans-Serif" font-size="10.00" fill="#000000">src/main.cpp</text>
</a>
</g>
</g>
<!-- Node11&#45;&gt;Node12 -->
<g id="edge9" class="edge">
<title>Node11&#45;&gt;Node12</title>
<path fill="none" stroke="#191970" d="M286.2866,-46.2696C290.4733,-37.0587 295.3743,-26.2766 298.7821,-18.7795"/>
<polygon fill="#191970" stroke="#191970" points="283.08,-44.8659 282.1282,-55.4179 289.4526,-47.7625 283.08,-44.8659"/>
</g>
<!-- Node14&#45;&gt;Node9 -->
<g id="edge13" class="edge">
<title>Node14&#45;&gt;Node9</title>
<path fill="none" stroke="#191970" d="M223.8901,-156.563C218.6626,-147.2885 212.5009,-136.3564 208.2302,-128.7795"/>
<polygon fill="#191970" stroke="#191970" points="220.9218,-158.4249 228.881,-165.4179 227.0198,-154.9878 220.9218,-158.4249"/>
</g>
<!-- Node14&#45;&gt;Node15 -->
<g id="edge14" class="edge">
<title>Node14&#45;&gt;Node15</title>
<path fill="none" stroke="#191970" d="M202.7118,-161.4633C178.4119,-151.3383 145.3369,-137.5571 123.8295,-128.5956"/>
<polygon fill="#191970" stroke="#191970" points="201.6259,-164.8024 212.2029,-165.4179 204.3183,-158.3409 201.6259,-164.8024"/>
</g>
<!-- Node22&#45;&gt;Node17 -->
<g id="edge30" class="edge">
<title>Node22&#45;&gt;Node17</title>
<path fill="none" stroke="#191970" d="M629.6508,-212.4365C637.2142,-202.9823 646.3235,-191.5956 652.5764,-183.7795"/>
<polygon fill="#191970" stroke="#191970" points="626.7796,-210.4227 623.2657,-220.4179 632.2457,-214.7956 626.7796,-210.4227"/>
</g>
<!-- Node23&#45;&gt;Node18 -->
<g id="edge33" class="edge">
<title>Node23&#45;&gt;Node18</title>
<path fill="none" stroke="#191970" d="M764.7379,-210.383C765.5569,-201.3738 766.4966,-191.0373 767.1564,-183.7795"/>
<polygon fill="#191970" stroke="#191970" points="761.2455,-210.142 763.8256,-220.4179 768.2167,-210.7758 761.2455,-210.142"/>
</g>
</g>
</svg>
        <g id="navigator" transform="translate(0 0)" fill="#404254">
                <rect fill="#f2f5e9" fill-opacity="0.5" stroke="#606060" stroke-width=".5" x="0" y="0" width="60" height="60"/>
                <use id="zoomplus" xlink:href="#zoomPlus" x="17" y="9" onmousedown="handleZoom(evt,'in')"/>
                <use id="zoomminus" xlink:href="#zoomMin" x="42" y="9" onmousedown="handleZoom(evt,'out')"/>
                <use id="reset" xlink:href="#resetDef" x="30" y="36" onmousedown="handleReset()"/>
                <g id="arrowUp" xlink:href="#dirArrow" transform="translate(30 24)" onmousedown="handlePan(0,-1)">
                  <use xlink:href="#rim" fill="#404040">
                        <set attributeName="fill" to="#808080" begin="arrowUp.mouseover" end="arrowUp.mouseout"/>
                  </use>
                  <path fill="none" stroke="white" stroke-width="1.5" d="M0,-3.0v7 M-2.5,-0.5L0,-3.0L2.5,-0.5"/>
                </g>
                <g id="arrowRight" xlink:href="#dirArrow" transform="rotate(90) translate(36 -43)" onmousedown="handlePan(1,0)">
                  <use xlink:href="#rim" fill="#404040">
                        <set attributeName="fill" to="#808080" begin="arrowRight.mouseover" end="arrowRight.mouseout"/>
                  </use>
                  <path fill="none" stroke="white" stroke-width="1.5" d="M0,-3.0v7 M-2.5,-0.5L0,-3.0L2.5,-0.5"/>
                </g>
                <g id="arrowDown" xlink:href="#dirArrow" transform="rotate(180) translate(-30 -48)" onmousedown="handlePan(0,1)">
                  <use xlink:href="#rim" fill="#404040">
                        <set attributeName="fill" to="#808080" begin="arrowDown.mouseover" end="arrowDown.mouseout"/>
                  </use>
                  <path fill="none" stroke="white" stroke-width="1.5" d="M0,-3.0v7 M-2.5,-0.5L0,-3.0L2.5,-0.5"/>
                </g>
                <g id="arrowLeft" xlink:href="#dirArrow" transform="rotate(270) translate(-36 17)" onmousedown="handlePan(-1,0)">
                  <use xlink:href="#rim" fill="#404040">
                        <set attributeName="fill" to="#808080" begin="arrowLeft.mouseover" end="arrowLeft.mouseout"/>
                  </use>
                  <path fill="none" stroke="white" stroke-width="1.5" d="M0,-3.0v7 M-2.5,-0.5L0,-3.0L2.5,-0.5"/>
                </g>
        </g>
        <svg viewBox="0 0 15 15" width="100%" height="30px" preserveAspectRatio="xMaxYMin meet">
         <g id="arrow_out" transform="scale(0.3 0.3)">
          <a xlink:href="netflow_8hpp__dep__incl_org.svg" target="_base">
           <rect id="button" ry="5" rx="5" y="6" x="6" height="38" width="38"
                fill="#f2f5e9" fill-opacity="0.5" stroke="#606060" stroke-width="1.0"/>
           <path id="arrow"
             d="M 11.500037,31.436501 C 11.940474,20.09759 22.043105,11.32322 32.158766,21.979434 L 37.068811,17.246167 C 37.068811,17.246167 37.088388,32 37.088388,32 L 22.160133,31.978069 C 22.160133,31.978069 26.997745,27.140456 26.997745,27.140456 C 18.528582,18.264221 13.291696,25.230495 11.500037,31.436501 z"
             style="fill:#404040;"/>
          </a>
         </g>
        </svg>
</svg>
