<?xml version="1.0" encoding="UTF-8" standalone="no"?>
<!DOCTYPE svg PUBLIC "-//W3C//DTD SVG 1.1//EN"
 "http://www.w3.org/Graphics/SVG/1.1/DTD/svg11.dtd">
<!-- Generated by graphviz version 2.40.1 (20161225.0304)
 -->
<!-- Title: src/netflow.cpp Pages: 1 -->
<svg width="508pt" height="192pt"
 viewBox="0.00 0.00 508.40 192.00" xmlns="http://www.w3.org/2000/svg" xmlns:xlink="http://www.w3.org/1999/xlink">
<g id="graph0" class="graph" transform="scale(1 1) rotate(0) translate(4 188)">
<title>src/netflow.cpp</title>
<polygon fill="#ffffff" stroke="transparent" points="-4,4 -4,-188 504.4038,-188 504.4038,4 -4,4"/>
<!-- Node0 -->
<g id="node1" class="node">
<title>Node0</title>
<polygon fill="#bfbfbf" stroke="#000000" points="109.0986,-165.5 109.0986,-183.5 191.2461,-183.5 191.2461,-165.5 109.0986,-165.5"/>
<text text-anchor="middle" x="150.1724" y="-171.5" font-family="Helvetica,sans-Serif" font-size="10.00" fill="#000000">src/netflow.cpp</text>
</g>
<!-- Node1 -->
<g id="node2" class="node">
<title>Node1</title>
<polygon fill="#ffffff" stroke="#bfbfbf" points="0,-110.5 0,-128.5 54.3447,-128.5 54.3447,-110.5 0,-110.5"/>
<text text-anchor="middle" x="27.1724" y="-116.5" font-family="Helvetica,sans-Serif" font-size="10.00" fill="#000000">iostream</text>
</g>
<!-- Node0&#45;&gt;Node1 -->
<g id="edge1" class="edge">
<title>Node0&#45;&gt;Node1</title>
<path fill="none" stroke="#191970" d="M129.8614,-165.4179C109.9202,-156.5011 79.2865,-142.803 56.6639,-132.6873"/>
<polygon fill="#191970" stroke="#191970" points="58.0711,-129.4826 47.5135,-128.5956 55.2137,-135.8728 58.0711,-129.4826"/>
</g>
<!-- Node2 -->
<g id="node3" class="node">
<title>Node2</title>
<polygon fill="#ffffff" stroke="#bfbfbf" points="72.5024,-110.5 72.5024,-128.5 121.8423,-128.5 121.8423,-110.5 72.5024,-110.5"/>
<text text-anchor="middle" x="97.1724" y="-116.5" font-family="Helvetica,sans-Serif" font-size="10.00" fill="#000000">fstream</text>
</g>
<!-- Node0&#45;&gt;Node2 -->
<g id="edge2" class="edge">
<title>Node0&#45;&gt;Node2</title>
<path fill="none" stroke="#191970" d="M141.4205,-165.4179C133.7945,-157.5041 122.5394,-145.8243 113.2893,-136.2251"/>
<polygon fill="#191970" stroke="#191970" points="115.5736,-133.5516 106.1144,-128.7795 110.5331,-138.4089 115.5736,-133.5516"/>
</g>
<!-- Node3 -->
<g id="node4" class="node">
<title>Node3</title>
<g id="a_node4"><a xlink:href="tcpip__headers_8hpp.xhtml" target="_top" xlink:title="Protocol headers. ">
<polygon fill="#ffffff" stroke="#000000" points="72.0298,-55.5 72.0298,-73.5 170.3149,-73.5 170.3149,-55.5 72.0298,-55.5"/>
<text text-anchor="middle" x="121.1724" y="-61.5" font-family="Helvetica,sans-Serif" font-size="10.00" fill="#000000">tcpip_headers.hpp</text>
</a>
</g>
</g>
<!-- Node0&#45;&gt;Node3 -->
<g id="edge3" class="edge">
<title>Node0&#45;&gt;Node3</title>
<path fill="none" stroke="#191970" d="M147.7992,-165.4982C143.0834,-147.6108 132.4453,-107.2594 126.1359,-83.3271"/>
<polygon fill="#191970" stroke="#191970" points="129.512,-82.4035 123.5783,-73.6261 122.7433,-84.188 129.512,-82.4035"/>
</g>
<!-- Node5 -->
<g id="node6" class="node">
<title>Node5</title>
<g id="a_node6"><a xlink:href="utils_8hpp.xhtml" target="_top" xlink:title="Small useful functions header file. ">
<polygon fill="#ffffff" stroke="#000000" points="313.5493,-110.5 313.5493,-128.5 366.7954,-128.5 366.7954,-110.5 313.5493,-110.5"/>
<text text-anchor="middle" x="340.1724" y="-116.5" font-family="Helvetica,sans-Serif" font-size="10.00" fill="#000000">utils.hpp</text>
</a>
</g>
</g>
<!-- Node0&#45;&gt;Node5 -->
<g id="edge5" class="edge">
<title>Node0&#45;&gt;Node5</title>
<path fill="none" stroke="#191970" d="M181.547,-165.4179C215.0271,-155.7263 268.0193,-140.3864 303.4267,-130.1369"/>
<polygon fill="#191970" stroke="#191970" points="304.73,-133.4034 313.3624,-127.2608 302.7835,-126.6795 304.73,-133.4034"/>
</g>
<!-- Node10 -->
<g id="node11" class="node">
<title>Node10</title>
<g id="a_node11"><a xlink:href="netflow_8hpp.xhtml" target="_top" xlink:title="Netflow structure header file. ">
<polygon fill="#ffffff" stroke="#000000" points="177.8721,-110.5 177.8721,-128.5 244.4727,-128.5 244.4727,-110.5 177.8721,-110.5"/>
<text text-anchor="middle" x="211.1724" y="-116.5" font-family="Helvetica,sans-Serif" font-size="10.00" fill="#000000">netflow.hpp</text>
</a>
</g>
</g>
<!-- Node0&#45;&gt;Node10 -->
<g id="edge10" class="edge">
<title>Node0&#45;&gt;Node10</title>
<path fill="none" stroke="#191970" d="M160.2453,-165.4179C169.1979,-157.3458 182.4961,-145.3556 193.2587,-135.6517"/>
<polygon fill="#191970" stroke="#191970" points="195.7974,-138.0753 200.8806,-128.7795 191.11,-132.8764 195.7974,-138.0753"/>
</g>
<!-- Node4 -->
<g id="node5" class="node">
<title>Node4</title>
<polygon fill="#ffffff" stroke="#bfbfbf" points="97.0518,-.5 97.0518,-18.5 145.293,-18.5 145.293,-.5 97.0518,-.5"/>
<text text-anchor="middle" x="121.1724" y="-6.5" font-family="Helvetica,sans-Serif" font-size="10.00" fill="#000000">stdint.h</text>
</g>
<!-- Node3&#45;&gt;Node4 -->
<g id="edge4" class="edge">
<title>Node3&#45;&gt;Node4</title>
<path fill="none" stroke="#191970" d="M121.1724,-55.4179C121.1724,-48.2164 121.1724,-37.8962 121.1724,-28.8632"/>
<polygon fill="#191970" stroke="#191970" points="124.6725,-28.7794 121.1724,-18.7795 117.6725,-28.7795 124.6725,-28.7794"/>
</g>
<!-- Node6 -->
<g id="node7" class="node">
<title>Node6</title>
<polygon fill="#ffffff" stroke="#bfbfbf" points="310.7686,-55.5 310.7686,-73.5 369.5762,-73.5 369.5762,-55.5 310.7686,-55.5"/>
<text text-anchor="middle" x="340.1724" y="-61.5" font-family="Helvetica,sans-Serif" font-size="10.00" fill="#000000">exception</text>
</g>
<!-- Node5&#45;&gt;Node6 -->
<g id="edge6" class="edge">
<title>Node5&#45;&gt;Node6</title>
<path fill="none" stroke="#191970" d="M340.1724,-110.4179C340.1724,-103.2164 340.1724,-92.8962 340.1724,-83.8632"/>
<polygon fill="#191970" stroke="#191970" points="343.6725,-83.7794 340.1724,-73.7795 336.6725,-83.7795 343.6725,-83.7794"/>
</g>
<!-- Node7 -->
<g id="node8" class="node">
<title>Node7</title>
<polygon fill="#ffffff" stroke="#bfbfbf" points="251.9458,-55.5 251.9458,-73.5 292.3989,-73.5 292.3989,-55.5 251.9458,-55.5"/>
<text text-anchor="middle" x="272.1724" y="-61.5" font-family="Helvetica,sans-Serif" font-size="10.00" fill="#000000">string</text>
</g>
<!-- Node5&#45;&gt;Node7 -->
<g id="edge7" class="edge">
<title>Node5&#45;&gt;Node7</title>
<path fill="none" stroke="#191970" d="M328.9435,-110.4179C318.7679,-102.1876 303.5561,-89.8839 291.4393,-80.0836"/>
<polygon fill="#191970" stroke="#191970" points="293.6213,-77.3469 283.6451,-73.7795 289.2192,-82.7895 293.6213,-77.3469"/>
</g>
<!-- Node8 -->
<g id="node9" class="node">
<title>Node8</title>
<polygon fill="#ffffff" stroke="#bfbfbf" points="388,-55.5 388,-73.5 432.3447,-73.5 432.3447,-55.5 388,-55.5"/>
<text text-anchor="middle" x="410.1724" y="-61.5" font-family="Helvetica,sans-Serif" font-size="10.00" fill="#000000">cerrno</text>
</g>
<!-- Node5&#45;&gt;Node8 -->
<g id="edge8" class="edge">
<title>Node5&#45;&gt;Node8</title>
<path fill="none" stroke="#191970" d="M351.7314,-110.4179C362.2064,-102.1876 377.8656,-89.8839 390.3388,-80.0836"/>
<polygon fill="#191970" stroke="#191970" points="392.6613,-82.7098 398.3621,-73.7795 388.3366,-77.2056 392.6613,-82.7098"/>
</g>
<!-- Node9 -->
<g id="node10" class="node">
<title>Node9</title>
<g id="a_node10"><a xlink:href="utils_8tpp.xhtml" target="_top" xlink:title="Small useful templated functions. ">
<polygon fill="#ffffff" stroke="#000000" points="449.9409,-55.5 449.9409,-73.5 500.4038,-73.5 500.4038,-55.5 449.9409,-55.5"/>
<text text-anchor="middle" x="475.1724" y="-61.5" font-family="Helvetica,sans-Serif" font-size="10.00" fill="#000000">utils.tpp</text>
</a>
</g>
</g>
<!-- Node5&#45;&gt;Node9 -->
<g id="edge9" class="edge">
<title>Node5&#45;&gt;Node9</title>
<path fill="none" stroke="#191970" d="M362.4649,-110.4179C384.5469,-101.4215 418.5753,-87.5581 443.4666,-77.4172"/>
<polygon fill="#191970" stroke="#191970" points="444.9064,-80.61 452.8467,-73.5956 442.2652,-74.1273 444.9064,-80.61"/>
</g>
<!-- Node10&#45;&gt;Node3 -->
<g id="edge13" class="edge">
<title>Node10&#45;&gt;Node3</title>
<path fill="none" stroke="#191970" d="M196.3107,-110.4179C182.371,-101.8992 161.2904,-89.0166 145.0023,-79.0627"/>
<polygon fill="#191970" stroke="#191970" points="146.414,-75.8237 136.0561,-73.5956 142.7639,-81.7967 146.414,-75.8237"/>
</g>
<!-- Node10&#45;&gt;Node7 -->
<g id="edge11" class="edge">
<title>Node10&#45;&gt;Node7</title>
<path fill="none" stroke="#191970" d="M221.2453,-110.4179C230.1979,-102.3458 243.4961,-90.3556 254.2587,-80.6517"/>
<polygon fill="#191970" stroke="#191970" points="256.7974,-83.0753 261.8806,-73.7795 252.11,-77.8764 256.7974,-83.0753"/>
</g>
<!-- Node11 -->
<g id="node12" class="node">
<title>Node11</title>
<polygon fill="#ffffff" stroke="#bfbfbf" points="188.4458,-55.5 188.4458,-73.5 233.8989,-73.5 233.8989,-55.5 188.4458,-55.5"/>
<text text-anchor="middle" x="211.1724" y="-61.5" font-family="Helvetica,sans-Serif" font-size="10.00" fill="#000000">cstring</text>
</g>
<!-- Node10&#45;&gt;Node11 -->
<g id="edge12" class="edge">
<title>Node10&#45;&gt;Node11</title>
<path fill="none" stroke="#191970" d="M211.1724,-110.4179C211.1724,-103.2164 211.1724,-92.8962 211.1724,-83.8632"/>
<polygon fill="#191970" stroke="#191970" points="214.6725,-83.7794 211.1724,-73.7795 207.6725,-83.7795 214.6725,-83.7794"/>
</g>
</g>
</svg>
