<?xml version="1.0" encoding="UTF-8" standalone="no"?>
<!DOCTYPE svg PUBLIC "-//W3C//DTD SVG 1.1//EN"
 "http://www.w3.org/Graphics/SVG/1.1/DTD/svg11.dtd">
<!-- Generated by graphviz version 2.40.1 (20161225.0304)
 -->
<!-- Title: TOOL::computePaddingLen Pages: 1 -->
<svg width="344pt" height="272pt"
 viewBox="0.00 0.00 343.74 272.00" xmlns="http://www.w3.org/2000/svg" xmlns:xlink="http://www.w3.org/1999/xlink">
<g id="graph0" class="graph" transform="scale(1 1) rotate(0) translate(4 268)">
<title>TOOL::computePaddingLen</title>
<polygon fill="#ffffff" stroke="transparent" points="-4,4 -4,-268 339.7393,-268 339.7393,4 -4,4"/>
<!-- Node1 -->
<g id="node1" class="node">
<title>Node1</title>
<polygon fill="#bfbfbf" stroke="#000000" points="0,-122.5 0,-140.5 140.3457,-140.5 140.3457,-122.5 0,-122.5"/>
<text text-anchor="middle" x="70.1729" y="-128.5" font-family="Helvetica,sans-Serif" font-size="10.00" fill="#000000">TOOL::computePaddingLen</text>
</g>
<!-- Node1&#45;&gt;Node1 -->
<g id="edge1" class="edge">
<title>Node1&#45;&gt;Node1</title>
<path fill="none" stroke="#191970" d="M35.741,-147.9173C34.6736,-154.0003 46.1509,-159 70.1729,-159 103.5947,-159 112.7335,-149.322 97.5892,-140.5134"/>
<polygon fill="#191970" stroke="#191970" points="38.4189,-150.1797 42.7565,-140.5134 33.3377,-145.365 38.4189,-150.1797"/>
</g>
<!-- Node2 -->
<g id="node2" class="node">
<title>Node2</title>
<g id="a_node2"><a xlink:href="class_t_o_o_l_1_1_section_header_block.xhtml#abfbaf079b946d2b711a91309c84dabbe" target="_top" xlink:title="Class constructor. ">
<polygon fill="#ffffff" stroke="#000000" points="186.436,-235.5 186.436,-263.5 325.6489,-263.5 325.6489,-235.5 186.436,-235.5"/>
<text text-anchor="start" x="194.436" y="-251.5" font-family="Helvetica,sans-Serif" font-size="10.00" fill="#000000">TOOL::SectionHeaderBlock</text>
<text text-anchor="middle" x="256.0425" y="-241.5" font-family="Helvetica,sans-Serif" font-size="10.00" fill="#000000">::SectionHeaderBlock</text>
</a>
</g>
</g>
<!-- Node1&#45;&gt;Node2 -->
<g id="edge2" class="edge">
<title>Node1&#45;&gt;Node2</title>
<path fill="none" stroke="#191970" d="M84.3117,-148.1141C103.2079,-169.2986 138.7079,-205.6718 176.3457,-226.5 182.5198,-229.9167 189.2502,-232.868 196.0977,-235.407"/>
<polygon fill="#191970" stroke="#191970" points="86.9162,-145.7756 77.6982,-140.5526 81.6471,-150.384 86.9162,-145.7756"/>
</g>
<!-- Node3 -->
<g id="node3" class="node">
<title>Node3</title>
<g id="a_node3"><a xlink:href="class_t_o_o_l_1_1_section_header_block.xhtml#ac5f95e429a966c9f2c026d48c5c1ddf3" target="_top" xlink:title="Writes whole block into the file. ">
<polygon fill="#ffffff" stroke="#000000" points="186.436,-188.5 186.436,-216.5 325.6489,-216.5 325.6489,-188.5 186.436,-188.5"/>
<text text-anchor="start" x="194.436" y="-204.5" font-family="Helvetica,sans-Serif" font-size="10.00" fill="#000000">TOOL::SectionHeaderBlock</text>
<text text-anchor="middle" x="256.0425" y="-194.5" font-family="Helvetica,sans-Serif" font-size="10.00" fill="#000000">::write</text>
</a>
</g>
</g>
<!-- Node1&#45;&gt;Node3 -->
<g id="edge3" class="edge">
<title>Node1&#45;&gt;Node3</title>
<path fill="none" stroke="#191970" d="M97.2997,-145.0692C118.4892,-155.3473 148.8541,-169.3782 176.3457,-179.5 184.9947,-182.6844 194.3002,-185.7141 203.3935,-188.4674"/>
<polygon fill="#191970" stroke="#191970" points="98.7732,-141.8937 88.2529,-140.6385 95.6942,-148.1802 98.7732,-141.8937"/>
</g>
<!-- Node4 -->
<g id="node4" class="node">
<title>Node4</title>
<g id="a_node4"><a xlink:href="class_t_o_o_l_1_1_interface_description_block.xhtml#af4e63d9a6c85283ead1c02dc13492d9f" target="_top" xlink:title="Class constructor that sets options lengths and block total length. ">
<polygon fill="#ffffff" stroke="#000000" points="176.3457,-141.5 176.3457,-169.5 335.7393,-169.5 335.7393,-141.5 176.3457,-141.5"/>
<text text-anchor="start" x="184.3457" y="-157.5" font-family="Helvetica,sans-Serif" font-size="10.00" fill="#000000">TOOL::InterfaceDescription</text>
<text text-anchor="middle" x="256.0425" y="-147.5" font-family="Helvetica,sans-Serif" font-size="10.00" fill="#000000">Block::InterfaceDescriptionBlock</text>
</a>
</g>
</g>
<!-- Node1&#45;&gt;Node4 -->
<g id="edge4" class="edge">
<title>Node1&#45;&gt;Node4</title>
<path fill="none" stroke="#191970" d="M150.0167,-141.8097C158.7006,-142.9309 167.5401,-144.0723 176.2237,-145.1936"/>
<polygon fill="#191970" stroke="#191970" points="150.2786,-138.3145 139.9127,-140.505 149.3821,-145.2569 150.2786,-138.3145"/>
</g>
<!-- Node5 -->
<g id="node5" class="node">
<title>Node5</title>
<g id="a_node5"><a xlink:href="class_t_o_o_l_1_1_interface_description_block.xhtml#afbe104978bc51d590703e8c3a3922289" target="_top" xlink:title="Writes the whole block into the file. ">
<polygon fill="#ffffff" stroke="#000000" points="187.2734,-94.5 187.2734,-122.5 324.8115,-122.5 324.8115,-94.5 187.2734,-94.5"/>
<text text-anchor="start" x="195.2734" y="-110.5" font-family="Helvetica,sans-Serif" font-size="10.00" fill="#000000">TOOL::InterfaceDescription</text>
<text text-anchor="middle" x="256.0425" y="-100.5" font-family="Helvetica,sans-Serif" font-size="10.00" fill="#000000">Block::write</text>
</a>
</g>
</g>
<!-- Node1&#45;&gt;Node5 -->
<g id="edge5" class="edge">
<title>Node1&#45;&gt;Node5</title>
<path fill="none" stroke="#191970" d="M150.6011,-121.5476C162.7994,-120.0381 175.2906,-118.4925 187.2132,-117.0171"/>
<polygon fill="#191970" stroke="#191970" points="149.9366,-118.103 140.4422,-122.8047 150.7963,-125.05 149.9366,-118.103"/>
</g>
<!-- Node6 -->
<g id="node6" class="node">
<title>Node6</title>
<g id="a_node6"><a xlink:href="class_t_o_o_l_1_1_enhanced_packet_block.xhtml#a335f205270198cfe1aacfbcc61b5b6c5" target="_top" xlink:title="Writes whole block into the output file. ">
<polygon fill="#ffffff" stroke="#000000" points="181.707,-47.5 181.707,-75.5 330.3779,-75.5 330.3779,-47.5 181.707,-47.5"/>
<text text-anchor="start" x="189.707" y="-63.5" font-family="Helvetica,sans-Serif" font-size="10.00" fill="#000000">TOOL::EnhancedPacketBlock</text>
<text text-anchor="middle" x="256.0425" y="-53.5" font-family="Helvetica,sans-Serif" font-size="10.00" fill="#000000">::write</text>
</a>
</g>
</g>
<!-- Node1&#45;&gt;Node6 -->
<g id="edge6" class="edge">
<title>Node1&#45;&gt;Node6</title>
<path fill="none" stroke="#191970" d="M98.5494,-118.133C119.7275,-108.4211 149.5149,-95.3145 176.3457,-85.5 185.8451,-82.0252 196.1083,-78.6562 206.0074,-75.595"/>
<polygon fill="#191970" stroke="#191970" points="97.0743,-114.9589 89.4662,-122.3323 100.0119,-121.3127 97.0743,-114.9589"/>
</g>
<!-- Node7 -->
<g id="node7" class="node">
<title>Node7</title>
<g id="a_node7"><a xlink:href="class_t_o_o_l_1_1_custom_block.xhtml#aef9b0da921b7014d415c3afc4b2f3dab" target="_top" xlink:title="Writes the whole block into the file. ">
<polygon fill="#ffffff" stroke="#000000" points="199.5073,-.5 199.5073,-28.5 312.5776,-28.5 312.5776,-.5 199.5073,-.5"/>
<text text-anchor="start" x="207.5073" y="-16.5" font-family="Helvetica,sans-Serif" font-size="10.00" fill="#000000">TOOL::CustomBlock::</text>
<text text-anchor="middle" x="256.0425" y="-6.5" font-family="Helvetica,sans-Serif" font-size="10.00" fill="#000000">write</text>
</a>
</g>
</g>
<!-- Node1&#45;&gt;Node7 -->
<g id="edge7" class="edge">
<title>Node1&#45;&gt;Node7</title>
<path fill="none" stroke="#191970" d="M84.968,-114.7256C104.1146,-93.9939 139.4216,-58.957 176.3457,-38.5 183.5504,-34.5084 191.4977,-31.1045 199.4999,-28.2245"/>
<polygon fill="#191970" stroke="#191970" points="82.1318,-112.6432 78.0125,-122.4044 87.3199,-117.3426 82.1318,-112.6432"/>
</g>
</g>
</svg>
