<?xml version="1.0" encoding="UTF-8" standalone="no"?>
<!DOCTYPE svg PUBLIC "-//W3C//DTD SVG 1.1//EN"
 "http://www.w3.org/Graphics/SVG/1.1/DTD/svg11.dtd">
<!-- Generated by graphviz version 2.40.1 (20161225.0304)
 -->
<!-- Title: src/pcapng_blocks.hpp Pages: 1 -->
<svg width="690pt" height="247pt"
 viewBox="0.00 0.00 689.62 247.00" xmlns="http://www.w3.org/2000/svg" xmlns:xlink="http://www.w3.org/1999/xlink">
<g id="graph0" class="graph" transform="scale(1 1) rotate(0) translate(4 243)">
<title>src/pcapng_blocks.hpp</title>
<polygon fill="#ffffff" stroke="transparent" points="-4,4 -4,-243 685.623,-243 685.623,4 -4,4"/>
<!-- Node0 -->
<g id="node1" class="node">
<title>Node0</title>
<polygon fill="#bfbfbf" stroke="#000000" points="154.3081,-220.5 154.3081,-238.5 272.5933,-238.5 272.5933,-220.5 154.3081,-220.5"/>
<text text-anchor="middle" x="213.4507" y="-226.5" font-family="Helvetica,sans-Serif" font-size="10.00" fill="#000000">src/pcapng_blocks.hpp</text>
</g>
<!-- Node1 -->
<g id="node2" class="node">
<title>Node1</title>
<polygon fill="#ffffff" stroke="#bfbfbf" points="0,-165.5 0,-183.5 44.9014,-183.5 44.9014,-165.5 0,-165.5"/>
<text text-anchor="middle" x="22.4507" y="-171.5" font-family="Helvetica,sans-Serif" font-size="10.00" fill="#000000">cstdint</text>
</g>
<!-- Node0&#45;&gt;Node1 -->
<g id="edge1" class="edge">
<title>Node0&#45;&gt;Node1</title>
<path fill="none" stroke="#191970" d="M180.9121,-220.4556C150.5666,-211.9747 103.7966,-198.7869 54.9206,-184.3983"/>
<polygon fill="#191970" stroke="#191970" points="55.7034,-180.9801 45.1216,-181.5056 53.7214,-187.6937 55.7034,-180.9801"/>
</g>
<!-- Node2 -->
<g id="node3" class="node">
<title>Node2</title>
<polygon fill="#ffffff" stroke="#bfbfbf" points="62.7808,-165.5 62.7808,-183.5 112.1206,-183.5 112.1206,-165.5 62.7808,-165.5"/>
<text text-anchor="middle" x="87.4507" y="-171.5" font-family="Helvetica,sans-Serif" font-size="10.00" fill="#000000">fstream</text>
</g>
<!-- Node0&#45;&gt;Node2 -->
<g id="edge2" class="edge">
<title>Node0&#45;&gt;Node2</title>
<path fill="none" stroke="#191970" d="M192.6443,-220.4179C172.2168,-211.5011 140.8358,-197.803 117.6615,-187.6873"/>
<polygon fill="#191970" stroke="#191970" points="118.8531,-184.3885 108.2879,-183.5956 116.0526,-190.804 118.8531,-184.3885"/>
</g>
<!-- Node3 -->
<g id="node4" class="node">
<title>Node3</title>
<polygon fill="#ffffff" stroke="#bfbfbf" points="474.2241,-55.5 474.2241,-73.5 514.6772,-73.5 514.6772,-55.5 474.2241,-55.5"/>
<text text-anchor="middle" x="494.4507" y="-61.5" font-family="Helvetica,sans-Serif" font-size="10.00" fill="#000000">string</text>
</g>
<!-- Node0&#45;&gt;Node3 -->
<g id="edge3" class="edge">
<title>Node0&#45;&gt;Node3</title>
<path fill="none" stroke="#191970" d="M257.8012,-220.4744C330.327,-204.6785 468.9193,-169.792 495.4507,-129 504.1233,-115.6658 502.8648,-97.2735 500.0254,-83.5401"/>
<polygon fill="#191970" stroke="#191970" points="503.3891,-82.5637 497.5688,-73.7107 496.598,-84.2609 503.3891,-82.5637"/>
</g>
<!-- Node4 -->
<g id="node5" class="node">
<title>Node4</title>
<polygon fill="#ffffff" stroke="#bfbfbf" points="168.835,-110.5 168.835,-128.5 212.0664,-128.5 212.0664,-110.5 168.835,-110.5"/>
<text text-anchor="middle" x="190.4507" y="-116.5" font-family="Helvetica,sans-Serif" font-size="10.00" fill="#000000">vector</text>
</g>
<!-- Node0&#45;&gt;Node4 -->
<g id="edge4" class="edge">
<title>Node0&#45;&gt;Node4</title>
<path fill="none" stroke="#191970" d="M211.5685,-220.4982C207.8452,-202.6913 199.4672,-162.6225 194.4551,-138.6515"/>
<polygon fill="#191970" stroke="#191970" points="197.8315,-137.6981 192.3589,-128.6261 190.9797,-139.1308 197.8315,-137.6981"/>
</g>
<!-- Node5 -->
<g id="node6" class="node">
<title>Node5</title>
<polygon fill="#ffffff" stroke="#bfbfbf" points="218.7241,-165.5 218.7241,-183.5 254.1772,-183.5 254.1772,-165.5 218.7241,-165.5"/>
<text text-anchor="middle" x="236.4507" y="-171.5" font-family="Helvetica,sans-Serif" font-size="10.00" fill="#000000">map</text>
</g>
<!-- Node0&#45;&gt;Node5 -->
<g id="edge5" class="edge">
<title>Node0&#45;&gt;Node5</title>
<path fill="none" stroke="#191970" d="M217.2487,-220.4179C220.3264,-213.0581 224.7663,-202.441 228.6016,-193.2695"/>
<polygon fill="#191970" stroke="#191970" points="231.9411,-194.3556 232.5702,-183.7795 225.483,-191.6549 231.9411,-194.3556"/>
</g>
<!-- Node6 -->
<g id="node7" class="node">
<title>Node6</title>
<g id="a_node7"><a xlink:href="tcpip__headers_8hpp.xhtml" target="_top" xlink:title="Protocol headers. ">
<polygon fill="#ffffff" stroke="#000000" points="108.3081,-55.5 108.3081,-73.5 206.5933,-73.5 206.5933,-55.5 108.3081,-55.5"/>
<text text-anchor="middle" x="157.4507" y="-61.5" font-family="Helvetica,sans-Serif" font-size="10.00" fill="#000000">tcpip_headers.hpp</text>
</a>
</g>
</g>
<!-- Node0&#45;&gt;Node6 -->
<g id="edge6" class="edge">
<title>Node0&#45;&gt;Node6</title>
<path fill="none" stroke="#191970" d="M206.67,-220.42C194.4865,-203.4995 169.2504,-165.5402 159.4507,-129 155.5003,-114.27 155.1855,-96.968 155.757,-83.994"/>
<polygon fill="#191970" stroke="#191970" points="159.2583,-84.0872 156.4182,-73.8802 152.2732,-83.6305 159.2583,-84.0872"/>
</g>
<!-- Node8 -->
<g id="node9" class="node">
<title>Node8</title>
<g id="a_node9"><a xlink:href="cache_8hpp.xhtml" target="_top" xlink:title="Cache implementation header file. ">
<polygon fill="#ffffff" stroke="#000000" points="300.377,-165.5 300.377,-183.5 362.5244,-183.5 362.5244,-165.5 300.377,-165.5"/>
<text text-anchor="middle" x="331.4507" y="-171.5" font-family="Helvetica,sans-Serif" font-size="10.00" fill="#000000">cache.hpp</text>
</a>
</g>
</g>
<!-- Node0&#45;&gt;Node8 -->
<g id="edge8" class="edge">
<title>Node0&#45;&gt;Node8</title>
<path fill="none" stroke="#191970" d="M232.936,-220.4179C251.9811,-211.5409 281.1929,-197.9253 302.8669,-187.823"/>
<polygon fill="#191970" stroke="#191970" points="304.3513,-190.9927 311.9364,-183.5956 301.394,-184.648 304.3513,-190.9927"/>
</g>
<!-- Node13 -->
<g id="node14" class="node">
<title>Node13</title>
<g id="a_node14"><a xlink:href="debug_8hpp.xhtml" target="_top" xlink:title="Debugging functions. ">
<polygon fill="#ffffff" stroke="#000000" points="560.8154,-165.5 560.8154,-183.5 624.0859,-183.5 624.0859,-165.5 560.8154,-165.5"/>
<text text-anchor="middle" x="592.4507" y="-171.5" font-family="Helvetica,sans-Serif" font-size="10.00" fill="#000000">debug.hpp</text>
</a>
</g>
</g>
<!-- Node0&#45;&gt;Node13 -->
<g id="edge17" class="edge">
<title>Node0&#45;&gt;Node13</title>
<path fill="none" stroke="#191970" d="M272.8875,-222.6135C339.6437,-214.5923 451.1258,-200.3364 546.4507,-184 547.7166,-183.7831 549.0008,-183.5568 550.2964,-183.3233"/>
<polygon fill="#191970" stroke="#191970" points="551.1586,-186.7223 560.3327,-181.4227 549.8561,-179.8446 551.1586,-186.7223"/>
</g>
<!-- Node7 -->
<g id="node8" class="node">
<title>Node7</title>
<polygon fill="#ffffff" stroke="#bfbfbf" points="133.3301,-.5 133.3301,-18.5 181.5713,-18.5 181.5713,-.5 133.3301,-.5"/>
<text text-anchor="middle" x="157.4507" y="-6.5" font-family="Helvetica,sans-Serif" font-size="10.00" fill="#000000">stdint.h</text>
</g>
<!-- Node6&#45;&gt;Node7 -->
<g id="edge7" class="edge">
<title>Node6&#45;&gt;Node7</title>
<path fill="none" stroke="#191970" d="M157.4507,-55.4179C157.4507,-48.2164 157.4507,-37.8962 157.4507,-28.8632"/>
<polygon fill="#191970" stroke="#191970" points="160.9508,-28.7794 157.4507,-18.7795 153.9508,-28.7795 160.9508,-28.7794"/>
</g>
<!-- Node8&#45;&gt;Node3 -->
<g id="edge9" class="edge">
<title>Node8&#45;&gt;Node3</title>
<path fill="none" stroke="#191970" d="M362.6888,-168.2184C400.0867,-160.1044 459.6638,-145.0989 475.4507,-129 487.1884,-117.0303 491.7361,-98.1923 493.4669,-83.9587"/>
<polygon fill="#191970" stroke="#191970" points="496.9751,-84.0105 494.3346,-73.75 490.0002,-83.4176 496.9751,-84.0105"/>
</g>
<!-- Node8&#45;&gt;Node4 -->
<g id="edge10" class="edge">
<title>Node8&#45;&gt;Node4</title>
<path fill="none" stroke="#191970" d="M308.1674,-165.4179C284.5857,-156.2193 247.9598,-141.9326 221.8279,-131.7394"/>
<polygon fill="#191970" stroke="#191970" points="222.9638,-128.4256 212.3755,-128.0522 220.4199,-134.947 222.9638,-128.4256"/>
</g>
<!-- Node9 -->
<g id="node10" class="node">
<title>Node9</title>
<polygon fill="#ffffff" stroke="#bfbfbf" points="315.1479,-110.5 315.1479,-128.5 401.7534,-128.5 401.7534,-110.5 315.1479,-110.5"/>
<text text-anchor="middle" x="358.4507" y="-116.5" font-family="Helvetica,sans-Serif" font-size="10.00" fill="#000000">unordered_map</text>
</g>
<!-- Node8&#45;&gt;Node9 -->
<g id="edge11" class="edge">
<title>Node8&#45;&gt;Node9</title>
<path fill="none" stroke="#191970" d="M335.9092,-165.4179C339.561,-157.9789 344.8464,-147.2123 349.3815,-137.9742"/>
<polygon fill="#191970" stroke="#191970" points="352.6304,-139.2985 353.8953,-128.7795 346.3467,-136.2138 352.6304,-139.2985"/>
</g>
<!-- Node10 -->
<g id="node11" class="node">
<title>Node10</title>
<polygon fill="#ffffff" stroke="#bfbfbf" points="420.1626,-110.5 420.1626,-128.5 466.7388,-128.5 466.7388,-110.5 420.1626,-110.5"/>
<text text-anchor="middle" x="443.4507" y="-116.5" font-family="Helvetica,sans-Serif" font-size="10.00" fill="#000000">chrono</text>
</g>
<!-- Node8&#45;&gt;Node10 -->
<g id="edge12" class="edge">
<title>Node8&#45;&gt;Node10</title>
<path fill="none" stroke="#191970" d="M349.9452,-165.4179C367.8598,-156.6205 395.2518,-143.1691 415.7651,-133.0956"/>
<polygon fill="#191970" stroke="#191970" points="417.4954,-136.1452 424.9287,-128.5956 414.4098,-129.8619 417.4954,-136.1452"/>
</g>
<!-- Node11 -->
<g id="node12" class="node">
<title>Node11</title>
<g id="a_node12"><a xlink:href="netflow_8hpp.xhtml" target="_top" xlink:title="Netflow structure header file. ">
<polygon fill="#ffffff" stroke="#000000" points="230.1504,-110.5 230.1504,-128.5 296.751,-128.5 296.751,-110.5 230.1504,-110.5"/>
<text text-anchor="middle" x="263.4507" y="-116.5" font-family="Helvetica,sans-Serif" font-size="10.00" fill="#000000">netflow.hpp</text>
</a>
</g>
</g>
<!-- Node8&#45;&gt;Node11 -->
<g id="edge13" class="edge">
<title>Node8&#45;&gt;Node11</title>
<path fill="none" stroke="#191970" d="M320.2219,-165.4179C310.0462,-157.1876 294.8344,-144.8839 282.7176,-135.0836"/>
<polygon fill="#191970" stroke="#191970" points="284.8997,-132.3469 274.9235,-128.7795 280.4975,-137.7895 284.8997,-132.3469"/>
</g>
<!-- Node11&#45;&gt;Node3 -->
<g id="edge14" class="edge">
<title>Node11&#45;&gt;Node3</title>
<path fill="none" stroke="#191970" d="M297.0401,-111.5025C342.0084,-100.7958 421.1059,-81.963 464.2687,-71.6862"/>
<polygon fill="#191970" stroke="#191970" points="465.2558,-75.0491 474.1732,-69.328 463.6344,-68.2394 465.2558,-75.0491"/>
</g>
<!-- Node11&#45;&gt;Node6 -->
<g id="edge16" class="edge">
<title>Node11&#45;&gt;Node6</title>
<path fill="none" stroke="#191970" d="M245.9469,-110.4179C229.0687,-101.6603 203.3019,-88.2907 183.9171,-78.2326"/>
<polygon fill="#191970" stroke="#191970" points="185.4687,-75.0946 174.9804,-73.5956 182.2447,-81.308 185.4687,-75.0946"/>
</g>
<!-- Node12 -->
<g id="node13" class="node">
<title>Node12</title>
<polygon fill="#ffffff" stroke="#bfbfbf" points="240.7241,-55.5 240.7241,-73.5 286.1772,-73.5 286.1772,-55.5 240.7241,-55.5"/>
<text text-anchor="middle" x="263.4507" y="-61.5" font-family="Helvetica,sans-Serif" font-size="10.00" fill="#000000">cstring</text>
</g>
<!-- Node11&#45;&gt;Node12 -->
<g id="edge15" class="edge">
<title>Node11&#45;&gt;Node12</title>
<path fill="none" stroke="#191970" d="M263.4507,-110.4179C263.4507,-103.2164 263.4507,-92.8962 263.4507,-83.8632"/>
<polygon fill="#191970" stroke="#191970" points="266.9508,-83.7794 263.4507,-73.7795 259.9508,-83.7795 266.9508,-83.7794"/>
</g>
<!-- Node14 -->
<g id="node15" class="node">
<title>Node14</title>
<polygon fill="#ffffff" stroke="#bfbfbf" points="627.2783,-110.5 627.2783,-128.5 681.623,-128.5 681.623,-110.5 627.2783,-110.5"/>
<text text-anchor="middle" x="654.4507" y="-116.5" font-family="Helvetica,sans-Serif" font-size="10.00" fill="#000000">iostream</text>
</g>
<!-- Node13&#45;&gt;Node14 -->
<g id="edge18" class="edge">
<title>Node13&#45;&gt;Node14</title>
<path fill="none" stroke="#191970" d="M602.6887,-165.4179C611.7881,-157.3458 625.3044,-145.3556 636.2433,-135.6517"/>
<polygon fill="#191970" stroke="#191970" points="638.8321,-138.0339 643.9902,-128.7795 634.1868,-132.7974 638.8321,-138.0339"/>
</g>
<!-- Node15 -->
<g id="node16" class="node">
<title>Node15</title>
<polygon fill="#ffffff" stroke="#bfbfbf" points="565.835,-110.5 565.835,-128.5 609.0664,-128.5 609.0664,-110.5 565.835,-110.5"/>
<text text-anchor="middle" x="587.4507" y="-116.5" font-family="Helvetica,sans-Serif" font-size="10.00" fill="#000000">mutex</text>
</g>
<!-- Node13&#45;&gt;Node15 -->
<g id="edge19" class="edge">
<title>Node13&#45;&gt;Node15</title>
<path fill="none" stroke="#191970" d="M591.625,-165.4179C590.9704,-158.2164 590.0322,-147.8962 589.211,-138.8632"/>
<polygon fill="#191970" stroke="#191970" points="592.6853,-138.4215 588.2943,-128.7795 585.7141,-139.0553 592.6853,-138.4215"/>
</g>
</g>
</svg>
