<?xml version="1.0" encoding="UTF-8" standalone="no"?>
<!DOCTYPE svg PUBLIC "-//W3C//DTD SVG 1.1//EN"
 "http://www.w3.org/Graphics/SVG/1.1/DTD/svg11.dtd">
<!-- Generated by graphviz version 2.40.1 (20161225.0304)
 -->
<!-- Title: src/pcapng_blocks.hpp Pages: 1 -->
<svg width="256pt" height="192pt"
 viewBox="0.00 0.00 256.23 192.00" xmlns="http://www.w3.org/2000/svg" xmlns:xlink="http://www.w3.org/1999/xlink">
<g id="graph0" class="graph" transform="scale(1 1) rotate(0) translate(4 188)">
<title>src/pcapng_blocks.hpp</title>
<polygon fill="#ffffff" stroke="transparent" points="-4,4 -4,-188 252.2344,-188 252.2344,4 -4,4"/>
<!-- Node16 -->
<g id="node1" class="node">
<title>Node16</title>
<polygon fill="#bfbfbf" stroke="#000000" points="62.959,-165.5 62.959,-183.5 181.2441,-183.5 181.2441,-165.5 62.959,-165.5"/>
<text text-anchor="middle" x="122.1016" y="-171.5" font-family="Helvetica,sans-Serif" font-size="10.00" fill="#000000">src/pcapng_blocks.hpp</text>
</g>
<!-- Node17 -->
<g id="node2" class="node">
<title>Node17</title>
<g id="a_node2"><a xlink:href="ring_buffer_8hpp.xhtml" target="_top" xlink:title="Ring Buffer header file. ">
<polygon fill="#ffffff" stroke="#000000" points="0,-110.5 0,-128.5 94.2031,-128.5 94.2031,-110.5 0,-110.5"/>
<text text-anchor="middle" x="47.1016" y="-116.5" font-family="Helvetica,sans-Serif" font-size="10.00" fill="#000000">src/ringBuffer.hpp</text>
</a>
</g>
</g>
<!-- Node16&#45;&gt;Node17 -->
<g id="edge1" class="edge">
<title>Node16&#45;&gt;Node17</title>
<path fill="none" stroke="#191970" d="M101.4998,-159.392C88.0409,-149.5222 70.9102,-136.9596 59.5047,-128.5956"/>
<polygon fill="#191970" stroke="#191970" points="99.583,-162.3266 109.7168,-165.4179 103.7226,-156.6818 99.583,-162.3266"/>
</g>
<!-- Node19 -->
<g id="node4" class="node">
<title>Node19</title>
<g id="a_node4"><a xlink:href="capturing_8hpp.xhtml" target="_top" xlink:title="Network traffic capture header file. ">
<polygon fill="#ffffff" stroke="#000000" points="74.7471,-55.5 74.7471,-73.5 167.4561,-73.5 167.4561,-55.5 74.7471,-55.5"/>
<text text-anchor="middle" x="121.1016" y="-61.5" font-family="Helvetica,sans-Serif" font-size="10.00" fill="#000000">src/capturing.hpp</text>
</a>
</g>
</g>
<!-- Node16&#45;&gt;Node19 -->
<g id="edge6" class="edge">
<title>Node16&#45;&gt;Node19</title>
<path fill="none" stroke="#191970" d="M121.926,-155.1899C121.7084,-131.2569 121.3466,-91.4552 121.1845,-73.6261"/>
<polygon fill="#191970" stroke="#191970" points="118.4289,-155.5305 122.0197,-165.4982 125.4286,-155.4668 118.4289,-155.5305"/>
</g>
<!-- Node21 -->
<g id="node6" class="node">
<title>Node21</title>
<g id="a_node6"><a xlink:href="file_handler_8cpp.xhtml" target="_top" xlink:title="File handler source file. ">
<polygon fill="#ffffff" stroke="#000000" points="149.9688,-110.5 149.9688,-128.5 248.2344,-128.5 248.2344,-110.5 149.9688,-110.5"/>
<text text-anchor="middle" x="199.1016" y="-116.5" font-family="Helvetica,sans-Serif" font-size="10.00" fill="#000000">src/fileHandler.cpp</text>
</a>
</g>
</g>
<!-- Node16&#45;&gt;Node21 -->
<g id="edge7" class="edge">
<title>Node16&#45;&gt;Node21</title>
<path fill="none" stroke="#191970" d="M143.2527,-159.392C157.0705,-149.5222 174.6581,-136.9596 186.3677,-128.5956"/>
<polygon fill="#191970" stroke="#191970" points="140.9196,-156.7574 134.8165,-165.4179 144.9882,-162.4535 140.9196,-156.7574"/>
</g>
<!-- Node18 -->
<g id="node3" class="node">
<title>Node18</title>
<g id="a_node3"><a xlink:href="capturing_8cpp.xhtml" target="_top" xlink:title="Network traffic capture sources. ">
<polygon fill="#ffffff" stroke="#000000" points="1.0278,-.5 1.0278,-18.5 93.1753,-18.5 93.1753,-.5 1.0278,-.5"/>
<text text-anchor="middle" x="47.1016" y="-6.5" font-family="Helvetica,sans-Serif" font-size="10.00" fill="#000000">src/capturing.cpp</text>
</a>
</g>
</g>
<!-- Node17&#45;&gt;Node18 -->
<g id="edge2" class="edge">
<title>Node17&#45;&gt;Node18</title>
<path fill="none" stroke="#191970" d="M47.1016,-100.1899C47.1016,-76.2569 47.1016,-36.4552 47.1016,-18.6261"/>
<polygon fill="#191970" stroke="#191970" points="43.6017,-100.4982 47.1016,-110.4982 50.6017,-100.4983 43.6017,-100.4982"/>
</g>
<!-- Node17&#45;&gt;Node19 -->
<g id="edge3" class="edge">
<title>Node17&#45;&gt;Node19</title>
<path fill="none" stroke="#191970" d="M67.4287,-104.392C80.7081,-94.5222 97.6104,-81.9596 108.8638,-73.5956"/>
<polygon fill="#191970" stroke="#191970" points="65.2593,-101.6435 59.3212,-110.4179 69.435,-107.2617 65.2593,-101.6435"/>
</g>
<!-- Node19&#45;&gt;Node18 -->
<g id="edge4" class="edge">
<title>Node19&#45;&gt;Node18</title>
<path fill="none" stroke="#191970" d="M100.7745,-49.392C87.4951,-39.5222 70.5927,-26.9596 59.3393,-18.5956"/>
<polygon fill="#191970" stroke="#191970" points="98.7681,-52.2617 108.882,-55.4179 102.9438,-46.6435 98.7681,-52.2617"/>
</g>
<!-- Node20 -->
<g id="node5" class="node">
<title>Node20</title>
<g id="a_node5"><a xlink:href="main_8cpp.xhtml" target="_top" xlink:title="Main source file. ">
<polygon fill="#ffffff" stroke="#000000" points="110.7593,-.5 110.7593,-18.5 183.4438,-18.5 183.4438,-.5 110.7593,-.5"/>
<text text-anchor="middle" x="147.1016" y="-6.5" font-family="Helvetica,sans-Serif" font-size="10.00" fill="#000000">src/main.cpp</text>
</a>
</g>
</g>
<!-- Node19&#45;&gt;Node20 -->
<g id="edge5" class="edge">
<title>Node19&#45;&gt;Node20</title>
<path fill="none" stroke="#191970" d="M129.7196,-46.2696C134.0738,-37.0587 139.1708,-26.2766 142.7149,-18.7795"/>
<polygon fill="#191970" stroke="#191970" points="126.5045,-44.8813 125.3949,-55.4179 132.833,-47.873 126.5045,-44.8813"/>
</g>
</g>
</svg>
