<?xml version="1.0" encoding="UTF-8" standalone="no"?>
<!DOCTYPE svg PUBLIC "-//W3C//DTD SVG 1.1//EN"
 "http://www.w3.org/Graphics/SVG/1.1/DTD/svg11.dtd">
<!-- Generated by graphviz version 2.40.1 (20161225.0304)
 -->
<!-- Title: NAMON::computePaddingLen Pages: 1 -->
<svg width="354pt" height="272pt"
 viewBox="0.00 0.00 353.91 272.00" xmlns="http://www.w3.org/2000/svg" xmlns:xlink="http://www.w3.org/1999/xlink">
<g id="graph0" class="graph" transform="scale(1 1) rotate(0) translate(4 268)">
<title>NAMON::computePaddingLen</title>
<polygon fill="#ffffff" stroke="transparent" points="-4,4 -4,-268 349.9102,-268 349.9102,4 -4,4"/>
<!-- Node1 -->
<g id="node1" class="node">
<title>Node1</title>
<polygon fill="#bfbfbf" stroke="#000000" points="0,-122.5 0,-140.5 150.5166,-140.5 150.5166,-122.5 0,-122.5"/>
<text text-anchor="middle" x="75.2583" y="-128.5" font-family="Helvetica,sans-Serif" font-size="10.00" fill="#000000">NAMON::computePaddingLen</text>
</g>
<!-- Node1&#45;&gt;Node1 -->
<g id="edge1" class="edge">
<title>Node1&#45;&gt;Node1</title>
<path fill="none" stroke="#191970" d="M39.7939,-147.5191C38.0923,-153.7806 49.9138,-159 75.2583,-159 109.77,-159 119.2068,-149.322 103.5687,-140.5134"/>
<polygon fill="#191970" stroke="#191970" points="42.2519,-150.0107 46.9479,-140.5134 37.3543,-145.0094 42.2519,-150.0107"/>
</g>
<!-- Node2 -->
<g id="node2" class="node">
<title>Node2</title>
<g id="a_node2"><a xlink:href="class_n_a_m_o_n_1_1_section_header_block.xhtml#a1af577c6ff41b82f251d098df1fa95a5" target="_top" xlink:title="Class constructor. ">
<polygon fill="#ffffff" stroke="#000000" points="191.5215,-235.5 191.5215,-263.5 340.9053,-263.5 340.9053,-235.5 191.5215,-235.5"/>
<text text-anchor="start" x="199.5215" y="-251.5" font-family="Helvetica,sans-Serif" font-size="10.00" fill="#000000">NAMON::SectionHeaderBlock</text>
<text text-anchor="middle" x="266.2134" y="-241.5" font-family="Helvetica,sans-Serif" font-size="10.00" fill="#000000">::SectionHeaderBlock</text>
</a>
</g>
</g>
<!-- Node1&#45;&gt;Node2 -->
<g id="edge2" class="edge">
<title>Node1&#45;&gt;Node2</title>
<path fill="none" stroke="#191970" d="M90.2427,-148.0801C110.2258,-169.2278 147.6219,-205.5614 186.5166,-226.5 192.8567,-229.9131 199.7604,-232.8704 206.7657,-235.4197"/>
<polygon fill="#191970" stroke="#191970" points="92.6091,-145.4845 83.2426,-140.5327 87.4767,-150.2447 92.6091,-145.4845"/>
</g>
<!-- Node3 -->
<g id="node3" class="node">
<title>Node3</title>
<g id="a_node3"><a xlink:href="class_n_a_m_o_n_1_1_section_header_block.xhtml#a24dadbc5fa9da77fd032fe1d8f22bcf8" target="_top" xlink:title="Writes whole block into the file. ">
<polygon fill="#ffffff" stroke="#000000" points="191.5215,-188.5 191.5215,-216.5 340.9053,-216.5 340.9053,-188.5 191.5215,-188.5"/>
<text text-anchor="start" x="199.5215" y="-204.5" font-family="Helvetica,sans-Serif" font-size="10.00" fill="#000000">NAMON::SectionHeaderBlock</text>
<text text-anchor="middle" x="266.2134" y="-194.5" font-family="Helvetica,sans-Serif" font-size="10.00" fill="#000000">::write</text>
</a>
</g>
</g>
<!-- Node1&#45;&gt;Node3 -->
<g id="edge3" class="edge">
<title>Node1&#45;&gt;Node3</title>
<path fill="none" stroke="#191970" d="M103.4576,-144.8426C125.7143,-155.085 157.7083,-169.1753 186.5166,-179.5 195.3284,-182.6581 204.8033,-185.6952 214.0366,-188.4692"/>
<polygon fill="#191970" stroke="#191970" points="104.8026,-141.6083 94.2584,-140.573 101.8556,-147.9577 104.8026,-141.6083"/>
</g>
<!-- Node4 -->
<g id="node4" class="node">
<title>Node4</title>
<g id="a_node4"><a xlink:href="class_n_a_m_o_n_1_1_interface_description_block.xhtml#aea625046914a1726033a30734a30653d" target="_top" xlink:title="Class constructor that sets options lengths and block total length. ">
<polygon fill="#ffffff" stroke="#000000" points="186.5166,-141.5 186.5166,-169.5 345.9102,-169.5 345.9102,-141.5 186.5166,-141.5"/>
<text text-anchor="start" x="194.5166" y="-157.5" font-family="Helvetica,sans-Serif" font-size="10.00" fill="#000000">NAMON::InterfaceDescription</text>
<text text-anchor="middle" x="266.2134" y="-147.5" font-family="Helvetica,sans-Serif" font-size="10.00" fill="#000000">Block::InterfaceDescriptionBlock</text>
</a>
</g>
</g>
<!-- Node1&#45;&gt;Node4 -->
<g id="edge4" class="edge">
<title>Node1&#45;&gt;Node4</title>
<path fill="none" stroke="#191970" d="M156.9983,-141.7734C166.7677,-143.0013 176.7331,-144.2538 186.4737,-145.478"/>
<polygon fill="#191970" stroke="#191970" points="157.2646,-138.2794 146.9062,-140.505 156.3917,-145.2248 157.2646,-138.2794"/>
</g>
<!-- Node5 -->
<g id="node5" class="node">
<title>Node5</title>
<g id="a_node5"><a xlink:href="class_n_a_m_o_n_1_1_interface_description_block.xhtml#adab39d43a4a5d9fde993d2c271aa4a8a" target="_top" xlink:title="Writes the whole block into the file. ">
<polygon fill="#ffffff" stroke="#000000" points="192.3589,-94.5 192.3589,-122.5 340.0679,-122.5 340.0679,-94.5 192.3589,-94.5"/>
<text text-anchor="start" x="200.3589" y="-110.5" font-family="Helvetica,sans-Serif" font-size="10.00" fill="#000000">NAMON::InterfaceDescription</text>
<text text-anchor="middle" x="266.2134" y="-100.5" font-family="Helvetica,sans-Serif" font-size="10.00" fill="#000000">Block::write</text>
</a>
</g>
</g>
<!-- Node1&#45;&gt;Node5 -->
<g id="edge5" class="edge">
<title>Node1&#45;&gt;Node5</title>
<path fill="none" stroke="#191970" d="M160.2899,-121.2582C170.9079,-119.9793 181.7002,-118.6794 192.1332,-117.4227"/>
<polygon fill="#191970" stroke="#191970" points="159.6904,-117.805 150.1807,-122.4758 160.5276,-124.7548 159.6904,-117.805"/>
</g>
<!-- Node6 -->
<g id="node6" class="node">
<title>Node6</title>
<g id="a_node6"><a xlink:href="class_n_a_m_o_n_1_1_enhanced_packet_block.xhtml#a1150b18dd5f1faf6b896f0c96d4ded4b" target="_top" xlink:title="Writes whole block into the output file. ">
<polygon fill="#ffffff" stroke="#000000" points="186.7925,-47.5 186.7925,-75.5 345.6343,-75.5 345.6343,-47.5 186.7925,-47.5"/>
<text text-anchor="start" x="194.7925" y="-63.5" font-family="Helvetica,sans-Serif" font-size="10.00" fill="#000000">NAMON::EnhancedPacketBlock</text>
<text text-anchor="middle" x="266.2134" y="-53.5" font-family="Helvetica,sans-Serif" font-size="10.00" fill="#000000">::write</text>
</a>
</g>
</g>
<!-- Node1&#45;&gt;Node6 -->
<g id="edge6" class="edge">
<title>Node1&#45;&gt;Node6</title>
<path fill="none" stroke="#191970" d="M104.762,-118.3597C127.0069,-108.6835 158.3889,-95.5219 186.5166,-85.5 196.181,-82.0566 206.6149,-78.6771 216.6481,-75.591"/>
<polygon fill="#191970" stroke="#191970" points="103.2824,-115.1867 95.5269,-122.4049 106.091,-121.5985 103.2824,-115.1867"/>
</g>
<!-- Node7 -->
<g id="node7" class="node">
<title>Node7</title>
<g id="a_node7"><a xlink:href="class_n_a_m_o_n_1_1_custom_block.xhtml#a7799e6c09eda458e7749e9e7f29d005e" target="_top" xlink:title="Writes the whole block into the file. ">
<polygon fill="#ffffff" stroke="#000000" points="207.3711,-.5 207.3711,-28.5 325.0557,-28.5 325.0557,-.5 207.3711,-.5"/>
<text text-anchor="start" x="215.3711" y="-16.5" font-family="Helvetica,sans-Serif" font-size="10.00" fill="#000000">NAMON::CustomBlock</text>
<text text-anchor="middle" x="266.2134" y="-6.5" font-family="Helvetica,sans-Serif" font-size="10.00" fill="#000000">::write</text>
</a>
</g>
</g>
<!-- Node1&#45;&gt;Node7 -->
<g id="edge7" class="edge">
<title>Node1&#45;&gt;Node7</title>
<path fill="none" stroke="#191970" d="M90.6594,-115.0392C110.8338,-94.384 148.1716,-59.1688 186.5166,-38.5 193.6397,-34.6605 201.4601,-31.3523 209.3318,-28.5268"/>
<polygon fill="#191970" stroke="#191970" points="87.9687,-112.7882 83.5704,-122.427 93.0195,-117.6348 87.9687,-112.7882"/>
</g>
</g>
</svg>
