<?xml version="1.0" encoding="UTF-8" standalone="no"?>
<!DOCTYPE svg PUBLIC "-//W3C//DTD SVG 1.1//EN"
 "http://www.w3.org/Graphics/SVG/1.1/DTD/svg11.dtd">
<!-- Generated by graphviz version 2.40.1 (20161225.0304)
 -->
<!-- Title: src/ringBuffer.tpp Pages: 1 -->
<svg width="190pt" height="192pt"
 viewBox="0.00 0.00 190.42 192.00" xmlns="http://www.w3.org/2000/svg" xmlns:xlink="http://www.w3.org/1999/xlink">
<g id="graph0" class="graph" transform="scale(1 1) rotate(0) translate(4 188)">
<title>src/ringBuffer.tpp</title>
<polygon fill="#ffffff" stroke="transparent" points="-4,4 -4,-188 186.416,-188 186.416,4 -4,4"/>
<!-- Node1 -->
<g id="node1" class="node">
<title>Node1</title>
<polygon fill="#bfbfbf" stroke="#000000" points="37.3638,-165.5 37.3638,-183.5 128.7837,-183.5 128.7837,-165.5 37.3638,-165.5"/>
<text text-anchor="middle" x="83.0737" y="-171.5" font-family="Helvetica,sans-Serif" font-size="10.00" fill="#000000">src/ringBuffer.tpp</text>
</g>
<!-- Node2 -->
<g id="node2" class="node">
<title>Node2</title>
<g id="a_node2"><a xlink:href="ring_buffer_8hpp.xhtml" target="_top" xlink:title="Ring Buffer header file. ">
<polygon fill="#ffffff" stroke="#000000" points="35.9722,-110.5 35.9722,-128.5 130.1753,-128.5 130.1753,-110.5 35.9722,-110.5"/>
<text text-anchor="middle" x="83.0737" y="-116.5" font-family="Helvetica,sans-Serif" font-size="10.00" fill="#000000">src/ringBuffer.hpp</text>
</a>
</g>
</g>
<!-- Node1&#45;&gt;Node2 -->
<g id="edge1" class="edge">
<title>Node1&#45;&gt;Node2</title>
<path fill="none" stroke="#191970" d="M83.0737,-155.383C83.0737,-146.3738 83.0737,-136.0373 83.0737,-128.7795"/>
<polygon fill="#191970" stroke="#191970" points="79.5738,-155.4178 83.0737,-165.4179 86.5738,-155.4179 79.5738,-155.4178"/>
</g>
<!-- Node3 -->
<g id="node3" class="node">
<title>Node3</title>
<g id="a_node3"><a xlink:href="capturing_8cpp.xhtml" target="_top" xlink:title="Network traffic capture sources. ">
<polygon fill="#ffffff" stroke="#000000" points="0,-.5 0,-18.5 92.1475,-18.5 92.1475,-.5 0,-.5"/>
<text text-anchor="middle" x="46.0737" y="-6.5" font-family="Helvetica,sans-Serif" font-size="10.00" fill="#000000">src/capturing.cpp</text>
</a>
</g>
</g>
<!-- Node2&#45;&gt;Node3 -->
<g id="edge2" class="edge">
<title>Node2&#45;&gt;Node3</title>
<path fill="none" stroke="#191970" d="M75.2541,-100.8461C71.9416,-92.6705 68.1461,-82.9233 65.0737,-74 58.3851,-54.5736 51.9129,-31.3722 48.5209,-18.7684"/>
<polygon fill="#191970" stroke="#191970" points="72.0548,-102.2687 79.1009,-110.181 78.5268,-99.6017 72.0548,-102.2687"/>
</g>
<!-- Node4 -->
<g id="node4" class="node">
<title>Node4</title>
<g id="a_node4"><a xlink:href="capturing_8hpp.xhtml" target="_top" xlink:title="Network traffic capture header file. ">
<polygon fill="#ffffff" stroke="#000000" points="73.7192,-55.5 73.7192,-73.5 166.4282,-73.5 166.4282,-55.5 73.7192,-55.5"/>
<text text-anchor="middle" x="120.0737" y="-61.5" font-family="Helvetica,sans-Serif" font-size="10.00" fill="#000000">src/capturing.hpp</text>
</a>
</g>
</g>
<!-- Node2&#45;&gt;Node4 -->
<g id="edge3" class="edge">
<title>Node2&#45;&gt;Node4</title>
<path fill="none" stroke="#191970" d="M94.9438,-101.8553C101.2246,-92.519 108.6803,-81.4361 113.8312,-73.7795"/>
<polygon fill="#191970" stroke="#191970" points="91.8613,-100.167 89.1835,-110.4179 97.6694,-104.0743 91.8613,-100.167"/>
</g>
<!-- Node4&#45;&gt;Node3 -->
<g id="edge4" class="edge">
<title>Node4&#45;&gt;Node3</title>
<path fill="none" stroke="#191970" d="M99.7466,-49.392C86.4672,-39.5222 69.5649,-26.9596 58.3115,-18.5956"/>
<polygon fill="#191970" stroke="#191970" points="97.7403,-52.2617 107.8541,-55.4179 101.916,-46.6435 97.7403,-52.2617"/>
</g>
<!-- Node5 -->
<g id="node5" class="node">
<title>Node5</title>
<g id="a_node5"><a xlink:href="main_8cpp.xhtml" target="_top" xlink:title="Main source file. ">
<polygon fill="#ffffff" stroke="#000000" points="109.7314,-.5 109.7314,-18.5 182.416,-18.5 182.416,-.5 109.7314,-.5"/>
<text text-anchor="middle" x="146.0737" y="-6.5" font-family="Helvetica,sans-Serif" font-size="10.00" fill="#000000">src/main.cpp</text>
</a>
</g>
</g>
<!-- Node4&#45;&gt;Node5 -->
<g id="edge5" class="edge">
<title>Node4&#45;&gt;Node5</title>
<path fill="none" stroke="#191970" d="M128.6918,-46.2696C133.046,-37.0587 138.143,-26.2766 141.6871,-18.7795"/>
<polygon fill="#191970" stroke="#191970" points="125.4767,-44.8813 124.3671,-55.4179 131.8052,-47.873 125.4767,-44.8813"/>
</g>
</g>
</svg>
