<?xml version="1.0" encoding="UTF-8" standalone="no"?>
<!DOCTYPE svg PUBLIC "-//W3C//DTD SVG 1.1//EN"
 "http://www.w3.org/Graphics/SVG/1.1/DTD/svg11.dtd">
<!-- Generated by graphviz version 2.40.1 (20161225.0304)
 -->
<!-- Title: src/ringBuffer.hpp Pages: 1 -->
<svg width="1052pt" height="302pt"
 viewBox="0.00 0.00 1051.96 302.00" xmlns="http://www.w3.org/2000/svg" xmlns:xlink="http://www.w3.org/1999/xlink">
<g id="graph0" class="graph" transform="scale(1 1) rotate(0) translate(4 298)">
<title>src/ringBuffer.hpp</title>
<polygon fill="#ffffff" stroke="transparent" points="-4,4 -4,-298 1047.9561,-298 1047.9561,4 -4,4"/>
<!-- Node0 -->
<g id="node1" class="node">
<title>Node0</title>
<polygon fill="#bfbfbf" stroke="#000000" points="640.1987,-275.5 640.1987,-293.5 734.4019,-293.5 734.4019,-275.5 640.1987,-275.5"/>
<text text-anchor="middle" x="687.3003" y="-281.5" font-family="Helvetica,sans-Serif" font-size="10.00" fill="#000000">src/ringBuffer.hpp</text>
</g>
<!-- Node1 -->
<g id="node2" class="node">
<title>Node1</title>
<polygon fill="#ffffff" stroke="#bfbfbf" points="291.6846,-110.5 291.6846,-128.5 334.916,-128.5 334.916,-110.5 291.6846,-110.5"/>
<text text-anchor="middle" x="313.3003" y="-116.5" font-family="Helvetica,sans-Serif" font-size="10.00" fill="#000000">vector</text>
</g>
<!-- Node0&#45;&gt;Node1 -->
<g id="edge1" class="edge">
<title>Node0&#45;&gt;Node1</title>
<path fill="none" stroke="#191970" d="M640.1291,-281.319C558.457,-275.3129 394.3617,-260.9069 341.3003,-239 304.0795,-223.6331 287.1496,-220.0962 269.3003,-184 260.479,-166.161 276.2465,-147.5697 291.3013,-134.9559"/>
<polygon fill="#191970" stroke="#191970" points="293.7046,-137.5199 299.4311,-128.606 289.3957,-132.0032 293.7046,-137.5199"/>
</g>
<!-- Node2 -->
<g id="node3" class="node">
<title>Node2</title>
<polygon fill="#ffffff" stroke="#bfbfbf" points="664.5737,-220.5 664.5737,-238.5 710.0269,-238.5 710.0269,-220.5 664.5737,-220.5"/>
<text text-anchor="middle" x="687.3003" y="-226.5" font-family="Helvetica,sans-Serif" font-size="10.00" fill="#000000">atomic</text>
</g>
<!-- Node0&#45;&gt;Node2 -->
<g id="edge2" class="edge">
<title>Node0&#45;&gt;Node2</title>
<path fill="none" stroke="#191970" d="M687.3003,-275.4179C687.3003,-268.2164 687.3003,-257.8962 687.3003,-248.8632"/>
<polygon fill="#191970" stroke="#191970" points="690.8004,-248.7794 687.3003,-238.7795 683.8004,-248.7795 690.8004,-248.7794"/>
</g>
<!-- Node3 -->
<g id="node4" class="node">
<title>Node3</title>
<polygon fill="#ffffff" stroke="#bfbfbf" points="560.6846,-110.5 560.6846,-128.5 603.916,-128.5 603.916,-110.5 560.6846,-110.5"/>
<text text-anchor="middle" x="582.3003" y="-116.5" font-family="Helvetica,sans-Serif" font-size="10.00" fill="#000000">mutex</text>
</g>
<!-- Node0&#45;&gt;Node3 -->
<g id="edge3" class="edge">
<title>Node0&#45;&gt;Node3</title>
<path fill="none" stroke="#191970" d="M680.2923,-275.3426C673.5327,-266.3298 663.1932,-252.0585 655.3003,-239 636.1756,-207.3589 637.0971,-196.225 617.3003,-165 611.0426,-155.1298 603.1738,-144.755 596.483,-136.4088"/>
<polygon fill="#191970" stroke="#191970" points="599.0954,-134.0745 590.0538,-128.5518 593.6779,-138.5075 599.0954,-134.0745"/>
</g>
<!-- Node4 -->
<g id="node5" class="node">
<title>Node4</title>
<polygon fill="#ffffff" stroke="#bfbfbf" points="728.123,-220.5 728.123,-238.5 772.4775,-238.5 772.4775,-220.5 728.123,-220.5"/>
<text text-anchor="middle" x="750.3003" y="-226.5" font-family="Helvetica,sans-Serif" font-size="10.00" fill="#000000">thread</text>
</g>
<!-- Node0&#45;&gt;Node4 -->
<g id="edge4" class="edge">
<title>Node0&#45;&gt;Node4</title>
<path fill="none" stroke="#191970" d="M697.7035,-275.4179C707.0402,-267.2667 720.9536,-255.1201 732.1254,-245.3669"/>
<polygon fill="#191970" stroke="#191970" points="734.4397,-247.9927 739.6711,-238.7795 729.8361,-242.7194 734.4397,-247.9927"/>
</g>
<!-- Node5 -->
<g id="node6" class="node">
<title>Node5</title>
<polygon fill="#ffffff" stroke="#bfbfbf" points="789.9951,-220.5 789.9951,-238.5 886.6055,-238.5 886.6055,-220.5 789.9951,-220.5"/>
<text text-anchor="middle" x="838.3003" y="-226.5" font-family="Helvetica,sans-Serif" font-size="10.00" fill="#000000">condition_variable</text>
</g>
<!-- Node0&#45;&gt;Node5 -->
<g id="edge5" class="edge">
<title>Node0&#45;&gt;Node5</title>
<path fill="none" stroke="#191970" d="M712.2349,-275.4179C737.2273,-266.3147 775.9009,-252.2283 803.8239,-242.0576"/>
<polygon fill="#191970" stroke="#191970" points="805.3814,-245.2153 813.5796,-238.5042 802.9856,-238.6381 805.3814,-245.2153"/>
</g>
<!-- Node6 -->
<g id="node7" class="node">
<title>Node6</title>
<polygon fill="#ffffff" stroke="#bfbfbf" points="904.2881,-220.5 904.2881,-238.5 950.3125,-238.5 950.3125,-220.5 904.2881,-220.5"/>
<text text-anchor="middle" x="927.3003" y="-226.5" font-family="Helvetica,sans-Serif" font-size="10.00" fill="#000000">pcap.h</text>
</g>
<!-- Node0&#45;&gt;Node6 -->
<g id="edge6" class="edge">
<title>Node0&#45;&gt;Node6</title>
<path fill="none" stroke="#191970" d="M733.3819,-275.4289C773.535,-267.2982 833.5181,-254.6093 894.4927,-239.0702"/>
<polygon fill="#191970" stroke="#191970" points="895.4713,-242.4325 904.2844,-236.5521 893.7278,-235.6531 895.4713,-242.4325"/>
</g>
<!-- Node7 -->
<g id="node8" class="node">
<title>Node7</title>
<g id="a_node8"><a xlink:href="pcapng__blocks_8hpp.xhtml" target="_top" xlink:title="Pcap&#45;ng block structures. ">
<polygon fill="#ffffff" stroke="#000000" points="350.2119,-220.5 350.2119,-238.5 452.3887,-238.5 452.3887,-220.5 350.2119,-220.5"/>
<text text-anchor="middle" x="401.3003" y="-226.5" font-family="Helvetica,sans-Serif" font-size="10.00" fill="#000000">pcapng_blocks.hpp</text>
</a>
</g>
</g>
<!-- Node0&#45;&gt;Node7 -->
<g id="edge7" class="edge">
<title>Node0&#45;&gt;Node7</title>
<path fill="none" stroke="#191970" d="M640.3935,-275.4795C590.5198,-265.8884 511.6217,-250.7156 458.2246,-240.447"/>
<polygon fill="#191970" stroke="#191970" points="458.7138,-236.977 448.2327,-238.5255 457.3918,-243.851 458.7138,-236.977"/>
</g>
<!-- Node21 -->
<g id="node22" class="node">
<title>Node21</title>
<g id="a_node22"><a xlink:href="tool_8hpp.xhtml" target="_top" xlink:title="Determining applications header file. ">
<polygon fill="#ffffff" stroke="#000000" points="134.5073,-220.5 134.5073,-238.5 186.0933,-238.5 186.0933,-220.5 134.5073,-220.5"/>
<text text-anchor="middle" x="160.3003" y="-226.5" font-family="Helvetica,sans-Serif" font-size="10.00" fill="#000000">tool.hpp</text>
</a>
</g>
</g>
<!-- Node0&#45;&gt;Node21 -->
<g id="edge27" class="edge">
<title>Node0&#45;&gt;Node21</title>
<path fill="none" stroke="#191970" d="M639.874,-281.8215C553.2086,-276.528 363.5963,-263.1003 205.3003,-239 202.4141,-238.5606 199.4345,-238.0529 196.4469,-237.5054"/>
<polygon fill="#191970" stroke="#191970" points="196.8698,-234.0218 186.3832,-235.532 195.5228,-240.891 196.8698,-234.0218"/>
</g>
<!-- Node22 -->
<g id="node23" class="node">
<title>Node22</title>
<g id="a_node23"><a xlink:href="ring_buffer_8tpp.xhtml" target="_top" xlink:title="Ring Buffer template functions. ">
<polygon fill="#ffffff" stroke="#000000" points="968.6445,-220.5 968.6445,-238.5 1043.9561,-238.5 1043.9561,-220.5 968.6445,-220.5"/>
<text text-anchor="middle" x="1006.3003" y="-226.5" font-family="Helvetica,sans-Serif" font-size="10.00" fill="#000000">ringBuffer.tpp</text>
</a>
</g>
</g>
<!-- Node0&#45;&gt;Node22 -->
<g id="edge30" class="edge">
<title>Node0&#45;&gt;Node22</title>
<path fill="none" stroke="#191970" d="M734.5575,-277.0901C786.8103,-268.7863 873.7349,-254.6473 958.5496,-239.0886"/>
<polygon fill="#191970" stroke="#191970" points="959.4119,-242.4887 968.6119,-237.2341 958.1431,-235.6047 959.4119,-242.4887"/>
</g>
<!-- Node7&#45;&gt;Node1 -->
<g id="edge11" class="edge">
<title>Node7&#45;&gt;Node1</title>
<path fill="none" stroke="#191970" d="M362.1194,-220.4414C329.3828,-211.9857 286.4667,-198.5195 276.3003,-184 265.1797,-168.1177 279.8421,-148.671 293.8627,-135.3086"/>
<polygon fill="#191970" stroke="#191970" points="296.2833,-137.8396 301.4181,-128.5722 291.6248,-132.6148 296.2833,-137.8396"/>
</g>
<!-- Node8 -->
<g id="node9" class="node">
<title>Node8</title>
<polygon fill="#ffffff" stroke="#bfbfbf" points="563.8496,-165.5 563.8496,-183.5 608.751,-183.5 608.751,-165.5 563.8496,-165.5"/>
<text text-anchor="middle" x="586.3003" y="-171.5" font-family="Helvetica,sans-Serif" font-size="10.00" fill="#000000">cstdint</text>
</g>
<!-- Node7&#45;&gt;Node8 -->
<g id="edge8" class="edge">
<title>Node7&#45;&gt;Node8</title>
<path fill="none" stroke="#191970" d="M432.2992,-220.4409C461.4124,-211.9109 506.4404,-198.6621 553.8036,-184.4325"/>
<polygon fill="#191970" stroke="#191970" points="555.0538,-187.7115 563.6214,-181.4788 553.037,-181.0082 555.0538,-187.7115"/>
</g>
<!-- Node9 -->
<g id="node10" class="node">
<title>Node9</title>
<polygon fill="#ffffff" stroke="#bfbfbf" points="285.6304,-165.5 285.6304,-183.5 334.9702,-183.5 334.9702,-165.5 285.6304,-165.5"/>
<text text-anchor="middle" x="310.3003" y="-171.5" font-family="Helvetica,sans-Serif" font-size="10.00" fill="#000000">fstream</text>
</g>
<!-- Node7&#45;&gt;Node9 -->
<g id="edge9" class="edge">
<title>Node7&#45;&gt;Node9</title>
<path fill="none" stroke="#191970" d="M386.2735,-220.4179C372.0472,-211.8195 350.465,-198.7754 333.9345,-188.7844"/>
<polygon fill="#191970" stroke="#191970" points="335.7181,-185.7729 325.3494,-183.5956 332.0973,-191.7637 335.7181,-185.7729"/>
</g>
<!-- Node10 -->
<g id="node11" class="node">
<title>Node10</title>
<polygon fill="#ffffff" stroke="#bfbfbf" points="139.0737,-55.5 139.0737,-73.5 179.5269,-73.5 179.5269,-55.5 139.0737,-55.5"/>
<text text-anchor="middle" x="159.3003" y="-61.5" font-family="Helvetica,sans-Serif" font-size="10.00" fill="#000000">string</text>
</g>
<!-- Node7&#45;&gt;Node10 -->
<g id="edge10" class="edge">
<title>Node7&#45;&gt;Node10</title>
<path fill="none" stroke="#191970" d="M399.7008,-220.3765C395.2669,-197.9128 380.6597,-139.6101 344.3003,-110 320.745,-90.8172 235.7427,-75.7368 189.6032,-68.7482"/>
<polygon fill="#191970" stroke="#191970" points="189.9806,-65.266 179.5759,-67.2642 188.9558,-72.1906 189.9806,-65.266"/>
</g>
<!-- Node11 -->
<g id="node12" class="node">
<title>Node11</title>
<polygon fill="#ffffff" stroke="#bfbfbf" points="510.5737,-165.5 510.5737,-183.5 546.0269,-183.5 546.0269,-165.5 510.5737,-165.5"/>
<text text-anchor="middle" x="528.3003" y="-171.5" font-family="Helvetica,sans-Serif" font-size="10.00" fill="#000000">map</text>
</g>
<!-- Node7&#45;&gt;Node11 -->
<g id="edge12" class="edge">
<title>Node7&#45;&gt;Node11</title>
<path fill="none" stroke="#191970" d="M422.2718,-220.4179C443.7245,-211.1273 477.1625,-196.6463 500.742,-186.4347"/>
<polygon fill="#191970" stroke="#191970" points="502.3947,-189.5331 510.1802,-182.3473 499.6128,-183.1096 502.3947,-189.5331"/>
</g>
<!-- Node12 -->
<g id="node13" class="node">
<title>Node12</title>
<g id="a_node13"><a xlink:href="tcpip__headers_8hpp.xhtml" target="_top" xlink:title="Protocol headers. ">
<polygon fill="#ffffff" stroke="#000000" points="274.1577,-55.5 274.1577,-73.5 372.4429,-73.5 372.4429,-55.5 274.1577,-55.5"/>
<text text-anchor="middle" x="323.3003" y="-61.5" font-family="Helvetica,sans-Serif" font-size="10.00" fill="#000000">tcpip_headers.hpp</text>
</a>
</g>
</g>
<!-- Node7&#45;&gt;Node12 -->
<g id="edge13" class="edge">
<title>Node7&#45;&gt;Node12</title>
<path fill="none" stroke="#191970" d="M401.4528,-220.391C401.4041,-199.396 398.9638,-146.6028 377.3003,-110 370.0084,-97.6796 358.1321,-87.1314 347.3713,-79.3023"/>
<polygon fill="#191970" stroke="#191970" points="349.3164,-76.3923 339.0895,-73.6245 345.3583,-82.1658 349.3164,-76.3923"/>
</g>
<!-- Node14 -->
<g id="node15" class="node">
<title>Node14</title>
<g id="a_node15"><a xlink:href="cache_8hpp.xhtml" target="_top" xlink:title="Cache implementation header file. ">
<polygon fill="#ffffff" stroke="#000000" points="129.2266,-165.5 129.2266,-183.5 191.374,-183.5 191.374,-165.5 129.2266,-165.5"/>
<text text-anchor="middle" x="160.3003" y="-171.5" font-family="Helvetica,sans-Serif" font-size="10.00" fill="#000000">cache.hpp</text>
</a>
</g>
</g>
<!-- Node7&#45;&gt;Node14 -->
<g id="edge15" class="edge">
<title>Node7&#45;&gt;Node14</title>
<path fill="none" stroke="#191970" d="M361.7739,-220.4795C317.5462,-210.386 246.2316,-194.1109 201.381,-183.8753"/>
<polygon fill="#191970" stroke="#191970" points="201.9353,-180.4118 191.4072,-181.5991 200.3778,-187.2364 201.9353,-180.4118"/>
</g>
<!-- Node19 -->
<g id="node20" class="node">
<title>Node19</title>
<g id="a_node20"><a xlink:href="debug_8hpp.xhtml" target="_top" xlink:title="Debugging functions. ">
<polygon fill="#ffffff" stroke="#000000" points="429.665,-165.5 429.665,-183.5 492.9355,-183.5 492.9355,-165.5 429.665,-165.5"/>
<text text-anchor="middle" x="461.3003" y="-171.5" font-family="Helvetica,sans-Serif" font-size="10.00" fill="#000000">debug.hpp</text>
</a>
</g>
</g>
<!-- Node7&#45;&gt;Node19 -->
<g id="edge24" class="edge">
<title>Node7&#45;&gt;Node19</title>
<path fill="none" stroke="#191970" d="M411.2081,-220.4179C420.0139,-212.3458 433.0942,-200.3556 443.6803,-190.6517"/>
<polygon fill="#191970" stroke="#191970" points="446.1707,-193.1168 451.1772,-183.7795 441.4406,-187.9567 446.1707,-193.1168"/>
</g>
<!-- Node13 -->
<g id="node14" class="node">
<title>Node13</title>
<polygon fill="#ffffff" stroke="#bfbfbf" points="299.1797,-.5 299.1797,-18.5 347.4209,-18.5 347.4209,-.5 299.1797,-.5"/>
<text text-anchor="middle" x="323.3003" y="-6.5" font-family="Helvetica,sans-Serif" font-size="10.00" fill="#000000">stdint.h</text>
</g>
<!-- Node12&#45;&gt;Node13 -->
<g id="edge14" class="edge">
<title>Node12&#45;&gt;Node13</title>
<path fill="none" stroke="#191970" d="M323.3003,-55.4179C323.3003,-48.2164 323.3003,-37.8962 323.3003,-28.8632"/>
<polygon fill="#191970" stroke="#191970" points="326.8004,-28.7794 323.3003,-18.7795 319.8004,-28.7795 326.8004,-28.7794"/>
</g>
<!-- Node14&#45;&gt;Node1 -->
<g id="edge17" class="edge">
<title>Node14&#45;&gt;Node1</title>
<path fill="none" stroke="#191970" d="M185.5651,-165.4179C211.9866,-155.9199 253.4989,-140.9972 281.9843,-130.7574"/>
<polygon fill="#191970" stroke="#191970" points="283.2441,-134.0238 291.4706,-127.3473 280.8761,-127.4365 283.2441,-134.0238"/>
</g>
<!-- Node14&#45;&gt;Node10 -->
<g id="edge16" class="edge">
<title>Node14&#45;&gt;Node10</title>
<path fill="none" stroke="#191970" d="M160.2185,-165.4982C160.0566,-147.6913 159.6923,-107.6225 159.4744,-83.6515"/>
<polygon fill="#191970" stroke="#191970" points="162.9741,-83.5939 159.3833,-73.6261 155.9744,-83.6576 162.9741,-83.5939"/>
</g>
<!-- Node15 -->
<g id="node16" class="node">
<title>Node15</title>
<polygon fill="#ffffff" stroke="#bfbfbf" points="186.9976,-110.5 186.9976,-128.5 273.603,-128.5 273.603,-110.5 186.9976,-110.5"/>
<text text-anchor="middle" x="230.3003" y="-116.5" font-family="Helvetica,sans-Serif" font-size="10.00" fill="#000000">unordered_map</text>
</g>
<!-- Node14&#45;&gt;Node15 -->
<g id="edge18" class="edge">
<title>Node14&#45;&gt;Node15</title>
<path fill="none" stroke="#191970" d="M171.8594,-165.4179C182.3343,-157.1876 197.9935,-144.8839 210.4667,-135.0836"/>
<polygon fill="#191970" stroke="#191970" points="212.7893,-137.7098 218.4901,-128.7795 208.4645,-132.2056 212.7893,-137.7098"/>
</g>
<!-- Node16 -->
<g id="node17" class="node">
<title>Node16</title>
<polygon fill="#ffffff" stroke="#bfbfbf" points="85.0122,-110.5 85.0122,-128.5 131.5884,-128.5 131.5884,-110.5 85.0122,-110.5"/>
<text text-anchor="middle" x="108.3003" y="-116.5" font-family="Helvetica,sans-Serif" font-size="10.00" fill="#000000">chrono</text>
</g>
<!-- Node14&#45;&gt;Node16 -->
<g id="edge19" class="edge">
<title>Node14&#45;&gt;Node16</title>
<path fill="none" stroke="#191970" d="M151.7136,-165.4179C144.2315,-157.5041 133.1887,-145.8243 124.1131,-136.2251"/>
<polygon fill="#191970" stroke="#191970" points="126.487,-133.6414 117.0736,-128.7795 121.4005,-138.4505 126.487,-133.6414"/>
</g>
<!-- Node17 -->
<g id="node18" class="node">
<title>Node17</title>
<g id="a_node18"><a xlink:href="netflow_8hpp.xhtml" target="_top" xlink:title="Netflow structure header file. ">
<polygon fill="#ffffff" stroke="#000000" points="0,-110.5 0,-128.5 66.6006,-128.5 66.6006,-110.5 0,-110.5"/>
<text text-anchor="middle" x="33.3003" y="-116.5" font-family="Helvetica,sans-Serif" font-size="10.00" fill="#000000">netflow.hpp</text>
</a>
</g>
</g>
<!-- Node14&#45;&gt;Node17 -->
<g id="edge20" class="edge">
<title>Node14&#45;&gt;Node17</title>
<path fill="none" stroke="#191970" d="M139.3288,-165.4179C118.7391,-156.5011 87.1091,-142.803 63.7509,-132.6873"/>
<polygon fill="#191970" stroke="#191970" points="64.8703,-129.358 54.3029,-128.5956 62.0884,-135.7815 64.8703,-129.358"/>
</g>
<!-- Node17&#45;&gt;Node10 -->
<g id="edge21" class="edge">
<title>Node17&#45;&gt;Node10</title>
<path fill="none" stroke="#191970" d="M54.1066,-110.4179C74.6565,-101.4477 106.2913,-87.6388 129.5049,-77.5059"/>
<polygon fill="#191970" stroke="#191970" points="131.1164,-80.6215 138.8811,-73.4131 128.316,-74.206 131.1164,-80.6215"/>
</g>
<!-- Node17&#45;&gt;Node12 -->
<g id="edge23" class="edge">
<title>Node17&#45;&gt;Node12</title>
<path fill="none" stroke="#191970" d="M66.6102,-112.0193C69.8813,-111.3212 73.1531,-110.6373 76.3003,-110 140.2707,-97.0457 213.8797,-83.6844 263.9846,-74.8211"/>
<polygon fill="#191970" stroke="#191970" points="264.755,-78.2393 273.9947,-73.0549 263.5387,-71.3458 264.755,-78.2393"/>
</g>
<!-- Node18 -->
<g id="node19" class="node">
<title>Node18</title>
<polygon fill="#ffffff" stroke="#bfbfbf" points="10.5737,-55.5 10.5737,-73.5 56.0269,-73.5 56.0269,-55.5 10.5737,-55.5"/>
<text text-anchor="middle" x="33.3003" y="-61.5" font-family="Helvetica,sans-Serif" font-size="10.00" fill="#000000">cstring</text>
</g>
<!-- Node17&#45;&gt;Node18 -->
<g id="edge22" class="edge">
<title>Node17&#45;&gt;Node18</title>
<path fill="none" stroke="#191970" d="M33.3003,-110.4179C33.3003,-103.2164 33.3003,-92.8962 33.3003,-83.8632"/>
<polygon fill="#191970" stroke="#191970" points="36.8004,-83.7794 33.3003,-73.7795 29.8004,-83.7795 36.8004,-83.7794"/>
</g>
<!-- Node19&#45;&gt;Node3 -->
<g id="edge26" class="edge">
<title>Node19&#45;&gt;Node3</title>
<path fill="none" stroke="#191970" d="M481.281,-165.4179C500.8103,-156.5409 530.7647,-142.9253 552.9898,-132.823"/>
<polygon fill="#191970" stroke="#191970" points="554.6346,-135.92 562.2899,-128.5956 551.7379,-129.5474 554.6346,-135.92"/>
</g>
<!-- Node20 -->
<g id="node21" class="node">
<title>Node20</title>
<polygon fill="#ffffff" stroke="#bfbfbf" points="434.1279,-110.5 434.1279,-128.5 488.4727,-128.5 488.4727,-110.5 434.1279,-110.5"/>
<text text-anchor="middle" x="461.3003" y="-116.5" font-family="Helvetica,sans-Serif" font-size="10.00" fill="#000000">iostream</text>
</g>
<!-- Node19&#45;&gt;Node20 -->
<g id="edge25" class="edge">
<title>Node19&#45;&gt;Node20</title>
<path fill="none" stroke="#191970" d="M461.3003,-165.4179C461.3003,-158.2164 461.3003,-147.8962 461.3003,-138.8632"/>
<polygon fill="#191970" stroke="#191970" points="464.8004,-138.7794 461.3003,-128.7795 457.8004,-138.7795 464.8004,-138.7794"/>
</g>
<!-- Node21&#45;&gt;Node14 -->
<g id="edge29" class="edge">
<title>Node21&#45;&gt;Node14</title>
<path fill="none" stroke="#191970" d="M160.3003,-220.4179C160.3003,-213.2164 160.3003,-202.8962 160.3003,-193.8632"/>
<polygon fill="#191970" stroke="#191970" points="163.8004,-193.7794 160.3003,-183.7795 156.8004,-193.7795 163.8004,-193.7794"/>
</g>
<!-- Node21&#45;&gt;Node17 -->
<g id="edge28" class="edge">
<title>Node21&#45;&gt;Node17</title>
<path fill="none" stroke="#191970" d="M149.9073,-220.4982C128.3252,-201.805 78.4183,-158.5786 51.4226,-135.1964"/>
<polygon fill="#191970" stroke="#191970" points="53.6872,-132.5276 43.8368,-128.6261 49.1042,-137.8188 53.6872,-132.5276"/>
</g>
</g>
</svg>
