<?xml version="1.0" encoding="UTF-8" standalone="no"?>
<!DOCTYPE svg PUBLIC "-//W3C//DTD SVG 1.1//EN"
 "http://www.w3.org/Graphics/SVG/1.1/DTD/svg11.dtd">
<!-- Generated by graphviz version 2.40.1 (20161225.0304)
 -->
<!-- Title: NAMON::std_ex Pages: 1 -->
<svg width="126pt" height="92pt"
 viewBox="0.00 0.00 125.63 92.00" xmlns="http://www.w3.org/2000/svg" xmlns:xlink="http://www.w3.org/1999/xlink">
<g id="graph0" class="graph" transform="scale(1 1) rotate(0) translate(4 88)">
<title>NAMON::std_ex</title>
<polygon fill="#ffffff" stroke="transparent" points="-4,4 -4,-88 121.6304,-88 121.6304,4 -4,4"/>
<!-- Node2 -->
<g id="node1" class="node">
<title>Node2</title>
<polygon fill="#bfbfbf" stroke="#000000" points="19.2832,-.5 19.2832,-18.5 107.5244,-18.5 107.5244,-.5 19.2832,-.5"/>
<text text-anchor="middle" x="63.4038" y="-6.5" font-family="Helvetica,sans-Serif" font-size="10.00" fill="#000000">NAMON::std_ex</text>
</g>
<!-- Node3 -->
<g id="node2" class="node">
<title>Node3</title>
<polygon fill="#ffffff" stroke="#bfbfbf" points="0,-65.5 0,-83.5 58.8076,-83.5 58.8076,-65.5 0,-65.5"/>
<text text-anchor="middle" x="29.4038" y="-71.5" font-family="Helvetica,sans-Serif" font-size="10.00" fill="#000000">exception</text>
</g>
<!-- Node3&#45;&gt;Node2 -->
<g id="edge1" class="edge">
<title>Node3&#45;&gt;Node2</title>
<path fill="none" stroke="#191970" d="M38.7707,-56.5926C45.1565,-44.3846 53.3556,-28.7097 58.4962,-18.8821"/>
<polygon fill="#191970" stroke="#191970" points="35.665,-54.9788 34.1314,-65.462 41.8677,-58.2233 35.665,-54.9788"/>
</g>
<!-- Node4 -->
<g id="node3" class="node">
<title>Node4</title>
<polygon fill="#ffffff" stroke="#bfbfbf" points="77.1772,-65.5 77.1772,-83.5 117.6304,-83.5 117.6304,-65.5 77.1772,-65.5"/>
<text text-anchor="middle" x="97.4038" y="-71.5" font-family="Helvetica,sans-Serif" font-size="10.00" fill="#000000">string</text>
</g>
<!-- Node4&#45;&gt;Node2 -->
<g id="edge2" class="edge">
<title>Node4&#45;&gt;Node2</title>
<path fill="none" stroke="#9a32cd" stroke-dasharray="5,2" d="M88.0369,-56.5926C81.6511,-44.3846 73.452,-28.7097 68.3114,-18.8821"/>
<polygon fill="#9a32cd" stroke="#9a32cd" points="84.9399,-58.2233 92.6763,-65.462 91.1426,-54.9788 84.9399,-58.2233"/>
<text text-anchor="middle" x="93.2388" y="-39" font-family="Helvetica,sans-Serif" font-size="10.00" fill="#000000"> msg</text>
</g>
</g>
</svg>
