<?xml version="1.0" encoding="UTF-8" standalone="no"?>
<!DOCTYPE svg PUBLIC "-//W3C//DTD SVG 1.1//EN"
 "http://www.w3.org/Graphics/SVG/1.1/DTD/svg11.dtd">
<!-- Generated by graphviz version 2.40.1 (20161225.0304)
 -->
<!-- Title: TOOL::ip6_hdr Pages: 1 -->
<svg width="96pt" height="102pt"
 viewBox="0.00 0.00 95.53 102.00" xmlns="http://www.w3.org/2000/svg" xmlns:xlink="http://www.w3.org/1999/xlink">
<g id="graph0" class="graph" transform="scale(1 1) rotate(0) translate(4 98)">
<title>TOOL::ip6_hdr</title>
<polygon fill="#ffffff" stroke="transparent" points="-4,4 -4,-98 91.5283,-98 91.5283,4 -4,4"/>
<!-- Node1 -->
<g id="node1" class="node">
<title>Node1</title>
<polygon fill="#bfbfbf" stroke="#000000" points="2.7808,-.5 2.7808,-18.5 84.7476,-18.5 84.7476,-.5 2.7808,-.5"/>
<text text-anchor="middle" x="43.7642" y="-6.5" font-family="Helvetica,sans-Serif" font-size="10.00" fill="#000000">TOOL::ip6_hdr</text>
</g>
<!-- Node2 -->
<g id="node2" class="node">
<title>Node2</title>
<g id="a_node2"><a xlink:href="struct_t_o_o_l_1_1ip6__addr.xhtml" target="_top" xlink:title="IPv6 address. ">
<polygon fill="#ffffff" stroke="#000000" points="0,-75.5 0,-93.5 87.5283,-93.5 87.5283,-75.5 0,-75.5"/>
<text text-anchor="middle" x="43.7642" y="-81.5" font-family="Helvetica,sans-Serif" font-size="10.00" fill="#000000">TOOL::ip6_addr</text>
</a>
</g>
</g>
<!-- Node2&#45;&gt;Node1 -->
<g id="edge1" class="edge">
<title>Node2&#45;&gt;Node1</title>
<path fill="none" stroke="#9a32cd" stroke-dasharray="5,2" d="M43.7642,-65.1079C43.7642,-50.2042 43.7642,-30.2791 43.7642,-18.7717"/>
<polygon fill="#9a32cd" stroke="#9a32cd" points="40.2643,-65.3035 43.7642,-75.3035 47.2643,-65.3036 40.2643,-65.3035"/>
<text text-anchor="middle" x="61.2715" y="-49" font-family="Helvetica,sans-Serif" font-size="10.00" fill="#000000"> ip6_src</text>
<text text-anchor="middle" x="61.2715" y="-39" font-family="Helvetica,sans-Serif" font-size="10.00" fill="#000000">ip6_dst</text>
</g>
</g>
</svg>
