<?xml version="1.0" encoding="UTF-8" standalone="no"?>
<!DOCTYPE svg PUBLIC "-//W3C//DTD SVG 1.1//EN"
 "http://www.w3.org/Graphics/SVG/1.1/DTD/svg11.dtd">
<!-- Generated by graphviz version 2.40.1 (20161225.0304)
 -->
<!-- Title: PacketHandlerParams Pages: 1 -->
<svg width="322pt" height="102pt"
 viewBox="0.00 0.00 321.80 102.00" xmlns="http://www.w3.org/2000/svg" xmlns:xlink="http://www.w3.org/1999/xlink">
<g id="graph0" class="graph" transform="scale(1 1) rotate(0) translate(4 98)">
<title>PacketHandlerParams</title>
<polygon fill="#ffffff" stroke="transparent" points="-4,4 -4,-98 317.7969,-98 317.7969,4 -4,4"/>
<!-- Node1 -->
<g id="node1" class="node">
<title>Node1</title>
<polygon fill="#bfbfbf" stroke="#000000" points="99.6455,-.5 99.6455,-18.5 215.6895,-18.5 215.6895,-.5 99.6455,-.5"/>
<text text-anchor="middle" x="157.6675" y="-6.5" font-family="Helvetica,sans-Serif" font-size="10.00" fill="#000000">PacketHandlerParams</text>
</g>
<!-- Node2 -->
<g id="node2" class="node">
<title>Node2</title>
<g id="a_node2"><a xlink:href="class_t_o_o_l_1_1_ring_buffer.xhtml" target="_top" xlink:title="TOOL::RingBuffer\&lt; Enhanced\lPacketBlock \&gt;">
<polygon fill="#ffffff" stroke="#000000" points="0,-65.5 0,-93.5 149.335,-93.5 149.335,-65.5 0,-65.5"/>
<text text-anchor="start" x="8" y="-81.5" font-family="Helvetica,sans-Serif" font-size="10.00" fill="#000000">TOOL::RingBuffer&lt; Enhanced</text>
<text text-anchor="middle" x="74.6675" y="-71.5" font-family="Helvetica,sans-Serif" font-size="10.00" fill="#000000">PacketBlock &gt;</text>
</a>
</g>
</g>
<!-- Node2&#45;&gt;Node1 -->
<g id="edge1" class="edge">
<title>Node2&#45;&gt;Node1</title>
<path fill="none" stroke="#9a32cd" stroke-dasharray="5,2" d="M99.2836,-58.7394C115.0366,-45.4537 134.7025,-28.8681 146.7153,-18.7368"/>
<polygon fill="#9a32cd" stroke="#9a32cd" points="96.8517,-56.2119 91.4638,-65.3345 101.3646,-61.5629 96.8517,-56.2119"/>
<text text-anchor="middle" x="144.7002" y="-39" font-family="Helvetica,sans-Serif" font-size="10.00" fill="#000000"> fileBuffer</text>
</g>
<!-- Node3 -->
<g id="node3" class="node">
<title>Node3</title>
<g id="a_node3"><a xlink:href="class_t_o_o_l_1_1_ring_buffer.xhtml" target="_top" xlink:title="TOOL::RingBuffer\&lt; Netflow \&gt;">
<polygon fill="#ffffff" stroke="#000000" points="167.5381,-70.5 167.5381,-88.5 313.7969,-88.5 313.7969,-70.5 167.5381,-70.5"/>
<text text-anchor="middle" x="240.6675" y="-76.5" font-family="Helvetica,sans-Serif" font-size="10.00" fill="#000000">TOOL::RingBuffer&lt; Netflow &gt;</text>
</a>
</g>
</g>
<!-- Node3&#45;&gt;Node1 -->
<g id="edge2" class="edge">
<title>Node3&#45;&gt;Node1</title>
<path fill="none" stroke="#9a32cd" stroke-dasharray="5,2" d="M221.9247,-63.6928C205.4568,-49.8043 182.0679,-30.0787 168.5209,-18.6535"/>
<polygon fill="#9a32cd" stroke="#9a32cd" points="219.9159,-66.5772 229.8167,-70.3487 224.4288,-61.2261 219.9159,-66.5772"/>
<text text-anchor="middle" x="228.6509" y="-39" font-family="Helvetica,sans-Serif" font-size="10.00" fill="#000000"> cacheBuffer</text>
</g>
</g>
</svg>
