<?xml version="1.0" encoding="UTF-8" standalone="no"?>
<!DOCTYPE svg PUBLIC "-//W3C//DTD SVG 1.1//EN"
 "http://www.w3.org/Graphics/SVG/1.1/DTD/svg11.dtd">
<!-- Generated by graphviz version 2.40.1 (20161225.0304)
 -->
<!-- Title: PacketHandlerParams Pages: 1 -->
<svg width="266pt" height="102pt"
 viewBox="0.00 0.00 265.57 102.00" xmlns="http://www.w3.org/2000/svg" xmlns:xlink="http://www.w3.org/1999/xlink">
<g id="graph0" class="graph" transform="scale(1 1) rotate(0) translate(4 98)">
<title>PacketHandlerParams</title>
<polygon fill="#ffffff" stroke="transparent" points="-4,4 -4,-98 261.5742,-98 261.5742,4 -4,4"/>
<!-- Node1 -->
<g id="node1" class="node">
<title>Node1</title>
<polygon fill="#bfbfbf" stroke="#000000" points="74.708,-.5 74.708,-18.5 190.752,-18.5 190.752,-.5 74.708,-.5"/>
<text text-anchor="middle" x="132.73" y="-6.5" font-family="Helvetica,sans-Serif" font-size="10.00" fill="#000000">PacketHandlerParams</text>
</g>
<!-- Node2 -->
<g id="node2" class="node">
<title>Node2</title>
<g id="a_node2"><a xlink:href="class_n_a_m_o_n_1_1_ring_buffer.xhtml" target="_top" xlink:title="NAMON::RingBuffer\&lt;\l EnhancedPacketBlock \&gt;">
<polygon fill="#ffffff" stroke="#000000" points="0,-65.5 0,-93.5 127.46,-93.5 127.46,-65.5 0,-65.5"/>
<text text-anchor="start" x="8" y="-81.5" font-family="Helvetica,sans-Serif" font-size="10.00" fill="#000000">NAMON::RingBuffer&lt;</text>
<text text-anchor="middle" x="63.73" y="-71.5" font-family="Helvetica,sans-Serif" font-size="10.00" fill="#000000"> EnhancedPacketBlock &gt;</text>
</a>
</g>
</g>
<!-- Node2&#45;&gt;Node1 -->
<g id="edge1" class="edge">
<title>Node2&#45;&gt;Node1</title>
<path fill="none" stroke="#9a32cd" stroke-dasharray="5,2" d="M84.9181,-58.0048C97.8877,-44.8472 113.8218,-28.6822 123.6252,-18.7368"/>
<polygon fill="#9a32cd" stroke="#9a32cd" points="82.2206,-55.7557 77.6932,-65.3345 87.2058,-60.6697 82.2206,-55.7557"/>
<text text-anchor="middle" x="125.7627" y="-39" font-family="Helvetica,sans-Serif" font-size="10.00" fill="#000000"> fileBuffer</text>
</g>
<!-- Node3 -->
<g id="node3" class="node">
<title>Node3</title>
<g id="a_node3"><a xlink:href="class_n_a_m_o_n_1_1_ring_buffer.xhtml" target="_top" xlink:title="NAMON::RingBuffer\&lt;\l Netflow \&gt;">
<polygon fill="#ffffff" stroke="#000000" points="145.8857,-65.5 145.8857,-93.5 257.5742,-93.5 257.5742,-65.5 145.8857,-65.5"/>
<text text-anchor="start" x="153.8857" y="-81.5" font-family="Helvetica,sans-Serif" font-size="10.00" fill="#000000">NAMON::RingBuffer&lt;</text>
<text text-anchor="middle" x="201.73" y="-71.5" font-family="Helvetica,sans-Serif" font-size="10.00" fill="#000000"> Netflow &gt;</text>
</a>
</g>
</g>
<!-- Node3&#45;&gt;Node1 -->
<g id="edge2" class="edge">
<title>Node3&#45;&gt;Node1</title>
<path fill="none" stroke="#9a32cd" stroke-dasharray="5,2" d="M180.5418,-58.0048C167.5723,-44.8472 151.6381,-28.6822 141.8348,-18.7368"/>
<polygon fill="#9a32cd" stroke="#9a32cd" points="178.2541,-60.6697 187.7668,-65.3345 183.2394,-55.7557 178.2541,-60.6697"/>
<text text-anchor="middle" x="196.7134" y="-39" font-family="Helvetica,sans-Serif" font-size="10.00" fill="#000000"> cacheBuffer</text>
</g>
</g>
</svg>
