<?xml version="1.0" encoding="UTF-8" standalone="no"?>
<!DOCTYPE svg PUBLIC "-//W3C//DTD SVG 1.1//EN"
 "http://www.w3.org/Graphics/SVG/1.1/DTD/svg11.dtd">
<!-- Generated by graphviz version 2.40.1 (20161225.0304)
 -->
<!-- Title: pcap_ex Pages: 1 -->
<svg width="144pt" height="92pt"
 viewBox="0.00 0.00 144.08 92.00" xmlns="http://www.w3.org/2000/svg" xmlns:xlink="http://www.w3.org/1999/xlink">
<g id="graph0" class="graph" transform="scale(1 1) rotate(0) translate(4 88)">
<title>pcap_ex</title>
<polygon fill="#ffffff" stroke="transparent" points="-4,4 -4,-88 140.0786,-88 140.0786,4 -4,4"/>
<!-- Node2 -->
<g id="node1" class="node">
<title>Node2</title>
<polygon fill="#bfbfbf" stroke="#000000" points="49.9482,-.5 49.9482,-18.5 103.7559,-18.5 103.7559,-.5 49.9482,-.5"/>
<text text-anchor="middle" x="76.8521" y="-6.5" font-family="Helvetica,sans-Serif" font-size="10.00" fill="#000000">pcap_ex</text>
</g>
<!-- Node3 -->
<g id="node2" class="node">
<title>Node3</title>
<polygon fill="#ffffff" stroke="#bfbfbf" points="0,-65.5 0,-83.5 77.7041,-83.5 77.7041,-65.5 0,-65.5"/>
<text text-anchor="middle" x="38.8521" y="-71.5" font-family="Helvetica,sans-Serif" font-size="10.00" fill="#000000">std::exception</text>
</g>
<!-- Node3&#45;&gt;Node2 -->
<g id="edge1" class="edge">
<title>Node3&#45;&gt;Node2</title>
<path fill="none" stroke="#191970" d="M49.321,-56.5926C56.458,-44.3846 65.6217,-28.7097 71.3671,-18.8821"/>
<polygon fill="#191970" stroke="#191970" points="46.1613,-55.0626 44.1358,-65.462 52.2043,-58.5955 46.1613,-55.0626"/>
</g>
<!-- Node4 -->
<g id="node3" class="node">
<title>Node4</title>
<polygon fill="#ffffff" stroke="#bfbfbf" points="95.6255,-65.5 95.6255,-83.5 136.0786,-83.5 136.0786,-65.5 95.6255,-65.5"/>
<text text-anchor="middle" x="115.8521" y="-71.5" font-family="Helvetica,sans-Serif" font-size="10.00" fill="#000000">string</text>
</g>
<!-- Node4&#45;&gt;Node2 -->
<g id="edge2" class="edge">
<title>Node4&#45;&gt;Node2</title>
<path fill="none" stroke="#9a32cd" stroke-dasharray="5,2" d="M105.1076,-56.5926C97.7828,-44.3846 88.3779,-28.7097 82.4813,-18.8821"/>
<polygon fill="#9a32cd" stroke="#9a32cd" points="102.283,-58.6878 110.4293,-65.462 108.2855,-55.0863 102.283,-58.6878"/>
<text text-anchor="middle" x="108.687" y="-39" font-family="Helvetica,sans-Serif" font-size="10.00" fill="#000000"> msg</text>
</g>
</g>
</svg>
