<?xml version="1.0" encoding="UTF-8" standalone="no"?>
<!DOCTYPE svg PUBLIC "-//W3C//DTD SVG 1.1//EN"
 "http://www.w3.org/Graphics/SVG/1.1/DTD/svg11.dtd">
<!-- Generated by graphviz version 2.40.1 (20161225.0304)
 -->
<!-- Title: src/tcpip_headers.hpp Pages: 1 -->
<svg width="1179pt" height="357pt"
 viewBox="0.00 0.00 1179.15 357.00" xmlns="http://www.w3.org/2000/svg" xmlns:xlink="http://www.w3.org/1999/xlink">
<g id="graph0" class="graph" transform="scale(1 1) rotate(0) translate(4 353)">
<title>src/tcpip_headers.hpp</title>
<polygon fill="#ffffff" stroke="transparent" points="-4,4 -4,-353 1175.1468,-353 1175.1468,4 -4,4"/>
<!-- Node2 -->
<g id="node1" class="node">
<title>Node2</title>
<polygon fill="#bfbfbf" stroke="#000000" points="903.5536,-330.5 903.5536,-348.5 1017.9471,-348.5 1017.9471,-330.5 903.5536,-330.5"/>
<text text-anchor="middle" x="960.7504" y="-336.5" font-family="Helvetica,sans-Serif" font-size="10.00" fill="#000000">src/tcpip_headers.hpp</text>
</g>
<!-- Node3 -->
<g id="node2" class="node">
<title>Node3</title>
<g id="a_node2"><a xlink:href="cache_8cpp.xhtml" target="_top" xlink:title="Cache implementation sources. ">
<polygon fill="#ffffff" stroke="#000000" points="17.9032,-165.5 17.9032,-183.5 95.5975,-183.5 95.5975,-165.5 17.9032,-165.5"/>
<text text-anchor="middle" x="56.7504" y="-171.5" font-family="Helvetica,sans-Serif" font-size="10.00" fill="#000000">src/cache.cpp</text>
</a>
</g>
</g>
<!-- Node2&#45;&gt;Node3 -->
<g id="edge1" class="edge">
<title>Node2&#45;&gt;Node3</title>
<path fill="none" stroke="#191970" d="M892.9294,-339.0948C728.2382,-337.5447 310.9008,-330.0665 176.7504,-294 124.3488,-279.9118 99.99,-282.6463 67.7504,-239 55.6017,-222.5531 55.0989,-197.3468 55.871,-183.8302"/>
<polygon fill="#191970" stroke="#191970" points="893.3754,-342.5988 903.4063,-339.1886 893.4381,-335.5991 893.3754,-342.5988"/>
</g>
<!-- Node4 -->
<g id="node3" class="node">
<title>Node4</title>
<g id="a_node3"><a xlink:href="netflow_8hpp.xhtml" target="_top" xlink:title="Netflow structure header file. ">
<polygon fill="#ffffff" stroke="#000000" points="459.3959,-275.5 459.3959,-293.5 542.1048,-293.5 542.1048,-275.5 459.3959,-275.5"/>
<text text-anchor="middle" x="500.7504" y="-281.5" font-family="Helvetica,sans-Serif" font-size="10.00" fill="#000000">src/netflow.hpp</text>
</a>
</g>
</g>
<!-- Node2&#45;&gt;Node4 -->
<g id="edge2" class="edge">
<title>Node2&#45;&gt;Node4</title>
<path fill="none" stroke="#191970" d="M893.467,-331.4553C796.8576,-319.9041 621.7323,-298.9652 542.127,-289.4472"/>
<polygon fill="#191970" stroke="#191970" points="893.0763,-334.9334 903.4211,-332.6454 893.9074,-327.9829 893.0763,-334.9334"/>
</g>
<!-- Node6 -->
<g id="node5" class="node">
<title>Node6</title>
<g id="a_node5"><a xlink:href="pcapng__blocks_8hpp.xhtml" target="_top" xlink:title="Pcap&#45;ng block structures. ">
<polygon fill="#ffffff" stroke="#000000" points="872.6078,-165.5 872.6078,-183.5 990.8929,-183.5 990.8929,-165.5 872.6078,-165.5"/>
<text text-anchor="middle" x="931.7504" y="-171.5" font-family="Helvetica,sans-Serif" font-size="10.00" fill="#000000">src/pcapng_blocks.hpp</text>
</a>
</g>
</g>
<!-- Node2&#45;&gt;Node6 -->
<g id="edge37" class="edge">
<title>Node2&#45;&gt;Node6</title>
<path fill="none" stroke="#191970" d="M968.2417,-321.0584C976.8601,-296.9497 988.2007,-253.8147 974.7504,-220 968.7247,-204.8513 954.9975,-191.8338 944.6627,-183.6509"/>
<polygon fill="#191970" stroke="#191970" points="964.9649,-319.8284 964.6836,-330.4196 971.5082,-322.3155 964.9649,-319.8284"/>
</g>
<!-- Node8 -->
<g id="node7" class="node">
<title>Node8</title>
<g id="a_node7"><a xlink:href="capturing_8cpp.xhtml" target="_top" xlink:title="Network traffic capture sources. ">
<polygon fill="#ffffff" stroke="#000000" points="570.6766,-.5 570.6766,-18.5 662.8241,-18.5 662.8241,-.5 570.6766,-.5"/>
<text text-anchor="middle" x="616.7504" y="-6.5" font-family="Helvetica,sans-Serif" font-size="10.00" fill="#000000">src/capturing.cpp</text>
</a>
</g>
</g>
<!-- Node2&#45;&gt;Node8 -->
<g id="edge36" class="edge">
<title>Node2&#45;&gt;Node8</title>
<path fill="none" stroke="#191970" d="M991.5136,-326.0184C1025.2772,-308.8915 1074.7504,-275.8823 1074.7504,-229.5 1074.7504,-229.5 1074.7504,-229.5 1074.7504,-119.5 1074.7504,-77.4881 779.6232,-32.0429 663.1863,-15.7482"/>
<polygon fill="#191970" stroke="#191970" points="989.92,-322.9014 982.4612,-330.4258 992.9843,-329.1951 989.92,-322.9014"/>
</g>
<!-- Node9 -->
<g id="node8" class="node">
<title>Node9</title>
<g id="a_node8"><a xlink:href="capturing_8hpp.xhtml" target="_top" xlink:title="Network traffic capture header file. ">
<polygon fill="#ffffff" stroke="#000000" points="734.3959,-55.5 734.3959,-73.5 827.1048,-73.5 827.1048,-55.5 734.3959,-55.5"/>
<text text-anchor="middle" x="780.7504" y="-61.5" font-family="Helvetica,sans-Serif" font-size="10.00" fill="#000000">src/capturing.hpp</text>
</a>
</g>
</g>
<!-- Node2&#45;&gt;Node9 -->
<g id="edge38" class="edge">
<title>Node2&#45;&gt;Node9</title>
<path fill="none" stroke="#191970" d="M980.675,-323.9961C1003.1928,-304.5659 1036.7504,-268.9858 1036.7504,-229.5 1036.7504,-229.5 1036.7504,-229.5 1036.7504,-174.5 1036.7504,-140.532 1023.659,-129.3633 995.7504,-110 968.9486,-91.4046 882.0231,-77.3502 827.2539,-70.0673"/>
<polygon fill="#191970" stroke="#191970" points="978.4188,-321.3202 972.9611,-330.4012 982.8905,-326.7057 978.4188,-321.3202"/>
</g>
<!-- Node15 -->
<g id="node14" class="node">
<title>Node15</title>
<g id="a_node14"><a xlink:href="tool__linux_8cpp.xhtml" target="_top" xlink:title="Determining applications and their sockets in Linux. ">
<polygon fill="#ffffff" stroke="#000000" points="723.12,-165.5 723.12,-183.5 816.3807,-183.5 816.3807,-165.5 723.12,-165.5"/>
<text text-anchor="middle" x="769.7504" y="-171.5" font-family="Helvetica,sans-Serif" font-size="10.00" fill="#000000">src/tool_linux.cpp</text>
</a>
</g>
</g>
<!-- Node2&#45;&gt;Node15 -->
<g id="edge40" class="edge">
<title>Node2&#45;&gt;Node15</title>
<path fill="none" stroke="#191970" d="M963.5694,-320.19C966.2219,-294.0628 966.659,-247.5588 941.7504,-220 925.1292,-201.6105 861.7414,-188.395 816.7611,-181.0942"/>
<polygon fill="#191970" stroke="#191970" points="960.0702,-319.97 962.3213,-330.3229 967.0176,-320.8258 960.0702,-319.97"/>
</g>
<!-- Node16 -->
<g id="node15" class="node">
<title>Node16</title>
<g id="a_node15"><a xlink:href="tool__win_8cpp.xhtml" target="_top" xlink:title="Determining the applications and their sockets on Windows. ">
<polygon fill="#ffffff" stroke="#000000" points="301.9007,-165.5 301.9007,-183.5 389.6,-183.5 389.6,-165.5 301.9007,-165.5"/>
<text text-anchor="middle" x="345.7504" y="-171.5" font-family="Helvetica,sans-Serif" font-size="10.00" fill="#000000">src/tool_win.cpp</text>
</a>
</g>
</g>
<!-- Node2&#45;&gt;Node16 -->
<g id="edge41" class="edge">
<title>Node2&#45;&gt;Node16</title>
<path fill="none" stroke="#191970" d="M893.2006,-336.9942C695.578,-328.9655 129.0732,-300.714 75.7504,-239 70.2294,-232.6103 70.2979,-226.4482 75.7504,-220 90.1762,-202.9397 229.0269,-186.3983 301.7735,-178.8143"/>
<polygon fill="#191970" stroke="#191970" points="893.3168,-340.5016 903.4492,-337.4058 893.5978,-333.5072 893.3168,-340.5016"/>
</g>
<!-- Node17 -->
<g id="node16" class="node">
<title>Node17</title>
<g id="a_node16"><a xlink:href="netflow_8cpp.xhtml" target="_top" xlink:title="Netflow structure source file. ">
<polygon fill="#ffffff" stroke="#000000" points="850.6766,-220.5 850.6766,-238.5 932.8241,-238.5 932.8241,-220.5 850.6766,-220.5"/>
<text text-anchor="middle" x="891.7504" y="-226.5" font-family="Helvetica,sans-Serif" font-size="10.00" fill="#000000">src/netflow.cpp</text>
</a>
</g>
</g>
<!-- Node2&#45;&gt;Node17 -->
<g id="edge39" class="edge">
<title>Node2&#45;&gt;Node17</title>
<path fill="none" stroke="#191970" d="M949.6455,-321.7966C934.7671,-298.0774 908.9128,-256.8604 897.4749,-238.6261"/>
<polygon fill="#191970" stroke="#191970" points="946.825,-323.8868 955.1038,-330.4982 952.7549,-320.167 946.825,-323.8868"/>
</g>
<!-- Node22 -->
<g id="node21" class="node">
<title>Node22</title>
<g id="a_node21"><a xlink:href="utils_8cpp.xhtml" target="_top" xlink:title="Small useful functions. ">
<polygon fill="#ffffff" stroke="#000000" points="1102.3539,-275.5 1102.3539,-293.5 1171.1468,-293.5 1171.1468,-275.5 1102.3539,-275.5"/>
<text text-anchor="middle" x="1136.7504" y="-281.5" font-family="Helvetica,sans-Serif" font-size="10.00" fill="#000000">src/utils.cpp</text>
</a>
</g>
</g>
<!-- Node2&#45;&gt;Node22 -->
<g id="edge42" class="edge">
<title>Node2&#45;&gt;Node22</title>
<path fill="none" stroke="#191970" d="M999.509,-327.3879C1032.2453,-317.1578 1078.3886,-302.7381 1107.9369,-293.5042"/>
<polygon fill="#191970" stroke="#191970" points="998.314,-324.0944 989.8132,-330.4179 1000.402,-330.7757 998.314,-324.0944"/>
</g>
<!-- Node4&#45;&gt;Node3 -->
<g id="edge3" class="edge">
<title>Node4&#45;&gt;Node3</title>
<path fill="none" stroke="#191970" d="M448.9931,-282.1494C341.9652,-276.8352 103.9038,-262.497 75.7504,-239 59.2597,-225.2368 56.6589,-197.9374 56.5004,-183.6702"/>
<polygon fill="#191970" stroke="#191970" points="449.0775,-285.6576 459.2366,-282.6502 449.4195,-278.6659 449.0775,-285.6576"/>
</g>
<!-- Node5 -->
<g id="node4" class="node">
<title>Node5</title>
<g id="a_node4"><a xlink:href="cache_8hpp.xhtml" target="_top" xlink:title="Cache implementation header file. ">
<polygon fill="#ffffff" stroke="#000000" points="528.6224,-220.5 528.6224,-238.5 606.8783,-238.5 606.8783,-220.5 528.6224,-220.5"/>
<text text-anchor="middle" x="567.7504" y="-226.5" font-family="Helvetica,sans-Serif" font-size="10.00" fill="#000000">src/cache.hpp</text>
</a>
</g>
</g>
<!-- Node4&#45;&gt;Node5 -->
<g id="edge4" class="edge">
<title>Node4&#45;&gt;Node5</title>
<path fill="none" stroke="#191970" d="M519.7932,-268.8678C531.627,-259.1535 546.439,-246.9944 556.4463,-238.7795"/>
<polygon fill="#191970" stroke="#191970" points="517.3226,-266.3676 511.814,-275.4179 521.7641,-271.7782 517.3226,-266.3676"/>
</g>
<!-- Node4&#45;&gt;Node8 -->
<g id="edge23" class="edge">
<title>Node4&#45;&gt;Node8</title>
<path fill="none" stroke="#191970" d="M485.2047,-267.6421C457.4867,-235.4475 405.2613,-163.6461 436.7504,-110 467.1884,-58.1444 535.196,-31.0676 578.3546,-18.5797"/>
<polygon fill="#191970" stroke="#191970" points="482.7211,-270.1168 491.9711,-275.2829 487.9616,-265.476 482.7211,-270.1168"/>
</g>
<!-- Node4&#45;&gt;Node9 -->
<g id="edge24" class="edge">
<title>Node4&#45;&gt;Node9</title>
<path fill="none" stroke="#191970" d="M552.6258,-282.8211C628.7503,-279.3617 765.8104,-269.0377 803.7504,-239 830.6515,-217.7019 832.9196,-198.5542 825.7504,-165 818.121,-129.2922 796.8266,-90.9232 786.5048,-73.741"/>
<polygon fill="#191970" stroke="#191970" points="552.1457,-279.3384 542.3053,-283.265 552.4465,-286.332 552.1457,-279.3384"/>
</g>
<!-- Node12 -->
<g id="node11" class="node">
<title>Node12</title>
<g id="a_node11"><a xlink:href="tool_8hpp.xhtml" target="_top" xlink:title="Determining applications header file. ">
<polygon fill="#ffffff" stroke="#000000" points="445.9032,-165.5 445.9032,-183.5 513.5975,-183.5 513.5975,-165.5 445.9032,-165.5"/>
<text text-anchor="middle" x="479.7504" y="-171.5" font-family="Helvetica,sans-Serif" font-size="10.00" fill="#000000">src/tool.hpp</text>
</a>
</g>
</g>
<!-- Node4&#45;&gt;Node12 -->
<g id="edge22" class="edge">
<title>Node4&#45;&gt;Node12</title>
<path fill="none" stroke="#191970" d="M497.126,-265.5152C492.564,-241.6191 484.9118,-201.5362 481.4926,-183.6261"/>
<polygon fill="#191970" stroke="#191970" points="493.7186,-266.332 499.0318,-275.4982 500.5944,-265.0193 493.7186,-266.332"/>
</g>
<!-- Node13 -->
<g id="node12" class="node">
<title>Node13</title>
<g id="a_node12"><a xlink:href="tool_8cpp.xhtml" target="_top" xlink:title="Network Traffic Capturing With Application Tags. ">
<polygon fill="#ffffff" stroke="#000000" points="446.1839,-110.5 446.1839,-128.5 513.3168,-128.5 513.3168,-110.5 446.1839,-110.5"/>
<text text-anchor="middle" x="479.7504" y="-116.5" font-family="Helvetica,sans-Serif" font-size="10.00" fill="#000000">src/tool.cpp</text>
</a>
</g>
</g>
<!-- Node4&#45;&gt;Node13 -->
<g id="edge26" class="edge">
<title>Node4&#45;&gt;Node13</title>
<path fill="none" stroke="#191970" d="M449.0828,-283.6915C347.7402,-281.3765 126.913,-272.5239 59.7504,-239 24.0119,-221.1613 -18.1015,-194.5708 8.7504,-165 38.0894,-132.6901 343.254,-122.6688 446.1152,-120.1961"/>
<polygon fill="#191970" stroke="#191970" points="449.017,-287.1908 459.0903,-283.9077 449.1682,-280.1925 449.017,-287.1908"/>
</g>
<!-- Node14 -->
<g id="node13" class="node">
<title>Node14</title>
<g id="a_node13"><a xlink:href="tool__apple_8cpp.xhtml" target="_top" xlink:title="Determining the applications and their sockets on macOS. ">
<polygon fill="#ffffff" stroke="#000000" points="608.1693,-165.5 608.1693,-183.5 705.3314,-183.5 705.3314,-165.5 608.1693,-165.5"/>
<text text-anchor="middle" x="656.7504" y="-171.5" font-family="Helvetica,sans-Serif" font-size="10.00" fill="#000000">src/tool_apple.cpp</text>
</a>
</g>
</g>
<!-- Node4&#45;&gt;Node14 -->
<g id="edge27" class="edge">
<title>Node4&#45;&gt;Node14</title>
<path fill="none" stroke="#191970" d="M550.2107,-272.432C571.9989,-265.328 596.8769,-254.5979 615.7504,-239 634.3651,-223.6159 647.2347,-197.5057 653.1196,-183.6962"/>
<polygon fill="#191970" stroke="#191970" points="548.9726,-269.1511 540.45,-275.4453 551.0375,-275.8397 548.9726,-269.1511"/>
</g>
<!-- Node4&#45;&gt;Node15 -->
<g id="edge30" class="edge">
<title>Node4&#45;&gt;Node15</title>
<path fill="none" stroke="#191970" d="M542.1935,-272.4858C569.8852,-264.0574 606.9299,-252.0058 638.7504,-239 680.9891,-221.736 728.594,-196.8617 753.1367,-183.6141"/>
<polygon fill="#191970" stroke="#191970" points="541.0077,-269.1875 532.4415,-275.4221 543.0259,-275.8903 541.0077,-269.1875"/>
</g>
<!-- Node4&#45;&gt;Node16 -->
<g id="edge33" class="edge">
<title>Node4&#45;&gt;Node16</title>
<path fill="none" stroke="#191970" d="M479.6934,-269.5564C447.0802,-246.4115 385.3314,-202.5897 358.6099,-183.6261"/>
<polygon fill="#191970" stroke="#191970" points="477.8853,-272.565 488.0661,-275.4982 481.9366,-266.8564 477.8853,-272.565"/>
</g>
<!-- Node4&#45;&gt;Node17 -->
<g id="edge25" class="edge">
<title>Node4&#45;&gt;Node17</title>
<path fill="none" stroke="#191970" d="M552.3433,-278.1065C618.3705,-269.7883 736.2403,-254.4805 836.7504,-239 841.2516,-238.3067 845.9539,-237.5478 850.6317,-236.7707"/>
<polygon fill="#191970" stroke="#191970" points="551.6878,-274.6613 542.2021,-279.3805 552.5604,-281.6067 551.6878,-274.6613"/>
</g>
<!-- Node18 -->
<g id="node17" class="node">
<title>Node18</title>
<g id="a_node17"><a xlink:href="tool__apple_8hpp.xhtml" target="_top" xlink:title="Determining applications and their sockets on macOS. ">
<polygon fill="#ffffff" stroke="#000000" points="84.8885,-220.5 84.8885,-238.5 182.6122,-238.5 182.6122,-220.5 84.8885,-220.5"/>
<text text-anchor="middle" x="133.7504" y="-226.5" font-family="Helvetica,sans-Serif" font-size="10.00" fill="#000000">src/tool_apple.hpp</text>
</a>
</g>
</g>
<!-- Node4&#45;&gt;Node18 -->
<g id="edge28" class="edge">
<title>Node4&#45;&gt;Node18</title>
<path fill="none" stroke="#191970" d="M449.0328,-277.145C387.6334,-268.3528 282.1608,-253.0598 191.7504,-239 188.8264,-238.5453 185.8207,-238.0717 182.7892,-237.5893"/>
<polygon fill="#191970" stroke="#191970" points="448.8401,-280.653 459.2349,-278.6041 449.8312,-273.7235 448.8401,-280.653"/>
</g>
<!-- Node19 -->
<g id="node18" class="node">
<title>Node19</title>
<g id="a_node18"><a xlink:href="tool__bsd_8hpp.xhtml" target="_top" xlink:title="Determining applications and their sockets on FreeBSD. ">
<polygon fill="#ffffff" stroke="#000000" points="201.0609,-220.5 201.0609,-238.5 290.4398,-238.5 290.4398,-220.5 201.0609,-220.5"/>
<text text-anchor="middle" x="245.7504" y="-226.5" font-family="Helvetica,sans-Serif" font-size="10.00" fill="#000000">src/tool_bsd.hpp</text>
</a>
</g>
</g>
<!-- Node4&#45;&gt;Node19 -->
<g id="edge29" class="edge">
<title>Node4&#45;&gt;Node19</title>
<path fill="none" stroke="#191970" d="M449.4208,-273.4289C401.8651,-263.1718 331.9897,-248.1006 287.6944,-238.5467"/>
<polygon fill="#191970" stroke="#191970" points="448.6995,-276.8538 459.2127,-275.5409 450.1754,-270.0111 448.6995,-276.8538"/>
</g>
<!-- Node20 -->
<g id="node19" class="node">
<title>Node20</title>
<g id="a_node19"><a xlink:href="tool__linux_8hpp.xhtml" target="_top" xlink:title="Determining applications and their sockets on Linux. ">
<polygon fill="#ffffff" stroke="#000000" points="700.8392,-220.5 700.8392,-238.5 794.6615,-238.5 794.6615,-220.5 700.8392,-220.5"/>
<text text-anchor="middle" x="747.7504" y="-226.5" font-family="Helvetica,sans-Serif" font-size="10.00" fill="#000000">src/tool_linux.hpp</text>
</a>
</g>
</g>
<!-- Node4&#45;&gt;Node20 -->
<g id="edge31" class="edge">
<title>Node4&#45;&gt;Node20</title>
<path fill="none" stroke="#191970" d="M551.0434,-273.3011C597.1282,-263.0393 664.4948,-248.0387 707.2178,-238.5255"/>
<polygon fill="#191970" stroke="#191970" points="550.261,-269.8896 541.2608,-275.4795 551.7825,-276.7222 550.261,-269.8896"/>
</g>
<!-- Node21 -->
<g id="node20" class="node">
<title>Node21</title>
<g id="a_node20"><a xlink:href="tool__win_8hpp.xhtml" target="_top" xlink:title="Determining applications and their sockets on Windows. ">
<polygon fill="#ffffff" stroke="#000000" points="308.62,-220.5 308.62,-238.5 396.8807,-238.5 396.8807,-220.5 308.62,-220.5"/>
<text text-anchor="middle" x="352.7504" y="-226.5" font-family="Helvetica,sans-Serif" font-size="10.00" fill="#000000">src/tool_win.hpp</text>
</a>
</g>
</g>
<!-- Node4&#45;&gt;Node21 -->
<g id="edge34" class="edge">
<title>Node4&#45;&gt;Node21</title>
<path fill="none" stroke="#191970" d="M466.7542,-271.8663C439.4155,-261.7066 401.6618,-247.6765 377.2258,-238.5956"/>
<polygon fill="#191970" stroke="#191970" points="465.7183,-275.2151 476.3112,-275.4179 468.1567,-268.6536 465.7183,-275.2151"/>
</g>
<!-- Node5&#45;&gt;Node3 -->
<g id="edge5" class="edge">
<title>Node5&#45;&gt;Node3</title>
<path fill="none" stroke="#191970" d="M518.5391,-224.2033C417.3275,-213.3097 187.6389,-188.5878 95.7825,-178.7011"/>
<polygon fill="#191970" stroke="#191970" points="518.1844,-227.6852 528.5015,-225.2756 518.9335,-220.7254 518.1844,-227.6852"/>
</g>
<!-- Node5&#45;&gt;Node6 -->
<g id="edge6" class="edge">
<title>Node5&#45;&gt;Node6</title>
<path fill="none" stroke="#191970" d="M617.2538,-222.0201C683.6707,-211.9846 801.4729,-194.1848 872.518,-183.4499"/>
<polygon fill="#191970" stroke="#191970" points="616.4154,-218.6069 607.0506,-223.5618 617.4613,-225.5284 616.4154,-218.6069"/>
</g>
<!-- Node5&#45;&gt;Node8 -->
<g id="edge17" class="edge">
<title>Node5&#45;&gt;Node8</title>
<path fill="none" stroke="#191970" d="M563.0625,-210.4335C557.9967,-186.5471 551.7729,-144.555 560.7504,-110 570.3433,-73.0759 596.7945,-35.3056 609.6083,-18.5058"/>
<polygon fill="#191970" stroke="#191970" points="559.6809,-211.3472 565.3171,-220.3184 566.5056,-209.7905 559.6809,-211.3472"/>
</g>
<!-- Node5&#45;&gt;Node9 -->
<g id="edge18" class="edge">
<title>Node5&#45;&gt;Node9</title>
<path fill="none" stroke="#191970" d="M573.01,-210.8478C577.7811,-196.7737 586.0394,-177.7715 598.7504,-165 624.5507,-139.0767 640.5761,-146.3925 672.7504,-129 706.9476,-110.5139 745.8029,-86.5519 766.3057,-73.6662"/>
<polygon fill="#191970" stroke="#191970" points="569.6467,-209.8769 570.0252,-220.465 576.3321,-211.9518 569.6467,-209.8769"/>
</g>
<!-- Node5&#45;&gt;Node12 -->
<g id="edge14" class="edge">
<title>Node5&#45;&gt;Node12</title>
<path fill="none" stroke="#191970" d="M544.4752,-214.953C528.554,-205.0023 507.9407,-192.1189 494.3034,-183.5956"/>
<polygon fill="#191970" stroke="#191970" points="542.8839,-218.0858 553.2189,-220.4179 546.594,-212.1498 542.8839,-218.0858"/>
</g>
<!-- Node5&#45;&gt;Node14 -->
<g id="edge19" class="edge">
<title>Node5&#45;&gt;Node14</title>
<path fill="none" stroke="#191970" d="M591.29,-214.953C607.3921,-205.0023 628.2397,-192.1189 642.032,-183.5956"/>
<polygon fill="#191970" stroke="#191970" points="589.1137,-212.1835 582.4469,-220.4179 592.7936,-218.1382 589.1137,-212.1835"/>
</g>
<!-- Node5&#45;&gt;Node15 -->
<g id="edge20" class="edge">
<title>Node5&#45;&gt;Node15</title>
<path fill="none" stroke="#191970" d="M610.785,-217.7826C648.4342,-207.5316 702.3284,-192.8575 736.6803,-183.5042"/>
<polygon fill="#191970" stroke="#191970" points="609.8358,-214.4136 601.1065,-220.4179 611.6748,-221.1677 609.8358,-214.4136"/>
</g>
<!-- Node5&#45;&gt;Node16 -->
<g id="edge21" class="edge">
<title>Node5&#45;&gt;Node16</title>
<path fill="none" stroke="#191970" d="M521.245,-217.9784C479.835,-207.7192 420.0887,-192.9172 382.0946,-183.5042"/>
<polygon fill="#191970" stroke="#191970" points="520.5433,-221.4103 531.0916,-220.4179 522.2267,-214.6157 520.5433,-221.4103"/>
</g>
<!-- Node7 -->
<g id="node6" class="node">
<title>Node7</title>
<g id="a_node6"><a xlink:href="ring_buffer_8hpp.xhtml" target="_top" xlink:title="Ring Buffer header file. ">
<polygon fill="#ffffff" stroke="#000000" points="569.6488,-110.5 569.6488,-128.5 663.8519,-128.5 663.8519,-110.5 569.6488,-110.5"/>
<text text-anchor="middle" x="616.7504" y="-116.5" font-family="Helvetica,sans-Serif" font-size="10.00" fill="#000000">src/ringBuffer.hpp</text>
</a>
</g>
</g>
<!-- Node6&#45;&gt;Node7 -->
<g id="edge7" class="edge">
<title>Node6&#45;&gt;Node7</title>
<path fill="none" stroke="#191970" d="M869.922,-163.7046C809.5295,-153.1598 718.922,-137.3395 664.0611,-127.7606"/>
<polygon fill="#191970" stroke="#191970" points="869.6342,-167.2072 880.0872,-165.4795 870.8383,-160.3115 869.6342,-167.2072"/>
</g>
<!-- Node6&#45;&gt;Node9 -->
<g id="edge12" class="edge">
<title>Node6&#45;&gt;Node9</title>
<path fill="none" stroke="#191970" d="M955.5888,-159.4568C973.5461,-146.2468 992.9852,-126.6024 979.7504,-110 961.028,-86.5137 879.8587,-74.1817 827.1436,-68.5294"/>
<polygon fill="#191970" stroke="#191970" points="953.2653,-156.8087 947.0421,-165.3833 957.2541,-162.5611 953.2653,-156.8087"/>
</g>
<!-- Node11 -->
<g id="node10" class="node">
<title>Node11</title>
<g id="a_node10"><a xlink:href="file_handler_8cpp.xhtml" target="_top" xlink:title="File handler source file. ">
<polygon fill="#ffffff" stroke="#000000" points="872.6175,-110.5 872.6175,-128.5 970.8832,-128.5 970.8832,-110.5 872.6175,-110.5"/>
<text text-anchor="middle" x="921.7504" y="-116.5" font-family="Helvetica,sans-Serif" font-size="10.00" fill="#000000">src/fileHandler.cpp</text>
</a>
</g>
</g>
<!-- Node6&#45;&gt;Node11 -->
<g id="edge13" class="edge">
<title>Node6&#45;&gt;Node11</title>
<path fill="none" stroke="#191970" d="M928.2745,-155.383C926.6365,-146.3738 924.7571,-136.0373 923.4375,-128.7795"/>
<polygon fill="#191970" stroke="#191970" points="924.8666,-156.2053 930.0991,-165.4179 931.7537,-154.953 924.8666,-156.2053"/>
</g>
<!-- Node7&#45;&gt;Node8 -->
<g id="edge8" class="edge">
<title>Node7&#45;&gt;Node8</title>
<path fill="none" stroke="#191970" d="M616.7504,-100.1899C616.7504,-76.2569 616.7504,-36.4552 616.7504,-18.6261"/>
<polygon fill="#191970" stroke="#191970" points="613.2504,-100.4982 616.7504,-110.4982 620.2504,-100.4983 613.2504,-100.4982"/>
</g>
<!-- Node7&#45;&gt;Node9 -->
<g id="edge9" class="edge">
<title>Node7&#45;&gt;Node9</title>
<path fill="none" stroke="#191970" d="M653.6581,-107.1224C684.1108,-96.9096 726.6052,-82.6584 753.9014,-73.5042"/>
<polygon fill="#191970" stroke="#191970" points="652.1998,-103.9198 643.8316,-110.4179 654.4255,-110.5566 652.1998,-103.9198"/>
</g>
<!-- Node9&#45;&gt;Node8 -->
<g id="edge10" class="edge">
<title>Node9&#45;&gt;Node8</title>
<path fill="none" stroke="#191970" d="M743.8426,-52.1224C713.3899,-41.9096 670.8955,-27.6584 643.5993,-18.5042"/>
<polygon fill="#191970" stroke="#191970" points="743.0752,-55.5566 753.6691,-55.4179 745.3009,-48.9198 743.0752,-55.5566"/>
</g>
<!-- Node10 -->
<g id="node9" class="node">
<title>Node10</title>
<g id="a_node9"><a xlink:href="main_8cpp.xhtml" target="_top" xlink:title="Main source file. ">
<polygon fill="#ffffff" stroke="#000000" points="744.4081,-.5 744.4081,-18.5 817.0926,-18.5 817.0926,-.5 744.4081,-.5"/>
<text text-anchor="middle" x="780.7504" y="-6.5" font-family="Helvetica,sans-Serif" font-size="10.00" fill="#000000">src/main.cpp</text>
</a>
</g>
</g>
<!-- Node9&#45;&gt;Node10 -->
<g id="edge11" class="edge">
<title>Node9&#45;&gt;Node10</title>
<path fill="none" stroke="#191970" d="M780.7504,-45.383C780.7504,-36.3738 780.7504,-26.0373 780.7504,-18.7795"/>
<polygon fill="#191970" stroke="#191970" points="777.2505,-45.4178 780.7504,-55.4179 784.2505,-45.4179 777.2505,-45.4178"/>
</g>
<!-- Node12&#45;&gt;Node7 -->
<g id="edge15" class="edge">
<title>Node12&#45;&gt;Node7</title>
<path fill="none" stroke="#191970" d="M511.888,-161.598C537.1387,-151.4609 571.6726,-137.5969 594.094,-128.5956"/>
<polygon fill="#191970" stroke="#191970" points="510.3492,-158.4442 502.3731,-165.4179 512.9572,-164.9403 510.3492,-158.4442"/>
</g>
<!-- Node12&#45;&gt;Node13 -->
<g id="edge16" class="edge">
<title>Node12&#45;&gt;Node13</title>
<path fill="none" stroke="#191970" d="M479.7504,-155.383C479.7504,-146.3738 479.7504,-136.0373 479.7504,-128.7795"/>
<polygon fill="#191970" stroke="#191970" points="476.2505,-155.4178 479.7504,-165.4179 483.2505,-155.4179 476.2505,-155.4178"/>
</g>
<!-- Node20&#45;&gt;Node15 -->
<g id="edge32" class="edge">
<title>Node20&#45;&gt;Node15</title>
<path fill="none" stroke="#191970" d="M755.1603,-210.9751C758.8185,-201.8297 763.0716,-191.1969 766.0386,-183.7795"/>
<polygon fill="#191970" stroke="#191970" points="751.8475,-209.8332 751.3832,-220.4179 758.3468,-212.433 751.8475,-209.8332"/>
</g>
<!-- Node21&#45;&gt;Node16 -->
<g id="edge35" class="edge">
<title>Node21&#45;&gt;Node16</title>
<path fill="none" stroke="#191970" d="M350.3173,-210.383C349.1707,-201.3738 347.8551,-191.0373 346.9314,-183.7795"/>
<polygon fill="#191970" stroke="#191970" points="346.8598,-210.9398 351.5944,-220.4179 353.8038,-210.056 346.8598,-210.9398"/>
</g>
</g>
</svg>
