<?xml version="1.0" encoding="UTF-8" standalone="no"?>
<!DOCTYPE svg PUBLIC "-//W3C//DTD SVG 1.1//EN"
 "http://www.w3.org/Graphics/SVG/1.1/DTD/svg11.dtd">
<!-- Generated by graphviz version 2.40.1 (20161225.0304)
 -->
<!-- Title: src/tcpip_headers.hpp Pages: 1 -->
<!--zoomable 357 -->
<svg id="main" version="1.1" xmlns="http://www.w3.org/2000/svg" xmlns:xlink="http://www.w3.org/1999/xlink" xml:space="preserve" onload="init(evt)">
<style type="text/css"><![CDATA[
.edge:hover path { stroke: red; }
.edge:hover polygon { stroke: red; fill: red; }
]]></style>
<script type="text/javascript"><![CDATA[
var edges = document.getElementsByTagName('g');
if (edges && edges.length) {
  for (var i=0;i<edges.length;i++) {
    if (edges[i].id.substr(0,4)=='edge') {
      edges[i].setAttribute('class','edge');
    }
  }
}
]]></script>
        <defs>
                <circle id="rim" cx="0" cy="0" r="7"/>
                <circle id="rim2" cx="0" cy="0" r="3.5"/>
                <g id="zoomPlus">
                        <use xlink:href="#rim" fill="#404040">
                                <set attributeName="fill" to="#808080" begin="zoomplus.mouseover" end="zoomplus.mouseout"/>
                        </use>
                        <path d="M-4,0h8M0,-4v8" fill="none" stroke="white" stroke-width="1.5" pointer-events="none"/>
                </g>
                <g id="zoomMin">
                        <use xlink:href="#rim" fill="#404040">
                                <set attributeName="fill" to="#808080" begin="zoomminus.mouseover" end="zoomminus.mouseout"/>
                        </use>
                        <path d="M-4,0h8" fill="none" stroke="white" stroke-width="1.5" pointer-events="none"/>
                </g>
                <g id="dirArrow">
                        <path fill="none" stroke="white" stroke-width="1.5" d="M0,-3.0v7 M-2.5,-0.5L0,-3.0L2.5,-0.5"/>
                </g>
               <g id="resetDef">
                       <use xlink:href="#rim2" fill="#404040">
                               <set attributeName="fill" to="#808080" begin="reset.mouseover" end="reset.mouseout"/>
                       </use>
               </g>
        </defs>

<script type="text/javascript">
var viewWidth = 1230;
var viewHeight = 357;
var sectionId = 'dynsection-1';
</script>
<script xlink:href="svgpan.js"/>
<svg id="graph" class="graph">
<g id="viewport">
<title>src/tcpip_headers.hpp</title>
<polygon fill="#ffffff" stroke="transparent" points="-4,4 -4,-353 1226.0031,-353 1226.0031,4 -4,4"/>
<!-- Node2 -->
<g id="node1" class="node">
<title>Node2</title>
<polygon fill="#bfbfbf" stroke="#000000" points="954.4098,-330.5 954.4098,-348.5 1068.8034,-348.5 1068.8034,-330.5 954.4098,-330.5"/>
<text text-anchor="middle" x="1011.6066" y="-336.5" font-family="Helvetica,sans-Serif" font-size="10.00" fill="#000000">src/tcpip_headers.hpp</text>
</g>
<!-- Node3 -->
<g id="node2" class="node">
<title>Node3</title>
<g id="a_node2"><a xlink:href="cache_8cpp.xhtml" target="_top" xlink:title="Cache implementation sources. ">
<polygon fill="#ffffff" stroke="#000000" points="12.7594,-165.5 12.7594,-183.5 90.4538,-183.5 90.4538,-165.5 12.7594,-165.5"/>
<text text-anchor="middle" x="51.6066" y="-171.5" font-family="Helvetica,sans-Serif" font-size="10.00" fill="#000000">src/cache.cpp</text>
</a>
</g>
</g>
<!-- Node2&#45;&gt;Node3 -->
<g id="edge1" class="edge">
<title>Node2&#45;&gt;Node3</title>
<path fill="none" stroke="#191970" d="M944.1668,-337.3316C758.8772,-331.1612 250.8992,-312.7384 177.6066,-294 122.7164,-279.9665 96.7496,-284.2121 62.6066,-239 50.2843,-222.6828 49.852,-197.4238 50.6814,-183.8645"/>
<polygon fill="#191970" stroke="#191970" points="944.2141,-340.835 954.3246,-337.6683 944.4461,-333.8388 944.2141,-340.835"/>
</g>
<!-- Node4 -->
<g id="node3" class="node">
<title>Node4</title>
<g id="a_node3"><a xlink:href="netflow_8hpp.xhtml" target="_top" xlink:title="Netflow structure header file. ">
<polygon fill="#ffffff" stroke="#000000" points="496.2521,-275.5 496.2521,-293.5 578.9611,-293.5 578.9611,-275.5 496.2521,-275.5"/>
<text text-anchor="middle" x="537.6066" y="-281.5" font-family="Helvetica,sans-Serif" font-size="10.00" fill="#000000">src/netflow.hpp</text>
</a>
</g>
</g>
<!-- Node2&#45;&gt;Node4 -->
<g id="edge2" class="edge">
<title>Node2&#45;&gt;Node4</title>
<path fill="none" stroke="#191970" d="M944.0021,-331.6556C844.4201,-320.1007 661.257,-298.8476 579.2357,-289.3304"/>
<polygon fill="#191970" stroke="#191970" points="943.622,-335.1349 953.9588,-332.8109 944.4289,-328.1815 943.622,-335.1349"/>
</g>
<!-- Node6 -->
<g id="node5" class="node">
<title>Node6</title>
<g id="a_node5"><a xlink:href="pcapng__blocks_8hpp.xhtml" target="_top" xlink:title="Pcap&#45;ng block structures. ">
<polygon fill="#ffffff" stroke="#000000" points="926.464,-165.5 926.464,-183.5 1044.7492,-183.5 1044.7492,-165.5 926.464,-165.5"/>
<text text-anchor="middle" x="985.6066" y="-171.5" font-family="Helvetica,sans-Serif" font-size="10.00" fill="#000000">src/pcapng_blocks.hpp</text>
</a>
</g>
</g>
<!-- Node2&#45;&gt;Node6 -->
<g id="edge37" class="edge">
<title>Node2&#45;&gt;Node6</title>
<path fill="none" stroke="#191970" d="M1019.0243,-320.8064C1027.4253,-296.7149 1038.3886,-253.8986 1025.6066,-220 1019.9661,-205.041 1006.9221,-191.8053 997.2548,-183.5201"/>
<polygon fill="#191970" stroke="#191970" points="1015.6402,-319.8656 1015.4392,-330.4585 1022.2022,-322.303 1015.6402,-319.8656"/>
</g>
<!-- Node8 -->
<g id="node7" class="node">
<title>Node8</title>
<g id="a_node7"><a xlink:href="capturing_8cpp.xhtml" target="_top" xlink:title="Network traffic capture sources. ">
<polygon fill="#ffffff" stroke="#000000" points="595.5329,-.5 595.5329,-18.5 687.6803,-18.5 687.6803,-.5 595.5329,-.5"/>
<text text-anchor="middle" x="641.6066" y="-6.5" font-family="Helvetica,sans-Serif" font-size="10.00" fill="#000000">src/capturing.cpp</text>
</a>
</g>
</g>
<!-- Node2&#45;&gt;Node8 -->
<g id="edge36" class="edge">
<title>Node2&#45;&gt;Node8</title>
<path fill="none" stroke="#191970" d="M1042.3698,-326.0184C1076.1335,-308.8915 1125.6066,-275.8823 1125.6066,-229.5 1125.6066,-229.5 1125.6066,-229.5 1125.6066,-119.5 1125.6066,-74.9067 809.1559,-30.5085 688.0146,-15.1461"/>
<polygon fill="#191970" stroke="#191970" points="1040.7763,-322.9014 1033.3175,-330.4258 1043.8406,-329.1951 1040.7763,-322.9014"/>
</g>
<!-- Node9 -->
<g id="node8" class="node">
<title>Node9</title>
<g id="a_node8"><a xlink:href="capturing_8hpp.xhtml" target="_top" xlink:title="Network traffic capture header file. ">
<polygon fill="#ffffff" stroke="#000000" points="772.2521,-55.5 772.2521,-73.5 864.9611,-73.5 864.9611,-55.5 772.2521,-55.5"/>
<text text-anchor="middle" x="818.6066" y="-61.5" font-family="Helvetica,sans-Serif" font-size="10.00" fill="#000000">src/capturing.hpp</text>
</a>
</g>
</g>
<!-- Node2&#45;&gt;Node9 -->
<g id="edge38" class="edge">
<title>Node2&#45;&gt;Node9</title>
<path fill="none" stroke="#191970" d="M1031.5313,-323.9961C1054.0491,-304.5659 1087.6066,-268.9858 1087.6066,-229.5 1087.6066,-229.5 1087.6066,-229.5 1087.6066,-174.5 1087.6066,-140.532 1074.6268,-129.2014 1046.6066,-110 1017.6806,-90.1779 922.9915,-76.3032 865.1323,-69.4339"/>
<polygon fill="#191970" stroke="#191970" points="1029.275,-321.3202 1023.8173,-330.4012 1033.7468,-326.7057 1029.275,-321.3202"/>
</g>
<!-- Node15 -->
<g id="node14" class="node">
<title>Node15</title>
<g id="a_node14"><a xlink:href="namon__linux_8cpp.xhtml" target="_top" xlink:title="Determining applications and their sockets in Linux. ">
<polygon fill="#ffffff" stroke="#000000" points="762.7497,-165.5 762.7497,-183.5 870.4635,-183.5 870.4635,-165.5 762.7497,-165.5"/>
<text text-anchor="middle" x="816.6066" y="-171.5" font-family="Helvetica,sans-Serif" font-size="10.00" fill="#000000">src/namon_linux.cpp</text>
</a>
</g>
</g>
<!-- Node2&#45;&gt;Node15 -->
<g id="edge39" class="edge">
<title>Node2&#45;&gt;Node15</title>
<path fill="none" stroke="#191970" d="M1014.4479,-320.1698C1017.1261,-294.0194 1017.5927,-247.4886 992.6066,-220 976.3141,-202.0757 916.2824,-189.2879 870.822,-181.9211"/>
<polygon fill="#191970" stroke="#191970" points="1010.9475,-319.9575 1013.189,-330.3125 1017.8942,-320.8198 1010.9475,-319.9575"/>
</g>
<!-- Node16 -->
<g id="node15" class="node">
<title>Node16</title>
<g id="a_node15"><a xlink:href="namon__win_8cpp.xhtml" target="_top" xlink:title="Determining the applications and their sockets on Windows. ">
<polygon fill="#ffffff" stroke="#000000" points="298.5304,-165.5 298.5304,-183.5 400.6828,-183.5 400.6828,-165.5 298.5304,-165.5"/>
<text text-anchor="middle" x="349.6066" y="-171.5" font-family="Helvetica,sans-Serif" font-size="10.00" fill="#000000">src/namon_win.cpp</text>
</a>
</g>
</g>
<!-- Node2&#45;&gt;Node16 -->
<g id="edge40" class="edge">
<title>Node2&#45;&gt;Node16</title>
<path fill="none" stroke="#191970" d="M944.0648,-337.4573C738.0452,-330.5303 128.1251,-304.603 70.6066,-239 65.0396,-232.6505 65.1371,-226.4337 70.6066,-220 85.1693,-202.87 221.8427,-186.9498 298.3463,-179.2849"/>
<polygon fill="#191970" stroke="#191970" points="944.0383,-340.9582 954.1489,-337.7919 944.2705,-333.9621 944.0383,-340.9582"/>
</g>
<!-- Node21 -->
<g id="node20" class="node">
<title>Node21</title>
<g id="a_node20"><a xlink:href="netflow_8cpp.xhtml" target="_top" xlink:title="Netflow structure source file. ">
<polygon fill="#ffffff" stroke="#000000" points="901.5329,-220.5 901.5329,-238.5 983.6803,-238.5 983.6803,-220.5 901.5329,-220.5"/>
<text text-anchor="middle" x="942.6066" y="-226.5" font-family="Helvetica,sans-Serif" font-size="10.00" fill="#000000">src/netflow.cpp</text>
</a>
</g>
</g>
<!-- Node2&#45;&gt;Node21 -->
<g id="edge41" class="edge">
<title>Node2&#45;&gt;Node21</title>
<path fill="none" stroke="#191970" d="M1000.5018,-321.7966C985.6233,-298.0774 959.769,-256.8604 948.3312,-238.6261"/>
<polygon fill="#191970" stroke="#191970" points="997.6812,-323.8868 1005.9601,-330.4982 1003.6112,-320.167 997.6812,-323.8868"/>
</g>
<!-- Node22 -->
<g id="node21" class="node">
<title>Node22</title>
<g id="a_node21"><a xlink:href="utils_8cpp.xhtml" target="_top" xlink:title="Small useful functions. ">
<polygon fill="#ffffff" stroke="#000000" points="1153.2101,-275.5 1153.2101,-293.5 1222.0031,-293.5 1222.0031,-275.5 1153.2101,-275.5"/>
<text text-anchor="middle" x="1187.6066" y="-281.5" font-family="Helvetica,sans-Serif" font-size="10.00" fill="#000000">src/utils.cpp</text>
</a>
</g>
</g>
<!-- Node2&#45;&gt;Node22 -->
<g id="edge42" class="edge">
<title>Node2&#45;&gt;Node22</title>
<path fill="none" stroke="#191970" d="M1050.3653,-327.3879C1083.1015,-317.1578 1129.2449,-302.7381 1158.7931,-293.5042"/>
<polygon fill="#191970" stroke="#191970" points="1049.1703,-324.0944 1040.6694,-330.4179 1051.2582,-330.7757 1049.1703,-324.0944"/>
</g>
<!-- Node4&#45;&gt;Node3 -->
<g id="edge3" class="edge">
<title>Node4&#45;&gt;Node3</title>
<path fill="none" stroke="#191970" d="M485.6977,-282.6791C370.6899,-278.1883 102.0779,-265.0127 70.6066,-239 54.0505,-225.3155 51.4784,-197.9817 51.3412,-183.6888"/>
<polygon fill="#191970" stroke="#191970" points="485.881,-286.1886 496.0078,-283.0744 486.1493,-279.1937 485.881,-286.1886"/>
</g>
<!-- Node5 -->
<g id="node4" class="node">
<title>Node5</title>
<g id="a_node4"><a xlink:href="cache_8hpp.xhtml" target="_top" xlink:title="Cache implementation header file. ">
<polygon fill="#ffffff" stroke="#000000" points="565.4787,-220.5 565.4787,-238.5 643.7345,-238.5 643.7345,-220.5 565.4787,-220.5"/>
<text text-anchor="middle" x="604.6066" y="-226.5" font-family="Helvetica,sans-Serif" font-size="10.00" fill="#000000">src/cache.hpp</text>
</a>
</g>
</g>
<!-- Node4&#45;&gt;Node5 -->
<g id="edge4" class="edge">
<title>Node4&#45;&gt;Node5</title>
<path fill="none" stroke="#191970" d="M556.6495,-268.8678C568.4833,-259.1535 583.2952,-246.9944 593.3026,-238.7795"/>
<polygon fill="#191970" stroke="#191970" points="554.1789,-266.3676 548.6703,-275.4179 558.6203,-271.7782 554.1789,-266.3676"/>
</g>
<!-- Node4&#45;&gt;Node8 -->
<g id="edge23" class="edge">
<title>Node4&#45;&gt;Node8</title>
<path fill="none" stroke="#191970" d="M520.3854,-268.2725C496.427,-245.2316 455.1211,-203.6553 447.6066,-184 435.8618,-153.2797 430.5168,-138.1001 447.6066,-110 479.9313,-56.8499 550.4577,-30.5531 596.9737,-18.5167"/>
<polygon fill="#191970" stroke="#191970" points="518.1196,-270.9481 527.7715,-275.3173 522.9509,-265.8827 518.1196,-270.9481"/>
</g>
<!-- Node4&#45;&gt;Node9 -->
<g id="edge24" class="edge">
<title>Node4&#45;&gt;Node9</title>
<path fill="none" stroke="#191970" d="M589.3373,-282.9956C668.2198,-279.7382 813.7373,-269.6432 854.6066,-239 882.3815,-218.1748 888.9586,-198.4317 879.6066,-165 869.1596,-127.6539 840.6185,-90.3838 826.5964,-73.6487"/>
<polygon fill="#191970" stroke="#191970" points="588.9866,-279.5065 579.1308,-283.3942 589.2598,-286.5012 588.9866,-279.5065"/>
</g>
<!-- Node12 -->
<g id="node11" class="node">
<title>Node12</title>
<g id="a_node11"><a xlink:href="namon_8hpp.xhtml" target="_top" xlink:title="Determining applications header file. ">
<polygon fill="#ffffff" stroke="#000000" points="456.5329,-165.5 456.5329,-183.5 538.6803,-183.5 538.6803,-165.5 456.5329,-165.5"/>
<text text-anchor="middle" x="497.6066" y="-171.5" font-family="Helvetica,sans-Serif" font-size="10.00" fill="#000000">src/namon.hpp</text>
</a>
</g>
</g>
<!-- Node4&#45;&gt;Node12 -->
<g id="edge22" class="edge">
<title>Node4&#45;&gt;Node12</title>
<path fill="none" stroke="#191970" d="M530.8207,-265.8386C522.1457,-241.9823 507.4674,-201.6173 500.9252,-183.6261"/>
<polygon fill="#191970" stroke="#191970" points="527.6265,-267.2964 534.3332,-275.4982 534.205,-264.9042 527.6265,-267.2964"/>
</g>
<!-- Node13 -->
<g id="node12" class="node">
<title>Node13</title>
<g id="a_node12"><a xlink:href="namon_8cpp.xhtml" target="_top" xlink:title="Network Traffic Capturing With Application Tags. ">
<polygon fill="#ffffff" stroke="#000000" points="456.8136,-110.5 456.8136,-128.5 538.3996,-128.5 538.3996,-110.5 456.8136,-110.5"/>
<text text-anchor="middle" x="497.6066" y="-116.5" font-family="Helvetica,sans-Serif" font-size="10.00" fill="#000000">src/namon.cpp</text>
</a>
</g>
</g>
<!-- Node4&#45;&gt;Node13 -->
<g id="edge25" class="edge">
<title>Node4&#45;&gt;Node13</title>
<path fill="none" stroke="#191970" d="M485.7495,-281.744C368.7708,-275.2249 91.5785,-257.9722 53.6066,-239 24.0543,-224.2346 15.5192,-214.8131 3.6066,-184 .5616,-176.1237 -2.0841,-171.2389 3.6066,-165 33.8967,-131.7918 343.2612,-122.4874 456.4283,-120.184"/>
<polygon fill="#191970" stroke="#191970" points="485.7144,-285.2474 495.8924,-282.3047 486.1008,-278.258 485.7144,-285.2474"/>
</g>
<!-- Node14 -->
<g id="node13" class="node">
<title>Node14</title>
<g id="a_node13"><a xlink:href="namon__apple_8cpp.xhtml" target="_top" xlink:title="Determining the applications and their sockets on macOS. ">
<polygon fill="#ffffff" stroke="#000000" points="632.799,-165.5 632.799,-183.5 744.4142,-183.5 744.4142,-165.5 632.799,-165.5"/>
<text text-anchor="middle" x="688.6066" y="-171.5" font-family="Helvetica,sans-Serif" font-size="10.00" fill="#000000">src/namon_apple.cpp</text>
</a>
</g>
</g>
<!-- Node4&#45;&gt;Node14 -->
<g id="edge26" class="edge">
<title>Node4&#45;&gt;Node14</title>
<path fill="none" stroke="#191970" d="M588.7359,-272.52C610.2998,-265.5069 634.5368,-254.8241 652.6066,-239 670.1653,-223.6235 680.9533,-197.5101 685.7229,-183.6981"/>
<polygon fill="#191970" stroke="#191970" points="587.5834,-269.2125 579.0481,-275.4893 589.6348,-275.9052 587.5834,-269.2125"/>
</g>
<!-- Node4&#45;&gt;Node15 -->
<g id="edge29" class="edge">
<title>Node4&#45;&gt;Node15</title>
<path fill="none" stroke="#191970" d="M577.5428,-272.4631C605.0852,-263.864 642.3945,-251.6241 674.6066,-239 719.7324,-221.315 771.1774,-196.8269 798.0422,-183.6957"/>
<polygon fill="#191970" stroke="#191970" points="576.3819,-269.1586 567.8651,-275.4604 578.4529,-275.8452 576.3819,-269.1586"/>
</g>
<!-- Node4&#45;&gt;Node16 -->
<g id="edge32" class="edge">
<title>Node4&#45;&gt;Node16</title>
<path fill="none" stroke="#191970" d="M517.2206,-269.4187C498.3441,-255.7569 469.252,-235.4596 442.6066,-220 418.5084,-206.0182 389.4985,-192.2875 370.3589,-183.6295"/>
<polygon fill="#191970" stroke="#191970" points="515.2288,-272.2981 525.3701,-275.3648 519.3547,-266.6432 515.2288,-272.2981"/>
</g>
<!-- Node17 -->
<g id="node16" class="node">
<title>Node17</title>
<g id="a_node16"><a xlink:href="namon__apple_8hpp.xhtml" target="_top" xlink:title="Determining applications and their sockets on macOS. ">
<polygon fill="#ffffff" stroke="#000000" points="79.5182,-220.5 79.5182,-238.5 191.695,-238.5 191.695,-220.5 79.5182,-220.5"/>
<text text-anchor="middle" x="135.6066" y="-226.5" font-family="Helvetica,sans-Serif" font-size="10.00" fill="#000000">src/namon_apple.hpp</text>
</a>
</g>
</g>
<!-- Node4&#45;&gt;Node17 -->
<g id="edge27" class="edge">
<title>Node4&#45;&gt;Node17</title>
<path fill="none" stroke="#191970" d="M485.9204,-277.6999C419.7601,-268.9545 301.6059,-253.1985 200.6066,-239 197.7832,-238.6031 194.8914,-238.1931 191.9714,-237.7764"/>
<polygon fill="#191970" stroke="#191970" points="485.7095,-281.2023 496.0817,-279.042 486.6261,-274.2626 485.7095,-281.2023"/>
</g>
<!-- Node18 -->
<g id="node17" class="node">
<title>Node18</title>
<g id="a_node17"><a xlink:href="namon__bsd_8hpp.xhtml" target="_top" xlink:title="Determining applications and their sockets on FreeBSD. ">
<polygon fill="#ffffff" stroke="#000000" points="209.6906,-220.5 209.6906,-238.5 313.5226,-238.5 313.5226,-220.5 209.6906,-220.5"/>
<text text-anchor="middle" x="261.6066" y="-226.5" font-family="Helvetica,sans-Serif" font-size="10.00" fill="#000000">src/namon_bsd.hpp</text>
</a>
</g>
</g>
<!-- Node4&#45;&gt;Node18 -->
<g id="edge28" class="edge">
<title>Node4&#45;&gt;Node18</title>
<path fill="none" stroke="#191970" d="M486.0512,-274.2263C434.488,-263.951 355.9677,-248.3038 306.7805,-238.502"/>
<polygon fill="#191970" stroke="#191970" points="485.4966,-277.6845 495.9878,-276.2064 486.8647,-270.8195 485.4966,-277.6845"/>
</g>
<!-- Node19 -->
<g id="node18" class="node">
<title>Node19</title>
<g id="a_node18"><a xlink:href="namon__linux_8hpp.xhtml" target="_top" xlink:title="Determining applications and their sockets on Linux. ">
<polygon fill="#ffffff" stroke="#000000" points="737.4689,-220.5 737.4689,-238.5 845.7443,-238.5 845.7443,-220.5 737.4689,-220.5"/>
<text text-anchor="middle" x="791.6066" y="-226.5" font-family="Helvetica,sans-Serif" font-size="10.00" fill="#000000">src/namon_linux.hpp</text>
</a>
</g>
</g>
<!-- Node4&#45;&gt;Node19 -->
<g id="edge30" class="edge">
<title>Node4&#45;&gt;Node19</title>
<path fill="none" stroke="#191970" d="M589.0325,-273.3645C636.3952,-263.1088 705.7978,-248.0807 749.8271,-238.5467"/>
<polygon fill="#191970" stroke="#191970" points="588.0142,-270.0038 578.9814,-275.5409 589.4956,-276.8452 588.0142,-270.0038"/>
</g>
<!-- Node20 -->
<g id="node19" class="node">
<title>Node20</title>
<g id="a_node19"><a xlink:href="namon__win_8hpp.xhtml" target="_top" xlink:title="Determining applications and their sockets on Windows. ">
<polygon fill="#ffffff" stroke="#000000" points="331.2497,-220.5 331.2497,-238.5 433.9635,-238.5 433.9635,-220.5 331.2497,-220.5"/>
<text text-anchor="middle" x="382.6066" y="-226.5" font-family="Helvetica,sans-Serif" font-size="10.00" fill="#000000">src/namon_win.hpp</text>
</a>
</g>
</g>
<!-- Node4&#45;&gt;Node20 -->
<g id="edge33" class="edge">
<title>Node4&#45;&gt;Node20</title>
<path fill="none" stroke="#191970" d="M502.3483,-271.989C473.5938,-261.7858 433.6683,-247.6186 407.9821,-238.5042"/>
<polygon fill="#191970" stroke="#191970" points="501.4168,-275.3722 512.0115,-275.4179 503.7577,-268.7752 501.4168,-275.3722"/>
</g>
<!-- Node4&#45;&gt;Node21 -->
<g id="edge35" class="edge">
<title>Node4&#45;&gt;Node21</title>
<path fill="none" stroke="#191970" d="M589.2476,-278.4707C657.6125,-270.3324 781.8603,-254.999 887.6066,-239 892.1097,-238.3187 896.8131,-237.5674 901.4916,-236.7947"/>
<polygon fill="#191970" stroke="#191970" points="588.689,-275.0124 579.171,-279.6663 589.5138,-281.9636 588.689,-275.0124"/>
</g>
<!-- Node5&#45;&gt;Node3 -->
<g id="edge5" class="edge">
<title>Node5&#45;&gt;Node3</title>
<path fill="none" stroke="#191970" d="M555.2511,-224.5912C446.7095,-213.7959 189.1221,-188.1769 90.7331,-178.3914"/>
<polygon fill="#191970" stroke="#191970" points="554.9822,-228.0817 565.2795,-225.5886 555.6751,-221.116 554.9822,-228.0817"/>
</g>
<!-- Node5&#45;&gt;Node6 -->
<g id="edge6" class="edge">
<title>Node5&#45;&gt;Node6</title>
<path fill="none" stroke="#191970" d="M654.246,-222.3342C724.1746,-212.2395 851.4898,-193.8607 926.3057,-183.0605"/>
<polygon fill="#191970" stroke="#191970" points="653.3426,-218.9283 643.9453,-223.8212 654.3428,-225.8564 653.3426,-218.9283"/>
</g>
<!-- Node5&#45;&gt;Node8 -->
<g id="edge17" class="edge">
<title>Node5&#45;&gt;Node8</title>
<path fill="none" stroke="#191970" d="M596.9635,-210.8764C588.2989,-187.1722 576.4909,-145.0873 585.6066,-110 595.1996,-73.0759 621.6508,-35.3056 634.4646,-18.5058"/>
<polygon fill="#191970" stroke="#191970" points="593.7677,-212.3166 600.6369,-220.3829 600.2972,-209.7935 593.7677,-212.3166"/>
</g>
<!-- Node5&#45;&gt;Node9 -->
<g id="edge18" class="edge">
<title>Node5&#45;&gt;Node9</title>
<path fill="none" stroke="#191970" d="M606.183,-210.0574C608.2224,-196.1238 612.8969,-177.6573 623.6066,-165 647.2311,-137.0794 665.019,-145.6051 697.6066,-129 735.1489,-109.8702 778.6204,-86.3596 801.8753,-73.6709"/>
<polygon fill="#191970" stroke="#191970" points="602.6976,-209.7315 605.0473,-220.0625 609.6529,-210.5211 602.6976,-209.7315"/>
</g>
<!-- Node5&#45;&gt;Node12 -->
<g id="edge14" class="edge">
<title>Node5&#45;&gt;Node12</title>
<path fill="none" stroke="#191970" d="M577.9207,-215.7829C558.3596,-205.7282 532.3484,-192.3579 515.3017,-183.5956"/>
<polygon fill="#191970" stroke="#191970" points="576.4438,-218.9591 586.9377,-220.4179 579.644,-212.7334 576.4438,-218.9591"/>
</g>
<!-- Node5&#45;&gt;Node14 -->
<g id="edge19" class="edge">
<title>Node5&#45;&gt;Node14</title>
<path fill="none" stroke="#191970" d="M627.2511,-214.6733C642.3885,-204.7619 661.8193,-192.0393 674.7151,-183.5956"/>
<polygon fill="#191970" stroke="#191970" points="624.9264,-212.0118 618.4775,-220.4179 628.761,-217.8681 624.9264,-212.0118"/>
</g>
<!-- Node5&#45;&gt;Node15 -->
<g id="edge20" class="edge">
<title>Node5&#45;&gt;Node15</title>
<path fill="none" stroke="#191970" d="M649.5197,-217.848C689.0439,-207.5941 745.7703,-192.8774 781.8995,-183.5042"/>
<polygon fill="#191970" stroke="#191970" points="648.4147,-214.5187 639.6141,-220.4179 650.1726,-221.2944 648.4147,-214.5187"/>
</g>
<!-- Node5&#45;&gt;Node16 -->
<g id="edge21" class="edge">
<title>Node5&#45;&gt;Node16</title>
<path fill="none" stroke="#191970" d="M555.544,-218.9179C507.9411,-208.6506 436.482,-193.2378 391.4815,-183.5318"/>
<polygon fill="#191970" stroke="#191970" points="554.8085,-222.3397 565.3217,-221.0268 556.2845,-215.497 554.8085,-222.3397"/>
</g>
<!-- Node7 -->
<g id="node6" class="node">
<title>Node7</title>
<g id="a_node6"><a xlink:href="ring_buffer_8hpp.xhtml" target="_top" xlink:title="Ring Buffer header file. ">
<polygon fill="#ffffff" stroke="#000000" points="594.5051,-110.5 594.5051,-128.5 688.7082,-128.5 688.7082,-110.5 594.5051,-110.5"/>
<text text-anchor="middle" x="641.6066" y="-116.5" font-family="Helvetica,sans-Serif" font-size="10.00" fill="#000000">src/ringBuffer.hpp</text>
</a>
</g>
</g>
<!-- Node6&#45;&gt;Node7 -->
<g id="edge7" class="edge">
<title>Node6&#45;&gt;Node7</title>
<path fill="none" stroke="#191970" d="M919.0721,-163.8622C851.5065,-153.0596 748.5783,-136.603 688.917,-127.0642"/>
<polygon fill="#191970" stroke="#191970" points="918.76,-167.3567 929.1872,-165.4795 919.8652,-160.4445 918.76,-167.3567"/>
</g>
<!-- Node6&#45;&gt;Node9 -->
<g id="edge12" class="edge">
<title>Node6&#45;&gt;Node9</title>
<path fill="none" stroke="#191970" d="M1007.986,-159.4606C1025.1067,-146.1053 1043.7347,-126.2446 1030.6066,-110 1010.199,-84.7477 921.0364,-72.8678 865.0429,-67.8046"/>
<polygon fill="#191970" stroke="#191970" points="1005.8274,-156.7035 999.8481,-165.4499 1009.9766,-162.3412 1005.8274,-156.7035"/>
</g>
<!-- Node11 -->
<g id="node10" class="node">
<title>Node11</title>
<g id="a_node10"><a xlink:href="file_handler_8cpp.xhtml" target="_top" xlink:title="File handler source file. ">
<polygon fill="#ffffff" stroke="#000000" points="923.4738,-110.5 923.4738,-128.5 1021.7394,-128.5 1021.7394,-110.5 923.4738,-110.5"/>
<text text-anchor="middle" x="972.6066" y="-116.5" font-family="Helvetica,sans-Serif" font-size="10.00" fill="#000000">src/fileHandler.cpp</text>
</a>
</g>
</g>
<!-- Node6&#45;&gt;Node11 -->
<g id="edge13" class="edge">
<title>Node6&#45;&gt;Node11</title>
<path fill="none" stroke="#191970" d="M981.1581,-155.6796C979.0124,-146.6014 976.5343,-136.1171 974.7999,-128.7795"/>
<polygon fill="#191970" stroke="#191970" points="977.7535,-156.4911 983.4599,-165.4179 984.5657,-154.8809 977.7535,-156.4911"/>
</g>
<!-- Node7&#45;&gt;Node8 -->
<g id="edge8" class="edge">
<title>Node7&#45;&gt;Node8</title>
<path fill="none" stroke="#191970" d="M641.6066,-100.1899C641.6066,-76.2569 641.6066,-36.4552 641.6066,-18.6261"/>
<polygon fill="#191970" stroke="#191970" points="638.1067,-100.4982 641.6066,-110.4982 645.1067,-100.4983 638.1067,-100.4982"/>
</g>
<!-- Node7&#45;&gt;Node9 -->
<g id="edge9" class="edge">
<title>Node7&#45;&gt;Node9</title>
<path fill="none" stroke="#191970" d="M680.5855,-107.3879C713.5078,-97.1578 759.9133,-82.7381 789.6294,-73.5042"/>
<polygon fill="#191970" stroke="#191970" points="679.3455,-104.1081 670.8346,-110.4179 681.4228,-110.7928 679.3455,-104.1081"/>
</g>
<!-- Node9&#45;&gt;Node8 -->
<g id="edge10" class="edge">
<title>Node9&#45;&gt;Node8</title>
<path fill="none" stroke="#191970" d="M779.6277,-52.3879C746.7055,-42.1578 700.3,-27.7381 670.5838,-18.5042"/>
<polygon fill="#191970" stroke="#191970" points="778.7905,-55.7928 789.3787,-55.4179 780.8677,-49.1081 778.7905,-55.7928"/>
</g>
<!-- Node10 -->
<g id="node9" class="node">
<title>Node10</title>
<g id="a_node9"><a xlink:href="main_8cpp.xhtml" target="_top" xlink:title="Main source file. ">
<polygon fill="#ffffff" stroke="#000000" points="782.2643,-.5 782.2643,-18.5 854.9489,-18.5 854.9489,-.5 782.2643,-.5"/>
<text text-anchor="middle" x="818.6066" y="-6.5" font-family="Helvetica,sans-Serif" font-size="10.00" fill="#000000">src/main.cpp</text>
</a>
</g>
</g>
<!-- Node9&#45;&gt;Node10 -->
<g id="edge11" class="edge">
<title>Node9&#45;&gt;Node10</title>
<path fill="none" stroke="#191970" d="M818.6066,-45.383C818.6066,-36.3738 818.6066,-26.0373 818.6066,-18.7795"/>
<polygon fill="#191970" stroke="#191970" points="815.1067,-45.4178 818.6066,-55.4179 822.1067,-45.4179 815.1067,-45.4178"/>
</g>
<!-- Node12&#45;&gt;Node7 -->
<g id="edge15" class="edge">
<title>Node12&#45;&gt;Node7</title>
<path fill="none" stroke="#191970" d="M531.0346,-161.7324C557.6058,-151.5837 594.1214,-137.6367 617.7926,-128.5956"/>
<polygon fill="#191970" stroke="#191970" points="529.4782,-158.5801 521.3853,-165.4179 531.9759,-165.1194 529.4782,-158.5801"/>
</g>
<!-- Node12&#45;&gt;Node13 -->
<g id="edge16" class="edge">
<title>Node12&#45;&gt;Node13</title>
<path fill="none" stroke="#191970" d="M497.6066,-155.383C497.6066,-146.3738 497.6066,-136.0373 497.6066,-128.7795"/>
<polygon fill="#191970" stroke="#191970" points="494.1067,-155.4178 497.6066,-165.4179 501.1067,-155.4179 494.1067,-155.4178"/>
</g>
<!-- Node19&#45;&gt;Node15 -->
<g id="edge31" class="edge">
<title>Node19&#45;&gt;Node15</title>
<path fill="none" stroke="#191970" d="M799.8932,-211.2696C804.0799,-202.0587 808.9809,-191.2766 812.3887,-183.7795"/>
<polygon fill="#191970" stroke="#191970" points="796.6867,-209.8659 795.7349,-220.4179 803.0592,-212.7625 796.6867,-209.8659"/>
</g>
<!-- Node20&#45;&gt;Node16 -->
<g id="edge34" class="edge">
<title>Node20&#45;&gt;Node16</title>
<path fill="none" stroke="#191970" d="M371.8444,-211.563C366.2797,-202.2885 359.7204,-191.3564 355.1743,-183.7795"/>
<polygon fill="#191970" stroke="#191970" points="369.0111,-213.6437 377.1573,-220.4179 375.0136,-210.0422 369.0111,-213.6437"/>
</g>
</g>
</svg>
        <g id="navigator" transform="translate(0 0)" fill="#404254">
                <rect fill="#f2f5e9" fill-opacity="0.5" stroke="#606060" stroke-width=".5" x="0" y="0" width="60" height="60"/>
                <use id="zoomplus" xlink:href="#zoomPlus" x="17" y="9" onmousedown="handleZoom(evt,'in')"/>
                <use id="zoomminus" xlink:href="#zoomMin" x="42" y="9" onmousedown="handleZoom(evt,'out')"/>
                <use id="reset" xlink:href="#resetDef" x="30" y="36" onmousedown="handleReset()"/>
                <g id="arrowUp" xlink:href="#dirArrow" transform="translate(30 24)" onmousedown="handlePan(0,-1)">
                  <use xlink:href="#rim" fill="#404040">
                        <set attributeName="fill" to="#808080" begin="arrowUp.mouseover" end="arrowUp.mouseout"/>
                  </use>
                  <path fill="none" stroke="white" stroke-width="1.5" d="M0,-3.0v7 M-2.5,-0.5L0,-3.0L2.5,-0.5"/>
                </g>
                <g id="arrowRight" xlink:href="#dirArrow" transform="rotate(90) translate(36 -43)" onmousedown="handlePan(1,0)">
                  <use xlink:href="#rim" fill="#404040">
                        <set attributeName="fill" to="#808080" begin="arrowRight.mouseover" end="arrowRight.mouseout"/>
                  </use>
                  <path fill="none" stroke="white" stroke-width="1.5" d="M0,-3.0v7 M-2.5,-0.5L0,-3.0L2.5,-0.5"/>
                </g>
                <g id="arrowDown" xlink:href="#dirArrow" transform="rotate(180) translate(-30 -48)" onmousedown="handlePan(0,1)">
                  <use xlink:href="#rim" fill="#404040">
                        <set attributeName="fill" to="#808080" begin="arrowDown.mouseover" end="arrowDown.mouseout"/>
                  </use>
                  <path fill="none" stroke="white" stroke-width="1.5" d="M0,-3.0v7 M-2.5,-0.5L0,-3.0L2.5,-0.5"/>
                </g>
                <g id="arrowLeft" xlink:href="#dirArrow" transform="rotate(270) translate(-36 17)" onmousedown="handlePan(-1,0)">
                  <use xlink:href="#rim" fill="#404040">
                        <set attributeName="fill" to="#808080" begin="arrowLeft.mouseover" end="arrowLeft.mouseout"/>
                  </use>
                  <path fill="none" stroke="white" stroke-width="1.5" d="M0,-3.0v7 M-2.5,-0.5L0,-3.0L2.5,-0.5"/>
                </g>
        </g>
        <svg viewBox="0 0 15 15" width="100%" height="30px" preserveAspectRatio="xMaxYMin meet">
         <g id="arrow_out" transform="scale(0.3 0.3)">
          <a xlink:href="tcpip__headers_8hpp__dep__incl_org.svg" target="_base">
           <rect id="button" ry="5" rx="5" y="6" x="6" height="38" width="38"
                fill="#f2f5e9" fill-opacity="0.5" stroke="#606060" stroke-width="1.0"/>
           <path id="arrow"
             d="M 11.500037,31.436501 C 11.940474,20.09759 22.043105,11.32322 32.158766,21.979434 L 37.068811,17.246167 C 37.068811,17.246167 37.088388,32 37.088388,32 L 22.160133,31.978069 C 22.160133,31.978069 26.997745,27.140456 26.997745,27.140456 C 18.528582,18.264221 13.291696,25.230495 11.500037,31.436501 z"
             style="fill:#404040;"/>
          </a>
         </g>
        </svg>
</svg>
