<?xml version="1.0" encoding="UTF-8" standalone="no"?>
<!DOCTYPE svg PUBLIC "-//W3C//DTD SVG 1.1//EN"
 "http://www.w3.org/Graphics/SVG/1.1/DTD/svg11.dtd">
<!-- Generated by graphviz version 2.40.1 (20161225.0304)
 -->
<!-- Title: src/tool_linux.hpp Pages: 1 -->
<svg width="228pt" height="192pt"
 viewBox="0.00 0.00 228.37 192.00" xmlns="http://www.w3.org/2000/svg" xmlns:xlink="http://www.w3.org/1999/xlink">
<g id="graph0" class="graph" transform="scale(1 1) rotate(0) translate(4 188)">
<title>src/tool_linux.hpp</title>
<polygon fill="#ffffff" stroke="transparent" points="-4,4 -4,-188 224.3691,-188 224.3691,4 -4,4"/>
<!-- Node0 -->
<g id="node1" class="node">
<title>Node0</title>
<polygon fill="#bfbfbf" stroke="#000000" points="3.3154,-165.5 3.3154,-183.5 97.1377,-183.5 97.1377,-165.5 3.3154,-165.5"/>
<text text-anchor="middle" x="50.2266" y="-171.5" font-family="Helvetica,sans-Serif" font-size="10.00" fill="#000000">src/tool_linux.hpp</text>
</g>
<!-- Node1 -->
<g id="node2" class="node">
<title>Node1</title>
<polygon fill="#ffffff" stroke="#bfbfbf" points="0,-55.5 0,-73.5 40.4531,-73.5 40.4531,-55.5 0,-55.5"/>
<text text-anchor="middle" x="20.2266" y="-61.5" font-family="Helvetica,sans-Serif" font-size="10.00" fill="#000000">string</text>
</g>
<!-- Node0&#45;&gt;Node1 -->
<g id="edge1" class="edge">
<title>Node0&#45;&gt;Node1</title>
<path fill="none" stroke="#191970" d="M47.7715,-165.4982C42.8931,-147.6108 31.8882,-107.2594 25.3612,-83.3271"/>
<polygon fill="#191970" stroke="#191970" points="28.7234,-82.3528 22.7155,-73.6261 21.9701,-84.1947 28.7234,-82.3528"/>
</g>
<!-- Node2 -->
<g id="node3" class="node">
<title>Node2</title>
<g id="a_node3"><a xlink:href="netflow_8hpp.xhtml" target="_top" xlink:title="Netflow structure header file. ">
<polygon fill="#ffffff" stroke="#000000" points="47.9263,-110.5 47.9263,-128.5 114.5269,-128.5 114.5269,-110.5 47.9263,-110.5"/>
<text text-anchor="middle" x="81.2266" y="-116.5" font-family="Helvetica,sans-Serif" font-size="10.00" fill="#000000">netflow.hpp</text>
</a>
</g>
</g>
<!-- Node0&#45;&gt;Node2 -->
<g id="edge2" class="edge">
<title>Node0&#45;&gt;Node2</title>
<path fill="none" stroke="#191970" d="M55.3456,-165.4179C59.583,-157.8998 65.7362,-146.9829 70.9797,-137.6799"/>
<polygon fill="#191970" stroke="#191970" points="74.1352,-139.2096 75.9963,-128.7795 68.0371,-135.7724 74.1352,-139.2096"/>
</g>
<!-- Node2&#45;&gt;Node1 -->
<g id="edge3" class="edge">
<title>Node2&#45;&gt;Node1</title>
<path fill="none" stroke="#191970" d="M71.1537,-110.4179C62.201,-102.3458 48.9028,-90.3556 38.1403,-80.6517"/>
<polygon fill="#191970" stroke="#191970" points="40.289,-77.8764 30.5183,-73.7795 35.6015,-83.0753 40.289,-77.8764"/>
</g>
<!-- Node3 -->
<g id="node4" class="node">
<title>Node3</title>
<polygon fill="#ffffff" stroke="#bfbfbf" points="58.5,-55.5 58.5,-73.5 103.9531,-73.5 103.9531,-55.5 58.5,-55.5"/>
<text text-anchor="middle" x="81.2266" y="-61.5" font-family="Helvetica,sans-Serif" font-size="10.00" fill="#000000">cstring</text>
</g>
<!-- Node2&#45;&gt;Node3 -->
<g id="edge4" class="edge">
<title>Node2&#45;&gt;Node3</title>
<path fill="none" stroke="#191970" d="M81.2266,-110.4179C81.2266,-103.2164 81.2266,-92.8962 81.2266,-83.8632"/>
<polygon fill="#191970" stroke="#191970" points="84.7267,-83.7794 81.2266,-73.7795 77.7267,-83.7795 84.7267,-83.7794"/>
</g>
<!-- Node4 -->
<g id="node5" class="node">
<title>Node4</title>
<g id="a_node5"><a xlink:href="tcpip__headers_8hpp.xhtml" target="_top" xlink:title="Protocol headers. ">
<polygon fill="#ffffff" stroke="#000000" points="122.084,-55.5 122.084,-73.5 220.3691,-73.5 220.3691,-55.5 122.084,-55.5"/>
<text text-anchor="middle" x="171.2266" y="-61.5" font-family="Helvetica,sans-Serif" font-size="10.00" fill="#000000">tcpip_headers.hpp</text>
</a>
</g>
</g>
<!-- Node2&#45;&gt;Node4 -->
<g id="edge5" class="edge">
<title>Node2&#45;&gt;Node4</title>
<path fill="none" stroke="#191970" d="M96.0882,-110.4179C110.028,-101.8992 131.1086,-89.0166 147.3966,-79.0627"/>
<polygon fill="#191970" stroke="#191970" points="149.6351,-81.7967 156.3428,-73.5956 145.9849,-75.8237 149.6351,-81.7967"/>
</g>
<!-- Node5 -->
<g id="node6" class="node">
<title>Node5</title>
<polygon fill="#ffffff" stroke="#bfbfbf" points="147.106,-.5 147.106,-18.5 195.3472,-18.5 195.3472,-.5 147.106,-.5"/>
<text text-anchor="middle" x="171.2266" y="-6.5" font-family="Helvetica,sans-Serif" font-size="10.00" fill="#000000">stdint.h</text>
</g>
<!-- Node4&#45;&gt;Node5 -->
<g id="edge6" class="edge">
<title>Node4&#45;&gt;Node5</title>
<path fill="none" stroke="#191970" d="M171.2266,-55.4179C171.2266,-48.2164 171.2266,-37.8962 171.2266,-28.8632"/>
<polygon fill="#191970" stroke="#191970" points="174.7267,-28.7794 171.2266,-18.7795 167.7267,-28.7795 174.7267,-28.7794"/>
</g>
</g>
</svg>
