<?xml version="1.0" encoding="UTF-8" standalone="no"?>
<!DOCTYPE svg PUBLIC "-//W3C//DTD SVG 1.1//EN"
 "http://www.w3.org/Graphics/SVG/1.1/DTD/svg11.dtd">
<!-- Generated by graphviz version 2.40.1 (20161225.0304)
 -->
<!-- Title: TOOL::determineApp Pages: 1 -->
<svg width="355pt" height="45pt"
 viewBox="0.00 0.00 355.36 45.00" xmlns="http://www.w3.org/2000/svg" xmlns:xlink="http://www.w3.org/1999/xlink">
<g id="graph0" class="graph" transform="scale(1 1) rotate(0) translate(4 41)">
<title>TOOL::determineApp</title>
<polygon fill="#ffffff" stroke="transparent" points="-4,4 -4,-41 351.3584,-41 351.3584,4 -4,4"/>
<!-- Node0 -->
<g id="node1" class="node">
<title>Node0</title>
<polygon fill="#bfbfbf" stroke="#000000" points="0,-.5 0,-18.5 110.8682,-18.5 110.8682,-.5 0,-.5"/>
<text text-anchor="middle" x="55.4341" y="-6.5" font-family="Helvetica,sans-Serif" font-size="10.00" fill="#000000">TOOL::determineApp</text>
</g>
<!-- Node0&#45;&gt;Node0 -->
<g id="edge1" class="edge">
<title>Node0&#45;&gt;Node0</title>
<path fill="none" stroke="#191970" d="M37.2558,-18.5134C27.2145,-27.322 33.2739,-37 55.4341,-37 69.9767,-37 77.5853,-32.832 78.2599,-27.477"/>
<polygon fill="#191970" stroke="#191970" points="81.3225,-25.78 73.6123,-18.5134 75.1082,-29.0022 81.3225,-25.78"/>
</g>
<!-- Node1 -->
<g id="node2" class="node">
<title>Node1</title>
<g id="a_node2"><a xlink:href="debug_8hpp.xhtml#a9340c95e0607709d793dc427c8b630e8" target="_top" xlink:title="Function that prints log messages. ">
<polygon fill="#ffffff" stroke="#000000" points="146.8682,-.5 146.8682,-18.5 208.8203,-18.5 208.8203,-.5 146.8682,-.5"/>
<text text-anchor="middle" x="177.8442" y="-6.5" font-family="Helvetica,sans-Serif" font-size="10.00" fill="#000000">TOOL::log</text>
</a>
</g>
</g>
<!-- Node0&#45;&gt;Node1 -->
<g id="edge2" class="edge">
<title>Node0&#45;&gt;Node1</title>
<path fill="none" stroke="#191970" d="M110.9087,-9.5C119.5375,-9.5 128.3195,-9.5 136.5607,-9.5"/>
<polygon fill="#191970" stroke="#191970" points="136.6581,-13.0001 146.6581,-9.5 136.658,-6.0001 136.6581,-13.0001"/>
</g>
<!-- Node1&#45;&gt;Node1 -->
<g id="edge3" class="edge">
<title>Node1&#45;&gt;Node1</title>
<path fill="none" stroke="#191970" d="M160.262,-18.5134C150.5499,-27.322 156.4106,-37 177.8442,-37 191.91,-37 199.2692,-32.832 199.9216,-27.477"/>
<polygon fill="#191970" stroke="#191970" points="203.038,-25.8834 195.4265,-18.5134 196.7807,-29.0214 203.038,-25.8834"/>
</g>
<!-- Node2 -->
<g id="node3" class="node">
<title>Node2</title>
<g id="a_node3"><a xlink:href="debug_8cpp.xhtml#ad6ba0645e5c2cdd3f7533aa4f15dbe71" target="_top" xlink:title="Sets #TOOL::generalLogLevel;. ">
<polygon fill="#ffffff" stroke="#000000" points="244.8203,-.5 244.8203,-18.5 347.3584,-18.5 347.3584,-.5 244.8203,-.5"/>
<text text-anchor="middle" x="296.0894" y="-6.5" font-family="Helvetica,sans-Serif" font-size="10.00" fill="#000000">TOOL::setLogLevel</text>
</a>
</g>
</g>
<!-- Node1&#45;&gt;Node2 -->
<g id="edge4" class="edge">
<title>Node1&#45;&gt;Node2</title>
<path fill="none" stroke="#191970" d="M208.9118,-9.5C216.8662,-9.5 225.7028,-9.5 234.6107,-9.5"/>
<polygon fill="#191970" stroke="#191970" points="234.6553,-13.0001 244.6553,-9.5 234.6552,-6.0001 234.6553,-13.0001"/>
</g>
<!-- Node2&#45;&gt;Node2 -->
<g id="edge5" class="edge">
<title>Node2&#45;&gt;Node2</title>
<path fill="none" stroke="#191970" d="M278.5071,-18.5134C268.795,-27.322 274.6558,-37 296.0894,-37 310.1552,-37 317.5143,-32.832 318.1667,-27.477"/>
<polygon fill="#191970" stroke="#191970" points="321.2831,-25.8834 313.6716,-18.5134 315.0258,-29.0214 321.2831,-25.8834"/>
</g>
</g>
</svg>
