<?xml version="1.0" encoding="UTF-8" standalone="no"?>
<!DOCTYPE svg PUBLIC "-//W3C//DTD SVG 1.1//EN"
 "http://www.w3.org/Graphics/SVG/1.1/DTD/svg11.dtd">
<!-- Generated by graphviz version 2.40.1 (20161225.0304)
 -->
<!-- Title: TOOL::getApp Pages: 1 -->
<svg width="344pt" height="155pt"
 viewBox="0.00 0.00 343.69 155.00" xmlns="http://www.w3.org/2000/svg" xmlns:xlink="http://www.w3.org/1999/xlink">
<g id="graph0" class="graph" transform="scale(1 1) rotate(0) translate(4 151)">
<title>TOOL::getApp</title>
<polygon fill="#ffffff" stroke="transparent" points="-4,4 -4,-151 339.6885,-151 339.6885,4 -4,4"/>
<!-- Node0 -->
<g id="node1" class="node">
<title>Node0</title>
<polygon fill="#bfbfbf" stroke="#000000" points="0,-55.5 0,-73.5 80.3018,-73.5 80.3018,-55.5 0,-55.5"/>
<text text-anchor="middle" x="40.1509" y="-61.5" font-family="Helvetica,sans-Serif" font-size="10.00" fill="#000000">TOOL::getApp</text>
</g>
<!-- Node1 -->
<g id="node2" class="node">
<title>Node1</title>
<g id="a_node2"><a xlink:href="tool__apple_8cpp.xhtml#a63c27248ec65a6590399df8a33645015" target="_top" xlink:title="Finds an application with opened socket inode in parameter. ">
<polygon fill="#ffffff" stroke="#000000" points="116.5752,-110.5 116.5752,-128.5 196.877,-128.5 196.877,-110.5 116.5752,-110.5"/>
<text text-anchor="middle" x="156.7261" y="-116.5" font-family="Helvetica,sans-Serif" font-size="10.00" fill="#000000">TOOL::getApp</text>
</a>
</g>
</g>
<!-- Node0&#45;&gt;Node1 -->
<g id="edge1" class="edge">
<title>Node0&#45;&gt;Node1</title>
<path fill="none" stroke="#191970" d="M58.534,-73.6448C73.9067,-81.2408 96.4461,-92.2588 116.3018,-101.5 119.7059,-103.0844 123.2837,-104.7198 126.8447,-106.3292"/>
<polygon fill="#191970" stroke="#191970" points="125.5439,-109.5816 136.101,-110.4751 128.4054,-103.1931 125.5439,-109.5816"/>
</g>
<!-- Node2 -->
<g id="node3" class="node">
<title>Node2</title>
<g id="a_node3"><a xlink:href="utils_8cpp.xhtml#a468dec2ae199f10efd24422042e75f28" target="_top" xlink:title="Converts char* string to integer. ">
<polygon fill="#ffffff" stroke="#000000" points="116.3018,-55.5 116.3018,-73.5 197.1504,-73.5 197.1504,-55.5 116.3018,-55.5"/>
<text text-anchor="middle" x="156.7261" y="-61.5" font-family="Helvetica,sans-Serif" font-size="10.00" fill="#000000">TOOL::chToInt</text>
</a>
</g>
</g>
<!-- Node0&#45;&gt;Node2 -->
<g id="edge3" class="edge">
<title>Node0&#45;&gt;Node2</title>
<path fill="none" stroke="#191970" d="M80.5961,-64.5C88.7309,-64.5 97.3789,-64.5 105.8172,-64.5"/>
<polygon fill="#191970" stroke="#191970" points="105.9576,-68.0001 115.9576,-64.5 105.9575,-61.0001 105.9576,-68.0001"/>
</g>
<!-- Node3 -->
<g id="node4" class="node">
<title>Node3</title>
<g id="a_node4"><a xlink:href="debug_8hpp.xhtml#a9340c95e0607709d793dc427c8b630e8" target="_top" xlink:title="Function that prints log messages. ">
<polygon fill="#ffffff" stroke="#000000" points="125.75,-.5 125.75,-18.5 187.7021,-18.5 187.7021,-.5 125.75,-.5"/>
<text text-anchor="middle" x="156.7261" y="-6.5" font-family="Helvetica,sans-Serif" font-size="10.00" fill="#000000">TOOL::log</text>
</a>
</g>
</g>
<!-- Node0&#45;&gt;Node3 -->
<g id="edge5" class="edge">
<title>Node0&#45;&gt;Node3</title>
<path fill="none" stroke="#191970" d="M59.4009,-55.4179C78.1317,-46.5807 106.8165,-33.0473 128.1989,-22.9591"/>
<polygon fill="#191970" stroke="#191970" points="129.8969,-26.028 137.4475,-18.5956 126.91,-19.6972 129.8969,-26.028"/>
</g>
<!-- Node1&#45;&gt;Node1 -->
<g id="edge2" class="edge">
<title>Node1&#45;&gt;Node1</title>
<path fill="none" stroke="#191970" d="M139.4418,-128.5134C129.8943,-137.322 135.6558,-147 156.7261,-147 170.2242,-147 177.4396,-143.0281 178.3722,-137.8575"/>
<polygon fill="#191970" stroke="#191970" points="181.4118,-136.0943 174.0103,-128.5134 175.0689,-139.0553 181.4118,-136.0943"/>
</g>
<!-- Node2&#45;&gt;Node2 -->
<g id="edge4" class="edge">
<title>Node2&#45;&gt;Node2</title>
<path fill="none" stroke="#191970" d="M139.4418,-73.5134C129.8943,-82.322 135.6558,-92 156.7261,-92 170.2242,-92 177.4396,-88.0281 178.3722,-82.8575"/>
<polygon fill="#191970" stroke="#191970" points="181.4118,-81.0943 174.0103,-73.5134 175.0689,-84.0553 181.4118,-81.0943"/>
</g>
<!-- Node3&#45;&gt;Node3 -->
<g id="edge6" class="edge">
<title>Node3&#45;&gt;Node3</title>
<path fill="none" stroke="#191970" d="M139.4418,-18.5134C129.8943,-27.322 135.6558,-37 156.7261,-37 170.2242,-37 177.4396,-33.0281 178.3722,-27.8575"/>
<polygon fill="#191970" stroke="#191970" points="181.4118,-26.0943 174.0103,-18.5134 175.0689,-29.0553 181.4118,-26.0943"/>
</g>
<!-- Node4 -->
<g id="node5" class="node">
<title>Node4</title>
<g id="a_node5"><a xlink:href="debug_8cpp.xhtml#ad6ba0645e5c2cdd3f7533aa4f15dbe71" target="_top" xlink:title="Sets #TOOL::generalLogLevel;. ">
<polygon fill="#ffffff" stroke="#000000" points="233.1504,-.5 233.1504,-18.5 335.6885,-18.5 335.6885,-.5 233.1504,-.5"/>
<text text-anchor="middle" x="284.4194" y="-6.5" font-family="Helvetica,sans-Serif" font-size="10.00" fill="#000000">TOOL::setLogLevel</text>
</a>
</g>
</g>
<!-- Node3&#45;&gt;Node4 -->
<g id="edge7" class="edge">
<title>Node3&#45;&gt;Node4</title>
<path fill="none" stroke="#191970" d="M187.9634,-9.5C198.5771,-9.5 210.8344,-9.5 222.9756,-9.5"/>
<polygon fill="#191970" stroke="#191970" points="223.1083,-13.0001 233.1083,-9.5 223.1083,-6.0001 223.1083,-13.0001"/>
</g>
<!-- Node4&#45;&gt;Node4 -->
<g id="edge8" class="edge">
<title>Node4&#45;&gt;Node4</title>
<path fill="none" stroke="#191970" d="M265.6452,-18.5134C255.2746,-27.322 261.5327,-37 284.4194,-37 299.4388,-37 307.2969,-32.832 307.9936,-27.477"/>
<polygon fill="#191970" stroke="#191970" points="310.9999,-25.6768 303.1937,-18.5134 304.8289,-28.9813 310.9999,-25.6768"/>
</g>
</g>
</svg>
