<?xml version="1.0" encoding="UTF-8" standalone="no"?>
<!DOCTYPE svg PUBLIC "-//W3C//DTD SVG 1.1//EN"
 "http://www.w3.org/Graphics/SVG/1.1/DTD/svg11.dtd">
<!-- Generated by graphviz version 2.40.1 (20161225.0304)
 -->
<!-- Title: src/tool.hpp Pages: 1 -->
<svg width="353pt" height="247pt"
 viewBox="0.00 0.00 353.08 247.00" xmlns="http://www.w3.org/2000/svg" xmlns:xlink="http://www.w3.org/1999/xlink">
<g id="graph0" class="graph" transform="scale(1 1) rotate(0) translate(4 243)">
<title>src/tool.hpp</title>
<polygon fill="#ffffff" stroke="transparent" points="-4,4 -4,-243 349.0769,-243 349.0769,4 -4,4"/>
<!-- Node0 -->
<g id="node1" class="node">
<title>Node0</title>
<polygon fill="#bfbfbf" stroke="#000000" points="110.8794,-220.5 110.8794,-238.5 178.5737,-238.5 178.5737,-220.5 110.8794,-220.5"/>
<text text-anchor="middle" x="144.7266" y="-226.5" font-family="Helvetica,sans-Serif" font-size="10.00" fill="#000000">src/tool.hpp</text>
</g>
<!-- Node1 -->
<g id="node2" class="node">
<title>Node1</title>
<g id="a_node2"><a xlink:href="netflow_8hpp.xhtml" target="_top" xlink:title="Netflow structure header file. ">
<polygon fill="#ffffff" stroke="#000000" points="34.4263,-110.5 34.4263,-128.5 101.0269,-128.5 101.0269,-110.5 34.4263,-110.5"/>
<text text-anchor="middle" x="67.7266" y="-116.5" font-family="Helvetica,sans-Serif" font-size="10.00" fill="#000000">netflow.hpp</text>
</a>
</g>
</g>
<!-- Node0&#45;&gt;Node1 -->
<g id="edge1" class="edge">
<title>Node0&#45;&gt;Node1</title>
<path fill="none" stroke="#191970" d="M138.4253,-220.4982C125.6785,-202.2885 96.6352,-160.798 80.0113,-137.0496"/>
<polygon fill="#191970" stroke="#191970" points="82.7168,-134.8113 74.1149,-128.6261 76.9822,-138.8256 82.7168,-134.8113"/>
</g>
<!-- Node6 -->
<g id="node7" class="node">
<title>Node6</title>
<g id="a_node7"><a xlink:href="cache_8hpp.xhtml" target="_top" xlink:title="Cache implementation header file. ">
<polygon fill="#ffffff" stroke="#000000" points="150.6528,-165.5 150.6528,-183.5 212.8003,-183.5 212.8003,-165.5 150.6528,-165.5"/>
<text text-anchor="middle" x="181.7266" y="-171.5" font-family="Helvetica,sans-Serif" font-size="10.00" fill="#000000">cache.hpp</text>
</a>
</g>
</g>
<!-- Node0&#45;&gt;Node6 -->
<g id="edge6" class="edge">
<title>Node0&#45;&gt;Node6</title>
<path fill="none" stroke="#191970" d="M150.8364,-220.4179C156.0004,-212.7415 163.5483,-201.5217 169.8903,-192.0945"/>
<polygon fill="#191970" stroke="#191970" points="172.8062,-194.0303 175.484,-183.7795 166.9982,-190.1231 172.8062,-194.0303"/>
</g>
<!-- Node2 -->
<g id="node3" class="node">
<title>Node2</title>
<polygon fill="#ffffff" stroke="#bfbfbf" points="259.5,-55.5 259.5,-73.5 299.9531,-73.5 299.9531,-55.5 259.5,-55.5"/>
<text text-anchor="middle" x="279.7266" y="-61.5" font-family="Helvetica,sans-Serif" font-size="10.00" fill="#000000">string</text>
</g>
<!-- Node1&#45;&gt;Node2 -->
<g id="edge2" class="edge">
<title>Node1&#45;&gt;Node2</title>
<path fill="none" stroke="#191970" d="M101.3186,-110.7851C142.153,-100.1913 210.4488,-82.473 249.6341,-72.307"/>
<polygon fill="#191970" stroke="#191970" points="250.6008,-75.6722 259.4014,-69.773 248.8429,-68.8965 250.6008,-75.6722"/>
</g>
<!-- Node3 -->
<g id="node4" class="node">
<title>Node3</title>
<polygon fill="#ffffff" stroke="#bfbfbf" points="0,-55.5 0,-73.5 45.4531,-73.5 45.4531,-55.5 0,-55.5"/>
<text text-anchor="middle" x="22.7266" y="-61.5" font-family="Helvetica,sans-Serif" font-size="10.00" fill="#000000">cstring</text>
</g>
<!-- Node1&#45;&gt;Node3 -->
<g id="edge3" class="edge">
<title>Node1&#45;&gt;Node3</title>
<path fill="none" stroke="#191970" d="M60.2957,-110.4179C53.9503,-102.6624 44.6457,-91.29 36.884,-81.8035"/>
<polygon fill="#191970" stroke="#191970" points="39.3601,-79.3027 30.3188,-73.7795 33.9424,-83.7354 39.3601,-79.3027"/>
</g>
<!-- Node4 -->
<g id="node5" class="node">
<title>Node4</title>
<g id="a_node5"><a xlink:href="tcpip__headers_8hpp.xhtml" target="_top" xlink:title="Protocol headers. ">
<polygon fill="#ffffff" stroke="#000000" points="63.584,-55.5 63.584,-73.5 161.8691,-73.5 161.8691,-55.5 63.584,-55.5"/>
<text text-anchor="middle" x="112.7266" y="-61.5" font-family="Helvetica,sans-Serif" font-size="10.00" fill="#000000">tcpip_headers.hpp</text>
</a>
</g>
</g>
<!-- Node1&#45;&gt;Node4 -->
<g id="edge4" class="edge">
<title>Node1&#45;&gt;Node4</title>
<path fill="none" stroke="#191970" d="M75.1574,-110.4179C81.5028,-102.6624 90.8075,-91.29 98.5692,-81.8035"/>
<polygon fill="#191970" stroke="#191970" points="101.5107,-83.7354 105.1343,-73.7795 96.093,-79.3027 101.5107,-83.7354"/>
</g>
<!-- Node5 -->
<g id="node6" class="node">
<title>Node5</title>
<polygon fill="#ffffff" stroke="#bfbfbf" points="88.606,-.5 88.606,-18.5 136.8472,-18.5 136.8472,-.5 88.606,-.5"/>
<text text-anchor="middle" x="112.7266" y="-6.5" font-family="Helvetica,sans-Serif" font-size="10.00" fill="#000000">stdint.h</text>
</g>
<!-- Node4&#45;&gt;Node5 -->
<g id="edge5" class="edge">
<title>Node4&#45;&gt;Node5</title>
<path fill="none" stroke="#191970" d="M112.7266,-55.4179C112.7266,-48.2164 112.7266,-37.8962 112.7266,-28.8632"/>
<polygon fill="#191970" stroke="#191970" points="116.2267,-28.7794 112.7266,-18.7795 109.2267,-28.7795 116.2267,-28.7794"/>
</g>
<!-- Node6&#45;&gt;Node1 -->
<g id="edge11" class="edge">
<title>Node6&#45;&gt;Node1</title>
<path fill="none" stroke="#191970" d="M162.9018,-165.4179C144.5847,-156.5807 116.5336,-143.0473 95.6235,-132.9591"/>
<polygon fill="#191970" stroke="#191970" points="97.1068,-129.7887 86.5793,-128.5956 94.065,-136.0933 97.1068,-129.7887"/>
</g>
<!-- Node6&#45;&gt;Node2 -->
<g id="edge7" class="edge">
<title>Node6&#45;&gt;Node2</title>
<path fill="none" stroke="#191970" d="M213.0818,-170.0284C254.8794,-163.3523 325.3856,-149.3468 340.7266,-129 354.9166,-110.1797 330.3842,-90.8274 308.3295,-78.295"/>
<polygon fill="#191970" stroke="#191970" points="309.9268,-75.18 299.4624,-73.5226 306.6093,-81.344 309.9268,-75.18"/>
</g>
<!-- Node7 -->
<g id="node8" class="node">
<title>Node7</title>
<polygon fill="#ffffff" stroke="#bfbfbf" points="119.1108,-110.5 119.1108,-128.5 162.3423,-128.5 162.3423,-110.5 119.1108,-110.5"/>
<text text-anchor="middle" x="140.7266" y="-116.5" font-family="Helvetica,sans-Serif" font-size="10.00" fill="#000000">vector</text>
</g>
<!-- Node6&#45;&gt;Node7 -->
<g id="edge8" class="edge">
<title>Node6&#45;&gt;Node7</title>
<path fill="none" stroke="#191970" d="M174.9562,-165.4179C169.1749,-157.6624 160.6973,-146.29 153.6255,-136.8035"/>
<polygon fill="#191970" stroke="#191970" points="156.4268,-134.7051 147.644,-128.7795 150.8145,-138.8888 156.4268,-134.7051"/>
</g>
<!-- Node8 -->
<g id="node9" class="node">
<title>Node8</title>
<polygon fill="#ffffff" stroke="#bfbfbf" points="180.4238,-110.5 180.4238,-128.5 267.0293,-128.5 267.0293,-110.5 180.4238,-110.5"/>
<text text-anchor="middle" x="223.7266" y="-116.5" font-family="Helvetica,sans-Serif" font-size="10.00" fill="#000000">unordered_map</text>
</g>
<!-- Node6&#45;&gt;Node8 -->
<g id="edge9" class="edge">
<title>Node6&#45;&gt;Node8</title>
<path fill="none" stroke="#191970" d="M188.662,-165.4179C194.5844,-157.6624 203.2687,-146.29 210.513,-136.8035"/>
<polygon fill="#191970" stroke="#191970" points="213.353,-138.8514 216.6404,-128.7795 207.7896,-134.6029 213.353,-138.8514"/>
</g>
<!-- Node9 -->
<g id="node10" class="node">
<title>Node9</title>
<polygon fill="#ffffff" stroke="#bfbfbf" points="285.4385,-110.5 285.4385,-128.5 332.0146,-128.5 332.0146,-110.5 285.4385,-110.5"/>
<text text-anchor="middle" x="308.7266" y="-116.5" font-family="Helvetica,sans-Serif" font-size="10.00" fill="#000000">chrono</text>
</g>
<!-- Node6&#45;&gt;Node9 -->
<g id="edge10" class="edge">
<title>Node6&#45;&gt;Node9</title>
<path fill="none" stroke="#191970" d="M202.698,-165.4179C223.2877,-156.5011 254.9177,-142.803 278.276,-132.6873"/>
<polygon fill="#191970" stroke="#191970" points="279.9384,-135.7815 287.7239,-128.5956 277.1566,-129.358 279.9384,-135.7815"/>
</g>
</g>
</svg>
