<?xml version="1.0" encoding="UTF-8" standalone="no"?>
<!DOCTYPE svg PUBLIC "-//W3C//DTD SVG 1.1//EN"
 "http://www.w3.org/Graphics/SVG/1.1/DTD/svg11.dtd">
<!-- Generated by graphviz version 2.40.1 (20161225.0304)
 -->
<!-- Title: TOOL::setDevMac Pages: 1 -->
<svg width="490pt" height="45pt"
 viewBox="0.00 0.00 489.98 45.00" xmlns="http://www.w3.org/2000/svg" xmlns:xlink="http://www.w3.org/1999/xlink">
<g id="graph0" class="graph" transform="scale(1 1) rotate(0) translate(4 41)">
<title>TOOL::setDevMac</title>
<polygon fill="#ffffff" stroke="transparent" points="-4,4 -4,-41 485.9805,-41 485.9805,4 -4,4"/>
<!-- Node4 -->
<g id="node1" class="node">
<title>Node4</title>
<polygon fill="#bfbfbf" stroke="#000000" points="0,-.5 0,-18.5 98.6221,-18.5 98.6221,-.5 0,-.5"/>
<text text-anchor="middle" x="49.311" y="-6.5" font-family="Helvetica,sans-Serif" font-size="10.00" fill="#000000">TOOL::setDevMac</text>
</g>
<!-- Node4&#45;&gt;Node4 -->
<g id="edge1" class="edge">
<title>Node4&#45;&gt;Node4</title>
<path fill="none" stroke="#191970" d="M28.4507,-18.5134C16.9279,-27.322 23.8813,-37 49.311,-37 66.3966,-37 75.1417,-32.6312 75.5463,-27.0926"/>
<polygon fill="#191970" stroke="#191970" points="78.4466,-25.1294 70.1713,-18.5134 72.5146,-28.8459 78.4466,-25.1294"/>
</g>
<!-- Node5 -->
<g id="node2" class="node">
<title>Node5</title>
<g id="a_node2"><a xlink:href="tool_8cpp.xhtml#aa97bd89bdff783d43ffca0a0335286f1" target="_top" xlink:title="Identifies application, which has opened socket which belongs to some IP, proto and port...">
<polygon fill="#ffffff" stroke="#000000" points="134.6221,-.5 134.6221,-18.5 245.4902,-18.5 245.4902,-.5 134.6221,-.5"/>
<text text-anchor="middle" x="190.0562" y="-6.5" font-family="Helvetica,sans-Serif" font-size="10.00" fill="#000000">TOOL::determineApp</text>
</a>
</g>
</g>
<!-- Node4&#45;&gt;Node5 -->
<g id="edge2" class="edge">
<title>Node4&#45;&gt;Node5</title>
<path fill="none" stroke="#191970" d="M98.9325,-9.5C107.0348,-9.5 115.5401,-9.5 123.9634,-9.5"/>
<polygon fill="#191970" stroke="#191970" points="124.1646,-13.0001 134.1646,-9.5 124.1646,-6.0001 124.1646,-13.0001"/>
</g>
<!-- Node5&#45;&gt;Node5 -->
<g id="edge3" class="edge">
<title>Node5&#45;&gt;Node5</title>
<path fill="none" stroke="#191970" d="M171.8779,-18.5134C161.8366,-27.322 167.896,-37 190.0562,-37 204.5988,-37 212.2073,-32.832 212.8819,-27.477"/>
<polygon fill="#191970" stroke="#191970" points="215.9446,-25.78 208.2344,-18.5134 209.7302,-29.0022 215.9446,-25.78"/>
</g>
<!-- Node6 -->
<g id="node3" class="node">
<title>Node6</title>
<g id="a_node3"><a xlink:href="debug_8hpp.xhtml#a9340c95e0607709d793dc427c8b630e8" target="_top" xlink:title="Function that prints log messages. ">
<polygon fill="#ffffff" stroke="#000000" points="281.4902,-.5 281.4902,-18.5 343.4424,-18.5 343.4424,-.5 281.4902,-.5"/>
<text text-anchor="middle" x="312.4663" y="-6.5" font-family="Helvetica,sans-Serif" font-size="10.00" fill="#000000">TOOL::log</text>
</a>
</g>
</g>
<!-- Node5&#45;&gt;Node6 -->
<g id="edge4" class="edge">
<title>Node5&#45;&gt;Node6</title>
<path fill="none" stroke="#191970" d="M245.5307,-9.5C254.1595,-9.5 262.9416,-9.5 271.1828,-9.5"/>
<polygon fill="#191970" stroke="#191970" points="271.2802,-13.0001 281.2802,-9.5 271.2801,-6.0001 271.2802,-13.0001"/>
</g>
<!-- Node6&#45;&gt;Node6 -->
<g id="edge5" class="edge">
<title>Node6&#45;&gt;Node6</title>
<path fill="none" stroke="#191970" d="M294.8841,-18.5134C285.172,-27.322 291.0327,-37 312.4663,-37 326.5321,-37 333.8912,-32.832 334.5437,-27.477"/>
<polygon fill="#191970" stroke="#191970" points="337.66,-25.8834 330.0486,-18.5134 331.4028,-29.0214 337.66,-25.8834"/>
</g>
<!-- Node7 -->
<g id="node4" class="node">
<title>Node7</title>
<g id="a_node4"><a xlink:href="debug_8cpp.xhtml#ad6ba0645e5c2cdd3f7533aa4f15dbe71" target="_top" xlink:title="Sets #TOOL::generalLogLevel;. ">
<polygon fill="#ffffff" stroke="#000000" points="379.4424,-.5 379.4424,-18.5 481.9805,-18.5 481.9805,-.5 379.4424,-.5"/>
<text text-anchor="middle" x="430.7114" y="-6.5" font-family="Helvetica,sans-Serif" font-size="10.00" fill="#000000">TOOL::setLogLevel</text>
</a>
</g>
</g>
<!-- Node6&#45;&gt;Node7 -->
<g id="edge6" class="edge">
<title>Node6&#45;&gt;Node7</title>
<path fill="none" stroke="#191970" d="M343.5338,-9.5C351.4883,-9.5 360.3248,-9.5 369.2328,-9.5"/>
<polygon fill="#191970" stroke="#191970" points="369.2774,-13.0001 379.2773,-9.5 369.2773,-6.0001 369.2774,-13.0001"/>
</g>
<!-- Node7&#45;&gt;Node7 -->
<g id="edge7" class="edge">
<title>Node7&#45;&gt;Node7</title>
<path fill="none" stroke="#191970" d="M413.1292,-18.5134C403.4171,-27.322 409.2778,-37 430.7114,-37 444.7772,-37 452.1364,-32.832 452.7888,-27.477"/>
<polygon fill="#191970" stroke="#191970" points="455.9051,-25.8834 448.2937,-18.5134 449.6479,-29.0214 455.9051,-25.8834"/>
</g>
</g>
</svg>
