<?xml version="1.0" encoding="UTF-8" standalone="no"?>
<!DOCTYPE svg PUBLIC "-//W3C//DTD SVG 1.1//EN"
 "http://www.w3.org/Graphics/SVG/1.1/DTD/svg11.dtd">
<!-- Generated by graphviz version 2.40.1 (20161225.0304)
 -->
<!-- Title: src/tool_win.cpp Pages: 1 -->
<!--zoomable 247 -->
<svg id="main" version="1.1" xmlns="http://www.w3.org/2000/svg" xmlns:xlink="http://www.w3.org/1999/xlink" xml:space="preserve" onload="init(evt)">
<style type="text/css"><![CDATA[
.edge:hover path { stroke: red; }
.edge:hover polygon { stroke: red; fill: red; }
]]></style>
<script type="text/javascript"><![CDATA[
var edges = document.getElementsByTagName('g');
if (edges && edges.length) {
  for (var i=0;i<edges.length;i++) {
    if (edges[i].id.substr(0,4)=='edge') {
      edges[i].setAttribute('class','edge');
    }
  }
}
]]></script>
        <defs>
                <circle id="rim" cx="0" cy="0" r="7"/>
                <circle id="rim2" cx="0" cy="0" r="3.5"/>
                <g id="zoomPlus">
                        <use xlink:href="#rim" fill="#404040">
                                <set attributeName="fill" to="#808080" begin="zoomplus.mouseover" end="zoomplus.mouseout"/>
                        </use>
                        <path d="M-4,0h8M0,-4v8" fill="none" stroke="white" stroke-width="1.5" pointer-events="none"/>
                </g>
                <g id="zoomMin">
                        <use xlink:href="#rim" fill="#404040">
                                <set attributeName="fill" to="#808080" begin="zoomminus.mouseover" end="zoomminus.mouseout"/>
                        </use>
                        <path d="M-4,0h8" fill="none" stroke="white" stroke-width="1.5" pointer-events="none"/>
                </g>
                <g id="dirArrow">
                        <path fill="none" stroke="white" stroke-width="1.5" d="M0,-3.0v7 M-2.5,-0.5L0,-3.0L2.5,-0.5"/>
                </g>
               <g id="resetDef">
                       <use xlink:href="#rim2" fill="#404040">
                               <set attributeName="fill" to="#808080" begin="reset.mouseover" end="reset.mouseout"/>
                       </use>
               </g>
        </defs>

<script type="text/javascript">
var viewWidth = 1040;
var viewHeight = 247;
var sectionId = 'dynsection-0';
</script>
<script xlink:href="svgpan.js"/>
<svg id="graph" class="graph">
<g id="viewport">
<title>src/tool_win.cpp</title>
<polygon fill="#ffffff" stroke="transparent" points="-4,4 -4,-243 1035.7979,-243 1035.7979,4 -4,4"/>
<!-- Node0 -->
<g id="node1" class="node">
<title>Node0</title>
<polygon fill="#bfbfbf" stroke="#000000" points="361.7168,-220.5 361.7168,-238.5 449.416,-238.5 449.416,-220.5 361.7168,-220.5"/>
<text text-anchor="middle" x="405.5664" y="-226.5" font-family="Helvetica,sans-Serif" font-size="10.00" fill="#000000">src/tool_win.cpp</text>
</g>
<!-- Node1 -->
<g id="node2" class="node">
<title>Node1</title>
<polygon fill="#ffffff" stroke="#bfbfbf" points="0,-165.5 0,-183.5 67.1328,-183.5 67.1328,-165.5 0,-165.5"/>
<text text-anchor="middle" x="33.5664" y="-171.5" font-family="Helvetica,sans-Serif" font-size="10.00" fill="#000000">WS2tcpip.h</text>
</g>
<!-- Node0&#45;&gt;Node1 -->
<g id="edge1" class="edge">
<title>Node0&#45;&gt;Node1</title>
<path fill="none" stroke="#191970" d="M361.6055,-224.6499C300.0978,-217.598 184.68,-203.3996 77.4577,-184.2328"/>
<polygon fill="#191970" stroke="#191970" points="77.9045,-180.757 67.4415,-182.4233 76.66,-187.6455 77.9045,-180.757"/>
</g>
<!-- Node2 -->
<g id="node3" class="node">
<title>Node2</title>
<polygon fill="#ffffff" stroke="#bfbfbf" points="84.8818,-165.5 84.8818,-183.5 144.251,-183.5 144.251,-165.5 84.8818,-165.5"/>
<text text-anchor="middle" x="114.5664" y="-171.5" font-family="Helvetica,sans-Serif" font-size="10.00" fill="#000000">Iphlpapi.h</text>
</g>
<!-- Node0&#45;&gt;Node2 -->
<g id="edge2" class="edge">
<title>Node0&#45;&gt;Node2</title>
<path fill="none" stroke="#191970" d="M361.5138,-222.4977C312.974,-214.5779 232.3875,-200.8294 154.3847,-184.2941"/>
<polygon fill="#191970" stroke="#191970" points="154.9039,-180.826 144.3931,-182.1574 153.44,-187.6713 154.9039,-180.826"/>
</g>
<!-- Node3 -->
<g id="node4" class="node">
<title>Node3</title>
<polygon fill="#ffffff" stroke="#bfbfbf" points="162.0591,-165.5 162.0591,-183.5 223.0737,-183.5 223.0737,-165.5 162.0591,-165.5"/>
<text text-anchor="middle" x="192.5664" y="-171.5" font-family="Helvetica,sans-Serif" font-size="10.00" fill="#000000">Winternl.h</text>
</g>
<!-- Node0&#45;&gt;Node3 -->
<g id="edge3" class="edge">
<title>Node0&#45;&gt;Node3</title>
<path fill="none" stroke="#191970" d="M370.3938,-220.4179C332.6756,-210.6784 272.8666,-195.2348 233.1737,-184.9855"/>
<polygon fill="#191970" stroke="#191970" points="233.8507,-181.5455 223.2932,-182.4342 232.1006,-188.3232 233.8507,-181.5455"/>
</g>
<!-- Node4 -->
<g id="node5" class="node">
<title>Node4</title>
<polygon fill="#ffffff" stroke="#bfbfbf" points="241.0566,-165.5 241.0566,-183.5 302.0762,-183.5 302.0762,-165.5 241.0566,-165.5"/>
<text text-anchor="middle" x="271.5664" y="-171.5" font-family="Helvetica,sans-Serif" font-size="10.00" fill="#000000">wbemidl.h</text>
</g>
<!-- Node0&#45;&gt;Node4 -->
<g id="edge4" class="edge">
<title>Node0&#45;&gt;Node4</title>
<path fill="none" stroke="#191970" d="M383.439,-220.4179C361.5205,-211.4215 327.7442,-197.5581 303.0373,-187.4172"/>
<polygon fill="#191970" stroke="#191970" points="304.3067,-184.1549 293.7267,-183.5956 301.6487,-190.6306 304.3067,-184.1549"/>
</g>
<!-- Node5 -->
<g id="node6" class="node">
<title>Node5</title>
<polygon fill="#ffffff" stroke="#bfbfbf" points="320,-165.5 320,-183.5 377.1328,-183.5 377.1328,-165.5 320,-165.5"/>
<text text-anchor="middle" x="348.5664" y="-171.5" font-family="Helvetica,sans-Serif" font-size="10.00" fill="#000000">comdef.h</text>
</g>
<!-- Node0&#45;&gt;Node5 -->
<g id="edge5" class="edge">
<title>Node0&#45;&gt;Node5</title>
<path fill="none" stroke="#191970" d="M396.154,-220.4179C387.8705,-212.425 375.6055,-200.5903 365.6019,-190.9377"/>
<polygon fill="#191970" stroke="#191970" points="367.8098,-188.2045 358.1833,-183.7795 362.9492,-193.2419 367.8098,-188.2045"/>
</g>
<!-- Node6 -->
<g id="node7" class="node">
<title>Node6</title>
<g id="a_node7"><a xlink:href="netflow_8hpp.xhtml" target="_top" xlink:title="Netflow structure header file. ">
<polygon fill="#ffffff" stroke="#000000" points="548.2661,-110.5 548.2661,-128.5 614.8667,-128.5 614.8667,-110.5 548.2661,-110.5"/>
<text text-anchor="middle" x="581.5664" y="-116.5" font-family="Helvetica,sans-Serif" font-size="10.00" fill="#000000">netflow.hpp</text>
</a>
</g>
</g>
<!-- Node0&#45;&gt;Node6 -->
<g id="edge6" class="edge">
<title>Node0&#45;&gt;Node6</title>
<path fill="none" stroke="#191970" d="M430.0971,-220.3595C450.7201,-212.1829 480.5878,-199.1689 504.5664,-184 526.9485,-169.8411 549.8746,-149.7807 564.8216,-135.8044"/>
<polygon fill="#191970" stroke="#191970" points="567.4145,-138.1686 572.2505,-128.7418 562.5914,-133.0953 567.4145,-138.1686"/>
</g>
<!-- Node9 -->
<g id="node10" class="node">
<title>Node9</title>
<g id="a_node10"><a xlink:href="tcpip__headers_8hpp.xhtml" target="_top" xlink:title="Protocol headers. ">
<polygon fill="#ffffff" stroke="#000000" points="322.4238,-55.5 322.4238,-73.5 420.709,-73.5 420.709,-55.5 322.4238,-55.5"/>
<text text-anchor="middle" x="371.5664" y="-61.5" font-family="Helvetica,sans-Serif" font-size="10.00" fill="#000000">tcpip_headers.hpp</text>
</a>
</g>
</g>
<!-- Node0&#45;&gt;Node9 -->
<g id="edge11" class="edge">
<title>Node0&#45;&gt;Node9</title>
<path fill="none" stroke="#191970" d="M405.4601,-220.2405C404.7919,-206.3482 401.4807,-180.1314 386.5664,-165 348.6727,-126.5547 302.5842,-172.4608 270.5664,-129 252.5398,-104.5308 287.973,-86.9851 321.7247,-76.4289"/>
<polygon fill="#191970" stroke="#191970" points="323.0185,-79.6963 331.6176,-73.5071 321.0358,-72.9829 323.0185,-79.6963"/>
</g>
<!-- Node11 -->
<g id="node12" class="node">
<title>Node11</title>
<g id="a_node12"><a xlink:href="cache_8hpp.xhtml" target="_top" xlink:title="Cache implementation header file. ">
<polygon fill="#ffffff" stroke="#000000" points="433.4927,-165.5 433.4927,-183.5 495.6401,-183.5 495.6401,-165.5 433.4927,-165.5"/>
<text text-anchor="middle" x="464.5664" y="-171.5" font-family="Helvetica,sans-Serif" font-size="10.00" fill="#000000">cache.hpp</text>
</a>
</g>
</g>
<!-- Node0&#45;&gt;Node11 -->
<g id="edge12" class="edge">
<title>Node0&#45;&gt;Node11</title>
<path fill="none" stroke="#191970" d="M415.3091,-220.4179C423.9681,-212.3458 436.8304,-200.3556 447.2401,-190.6517"/>
<polygon fill="#191970" stroke="#191970" points="449.684,-193.1584 454.6121,-183.7795 444.9108,-188.0381 449.684,-193.1584"/>
</g>
<!-- Node15 -->
<g id="node16" class="node">
<title>Node15</title>
<g id="a_node16"><a xlink:href="debug_8hpp.xhtml" target="_top" xlink:title="Debugging functions. ">
<polygon fill="#ffffff" stroke="#000000" points="660.9312,-165.5 660.9312,-183.5 724.2017,-183.5 724.2017,-165.5 660.9312,-165.5"/>
<text text-anchor="middle" x="692.5664" y="-171.5" font-family="Helvetica,sans-Serif" font-size="10.00" fill="#000000">debug.hpp</text>
</a>
</g>
</g>
<!-- Node0&#45;&gt;Node15 -->
<g id="edge18" class="edge">
<title>Node0&#45;&gt;Node15</title>
<path fill="none" stroke="#191970" d="M449.4679,-221.0868C504.1973,-210.5986 597.0665,-192.8014 650.7874,-182.5064"/>
<polygon fill="#191970" stroke="#191970" points="651.5032,-185.933 660.6657,-180.6134 650.1857,-179.0581 651.5032,-185.933"/>
</g>
<!-- Node18 -->
<g id="node19" class="node">
<title>Node18</title>
<g id="a_node19"><a xlink:href="utils_8hpp.xhtml" target="_top" xlink:title="Small useful functions header file. ">
<polygon fill="#ffffff" stroke="#000000" points="844.9434,-165.5 844.9434,-183.5 898.1895,-183.5 898.1895,-165.5 844.9434,-165.5"/>
<text text-anchor="middle" x="871.5664" y="-171.5" font-family="Helvetica,sans-Serif" font-size="10.00" fill="#000000">utils.hpp</text>
</a>
</g>
</g>
<!-- Node0&#45;&gt;Node18 -->
<g id="edge21" class="edge">
<title>Node0&#45;&gt;Node18</title>
<path fill="none" stroke="#191970" d="M449.8267,-224.2761C541.3329,-213.4761 749.8607,-188.8644 834.668,-178.855"/>
<polygon fill="#191970" stroke="#191970" points="835.331,-182.3011 844.8518,-177.653 834.5104,-175.3494 835.331,-182.3011"/>
</g>
<!-- Node22 -->
<g id="node23" class="node">
<title>Node22</title>
<g id="a_node23"><a xlink:href="tool__win_8hpp.xhtml" target="_top" xlink:title="Determining applications and their sockets on Windows. ">
<polygon fill="#ffffff" stroke="#000000" points="551.4902,-165.5 551.4902,-183.5 623.6426,-183.5 623.6426,-165.5 551.4902,-165.5"/>
<text text-anchor="middle" x="587.5664" y="-171.5" font-family="Helvetica,sans-Serif" font-size="10.00" fill="#000000">tool_win.hpp</text>
</a>
</g>
</g>
<!-- Node0&#45;&gt;Node22 -->
<g id="edge26" class="edge">
<title>Node0&#45;&gt;Node22</title>
<path fill="none" stroke="#191970" d="M435.62,-220.4179C466.2718,-211.155 513.9972,-196.7325 547.7713,-186.526"/>
<polygon fill="#191970" stroke="#191970" points="549.2107,-189.7474 557.7707,-183.5042 547.1857,-183.0467 549.2107,-189.7474"/>
</g>
<!-- Node7 -->
<g id="node8" class="node">
<title>Node7</title>
<polygon fill="#ffffff" stroke="#bfbfbf" points="622.3398,-55.5 622.3398,-73.5 662.793,-73.5 662.793,-55.5 622.3398,-55.5"/>
<text text-anchor="middle" x="642.5664" y="-61.5" font-family="Helvetica,sans-Serif" font-size="10.00" fill="#000000">string</text>
</g>
<!-- Node6&#45;&gt;Node7 -->
<g id="edge7" class="edge">
<title>Node6&#45;&gt;Node7</title>
<path fill="none" stroke="#191970" d="M591.6393,-110.4179C600.5919,-102.3458 613.8902,-90.3556 624.6527,-80.6517"/>
<polygon fill="#191970" stroke="#191970" points="627.1915,-83.0753 632.2746,-73.7795 622.504,-77.8764 627.1915,-83.0753"/>
</g>
<!-- Node8 -->
<g id="node9" class="node">
<title>Node8</title>
<polygon fill="#ffffff" stroke="#bfbfbf" points="558.8398,-55.5 558.8398,-73.5 604.293,-73.5 604.293,-55.5 558.8398,-55.5"/>
<text text-anchor="middle" x="581.5664" y="-61.5" font-family="Helvetica,sans-Serif" font-size="10.00" fill="#000000">cstring</text>
</g>
<!-- Node6&#45;&gt;Node8 -->
<g id="edge8" class="edge">
<title>Node6&#45;&gt;Node8</title>
<path fill="none" stroke="#191970" d="M581.5664,-110.4179C581.5664,-103.2164 581.5664,-92.8962 581.5664,-83.8632"/>
<polygon fill="#191970" stroke="#191970" points="585.0665,-83.7794 581.5664,-73.7795 578.0665,-83.7795 585.0665,-83.7794"/>
</g>
<!-- Node6&#45;&gt;Node9 -->
<g id="edge9" class="edge">
<title>Node6&#45;&gt;Node9</title>
<path fill="none" stroke="#191970" d="M547.8263,-110.6633C512.0961,-101.3054 455.5216,-86.4883 416.1397,-76.174"/>
<polygon fill="#191970" stroke="#191970" points="416.8317,-72.7372 406.2712,-73.5894 415.0582,-79.5088 416.8317,-72.7372"/>
</g>
<!-- Node10 -->
<g id="node11" class="node">
<title>Node10</title>
<polygon fill="#ffffff" stroke="#bfbfbf" points="347.4458,-.5 347.4458,-18.5 395.687,-18.5 395.687,-.5 347.4458,-.5"/>
<text text-anchor="middle" x="371.5664" y="-6.5" font-family="Helvetica,sans-Serif" font-size="10.00" fill="#000000">stdint.h</text>
</g>
<!-- Node9&#45;&gt;Node10 -->
<g id="edge10" class="edge">
<title>Node9&#45;&gt;Node10</title>
<path fill="none" stroke="#191970" d="M371.5664,-55.4179C371.5664,-48.2164 371.5664,-37.8962 371.5664,-28.8632"/>
<polygon fill="#191970" stroke="#191970" points="375.0665,-28.7794 371.5664,-18.7795 368.0665,-28.7795 375.0665,-28.7794"/>
</g>
<!-- Node11&#45;&gt;Node6 -->
<g id="edge17" class="edge">
<title>Node11&#45;&gt;Node6</title>
<path fill="none" stroke="#191970" d="M483.8866,-165.4179C502.6857,-156.5807 531.4749,-143.0473 552.9353,-132.9591"/>
<polygon fill="#191970" stroke="#191970" points="554.6566,-136.0174 562.2175,-128.5956 551.6786,-129.6824 554.6566,-136.0174"/>
</g>
<!-- Node11&#45;&gt;Node7 -->
<g id="edge13" class="edge">
<title>Node11&#45;&gt;Node7</title>
<path fill="none" stroke="#191970" d="M473.5606,-165.1844C486.9672,-151.6859 513.4269,-126.502 539.5664,-110 562.8273,-95.3153 591.6365,-83.0269 612.8666,-74.9372"/>
<polygon fill="#191970" stroke="#191970" points="614.1786,-78.1836 622.331,-71.4168 611.7381,-71.6227 614.1786,-78.1836"/>
</g>
<!-- Node12 -->
<g id="node13" class="node">
<title>Node12</title>
<polygon fill="#ffffff" stroke="#bfbfbf" points="279.9507,-110.5 279.9507,-128.5 323.1821,-128.5 323.1821,-110.5 279.9507,-110.5"/>
<text text-anchor="middle" x="301.5664" y="-116.5" font-family="Helvetica,sans-Serif" font-size="10.00" fill="#000000">vector</text>
</g>
<!-- Node11&#45;&gt;Node12 -->
<g id="edge14" class="edge">
<title>Node11&#45;&gt;Node12</title>
<path fill="none" stroke="#191970" d="M437.6503,-165.4179C408.8915,-155.714 363.351,-140.3475 332.975,-130.098"/>
<polygon fill="#191970" stroke="#191970" points="333.8952,-126.7147 323.3011,-126.8338 331.6572,-133.3473 333.8952,-126.7147"/>
</g>
<!-- Node13 -->
<g id="node14" class="node">
<title>Node13</title>
<polygon fill="#ffffff" stroke="#bfbfbf" points="341.2637,-110.5 341.2637,-128.5 427.8691,-128.5 427.8691,-110.5 341.2637,-110.5"/>
<text text-anchor="middle" x="384.5664" y="-116.5" font-family="Helvetica,sans-Serif" font-size="10.00" fill="#000000">unordered_map</text>
</g>
<!-- Node11&#45;&gt;Node13 -->
<g id="edge15" class="edge">
<title>Node11&#45;&gt;Node13</title>
<path fill="none" stroke="#191970" d="M451.356,-165.4179C439.081,-156.9788 420.5765,-144.257 406.1556,-134.3426"/>
<polygon fill="#191970" stroke="#191970" points="408.0197,-131.3768 397.7964,-128.5956 404.054,-137.1451 408.0197,-131.3768"/>
</g>
<!-- Node14 -->
<g id="node15" class="node">
<title>Node14</title>
<polygon fill="#ffffff" stroke="#bfbfbf" points="446.2783,-110.5 446.2783,-128.5 492.8545,-128.5 492.8545,-110.5 446.2783,-110.5"/>
<text text-anchor="middle" x="469.5664" y="-116.5" font-family="Helvetica,sans-Serif" font-size="10.00" fill="#000000">chrono</text>
</g>
<!-- Node11&#45;&gt;Node14 -->
<g id="edge16" class="edge">
<title>Node11&#45;&gt;Node14</title>
<path fill="none" stroke="#191970" d="M465.3921,-165.4179C466.0467,-158.2164 466.9849,-147.8962 467.8061,-138.8632"/>
<polygon fill="#191970" stroke="#191970" points="471.303,-139.0553 468.7228,-128.7795 464.3317,-138.4215 471.303,-139.0553"/>
</g>
<!-- Node16 -->
<g id="node17" class="node">
<title>Node16</title>
<polygon fill="#ffffff" stroke="#bfbfbf" points="732.394,-110.5 732.394,-128.5 786.7388,-128.5 786.7388,-110.5 732.394,-110.5"/>
<text text-anchor="middle" x="759.5664" y="-116.5" font-family="Helvetica,sans-Serif" font-size="10.00" fill="#000000">iostream</text>
</g>
<!-- Node15&#45;&gt;Node16 -->
<g id="edge19" class="edge">
<title>Node15&#45;&gt;Node16</title>
<path fill="none" stroke="#191970" d="M703.6301,-165.4179C713.5597,-157.2667 728.3564,-145.1201 740.2376,-135.3669"/>
<polygon fill="#191970" stroke="#191970" points="742.7538,-137.8297 748.2623,-128.7795 738.3123,-132.4192 742.7538,-137.8297"/>
</g>
<!-- Node17 -->
<g id="node18" class="node">
<title>Node17</title>
<polygon fill="#ffffff" stroke="#bfbfbf" points="670.9507,-110.5 670.9507,-128.5 714.1821,-128.5 714.1821,-110.5 670.9507,-110.5"/>
<text text-anchor="middle" x="692.5664" y="-116.5" font-family="Helvetica,sans-Serif" font-size="10.00" fill="#000000">mutex</text>
</g>
<!-- Node15&#45;&gt;Node17 -->
<g id="edge20" class="edge">
<title>Node15&#45;&gt;Node17</title>
<path fill="none" stroke="#191970" d="M692.5664,-165.4179C692.5664,-158.2164 692.5664,-147.8962 692.5664,-138.8632"/>
<polygon fill="#191970" stroke="#191970" points="696.0665,-138.7794 692.5664,-128.7795 689.0665,-138.7795 696.0665,-138.7794"/>
</g>
<!-- Node18&#45;&gt;Node7 -->
<g id="edge23" class="edge">
<title>Node18&#45;&gt;Node7</title>
<path fill="none" stroke="#191970" d="M863.129,-165.2076C849.9904,-151.2725 823.2613,-125.0004 795.5664,-110 755.9407,-88.5376 704.9205,-75.9824 672.9712,-69.6785"/>
<polygon fill="#191970" stroke="#191970" points="673.3875,-66.1953 662.9114,-67.7765 672.087,-73.0734 673.3875,-66.1953"/>
</g>
<!-- Node19 -->
<g id="node20" class="node">
<title>Node19</title>
<polygon fill="#ffffff" stroke="#bfbfbf" points="842.1626,-110.5 842.1626,-128.5 900.9702,-128.5 900.9702,-110.5 842.1626,-110.5"/>
<text text-anchor="middle" x="871.5664" y="-116.5" font-family="Helvetica,sans-Serif" font-size="10.00" fill="#000000">exception</text>
</g>
<!-- Node18&#45;&gt;Node19 -->
<g id="edge22" class="edge">
<title>Node18&#45;&gt;Node19</title>
<path fill="none" stroke="#191970" d="M871.5664,-165.4179C871.5664,-158.2164 871.5664,-147.8962 871.5664,-138.8632"/>
<polygon fill="#191970" stroke="#191970" points="875.0665,-138.7794 871.5664,-128.7795 868.0665,-138.7795 875.0665,-138.7794"/>
</g>
<!-- Node20 -->
<g id="node21" class="node">
<title>Node20</title>
<polygon fill="#ffffff" stroke="#bfbfbf" points="919.394,-110.5 919.394,-128.5 963.7388,-128.5 963.7388,-110.5 919.394,-110.5"/>
<text text-anchor="middle" x="941.5664" y="-116.5" font-family="Helvetica,sans-Serif" font-size="10.00" fill="#000000">cerrno</text>
</g>
<!-- Node18&#45;&gt;Node20 -->
<g id="edge24" class="edge">
<title>Node18&#45;&gt;Node20</title>
<path fill="none" stroke="#191970" d="M883.1255,-165.4179C893.6004,-157.1876 909.2596,-144.8839 921.7328,-135.0836"/>
<polygon fill="#191970" stroke="#191970" points="924.0554,-137.7098 929.7562,-128.7795 919.7306,-132.2056 924.0554,-137.7098"/>
</g>
<!-- Node21 -->
<g id="node22" class="node">
<title>Node21</title>
<g id="a_node22"><a xlink:href="utils_8tpp.xhtml" target="_top" xlink:title="Small useful templated functions. ">
<polygon fill="#ffffff" stroke="#000000" points="981.335,-110.5 981.335,-128.5 1031.7979,-128.5 1031.7979,-110.5 981.335,-110.5"/>
<text text-anchor="middle" x="1006.5664" y="-116.5" font-family="Helvetica,sans-Serif" font-size="10.00" fill="#000000">utils.tpp</text>
</a>
</g>
</g>
<!-- Node18&#45;&gt;Node21 -->
<g id="edge25" class="edge">
<title>Node18&#45;&gt;Node21</title>
<path fill="none" stroke="#191970" d="M893.8589,-165.4179C915.941,-156.4215 949.9694,-142.5581 974.8606,-132.4172"/>
<polygon fill="#191970" stroke="#191970" points="976.3004,-135.61 984.2408,-128.5956 973.6593,-129.1273 976.3004,-135.61"/>
</g>
<!-- Node22&#45;&gt;Node6 -->
<g id="edge28" class="edge">
<title>Node22&#45;&gt;Node6</title>
<path fill="none" stroke="#191970" d="M586.5756,-165.4179C585.79,-158.2164 584.6642,-147.8962 583.6788,-138.8632"/>
<polygon fill="#191970" stroke="#191970" points="587.1426,-138.3409 582.5787,-128.7795 580.1839,-139.1001 587.1426,-138.3409"/>
</g>
<!-- Node22&#45;&gt;Node7 -->
<g id="edge27" class="edge">
<title>Node22&#45;&gt;Node7</title>
<path fill="none" stroke="#191970" d="M596.4461,-165.4829C604.5521,-156.7966 616.3393,-142.953 623.5664,-129 631.0327,-114.5852 635.994,-96.7983 638.9686,-83.5564"/>
<polygon fill="#191970" stroke="#191970" points="642.4141,-84.1775 641.0113,-73.676 635.5591,-82.7602 642.4141,-84.1775"/>
</g>
</g>
</svg>
        <g id="navigator" transform="translate(0 0)" fill="#404254">
                <rect fill="#f2f5e9" fill-opacity="0.5" stroke="#606060" stroke-width=".5" x="0" y="0" width="60" height="60"/>
                <use id="zoomplus" xlink:href="#zoomPlus" x="17" y="9" onmousedown="handleZoom(evt,'in')"/>
                <use id="zoomminus" xlink:href="#zoomMin" x="42" y="9" onmousedown="handleZoom(evt,'out')"/>
                <use id="reset" xlink:href="#resetDef" x="30" y="36" onmousedown="handleReset()"/>
                <g id="arrowUp" xlink:href="#dirArrow" transform="translate(30 24)" onmousedown="handlePan(0,-1)">
                  <use xlink:href="#rim" fill="#404040">
                        <set attributeName="fill" to="#808080" begin="arrowUp.mouseover" end="arrowUp.mouseout"/>
                  </use>
                  <path fill="none" stroke="white" stroke-width="1.5" d="M0,-3.0v7 M-2.5,-0.5L0,-3.0L2.5,-0.5"/>
                </g>
                <g id="arrowRight" xlink:href="#dirArrow" transform="rotate(90) translate(36 -43)" onmousedown="handlePan(1,0)">
                  <use xlink:href="#rim" fill="#404040">
                        <set attributeName="fill" to="#808080" begin="arrowRight.mouseover" end="arrowRight.mouseout"/>
                  </use>
                  <path fill="none" stroke="white" stroke-width="1.5" d="M0,-3.0v7 M-2.5,-0.5L0,-3.0L2.5,-0.5"/>
                </g>
                <g id="arrowDown" xlink:href="#dirArrow" transform="rotate(180) translate(-30 -48)" onmousedown="handlePan(0,1)">
                  <use xlink:href="#rim" fill="#404040">
                        <set attributeName="fill" to="#808080" begin="arrowDown.mouseover" end="arrowDown.mouseout"/>
                  </use>
                  <path fill="none" stroke="white" stroke-width="1.5" d="M0,-3.0v7 M-2.5,-0.5L0,-3.0L2.5,-0.5"/>
                </g>
                <g id="arrowLeft" xlink:href="#dirArrow" transform="rotate(270) translate(-36 17)" onmousedown="handlePan(-1,0)">
                  <use xlink:href="#rim" fill="#404040">
                        <set attributeName="fill" to="#808080" begin="arrowLeft.mouseover" end="arrowLeft.mouseout"/>
                  </use>
                  <path fill="none" stroke="white" stroke-width="1.5" d="M0,-3.0v7 M-2.5,-0.5L0,-3.0L2.5,-0.5"/>
                </g>
        </g>
        <svg viewBox="0 0 15 15" width="100%" height="30px" preserveAspectRatio="xMaxYMin meet">
         <g id="arrow_out" transform="scale(0.3 0.3)">
          <a xlink:href="tool__win_8cpp__incl_org.svg" target="_base">
           <rect id="button" ry="5" rx="5" y="6" x="6" height="38" width="38"
                fill="#f2f5e9" fill-opacity="0.5" stroke="#606060" stroke-width="1.0"/>
           <path id="arrow"
             d="M 11.500037,31.436501 C 11.940474,20.09759 22.043105,11.32322 32.158766,21.979434 L 37.068811,17.246167 C 37.068811,17.246167 37.088388,32 37.088388,32 L 22.160133,31.978069 C 22.160133,31.978069 26.997745,27.140456 26.997745,27.140456 C 18.528582,18.264221 13.291696,25.230495 11.500037,31.436501 z"
             style="fill:#404040;"/>
          </a>
         </g>
        </svg>
</svg>
