<?xml version="1.0" encoding="UTF-8" standalone="no"?>
<!DOCTYPE svg PUBLIC "-//W3C//DTD SVG 1.1//EN"
 "http://www.w3.org/Graphics/SVG/1.1/DTD/svg11.dtd">
<!-- Generated by graphviz version 2.40.1 (20161225.0304)
 -->
<!-- Title: TOOL::determineApp Pages: 1 -->
<svg width="361pt" height="45pt"
 viewBox="0.00 0.00 360.51 45.00" xmlns="http://www.w3.org/2000/svg" xmlns:xlink="http://www.w3.org/1999/xlink">
<g id="graph0" class="graph" transform="scale(1 1) rotate(0) translate(4 41)">
<title>TOOL::determineApp</title>
<polygon fill="#ffffff" stroke="transparent" points="-4,4 -4,-41 356.5146,-41 356.5146,4 -4,4"/>
<!-- Node3 -->
<g id="node1" class="node">
<title>Node3</title>
<polygon fill="#bfbfbf" stroke="#000000" points="0,-.5 0,-18.5 110.8682,-18.5 110.8682,-.5 0,-.5"/>
<text text-anchor="middle" x="55.4341" y="-6.5" font-family="Helvetica,sans-Serif" font-size="10.00" fill="#000000">TOOL::determineApp</text>
</g>
<!-- Node3&#45;&gt;Node3 -->
<g id="edge1" class="edge">
<title>Node3&#45;&gt;Node3</title>
<path fill="none" stroke="#191970" d="M29.1988,-27.0926C29.6034,-32.6312 38.3485,-37 55.4341,-37 80.8638,-37 87.8172,-27.322 76.2944,-18.5134"/>
<polygon fill="#191970" stroke="#191970" points="32.2305,-28.8459 34.5738,-18.5134 26.2985,-25.1294 32.2305,-28.8459"/>
</g>
<!-- Node4 -->
<g id="node2" class="node">
<title>Node4</title>
<g id="a_node2"><a xlink:href="tool__apple_8cpp.xhtml#abffa8d5a00da5ef52e025864e1b86829" target="_top" xlink:title="Sets mac address of g_dev interface into g_devMac. ">
<polygon fill="#ffffff" stroke="#000000" points="146.8682,-.5 146.8682,-18.5 245.4902,-18.5 245.4902,-.5 146.8682,-.5"/>
<text text-anchor="middle" x="196.1792" y="-6.5" font-family="Helvetica,sans-Serif" font-size="10.00" fill="#000000">TOOL::setDevMac</text>
</a>
</g>
</g>
<!-- Node3&#45;&gt;Node4 -->
<g id="edge2" class="edge">
<title>Node3&#45;&gt;Node4</title>
<path fill="none" stroke="#191970" d="M121.2976,-9.5C129.7529,-9.5 138.2953,-9.5 146.434,-9.5"/>
<polygon fill="#191970" stroke="#191970" points="121.0603,-6.0001 111.0603,-9.5 121.0602,-13.0001 121.0603,-6.0001"/>
</g>
<!-- Node4&#45;&gt;Node4 -->
<g id="edge4" class="edge">
<title>Node4&#45;&gt;Node4</title>
<path fill="none" stroke="#191970" d="M173.7276,-27.477C174.3911,-32.832 181.875,-37 196.1792,-37 217.9761,-37 223.9362,-27.322 214.0594,-18.5134"/>
<polygon fill="#191970" stroke="#191970" points="176.8737,-29.012 178.299,-18.5134 170.6378,-25.8317 176.8737,-29.012"/>
</g>
<!-- Node5 -->
<g id="node3" class="node">
<title>Node5</title>
<g id="a_node3"><a xlink:href="capturing_8hpp.xhtml#a796d8f82917739002736e8d61c6fb635" target="_top" xlink:title="Starts network traffic capture. ">
<polygon fill="#ffffff" stroke="#000000" points="281.4902,-.5 281.4902,-18.5 352.5146,-18.5 352.5146,-.5 281.4902,-.5"/>
<text text-anchor="middle" x="317.0024" y="-6.5" font-family="Helvetica,sans-Serif" font-size="10.00" fill="#000000">startCapture</text>
</a>
</g>
</g>
<!-- Node4&#45;&gt;Node5 -->
<g id="edge3" class="edge">
<title>Node4&#45;&gt;Node5</title>
<path fill="none" stroke="#191970" d="M255.8858,-9.5C264.6323,-9.5 273.3984,-9.5 281.4508,-9.5"/>
<polygon fill="#191970" stroke="#191970" points="255.6713,-6.0001 245.6713,-9.5 255.6712,-13.0001 255.6713,-6.0001"/>
</g>
</g>
</svg>
