<?xml version="1.0" encoding="UTF-8" standalone="no"?>
<!DOCTYPE svg PUBLIC "-//W3C//DTD SVG 1.1//EN"
 "http://www.w3.org/Graphics/SVG/1.1/DTD/svg11.dtd">
<!-- Generated by graphviz version 2.40.1 (20161225.0304)
 -->
<!-- Title: TOOL::setDevMac Pages: 1 -->
<svg width="214pt" height="45pt"
 viewBox="0.00 0.00 213.65 45.00" xmlns="http://www.w3.org/2000/svg" xmlns:xlink="http://www.w3.org/1999/xlink">
<g id="graph0" class="graph" transform="scale(1 1) rotate(0) translate(4 41)">
<title>TOOL::setDevMac</title>
<polygon fill="#ffffff" stroke="transparent" points="-4,4 -4,-41 209.6465,-41 209.6465,4 -4,4"/>
<!-- Node8 -->
<g id="node1" class="node">
<title>Node8</title>
<polygon fill="#bfbfbf" stroke="#000000" points="0,-.5 0,-18.5 98.6221,-18.5 98.6221,-.5 0,-.5"/>
<text text-anchor="middle" x="49.311" y="-6.5" font-family="Helvetica,sans-Serif" font-size="10.00" fill="#000000">TOOL::setDevMac</text>
</g>
<!-- Node8&#45;&gt;Node8 -->
<g id="edge2" class="edge">
<title>Node8&#45;&gt;Node8</title>
<path fill="none" stroke="#191970" d="M26.8594,-27.477C27.523,-32.832 35.0068,-37 49.311,-37 71.1079,-37 77.068,-27.322 67.1913,-18.5134"/>
<polygon fill="#191970" stroke="#191970" points="30.0055,-29.012 31.4308,-18.5134 23.7696,-25.8317 30.0055,-29.012"/>
</g>
<!-- Node9 -->
<g id="node2" class="node">
<title>Node9</title>
<g id="a_node2"><a xlink:href="capturing_8hpp.xhtml#a796d8f82917739002736e8d61c6fb635" target="_top" xlink:title="Starts network traffic capture. ">
<polygon fill="#ffffff" stroke="#000000" points="134.6221,-.5 134.6221,-18.5 205.6465,-18.5 205.6465,-.5 134.6221,-.5"/>
<text text-anchor="middle" x="170.1343" y="-6.5" font-family="Helvetica,sans-Serif" font-size="10.00" fill="#000000">startCapture</text>
</a>
</g>
</g>
<!-- Node8&#45;&gt;Node9 -->
<g id="edge1" class="edge">
<title>Node8&#45;&gt;Node9</title>
<path fill="none" stroke="#191970" d="M109.0177,-9.5C117.7641,-9.5 126.5303,-9.5 134.5826,-9.5"/>
<polygon fill="#191970" stroke="#191970" points="108.8031,-6.0001 98.8031,-9.5 108.8031,-13.0001 108.8031,-6.0001"/>
</g>
</g>
</svg>
