<?xml version="1.0" encoding="UTF-8" standalone="no"?>
<!DOCTYPE svg PUBLIC "-//W3C//DTD SVG 1.1//EN"
 "http://www.w3.org/Graphics/SVG/1.1/DTD/svg11.dtd">
<!-- Generated by graphviz version 2.40.1 (20161225.0304)
 -->
<!-- Title: src/tool_linux.cpp Pages: 1 -->
<svg width="1038pt" height="247pt"
 viewBox="0.00 0.00 1038.29 247.00" xmlns="http://www.w3.org/2000/svg" xmlns:xlink="http://www.w3.org/1999/xlink">
<g id="graph0" class="graph" transform="scale(1 1) rotate(0) translate(4 243)">
<title>src/tool_linux.cpp</title>
<polygon fill="#ffffff" stroke="transparent" points="-4,4 -4,-243 1034.2856,-243 1034.2856,4 -4,4"/>
<!-- Node0 -->
<g id="node1" class="node">
<title>Node0</title>
<polygon fill="#bfbfbf" stroke="#000000" points="224.0396,-220.5 224.0396,-238.5 317.3003,-238.5 317.3003,-220.5 224.0396,-220.5"/>
<text text-anchor="middle" x="270.6699" y="-226.5" font-family="Helvetica,sans-Serif" font-size="10.00" fill="#000000">src/tool_linux.cpp</text>
</g>
<!-- Node1 -->
<g id="node2" class="node">
<title>Node1</title>
<polygon fill="#ffffff" stroke="#bfbfbf" points="0,-165.5 0,-183.5 49.3398,-183.5 49.3398,-165.5 0,-165.5"/>
<text text-anchor="middle" x="24.6699" y="-171.5" font-family="Helvetica,sans-Serif" font-size="10.00" fill="#000000">fstream</text>
</g>
<!-- Node0&#45;&gt;Node1 -->
<g id="edge1" class="edge">
<title>Node0&#45;&gt;Node1</title>
<path fill="none" stroke="#191970" d="M223.9168,-220.49C182.8153,-212.3499 121.1788,-199.6137 59.3993,-184.3212"/>
<polygon fill="#191970" stroke="#191970" points="60.036,-180.8727 49.4859,-181.8452 58.3397,-187.6641 60.036,-180.8727"/>
</g>
<!-- Node2 -->
<g id="node3" class="node">
<title>Node2</title>
<polygon fill="#ffffff" stroke="#bfbfbf" points="66.9927,-165.5 66.9927,-183.5 116.3472,-183.5 116.3472,-165.5 66.9927,-165.5"/>
<text text-anchor="middle" x="91.6699" y="-171.5" font-family="Helvetica,sans-Serif" font-size="10.00" fill="#000000">dirent.h</text>
</g>
<!-- Node0&#45;&gt;Node2 -->
<g id="edge2" class="edge">
<title>Node0&#45;&gt;Node2</title>
<path fill="none" stroke="#191970" d="M241.1117,-220.4179C209.5254,-210.7126 159.5045,-195.343 126.1468,-185.0935"/>
<polygon fill="#191970" stroke="#191970" points="126.9552,-181.6804 116.3682,-182.0889 124.8992,-188.3717 126.9552,-181.6804"/>
</g>
<!-- Node3 -->
<g id="node4" class="node">
<title>Node3</title>
<polygon fill="#ffffff" stroke="#bfbfbf" points="134.1577,-165.5 134.1577,-183.5 185.1821,-183.5 185.1821,-165.5 134.1577,-165.5"/>
<text text-anchor="middle" x="159.6699" y="-171.5" font-family="Helvetica,sans-Serif" font-size="10.00" fill="#000000">unistd.h</text>
</g>
<!-- Node0&#45;&gt;Node3 -->
<g id="edge3" class="edge">
<title>Node0&#45;&gt;Node3</title>
<path fill="none" stroke="#191970" d="M252.3405,-220.4179C234.5858,-211.6205 207.4385,-198.1691 187.1083,-188.0956"/>
<polygon fill="#191970" stroke="#191970" points="188.5409,-184.8994 178.0265,-183.5956 185.433,-191.1716 188.5409,-184.8994"/>
</g>
<!-- Node4 -->
<g id="node5" class="node">
<title>Node4</title>
<polygon fill="#ffffff" stroke="#bfbfbf" points="194.9434,-55.5 194.9434,-73.5 240.3965,-73.5 240.3965,-55.5 194.9434,-55.5"/>
<text text-anchor="middle" x="217.6699" y="-61.5" font-family="Helvetica,sans-Serif" font-size="10.00" fill="#000000">cstring</text>
</g>
<!-- Node0&#45;&gt;Node4 -->
<g id="edge4" class="edge">
<title>Node0&#45;&gt;Node4</title>
<path fill="none" stroke="#191970" d="M267.6686,-220.1561C259.2145,-193.837 235.0825,-118.709 223.7224,-83.3426"/>
<polygon fill="#191970" stroke="#191970" points="227.029,-82.1919 220.6384,-73.7414 220.3644,-84.3327 227.029,-82.1919"/>
</g>
<!-- Node5 -->
<g id="node6" class="node">
<title>Node5</title>
<g id="a_node6"><a xlink:href="tcpip__headers_8hpp.xhtml" target="_top" xlink:title="Protocol headers. ">
<polygon fill="#ffffff" stroke="#000000" points="260.5273,-55.5 260.5273,-73.5 358.8125,-73.5 358.8125,-55.5 260.5273,-55.5"/>
<text text-anchor="middle" x="309.6699" y="-61.5" font-family="Helvetica,sans-Serif" font-size="10.00" fill="#000000">tcpip_headers.hpp</text>
</a>
</g>
</g>
<!-- Node0&#45;&gt;Node5 -->
<g id="edge5" class="edge">
<title>Node0&#45;&gt;Node5</title>
<path fill="none" stroke="#191970" d="M268.6033,-220.4335C264.3717,-199.9626 256.2741,-148.9157 270.6699,-110 274.7849,-98.8762 282.9688,-88.6367 290.7817,-80.6998"/>
<polygon fill="#191970" stroke="#191970" points="293.4462,-82.9973 298.3066,-73.5831 288.6362,-77.9116 293.4462,-82.9973"/>
</g>
<!-- Node7 -->
<g id="node8" class="node">
<title>Node7</title>
<g id="a_node8"><a xlink:href="netflow_8hpp.xhtml" target="_top" xlink:title="Netflow structure header file. ">
<polygon fill="#ffffff" stroke="#000000" points="279.3696,-110.5 279.3696,-128.5 345.9702,-128.5 345.9702,-110.5 279.3696,-110.5"/>
<text text-anchor="middle" x="312.6699" y="-116.5" font-family="Helvetica,sans-Serif" font-size="10.00" fill="#000000">netflow.hpp</text>
</a>
</g>
</g>
<!-- Node0&#45;&gt;Node7 -->
<g id="edge7" class="edge">
<title>Node0&#45;&gt;Node7</title>
<path fill="none" stroke="#191970" d="M274.107,-220.4982C280.9675,-202.5302 296.4826,-161.8954 305.6045,-138.0046"/>
<polygon fill="#191970" stroke="#191970" points="308.8881,-139.2168 309.1854,-128.6261 302.3485,-136.7199 308.8881,-139.2168"/>
</g>
<!-- Node9 -->
<g id="node10" class="node">
<title>Node9</title>
<g id="a_node10"><a xlink:href="cache_8hpp.xhtml" target="_top" xlink:title="Cache implementation header file. ">
<polygon fill="#ffffff" stroke="#000000" points="435.5962,-165.5 435.5962,-183.5 497.7437,-183.5 497.7437,-165.5 435.5962,-165.5"/>
<text text-anchor="middle" x="466.6699" y="-171.5" font-family="Helvetica,sans-Serif" font-size="10.00" fill="#000000">cache.hpp</text>
</a>
</g>
</g>
<!-- Node0&#45;&gt;Node9 -->
<g id="edge11" class="edge">
<title>Node0&#45;&gt;Node9</title>
<path fill="none" stroke="#191970" d="M303.0353,-220.4179C336.6277,-210.9915 389.2619,-196.2216 425.7256,-185.9895"/>
<polygon fill="#191970" stroke="#191970" points="426.8698,-189.3037 435.5522,-183.232 424.9785,-182.564 426.8698,-189.3037"/>
</g>
<!-- Node13 -->
<g id="node14" class="node">
<title>Node13</title>
<g id="a_node14"><a xlink:href="debug_8hpp.xhtml" target="_top" xlink:title="Debugging functions. ">
<polygon fill="#ffffff" stroke="#000000" points="910.0347,-165.5 910.0347,-183.5 973.3052,-183.5 973.3052,-165.5 910.0347,-165.5"/>
<text text-anchor="middle" x="941.6699" y="-171.5" font-family="Helvetica,sans-Serif" font-size="10.00" fill="#000000">debug.hpp</text>
</a>
</g>
</g>
<!-- Node0&#45;&gt;Node13 -->
<g id="edge17" class="edge">
<title>Node0&#45;&gt;Node13</title>
<path fill="none" stroke="#191970" d="M317.3206,-225.6762C441.8065,-215.4724 780.4646,-187.7136 899.5603,-177.9516"/>
<polygon fill="#191970" stroke="#191970" points="900.0511,-181.4232 909.7317,-177.1179 899.4791,-174.4466 900.0511,-181.4232"/>
</g>
<!-- Node16 -->
<g id="node17" class="node">
<title>Node16</title>
<g id="a_node17"><a xlink:href="utils_8hpp.xhtml" target="_top" xlink:title="Small useful functions header file. ">
<polygon fill="#ffffff" stroke="#000000" points="710.0469,-165.5 710.0469,-183.5 763.293,-183.5 763.293,-165.5 710.0469,-165.5"/>
<text text-anchor="middle" x="736.6699" y="-171.5" font-family="Helvetica,sans-Serif" font-size="10.00" fill="#000000">utils.hpp</text>
</a>
</g>
</g>
<!-- Node0&#45;&gt;Node16 -->
<g id="edge20" class="edge">
<title>Node0&#45;&gt;Node16</title>
<path fill="none" stroke="#191970" d="M317.4854,-223.9746C410.2255,-213.0289 615.5782,-188.7919 699.6694,-178.867"/>
<polygon fill="#191970" stroke="#191970" points="700.2546,-182.3223 709.7754,-177.6743 699.434,-175.3706 700.2546,-182.3223"/>
</g>
<!-- Node20 -->
<g id="node21" class="node">
<title>Node20</title>
<g id="a_node21"><a xlink:href="tool__linux_8hpp.xhtml" target="_top" xlink:title="Determining applications and their sockets on Linux. ">
<polygon fill="#ffffff" stroke="#000000" points="317.813,-165.5 317.813,-183.5 395.5269,-183.5 395.5269,-165.5 317.813,-165.5"/>
<text text-anchor="middle" x="356.6699" y="-171.5" font-family="Helvetica,sans-Serif" font-size="10.00" fill="#000000">tool_linux.hpp</text>
</a>
</g>
</g>
<!-- Node0&#45;&gt;Node20 -->
<g id="edge25" class="edge">
<title>Node0&#45;&gt;Node20</title>
<path fill="none" stroke="#191970" d="M284.8711,-220.4179C298.1912,-211.8992 318.3349,-199.0166 333.8991,-189.0627"/>
<polygon fill="#191970" stroke="#191970" points="335.9089,-191.932 342.4477,-183.5956 332.1374,-186.0348 335.9089,-191.932"/>
</g>
<!-- Node6 -->
<g id="node7" class="node">
<title>Node6</title>
<polygon fill="#ffffff" stroke="#bfbfbf" points="285.5493,-.5 285.5493,-18.5 333.7905,-18.5 333.7905,-.5 285.5493,-.5"/>
<text text-anchor="middle" x="309.6699" y="-6.5" font-family="Helvetica,sans-Serif" font-size="10.00" fill="#000000">stdint.h</text>
</g>
<!-- Node5&#45;&gt;Node6 -->
<g id="edge6" class="edge">
<title>Node5&#45;&gt;Node6</title>
<path fill="none" stroke="#191970" d="M309.6699,-55.4179C309.6699,-48.2164 309.6699,-37.8962 309.6699,-28.8632"/>
<polygon fill="#191970" stroke="#191970" points="313.17,-28.7794 309.6699,-18.7795 306.17,-28.7795 313.17,-28.7794"/>
</g>
<!-- Node7&#45;&gt;Node4 -->
<g id="edge9" class="edge">
<title>Node7&#45;&gt;Node4</title>
<path fill="none" stroke="#191970" d="M296.9826,-110.4179C282.1309,-101.8195 259.6001,-88.7754 242.343,-78.7844"/>
<polygon fill="#191970" stroke="#191970" points="243.7885,-75.577 233.3805,-73.5956 240.2812,-81.635 243.7885,-75.577"/>
</g>
<!-- Node7&#45;&gt;Node5 -->
<g id="edge10" class="edge">
<title>Node7&#45;&gt;Node5</title>
<path fill="none" stroke="#191970" d="M312.1745,-110.4179C311.7817,-103.2164 311.2188,-92.8962 310.7261,-83.8632"/>
<polygon fill="#191970" stroke="#191970" points="314.2156,-83.574 310.1761,-73.7795 307.226,-83.9553 314.2156,-83.574"/>
</g>
<!-- Node8 -->
<g id="node9" class="node">
<title>Node8</title>
<polygon fill="#ffffff" stroke="#bfbfbf" points="498.4434,-55.5 498.4434,-73.5 538.8965,-73.5 538.8965,-55.5 498.4434,-55.5"/>
<text text-anchor="middle" x="518.6699" y="-61.5" font-family="Helvetica,sans-Serif" font-size="10.00" fill="#000000">string</text>
</g>
<!-- Node7&#45;&gt;Node8 -->
<g id="edge8" class="edge">
<title>Node7&#45;&gt;Node8</title>
<path fill="none" stroke="#191970" d="M346.2259,-110.5409C385.6177,-100.0237 450.375,-82.7341 488.3236,-72.6022"/>
<polygon fill="#191970" stroke="#191970" points="489.5141,-75.907 498.2728,-69.9458 487.7084,-69.1439 489.5141,-75.907"/>
</g>
<!-- Node9&#45;&gt;Node7 -->
<g id="edge16" class="edge">
<title>Node9&#45;&gt;Node7</title>
<path fill="none" stroke="#191970" d="M441.24,-165.4179C415.6392,-156.2748 375.9628,-142.1046 347.4572,-131.924"/>
<polygon fill="#191970" stroke="#191970" points="348.4763,-128.5715 337.8817,-128.5042 346.1219,-135.1637 348.4763,-128.5715"/>
</g>
<!-- Node9&#45;&gt;Node8 -->
<g id="edge12" class="edge">
<title>Node9&#45;&gt;Node8</title>
<path fill="none" stroke="#191970" d="M497.789,-169.8817C538.8495,-163.0786 607.6895,-148.974 622.6699,-129 645.1586,-99.0151 587.2648,-79.7265 549.0949,-70.6315"/>
<polygon fill="#191970" stroke="#191970" points="549.4608,-67.126 538.9353,-68.3361 547.9181,-73.9539 549.4608,-67.126"/>
</g>
<!-- Node10 -->
<g id="node11" class="node">
<title>Node10</title>
<polygon fill="#ffffff" stroke="#bfbfbf" points="466.0542,-110.5 466.0542,-128.5 509.2856,-128.5 509.2856,-110.5 466.0542,-110.5"/>
<text text-anchor="middle" x="487.6699" y="-116.5" font-family="Helvetica,sans-Serif" font-size="10.00" fill="#000000">vector</text>
</g>
<!-- Node9&#45;&gt;Node10 -->
<g id="edge13" class="edge">
<title>Node9&#45;&gt;Node10</title>
<path fill="none" stroke="#191970" d="M470.1376,-165.4179C472.9477,-158.0581 477.0015,-147.441 480.5034,-138.2695"/>
<polygon fill="#191970" stroke="#191970" points="483.8295,-139.3701 484.1269,-128.7795 477.29,-136.8732 483.8295,-139.3701"/>
</g>
<!-- Node11 -->
<g id="node12" class="node">
<title>Node11</title>
<polygon fill="#ffffff" stroke="#bfbfbf" points="527.3672,-110.5 527.3672,-128.5 613.9727,-128.5 613.9727,-110.5 527.3672,-110.5"/>
<text text-anchor="middle" x="570.6699" y="-116.5" font-family="Helvetica,sans-Serif" font-size="10.00" fill="#000000">unordered_map</text>
</g>
<!-- Node9&#45;&gt;Node11 -->
<g id="edge14" class="edge">
<title>Node9&#45;&gt;Node11</title>
<path fill="none" stroke="#191970" d="M483.8434,-165.4179C500.3279,-156.7001 525.4542,-143.4122 544.4432,-133.3699"/>
<polygon fill="#191970" stroke="#191970" points="546.2672,-136.3646 553.4709,-128.5956 542.9947,-130.1767 546.2672,-136.3646"/>
</g>
<!-- Node12 -->
<g id="node13" class="node">
<title>Node12</title>
<polygon fill="#ffffff" stroke="#bfbfbf" points="401.3818,-110.5 401.3818,-128.5 447.958,-128.5 447.958,-110.5 401.3818,-110.5"/>
<text text-anchor="middle" x="424.6699" y="-116.5" font-family="Helvetica,sans-Serif" font-size="10.00" fill="#000000">chrono</text>
</g>
<!-- Node9&#45;&gt;Node12 -->
<g id="edge15" class="edge">
<title>Node9&#45;&gt;Node12</title>
<path fill="none" stroke="#191970" d="M459.7345,-165.4179C453.8121,-157.6624 445.1277,-146.29 437.8835,-136.8035"/>
<polygon fill="#191970" stroke="#191970" points="440.6069,-134.6029 431.7561,-128.7795 435.0435,-138.8514 440.6069,-134.6029"/>
</g>
<!-- Node14 -->
<g id="node15" class="node">
<title>Node14</title>
<polygon fill="#ffffff" stroke="#bfbfbf" points="914.4976,-110.5 914.4976,-128.5 968.8423,-128.5 968.8423,-110.5 914.4976,-110.5"/>
<text text-anchor="middle" x="941.6699" y="-116.5" font-family="Helvetica,sans-Serif" font-size="10.00" fill="#000000">iostream</text>
</g>
<!-- Node13&#45;&gt;Node14 -->
<g id="edge18" class="edge">
<title>Node13&#45;&gt;Node14</title>
<path fill="none" stroke="#191970" d="M941.6699,-165.4179C941.6699,-158.2164 941.6699,-147.8962 941.6699,-138.8632"/>
<polygon fill="#191970" stroke="#191970" points="945.17,-138.7794 941.6699,-128.7795 938.17,-138.7795 945.17,-138.7794"/>
</g>
<!-- Node15 -->
<g id="node16" class="node">
<title>Node15</title>
<polygon fill="#ffffff" stroke="#bfbfbf" points="987.0542,-110.5 987.0542,-128.5 1030.2856,-128.5 1030.2856,-110.5 987.0542,-110.5"/>
<text text-anchor="middle" x="1008.6699" y="-116.5" font-family="Helvetica,sans-Serif" font-size="10.00" fill="#000000">mutex</text>
</g>
<!-- Node13&#45;&gt;Node15 -->
<g id="edge19" class="edge">
<title>Node13&#45;&gt;Node15</title>
<path fill="none" stroke="#191970" d="M952.7336,-165.4179C962.6632,-157.2667 977.4599,-145.1201 989.3411,-135.3669"/>
<polygon fill="#191970" stroke="#191970" points="991.8573,-137.8297 997.3659,-128.7795 987.4158,-132.4192 991.8573,-137.8297"/>
</g>
<!-- Node16&#45;&gt;Node8 -->
<g id="edge22" class="edge">
<title>Node16&#45;&gt;Node8</title>
<path fill="none" stroke="#191970" d="M724.9609,-165.4314C707.2502,-152.0186 672.2513,-126.6834 639.6699,-110 609.8223,-94.7164 573.5976,-81.7739 548.6072,-73.6461"/>
<polygon fill="#191970" stroke="#191970" points="549.5545,-70.2745 538.9637,-70.5672 547.4254,-76.9429 549.5545,-70.2745"/>
</g>
<!-- Node17 -->
<g id="node18" class="node">
<title>Node17</title>
<polygon fill="#ffffff" stroke="#bfbfbf" points="707.2661,-110.5 707.2661,-128.5 766.0737,-128.5 766.0737,-110.5 707.2661,-110.5"/>
<text text-anchor="middle" x="736.6699" y="-116.5" font-family="Helvetica,sans-Serif" font-size="10.00" fill="#000000">exception</text>
</g>
<!-- Node16&#45;&gt;Node17 -->
<g id="edge21" class="edge">
<title>Node16&#45;&gt;Node17</title>
<path fill="none" stroke="#191970" d="M736.6699,-165.4179C736.6699,-158.2164 736.6699,-147.8962 736.6699,-138.8632"/>
<polygon fill="#191970" stroke="#191970" points="740.17,-138.7794 736.6699,-128.7795 733.17,-138.7795 740.17,-138.7794"/>
</g>
<!-- Node18 -->
<g id="node19" class="node">
<title>Node18</title>
<polygon fill="#ffffff" stroke="#bfbfbf" points="784.4976,-110.5 784.4976,-128.5 828.8423,-128.5 828.8423,-110.5 784.4976,-110.5"/>
<text text-anchor="middle" x="806.6699" y="-116.5" font-family="Helvetica,sans-Serif" font-size="10.00" fill="#000000">cerrno</text>
</g>
<!-- Node16&#45;&gt;Node18 -->
<g id="edge23" class="edge">
<title>Node16&#45;&gt;Node18</title>
<path fill="none" stroke="#191970" d="M748.229,-165.4179C758.7039,-157.1876 774.3631,-144.8839 786.8363,-135.0836"/>
<polygon fill="#191970" stroke="#191970" points="789.1589,-137.7098 794.8597,-128.7795 784.8341,-132.2056 789.1589,-137.7098"/>
</g>
<!-- Node19 -->
<g id="node20" class="node">
<title>Node19</title>
<g id="a_node20"><a xlink:href="utils_8tpp.xhtml" target="_top" xlink:title="Small useful templated functions. ">
<polygon fill="#ffffff" stroke="#000000" points="846.4385,-110.5 846.4385,-128.5 896.9014,-128.5 896.9014,-110.5 846.4385,-110.5"/>
<text text-anchor="middle" x="871.6699" y="-116.5" font-family="Helvetica,sans-Serif" font-size="10.00" fill="#000000">utils.tpp</text>
</a>
</g>
</g>
<!-- Node16&#45;&gt;Node19 -->
<g id="edge24" class="edge">
<title>Node16&#45;&gt;Node19</title>
<path fill="none" stroke="#191970" d="M758.9624,-165.4179C781.0445,-156.4215 815.0729,-142.5581 839.9642,-132.4172"/>
<polygon fill="#191970" stroke="#191970" points="841.4039,-135.61 849.3443,-128.5956 838.7628,-129.1273 841.4039,-135.61"/>
</g>
<!-- Node20&#45;&gt;Node7 -->
<g id="edge27" class="edge">
<title>Node20&#45;&gt;Node7</title>
<path fill="none" stroke="#191970" d="M349.4042,-165.4179C343.1998,-157.6624 334.1019,-146.29 326.5127,-136.8035"/>
<polygon fill="#191970" stroke="#191970" points="329.0735,-134.4017 320.0935,-128.7795 323.6074,-138.7746 329.0735,-134.4017"/>
</g>
<!-- Node20&#45;&gt;Node8 -->
<g id="edge26" class="edge">
<title>Node20&#45;&gt;Node8</title>
<path fill="none" stroke="#191970" d="M359.4959,-165.235C364.1901,-151.3356 374.881,-125.1095 392.6699,-110 420.1769,-86.6362 460.6323,-74.8788 488.2319,-69.2416"/>
<polygon fill="#191970" stroke="#191970" points="488.9516,-72.6677 498.1265,-67.3694 487.6501,-65.7897 488.9516,-72.6677"/>
</g>
</g>
</svg>
