<?xml version="1.0" encoding="UTF-8" standalone="no"?>
<!DOCTYPE svg PUBLIC "-//W3C//DTD SVG 1.1//EN"
 "http://www.w3.org/Graphics/SVG/1.1/DTD/svg11.dtd">
<!-- Generated by graphviz version 2.40.1 (20161225.0304)
 -->
<!-- Title: src/utils.hpp Pages: 1 -->
<svg width="599pt" height="82pt"
 viewBox="0.00 0.00 599.24 82.00" xmlns="http://www.w3.org/2000/svg" xmlns:xlink="http://www.w3.org/1999/xlink">
<g id="graph0" class="graph" transform="scale(1 1) rotate(0) translate(4 78)">
<title>src/utils.hpp</title>
<polygon fill="#ffffff" stroke="transparent" points="-4,4 -4,-78 595.2437,-78 595.2437,4 -4,4"/>
<!-- Node5 -->
<g id="node1" class="node">
<title>Node5</title>
<polygon fill="#bfbfbf" stroke="#000000" points="265.1699,-55.5 265.1699,-73.5 334.5244,-73.5 334.5244,-55.5 265.1699,-55.5"/>
<text text-anchor="middle" x="299.8472" y="-61.5" font-family="Helvetica,sans-Serif" font-size="10.00" fill="#000000">src/utils.hpp</text>
</g>
<!-- Node6 -->
<g id="node2" class="node">
<title>Node6</title>
<g id="a_node2"><a xlink:href="cache_8cpp.xhtml" target="_top" xlink:title="Cache implementation sources. ">
<polygon fill="#ffffff" stroke="#000000" points="0,-.5 0,-18.5 77.6943,-18.5 77.6943,-.5 0,-.5"/>
<text text-anchor="middle" x="38.8472" y="-6.5" font-family="Helvetica,sans-Serif" font-size="10.00" fill="#000000">src/cache.cpp</text>
</a>
</g>
</g>
<!-- Node5&#45;&gt;Node6 -->
<g id="edge1" class="edge">
<title>Node5&#45;&gt;Node6</title>
<path fill="none" stroke="#191970" d="M255.05,-55.06C205.1384,-44.5422 125.2426,-27.7059 77.8212,-17.7129"/>
<polygon fill="#191970" stroke="#191970" points="254.4115,-58.5022 264.9184,-57.1395 255.855,-51.6527 254.4115,-58.5022"/>
</g>
<!-- Node7 -->
<g id="node3" class="node">
<title>Node7</title>
<g id="a_node3"><a xlink:href="capturing_8cpp.xhtml" target="_top" xlink:title="Network traffic capture sources. ">
<polygon fill="#ffffff" stroke="#000000" points="95.7734,-.5 95.7734,-18.5 187.9209,-18.5 187.9209,-.5 95.7734,-.5"/>
<text text-anchor="middle" x="141.8472" y="-6.5" font-family="Helvetica,sans-Serif" font-size="10.00" fill="#000000">src/capturing.cpp</text>
</a>
</g>
</g>
<!-- Node5&#45;&gt;Node7 -->
<g id="edge2" class="edge">
<title>Node5&#45;&gt;Node7</title>
<path fill="none" stroke="#191970" d="M264.2897,-52.1224C234.9511,-41.9096 194.0114,-27.6584 167.7138,-18.5042"/>
<polygon fill="#191970" stroke="#191970" points="263.1619,-55.4357 273.7567,-55.4179 265.4632,-48.8248 263.1619,-55.4357"/>
</g>
<!-- Node8 -->
<g id="node4" class="node">
<title>Node8</title>
<g id="a_node4"><a xlink:href="netflow_8cpp.xhtml" target="_top" xlink:title="Netflow structure source file. ">
<polygon fill="#ffffff" stroke="#000000" points="205.7734,-.5 205.7734,-18.5 287.9209,-18.5 287.9209,-.5 205.7734,-.5"/>
<text text-anchor="middle" x="246.8472" y="-6.5" font-family="Helvetica,sans-Serif" font-size="10.00" fill="#000000">src/netflow.cpp</text>
</a>
</g>
</g>
<!-- Node5&#45;&gt;Node8 -->
<g id="edge3" class="edge">
<title>Node5&#45;&gt;Node8</title>
<path fill="none" stroke="#191970" d="M283.9596,-48.0129C274.743,-38.4485 263.4749,-26.7552 255.7892,-18.7795"/>
<polygon fill="#191970" stroke="#191970" points="281.6361,-50.6457 291.0953,-55.4179 286.6766,-45.7884 281.6361,-50.6457"/>
</g>
<!-- Node9 -->
<g id="node5" class="node">
<title>Node9</title>
<g id="a_node5"><a xlink:href="tool__linux_8cpp.xhtml" target="_top" xlink:title="Determining applications and their sockets in Linux. ">
<polygon fill="#ffffff" stroke="#000000" points="306.2168,-.5 306.2168,-18.5 399.4775,-18.5 399.4775,-.5 306.2168,-.5"/>
<text text-anchor="middle" x="352.8472" y="-6.5" font-family="Helvetica,sans-Serif" font-size="10.00" fill="#000000">src/tool_linux.cpp</text>
</a>
</g>
</g>
<!-- Node5&#45;&gt;Node9 -->
<g id="edge4" class="edge">
<title>Node5&#45;&gt;Node9</title>
<path fill="none" stroke="#191970" d="M315.7347,-48.0129C324.9513,-38.4485 336.2195,-26.7552 343.9051,-18.7795"/>
<polygon fill="#191970" stroke="#191970" points="313.0177,-45.7884 308.599,-55.4179 318.0583,-50.6457 313.0177,-45.7884"/>
</g>
<!-- Node10 -->
<g id="node6" class="node">
<title>Node10</title>
<g id="a_node6"><a xlink:href="tool__win_8cpp.xhtml" target="_top" xlink:title="Determining the applications and their sockets on Windows. ">
<polygon fill="#ffffff" stroke="#000000" points="416.9976,-.5 416.9976,-18.5 504.6968,-18.5 504.6968,-.5 416.9976,-.5"/>
<text text-anchor="middle" x="460.8472" y="-6.5" font-family="Helvetica,sans-Serif" font-size="10.00" fill="#000000">src/tool_win.cpp</text>
</a>
</g>
</g>
<!-- Node5&#45;&gt;Node10 -->
<g id="edge5" class="edge">
<title>Node5&#45;&gt;Node10</title>
<path fill="none" stroke="#191970" d="M336.0798,-52.1224C365.9754,-41.9096 407.6924,-27.6584 434.4894,-18.5042"/>
<polygon fill="#191970" stroke="#191970" points="334.7646,-48.873 326.433,-55.4179 337.0276,-55.4972 334.7646,-48.873"/>
</g>
<!-- Node11 -->
<g id="node7" class="node">
<title>Node11</title>
<g id="a_node7"><a xlink:href="utils_8cpp.xhtml" target="_top" xlink:title="Small useful functions. ">
<polygon fill="#ffffff" stroke="#000000" points="522.4507,-.5 522.4507,-18.5 591.2437,-18.5 591.2437,-.5 522.4507,-.5"/>
<text text-anchor="middle" x="556.8472" y="-6.5" font-family="Helvetica,sans-Serif" font-size="10.00" fill="#000000">src/utils.cpp</text>
</a>
</g>
</g>
<!-- Node5&#45;&gt;Node11 -->
<g id="edge6" class="edge">
<title>Node5&#45;&gt;Node11</title>
<path fill="none" stroke="#191970" d="M344.6419,-55.0839C387.9546,-45.9538 455.4249,-31.6642 513.8472,-19 516.537,-18.4169 519.3207,-17.81 522.1186,-17.1974"/>
<polygon fill="#191970" stroke="#191970" points="343.7715,-51.6904 334.7079,-57.1768 345.2146,-58.54 343.7715,-51.6904"/>
</g>
</g>
</svg>
