<?xml version="1.0" encoding="UTF-8" standalone="no"?>
<!DOCTYPE svg PUBLIC "-//W3C//DTD SVG 1.1//EN"
 "http://www.w3.org/Graphics/SVG/1.1/DTD/svg11.dtd">
<!-- Generated by graphviz version 2.40.1 (20161225.0304)
 -->
<!-- Title: src/utils.hpp Pages: 1 -->
<svg width="628pt" height="82pt"
 viewBox="0.00 0.00 628.24 82.00" xmlns="http://www.w3.org/2000/svg" xmlns:xlink="http://www.w3.org/1999/xlink">
<g id="graph0" class="graph" transform="scale(1 1) rotate(0) translate(4 78)">
<title>src/utils.hpp</title>
<polygon fill="#ffffff" stroke="transparent" points="-4,4 -4,-78 624.2437,-78 624.2437,4 -4,4"/>
<!-- Node5 -->
<g id="node1" class="node">
<title>Node5</title>
<polygon fill="#bfbfbf" stroke="#000000" points="286.1699,-55.5 286.1699,-73.5 355.5244,-73.5 355.5244,-55.5 286.1699,-55.5"/>
<text text-anchor="middle" x="320.8472" y="-61.5" font-family="Helvetica,sans-Serif" font-size="10.00" fill="#000000">src/utils.hpp</text>
</g>
<!-- Node6 -->
<g id="node2" class="node">
<title>Node6</title>
<g id="a_node2"><a xlink:href="cache_8cpp.xhtml" target="_top" xlink:title="Cache implementation sources. ">
<polygon fill="#ffffff" stroke="#000000" points="0,-.5 0,-18.5 77.6943,-18.5 77.6943,-.5 0,-.5"/>
<text text-anchor="middle" x="38.8472" y="-6.5" font-family="Helvetica,sans-Serif" font-size="10.00" fill="#000000">src/cache.cpp</text>
</a>
</g>
</g>
<!-- Node5&#45;&gt;Node6 -->
<g id="edge1" class="edge">
<title>Node5&#45;&gt;Node6</title>
<path fill="none" stroke="#191970" d="M276.0711,-55.8397C228.9674,-46.7183 152.681,-31.9153 86.8472,-19 83.9295,-18.4276 80.9125,-17.8342 77.8777,-17.2361"/>
<polygon fill="#191970" stroke="#191970" points="275.4698,-59.2882 285.9528,-57.7527 276.8004,-52.4158 275.4698,-59.2882"/>
</g>
<!-- Node7 -->
<g id="node3" class="node">
<title>Node7</title>
<g id="a_node3"><a xlink:href="capturing_8cpp.xhtml" target="_top" xlink:title="Network traffic capture sources. ">
<polygon fill="#ffffff" stroke="#000000" points="95.7734,-.5 95.7734,-18.5 187.9209,-18.5 187.9209,-.5 95.7734,-.5"/>
<text text-anchor="middle" x="141.8472" y="-6.5" font-family="Helvetica,sans-Serif" font-size="10.00" fill="#000000">src/capturing.cpp</text>
</a>
</g>
</g>
<!-- Node5&#45;&gt;Node7 -->
<g id="edge2" class="edge">
<title>Node5&#45;&gt;Node7</title>
<path fill="none" stroke="#191970" d="M281.4278,-52.3879C248.1336,-42.1578 201.2037,-27.7381 171.1518,-18.5042"/>
<polygon fill="#191970" stroke="#191970" points="280.702,-55.8263 291.289,-55.4179 282.758,-49.1351 280.702,-55.8263"/>
</g>
<!-- Node8 -->
<g id="node4" class="node">
<title>Node8</title>
<g id="a_node4"><a xlink:href="namon__linux_8cpp.xhtml" target="_top" xlink:title="Determining applications and their sockets in Linux. ">
<polygon fill="#ffffff" stroke="#000000" points="205.9902,-.5 205.9902,-18.5 313.7041,-18.5 313.7041,-.5 205.9902,-.5"/>
<text text-anchor="middle" x="259.8472" y="-6.5" font-family="Helvetica,sans-Serif" font-size="10.00" fill="#000000">src/namon_linux.cpp</text>
</a>
</g>
</g>
<!-- Node5&#45;&gt;Node8 -->
<g id="edge3" class="edge">
<title>Node5&#45;&gt;Node8</title>
<path fill="none" stroke="#191970" d="M303.195,-48.5841C292.4741,-38.9177 279.1616,-26.9147 270.1389,-18.7795"/>
<polygon fill="#191970" stroke="#191970" points="301.0036,-51.3209 310.7743,-55.4179 305.6911,-46.122 301.0036,-51.3209"/>
</g>
<!-- Node9 -->
<g id="node5" class="node">
<title>Node9</title>
<g id="a_node5"><a xlink:href="namon__win_8cpp.xhtml" target="_top" xlink:title="Determining the applications and their sockets on Windows. ">
<polygon fill="#ffffff" stroke="#000000" points="331.771,-.5 331.771,-18.5 433.9233,-18.5 433.9233,-.5 331.771,-.5"/>
<text text-anchor="middle" x="382.8472" y="-6.5" font-family="Helvetica,sans-Serif" font-size="10.00" fill="#000000">src/namon_win.cpp</text>
</a>
</g>
</g>
<!-- Node5&#45;&gt;Node9 -->
<g id="edge4" class="edge">
<title>Node5&#45;&gt;Node9</title>
<path fill="none" stroke="#191970" d="M338.7887,-48.5841C349.6853,-38.9177 363.2161,-26.9147 372.3867,-18.7795"/>
<polygon fill="#191970" stroke="#191970" points="336.2433,-46.1634 331.0852,-55.4179 340.8886,-51.4 336.2433,-46.1634"/>
</g>
<!-- Node10 -->
<g id="node6" class="node">
<title>Node10</title>
<g id="a_node6"><a xlink:href="netflow_8cpp.xhtml" target="_top" xlink:title="Netflow structure source file. ">
<polygon fill="#ffffff" stroke="#000000" points="451.7734,-.5 451.7734,-18.5 533.9209,-18.5 533.9209,-.5 451.7734,-.5"/>
<text text-anchor="middle" x="492.8472" y="-6.5" font-family="Helvetica,sans-Serif" font-size="10.00" fill="#000000">src/netflow.cpp</text>
</a>
</g>
</g>
<!-- Node5&#45;&gt;Node10 -->
<g id="edge5" class="edge">
<title>Node5&#45;&gt;Node10</title>
<path fill="none" stroke="#191970" d="M359.1394,-52.2554C391.1056,-42.0336 435.9363,-27.6983 464.6885,-18.5042"/>
<polygon fill="#191970" stroke="#191970" points="357.7083,-49.0383 349.2495,-55.4179 359.8404,-55.7058 357.7083,-49.0383"/>
</g>
<!-- Node11 -->
<g id="node7" class="node">
<title>Node11</title>
<g id="a_node7"><a xlink:href="utils_8cpp.xhtml" target="_top" xlink:title="Small useful functions. ">
<polygon fill="#ffffff" stroke="#000000" points="551.4507,-.5 551.4507,-18.5 620.2437,-18.5 620.2437,-.5 551.4507,-.5"/>
<text text-anchor="middle" x="585.8472" y="-6.5" font-family="Helvetica,sans-Serif" font-size="10.00" fill="#000000">src/utils.cpp</text>
</a>
</g>
</g>
<!-- Node5&#45;&gt;Node11 -->
<g id="edge6" class="edge">
<title>Node5&#45;&gt;Node11</title>
<path fill="none" stroke="#191970" d="M365.8689,-55.4824C410.7486,-46.4439 481.6227,-32.0365 542.8472,-19 545.5391,-18.4268 548.3243,-17.827 551.1233,-17.2193"/>
<polygon fill="#191970" stroke="#191970" points="364.9845,-52.0901 355.8713,-57.4937 366.3652,-58.9526 364.9845,-52.0901"/>
</g>
</g>
</svg>
