<?xml version="1.0" encoding="UTF-8" standalone="no"?>
<!DOCTYPE svg PUBLIC "-//W3C//DTD SVG 1.1//EN"
 "http://www.w3.org/Graphics/SVG/1.1/DTD/svg11.dtd">
<!-- Generated by graphviz version 2.40.1 (20161225.0304)
 -->
<!-- Title: NAMON::chToInt Pages: 1 -->
<svg width="225pt" height="45pt"
 viewBox="0.00 0.00 225.49 45.00" xmlns="http://www.w3.org/2000/svg" xmlns:xlink="http://www.w3.org/1999/xlink">
<g id="graph0" class="graph" transform="scale(1 1) rotate(0) translate(4 41)">
<title>NAMON::chToInt</title>
<polygon fill="#ffffff" stroke="transparent" points="-4,4 -4,-41 221.4922,-41 221.4922,4 -4,4"/>
<!-- Node1 -->
<g id="node1" class="node">
<title>Node1</title>
<polygon fill="#bfbfbf" stroke="#000000" points="0,-.5 0,-18.5 91.0195,-18.5 91.0195,-.5 0,-.5"/>
<text text-anchor="middle" x="45.5098" y="-6.5" font-family="Helvetica,sans-Serif" font-size="10.00" fill="#000000">NAMON::chToInt</text>
</g>
<!-- Node1&#45;&gt;Node1 -->
<g id="edge2" class="edge">
<title>Node1&#45;&gt;Node1</title>
<path fill="none" stroke="#191970" d="M21.9356,-27.477C22.6323,-32.832 30.4904,-37 45.5098,-37 68.3965,-37 74.6546,-27.322 64.284,-18.5134"/>
<polygon fill="#191970" stroke="#191970" points="25.1003,-28.9813 26.7355,-18.5134 18.9293,-25.6768 25.1003,-28.9813"/>
</g>
<!-- Node2 -->
<g id="node2" class="node">
<title>Node2</title>
<g id="a_node2"><a xlink:href="namon__linux_8cpp.xhtml#af8138eb0e99de9e8740d0b93c935a759" target="_top" xlink:title="NAMON::getApp">
<polygon fill="#ffffff" stroke="#000000" points="127.0195,-.5 127.0195,-18.5 217.4922,-18.5 217.4922,-.5 127.0195,-.5"/>
<text text-anchor="middle" x="172.2559" y="-6.5" font-family="Helvetica,sans-Serif" font-size="10.00" fill="#000000">NAMON::getApp</text>
</a>
</g>
</g>
<!-- Node1&#45;&gt;Node2 -->
<g id="edge1" class="edge">
<title>Node1&#45;&gt;Node2</title>
<path fill="none" stroke="#191970" d="M101.5258,-9.5C110.043,-9.5 118.7398,-9.5 126.9897,-9.5"/>
<polygon fill="#191970" stroke="#191970" points="101.268,-6.0001 91.268,-9.5 101.268,-13.0001 101.268,-6.0001"/>
</g>
</g>
</svg>
