<?xml version="1.0" encoding="UTF-8" standalone="no"?>
<!DOCTYPE svg PUBLIC "-//W3C//DTD SVG 1.1//EN"
 "http://www.w3.org/Graphics/SVG/1.1/DTD/svg11.dtd">
<!-- Generated by graphviz version 2.40.1 (20161225.0304)
 -->
<!-- Title: src/utils.hpp Pages: 1 -->
<svg width="256pt" height="82pt"
 viewBox="0.00 0.00 255.64 82.00" xmlns="http://www.w3.org/2000/svg" xmlns:xlink="http://www.w3.org/1999/xlink">
<g id="graph0" class="graph" transform="scale(1 1) rotate(0) translate(4 78)">
<title>src/utils.hpp</title>
<polygon fill="#ffffff" stroke="transparent" points="-4,4 -4,-78 251.6353,-78 251.6353,4 -4,4"/>
<!-- Node0 -->
<g id="node1" class="node">
<title>Node0</title>
<polygon fill="#bfbfbf" stroke="#000000" points="92.7266,-55.5 92.7266,-73.5 162.0811,-73.5 162.0811,-55.5 92.7266,-55.5"/>
<text text-anchor="middle" x="127.4038" y="-61.5" font-family="Helvetica,sans-Serif" font-size="10.00" fill="#000000">src/utils.hpp</text>
</g>
<!-- Node1 -->
<g id="node2" class="node">
<title>Node1</title>
<polygon fill="#ffffff" stroke="#bfbfbf" points="0,-.5 0,-18.5 58.8076,-18.5 58.8076,-.5 0,-.5"/>
<text text-anchor="middle" x="29.4038" y="-6.5" font-family="Helvetica,sans-Serif" font-size="10.00" fill="#000000">exception</text>
</g>
<!-- Node0&#45;&gt;Node1 -->
<g id="edge1" class="edge">
<title>Node0&#45;&gt;Node1</title>
<path fill="none" stroke="#191970" d="M111.2211,-55.4179C95.7586,-46.7399 72.227,-33.5334 54.363,-23.5077"/>
<polygon fill="#191970" stroke="#191970" points="56.044,-20.4377 45.6106,-18.5956 52.6181,-26.542 56.044,-20.4377"/>
</g>
<!-- Node2 -->
<g id="node3" class="node">
<title>Node2</title>
<polygon fill="#ffffff" stroke="#bfbfbf" points="77.1772,-.5 77.1772,-18.5 117.6304,-18.5 117.6304,-.5 77.1772,-.5"/>
<text text-anchor="middle" x="97.4038" y="-6.5" font-family="Helvetica,sans-Serif" font-size="10.00" fill="#000000">string</text>
</g>
<!-- Node0&#45;&gt;Node2 -->
<g id="edge2" class="edge">
<title>Node0&#45;&gt;Node2</title>
<path fill="none" stroke="#191970" d="M122.4499,-55.4179C118.3492,-47.8998 112.3945,-36.9829 107.3201,-27.6799"/>
<polygon fill="#191970" stroke="#191970" points="110.3265,-25.8824 102.4653,-18.7795 104.1813,-29.2344 110.3265,-25.8824"/>
</g>
<!-- Node3 -->
<g id="node4" class="node">
<title>Node3</title>
<polygon fill="#ffffff" stroke="#bfbfbf" points="135.2314,-.5 135.2314,-18.5 179.5762,-18.5 179.5762,-.5 135.2314,-.5"/>
<text text-anchor="middle" x="157.4038" y="-6.5" font-family="Helvetica,sans-Serif" font-size="10.00" fill="#000000">cerrno</text>
</g>
<!-- Node0&#45;&gt;Node3 -->
<g id="edge3" class="edge">
<title>Node0&#45;&gt;Node3</title>
<path fill="none" stroke="#191970" d="M132.3577,-55.4179C136.4585,-47.8998 142.4131,-36.9829 147.4875,-27.6799"/>
<polygon fill="#191970" stroke="#191970" points="150.6264,-29.2344 152.3423,-18.7795 144.4811,-25.8824 150.6264,-29.2344"/>
</g>
<!-- Node4 -->
<g id="node5" class="node">
<title>Node4</title>
<g id="a_node5"><a xlink:href="utils_8tpp.xhtml" target="_top" xlink:title="Small useful templated functions. ">
<polygon fill="#ffffff" stroke="#000000" points="197.1724,-.5 197.1724,-18.5 247.6353,-18.5 247.6353,-.5 197.1724,-.5"/>
<text text-anchor="middle" x="222.4038" y="-6.5" font-family="Helvetica,sans-Serif" font-size="10.00" fill="#000000">utils.tpp</text>
</a>
</g>
</g>
<!-- Node0&#45;&gt;Node4 -->
<g id="edge4" class="edge">
<title>Node0&#45;&gt;Node4</title>
<path fill="none" stroke="#191970" d="M143.0911,-55.4179C157.9428,-46.8195 180.4736,-33.7754 197.7307,-23.7844"/>
<polygon fill="#191970" stroke="#191970" points="199.7926,-26.635 206.6932,-18.5956 196.2853,-20.577 199.7926,-26.635"/>
</g>
</g>
</svg>
