<?xml version="1.0" encoding="UTF-8" standalone="no"?>
<!DOCTYPE svg PUBLIC "-//W3C//DTD SVG 1.1//EN"
 "http://www.w3.org/Graphics/SVG/1.1/DTD/svg11.dtd">
<!-- Generated by graphviz version 2.40.1 (20161225.0304)
 -->
<!-- Title: src/utils.cpp Pages: 1 -->
<!--zoomable 137 -->
<svg id="main" version="1.1" xmlns="http://www.w3.org/2000/svg" xmlns:xlink="http://www.w3.org/1999/xlink" xml:space="preserve" onload="init(evt)">
<style type="text/css"><![CDATA[
.edge:hover path { stroke: red; }
.edge:hover polygon { stroke: red; fill: red; }
]]></style>
<script type="text/javascript"><![CDATA[
var edges = document.getElementsByTagName('g');
if (edges && edges.length) {
  for (var i=0;i<edges.length;i++) {
    if (edges[i].id.substr(0,4)=='edge') {
      edges[i].setAttribute('class','edge');
    }
  }
}
]]></script>
        <defs>
                <circle id="rim" cx="0" cy="0" r="7"/>
                <circle id="rim2" cx="0" cy="0" r="3.5"/>
                <g id="zoomPlus">
                        <use xlink:href="#rim" fill="#404040">
                                <set attributeName="fill" to="#808080" begin="zoomplus.mouseover" end="zoomplus.mouseout"/>
                        </use>
                        <path d="M-4,0h8M0,-4v8" fill="none" stroke="white" stroke-width="1.5" pointer-events="none"/>
                </g>
                <g id="zoomMin">
                        <use xlink:href="#rim" fill="#404040">
                                <set attributeName="fill" to="#808080" begin="zoomminus.mouseover" end="zoomminus.mouseout"/>
                        </use>
                        <path d="M-4,0h8" fill="none" stroke="white" stroke-width="1.5" pointer-events="none"/>
                </g>
                <g id="dirArrow">
                        <path fill="none" stroke="white" stroke-width="1.5" d="M0,-3.0v7 M-2.5,-0.5L0,-3.0L2.5,-0.5"/>
                </g>
               <g id="resetDef">
                       <use xlink:href="#rim2" fill="#404040">
                               <set attributeName="fill" to="#808080" begin="reset.mouseover" end="reset.mouseout"/>
                       </use>
               </g>
        </defs>

<script type="text/javascript">
var viewWidth = 526;
var viewHeight = 137;
var sectionId = 'dynsection-0';
</script>
<script xlink:href="svgpan.js"/>
<svg id="graph" class="graph">
<g id="viewport">
<title>src/utils.cpp</title>
<polygon fill="#ffffff" stroke="transparent" points="-4,4 -4,-133 521.6821,-133 521.6821,4 -4,4"/>
<!-- Node0 -->
<g id="node1" class="node">
<title>Node0</title>
<polygon fill="#bfbfbf" stroke="#000000" points="127.0542,-110.5 127.0542,-128.5 195.8472,-128.5 195.8472,-110.5 127.0542,-110.5"/>
<text text-anchor="middle" x="161.4507" y="-116.5" font-family="Helvetica,sans-Serif" font-size="10.00" fill="#000000">src/utils.cpp</text>
</g>
<!-- Node1 -->
<g id="node2" class="node">
<title>Node1</title>
<polygon fill="#ffffff" stroke="#bfbfbf" points="0,-55.5 0,-73.5 44.9014,-73.5 44.9014,-55.5 0,-55.5"/>
<text text-anchor="middle" x="22.4507" y="-61.5" font-family="Helvetica,sans-Serif" font-size="10.00" fill="#000000">cctype</text>
</g>
<!-- Node0&#45;&gt;Node1 -->
<g id="edge1" class="edge">
<title>Node0&#45;&gt;Node1</title>
<path fill="none" stroke="#191970" d="M138.4977,-110.4179C115.5239,-101.3275 79.9918,-87.2681 54.2963,-77.1008"/>
<polygon fill="#191970" stroke="#191970" points="55.5629,-73.838 44.9766,-73.4131 52.9874,-80.347 55.5629,-73.838"/>
</g>
<!-- Node2 -->
<g id="node3" class="node">
<title>Node2</title>
<g id="a_node3"><a xlink:href="tcpip__headers_8hpp.xhtml" target="_top" xlink:title="Protocol headers. ">
<polygon fill="#ffffff" stroke="#000000" points="63.3081,-55.5 63.3081,-73.5 161.5933,-73.5 161.5933,-55.5 63.3081,-55.5"/>
<text text-anchor="middle" x="112.4507" y="-61.5" font-family="Helvetica,sans-Serif" font-size="10.00" fill="#000000">tcpip_headers.hpp</text>
</a>
</g>
</g>
<!-- Node0&#45;&gt;Node2 -->
<g id="edge2" class="edge">
<title>Node0&#45;&gt;Node2</title>
<path fill="none" stroke="#191970" d="M153.3593,-110.4179C146.3794,-102.5833 136.111,-91.0575 127.6083,-81.5137"/>
<polygon fill="#191970" stroke="#191970" points="129.9832,-78.9178 120.7178,-73.7795 124.7566,-83.5743 129.9832,-78.9178"/>
</g>
<!-- Node4 -->
<g id="node5" class="node">
<title>Node4</title>
<g id="a_node5"><a xlink:href="debug_8hpp.xhtml" target="_top" xlink:title="Debugging functions. ">
<polygon fill="#ffffff" stroke="#000000" points="179.8154,-55.5 179.8154,-73.5 243.0859,-73.5 243.0859,-55.5 179.8154,-55.5"/>
<text text-anchor="middle" x="211.4507" y="-61.5" font-family="Helvetica,sans-Serif" font-size="10.00" fill="#000000">debug.hpp</text>
</a>
</g>
</g>
<!-- Node0&#45;&gt;Node4 -->
<g id="edge4" class="edge">
<title>Node0&#45;&gt;Node4</title>
<path fill="none" stroke="#191970" d="M169.7072,-110.4179C176.9015,-102.5041 187.5195,-90.8243 196.2461,-81.2251"/>
<polygon fill="#191970" stroke="#191970" points="198.8779,-83.5332 203.0148,-73.7795 193.6983,-78.8245 198.8779,-83.5332"/>
</g>
<!-- Node7 -->
<g id="node8" class="node">
<title>Node7</title>
<g id="a_node8"><a xlink:href="utils_8hpp.xhtml" target="_top" xlink:title="Small useful functions header file. ">
<polygon fill="#ffffff" stroke="#000000" points="340.8276,-55.5 340.8276,-73.5 394.0737,-73.5 394.0737,-55.5 340.8276,-55.5"/>
<text text-anchor="middle" x="367.4507" y="-61.5" font-family="Helvetica,sans-Serif" font-size="10.00" fill="#000000">utils.hpp</text>
</a>
</g>
</g>
<!-- Node0&#45;&gt;Node7 -->
<g id="edge7" class="edge">
<title>Node0&#45;&gt;Node7</title>
<path fill="none" stroke="#191970" d="M195.4674,-110.4179C232.8127,-100.447 292.55,-84.4977 330.8805,-74.2639"/>
<polygon fill="#191970" stroke="#191970" points="331.8535,-77.6268 340.6123,-71.6656 330.0478,-70.8637 331.8535,-77.6268"/>
</g>
<!-- Node3 -->
<g id="node4" class="node">
<title>Node3</title>
<polygon fill="#ffffff" stroke="#bfbfbf" points="70.3301,-.5 70.3301,-18.5 118.5713,-18.5 118.5713,-.5 70.3301,-.5"/>
<text text-anchor="middle" x="94.4507" y="-6.5" font-family="Helvetica,sans-Serif" font-size="10.00" fill="#000000">stdint.h</text>
</g>
<!-- Node2&#45;&gt;Node3 -->
<g id="edge3" class="edge">
<title>Node2&#45;&gt;Node3</title>
<path fill="none" stroke="#191970" d="M109.4783,-55.4179C107.0956,-48.1372 103.6696,-37.669 100.6904,-28.5659"/>
<polygon fill="#191970" stroke="#191970" points="103.9244,-27.1948 97.4876,-18.7795 97.2717,-29.3721 103.9244,-27.1948"/>
</g>
<!-- Node5 -->
<g id="node6" class="node">
<title>Node5</title>
<polygon fill="#ffffff" stroke="#bfbfbf" points="136.2783,-.5 136.2783,-18.5 190.623,-18.5 190.623,-.5 136.2783,-.5"/>
<text text-anchor="middle" x="163.4507" y="-6.5" font-family="Helvetica,sans-Serif" font-size="10.00" fill="#000000">iostream</text>
</g>
<!-- Node4&#45;&gt;Node5 -->
<g id="edge5" class="edge">
<title>Node4&#45;&gt;Node5</title>
<path fill="none" stroke="#191970" d="M203.5245,-55.4179C196.687,-47.5833 186.6282,-36.0575 178.299,-26.5137"/>
<polygon fill="#191970" stroke="#191970" points="180.7615,-24.0123 171.5491,-18.7795 175.4875,-28.6151 180.7615,-24.0123"/>
</g>
<!-- Node6 -->
<g id="node7" class="node">
<title>Node6</title>
<polygon fill="#ffffff" stroke="#bfbfbf" points="208.835,-.5 208.835,-18.5 252.0664,-18.5 252.0664,-.5 208.835,-.5"/>
<text text-anchor="middle" x="230.4507" y="-6.5" font-family="Helvetica,sans-Serif" font-size="10.00" fill="#000000">mutex</text>
</g>
<!-- Node4&#45;&gt;Node6 -->
<g id="edge6" class="edge">
<title>Node4&#45;&gt;Node6</title>
<path fill="none" stroke="#191970" d="M214.5881,-55.4179C217.1306,-48.0581 220.7983,-37.441 223.9667,-28.2695"/>
<polygon fill="#191970" stroke="#191970" points="227.288,-29.3742 227.2451,-18.7795 220.6716,-27.0885 227.288,-29.3742"/>
</g>
<!-- Node8 -->
<g id="node9" class="node">
<title>Node8</title>
<polygon fill="#ffffff" stroke="#bfbfbf" points="270.0469,-.5 270.0469,-18.5 328.8545,-18.5 328.8545,-.5 270.0469,-.5"/>
<text text-anchor="middle" x="299.4507" y="-6.5" font-family="Helvetica,sans-Serif" font-size="10.00" fill="#000000">exception</text>
</g>
<!-- Node7&#45;&gt;Node8 -->
<g id="edge8" class="edge">
<title>Node7&#45;&gt;Node8</title>
<path fill="none" stroke="#191970" d="M356.2219,-55.4179C346.0462,-47.1876 330.8344,-34.8839 318.7176,-25.0836"/>
<polygon fill="#191970" stroke="#191970" points="320.8997,-22.3469 310.9235,-18.7795 316.4975,-27.7895 320.8997,-22.3469"/>
</g>
<!-- Node9 -->
<g id="node10" class="node">
<title>Node9</title>
<polygon fill="#ffffff" stroke="#bfbfbf" points="347.2241,-.5 347.2241,-18.5 387.6772,-18.5 387.6772,-.5 347.2241,-.5"/>
<text text-anchor="middle" x="367.4507" y="-6.5" font-family="Helvetica,sans-Serif" font-size="10.00" fill="#000000">string</text>
</g>
<!-- Node7&#45;&gt;Node9 -->
<g id="edge9" class="edge">
<title>Node7&#45;&gt;Node9</title>
<path fill="none" stroke="#191970" d="M367.4507,-55.4179C367.4507,-48.2164 367.4507,-37.8962 367.4507,-28.8632"/>
<polygon fill="#191970" stroke="#191970" points="370.9508,-28.7794 367.4507,-18.7795 363.9508,-28.7795 370.9508,-28.7794"/>
</g>
<!-- Node10 -->
<g id="node11" class="node">
<title>Node10</title>
<polygon fill="#ffffff" stroke="#bfbfbf" points="405.2783,-.5 405.2783,-18.5 449.623,-18.5 449.623,-.5 405.2783,-.5"/>
<text text-anchor="middle" x="427.4507" y="-6.5" font-family="Helvetica,sans-Serif" font-size="10.00" fill="#000000">cerrno</text>
</g>
<!-- Node7&#45;&gt;Node10 -->
<g id="edge10" class="edge">
<title>Node7&#45;&gt;Node10</title>
<path fill="none" stroke="#191970" d="M377.3585,-55.4179C386.1643,-47.3458 399.2446,-35.3556 409.8307,-25.6517"/>
<polygon fill="#191970" stroke="#191970" points="412.3211,-28.1168 417.3276,-18.7795 407.591,-22.9567 412.3211,-28.1168"/>
</g>
<!-- Node11 -->
<g id="node12" class="node">
<title>Node11</title>
<g id="a_node12"><a xlink:href="utils_8tpp.xhtml" target="_top" xlink:title="Small useful templated functions. ">
<polygon fill="#ffffff" stroke="#000000" points="467.2192,-.5 467.2192,-18.5 517.6821,-18.5 517.6821,-.5 467.2192,-.5"/>
<text text-anchor="middle" x="492.4507" y="-6.5" font-family="Helvetica,sans-Serif" font-size="10.00" fill="#000000">utils.tpp</text>
</a>
</g>
</g>
<!-- Node7&#45;&gt;Node11 -->
<g id="edge11" class="edge">
<title>Node7&#45;&gt;Node11</title>
<path fill="none" stroke="#191970" d="M388.0919,-55.4179C408.3573,-46.5011 439.4892,-32.803 462.4796,-22.6873"/>
<polygon fill="#191970" stroke="#191970" points="464.0353,-25.8267 471.7788,-18.5956 461.216,-19.4195 464.0353,-25.8267"/>
</g>
</g>
</svg>
        <g id="navigator" transform="translate(0 0)" fill="#404254">
                <rect fill="#f2f5e9" fill-opacity="0.5" stroke="#606060" stroke-width=".5" x="0" y="0" width="60" height="60"/>
                <use id="zoomplus" xlink:href="#zoomPlus" x="17" y="9" onmousedown="handleZoom(evt,'in')"/>
                <use id="zoomminus" xlink:href="#zoomMin" x="42" y="9" onmousedown="handleZoom(evt,'out')"/>
                <use id="reset" xlink:href="#resetDef" x="30" y="36" onmousedown="handleReset()"/>
                <g id="arrowUp" xlink:href="#dirArrow" transform="translate(30 24)" onmousedown="handlePan(0,-1)">
                  <use xlink:href="#rim" fill="#404040">
                        <set attributeName="fill" to="#808080" begin="arrowUp.mouseover" end="arrowUp.mouseout"/>
                  </use>
                  <path fill="none" stroke="white" stroke-width="1.5" d="M0,-3.0v7 M-2.5,-0.5L0,-3.0L2.5,-0.5"/>
                </g>
                <g id="arrowRight" xlink:href="#dirArrow" transform="rotate(90) translate(36 -43)" onmousedown="handlePan(1,0)">
                  <use xlink:href="#rim" fill="#404040">
                        <set attributeName="fill" to="#808080" begin="arrowRight.mouseover" end="arrowRight.mouseout"/>
                  </use>
                  <path fill="none" stroke="white" stroke-width="1.5" d="M0,-3.0v7 M-2.5,-0.5L0,-3.0L2.5,-0.5"/>
                </g>
                <g id="arrowDown" xlink:href="#dirArrow" transform="rotate(180) translate(-30 -48)" onmousedown="handlePan(0,1)">
                  <use xlink:href="#rim" fill="#404040">
                        <set attributeName="fill" to="#808080" begin="arrowDown.mouseover" end="arrowDown.mouseout"/>
                  </use>
                  <path fill="none" stroke="white" stroke-width="1.5" d="M0,-3.0v7 M-2.5,-0.5L0,-3.0L2.5,-0.5"/>
                </g>
                <g id="arrowLeft" xlink:href="#dirArrow" transform="rotate(270) translate(-36 17)" onmousedown="handlePan(-1,0)">
                  <use xlink:href="#rim" fill="#404040">
                        <set attributeName="fill" to="#808080" begin="arrowLeft.mouseover" end="arrowLeft.mouseout"/>
                  </use>
                  <path fill="none" stroke="white" stroke-width="1.5" d="M0,-3.0v7 M-2.5,-0.5L0,-3.0L2.5,-0.5"/>
                </g>
        </g>
        <svg viewBox="0 0 15 15" width="100%" height="30px" preserveAspectRatio="xMaxYMin meet">
         <g id="arrow_out" transform="scale(0.3 0.3)">
          <a xlink:href="utils_8cpp__incl_org.svg" target="_base">
           <rect id="button" ry="5" rx="5" y="6" x="6" height="38" width="38"
                fill="#f2f5e9" fill-opacity="0.5" stroke="#606060" stroke-width="1.0"/>
           <path id="arrow"
             d="M 11.500037,31.436501 C 11.940474,20.09759 22.043105,11.32322 32.158766,21.979434 L 37.068811,17.246167 C 37.068811,17.246167 37.088388,32 37.088388,32 L 22.160133,31.978069 C 22.160133,31.978069 26.997745,27.140456 26.997745,27.140456 C 18.528582,18.264221 13.291696,25.230495 11.500037,31.436501 z"
             style="fill:#404040;"/>
          </a>
         </g>
        </svg>
</svg>
