<?xml version="1.0" encoding="UTF-8" standalone="no"?>
<!DOCTYPE svg PUBLIC "-//W3C//DTD SVG 1.1//EN"
 "http://www.w3.org/Graphics/SVG/1.1/DTD/svg11.dtd">
<!-- Generated by graphviz version 2.40.1 (20161225.0304)
 -->
<!-- Title: TOOL::chToInt Pages: 1 -->
<svg width="205pt" height="45pt"
 viewBox="0.00 0.00 205.15 45.00" xmlns="http://www.w3.org/2000/svg" xmlns:xlink="http://www.w3.org/1999/xlink">
<g id="graph0" class="graph" transform="scale(1 1) rotate(0) translate(4 41)">
<title>TOOL::chToInt</title>
<polygon fill="#ffffff" stroke="transparent" points="-4,4 -4,-41 201.1504,-41 201.1504,4 -4,4"/>
<!-- Node1 -->
<g id="node1" class="node">
<title>Node1</title>
<polygon fill="#bfbfbf" stroke="#000000" points="0,-.5 0,-18.5 80.8486,-18.5 80.8486,-.5 0,-.5"/>
<text text-anchor="middle" x="40.4243" y="-6.5" font-family="Helvetica,sans-Serif" font-size="10.00" fill="#000000">TOOL::chToInt</text>
</g>
<!-- Node1&#45;&gt;Node1 -->
<g id="edge2" class="edge">
<title>Node1&#45;&gt;Node1</title>
<path fill="none" stroke="#191970" d="M18.7781,-27.8575C19.7108,-33.0281 26.9261,-37 40.4243,-37 61.4946,-37 67.256,-27.322 57.7086,-18.5134"/>
<polygon fill="#191970" stroke="#191970" points="22.0815,-29.0553 23.1401,-18.5134 15.7386,-26.0943 22.0815,-29.0553"/>
</g>
<!-- Node2 -->
<g id="node2" class="node">
<title>Node2</title>
<g id="a_node2"><a xlink:href="tool__linux_8cpp.xhtml#acecfe465c85a3ca3a91897379f4de033" target="_top" xlink:title="TOOL::getApp">
<polygon fill="#ffffff" stroke="#000000" points="116.8486,-.5 116.8486,-18.5 197.1504,-18.5 197.1504,-.5 116.8486,-.5"/>
<text text-anchor="middle" x="156.9995" y="-6.5" font-family="Helvetica,sans-Serif" font-size="10.00" fill="#000000">TOOL::getApp</text>
</a>
</g>
</g>
<!-- Node1&#45;&gt;Node2 -->
<g id="edge1" class="edge">
<title>Node1&#45;&gt;Node2</title>
<path fill="none" stroke="#191970" d="M91.1164,-9.5C99.648,-9.5 108.4005,-9.5 116.6258,-9.5"/>
<polygon fill="#191970" stroke="#191970" points="90.8695,-6.0001 80.8695,-9.5 90.8695,-13.0001 90.8695,-6.0001"/>
</g>
</g>
</svg>
